<svg id="Layer_1" data-name="Layer 1" xmlns="http://www.w3.org/2000/svg" viewBox="0 0 100 100"><defs><style>.cls-1{fill:#ffc640;}.cls-2{fill:#faaf40;}.cls-3{fill:#ffc63f;}.cls-4{fill:#f07d3c;}.cls-5{fill:#ffdb91;}</style></defs><title>aegis</title><circle class="cls-1" cx="50" cy="50" r="46"/><path class="cls-2" d="M50,8A42,42,0,1,1,8,50,42,42,0,0,1,50,8m0-8a50,50,0,1,0,50,50A50,50,0,0,0,50,0Z"/><path class="cls-2" d="M39.92,55.32a2.81,2.81,0,0,0,1.63-.51,2.89,2.89,0,0,0,.76-4c-2.68-3.92-6.81-9-11.63-8.08a7,7,0,0,0-4.49,3.49A6,6,0,0,1,24,48.49c-2.84,1.44-7.2.17-7.76-.8a3.74,3.74,0,0,1,.68-1.56,5.56,5.56,0,0,1,3.41-2.34,2.94,2.94,0,0,0,2.72-3l-.08-2.55L20.35,38c-.17,0-4.16-.36-5.37,1.94a11.82,11.82,0,0,0-2.93,3,7.92,7.92,0,0,0-1.46,6.17,7,7,0,0,0,4.18,4.55,14.21,14.21,0,0,0,11.8,0A11.39,11.39,0,0,0,31,49.47a6.21,6.21,0,0,1,.84-1.09s1.79-.06,5.71,5.68A2.89,2.89,0,0,0,39.92,55.32Z"/><path class="cls-2" d="M37.89,51.5a2.91,2.91,0,0,1-2.11-.91c-2.59-2.77-5.84-6.89-4.16-10.74A5.45,5.45,0,0,1,32.94,38c-4.52,2.17-6.16,1.81-7.45.19-.66-.83-1.21-2.31-.11-4.63,1.26-2.62,4.17-5.46,7.6-5.49a6.84,6.84,0,0,1,3.83,1.13c1.57-.95,3.42-2.09,5.58-3.48a2.89,2.89,0,0,1,3.13,4.87c-1.79,1.15-3.41,2.17-4.88,3.07a6.93,6.93,0,0,1,.48,4.72,5.71,5.71,0,0,1-3.4,3.42c-.23.11-.56.27-.75.39.08.41.51,1.74,3,4.44a2.9,2.9,0,0,1-2.12,4.87Z"/><path class="cls-2" d="M47.48,43.81a2.89,2.89,0,0,1-2-5A29.46,29.46,0,0,1,56.3,32a37.28,37.28,0,0,1,5.25-1.36l.4-.08c-.59-.4-1.45-.94-2.71-1.64A2.89,2.89,0,1,1,62,23.88c4.33,2.38,8.06,4.85,6.26,9-.72,2.55-3.21,3-5.61,3.52a33.43,33.43,0,0,0-4.47,1.14A24.06,24.06,0,0,0,49.5,43,2.87,2.87,0,0,1,47.48,43.81Z"/><path class="cls-2" d="M56.08,52.13a2.87,2.87,0,0,1-1.63-.5,2.9,2.9,0,0,1-.76-4c2.68-3.92,6.81-9,11.63-8.08A7.06,7.06,0,0,1,69.81,43a6,6,0,0,0,2.24,2.28c2.84,1.44,7.2.17,7.76-.79A3.69,3.69,0,0,0,79.13,43a5.48,5.48,0,0,0-3.41-2.34,3,3,0,0,1-2.72-3L73.08,35l2.56-.24c.18,0,4.17-.36,5.38,1.94a11.62,11.62,0,0,1,2.93,3,7.92,7.92,0,0,1,1.46,6.17,7,7,0,0,1-4.18,4.56,14.21,14.21,0,0,1-11.8,0A11.4,11.4,0,0,1,65,46.28a6.21,6.21,0,0,0-.84-1.09s-1.79,0-5.71,5.68A2.89,2.89,0,0,1,56.08,52.13Z"/><path class="cls-2" d="M33.7,61a2.89,2.89,0,0,1-2.89-2.78c0-.52-.44-12.86,6.65-19.21,3.42-3.07,7.86-4.22,13.21-3.41,20.06,3,17.91,19.6,17.88,19.77a2.89,2.89,0,0,1-5.73-.81c.15-1.15,1-11.14-13-13.24-3.61-.54-6.39.11-8.49,2C37.11,47.1,36.48,55.19,36.59,58a2.88,2.88,0,0,1-2.77,3Z"/><path class="cls-2" d="M41.51,38.45H57.92a7.87,7.87,0,0,1,7.87,7.87V65.27A16.07,16.07,0,0,1,49.71,81.34h0A16.07,16.07,0,0,1,33.64,65.27V46.32A7.87,7.87,0,0,1,41.51,38.45Z"/><path class="cls-3" d="M54.72,52.57h0a6.48,6.48,0,0,1,6.48,6.48v0a0,0,0,0,1,0,0h0a6.48,6.48,0,0,1-6.48-6.48v0A0,0,0,0,1,54.72,52.57Z" transform="translate(-19.36 78.1) rotate(-60)"/><circle class="cls-4" cx="57.96" cy="55.81" r="1.51"/><path class="cls-3" d="M44.71,52.57h0a0,0,0,0,1,0,0v0a6.48,6.48,0,0,1-6.48,6.48h0a0,0,0,0,1,0,0v0A6.48,6.48,0,0,1,44.71,52.57Z" transform="translate(13.86 119.63) rotate(-120)"/><circle class="cls-4" cx="41.47" cy="55.81" r="1.51"/><path class="cls-3" d="M49.71,66.81h0a2.43,2.43,0,0,0,2.3-3.2L49.6,56.47l-2.2,7.21A2.42,2.42,0,0,0,49.71,66.81Z"/><polygon class="cls-4" points="48.37 22.29 50.87 16.65 49.33 17.36 48.83 15.75 46.33 21.38 48.37 22.29"/><ellipse class="cls-2" cx="45.43" cy="24.79" rx="6.12" ry="3.95" transform="translate(4.37 56.3) rotate(-66.12)"/><circle class="cls-5" cx="43.56" cy="25.9" r="0.71"/><polygon class="cls-4" points="57.44 25.91 52.28 22.54 53.96 22.31 53.5 20.67 58.66 24.05 57.44 25.91"/><ellipse class="cls-2" cx="61.27" cy="26.41" rx="3.95" ry="6.12" transform="matrix(0.55, -0.84, 0.84, 0.55, 5.64, 63.25)"/><circle class="cls-5" cx="63.45" cy="26.32" r="0.71"/><polygon class="cls-4" points="73.63 37.4 68.46 34.03 70.14 33.79 69.68 32.16 74.84 35.53 73.63 37.4"/><ellipse class="cls-2" cx="77.46" cy="37.9" rx="3.95" ry="6.12" transform="translate(3.35 82) rotate(-56.83)"/><circle class="cls-5" cx="79.63" cy="37.81" r="0.71"/><polygon class="cls-4" points="22.38 40.59 27.54 37.21 25.86 36.98 26.32 35.35 21.16 38.72 22.38 40.59"/><ellipse class="cls-2" cx="18.54" cy="41.09" rx="6.12" ry="3.95" transform="translate(-19.46 16.84) rotate(-33.17)"/><circle class="cls-5" cx="16.37" cy="41" r="0.71"/><path class="cls-3" d="M49.19,69.07h1a3.15,3.15,0,0,1,3.15,3.15v0a0,0,0,0,1,0,0H46a0,0,0,0,1,0,0v0a3.15,3.15,0,0,1,3.15-3.15Z"/><path class="cls-3" d="M49.19,72.65h1a3.15,3.15,0,0,1,3.15,3.15v0a0,0,0,0,1,0,0H46a0,0,0,0,1,0,0v0a3.15,3.15,0,0,1,3.15-3.15Z" transform="translate(99.43 148.44) rotate(180)"/></svg>