<svg id="Layer_1" data-name="Layer 1" xmlns="http://www.w3.org/2000/svg" viewBox="0 0 100 100"><defs><style>.cls-1{fill:#19a683;}.cls-2{fill:#68b082;}.cls-3{fill:#44aa82;}.cls-4{fill:#3d9a77;}.cls-5{opacity:0.42;}.cls-6{fill:#87898b;}.cls-7{fill:#895e59;}.cls-8{fill:#ffc640;}.cls-9{fill:#f89c3e;}.cls-10{fill:#005c47;}.cls-11{fill:#354e3e;}.cls-12{fill:#498b4b;}.cls-13{fill:#547446;}.cls-14{fill:#89c2ac;}.cls-15{fill:#73a492;}</style></defs><title>ooze</title><path class="cls-1" d="M79.49,30.47l-.07-.11-.06-.09C71.13,17,61,26.07,50,26.07s-21.13-9-29.38,4.3l0,.06-.1.16C8.14,50.65,9.45,72.6,9.45,76.89L5.89,80.24c0,3.57-.21,7.4,8.83,9.74,1.69.43,3.51.84,5.43,1.21,3.21.63,6.71,1.15,10.45,1.56l2.27.23c5.35.51,11.14.78,17.17.78h0c15.52,0,29.39-1.83,38.55-4.7A42,42,0,0,0,94,87c.53-.25,1-.51,1.47-.77,2.92-1.64,4.56-3.47,4.56-5.4h0C100,76.54,91.92,50.55,79.49,30.47Z"/><path class="cls-1" d="M97.36,37.88l-.63.6.63-.6L95.9,36.7l1.46,1.18L100,35.39v-2.7C100,18.23,88.06,4.59,73.71,6.4,62,7.87,39.32,15.21,27.58,16.48,13.2,18,.09,18.23.09,32.69L12,64.77c0-3.1-.06,26.83,14.4,26.83H73.71C88.17,91.6,100,75.36,100,81.2V40Z"/><path class="cls-2" d="M57.84,23.05S92,14.76,84.54,8A20.38,20.38,0,0,0,73.71,6.4C62,7.87,39.32,15.21,27.58,16.48c-8,.86-15.54,1.31-20.71,4C15.23,26,36.66,37.21,57.84,23.05Z"/><path class="cls-3" d="M23.88,66.82c6.71-12.32,14.79-28.57,11.5-36.88L16.9,17.68C7.31,19.09.09,22,.09,32.69c0,0,3.1,17.24,2.45,32.86l1.93-.46,1-1.21-1,1.21.19,0-.19,0L2.4,67.57c-.07,1-.11,2-.21,3l5,1.88,2.76,0-2.76,0,.23.09-.23-.09L2,72.45A42.54,42.54,0,0,1,.09,80.83C-1.2,84.49,11.92,92.22,26.38,92.22l1.26.19C25.36,89.29,18.17,77.31,23.88,66.82Z"/><path class="cls-3" d="M58.66,33.27c-1,3.42-2.12,6.79-3.28,10.14l-.18-.81c2.09,1.85,4.17,3.7,6.21,5.59l1.09,1-1.39.64c-2,.92-4,1.77-6,2.64l.15-.08c-2.82,1.79-5.64,3.56-8.5,5.27l.46-.84c0,2.37-.12,4.74-.22,7.12l-.18-.5q3.44,4.55,6.65,9.26c-2.7-2.69-5.3-5.46-7.84-8.27l-.17-.18V64c-.09-2.38-.18-4.75-.22-7.12V56.3L45.7,56c2.78-1.85,5.59-3.64,8.41-5.41l.08,0,.08,0c2-.83,4-1.7,6-2.49L60,49.64c-2-2-3.91-4-5.84-6l-.37-.39.19-.42C55.49,39.64,57,36.43,58.66,33.27Z"/><path class="cls-3" d="M64.41,62.82a24.47,24.47,0,0,1-.84-4.41l.37.69a40.17,40.17,0,0,1-5.06-3.18l.35.16c-1.32-.35-2.61-.79-3.89-1.27l-.85-.32.31-.64a23.75,23.75,0,0,1,1.79-3.17,24.13,24.13,0,0,1-.37,3.63l-.53-1a39.09,39.09,0,0,1,4,.66l.16,0,.19.12a41.4,41.4,0,0,1,4.81,3.55l.4.34,0,.35A23.63,23.63,0,0,1,64.41,62.82Z"/><path class="cls-3" d="M95.4,52.35c-1,2-2.09,3.87-3.22,5.74l.11-.23c-.65,3-1.4,5.93-2.23,8.85L90,67l-.18.19c-2.56,2.74-5.18,5.42-8,7.94l0-1c1.32,1.39,2.6,2.82,3.81,4.34-1.64-1-3.2-2.16-4.72-3.33l-.51-.38.46-.59c2.33-3,4.82-5.75,7.38-8.49l-.25.44c.87-2.92,1.82-5.81,2.88-8.67l.06-.18,0,0C92.39,55.55,93.83,53.9,95.4,52.35Z"/><path class="cls-3" d="M89.77,63.8a93.43,93.43,0,0,1,7.06,6.4l.63.62-.72.65Q90.56,77.08,83.88,82l.23-.29c-1.61,2.8-3.29,5.57-5.18,8.22a94.18,94.18,0,0,1,3.58-9l.06-.13.17-.16q6.18-5.58,12.88-10.53l-.09,1.28C93.51,69,91.56,66.45,89.77,63.8Z"/><path class="cls-4" d="M11,28.16c-.76,3.81-1.7,7.55-2.77,11.25l-.05-.71q2.14,3.9,4.16,7.87l.12.23v.26l0,3.62-1.75-.8q2.92-2.45,5.94-4.78l1.1-.85.17,1.29c.22,1.68.44,3.37.58,5.06l0,.25-.14.11c-.92.69-1.83,1.38-2.79,2,.73-.89,1.51-1.74,2.27-2.59l-.11.35c-.51-1.63-.94-3.27-1.37-4.91l1.27.44c-1.82,1.77-3.68,3.49-5.56,5.19L10.31,53l0-2.35,0-3.62.12.49C9,44.9,7.74,42.23,6.5,39.54l-.17-.39.12-.33C7.82,35.22,9.3,31.66,11,28.16Z"/><g class="cls-5"><path class="cls-6" d="M66.7,51.09c-.37.37-1.34,0-2.17-.83s-1.2-1.8-.83-2.17,1.35,0,2.18.82,1.19,1.81.82,2.18"/><path class="cls-7" d="M70.15,47.13l-2.47-2.47A.91.91,0,1,1,69,43.38l2.47,2.48a.9.9,0,1,1-1.28,1.27"/><path class="cls-7" d="M69.26,48l-2.48-2.47a.91.91,0,0,1,1.28-1.28l2.47,2.47A.9.9,0,1,1,69.26,48"/><path class="cls-7" d="M68.36,48.92l-2.47-2.47a.91.91,0,0,1,1.28-1.28l2.47,2.48a.9.9,0,0,1-1.28,1.27"/><path class="cls-7" d="M67.47,49.82,65,47.35a.91.91,0,0,1,1.28-1.28l2.47,2.47a.9.9,0,0,1-1.27,1.28"/><path class="cls-7" d="M66.63,50.65l-2.47-2.47a.91.91,0,0,1,1.28-1.28l2.47,2.47a.91.91,0,0,1-1.28,1.28"/><path class="cls-6" d="M74.71,48.26c-.47.47-2.67-1-4.91-3.22s-3.69-4.45-3.23-4.92,2.67,1,4.92,3.23,3.69,4.44,3.22,4.91"/><polyline class="cls-6" points="67.9 38.8 76.04 46.93 74.71 48.26 66.57 40.12 67.9 38.8"/><polyline class="cls-8" points="87.52 27.29 83.81 27.2 69.72 41.28 71.63 43.19 87.52 27.29"/><polyline class="cls-9" points="87.63 31.03 87.52 27.29 71.63 43.19 73.55 45.11 87.63 31.03"/><path class="cls-10" d="M64,48a.53.53,0,0,0-.29.14c-.37.37,0,1.34.83,2.17a2.93,2.93,0,0,0,1.77,1,.56.56,0,0,0,.4-.14.5.5,0,0,0,.14-.28.83.83,0,0,1-.21-.16l-2.47-2.47A1.24,1.24,0,0,1,64,48"/><path class="cls-11" d="M68.08,43.15a1,1,0,0,0-.4.23.93.93,0,0,0-.26.64h0a.86.86,0,0,1,.64.26l2.47,2.47a.91.91,0,0,1,.27.65.86.86,0,0,0,.63-.27.9.9,0,0,0,.23-.4A23,23,0,0,1,69.8,45c-.65-.65-1.23-1.29-1.72-1.89"/><path class="cls-11" d="M67.42,44h0a.93.93,0,0,0-.64.26.89.89,0,0,0-.26.63h0a.93.93,0,0,1,.64.26l2.47,2.48a.88.88,0,0,1,.26.64.89.89,0,0,0,.63-.26.86.86,0,0,0,.27-.63.91.91,0,0,0-.27-.65l-2.47-2.47a.86.86,0,0,0-.64-.26"/><path class="cls-11" d="M66.53,44.91h0a.89.89,0,0,0-.63.26.93.93,0,0,0-.26.64h0a.86.86,0,0,1,.64.26l2.47,2.47a.91.91,0,0,1,.27.65.86.86,0,0,0,.63-.27.89.89,0,0,0,.26-.63.88.88,0,0,0-.26-.64l-2.47-2.48a.93.93,0,0,0-.64-.26"/><path class="cls-11" d="M65.63,45.81h0a.93.93,0,0,0-.64.26,1,1,0,0,0-.26.57h.07a.93.93,0,0,1,.64.26l2.47,2.47a.93.93,0,0,1,.26.71.89.89,0,0,0,.57-.26.86.86,0,0,0,.27-.63.91.91,0,0,0-.27-.65l-2.47-2.47a.86.86,0,0,0-.64-.26"/><path class="cls-11" d="M64.8,46.64h-.07A.9.9,0,0,0,64,48a1.24,1.24,0,0,0,.17.23l2.47,2.47a.83.83,0,0,0,.21.16.92.92,0,0,0,.43.11.89.89,0,0,0,.64-.27.86.86,0,0,0,.26-.57.93.93,0,0,0-.26-.71L65.44,46.9a.93.93,0,0,0-.64-.26"/><path class="cls-10" d="M66.57,40.12h0c-.33.34.31,1.55,1.51,3,.49.6,1.07,1.24,1.72,1.89a23,23,0,0,0,1.86,1.69,6.48,6.48,0,0,0,2.79,1.62.36.36,0,0,0,.26-.09h0l-8.14-8.14"/><polyline class="cls-10" points="67.9 38.8 66.57 40.12 74.71 48.26 76.04 46.93 73.88 44.78 73.55 45.11 71.63 43.19 69.72 41.28 70.06 40.95 67.9 38.8"/><polyline class="cls-12" points="83.81 27.2 70.06 40.95 69.72 41.28 71.63 43.19 87.52 27.29 83.81 27.2"/><polyline class="cls-13" points="87.52 27.29 87.52 27.29 71.63 43.19 73.55 45.11 73.88 44.78 87.63 31.03 87.52 27.29"/></g><rect class="cls-14" x="28.17" y="70.26" width="14.51" height="15.88" rx="7.25" ry="7.25" transform="translate(-24.19 16.42) rotate(-19.61)"/><path class="cls-14" d="M40.2,78.73a1.51,1.51,0,0,0-.91,1.93l.45,1.27A1.52,1.52,0,0,0,37.81,81a1.44,1.44,0,0,0-.89,1.4,1.41,1.41,0,0,0-1.57-.52,1.51,1.51,0,0,0-.91,1.93L34,82.55a1.51,1.51,0,1,0-2.84,1l1.53,4.3a1.51,1.51,0,0,0,2.85-1L36,88.12A1.51,1.51,0,0,0,37.9,89a1.43,1.43,0,0,0,.89-1.39,1.45,1.45,0,0,0,1.57.52,1.51,1.51,0,0,0,.91-1.93L40.82,85a1.51,1.51,0,0,0,2.85-1l-1.54-4.3A1.51,1.51,0,0,0,40.2,78.73Z"/><ellipse class="cls-15" cx="31.81" cy="79.92" rx="2.56" ry="1.58" transform="translate(-49.67 52.36) rotate(-49.61)"/><ellipse class="cls-15" cx="39.49" cy="77.18" rx="1.58" ry="2.56" transform="translate(-43.55 102.1) rotate(-79.61)"/></svg>