<svg id="Layer_1" data-name="Layer 1" xmlns="http://www.w3.org/2000/svg" viewBox="0 0 100 100"><defs><style>.cls-1{fill:#707174;}.cls-2{fill:#86888a;}.cls-3{fill:#f27d3b;}.cls-4{fill:#b5b7b9;}.cls-5{fill:#171717;}.cls-6{fill:#5a5d5f;}.cls-7{fill:#fcca98;}.cls-8{fill:#3e3e3f;}.cls-9{fill:#f37d3b;}.cls-10{fill:#885e59;}</style></defs><title>selkie</title><path class="cls-1" d="M75.44,43.24c3.23,2,7,7.89,7,7.89S65.31,55.43,62.9,52a7.65,7.65,0,0,1,1.91-10.63C68.27,38.93,71.87,41,75.44,43.24Z"/><path class="cls-1" d="M18.79,43.24c-3.23,2-7,7.89-7,7.89s17.17,4.3,19.58.84a7.64,7.64,0,0,0-1.91-10.63C26,38.93,22.35,41,18.79,43.24Z"/><rect class="cls-1" x="29.77" y="83.52" width="18.03" height="6.79" rx="1.61" ry="1.61" transform="translate(-53.5 110.2) rotate(-80.11)"/><rect class="cls-1" x="35.01" y="87.4" width="18.03" height="6.79" rx="1.61" ry="1.61" transform="matrix(0.17, -0.99, 0.99, 0.17, -52.98, 118.57)"/><rect class="cls-1" x="37.87" y="84.61" width="18.03" height="6.79" rx="1.61" ry="1.61" transform="translate(-47.87 119.08) rotate(-80.11)"/><rect class="cls-1" x="35.23" y="75.33" width="18.03" height="6.79" rx="1.61" ry="1.61" transform="translate(-40.9 108.79) rotate(-80.11)"/><rect class="cls-1" x="39.28" y="83.77" width="18.03" height="6.79" rx="1.61" ry="1.61" transform="translate(-37.7 137.49) rotate(-91.35)"/><rect class="cls-1" x="45.18" y="86.55" width="18.03" height="6.79" rx="1.61" ry="1.61" transform="translate(-34.44 146.23) rotate(-91.35)"/><rect class="cls-1" x="47.44" y="83.26" width="18.03" height="6.79" rx="1.61" ry="1.61" transform="translate(-28.85 145.12) rotate(-91.35)"/><rect class="cls-1" x="43.05" y="74.66" width="18.03" height="6.79" rx="1.61" ry="1.61" transform="translate(-24.75 131.94) rotate(-91.35)"/><path class="cls-2" d="M47.83,88.48h0S29.11,67.3,29.11,57V18.72A18.78,18.78,0,0,1,47.83,0h0A18.77,18.77,0,0,1,66.55,18.72V57C66.55,67.3,47.83,88.48,47.83,88.48Z"/><path class="cls-3" d="M41.86,18.89a1,1,0,0,0-1.21.58l-.89,2.45a.94.94,0,0,0,.57,1.21l1,.34,1.57-4.22Z"/><path class="cls-4" d="M40.38,12.25a1.49,1.49,0,0,0-1.89.89l-1.32,3.64a1.49,1.49,0,0,0,.89,1.89l4.42,1.59,2.38-6.39Z"/><path class="cls-4" d="M41.93,12.81a4.34,4.34,0,1,0,.34,8L44.4,15.1A4.27,4.27,0,0,0,41.93,12.81Z"/><path class="cls-4" d="M42.26,17.54a4.24,4.24,0,0,0,.08,3.1l2-5.5A4.32,4.32,0,0,0,42.26,17.54Z"/><circle class="cls-5" cx="35.23" cy="9.37" r="0.57"/><path class="cls-5" d="M45.08,13.07c-.92-.33-1.74-.42-2.07.5a1.78,1.78,0,0,0,1.07,2.28h0l1-2.75Z"/><circle class="cls-2" cx="37.87" cy="15.18" r="0.28"/><circle class="cls-2" cx="39.51" cy="14.41" r="0.28"/><circle class="cls-2" cx="38.64" cy="16.82" r="0.28"/><circle class="cls-2" cx="40.28" cy="16.05" r="0.28"/><circle class="cls-2" cx="39.41" cy="18.46" r="0.28"/><path class="cls-2" d="M41.14,17.43A.28.28,0,1,0,41,18a.28.28,0,0,0,.35-.17A.27.27,0,0,0,41.14,17.43Z"/><path class="cls-4" d="M53.47,16.76a4.33,4.33,0,0,0-2.25-2.37l2.16,5.72A4.32,4.32,0,0,0,53.47,16.76Z"/><path class="cls-3" d="M55,18.7a1,1,0,0,0-1.23-.54l-1,.38,1.59,4.21,1-.39a1,1,0,0,0,.54-1.23Z"/><path class="cls-4" d="M57,12.32a1.48,1.48,0,0,0-1.92-.84l-4.31,1.68,2.41,6.39,4.38-1.71a1.48,1.48,0,0,0,.84-1.92Z"/><path class="cls-4" d="M53.67,12a4.28,4.28,0,0,0-2.43,2.4l2.07,5.49a4.28,4.28,0,0,0,3.51.18A4.33,4.33,0,0,0,53.67,12Z"/><circle class="cls-5" cx="59.52" cy="8.71" r="0.57"/><path class="cls-5" d="M52.48,12.87c-.35-.89-1.13-.81-2-.47l1,2.74A1.77,1.77,0,0,0,52.48,12.87Z"/><circle class="cls-2" cx="57.49" cy="14.41" r="0.28"/><circle class="cls-2" cx="55.83" cy="13.68" r="0.28"/><circle class="cls-2" cx="56.76" cy="16.07" r="0.28"/><circle class="cls-2" cx="55.11" cy="15.34" r="0.28"/><circle class="cls-2" cx="56.04" cy="17.72" r="0.28"/><circle class="cls-2" cx="54.38" cy="16.99" r="0.28"/><path class="cls-6" d="M47.83,8.54A42.51,42.51,0,0,1,54.6,23.12a56.6,56.6,0,0,1,1.87,14.59,56.05,56.05,0,0,1-1.84,14.58,42.24,42.24,0,0,1-6.8,14.58A42.21,42.21,0,0,1,41,52.29a55.64,55.64,0,0,1-1.85-14.58,56.6,56.6,0,0,1,1.87-14.59A42.7,42.7,0,0,1,47.83,8.54Z"/><path class="cls-7" d="M66.53,12.54l-8.41,4.31a14.07,14.07,0,0,0,12.82,25l8.41-4.3Z"/><path class="cls-7" d="M79,37.79a14.07,14.07,0,1,0-12.82-25"/><circle class="cls-8" cx="64.5" cy="17.87" r="1.13"/><circle class="cls-8" cx="74.08" cy="36.67" r="1.13"/><circle class="cls-7" cx="78.16" cy="40.24" r="2.71"/><circle class="cls-7" cx="74.37" cy="40.3" r="2.37"/><circle class="cls-7" cx="63.75" cy="12.08" r="2.71"/><circle class="cls-7" cx="61.5" cy="15.13" r="2.37"/><polygon class="cls-9" points="61.92 27.59 64.45 32.54 72.23 25.44 61.92 27.59"/><rect class="cls-7" x="64.5" y="40.75" width="5.83" height="16.2" rx="2.92" ry="2.92" transform="translate(-13.02 70.31) rotate(-50.87)"/><rect class="cls-7" x="76.44" y="43.52" width="5.83" height="16.2" rx="2.92" ry="2.92" transform="translate(37.66 136.61) rotate(-96.91)"/><path class="cls-10" d="M67.65,12.08S69.49,24,77.59,29c0,0-2.47-4.84-1.19-7.38,0,0,3.28,12.34,9.3,11.57s.3-18.66-5.64-20.64S70.31,9.67,67.65,12.08Z"/><rect class="cls-9" x="59.04" y="28.82" width="1.07" height="6.32" rx="0.54" ry="0.54" transform="translate(-7.41 22.77) rotate(-20.4)"/><path class="cls-7" d="M62.19,39l-.67-.39a13.51,13.51,0,0,0-5.3-6,2.07,2.07,0,0,0-.24-.17,13.5,13.5,0,0,0-8.13-1.78l-.67-.4a4.92,4.92,0,0,0-3.86-.47,2.81,2.81,0,0,0-1-1,2.88,2.88,0,0,0-2.39-.21,60.09,60.09,0,0,0-.75,9.16A55.64,55.64,0,0,0,41,52.29a43.34,43.34,0,0,0,5.62,12.9,14.08,14.08,0,0,0,2.79-.7,13.6,13.6,0,0,0,7-5.89l4.38-7.5a13.29,13.29,0,0,0,1.46-3.63A4.89,4.89,0,0,0,64,45.81,5,5,0,0,0,62.19,39Z"/></svg>