<svg id="Layer_1" data-name="Layer 1" xmlns="http://www.w3.org/2000/svg" viewBox="0 0 100 100"><defs><style>.cls-1{fill:#059072;}.cls-2{fill:#007f63;}.cls-3{fill:#079374;}.cls-4{fill:#09a582;}.cls-5{fill:#ffc640;}</style></defs><title>cthulhu</title><rect class="cls-1" x="38.34" y="71.64" width="8.43" height="23.39" rx="4.21" ry="4.21"/><rect class="cls-1" x="50.28" y="71.64" width="8.43" height="23.39" rx="4.21" ry="4.21"/><path class="cls-2" d="M38.7,43s-13.59-1.18-14.23,5.47C24.47,48.51,2.19,34,0,22.33c0,0,5.67,1.72,6.63-2.19,0,0,5.32,3.49,6.23.48,0,0,8.53,4.13,8.42,1.12C21.28,21.74,17.12,27.55,38.7,43Z"/><path class="cls-2" d="M61.3,43s13.59-1.18,14.23,5.47c0,0,22.28-14.48,24.47-26.18,0,0-5.67,1.72-6.63-2.19,0,0-5.32,3.49-6.23.48,0,0-8.53,4.13-8.42,1.12C78.72,21.74,82.88,27.55,61.3,43Z"/><rect class="cls-2" x="33.12" y="36.91" width="31.4" height="41.4" rx="15.7" ry="15.7"/><rect class="cls-3" x="33.12" y="39.86" width="31.4" height="11.39" rx="5.7" ry="5.7"/><rect class="cls-1" x="61.66" y="41.18" width="6.72" height="18.64" rx="3.36" ry="3.36"/><rect class="cls-1" x="61.66" y="57.61" width="6.72" height="18.64" rx="3.36" ry="3.36"/><rect class="cls-1" x="29.76" y="57.61" width="6.72" height="18.64" rx="3.36" ry="3.36"/><rect class="cls-1" x="29.76" y="41.18" width="6.72" height="18.64" rx="3.36" ry="3.36"/><path class="cls-4" d="M32.62,11.64V25.93a16.2,16.2,0,1,0,32.4,0V11.64Z"/><circle class="cls-5" cx="35.17" cy="26.88" r="1.3"/><circle class="cls-5" cx="61.3" cy="26.93" r="1.3"/><rect class="cls-4" x="35.7" y="31.22" width="6" height="25.7" rx="3" ry="3"/><rect class="cls-4" x="41.7" y="35.66" width="6" height="25.7" rx="3" ry="3"/><rect class="cls-4" x="47.28" y="31.88" width="6" height="25.7" rx="3" ry="3"/><rect class="cls-4" x="53.28" y="31.88" width="6" height="25.7" rx="3" ry="3"/><path class="cls-4" d="M71.34,53.24a2.68,2.68,0,0,1-.39,0c-13.16-1.48-17.39-14-17.78-20.43a3.46,3.46,0,0,1,6.91-.43h0c0,.52,1,12.78,11.65,14a3.46,3.46,0,0,1-.39,6.9Z"/><ellipse class="cls-4" cx="48.82" cy="11.21" rx="16.2" ry="4.57"/><ellipse class="cls-2" cx="48.92" cy="7.45" rx="8.37" ry="2.49"/><ellipse class="cls-2" cx="48.92" cy="13.73" rx="6.9" ry="2.05"/><ellipse class="cls-2" cx="48.82" cy="19.46" rx="4.61" ry="1.37"/></svg>