<svg id="Layer_1" data-name="Layer 1" xmlns="http://www.w3.org/2000/svg" viewBox="0 0 100 100"><defs><style>.cls-1{fill:#fcca98;}.cls-2{fill:#231f20;}.cls-3{fill:#44aa82;}.cls-4{fill:#dab085;}.cls-5{fill:#059174;}.cls-6{fill:#b2ad4e;}.cls-7{fill:#09a481;}</style></defs><title>vodyanoy</title><circle class="cls-1" cx="30.3" cy="9.08" r="8.81"/><circle class="cls-1" cx="69.24" cy="9.08" r="8.81"/><path class="cls-1" d="M70.17,39H30.3c-10.16,0-7-8.32-7-18.48h0A18.54,18.54,0,0,1,41.81,2H58.2A18.54,18.54,0,0,1,76.69,20.47h0C76.69,30.63,80.33,39,70.17,39Z"/><circle class="cls-2" cx="28.08" cy="7.28" r="2.44"/><circle class="cls-2" cx="69.84" cy="9.08" r="2.44"/><ellipse class="cls-3" cx="50" cy="20.3" rx="28.51" ry="9.94"/><ellipse class="cls-1" cx="50" cy="22.85" rx="28.51" ry="9.94"/><path class="cls-4" d="M41.41,9.46a4,4,0,0,1,8,0"/><path class="cls-4" d="M49,9.46a4,4,0,0,1,8,0"/><ellipse class="cls-1" cx="49.27" cy="2.42" rx="6.81" ry="2.42"/><rect class="cls-1" x="28.11" y="24.57" width="43.1" height="47.31" rx="21.55" ry="21.55"/><rect class="cls-1" x="28.11" y="28.62" width="43.1" height="15.63" rx="7.82" ry="7.82"/><rect class="cls-1" x="67.28" y="30.43" width="9.22" height="16.08" rx="4.61" ry="4.61"/><rect class="cls-1" x="67.28" y="43.47" width="9.22" height="25.59" rx="4.61" ry="4.61"/><rect class="cls-1" x="53.16" y="54.26" width="12.77" height="45.74" rx="6.38" ry="6.38"/><rect class="cls-1" x="34.8" y="54.26" width="12.77" height="45.74" rx="6.38" ry="6.38"/><rect class="cls-1" x="23.5" y="30.43" width="9.22" height="16.08" rx="4.61" ry="4.61"/><rect class="cls-1" x="23.5" y="43.47" width="9.22" height="25.59" rx="4.61" ry="4.61"/><path class="cls-5" d="M29.25,23.16A29,29,0,0,1,28.51,26c-.14.48-.3,1-.45,1.45l-.22.73-.12.36-.1.44-.19.88-.07.9c0,.16,0,.31,0,.46l0,.44a8.65,8.65,0,0,0,.11.89,9.82,9.82,0,0,0,1.25,3.22,11.37,11.37,0,0,0,2.12,2.54,10.66,10.66,0,0,0,2.67,1.81,24.28,24.28,0,0,1-3-5.24,10.58,10.58,0,0,1-.65-2.68,4.86,4.86,0,0,1,0-.66v-.32c0-.11,0-.22,0-.33s0-.43.06-.65l.16-.63.06-.32.11-.38.22-.76c.13-.52.27-1,.37-1.56a15.8,15.8,0,0,0,.39-3.26c0-.28,0-.57,0-.86a8.7,8.7,0,0,0-.13-.87c0-.13-.08-.26-.12-.4l-1.58.3A7.28,7.28,0,0,1,29.25,23.16Z"/><path class="cls-5" d="M41.12,26.3c0,.14-.09.28-.13.43s-.09.58-.13.87,0,.57,0,.86a16.52,16.52,0,0,0,.39,3.26c.1.53.25,1,.37,1.56l.22.76.11.38.07.32.15.63.06.65c0,.11,0,.21,0,.32l0,.33c0,.22,0,.44,0,.66A10.43,10.43,0,0,1,41.54,40a23.31,23.31,0,0,1-3,5.25,10.94,10.94,0,0,0,2.67-1.81,11.59,11.59,0,0,0,2.12-2.54,9.61,9.61,0,0,0,1.25-3.22,5.28,5.28,0,0,0,.11-.89l0-.45a3.39,3.39,0,0,0,0-.45l-.06-.9-.19-.88-.11-.44-.11-.37L44,32.57c-.15-.48-.31-1-.44-1.44a26,26,0,0,1-.74-2.85,7.7,7.7,0,0,1-.13-1.77C42.18,26.43,41.65,26.36,41.12,26.3Z"/><path class="cls-6" d="M37.71,24.09a16.37,16.37,0,0,0,1.35-2.79c-.53,0-1.07-.07-1.6-.08-.43.57-.89,1.13-1.38,1.7-.36.42-.73.85-1.1,1.3a10.44,10.44,0,0,0-1.09,1.53,2.42,2.42,0,0,0-.27.6,2.29,2.29,0,0,0-.09.48,1.43,1.43,0,0,0,0,.35,1.5,1.5,0,0,0,.12.42,1.94,1.94,0,0,0,.27.43,1.87,1.87,0,0,0,.35.28l.26.16a2.56,2.56,0,0,1,.25.16,4,4,0,0,1,.92.87,1.83,1.83,0,0,1,.42.85c0,.18,0,.28-.22.53a10.24,10.24,0,0,1-1.24.87,7.39,7.39,0,0,0-.78.69,7.47,7.47,0,0,0-.6.79,10.16,10.16,0,0,0-1.4,3.38,12.93,12.93,0,0,0-.3,3.5c.47-1.07.93-2.1,1.47-3.06a12.88,12.88,0,0,1,1.79-2.59c.16-.19.36-.32.52-.48a4.42,4.42,0,0,1,.55-.37l.27-.14.4-.2c.16-.09.32-.15.48-.26l.47-.35a5,5,0,0,0,.45-.47,3.44,3.44,0,0,0,.36-.59,3.19,3.19,0,0,0,.23-.7,4.28,4.28,0,0,0,.06-.72A4.19,4.19,0,0,0,37.73,28a6.37,6.37,0,0,0-1.53-1.4c-.05.1-.12.21-.16.3A.69.69,0,0,0,36,27s0,0,0-.06,0-.08,0-.15,0-.1-.06-.21a.6.6,0,0,0-.16-.25.67.67,0,0,0-.18-.16h0l-.06,0s.06,0,.08,0h0l.11.05.48.27,0,0c.17-.32.38-.66.6-1S37.41,24.59,37.71,24.09Z"/><path class="cls-6" d="M34.57,25.93l-.11-.05a.61.61,0,0,1,.17.15.56.56,0,0,1,.17.26,1.43,1.43,0,0,1,.06.21c0,.07,0,.14,0,.14s0,.1,0,.07a.69.69,0,0,1,.06-.18c0-.09.11-.2.16-.3l0,0A5.46,5.46,0,0,0,34.57,25.93Z"/><path class="cls-7" d="M33.05,20.18a9.64,9.64,0,0,1-.53,1.18,4,4,0,0,0-.43,2,4.77,4.77,0,0,0,.58,1.88,9.53,9.53,0,0,0,1,1.4c.68.82,1.37,1.51,2,2.2.16.17.29.34.43.51a.41.41,0,0,1,.08.1l.06.08a1,1,0,0,1,.1.17,2.36,2.36,0,0,1,.21,1A9.25,9.25,0,0,1,36,33.35c-.26.93-.62,1.85-1,2.81a11,11,0,0,0,2.09-2.27,7.85,7.85,0,0,0,1.31-3A4.11,4.11,0,0,0,38.39,29a3,3,0,0,0-.19-.5l-.13-.25c0-.08-.09-.16-.13-.21l-.45-.66c-.63-.86-1.31-1.6-1.88-2.31a5,5,0,0,1-1.12-1.91,2.08,2.08,0,0,1,.08-.87A8.78,8.78,0,0,0,35,20.65a7.35,7.35,0,0,0-.24-3.27.54.54,0,0,1,0-.11c-.4,0-.81.05-1.21.09A7.76,7.76,0,0,1,33.05,20.18Z"/><path class="cls-7" d="M46.11,26.75c-.15.55-.34,1.09-.53,1.6a7.15,7.15,0,0,0-.43,2.76,8.24,8.24,0,0,0,.58,2.57,13.58,13.58,0,0,0,1,1.91c.68,1.12,1.36,2.06,2,3,.15.23.29.47.43.7a.55.55,0,0,1,.08.14l.06.1a1.33,1.33,0,0,1,.1.24,4.16,4.16,0,0,1,.21,1.35,16.44,16.44,0,0,1-.46,3.6c-.25,1.27-.61,2.52-1,3.83a13.81,13.81,0,0,0,2.08-3.09,12.73,12.73,0,0,0,1.32-4.07,7.58,7.58,0,0,0-.07-2.63,5.41,5.41,0,0,0-.19-.69l-.13-.34L51,37.45c-.15-.31-.3-.62-.46-.91-.62-1.17-1.3-2.17-1.87-3.14a7.5,7.5,0,0,1-1.12-2.62,3.8,3.8,0,0,1,.08-1.18,14.62,14.62,0,0,0,.42-2.21,13.07,13.07,0,0,0-.24-4.47,9.65,9.65,0,0,0-.5-1.46l-.85-.19A14.37,14.37,0,0,1,46.11,26.75Z"/><path class="cls-5" d="M51.23,34.82l.16-.64.07-.31.11-.38.22-.76c.12-.52.27-1,.37-1.56a17.29,17.29,0,0,0,.38-3.09l-2-.46a.41.41,0,0,1,0,.11,29.23,29.23,0,0,1-.74,2.85c-.14.48-.29,1-.44,1.44l-.23.73-.11.37-.11.44-.19.88-.06.9a3.39,3.39,0,0,0,0,.45l0,.45a6.55,6.55,0,0,0,.1.89,9.84,9.84,0,0,0,1.26,3.22,11.32,11.32,0,0,0,2.12,2.54,10.57,10.57,0,0,0,2.66,1.8,23.81,23.81,0,0,1-3-5.24,10.84,10.84,0,0,1-.65-2.67c0-.22,0-.44,0-.66v-.33a3.11,3.11,0,0,1,0-.32C51.2,35.25,51.22,35,51.23,34.82Z"/><path class="cls-5" d="M63.61,29.06l-.19-.88-.11-.44-.11-.36L63,26.65c-.15-.48-.3-1-.44-1.45-.08-.25-.12-.49-.2-.74-.8,0-1.6-.09-2.41-.18.07.51.16,1,.26,1.51s.25,1,.37,1.56l.22.76.11.38.07.32.16.63c0,.22,0,.44,0,.65s0,.22,0,.33v.32c0,.22,0,.44,0,.66a11,11,0,0,1-.65,2.68,24.28,24.28,0,0,1-3,5.24,10.61,10.61,0,0,0,2.66-1.81A11.37,11.37,0,0,0,62.29,35a9.84,9.84,0,0,0,1.26-3.22,6.55,6.55,0,0,0,.1-.89l0-.44a3.39,3.39,0,0,0,0-.45Z"/><path class="cls-6" d="M66.05,35.26l.11,0a.59.59,0,0,1-.19-.13.74.74,0,0,1-.2-.23,2.07,2.07,0,0,1-.08-.21.53.53,0,0,1,0-.14s0-.09,0-.06a1,1,0,0,1,0,.19c0,.09-.08.21-.12.31l0,0A3.89,3.89,0,0,0,66.05,35.26Z"/><path class="cls-6" d="M67.91,33.68a2.51,2.51,0,0,0-.33-.4,1.83,1.83,0,0,0-.38-.23l-.28-.12-.26-.13a4.05,4.05,0,0,1-1-.76,2,2,0,0,1-.52-.79c0-.17,0-.28.15-.55a10.12,10.12,0,0,1,1.13-1,8.48,8.48,0,0,0,.69-.79,6.1,6.1,0,0,0,.5-.85,10.06,10.06,0,0,0,1-3.34q-.77.18-1.53.3a11.27,11.27,0,0,1-1.12,2,4.19,4.19,0,0,1-.46.55,6.28,6.28,0,0,1-.49.43l-.26.17-.37.25a3.28,3.28,0,0,0-.44.32l-.43.4a4.15,4.15,0,0,0-.39.52,3.65,3.65,0,0,0-.29.63,3.4,3.4,0,0,0-.14.72,4.34,4.34,0,0,0,0,.72,4.17,4.17,0,0,0,1.17,2.11A6.26,6.26,0,0,0,65.51,35c0-.1.09-.22.12-.31a1,1,0,0,0,0-.19s0,0,0,.06a.53.53,0,0,0,0,.14,2.07,2.07,0,0,0,.08.21.74.74,0,0,0,.2.23.59.59,0,0,0,.19.13h0l.06,0s-.06,0-.09,0h0l-.11,0a3.89,3.89,0,0,1-.51-.21l0,0q-.21.51-.48,1.08c-.24.5-.49,1-.72,1.54a14.3,14.3,0,0,0-1.13,3.4,4.82,4.82,0,0,0,0,1.89,2.65,2.65,0,0,0,.42.86,2,2,0,0,0,.72.55,2,2,0,0,1-.44-1.49,5.29,5.29,0,0,1,.47-1.46,24.77,24.77,0,0,1,1.68-2.78c.31-.46.63-.93.94-1.42a11.88,11.88,0,0,0,.9-1.65,3.4,3.4,0,0,0,.19-.63,1.81,1.81,0,0,0,0-.49,1.32,1.32,0,0,0-.05-.35A1.59,1.59,0,0,0,67.91,33.68Z"/><path class="cls-6" d="M63.86,35.31a2.06,2.06,0,0,0-.33-.4,1.76,1.76,0,0,0-.37-.23l-.28-.12-.27-.13a4.05,4.05,0,0,1-1-.76,1.81,1.81,0,0,1-.51-.79c0-.17,0-.28.15-.56a8.68,8.68,0,0,1,1.13-1,8.36,8.36,0,0,0,.68-.79,7.35,7.35,0,0,0,.51-.85,9.93,9.93,0,0,0,.94-3.34q-.77.18-1.53.3a10.68,10.68,0,0,1-1.12,2,4.19,4.19,0,0,1-.46.55,4.87,4.87,0,0,1-.49.43l-.26.17-.37.25a3.28,3.28,0,0,0-.44.32l-.43.4a5.37,5.37,0,0,0-.38.52,2.83,2.83,0,0,0-.3.63,4.06,4.06,0,0,0-.14.71,5.94,5.94,0,0,0,0,.73,4.24,4.24,0,0,0,1.17,2.1,6.24,6.24,0,0,0,1.69,1.21,2.08,2.08,0,0,0,.12-.32.46.46,0,0,0,0-.18s0,0,0,.06,0,.08,0,.14a1.09,1.09,0,0,0,.09.21.63.63,0,0,0,.2.23.53.53,0,0,0,.19.13h0l.07,0s-.07,0-.09,0h0l-.12,0a3.89,3.89,0,0,1-.51-.21l0,0c-.13.34-.3.7-.47,1.08s-.49,1-.73,1.54a14.3,14.3,0,0,0-1.13,3.4,4.77,4.77,0,0,0,0,1.88,2.45,2.45,0,0,0,.43.87,2,2,0,0,0,.71.55,2,2,0,0,1-.43-1.49A4.7,4.7,0,0,1,60.34,43,21.87,21.87,0,0,1,62,40.25c.3-.46.62-.93.93-1.42a10.53,10.53,0,0,0,.9-1.65,2.78,2.78,0,0,0,.19-.63,2.25,2.25,0,0,0,0-.49,1.41,1.41,0,0,0-.06-.35A1.28,1.28,0,0,0,63.86,35.31Z"/><path class="cls-7" d="M55.18,26.39V26.3l-1.94-.42a.06.06,0,0,0,0,0,9.64,9.64,0,0,1-.53,1.18,4,4,0,0,0-.43,2A4.77,4.77,0,0,0,52.85,31a9.53,9.53,0,0,0,1,1.4c.68.82,1.37,1.51,2,2.2.16.17.29.34.43.51a.41.41,0,0,1,.08.1l.06.08a1,1,0,0,1,.1.17,2.34,2.34,0,0,1,.21,1,9.31,9.31,0,0,1-.45,2.64c-.26.93-.62,1.85-1,2.81a11,11,0,0,0,2.09-2.27,8,8,0,0,0,1.32-3,4.26,4.26,0,0,0-.08-1.93,3.52,3.52,0,0,0-.19-.51L58.25,34c0-.08-.09-.16-.13-.21l-.45-.66c-.63-.86-1.31-1.6-1.88-2.31a5,5,0,0,1-1.12-1.91,2.07,2.07,0,0,1,.08-.87A9,9,0,0,0,55.18,26.39Z"/><path class="cls-7" d="M72.58,38.12l-.13-.33a2.93,2.93,0,0,0-.13-.29c-.15-.3-.3-.62-.45-.9-.63-1.18-1.31-2.18-1.88-3.15a7.38,7.38,0,0,1-1.11-2.62A3.42,3.42,0,0,1,69,29.66a14.77,14.77,0,0,0,.43-2.22,13.29,13.29,0,0,0-.14-3.73c-.46.1-.92.19-1.39.26a13.6,13.6,0,0,1-.42,2.83,16,16,0,0,1-.53,1.61,7.13,7.13,0,0,0-.43,2.75,8.53,8.53,0,0,0,.58,2.57,14.75,14.75,0,0,0,1,1.91c.68,1.12,1.37,2.07,2,3,.16.24.29.47.44.71a.57.57,0,0,1,.07.13l.06.1c0,.08.08.15.11.24a4.25,4.25,0,0,1,.2,1.36,16.86,16.86,0,0,1-.45,3.59c-.26,1.27-.62,2.52-1,3.83a14.52,14.52,0,0,0,2.08-3.09,13.16,13.16,0,0,0,1.32-4.07,7.6,7.6,0,0,0-.08-2.63A5.91,5.91,0,0,0,72.58,38.12Z"/><path class="cls-7" d="M37.94,3.8a2,2,0,0,0-2,0A5,5,0,0,0,34.1,6.06,33.53,33.53,0,0,1,30.3,12a32.3,32.3,0,0,0,2.4-6.47A6.81,6.81,0,0,1,34.58,2a4.67,4.67,0,0,1,4.57-1l.09,0A1.53,1.53,0,1,1,38.33,4,1.41,1.41,0,0,1,37.94,3.8Z"/><path class="cls-6" d="M67.56,18.66a4.68,4.68,0,0,1,4.57,1A6.92,6.92,0,0,1,74,23.13,31.89,31.89,0,0,0,76.4,29.6a33.25,33.25,0,0,1-3.8-5.93,5.06,5.06,0,0,0-1.84-2.25,2,2,0,0,0-2,0,1.53,1.53,0,1,1-1.69-2.54,1.5,1.5,0,0,1,.38-.19Z"/></svg>