<svg id="Layer_1" data-name="Layer 1" xmlns="http://www.w3.org/2000/svg" viewBox="0 0 100 100"><defs><style>.cls-1{fill:#885e59;}.cls-2{fill:#fcca97;}.cls-3{fill:#be9a77;}.cls-4{fill:#a38567;}.cls-5{fill:#f37d3b;}.cls-6{fill:#fcca98;}.cls-7{fill:#231f20;}</style></defs><title>wolpertinger</title><path class="cls-1" d="M37.69,65.76A36.7,36.7,0,0,1,34.14,69c-1.16,1-2.35,1.83-3.54,2.68a66.39,66.39,0,0,1-7.41,4.55,55.11,55.11,0,0,1-7.79,3.41,49.49,49.49,0,0,1-8,2.08,48,48,0,0,0,5.92-5.32,49.08,49.08,0,0,0,4.83-6A56.17,56.17,0,0,0,22,63.92c.56-1.11,1.09-2.22,1.56-3.33a19.15,19.15,0,0,0,1.12-3.13A8.23,8.23,0,1,1,38.8,64.58Z"/><polygon class="cls-2" points="37.69 65.76 36.65 66.81 24.52 58.21 24.71 57.46 37.69 65.76"/><polygon class="cls-2" points="34.67 68.54 32.67 70.13 22.98 61.99 23.81 60.08 34.67 68.54"/><polygon class="cls-2" points="30.64 71.63 28.57 73.04 21.05 65.77 22.06 63.88 30.64 71.63"/><polygon class="cls-2" points="26.46 74.36 24.32 75.6 18.82 69.45 19.97 67.62 26.46 74.36"/><polygon class="cls-2" points="22.14 76.75 19.94 77.8 16.27 73 17.58 71.25 22.14 76.75"/><polygon class="cls-2" points="17.71 78.75 15.46 79.61 13.38 76.37 14.87 74.71 17.71 78.75"/><polygon class="cls-2" points="13.18 80.35 10.89 80.97 10.14 79.51 11.81 77.97 13.18 80.35"/><polygon class="cls-2" points="8.53 81.5 7.41 81.7 8.31 81.01 8.53 81.5"/><path class="cls-1" d="M35.56,65.57a35.47,35.47,0,0,1-4.3,2.13c-1.37.59-2.76,1.12-4.14,1.61a66.43,66.43,0,0,1-8.37,2.34,56.71,56.71,0,0,1-8.43,1.15,48.13,48.13,0,0,1-8.25-.2,46,46,0,0,0,7.15-3.49,49.85,49.85,0,0,0,6.3-4.45A57.19,57.19,0,0,0,21,59.51c.84-.91,1.65-1.83,2.41-2.77A19.42,19.42,0,0,0,25.35,54a8.23,8.23,0,0,1,14.76,7.28A8.12,8.12,0,0,1,37,64.74Z"/><polygon class="cls-2" points="35.56 65.57 34.27 66.3 24.96 54.71 25.35 54.04 35.56 65.57"/><polygon class="cls-2" points="31.89 67.42 29.54 68.41 22.45 57.91 23.77 56.31 31.89 67.42"/><polygon class="cls-2" points="27.17 69.28 24.79 70.07 19.56 61.02 21.04 59.49 27.17 69.28"/><polygon class="cls-2" points="22.41 70.77 20.01 71.37 16.4 63.95 18.01 62.51 22.41 70.77"/><polygon class="cls-2" points="17.6 71.88 15.19 72.29 12.97 66.66 14.71 65.34 17.6 71.88"/><polygon class="cls-2" points="12.79 72.6 10.38 72.8 9.28 69.12 11.16 67.92 12.79 72.6"/><polygon class="cls-2" points="7.99 72.89 5.62 72.86 5.29 71.25 7.32 70.23 7.99 72.89"/><polygon class="cls-2" points="3.2 72.72 2.07 72.61 3.13 72.19 3.2 72.72"/><path class="cls-1" d="M33.94,64.8a35.14,35.14,0,0,1-4.76.6c-1.49.1-3,.15-4.43.16A67.21,67.21,0,0,1,16.07,65a56,56,0,0,1-8.34-1.68A48.83,48.83,0,0,1,0,60.45a46.37,46.37,0,0,0,7.9-1,49.64,49.64,0,0,0,7.41-2.13,58.26,58.26,0,0,0,6.87-3.06c1.1-.59,2.17-1.19,3.19-1.83a19.14,19.14,0,0,0,2.72-1.92,8.23,8.23,0,1,1,7.43,13.92Z"/><polygon class="cls-2" points="33.94 64.8 32.48 65.06 27.5 51.06 28.09 50.55 33.94 64.8"/><polygon class="cls-2" points="29.87 65.34 27.32 65.5 24.07 53.26 25.84 52.18 29.87 65.34"/><polygon class="cls-2" points="24.8 65.55 22.29 65.52 20.32 55.25 22.23 54.28 24.8 65.55"/><polygon class="cls-2" points="19.81 65.39 17.34 65.17 16.37 56.98 18.37 56.15 19.81 65.39"/><polygon class="cls-2" points="14.9 64.86 12.5 64.46 12.25 58.41 14.33 57.73 14.9 64.86"/><polygon class="cls-2" points="10.12 63.96 7.79 63.36 7.95 59.52 10.12 59.01 10.12 63.96"/><polygon class="cls-2" points="5.5 62.66 3.27 61.85 3.49 60.23 5.74 59.92 5.5 62.66"/><polygon class="cls-2" points="1.03 60.93 0 60.45 1.13 60.4 1.03 60.93"/><path class="cls-1" d="M62.31,65.76A36.7,36.7,0,0,0,65.86,69c1.16,1,2.35,1.83,3.54,2.68a66.39,66.39,0,0,0,7.41,4.55,55.11,55.11,0,0,0,7.79,3.41,49.49,49.49,0,0,0,8,2.08,48,48,0,0,1-5.92-5.32,49.08,49.08,0,0,1-4.83-6A56.17,56.17,0,0,1,78,63.92c-.56-1.11-1.09-2.22-1.56-3.33a19.15,19.15,0,0,1-1.12-3.13A8.23,8.23,0,1,0,61.2,64.58Z"/><polygon class="cls-2" points="62.31 65.76 63.35 66.81 75.48 58.21 75.29 57.46 62.31 65.76"/><polygon class="cls-2" points="65.33 68.54 67.33 70.13 77.02 61.99 76.19 60.08 65.33 68.54"/><polygon class="cls-2" points="69.36 71.63 71.43 73.04 78.95 65.77 77.94 63.88 69.36 71.63"/><polygon class="cls-2" points="73.54 74.36 75.68 75.6 81.19 69.45 80.03 67.62 73.54 74.36"/><polygon class="cls-2" points="77.86 76.75 80.06 77.8 83.73 73 82.42 71.25 77.86 76.75"/><polygon class="cls-2" points="82.29 78.75 84.55 79.61 86.62 76.37 85.13 74.71 82.29 78.75"/><polygon class="cls-2" points="86.82 80.35 89.11 80.97 89.86 79.51 88.19 77.97 86.82 80.35"/><polygon class="cls-2" points="91.47 81.5 92.59 81.7 91.69 81.01 91.47 81.5"/><path class="cls-1" d="M64.44,65.57a35.47,35.47,0,0,0,4.3,2.13c1.37.59,2.76,1.12,4.14,1.61a66.43,66.43,0,0,0,8.37,2.34,56.71,56.71,0,0,0,8.43,1.15,48.13,48.13,0,0,0,8.25-.2,46,46,0,0,1-7.15-3.49,49.85,49.85,0,0,1-6.3-4.45A57.19,57.19,0,0,1,79,59.51c-.84-.91-1.65-1.83-2.41-2.77A19.42,19.42,0,0,1,74.65,54a8.23,8.23,0,0,0-14.76,7.28,8.12,8.12,0,0,0,3.16,3.42Z"/><polygon class="cls-2" points="64.44 65.57 65.73 66.3 75.04 54.71 74.65 54.04 64.44 65.57"/><polygon class="cls-2" points="68.11 67.42 70.47 68.41 77.55 57.91 76.23 56.31 68.11 67.42"/><polygon class="cls-2" points="72.83 69.28 75.21 70.07 80.44 61.02 78.96 59.49 72.83 69.28"/><polygon class="cls-2" points="77.59 70.77 79.99 71.37 83.6 63.95 81.99 62.51 77.59 70.77"/><polygon class="cls-2" points="82.4 71.88 84.81 72.29 87.03 66.66 85.29 65.34 82.4 71.88"/><polygon class="cls-2" points="87.22 72.6 89.62 72.8 90.72 69.12 88.84 67.92 87.22 72.6"/><polygon class="cls-2" points="92.01 72.89 94.38 72.86 94.71 71.25 92.68 70.23 92.01 72.89"/><polygon class="cls-2" points="96.8 72.72 97.93 72.61 96.88 72.19 96.8 72.72"/><path class="cls-1" d="M66.06,64.8a35.14,35.14,0,0,0,4.76.6c1.49.1,3,.15,4.43.16A67.21,67.21,0,0,0,83.93,65a56,56,0,0,0,8.34-1.68A48.83,48.83,0,0,0,100,60.45a46.37,46.37,0,0,1-7.9-1,49.64,49.64,0,0,1-7.41-2.13,58.26,58.26,0,0,1-6.87-3.06c-1.1-.59-2.17-1.19-3.19-1.83a19.14,19.14,0,0,1-2.72-1.92,8.23,8.23,0,1,0-7.43,13.92Z"/><polygon class="cls-2" points="66.06 64.8 67.52 65.06 72.5 51.06 71.91 50.55 66.06 64.8"/><polygon class="cls-2" points="70.13 65.34 72.68 65.5 75.93 53.26 74.16 52.18 70.13 65.34"/><polygon class="cls-2" points="75.2 65.55 77.71 65.52 79.68 55.25 77.78 54.28 75.2 65.55"/><polygon class="cls-2" points="80.19 65.39 82.66 65.17 83.63 56.98 81.63 56.15 80.19 65.39"/><polygon class="cls-2" points="85.1 64.86 87.5 64.46 87.75 58.41 85.67 57.73 85.1 64.86"/><polygon class="cls-2" points="89.88 63.96 92.21 63.36 92.05 59.52 89.88 59.01 89.88 63.96"/><polygon class="cls-2" points="94.5 62.66 96.73 61.85 96.51 60.23 94.26 59.92 94.5 62.66"/><polygon class="cls-2" points="98.97 60.93 100 60.45 98.87 60.4 98.97 60.93"/><path class="cls-3" d="M24.31,86.34a2.19,2.19,0,0,1-2.19-2.15A44.79,44.79,0,0,1,24.7,67.86a2.2,2.2,0,0,1,4.09,1.62,41.28,41.28,0,0,0-2.28,14.61,2.19,2.19,0,0,1-2.14,2.25Z"/><path class="cls-4" d="M28.47,70.39,24.29,69c.24-.75.4-1.16.4-1.16l4.1,1.62S28.65,69.83,28.47,70.39Z"/><path class="cls-4" d="M26.55,81.19,22.16,81c0-.7.08-1.37.13-2l4.39.4C26.62,80,26.58,80.56,26.55,81.19Zm.33-3.66-4.36-.59c.09-.69.2-1.36.31-2l4.33.76C27.06,76.29,27,76.89,26.88,77.53Zm.64-3.62-4.3-1c.16-.72.33-1.39.49-2L28,72.12C27.81,72.65,27.67,73.25,27.52,73.91Z"/><path class="cls-4" d="M22.12,84.19c0-.39,0-.78,0-1.16h4.4c0,.35,0,.7,0,1Z"/><ellipse class="cls-1" cx="28.58" cy="62.09" rx="9.94" ry="6.68" transform="translate(-38.84 73.32) rotate(-74.74)"/><path class="cls-3" d="M31.47,91.26l-.26,0a1.65,1.65,0,0,1-1.37-1.89c.22-1.39-.24-1.87-.39-2-.92-1-3.15-.92-3.86-.83a1.65,1.65,0,0,1-.41-3.28c.44,0,4.41-.48,6.64,1.81a5.4,5.4,0,0,1,1.28,4.83A1.65,1.65,0,0,1,31.47,91.26Z"/><path class="cls-3" d="M18,91.26a1.65,1.65,0,0,1-1.63-1.4A5.37,5.37,0,0,1,17.7,85c2.22-2.29,6.19-1.86,6.63-1.81a1.65,1.65,0,0,1,1.43,1.85,1.67,1.67,0,0,1-1.84,1.43c-.71-.09-2.94-.12-3.86.83-.15.15-.61.63-.39,2a1.65,1.65,0,0,1-1.37,1.89Z"/><path class="cls-3" d="M24.17,92.35a1.65,1.65,0,0,1-1.65-1.65V84.81a1.65,1.65,0,1,1,3.3,0V90.7A1.65,1.65,0,0,1,24.17,92.35Z"/><path class="cls-3" d="M78.94,86.34h0a2.2,2.2,0,0,1-2.15-2.25,40.9,40.9,0,0,0-2.27-14.61,2.2,2.2,0,0,1,4.09-1.62,44.79,44.79,0,0,1,2.58,16.33A2.19,2.19,0,0,1,78.94,86.34Z"/><path class="cls-4" d="M74.79,70.39c-.18-.56-.31-.88-.32-.91l4.09-1.62s.17.41.41,1.16Z"/><path class="cls-4" d="M76.71,81.19c0-.63-.08-1.24-.13-1.83L81,79c.06.66.11,1.33.14,2Zm-.33-3.66c-.09-.64-.18-1.24-.28-1.82L80.43,75c.11.63.22,1.3.31,2Zm-.64-3.62c-.15-.66-.3-1.26-.44-1.79L79.55,71c.16.58.32,1.25.48,2Z"/><path class="cls-4" d="M81.14,84.2l-4.4-.12c0-.35,0-.7,0-1h4.41C81.16,83.41,81.15,83.81,81.14,84.2Z"/><ellipse class="cls-1" cx="74.67" cy="62.09" rx="6.68" ry="9.94" transform="translate(-13.71 21.85) rotate(-15.26)"/><path class="cls-5" d="M76.52,76.66c0,5.07-11.14,16-24.89,16s-24.88-11-24.88-16,11.14-32,24.88-32S76.52,71.58,76.52,76.66Z"/><circle class="cls-1" cx="51.54" cy="46.14" r="17.02"/><path class="cls-1" d="M26.07,30.44a8.1,8.1,0,0,1,12.72-10c2.77,3.51,6.75,14.41,3.24,17.18S28.84,34,26.07,30.44Z"/><path class="cls-6" d="M29,30a5.56,5.56,0,1,1,8.58-7.06c2,2.37,4.83,9.79,2.46,11.74S31,32.34,29,30Z"/><path class="cls-1" d="M78.13,30.44a8.1,8.1,0,1,0-12.71-10c-2.78,3.51-6.76,14.41-3.25,17.18S75.36,34,78.13,30.44Z"/><path class="cls-6" d="M75.2,30a5.56,5.56,0,1,0-8.58-7.06c-2,2.37-4.83,9.79-2.46,11.74S73.25,32.34,75.2,30Z"/><path class="cls-6" d="M59.34,51.71C59.34,55.83,56,56,51.87,56s-7.46-.16-7.46-4.28a7.47,7.47,0,0,1,14.93,0Z"/><path class="cls-1" d="M50.27,53.85a.62.62,0,0,1-.4-.15.63.63,0,0,1-.07-.88l1.45-1.69v-3.4a.63.63,0,0,1,1.25,0v3.86l-1.76,2A.62.62,0,0,1,50.27,53.85Z"/><path class="cls-1" d="M53.48,53.8a.62.62,0,0,1-.47-.22l-1.75-2V47.69a.63.63,0,0,1,1.25,0v3.4L54,52.78a.62.62,0,0,1-.07.87A.63.63,0,0,1,53.48,53.8Z"/><path class="cls-7" d="M56.28,44.81c0,2.4-4.35,4.35-4.35,4.35s-4.35-1.95-4.35-4.35,2-2.29,4.35-2.29S56.28,42.4,56.28,44.81Z"/><circle class="cls-7" cx="40.09" cy="44.35" r="1.01"/><circle class="cls-7" cx="64.27" cy="44.35" r="1.01"/><path class="cls-3" d="M56.63,33.93a2.28,2.28,0,0,1-1.15-.31,2.33,2.33,0,0,1-.87-3.18l9-15.8a2.33,2.33,0,0,1,4,2.31l-9,15.81A2.32,2.32,0,0,1,56.63,33.93Z"/><path class="cls-3" d="M75.89,18.12H65.82a2.33,2.33,0,1,1,0-4.65H75.89a2.33,2.33,0,1,1,0,4.65Z"/><path class="cls-3" d="M68.58,22.21H63.93a1.55,1.55,0,1,1,0-3.1h4.65a1.55,1.55,0,0,1,0,3.1Z"/><path class="cls-3" d="M64.62,16.07a1.55,1.55,0,0,1-1.09-.45l-3.29-3.28a1.55,1.55,0,0,1,2.19-2.2l3.29,3.28a1.55,1.55,0,0,1-1.1,2.65Z"/><path class="cls-3" d="M76.21,16.07a1.55,1.55,0,0,1-1.09-2.65l3.28-3.28a1.55,1.55,0,0,1,2.2,0,1.57,1.57,0,0,1,0,2.2l-3.29,3.28A1.55,1.55,0,0,1,76.21,16.07Z"/><path class="cls-3" d="M66,26.23H61.34a1.56,1.56,0,0,1,0-3.11H66a1.56,1.56,0,0,1,0,3.11Z"/><path class="cls-3" d="M46.67,33.93a2.32,2.32,0,0,1-2-1.17L35.61,17a2.33,2.33,0,0,1,4-2.31l9,15.8a2.34,2.34,0,0,1-.87,3.18A2.28,2.28,0,0,1,46.67,33.93Z"/><path class="cls-3" d="M37.48,18.12H27.41a2.33,2.33,0,1,1,0-4.65H37.48a2.33,2.33,0,1,1,0,4.65Z"/><path class="cls-3" d="M39.37,22.21H34.72a1.55,1.55,0,1,1,0-3.1h4.65a1.55,1.55,0,1,1,0,3.1Z"/><path class="cls-3" d="M38.68,16.07a1.55,1.55,0,0,1-1.1-2.65l3.28-3.28a1.56,1.56,0,0,1,2.2,2.2l-3.29,3.28A1.55,1.55,0,0,1,38.68,16.07Z"/><path class="cls-3" d="M27.09,16.07a1.55,1.55,0,0,1-1.1-.45L22.7,12.34a1.56,1.56,0,1,1,2.2-2.2l3.28,3.28a1.55,1.55,0,0,1-1.09,2.65Z"/><path class="cls-3" d="M42,26.23H37.32a1.56,1.56,0,0,1,0-3.11H42a1.56,1.56,0,0,1,0,3.11Z"/><path class="cls-6" d="M51.12,72c-5.53,0-10,5.43-10,12.14A13.79,13.79,0,0,0,43,91.25a26.45,26.45,0,0,0,16,.42,13.81,13.81,0,0,0,2.15-7.5C61.15,77.46,56.66,72,51.12,72Z"/><rect class="cls-5" x="39.68" y="68.38" width="7.46" height="27.94" rx="3.73" ry="3.73"/><rect class="cls-5" x="55.61" y="68.38" width="7.46" height="27.94" rx="3.73" ry="3.73"/><rect class="cls-1" x="36.6" y="50.48" width="3.17" height="8.96" rx="1.59" ry="1.59"/><rect class="cls-1" x="39.54" y="53.96" width="3.17" height="8.96" rx="1.59" ry="1.59"/><rect class="cls-1" x="42.57" y="55.99" width="3.17" height="8.96" rx="1.59" ry="1.59"/><rect class="cls-1" x="45.46" y="57.36" width="3.17" height="8.96" rx="1.59" ry="1.59"/><rect class="cls-1" x="48.56" y="57.36" width="3.17" height="8.96" rx="1.59" ry="1.59"/><rect class="cls-1" x="63.5" y="50.48" width="3.17" height="8.96" rx="1.59" ry="1.59" transform="translate(130.17 109.91) rotate(-180)"/><rect class="cls-1" x="60.56" y="53.96" width="3.17" height="8.96" rx="1.59" ry="1.59" transform="translate(124.28 116.88) rotate(-180)"/><rect class="cls-1" x="57.53" y="55.99" width="3.17" height="8.96" rx="1.59" ry="1.59" transform="translate(118.23 120.93) rotate(180)"/><rect class="cls-1" x="54.64" y="57.36" width="3.17" height="8.96" rx="1.59" ry="1.59" transform="translate(112.45 123.68) rotate(180)"/><rect class="cls-1" x="51.53" y="57.36" width="3.17" height="8.96" rx="1.59" ry="1.59" transform="translate(106.24 123.68) rotate(180)"/><path class="cls-3" d="M71.79,91.26a1.65,1.65,0,0,1-1.63-1.4A5.37,5.37,0,0,1,71.44,85c2.23-2.29,6.2-1.86,6.64-1.81a1.66,1.66,0,0,1,1.43,1.85,1.68,1.68,0,0,1-1.84,1.43c-.72-.09-3-.12-3.86.83-.15.15-.61.63-.39,2a1.66,1.66,0,0,1-1.37,1.89Z"/><path class="cls-3" d="M85.22,91.26l-.26,0a1.66,1.66,0,0,1-1.38-1.89c.22-1.39-.23-1.87-.38-2-.92-1-3.16-.92-3.86-.83a1.65,1.65,0,0,1-.42-3.28c.45,0,4.42-.48,6.64,1.81a5.34,5.34,0,0,1,1.28,4.83A1.65,1.65,0,0,1,85.22,91.26Z"/><path class="cls-3" d="M79.09,92.35a1.65,1.65,0,0,1-1.65-1.65V84.81a1.65,1.65,0,1,1,3.3,0V90.7A1.65,1.65,0,0,1,79.09,92.35Z"/></svg>