<svg id="Layer_1" data-name="Layer 1" xmlns="http://www.w3.org/2000/svg" viewBox="0 0 100 100"><defs><style>.cls-1{fill:#737477;}.cls-2{fill:#171717;}.cls-3{fill:#44aa82;}.cls-4{fill:#fcca98;}.cls-5{fill:#895e59;}.cls-6{fill:#ffc640;}.cls-7{fill:#929497;}.cls-8{fill:#3e3e3f;}.cls-9{fill:#f58c3d;}.cls-10{fill:#f89c3e;}</style></defs><title>valkyrie</title><polygon class="cls-1" points="79.05 59.45 95.84 77.17 94.41 78.21 73.08 66.97 79.05 59.45"/><polyline class="cls-1" points="96.71 79.33 96.36 87 94.12 79.59"/><rect class="cls-1" x="93.69" y="76.29" width="3.31" height="2.17" rx="1.09" ry="1.09" transform="translate(198.02 144.73) rotate(174.2)"/><rect class="cls-1" x="93.84" y="77.75" width="3.31" height="2.17" rx="1.09" ry="1.09" transform="translate(198.47 147.62) rotate(174.2)"/><polygon class="cls-2" points="100 87.88 93.55 88.54 96.34 83.9 100 87.88"/><path class="cls-3" d="M50.51,28.73s4.21,1,4.34,3.29-5.17.51-5.17.51"/><path class="cls-3" d="M45.92,29.59s-2.8-3.08-8.6-2.42S24.94,31.61,21.9,29a37.89,37.89,0,0,1-5-5.19s2.8,9.69,5.91,10.82-7.89,6.45-10.14,1.58c0,0,2.43,15.45,32-.5"/><path class="cls-4" d="M36.44,38.17A9.87,9.87,0,0,1,33,37.54c-3.61-1.37-6.46-4.77-8.48-10.12a2.81,2.81,0,1,1,5.25-2c1.4,3.72,3.21,6.09,5.22,6.84a4.08,4.08,0,0,0,3,0,2.81,2.81,0,1,1,2.64,5A9.44,9.44,0,0,1,36.44,38.17Z"/><rect class="cls-5" x="4.19" y="17.56" width="70.79" height="2.14" rx="1.07" ry="1.07" transform="translate(-4.11 20.81) rotate(-28.06)"/><path class="cls-6" d="M8.15,29.82A23.48,23.48,0,0,1,0,39.71l10.22-5.44L19,29.62S12.32,30.67,8.15,29.82Z"/><path class="cls-6" d="M14.74,28a16.38,16.38,0,0,1-5.65,6.87l7.1-3.78,6.07-3.23A27,27,0,0,1,14.74,28Z"/><path class="cls-6" d="M12.74,38.43A23.5,23.5,0,0,0,0,39.66l10.22-5.45,8.72-4.64S14.36,34.5,12.74,38.43Z"/><path class="cls-6" d="M17.92,34a16.3,16.3,0,0,0-8.86.85L16.17,31l6.06-3.23A27.08,27.08,0,0,0,17.92,34Z"/><rect class="cls-4" x="37.22" y="29.4" width="19.18" height="25.09" rx="9.59" ry="9.59"/><polygon class="cls-1" points="34.87 58.77 46.23 54.75 51.41 80.44 47.4 80.32 34.87 58.77"/><polyline class="cls-1" points="52.44 79.91 59.76 86.18 50.7 82.67"/><rect class="cls-1" x="47.38" y="78.39" width="4.15" height="2.73" rx="1.36" ry="1.36" transform="translate(143.3 80.42) rotate(122.22)"/><rect class="cls-1" x="48.94" y="79.37" width="4.15" height="2.73" rx="1.36" ry="1.36" transform="translate(146.51 80.61) rotate(122.22)"/><path class="cls-2" d="M31.37,61a14.54,14.54,0,0,0-.47-2.94,17.59,17.59,0,0,0-1-2.85,15.06,15.06,0,0,0-1.59-2.72,10.83,10.83,0,0,0-2.45-2.42,8.14,8.14,0,0,0-3.7-1.45,8.34,8.34,0,0,0-4.11.56,9,9,0,0,0-.89.41l-.83.47a14.48,14.48,0,0,0-3.9,3.55A11.27,11.27,0,0,0,10.74,57a12.82,12.82,0,0,0-.53,3.53,25.26,25.26,0,0,0,.17,3c.09.89.18,1.68.17,2.14,0,.23,0,.38,0,.53a.2.2,0,0,1,0,.11.81.81,0,0,1,0,.11l0,.08s0,.06,0,.08a.35.35,0,0,1-.27.26,1.55,1.55,0,0,1-.8,0,4.5,4.5,0,0,1-1.95-1.09,3.11,3.11,0,0,1-.71-.94,1.33,1.33,0,0,1,0-1.24,1.39,1.39,0,0,0-.63.49,2,2,0,0,0-.34.8,3.84,3.84,0,0,0,.13,1.72,5.91,5.91,0,0,0,1.93,2.9,4.89,4.89,0,0,0,1.83,1,4.23,4.23,0,0,0,2.48-.1,4,4,0,0,0,.6-.26,3.24,3.24,0,0,0,.54-.33,4.57,4.57,0,0,0,.47-.38,4.26,4.26,0,0,0,.42-.43,5.89,5.89,0,0,0,1.16-2,13.8,13.8,0,0,0,.61-3.46c.07-1,.12-1.83.22-2.59a7.56,7.56,0,0,1,1.35-3.62,10,10,0,0,1,1.38-1.49c.26-.24.57-.47.86-.71l.37-.26c.13-.09.24-.14.36-.22a3.48,3.48,0,0,1,1.36-.48,3.39,3.39,0,0,1,1.63.21,13,13,0,0,1,4,2.65C28.74,58.21,30,59.59,31.37,61Z"/><path class="cls-2" d="M67.25,15V49.6L51.92,53.38,56.3,26.05S58.65,12.91,67.25,15Z"/><path class="cls-7" d="M49.38,74.85c16.22,0,25.32-4.68,26.57-5.37L65.16,49.91l.19-.11c-.41.21-10.24,5-29.43,1.39a11.18,11.18,0,0,0-4.09,22A96.62,96.62,0,0,0,49.38,74.85Z"/><path class="cls-7" d="M56.89,77l.27.1.13,0,.06,0,.26.08.46.13.42.11.38.08c.51.12,1,.2,1.48.29s1,.14,1.47.19l.75.07.78,0a25.14,25.14,0,0,0,7.06-.6c.31-.07.67-.17,1-.27l1-.32.52-.18.54-.22c.36-.14.71-.3,1.06-.46l.52-.24.54-.29,1.06-.61a19.28,19.28,0,0,0,7.49-8.61,20.49,20.49,0,0,0,1.59-6.28c0-.44.07-.89.1-1.34s0-.79,0-1.18l0-1.17c0-.38-.07-.7-.1-1a34.61,34.61,0,0,0-.65-3.83l-.46-1.66c-.07-.28-.15-.56-.23-.82l-.26-.76-.52-1.51-.57-1.42c-.19-.46-.37-1-.58-1.39l-.61-1.32c-.39-.89-.83-1.72-1.25-2.55L80,38.8l-.67-1.2c-.45-.79-.88-1.6-1.35-2.35L76.58,33c-.82-1.22-1.59-2.43-2.28-3.61S73,27,72.6,26.1c-.21-.44-.4-.88-.53-1.08s-.27-.22-.61.05c0,0-.09.07-.14.11l-.16.1-.18.11-.2.1-.2.07-.18.05a.83.83,0,0,1-.31,0c-.35-.06-.21-.31.14-.45a4.44,4.44,0,0,1,1.54-.27,14.5,14.5,0,0,1,2,.1,33.41,33.41,0,0,1,4.46.88c1.53.4,3.07.88,4.6,1.41C85.93,28.36,89,29.61,92,31A99.47,99.47,0,0,0,85,23.83c-1.26-1.14-2.56-2.26-3.93-3.34a40.7,40.7,0,0,0-4.46-3.08,22.43,22.43,0,0,0-2.64-1.34,15,15,0,0,0-3.28-1L70.16,15,69.64,15a7.8,7.8,0,0,0-1.1,0h-.29l-.31,0-.62.06-.66.13a6.59,6.59,0,0,0-.67.17,8.12,8.12,0,0,0-1.4.55l-.7.37c-.23.15-.46.3-.68.46a6.37,6.37,0,0,0-.63.51,8.08,8.08,0,0,0-.6.57c-.18.19-.35.39-.52.59s-.34.42-.47.62-.28.41-.41.63l-.19.32-.15.3a9.75,9.75,0,0,0-.55,1.21c-.15.39-.3.8-.4,1.15l-.15.55-.07.28-.06.26a22.27,22.27,0,0,0-.49,3.79,42.36,42.36,0,0,0,.24,6.3c.2,2,.49,3.82.82,5.65l.31,2.31c.11.76.17,1.51.24,2.26l.11,1.12.07,1.09c0,.72.09,1.45.09,2.14v1c0,.34,0,.66,0,1l-.05,1-.1.89,0,.44a2.83,2.83,0,0,1-.08.4l-.15.76-.22.6,0,.15a1.05,1.05,0,0,1-.07.11l-.13.19a1,1,0,0,1-.12.17l-.14,0s-.08,0-.12,0A.76.76,0,0,1,59,55a2.26,2.26,0,0,1,.09-1.65,5.28,5.28,0,0,1,.31-.78l.22-.44c.09-.15.18-.31.28-.46s.2-.28.32-.44a5.45,5.45,0,0,1,.37-.47,4.47,4.47,0,0,1,.42-.45c.14-.14.29-.3.45-.44a11.83,11.83,0,0,1,1-.77,5.54,5.54,0,0,1,.51-.33l.27-.15.23-.14c.16-.09.33-.17.5-.25l.25-.11.22-.1.44-.18c.15-.05.31-.09.42-.14a20.72,20.72,0,0,1,2.2-.57l.17,0,.15,0,.28-.06a2.24,2.24,0,0,1,.31-.05h.21l.17,0,.12,0h0L69,47l.2.07A16.16,16.16,0,0,0,56.89,77Z"/><path class="cls-7" d="M59,47.45s8.11,3.69-21.55,4l5.25,13.66,33.15-3.94"/><path class="cls-1" d="M89.82,23.07a5.92,5.92,0,0,1,3.12,7.75l-.12.28a5.92,5.92,0,0,1-7.75,3.12l-1.93-.82L88.8,22.64Z"/><path class="cls-7" d="M68.37,20.69l.12-.28a5.93,5.93,0,0,1,7.75-3.12L88.8,22.64,83.14,33.4l-11.65-5A5.92,5.92,0,0,1,68.37,20.69Z"/><path class="cls-7" d="M67.36,15.34a2.09,2.09,0,0,0,4.17,0c0-1.16-2.09-6.73-2.09-6.73S67.36,14.18,67.36,15.34Z"/><circle class="cls-1" cx="91.56" cy="24.12" r="2.31"/><circle class="cls-8" cx="64.72" cy="22.15" r="0.7"/><circle class="cls-7" cx="92.26" cy="24.12" r="0.7"/><circle class="cls-1" cx="88.28" cy="26.43" r="2.31"/><circle class="cls-7" cx="88.97" cy="26.43" r="0.7"/><path class="cls-2" d="M65.94,14.78s6.38-1.28,10,1.33l-6.69,2.82s-4.07-2.22-6.18-1.33c-.11,0-4,3.8-4.13,3.85C56.7,22.62,60.4,18.3,60.4,18.3Z"/><path class="cls-7" d="M61.77,17.23a2.09,2.09,0,0,0,4.17,0c0-1.15-2.08-6.73-2.08-6.73S61.77,16.08,61.77,17.23Z"/><polygon class="cls-2" points="64.4 86.38 58.08 91.5 57.81 84.72 64.4 86.38"/><polygon class="cls-7" points="25.78 66.15 37.13 62.13 42.32 87.82 38.3 87.7 25.78 66.15"/><polyline class="cls-7" points="43.34 87.3 50.66 93.57 41.6 90.05"/><rect class="cls-7" x="38.29" y="85.77" width="4.15" height="2.73" rx="1.36" ry="1.36" transform="translate(135.6 99.44) rotate(122.22)"/><rect class="cls-7" x="39.84" y="86.75" width="4.15" height="2.73" rx="1.36" ry="1.36" transform="translate(138.81 99.62) rotate(122.22)"/><polygon class="cls-2" points="55.3 93.76 48.98 98.88 48.72 92.1 55.3 93.76"/><circle class="cls-1" cx="31.83" cy="55.97" r="0.84"/><circle class="cls-1" cx="27.61" cy="59.59" r="1.3"/><circle class="cls-1" cx="34.07" cy="59.57" r="0.49"/><polyline class="cls-4" points="44.37 24.93 40.55 32.56 43.59 43.42 49.45 44.55 54.64 35.77 49.84 24.93"/><path class="cls-4" d="M52.76,69.64a2.72,2.72,0,0,1-1.14-.24,2.81,2.81,0,0,1-1.42-3.71c1.4-3.14-4.56-8.77-7.5-10.85a2.81,2.81,0,0,1,3.24-4.58c1.35,1,13.05,9.52,9.39,17.72A2.82,2.82,0,0,1,52.76,69.64Z"/><path class="cls-4" d="M46.81,29.4a9.62,9.62,0,0,0-9.35,7.53h18.7A9.61,9.61,0,0,0,46.81,29.4Z"/><path class="cls-9" d="M37.46,36.93A9.36,9.36,0,0,0,37.22,39v5.92a9.59,9.59,0,1,0,19.18,0V39a9.36,9.36,0,0,0-.24-2.06Z"/><rect class="cls-10" x="36.37" y="33.4" width="10.66" height="7.27" rx="3.63" ry="3.63"/><rect class="cls-10" x="46.81" y="33.4" width="10.66" height="7.27" rx="3.63" ry="3.63"/><circle class="cls-3" cx="41.21" cy="32.64" r="1.74"/><circle class="cls-3" cx="53.67" cy="32.64" r="1.74"/><circle class="cls-10" cx="41.22" cy="32.62" r="0.78"/><circle class="cls-10" cx="53.67" cy="32.62" r="0.78"/><path class="cls-6" d="M45.09,7.07S32.92,5.31,28.59,9.53s-12.28,2-12.28,2S20.87,17.26,27.25,14s15.36-2.81,15.36-2.81"/><path class="cls-6" d="M45.09,19.17s-12.17-.55-16.5.76-12.28.61-12.28.61a23.06,23.06,0,0,0,10.94.78,113.45,113.45,0,0,1,15.36-.87"/><path class="cls-6" d="M45.09,13.81S32.92,12,28.59,16.26s-12.28,2-12.28,2S20.87,24,27.25,20.78,42.61,18,42.61,18"/><path class="cls-6" d="M40.3,11.24s-4.69,5-9,3.78a27.2,27.2,0,0,0-14.5-.54c-5.21,1.32-6.32-.71-6.32-.71s.09,3.65,6,2.43,14.63,2.34,15.85,2.34S42,18.06,44.33,16"/><rect class="cls-6" x="37.29" y="5.96" width="19.04" height="20.48" rx="9.52" ry="9.52"/><rect class="cls-4" x="38.5" y="7.07" width="16.69" height="22.33" rx="8.35" ry="8.35"/><polyline class="cls-6" points="38.5 12.27 55.19 12.27 53.71 9.82 51.41 7.87 48.48 6.79 45.3 6.79 40.97 8.6 39.18 10.55"/><circle class="cls-2" cx="41.41" cy="16.3" r="0.71"/><circle class="cls-2" cx="52.41" cy="16.3" r="0.71"/><path class="cls-6" d="M52.77,10.71s-3.36,4.15-13,3.74c0,0,10-2.81,5.85-5.2"/><path class="cls-6" d="M45.09,12s-12.17-.54-16.5.76-12.28.62-12.28.62a23.06,23.06,0,0,0,10.94.78,111.68,111.68,0,0,1,15.36-.87"/><path class="cls-10" d="M43.19,11.17s-4.7-2.38-4.39-4.11S39.28,1,36.1,1.12s-3.83,18.19-3.83,18.19L34,15.8l.27,1.62,1.94-4.28"/><path class="cls-9" d="M43.19,11.17l-2.55,1.65C39.23,12.13,35.87,14,35.87,14L37,11.49l.6-1.4S39.4,11.72,43.19,11.17Z"/><polyline class="cls-10" points="34.7 3.2 31.65 8.25 33.88 6.62 31.25 13.95 33.39 11.51"/><path class="cls-10" d="M51.21,11.17s4.7-2.38,4.39-4.11S55.12,1,58.3,1.12s3.84,18.19,3.84,18.19L60.38,15.8l-.27,1.62-1.94-4.28"/><path class="cls-9" d="M51.21,11.17l2.55,1.65c1.41-.69,4.78,1.13,4.78,1.13l-1.12-2.46-.59-1.4S55,11.72,51.21,11.17Z"/><polyline class="cls-10" points="59.7 3.2 62.76 8.25 60.52 6.62 63.15 13.95 61.02 11.51"/><rect class="cls-10" x="38.27" y="9.9" width="17.54" height="3.3" rx="1.65" ry="1.65"/><polygon class="cls-7" points="66.35 65.47 83.14 83.19 81.71 84.23 60.38 72.99 66.35 65.47"/><polyline class="cls-7" points="84.01 85.35 83.66 93.02 81.42 85.61"/><rect class="cls-7" x="80.99" y="82.31" width="3.31" height="2.17" rx="1.09" ry="1.09" transform="translate(173.29 158.02) rotate(174.2)"/><rect class="cls-7" x="81.14" y="83.77" width="3.31" height="2.17" rx="1.09" ry="1.09" transform="translate(173.74 160.91) rotate(174.2)"/><polygon class="cls-2" points="87.3 93.9 80.85 94.56 83.64 89.92 87.3 93.9"/></svg>