<svg id="Layer_1" data-name="Layer 1" xmlns="http://www.w3.org/2000/svg" viewBox="0 0 100 100"><defs><style>.cls-1{fill:#6ab8da;}.cls-2{fill:#fff;}.cls-3{fill:#6ab7d8;}.cls-4{fill:#77514d;}.cls-5{fill:#885e59;}.cls-6{fill:#c5e0a9;}.cls-7{fill:#231f20;}.cls-8{fill:#fcca98;}.cls-9{fill:#ffc540;}.cls-10{fill:#f37d3b;}.cls-11{fill:#ffc63f;}.cls-12{fill:#deae38;}</style></defs><title>sandman</title><path class="cls-1" d="M69.34,36c-10,0-20.19-5.67-20.77-6a2.3,2.3,0,1,1,2.26-4c.17.1,17.45,9.69,26.67,3.15a2.3,2.3,0,1,1,2.66,3.75A18.35,18.35,0,0,1,69.34,36Z"/><path class="cls-2" d="M69.34,36c-.8,0-1.6,0-2.4-.1l.39-4.59a21.31,21.31,0,0,0,4.15,0l.5,4.57A23.1,23.1,0,0,1,69.34,36Zm-7.26-.87a43.78,43.78,0,0,1-4.65-1.31l1.45-4.36a43.55,43.55,0,0,0,4.21,1.18Zm15-.53L75.3,30.37a11.1,11.1,0,0,0,2.2-1.2l2.66,3.75A16.1,16.1,0,0,1,77.06,34.63ZM52.94,32.14C50.32,31,48.64,30.07,48.57,30l2.26-4s1.55.87,3.93,1.89Z"/><rect class="cls-1" x="50.68" y="2.8" width="15.97" height="7.38" rx="3.69" ry="3.69"/><rect class="cls-1" x="54.75" y="1.41" width="10.45" height="4.17" rx="2.09" ry="2.09"/><path class="cls-1" d="M58.66,1.84s10.81-7,16,6.28c0,0-6.33-3.5-7.72-.47"/><path class="cls-3" d="M37.53,69A10.36,10.36,0,0,1,27.18,58.93c-.12-5.08-.4-49.65,28.76-52.52A10.35,10.35,0,0,1,58,27c-7.22.71-10.35,20.5-10.08,31.38A10.36,10.36,0,0,1,37.8,69Z"/><path class="cls-2" d="M27.18,58.93s0-1,0-2.74l20.71.36c0,1.1,0,1.77,0,1.87Z"/><path class="cls-2" d="M48.1,52.05,27.44,50.59c.12-1.7.29-3.58.53-5.57l20.56,2.52C48.33,49.15,48.2,50.67,48.1,52.05Zm1.1-8.92L28.83,39.4c.36-2,.78-3.9,1.25-5.7l20,5.25C49.78,40.25,49.47,41.66,49.2,43.13Zm2.13-8.06L31.88,27.92A47.37,47.37,0,0,1,34.5,22l18.29,9.72A26.3,26.3,0,0,0,51.33,35.07Zm3.11-5.87-16-13.11a27.9,27.9,0,0,1,5.84-5.43L56,27.75A7.24,7.24,0,0,0,54.44,29.2Z"/><path class="cls-2" d="M57.24,27.15,52.14,7.07A25.85,25.85,0,0,1,56,6.41L58,27A5.71,5.71,0,0,0,57.24,27.15Z"/><rect class="cls-4" x="11.98" y="79.86" width="7.28" height="20.14" rx="3.64" ry="3.64"/><rect class="cls-4" x="79.73" y="79.86" width="7.28" height="20.14" rx="3.64" ry="3.64"/><rect class="cls-5" x="3.78" y="60.59" width="92.44" height="28.21" rx="6.41" ry="6.41"/><rect class="cls-2" x="3.78" y="49.65" width="92.44" height="28.21" rx="6.41" ry="6.41"/><rect class="cls-6" x="76.64" y="40.16" width="17.84" height="34.53" rx="8.92" ry="8.92"/><rect class="cls-7" x="64.83" y="42.44" width="28" height="30.12" rx="14" ry="14" transform="translate(136.32 -21.33) rotate(90)"/><rect class="cls-8" x="63.55" y="41.12" width="24.55" height="32.84" rx="12.27" ry="12.27" transform="translate(133.37 -18.29) rotate(90)"/><polyline class="cls-7" points="84.61 45.27 84.61 69.82 88.2 67.64 91.08 64.25 92.66 59.94 92.66 55.26 90 48.9 87.13 46.27"/><path class="cls-7" d="M78.68,50.82a1.28,1.28,0,1,1,0-2.55.24.24,0,0,1,.23.23.23.23,0,0,1-.23.23.82.82,0,1,0,0,1.63.23.23,0,0,1,0,.46Z"/><path class="cls-7" d="M78.68,64a1.27,1.27,0,1,1,0-2.54.23.23,0,0,1,0,.46.81.81,0,1,0,0,1.62.23.23,0,0,1,0,.46Z"/><rect class="cls-7" x="68.68" y="53.07" width="2.52" height="31.64" rx="1.26" ry="1.26" transform="matrix(0, 1, -1, 0, 138.83, -1.04)"/><rect class="cls-7" x="68.68" y="30.2" width="2.52" height="31.64" rx="1.26" ry="1.26" transform="translate(115.96 -23.91) rotate(90)"/><rect class="cls-6" x="5.39" y="42.11" width="68.61" height="29.92" rx="7.91" ry="7.91"/><path class="cls-9" d="M59.58,4.6a11.34,11.34,0,0,0-9.88,5.82C55.77,8.5,61.84,8.29,67.92,8.27A11.38,11.38,0,0,0,59.58,4.6Z"/><path class="cls-8" d="M67.92,8.27c-6.08,0-12.15.23-18.22,2.15A11.26,11.26,0,0,0,48.18,16,11.4,11.4,0,1,0,67.92,8.27Z"/><path class="cls-1" d="M48.94,9.39s11.61-4.84,18.12-2L65.2,4.6,58,3.27,52.79,5.36"/><polyline class="cls-1" points="52.63 4.96 50.03 7.93 53.3 7.66 55.33 4.96"/><circle class="cls-7" cx="58.3" cy="12.15" r="1.01"/><circle class="cls-8" cx="47.7" cy="12.5" r="3.11"/><circle class="cls-8" cx="49.62" cy="16.39" r="2.72"/><rect class="cls-8" x="64.24" y="14.5" width="14.34" height="4.51" rx="2.25" ry="2.25"/><path class="cls-10" d="M66.4,21.53a2.95,2.95,0,0,1-5.9,0"/><path class="cls-9" d="M53.14,8.92a30.66,30.66,0,0,1-.77,4.4,9.42,9.42,0,0,1-.78,2.13,1.76,1.76,0,0,1-.85.85c-.2.12-.42,0-.6,0s-.3-.23-.44-.34c.17.07.33.15.48.2s.33,0,.44-.1a1.34,1.34,0,0,0,.44-.8,9.26,9.26,0,0,0,.17-2.05A29.14,29.14,0,0,0,50.84,9Z"/><rect class="cls-8" x="74.22" y="28.02" width="11.54" height="5.47" rx="2.73" ry="2.73"/><path class="cls-11" d="M85.21,28.85c0,.51-2.4.93-4.9.93s-4.52-.42-4.52-.93,2-.92,4.52-.92S85.21,28.34,85.21,28.85Z"/><path class="cls-11" d="M83,27.37c-2.29-.31-1.4-2.7-1.4-2.7S79,27,77.64,27.38a4.8,4.8,0,0,0-1.85,1.41c0,.2,2,.36,4.52.36s4.53-.16,4.53-.36A4.84,4.84,0,0,0,83,27.37Z"/><circle class="cls-12" cx="77.88" cy="28.15" r="0.12"/><circle class="cls-12" cx="78.31" cy="28.87" r="0.12"/><circle class="cls-12" cx="80.26" cy="28.87" r="0.12"/><circle class="cls-12" cx="82.22" cy="28.87" r="0.12"/><circle class="cls-12" cx="78.83" cy="28.15" r="0.12"/><circle class="cls-12" cx="80.74" cy="28.15" r="0.12"/><circle class="cls-12" cx="79.73" cy="28.15" r="0.12"/><circle class="cls-12" cx="81.69" cy="28.15" r="0.12"/><circle class="cls-12" cx="82.64" cy="28.15" r="0.12"/><circle class="cls-11" cx="75.78" cy="28.9" r="0.15"/><circle class="cls-11" cx="76.25" cy="29.32" r="0.17"/><circle class="cls-11" cx="76.76" cy="29.68" r="0.1"/><circle class="cls-11" cx="77.39" cy="29.87" r="0.09"/><circle class="cls-11" cx="77.57" cy="29.51" r="0.13"/><circle class="cls-11" cx="78.08" cy="29.76" r="0.18"/><circle class="cls-11" cx="76.75" cy="30.05" r="0.08"/><circle class="cls-11" cx="79.61" cy="30.05" r="0.04"/><circle class="cls-11" cx="75.24" cy="28.91" r="0.17"/><circle class="cls-11" cx="75.6" cy="28.62" r="0.19"/><ellipse class="cls-11" cx="84.62" cy="29.18" rx="0.79" ry="0.17"/><ellipse class="cls-11" cx="76.19" cy="29.25" rx="0.79" ry="0.17"/><circle class="cls-11" cx="78.25" cy="31.01" r="0.25"/><circle class="cls-11" cx="81.27" cy="31.95" r="0.42"/><circle class="cls-11" cx="81.33" cy="34.49" r="0.48"/><circle class="cls-11" cx="77.91" cy="37.74" r="0.52"/><circle class="cls-11" cx="80.32" cy="39.48" r="0.18"/><circle class="cls-11" cx="75.74" cy="40.5" r="0.34"/><circle class="cls-11" cx="79.55" cy="42.01" r="0.44"/><circle class="cls-11" cx="79.34" cy="45.84" r="0.39"/><circle class="cls-11" cx="75.56" cy="48.18" r="0.32"/><circle class="cls-11" cx="78.57" cy="49.33" r="0.14"/><circle class="cls-11" cx="80.02" cy="50.1" r="0.3"/><circle class="cls-11" cx="77.28" cy="51.37" r="0.42"/><circle class="cls-11" cx="79.93" cy="51.74" r="0.21"/><circle class="cls-11" cx="77.29" cy="50.09" r="0.62"/><circle class="cls-11" cx="79.09" cy="49.32" r="0.52"/><circle class="cls-11" cx="77.66" cy="61.51" r="0.38"/><circle class="cls-11" cx="80.07" cy="62.75" r="0.47"/><circle class="cls-11" cx="78.95" cy="63.13" r="0.38"/><circle class="cls-11" cx="76.65" cy="63.34" r="0.63"/><circle class="cls-11" cx="79.64" cy="60.56" r="0.69"/><circle class="cls-11" cx="80.43" cy="64.83" r="0.35"/></svg>