<svg id="Layer_1" data-name="Layer 1" xmlns="http://www.w3.org/2000/svg" viewBox="0 0 100 100"><defs><style>.cls-1{fill:#ffc540;}.cls-2{fill:#fff;}.cls-3{fill:#3f3f40;}.cls-4{fill:#f37d3b;}.cls-5{fill:#447d93;}.cls-6{fill:#3e3e3f;}.cls-7{fill:#ffc640;}.cls-8{fill:#58595b;}.cls-9{fill:#f69a85;}</style></defs><title>baast</title><rect class="cls-1" x="30.53" y="40" width="38.93" height="11.65" rx="5.82" ry="5.82"/><path class="cls-2" d="M48.73,84.59a3.4,3.4,0,0,0-3.38-3.39h0A3.41,3.41,0,0,0,42,84.59v8h6.77Z"/><path class="cls-1" d="M42,92.6v4A3.4,3.4,0,0,0,45.35,100h0a3.39,3.39,0,0,0,3.38-3.38v-4Z"/><rect class="cls-3" x="41.96" y="91.07" width="6.77" height="3.93"/><path class="cls-2" d="M58,84.59a3.39,3.39,0,1,0-6.77,0v8H58Z"/><path class="cls-1" d="M51.22,92.6v4a3.39,3.39,0,0,0,6.77,0v-4Z"/><rect class="cls-3" x="51.22" y="91.07" width="6.77" height="3.93"/><rect class="cls-1" x="62.7" y="42.49" width="6.77" height="18.8" rx="3.39" ry="3.39"/><rect class="cls-1" x="62.7" y="59.05" width="6.77" height="18.8" rx="3.39" ry="3.39"/><rect class="cls-1" x="30.53" y="42.49" width="6.77" height="18.8" rx="3.39" ry="3.39"/><rect class="cls-1" x="30.53" y="59.05" width="6.77" height="18.8" rx="3.39" ry="3.39"/><rect class="cls-3" x="30.53" y="68.91" width="6.77" height="3.93"/><rect class="cls-3" x="62.7" y="68.91" width="6.77" height="3.93"/><path class="cls-2" d="M49.75,89h0C41,89,33.92,72.8,33.92,64.09V54A15.88,15.88,0,0,1,49.75,38.18h0A15.88,15.88,0,0,1,65.58,54V64.09C65.58,72.8,58.45,89,49.75,89Z"/><ellipse class="cls-4" cx="49.97" cy="49.38" rx="14.5" ry="7.56"/><ellipse class="cls-5" cx="49.97" cy="47.56" rx="14.5" ry="7.56"/><ellipse class="cls-2" cx="49.97" cy="46.03" rx="14.5" ry="7.56"/><path class="cls-6" d="M31.57,15.68c0-3.14,8.14-5.69,18.18-5.69s18.18,2.55,18.18,5.69S59.79,42.8,49.75,42.8,31.57,18.83,31.57,15.68Z"/><path class="cls-6" d="M39.42,14.59c0,3-1.76,5.38-3.92,5.38s-3.93-2.41-3.93-5.38S35.5,0,35.5,0,39.42,11.62,39.42,14.59Z"/><path class="cls-6" d="M67.93,14.59c0,3-1.76,5.38-3.93,5.38s-3.93-2.41-3.93-5.38S64,0,64,0,67.93,11.62,67.93,14.59Z"/><circle class="cls-7" cx="61.7" cy="24.65" r="1.26"/><circle class="cls-7" cx="38.61" cy="24.65" r="1.26"/><ellipse class="cls-8" cx="47.54" cy="29.41" rx="4.16" ry="2.36" transform="translate(-8.21 33.52) rotate(-35.96)"/><ellipse class="cls-8" cx="53.48" cy="29.41" rx="2.36" ry="4.16" transform="translate(-1.73 55.43) rotate(-54.04)"/><path class="cls-9" d="M53.35,26.75c0,.62-2.74,2.13-2.74,2.13s-2.75-1.51-2.75-2.13,1.23-1.11,2.75-1.11S53.35,26.14,53.35,26.75Z"/></svg>