<svg id="Layer_1" data-name="Layer 1" xmlns="http://www.w3.org/2000/svg" viewBox="0 0 100 100"><defs><style>.cls-1{fill:#19a683;}.cls-2{fill:#68b082;}.cls-3{fill:#ffc540;}.cls-4{fill:#fcca98;}.cls-5{fill:#7a534e;}.cls-6{fill:#7d7d7d;}.cls-7{fill:#724e49;}.cls-8{fill:#3e3e3f;}.cls-9{fill:#666;}.cls-10{fill:#61413d;}.cls-11{fill:#885e59;}.cls-12{fill:#f37d3b;}.cls-13{fill:#fff;}.cls-14{fill:#a4716c;}.cls-15{fill:#ffc640;}.cls-16{fill:#fcca97;}.cls-17{fill:#ca8070;}.cls-18{fill:#3f3f40;}.cls-19{fill:#925c51;}.cls-20{fill:#f69a84;}.cls-21{fill:#87898b;}.cls-22{fill:#895e59;}.cls-23{fill:#f89c3e;}.cls-24{fill:#171717;}</style></defs><title>valhalla</title><rect class="cls-1" x="9.06" y="6.94" width="82.02" height="83.69" rx="25.58" ry="25.58"/><path class="cls-2" d="M82.41,95.06H15.3A15.35,15.35,0,0,1,0,79.76H0C0,71.34,29.89,34,38.3,34h24c8.41,0,35.4,37.37,35.4,45.79h0A15.34,15.34,0,0,1,82.41,95.06Z"/><rect class="cls-3" x="36.31" y="7.71" width="5.76" height="27.21" rx="1.64" ry="1.64"/><rect class="cls-3" x="35.3" y="32.76" width="7.7" height="2.16" rx="1.08" ry="1.08"/><rect class="cls-3" x="35.96" y="31.67" width="6.39" height="1.32" rx="0.66" ry="0.66"/><rect class="cls-3" x="35.3" y="6.94" width="7.7" height="2.16" rx="1.08" ry="1.08" transform="translate(78.3 16.04) rotate(180)"/><rect class="cls-3" x="35.96" y="8.88" width="6.39" height="1.32" rx="0.66" ry="0.66" transform="translate(78.3 19.07) rotate(-180)"/><rect class="cls-3" x="55.8" y="7.71" width="5.76" height="27.21" rx="1.64" ry="1.64"/><rect class="cls-3" x="54.79" y="32.76" width="7.7" height="2.16" rx="1.08" ry="1.08"/><rect class="cls-3" x="55.45" y="31.67" width="6.39" height="1.32" rx="0.66" ry="0.66"/><rect class="cls-3" x="54.79" y="6.94" width="7.7" height="2.16" rx="1.08" ry="1.08" transform="translate(117.29 16.04) rotate(180)"/><rect class="cls-3" x="55.45" y="8.88" width="6.39" height="1.32" rx="0.66" ry="0.66" transform="translate(117.29 19.07) rotate(-180)"/><rect class="cls-4" x="38.29" y="38.67" width="2.18" height="7.79" rx="1.09" ry="1.09" transform="translate(-3.26 3.27) rotate(-4.56)"/><rect class="cls-4" x="35.17" y="38.92" width="2.18" height="7.79" rx="1.09" ry="1.09" transform="translate(-3.29 3.02) rotate(-4.56)"/><rect class="cls-4" x="33.75" y="32.13" width="7.3" height="9.68" rx="3.65" ry="3.65" transform="translate(-2.82 3.09) rotate(-4.56)"/><polyline class="cls-5" points="34.53 39.86 34.77 42.78 35.42 41.96 35.77 43.53 36.31 42.77 36.58 43.46 37.29 42.77 37.78 43.37 38.19 43.08 38.8 43.64 39.37 42.5 40.21 44.5 40.39 42.33 41.12 43.46 40.78 39.24"/><rect class="cls-6" x="33.96" y="37.61" width="7.28" height="3.09" rx="1.55" ry="1.55" transform="translate(-3 3.12) rotate(-4.56)"/><rect class="cls-6" x="36.09" y="36.76" width="3.09" height="4.76" rx="1.54" ry="1.54" transform="translate(-3 3.12) rotate(-4.56)"/><rect class="cls-6" x="35.12" y="37.18" width="2.69" height="4.14" rx="1.34" ry="1.34" transform="matrix(1, -0.08, 0.08, 1, -3.01, 3.03)"/><rect class="cls-6" x="37.44" y="36.99" width="2.69" height="4.14" rx="1.34" ry="1.34" transform="translate(-2.99 3.21) rotate(-4.56)"/><path class="cls-7" d="M32.89,26.35s.49,5.15-.71,6.18l3.06,1.07,2.88-7.83-1.52-.95-1.51.49"/><path class="cls-7" d="M40.59,25.74s.33,5.16,1.68,6l-2.85,1.53L35.33,26l1.36-1.18,1.57.25"/><path class="cls-7" d="M32.67,26l.39,4.89s-.11.65-.55.44c0,0,.06.49.48.45l4.11-.32-.47-5.87-.06-.78A9.88,9.88,0,0,0,32.67,26Z"/><path class="cls-7" d="M40.64,25.38,41,30.26s.21.63.61.35c0,0,0,.49-.4.53l-4.11.32-.47-5.87-.06-.77A9.84,9.84,0,0,1,40.64,25.38Z"/><path class="cls-4" d="M32.9,26.54l.27,3.34a3.79,3.79,0,1,0,7.55-.61l-.26-3.33Z"/><circle class="cls-8" cx="34.08" cy="28.4" r="0.3"/><circle class="cls-8" cx="39.74" cy="27.95" r="0.3"/><circle class="cls-4" cx="41.05" cy="27.31" r="0.73"/><circle class="cls-4" cx="40.68" cy="28.25" r="0.64"/><circle class="cls-4" cx="32.56" cy="27.98" r="0.73"/><circle class="cls-4" cx="33.09" cy="28.86" r="0.64"/><polygon class="cls-7" points="36.23 30.04 37.72 29.92 36.76 27.25 36.23 30.04"/><rect class="cls-4" x="32.19" y="32.83" width="9.94" height="2.66" rx="1.33" ry="1.33" transform="translate(-2.6 3.07) rotate(-4.56)"/><rect class="cls-4" x="41.42" y="32.64" width="1.57" height="4.36" rx="0.79" ry="0.79" transform="translate(-11.96 27.04) rotate(-31.35)"/><rect class="cls-4" x="30.79" y="33.02" width="1.57" height="4.36" rx="0.79" ry="0.79" transform="translate(45.11 -10.11) rotate(58.53)"/><rect class="cls-4" x="44.01" y="34.54" width="1.57" height="4.36" rx="0.79" ry="0.79" transform="translate(-7.54 61.53) rotate(-64.7)"/><rect class="cls-4" x="28.39" y="32.83" width="1.57" height="4.36" rx="0.79" ry="0.79" transform="translate(74.64 31.89) rotate(125.89)"/><polygon class="cls-7" points="33.25 30.41 40.8 29.81 41.12 33.81 40.47 33.71 40.12 34.5 39.5 34.05 39.07 34.97 38.09 34.54 37.61 34.73 36.41 35.01 36.17 35.4 35.56 34.74 34.51 35.33 34.45 34.53 33.98 34.49 33.15 31.98 33.25 30.41"/><rect class="cls-4" x="35.87" y="30.58" width="2.2" height="0.36" rx="0.18" ry="0.18" transform="translate(-2.33 3.04) rotate(-4.56)"/><rect class="cls-7" x="34.58" y="31.51" width="1.17" height="2.9" rx="0.58" ry="0.58" transform="translate(-2.51 2.9) rotate(-4.56)"/><rect class="cls-7" x="38.91" y="31.16" width="1.17" height="2.9" rx="0.58" ry="0.58" transform="translate(-2.47 3.25) rotate(-4.56)"/><polyline class="cls-7" points="32.8 26.34 33.31 27.61 33.91 26.34 34.35 27.96 35.07 26.16 35.26 27.28 36.03 26.09 36.85 26.66 37.61 25.96 37.89 27.16 38.84 25.95 39.37 27.05 39.88 25.86 40.23 26.62 40.47 25.73"/><circle class="cls-9" cx="37.65" cy="39.28" r="1.31"/><circle class="cls-6" cx="37.68" cy="39.65" r="1.31"/><rect class="cls-10" x="33.87" y="43.9" width="2.66" height="10.8" rx="1.33" ry="1.33"/><rect class="cls-10" x="60.89" y="43.9" width="2.66" height="10.8" rx="1.33" ry="1.33"/><rect class="cls-7" x="27.76" y="39.15" width="42.61" height="8.99" rx="4.49" ry="4.49"/><rect class="cls-11" x="27.76" y="36.81" width="42.61" height="8.99" rx="4.49" ry="4.49"/><rect class="cls-4" x="76.43" y="52.98" width="3.47" height="12.42" rx="1.73" ry="1.73" transform="matrix(0.98, 0.17, -0.17, 0.98, 11.52, -12.72)"/><rect class="cls-4" x="71.52" y="52.11" width="3.47" height="12.42" rx="1.73" ry="1.73" transform="translate(11.29 -11.88) rotate(10.04)"/><rect class="cls-4" x="71.54" y="42.06" width="11.63" height="15.43" rx="5.82" ry="5.82" transform="translate(9.86 -12.73) rotate(10.04)"/><polyline class="cls-5" points="71.78 53.07 70.97 57.67 72.31 56.67 72.22 59.23 73.36 58.27 73.49 59.45 74.87 58.66 75.38 59.78 76.12 59.51 76.84 60.62 78.18 59.08 78.67 62.51 79.82 59.23 80.49 61.27 81.67 54.63"/><rect class="cls-6" x="70.99" y="50.76" width="11.6" height="4.93" rx="2.46" ry="2.46" transform="translate(10.46 -12.58) rotate(10.04)"/><rect class="cls-6" x="74.4" y="49.42" width="4.92" height="7.58" rx="2.46" ry="2.46" transform="translate(10.46 -12.59) rotate(10.04)"/><rect class="cls-6" x="72.86" y="49.6" width="4.28" height="6.59" rx="2.14" ry="2.14" transform="matrix(0.98, 0.17, -0.17, 0.98, 10.37, -12.27)"/><rect class="cls-6" x="76.51" y="50.25" width="4.28" height="6.59" rx="2.14" ry="2.14" transform="translate(10.54 -12.89) rotate(10.04)"/><path class="cls-12" d="M74.67,31.59s-1.31,8.13-3.56,9.24l4.28,2.87L83,32.78l-2-2.06-2.53.15"/><path class="cls-12" d="M86.8,33.73s-1.56,8.09.18,9.91l-5,1.22L78.59,32l2.56-1.27,2.32,1"/><path class="cls-12" d="M74.47,31l-1.36,7.68s-.43,1-1,.46c0,0-.11.78.55.9l6.47,1.14,1.63-9.24L81,30.71A15.69,15.69,0,0,0,74.47,31Z"/><path class="cls-12" d="M87,33.2l-1.36,7.69s.07,1,.8.77c0,0-.16.77-.82.66l-6.47-1.15,1.64-9.24L81,30.72A15.61,15.61,0,0,1,87,33.2Z"/><path class="cls-4" d="M74.62,31.89l-.93,5.24a6,6,0,1,0,11.89,2.11L86.51,34Z"/><circle class="cls-8" cx="75.69" cy="35.21" r="0.49"/><circle class="cls-8" cx="84.6" cy="36.81" r="0.49"/><circle class="cls-4" cx="86.88" cy="36.34" r="1.16"/><circle class="cls-4" cx="85.92" cy="37.65" r="1.02"/><circle class="cls-4" cx="73.52" cy="33.97" r="1.16"/><circle class="cls-4" cx="73.98" cy="35.53" r="1.02"/><polygon class="cls-12" points="78.35 38.62 80.7 39.03 80.28 34.53 78.35 38.62"/><rect class="cls-4" x="70.2" y="43.22" width="15.84" height="4.24" rx="2.12" ry="2.12" transform="translate(9.1 -12.93) rotate(10.04)"/><rect class="cls-4" x="84.38" y="44.91" width="2.5" height="6.95" rx="1.25" ry="1.25" transform="translate(-10.31 26.73) rotate(-16.75)"/><rect class="cls-4" x="67.85" y="41.22" width="2.5" height="6.95" rx="1.25" ry="1.25" transform="translate(91.82 -34.4) rotate(73.13)"/><rect class="cls-4" x="87.62" y="48.88" width="2.5" height="6.95" rx="1.25" ry="1.25" transform="translate(-8.3 86.95) rotate(-50.1)"/><rect class="cls-4" x="64.22" y="39.97" width="2.5" height="6.95" rx="1.25" ry="1.25" transform="translate(143.63 35.31) rotate(140.49)"/><polygon class="cls-12" points="73.6 37.98 85.49 40.09 84.37 46.39 83.41 45.98 82.55 47.05 81.77 46.12 80.74 47.36 79.41 46.3 78.59 46.4 76.63 46.35 76.11 46.86 75.42 45.59 73.56 46.09 73.79 44.82 73.09 44.58 72.81 40.37 73.6 37.98"/><rect class="cls-4" x="77.44" y="39.73" width="3.51" height="0.57" rx="0.29" ry="0.29" transform="translate(8.19 -13.2) rotate(10.04)"/><path class="cls-12" d="M75.53,49.59c-.12.65-1.57,2.09-1.57,2.09a7.34,7.34,0,0,1-.76-2.5,1.18,1.18,0,0,1,2.33.41Z"/><rect class="cls-5" x="73.71" y="47.18" width="1.8" height="1.59" rx="0.8" ry="0.8" transform="translate(9.51 -12.28) rotate(10.04)"/><rect class="cls-12" x="73.88" y="45.42" width="1.86" height="2.57" rx="0.93" ry="0.93" transform="translate(9.29 -12.33) rotate(10.04)"/><rect class="cls-5" x="74.21" y="44.36" width="1.8" height="1.59" rx="0.8" ry="0.8" transform="translate(9.02 -12.41) rotate(10.04)"/><rect class="cls-12" x="74.59" y="40.37" width="1.86" height="4.62" rx="0.93" ry="0.93" transform="translate(8.6 -12.51) rotate(10.04)"/><path class="cls-12" d="M82.35,50.8c-.12.65-1.57,2.09-1.57,2.09a7.41,7.41,0,0,1-.76-2.5,1.18,1.18,0,1,1,2.33.41Z"/><rect class="cls-5" x="80.53" y="48.39" width="1.8" height="1.59" rx="0.8" ry="0.8" transform="translate(9.82 -13.45) rotate(10.04)"/><rect class="cls-12" x="80.7" y="46.63" width="1.86" height="2.57" rx="0.93" ry="0.93" transform="translate(9.6 -13.5) rotate(10.04)"/><rect class="cls-5" x="81.03" y="45.56" width="1.8" height="1.59" rx="0.8" ry="0.8" transform="translate(9.34 -13.58) rotate(10.04)"/><rect class="cls-12" x="81.41" y="41.58" width="1.86" height="4.62" rx="0.93" ry="0.93" transform="translate(8.92 -13.69) rotate(10.04)"/><polyline class="cls-12" points="74.54 31.54 74.82 33.69 76.27 31.98 76.28 34.66 78.12 32.17 77.96 33.97 79.63 32.44 80.67 33.66 82.11 32.88 82.06 34.85 84.02 33.35 84.38 35.26 85.66 33.64 85.89 34.95 86.62 33.67"/><circle class="cls-9" cx="76.82" cy="53.43" r="2.09"/><circle class="cls-6" cx="76.72" cy="54.02" r="2.09"/><rect class="cls-11" x="89.08" y="50.38" width="6.96" height="1.64" rx="0.82" ry="0.82" transform="translate(-6.09 89.37) rotate(-50.1)"/><rect class="cls-3" x="92.75" y="43.59" width="5.63" height="8.06" rx="1.12" ry="1.12" transform="translate(-2.27 90.38) rotate(-50.1)"/><rect class="cls-10" x="21.72" y="66.64" width="4.93" height="20.03" rx="2.47" ry="2.47"/><rect class="cls-10" x="71.82" y="66.64" width="4.93" height="20.03" rx="2.47" ry="2.47"/><rect class="cls-7" x="10.39" y="57.83" width="79.01" height="16.66" rx="8.33" ry="8.33"/><rect class="cls-11" x="10.39" y="53.48" width="79.01" height="16.66" rx="8.33" ry="8.33"/><path class="cls-3" d="M62.73,33.11s1.11-1.18,2.24-.7,2.44,0,3.27.15,1.69-.47,2.35.28-.12,1-.89.85-3-1-2.49.43,1.81,1.22.5,2"/><path class="cls-3" d="M70.54,30.63a7,7,0,0,1-1.79.34,7,7,0,0,1,1-1.52.71.71,0,0,1,1,.19A.72.72,0,0,1,70.54,30.63Z"/><path class="cls-3" d="M71.19,35.34a5.11,5.11,0,0,1-1.18-.5,5.11,5.11,0,0,1,1.18-.5.5.5,0,0,1,.5.5A.5.5,0,0,1,71.19,35.34Z"/><path class="cls-13" d="M62.67,33.27S57.78,40.9,62.8,48c0,0,1.14-9.86,5.29-11.84Z"/><rect class="cls-13" x="61.7" y="34.3" width="7.17" height="0.85" rx="0.43" ry="0.43" transform="translate(23.91 -26.56) rotate(27.97)"/><rect class="cls-14" x="58.96" y="37.75" width="8.32" height="0.89" rx="0.44" ry="0.44" transform="translate(74.6 -34.68) rotate(67.78)"/><rect class="cls-14" x="60.19" y="37.62" width="7.07" height="0.89" rx="0.41" ry="0.41" transform="translate(133.91 62.24) rotate(168.16)"/><path class="cls-15" d="M72.29,59.41l0,1a3.34,3.34,0,0,0,6.67.1v-1Z"/><rect class="cls-15" x="74.93" y="61.52" width="1.25" height="5.93" rx="0.63" ry="0.63" transform="translate(0.99 -1.15) rotate(0.87)"/><rect class="cls-15" x="73.3" y="66.43" width="4.42" height="1.19" rx="0.6" ry="0.6" transform="translate(1.03 -1.14) rotate(0.87)"/><path class="cls-16" d="M60,53.58a9.46,9.46,0,1,1-18.92,0c0-5.22-2.82-15.72,2.4-15.72S60,48.36,60,53.58Z"/><circle class="cls-16" cx="42.92" cy="44.79" r="6.93"/><path class="cls-17" d="M40.1,43.31c0,1.72-1.4,1.93-3.12,1.93s-3.12-.21-3.12-1.93a3.12,3.12,0,1,1,6.24,0Z"/><path class="cls-16" d="M49.64,40.36a1.67,1.67,0,0,1-2.48-2.24c.62-.69,3.65-1.55,3.65-1.55S50.26,39.68,49.64,40.36Z"/><path class="cls-16" d="M40.77,37.87a1.67,1.67,0,1,1-2.24,2.48C37.84,39.73,37,36.7,37,36.7S40.09,37.25,40.77,37.87Z"/><circle class="cls-18" cx="47.27" cy="44.25" r="0.54"/><rect class="cls-16" x="41.1" y="53.56" width="1.82" height="7.46" rx="0.44" ry="0.44"/><rect class="cls-16" x="45.18" y="56.13" width="1.82" height="7.46" rx="0.44" ry="0.44"/><rect class="cls-16" x="55.87" y="57.76" width="2.54" height="6.17" rx="0.62" ry="0.62" transform="translate(59.76 -22.58) rotate(45)"/><path class="cls-16" d="M61.36,55.33a.62.62,0,0,1-.4-.16,1.76,1.76,0,0,1-.42-1c-.21.11-.37.17-.43.2a.29.29,0,0,1-.38-.16.3.3,0,0,1,.16-.39c.17-.07.38-.17.59-.28a3.53,3.53,0,0,1,.5-2.19.69.69,0,0,1,1.05,0,1.07,1.07,0,0,1,.42,1c-.1.61-.76,1.13-1.36,1.5.06.59.21.84.27.86s.08,0,.22-.17a.3.3,0,0,1,.42,0A.29.29,0,0,1,62,55,.92.92,0,0,1,61.36,55.33Zm.13-3.63h0c-.17.08-.38.66-.41,1.49a1.74,1.74,0,0,0,.8-.91c0-.11,0-.27-.23-.49A.27.27,0,0,0,61.49,51.7Z"/><path class="cls-19" d="M35.48,42.8a.51.51,0,1,1-.51-.52A.51.51,0,0,1,35.48,42.8Z"/><circle class="cls-19" cx="37.79" cy="42.8" r="0.51"/><ellipse class="cls-20" cx="47.08" cy="47.34" rx="2.14" ry="1.35" transform="translate(-19.61 50.51) rotate(-47.88)"/><circle class="cls-12" cx="35.99" cy="46.62" r="2.91"/><rect class="cls-16" x="34.7" y="48.31" width="8.22" height="2.53" rx="1.27" ry="1.27"/><ellipse class="cls-13" cx="73.79" cy="56.35" rx="6.34" ry="1.97"/><ellipse class="cls-21" cx="13.4" cy="48.41" rx="1.37" ry="0.61" transform="translate(-30.3 23.65) rotate(-45)"/><rect class="cls-22" x="14.48" y="50.63" width="3.43" height="1.17" rx="0.58" ry="0.58" transform="translate(63.87 75.98) rotate(135)"/><rect class="cls-22" x="13.91" y="50.06" width="3.43" height="1.17" rx="0.58" ry="0.58" transform="translate(62.47 75.4) rotate(135)"/><rect class="cls-22" x="13.33" y="49.48" width="3.43" height="1.17" rx="0.58" ry="0.58" transform="translate(61.08 74.83) rotate(135)"/><rect class="cls-22" x="12.75" y="48.9" width="3.43" height="1.17" rx="0.58" ry="0.58" transform="translate(59.68 74.25) rotate(135)"/><rect class="cls-22" x="12.21" y="48.36" width="3.43" height="1.17" rx="0.58" ry="0.58" transform="translate(58.38 73.71) rotate(135)"/><ellipse class="cls-21" cx="16.89" cy="51.92" rx="3.72" ry="0.77" transform="translate(-31.77 27.15) rotate(-45)"/><rect class="cls-21" x="13.6" y="51.74" width="7.44" height="1.21" transform="translate(66.58 77.12) rotate(135)"/><polygon class="cls-23" points="25.4 62.91 27.81 62.83 22.85 55.87 17.54 52.56 16.29 53.8 25.4 62.91"/><polygon class="cls-15" points="27.81 62.83 27.87 60.43 18.77 51.33 17.54 52.56 27.81 62.83 27.81 62.83"/><path class="cls-12" d="M35.14,64.52a8.57,8.57,0,0,1,4.77.93c2,1.23,5.17-.94,6.18.2s-.32,1.93-1.69,1.63S37.23,67.6,36,67"/><path class="cls-15" d="M36.68,61.49l-.9,0a3,3,0,1,0-.16,6.07l.9,0Z"/><rect class="cls-15" x="31.46" y="61.71" width="1.14" height="5.41" rx="0.57" ry="0.57" transform="translate(97.27 34.12) rotate(91.53)"/><rect class="cls-15" x="27.69" y="63.81" width="4.03" height="1.09" rx="0.54" ry="0.54" transform="translate(94.83 36.37) rotate(91.53)"/><ellipse class="cls-12" cx="47.58" cy="68.58" rx="1.49" ry="0.57"/><ellipse class="cls-12" cx="41.19" cy="64.66" rx="0.68" ry="0.25"/><rect class="cls-11" x="20.52" y="59.69" width="7.99" height="3.56"/><path class="cls-2" d="M77.81,87.79,78,88l-.21-.3A.78.78,0,0,1,77.81,87.79Z"/><path class="cls-11" d="M80.47,90l-.65.47L78,88l-.19-.16a13.51,13.51,0,0,1-.22,5.3l3.09-.25-1.1,2.22h2.83c.34,0,.68,0,1,0l1.87-.89Z"/><path class="cls-4" d="M70.22,77a4.67,4.67,0,0,0-7.61,5.41l4.89,6.89-4.18,3-4.89-6.89a4.67,4.67,0,1,0-7.62,5.4l3,4.29H64l6.62-4.7a.47.47,0,0,1,.54.76l-5.56,3.94h1.62l1.81-1.29.66,0,8-6,.14.12a.78.78,0,0,0,0-.14ZM54.05,92.41a1.09,1.09,0,1,1,.26-1.52A1.1,1.1,0,0,1,54.05,92.41ZM70.68,80.64a1.09,1.09,0,0,1-1.52-.25,1.09,1.09,0,1,1,1.78-1.27A1.08,1.08,0,0,1,70.68,80.64Z"/><path class="cls-4" d="M69.72,93.72l7.87-.63a13.51,13.51,0,0,0,.22-5.3l-.14-.12Z"/><path class="cls-24" d="M52.78,90.63a1.09,1.09,0,1,0,1.53.26A1.1,1.1,0,0,0,52.78,90.63Z"/><path class="cls-24" d="M69.42,78.86a1.1,1.1,0,0,0-.26,1.53,1.09,1.09,0,1,0,.26-1.53Z"/><path class="cls-12" d="M71.19,91.12a.47.47,0,0,0-.54-.76L64,95.06h1.6Z"/><path class="cls-23" d="M46.39,88,68.55,72.25,75.49,82a13.38,13.38,0,0,1,2.3,5.63L78,88,80.47,90l3.78-2.68L74.68,73.88a17.28,17.28,0,1,0-28.19,20l.84,1.17h4.08Z"/><polygon class="cls-23" points="79.82 90.51 80.47 90.04 78 87.95 79.82 90.51"/><path class="cls-23" d="M50.81,90.77a4.67,4.67,0,1,1,7.62-5.4l4.89,6.89,4.18-3L62.61,82.4A4.67,4.67,0,0,1,70.22,77l7.57,10.66A13.38,13.38,0,0,0,75.49,82l-6.94-9.77L46.39,88l5,7.08h2.44Z"/><path class="cls-11" d="M79.58,95.06l1.1-2.22-3.09.25a13.72,13.72,0,0,1-.64,2Z"/><polygon class="cls-11" points="68.24 94.85 69.72 93.72 69.06 93.77 67.25 95.06 67.92 95.06 68.24 94.85"/><polygon class="cls-11" points="67.96 95.06 68.24 94.85 67.92 95.06 67.96 95.06"/><path class="cls-11" d="M68.24,94.85l1.08-.71.66.92h7a13.72,13.72,0,0,0,.64-2l-7.87.63Z"/><polygon class="cls-11" points="69.98 95.06 69.32 94.14 68.24 94.85 67.96 95.06 69.98 95.06"/></svg>