<svg id="Layer_1" data-name="Layer 1" xmlns="http://www.w3.org/2000/svg" viewBox="0 0 100 100"><defs><style>.cls-1{fill:#fff;}.cls-2{fill:#eeefef;}.cls-3{fill:#fcca98;}.cls-4{fill:#895e59;}.cls-5{fill:#744f4a;}.cls-6{fill:#f37d3b;}.cls-7{fill:#e9bb8d;}.cls-8{fill:#ffc640;}.cls-9{fill:#3e3e3f;}</style></defs><title>cupid</title><path class="cls-1" d="M36.67,51.49S27.29,40.3,30,36.24s7.85-15-.42-18.07S0,60.33,0,60.33l8.28-7L7.2,57.72l9.6-8.79"/><path class="cls-2" d="M36.67,51.49l-8.28,1.43C25.54,49.61,15,50.58,15,50.58l5.51-5,3-2.93S26.43,48.77,36.67,51.49Z"/><ellipse class="cls-3" cx="44.4" cy="61.74" rx="22.79" ry="15.17"/><rect class="cls-3" x="29.52" y="63.14" width="5.03" height="16.23" rx="2.52" ry="2.52" transform="translate(43.67 -6) rotate(32.77)"/><rect class="cls-3" x="67.88" y="61.36" width="5.03" height="16.23" rx="2.52" ry="2.52" transform="translate(166.93 47.88) rotate(122.77)"/><rect class="cls-3" x="41.58" y="67.22" width="5.03" height="16.23" rx="2.52" ry="2.52" transform="translate(26.98 -10.26) rotate(19.03)"/><path class="cls-4" d="M83.85,44.89a25.34,25.34,0,0,1,5.39,12.64,19.27,19.27,0,0,1-3.48,14.25,19.72,19.72,0,0,1-5.7,5,25.13,25.13,0,0,1-6.75,2.56,31.35,31.35,0,0,1-13.67-.07A121.47,121.47,0,0,0,71.92,75a33.85,33.85,0,0,0,5.22-2.87,18.76,18.76,0,0,0,4-3.83A19.08,19.08,0,0,0,84.71,57.7,57.39,57.39,0,0,0,83.85,44.89Z"/><polyline class="cls-1" points="71.46 58.64 70.36 54.73 73.69 56.6 74.76 60.39"/><polyline class="cls-1" points="75.75 61.05 74.65 57.14 77.99 59.02 79.05 62.81"/><polyline class="cls-1" points="70.89 59.66 66.97 60.76 70.31 62.63 74.1 61.57"/><polyline class="cls-1" points="75.18 62.07 71.27 63.17 74.6 65.04 78.39 63.98"/><rect class="cls-5" x="68.32" y="65.2" width="30.31" height="1.82" rx="0.91" ry="0.91" transform="translate(43.09 -32.42) rotate(29.33)"/><path class="cls-6" d="M97.19,69c2,1.14,2.81,6.4,2.81,6.4s-4.9,2.07-6.93.93,0-4.8,2.06-3.67C98.07,74.3,95.17,67.85,97.19,69Z"/><path class="cls-6" d="M93.07,76.32c2,1.14,6.93-.93,6.93-.93s-.78-5.26-2.81-6.4-4.08,2.53-2.06,3.66C98.07,74.3,91.05,75.18,93.07,76.32Z"/><polyline class="cls-3" points="26.58 75.34 24.04 79.25 31.37 83.12 30.22 76.92"/><polyline class="cls-3" points="40.28 79.23 37.74 83.15 45.08 87.02 43.93 80.81"/><path class="cls-7" d="M53.8,47.94c-8.16.33-14.52,3-14.52,6.22,0,3.45,7.27,6.25,16.24,6.25a33.53,33.53,0,0,0,11.2-1.73C65.24,53.88,60.34,49.91,53.8,47.94Z"/><rect class="cls-3" x="32.15" y="37.88" width="49.29" height="17.4" rx="8.7" ry="8.7"/><rect class="cls-3" x="37.58" y="18.02" width="39.09" height="17.4" rx="8.7" ry="8.7"/><rect class="cls-3" x="37.58" y="26.72" width="39.09" height="14.28"/><path class="cls-8" d="M45.93,13.76S10.82,29.13,62.23,31.12c0,0-10.6-1.86-12.06-5.57,0,0,20.93,7.16,28,2.26S70.18,9.65,45.93,13.76Z"/><circle class="cls-9" cx="41.14" cy="33.61" r="1.3"/><circle class="cls-9" cx="73.07" cy="33.61" r="1.3"/><polygon class="cls-6" points="53.67 43.24 59.55 43.24 56.61 32.51 53.67 43.24"/></svg>