<svg id="Layer_1" data-name="Layer 1" xmlns="http://www.w3.org/2000/svg" viewBox="0 0 100 100"><defs><style>.cls-1{fill:#f37d3b;}.cls-2{fill:#fcca98;}.cls-3{fill:#fff;}.cls-4{fill:#3e3e3f;}.cls-5{fill:#09a481;}.cls-6{fill:#c5e0a9;}.cls-7{fill:#ffc640;}</style></defs><title>dionysus</title><path class="cls-1" d="M76.22,47.25S78,44.45,80.49,45s5-.86,6.67-.93,3.23-1.58,4.85-.32.14,2.1-1.47,2-6.5-.91-4.88,1.82,4.12,1.79,1.76,3.8"/><rect class="cls-2" x="30.82" y="35.44" width="32.76" height="43.18" rx="16.38" ry="16.38"/><rect class="cls-2" x="30.82" y="38.52" width="32.76" height="11.88" rx="5.94" ry="5.94"/><rect class="cls-2" x="60.6" y="39.89" width="7.01" height="19.45" rx="3.5" ry="3.5"/><rect class="cls-2" x="67.12" y="49.61" width="7.01" height="19.45" rx="3.5" ry="3.5" transform="translate(11.28 129.96) rotate(-90)"/><rect class="cls-2" x="49.86" y="65.23" width="9.71" height="34.77" rx="4.85" ry="4.85"/><rect class="cls-2" x="35.91" y="65.23" width="9.71" height="34.77" rx="4.85" ry="4.85"/><rect class="cls-2" x="21.39" y="31.04" width="7.01" height="19.45" rx="3.5" ry="3.5" transform="translate(69.41 23.45) rotate(100.16)"/><rect class="cls-2" x="12.31" y="22.65" width="7.01" height="19.45" rx="3.5" ry="3.5" transform="translate(34.41 63.23) rotate(174.98)"/><path class="cls-3" d="M34.12,38.94s18.3,19.5,30.68,18.29v22.5H32.39V38.94Z"/><circle class="cls-3" cx="35.15" cy="11.06" r="3.21"/><circle class="cls-3" cx="66.62" cy="19.98" r="3.21"/><circle class="cls-3" cx="63.58" cy="30.68" r="3.21"/><circle class="cls-3" cx="61.27" cy="35.89" r="3.21"/><circle class="cls-3" cx="56.9" cy="39.52" r="3.21"/><circle class="cls-3" cx="52.64" cy="40.12" r="3.21"/><circle class="cls-3" cx="32.51" cy="21.86" r="3.21"/><circle class="cls-3" cx="31.74" cy="27.51" r="3.21"/><circle class="cls-3" cx="33.55" cy="32.9" r="3.21"/><path class="cls-2" d="M35.91,6.3,31.84,20.64a16.9,16.9,0,1,0,32.52,9.22l4.06-14.34Z"/><circle class="cls-4" cx="37.95" cy="15.87" r="1.36"/><circle class="cls-4" cx="62.32" cy="22.82" r="1.36"/><circle class="cls-2" cx="68.8" cy="22.16" r="3.26"/><circle class="cls-2" cx="65.75" cy="25.53" r="2.84"/><circle class="cls-2" cx="32.25" cy="11.79" r="3.26"/><circle class="cls-2" cx="33.08" cy="16.26" r="2.84"/><polygon class="cls-1" points="44.39 26.09 50.81 27.91 50.93 15.27 44.39 26.09"/><circle class="cls-3" cx="36.41" cy="6.8" r="1.88"/><circle class="cls-3" cx="45.92" cy="2.4" r="1.88"/><circle class="cls-3" cx="47.62" cy="3.3" r="1.88"/><circle class="cls-3" cx="50.51" cy="2.17" r="1.88"/><circle class="cls-3" cx="39.16" cy="6.28" r="2.13"/><circle class="cls-3" cx="43.93" cy="6.46" r="3.61"/><circle class="cls-3" cx="41.82" cy="3.61" r="3.61"/><circle class="cls-3" cx="50.14" cy="7.75" r="4.52"/><circle class="cls-3" cx="67.05" cy="15.49" r="1.88"/><circle class="cls-3" cx="61.27" cy="6.76" r="1.88"/><circle class="cls-3" cx="59.35" cy="6.63" r="1.88"/><circle class="cls-3" cx="57.49" cy="4.15" r="1.88"/><circle class="cls-3" cx="64.98" cy="13.6" r="2.13"/><circle class="cls-3" cx="60.83" cy="11.25" r="3.61"/><circle class="cls-3" cx="64.12" cy="9.94" r="3.61"/><circle class="cls-3" cx="54.87" cy="9.09" r="4.52"/><path class="cls-3" d="M46.56,27.54a8.57,8.57,0,0,0-7.13-2.28c-4.63.51-6.37-2.38-6.37-2.38s.16,4.63,5.72,4.69S45.38,33.15,46.56,27.54Z"/><path class="cls-3" d="M48.65,28.13a8.53,8.53,0,0,1,7.26,1.8c3.67,2.87,6.68,1.32,6.68,1.32s-2.57,3.86-7.34,1S46.7,33.52,48.65,28.13Z"/><circle class="cls-3" cx="36.87" cy="35.64" r="3.21"/><circle class="cls-3" cx="33.84" cy="31.87" r="2.15"/><circle class="cls-3" cx="35.59" cy="35.69" r="2.46"/><circle class="cls-3" cx="37.38" cy="38.31" r="1.22"/><circle class="cls-3" cx="40.07" cy="38.23" r="2.27"/><circle class="cls-3" cx="38.55" cy="33.25" r="3.66"/><circle class="cls-3" cx="35.88" cy="29.69" r="2.58"/><circle class="cls-3" cx="32.67" cy="28.16" r="2.58"/><circle class="cls-3" cx="40.02" cy="29.09" r="1.97"/><circle class="cls-3" cx="38.75" cy="28.99" r="1.97"/><circle class="cls-3" cx="43.7" cy="30.07" r="2.61"/><circle class="cls-3" cx="39.03" cy="36.89" r="2.21"/><circle class="cls-3" cx="44.09" cy="34.83" r="3.66"/><circle class="cls-3" cx="52.32" cy="39.85" r="3.21"/><circle class="cls-3" cx="56.87" cy="38.23" r="2.15"/><circle class="cls-3" cx="53.39" cy="40.56" r="2.46"/><circle class="cls-3" cx="50.48" cy="41.85" r="1.22"/><circle class="cls-3" cx="48.24" cy="40.37" r="2.27"/><circle class="cls-3" cx="52.14" cy="36.94" r="3.66"/><circle class="cls-3" cx="56.29" cy="35.31" r="2.58"/><circle class="cls-3" cx="59.83" cy="35.69" r="2.58"/><circle class="cls-3" cx="53.08" cy="32.62" r="1.97"/><circle class="cls-3" cx="54.21" cy="33.2" r="1.97"/><circle class="cls-3" cx="49.43" cy="31.52" r="2.61"/><circle class="cls-3" cx="49.83" cy="39.78" r="2.21"/><circle class="cls-3" cx="46.6" cy="35.36" r="3.66"/><path class="cls-1" d="M53.18,31.06a6.48,6.48,0,1,1-12.46-3.54"/><circle class="cls-1" cx="36.58" cy="21.02" r="2.58"/><circle class="cls-1" cx="61.02" cy="27.95" r="2.58"/><path class="cls-5" d="M10.16,29.23a1.07,1.07,0,0,1-.55-.14,1.15,1.15,0,0,1-.46-1.56c.44-.79,2.74-4.78,5.42-5.3a1.16,1.16,0,0,1,1.35.91A1.15,1.15,0,0,1,15,24.48c-1.21.24-3,2.57-3.84,4.16A1.15,1.15,0,0,1,10.16,29.23Z"/><circle class="cls-6" cx="7.79" cy="27.64" r="2.17"/><circle class="cls-6" cx="11.23" cy="28.65" r="2.17"/><circle class="cls-6" cx="12.33" cy="32.19" r="2.17"/><circle class="cls-6" cx="7.02" cy="29.67" r="2.17"/><circle class="cls-6" cx="8.66" cy="31.27" r="2.17"/><circle class="cls-6" cx="4.34" cy="31.43" r="2.17"/><circle class="cls-6" cx="9.27" cy="33.96" r="2.17"/><circle class="cls-6" cx="6.5" cy="33.29" r="2.17"/><circle class="cls-6" cx="4.49" cy="27.54" r="2.17"/><circle class="cls-6" cx="6.27" cy="36.35" r="2.17"/><circle class="cls-6" cx="3.28" cy="34.57" r="2.17"/><circle class="cls-6" cx="3.46" cy="36.8" r="2.17"/><path class="cls-7" d="M75,45.79,74.4,48a7.78,7.78,0,1,0,14.94,4.32L90,50.11Z"/><rect class="cls-7" x="77.82" y="52.29" width="2.92" height="13.86" rx="1.46" ry="1.46" transform="translate(19.57 -19.69) rotate(16.13)"/><rect class="cls-7" x="72.47" y="63.53" width="10.33" height="2.79" rx="1.39" ry="1.39" transform="translate(21.09 -19.01) rotate(16.13)"/><path class="cls-1" d="M91.07,39.29a14.67,14.67,0,0,1-3.48,1.37A15,15,0,0,1,89,37.2a1.46,1.46,0,0,1,2,2.09Z"/><path class="cls-1" d="M98.05,47.84a10.15,10.15,0,0,1-2.58-.55,10.43,10.43,0,0,1,2.2-1.47,1,1,0,0,1,1.2.82A1,1,0,0,1,98.05,47.84Z"/></svg>