<svg id="Layer_1" data-name="Layer 1" xmlns="http://www.w3.org/2000/svg" viewBox="0 0 100 100"><defs><style>.cls-1{fill:#ffc640;}.cls-2{fill:#fff;}</style></defs><title>deity</title><path class="cls-1" d="M38.2,94.59a45.88,45.88,0,1,1,23.6,0H73.09a50,50,0,1,0-46.18,0Z"/><circle class="cls-1" cx="50" cy="50.26" r="39.18"/><path class="cls-2" d="M31.48,72.34h37A13.44,13.44,0,0,1,82,85.77v14a0,0,0,0,1,0,0H18a0,0,0,0,1,0,0v-14A13.44,13.44,0,0,1,31.48,72.34Z"/><rect class="cls-2" x="34.02" y="31.7" width="31.96" height="36.86" rx="12.89" ry="12.89"/></svg>