<svg id="Layer_1" data-name="Layer 1" xmlns="http://www.w3.org/2000/svg" viewBox="0 0 100 100"><defs><style>.cls-1{fill:#c37c6c;}.cls-2{fill:#f69a85;}.cls-3{fill:#231f20;}.cls-4{fill:#f37d3b;}.cls-5{fill:#3e3e3f;}.cls-6{fill:#454547;}.cls-7{fill:#a16659;}.cls-8{fill:#ffc540;}</style></defs><title>demon</title><path class="cls-1" d="M62.85,44.46S73.77,48.27,72,53.64c0,0,22.28-3.47,28-11.77,0,0-5-.64-4.38-4,0,0-5.32.86-5-1.79,0,0-8,.24-6.91-2C83.73,34,84.94,40,62.85,44.46Z"/><path class="cls-1" d="M37.15,44.46S26.23,48.27,28,53.64c0,0-22.28-3.47-28-11.77,0,0,5-.64,4.38-4,0,0,5.32.86,5-1.79,0,0,8,.24,6.91-2C16.27,34,15.06,40,37.15,44.46Z"/><rect class="cls-2" x="40.29" y="70.33" width="7.84" height="21.76" rx="3.92" ry="3.92"/><rect class="cls-2" x="51.39" y="70.33" width="7.84" height="21.76" rx="3.92" ry="3.92"/><rect class="cls-2" x="35.43" y="38.03" width="29.21" height="38.5" rx="14.6" ry="14.6"/><rect class="cls-2" x="35.43" y="40.78" width="29.21" height="10.59" rx="5.3" ry="5.3"/><rect class="cls-2" x="61.97" y="42" width="6.25" height="17.34" rx="3.12" ry="3.12"/><rect class="cls-2" x="61.97" y="57.28" width="6.25" height="17.34" rx="3.12" ry="3.12"/><rect class="cls-2" x="32.3" y="57.28" width="6.25" height="17.34" rx="3.12" ry="3.12"/><rect class="cls-2" x="32.3" y="42" width="6.25" height="17.34" rx="3.12" ry="3.12"/><path class="cls-2" d="M34.53,14.53V27.82a15.07,15.07,0,0,0,30.13,0V14.53Z"/><circle class="cls-3" cx="36.9" cy="28.7" r="1.21"/><circle class="cls-3" cx="61.2" cy="28.75" r="1.21"/><ellipse class="cls-2" cx="49.6" cy="14.13" rx="15.07" ry="4.25"/><rect class="cls-4" x="38.72" y="29.96" width="21.61" height="6.19" rx="3.09" ry="3.09"/><path class="cls-5" d="M35.46,21.84a2.73,2.73,0,0,0-.93,0,10.94,10.94,0,0,0-1.22.24A15.42,15.42,0,0,0,30.8,23,22,22,0,0,0,26,25.81a30.24,30.24,0,0,0-4.25,4.08c-.67.75-1.25,1.57-1.88,2.36l-1.72,2.54.94-2.94c.4-1,.74-2,1.19-2.9a32.18,32.18,0,0,1,3.2-5.54A26.51,26.51,0,0,1,28,18.52a21.29,21.29,0,0,1,2.87-2,15.52,15.52,0,0,1,1.62-.86,10.8,10.8,0,0,1,2-.72Z"/><path class="cls-6" d="M35.46,21.84a4.92,4.92,0,0,1-.66,0l-1.89-6.36c.53-.19,1.06-.37,1.61-.54Z"/><polygon class="cls-6" points="32.84 22.22 30.83 22.92 28.05 18.49 30.32 16.85 32.84 22.22"/><polygon class="cls-6" points="28.85 23.9 26.93 25.1 24.27 22.33 26.04 20.33 28.85 23.9"/><polygon class="cls-6" points="25.1 26.51 23.37 28.11 21.41 26.65 22.74 24.45 25.1 26.51"/><polygon class="cls-6" points="21.74 29.86 20.22 31.75 19.31 31.25 20.27 28.93 21.74 29.86"/><polygon class="cls-6" points="18.78 33.8 18.14 34.79 18.48 33.65 18.78 33.8"/><path class="cls-5" d="M68.26,14.93a10.8,10.8,0,0,1,2,.72,15.52,15.52,0,0,1,1.62.86,21.29,21.29,0,0,1,2.87,2,26.86,26.86,0,0,1,4.55,4.89A32.84,32.84,0,0,1,82.51,29c.45.95.79,1.94,1.18,2.9l.94,2.94-1.71-2.54c-.63-.79-1.22-1.61-1.88-2.36a30.24,30.24,0,0,0-4.25-4.08A22.27,22.27,0,0,0,72,23a15.74,15.74,0,0,0-2.51-.84,11.41,11.41,0,0,0-1.22-.24,2.79,2.79,0,0,0-.94,0Z"/><path class="cls-6" d="M68.26,14.93c.54.17,1.08.35,1.61.54L68,21.83a4.89,4.89,0,0,1-.66,0Z"/><polygon class="cls-6" points="72.46 16.85 74.73 18.49 71.95 22.92 69.93 22.22 72.46 16.85"/><polygon class="cls-6" points="76.74 20.33 78.5 22.33 75.85 25.1 73.93 23.9 76.74 20.33"/><polygon class="cls-6" points="80.04 24.45 81.37 26.65 79.41 28.11 77.68 26.51 80.04 24.45"/><polygon class="cls-6" points="82.51 28.93 83.47 31.25 82.56 31.75 81.04 29.86 82.51 28.93"/><polygon class="cls-6" points="84.3 33.65 84.63 34.79 84 33.8 84.3 33.65"/><rect class="cls-2" x="31.26" y="7.91" width="37.52" height="19.58" rx="9.79" ry="9.79"/><path class="cls-1" d="M44.63,30c0-2.7,2.19-8.31,4.89-8.31s4.9,5.61,4.9,8.31"/><path class="cls-7" d="M48.1,26.69c0,1.32-.47,2.39-.72,2.39s-.45-1.07-.45-2.39.2-2.4.45-2.4S48.1,25.36,48.1,26.69Z"/><ellipse class="cls-7" cx="51.49" cy="26.69" rx="0.46" ry="2.4"/><polygon class="cls-8" points="41.81 29.96 45.57 29.96 43.69 32.75 41.81 29.96"/><polygon class="cls-8" points="45.5 29.96 49.26 29.96 47.38 32.75 45.5 29.96"/><polygon class="cls-8" points="49.19 29.96 52.95 29.96 51.07 32.75 49.19 29.96"/><polygon class="cls-8" points="52.87 29.96 56.63 29.96 54.75 32.75 52.87 29.96"/><polygon class="cls-8" points="56.63 36.19 52.87 36.19 54.75 33.4 56.63 36.19"/><polygon class="cls-8" points="52.95 36.19 49.19 36.19 51.07 33.4 52.95 36.19"/><polygon class="cls-8" points="49.26 36.19 45.5 36.19 47.38 33.4 49.26 36.19"/><polygon class="cls-8" points="45.57 36.19 41.81 36.19 43.69 33.4 45.57 36.19"/><path class="cls-1" d="M36.7,20.59a13.49,13.49,0,0,0,1.49,2.3,20.19,20.19,0,0,0,2,2.19,16.24,16.24,0,0,0,5.07,3.4,17.82,17.82,0,0,1-6.53-.85,26.14,26.14,0,0,1-3.2-1.25,19.76,19.76,0,0,1-3.14-1.84l-.27-.2a3.08,3.08,0,1,1,4.62-3.75Z"/><path class="cls-1" d="M66.84,24.54a19.76,19.76,0,0,1-3.14,1.84,26.14,26.14,0,0,1-3.2,1.25,17.82,17.82,0,0,1-6.53.85A16.24,16.24,0,0,0,59,25.08a20.19,20.19,0,0,0,2-2.19,13.49,13.49,0,0,0,1.49-2.3,3.08,3.08,0,1,1,5.6,2.55,3,3,0,0,1-1,1.2Z"/></svg>