<svg id="Layer_1" data-name="Layer 1" xmlns="http://www.w3.org/2000/svg" viewBox="0 0 100 100"><defs><style>.cls-1{fill:#fcca98;}.cls-2{fill:#6ab8d9;}.cls-3{fill:#3e3e3f;}.cls-4{fill:#ffc640;}.cls-5{fill:#f37d3b;}.cls-6{fill:#da7135;}.cls-7{fill:#09a582;}</style></defs><title>djinn</title><path class="cls-1" d="M63.14,16.35c0,3.27-5.66,5.93-12.66,5.93s-12.65-2.66-12.65-5.93,5.66-9.06,12.65-9.06S63.14,13.08,63.14,16.35Z"/><path class="cls-2" d="M35.89,19.63V32.68a14.81,14.81,0,1,0,29.61,0v-13Z"/><circle class="cls-3" cx="39.9" cy="27.2" r="1.19"/><circle class="cls-3" cx="62.1" cy="27.24" r="1.19"/><circle class="cls-2" cx="67.4" cy="25.13" r="2.85"/><circle class="cls-2" cx="65.63" cy="28.7" r="2.49"/><circle class="cls-2" cx="34.12" cy="25.13" r="2.85"/><circle class="cls-2" cx="35.89" cy="28.7" r="2.49"/><rect class="cls-2" x="36.35" y="42.72" width="28.69" height="37.83" rx="14.35" ry="14.35"/><rect class="cls-2" x="36.35" y="45.42" width="28.69" height="10.41" rx="5.2" ry="5.2"/><rect class="cls-2" x="62.43" y="46.62" width="6.14" height="17.04" rx="3.07" ry="3.07"/><rect class="cls-2" x="66.75" y="57.81" width="6.14" height="17.04" rx="3.07" ry="3.07" transform="translate(-26.42 62.91) rotate(-41.5)"/><rect class="cls-2" x="33.28" y="46.62" width="6.14" height="17.04" rx="3.07" ry="3.07"/><rect class="cls-2" x="29.46" y="57.81" width="6.14" height="17.04" rx="3.07" ry="3.07" transform="translate(56.43 -3.57) rotate(45)"/><ellipse class="cls-1" cx="42.91" cy="18.39" rx="9.27" ry="4.38" transform="translate(-3.19 11.02) rotate(-14.11)"/><ellipse class="cls-1" cx="57.98" cy="18.39" rx="4.38" ry="9.27" transform="translate(26 70.13) rotate(-75.89)"/><path class="cls-2" d="M64.39,79.63a33,33,0,0,0-3.22-4.75A49.45,49.45,0,0,0,57.74,71,48.62,48.62,0,0,0,54,67.51l-.51-.42a8.27,8.27,0,0,0-2-1.21,8.55,8.55,0,1,0-7,15.63,32.3,32.3,0,0,1,3.12,1.71c1,.65,2.06,1.32,3,2,.6.44,1.16.9,1.64,1.32-1.55-.2-3.5-.64-5.54-1-.8-.14-1.61-.27-2.5-.34a18.45,18.45,0,0,0-2.71-.09,17.86,17.86,0,0,0-2.86.35,14.76,14.76,0,0,0-2.8,1.08c-3.6,1.85-5.33,5.59-6.51,7.35a8.59,8.59,0,0,1-6.06,3.89,11.73,11.73,0,0,1-7.78-2.42,12.82,12.82,0,0,0,7.7,4.53c3.26.54,6.75-1,9.19-3.09.65-.52,1.17-1.12,1.76-1.69l.43-.44.35-.3.66-.59a6.33,6.33,0,0,1,2.71-1.41c1.72-.43,3.73.27,6.1,1.28s4.84,2.62,9.06,3.46l.79.14.94,0a11.48,11.48,0,0,0,1.93-.06,11.09,11.09,0,0,0,4.11-1.43,9.88,9.88,0,0,0,3.52-3.18,10.1,10.1,0,0,0,1.7-5.28A15,15,0,0,0,64.39,79.63Z"/><rect class="cls-4" x="37.83" y="44.51" width="6.18" height="25.64" rx="3.09" ry="3.09"/><rect class="cls-4" x="58.77" y="44.51" width="6.18" height="25.64" rx="3.09" ry="3.09"/><path class="cls-4" d="M42.68,45.9s3,23.33,6.07,24.25H40.64"/><path class="cls-4" d="M59.68,45.9s-3,23.33-6.06,24.25h8.1"/><path class="cls-5" d="M52.5,0s-5,11.34-5,13.58a4,4,0,0,0,2.39,3.94L52.54.43C52.52.16,52.5,0,52.5,0Z"/><path class="cls-6" d="M52.37,7.73,52.2,8l.17-.28L52,7.44l.42.29.73-1.27,0-.39-.83-.54-.12.11.12-.11-.16-.11.16.11L53,4.82c-.17-1.94-.33-3.64-.41-4.39L49.85,17.52a2.61,2.61,0,0,0,.68.11c1.7,0,3.08-1.82,3.08-4,0-.84-.16-2.95-.35-5.25Z"/><path class="cls-3" d="M49.64,36.5a32.48,32.48,0,0,1-5,.9,9.49,9.49,0,0,1-2.55,0,1.85,1.85,0,0,1-1.18-.6c-.2-.15-.15-.44-.22-.63l.15-.61v.6c.1.16.09.38.28.46a1.54,1.54,0,0,0,1,.26,9.29,9.29,0,0,0,2.3-.46,32.81,32.81,0,0,0,4.41-1.84h0a1.06,1.06,0,1,1,1,1.9Z"/><path class="cls-3" d="M52.39,34.53a32.15,32.15,0,0,0,4.4,1.84,9.39,9.39,0,0,0,2.3.46,1.56,1.56,0,0,0,1-.26c.19-.08.17-.3.28-.46l0-.6.15.61c-.07.19,0,.48-.22.63a1.85,1.85,0,0,1-1.18.6,9.48,9.48,0,0,1-2.55,0,32.7,32.7,0,0,1-5-.9,1.06,1.06,0,1,1,.52-2.06.66.66,0,0,1,.21.08Z"/><polygon class="cls-5" points="47.77 34.28 53.62 34.28 50.69 23.59 47.77 34.28"/><rect class="cls-3" x="49.26" y="43.68" width="2.75" height="5.14" rx="1.37" ry="1.37"/><polygon class="cls-7" points="52.36 13.59 48.6 13.59 46.73 16.84 48.6 20.1 52.36 20.1 54.24 16.84 52.36 13.59"/></svg>