<svg id="Layer_1" data-name="Layer 1" xmlns="http://www.w3.org/2000/svg" viewBox="0 0 100 100"><defs><style>.cls-1{fill:#333335;}.cls-2{fill:#7d7d7d;}.cls-3{fill:#f37d3b;}</style></defs><title>domovoi</title><path class="cls-1" d="M32.17,16.1s-2.56-4.39-5.43-1.6,1.18-5.59,6.06-4c0,0-.24-4.08-4.11-3.36,0,0,4.68-3.51,10.51,1.12"/><path class="cls-1" d="M48.12,8.67s1.45-4.88-2.56-5,4.89-3,7.07,1.68c0,0,2.8-3-.38-5.3,0,0,5.77,1,6.39,8.42"/><rect class="cls-1" x="25.08" y="5.09" width="48.85" height="48.85" rx="24.43" ry="24.43"/><path class="cls-2" d="M78.5,29.52a3.46,3.46,0,1,1-6.91,0c0-1.91,5.33-13.42,7.24-13.42S78.5,27.61,78.5,29.52Z"/><circle class="cls-2" cx="72.9" cy="33.85" r="3.02"/><path class="cls-2" d="M21.78,29.52a3.46,3.46,0,1,0,6.91,0c0-1.91-5.33-13.42-7.24-13.42S21.78,27.61,21.78,29.52Z"/><circle class="cls-2" cx="27.38" cy="33.85" r="3.02"/><polyline class="cls-1" points="28.31 32.83 20.21 45.15 31.4 42.99 31.4 30.91"/><polyline class="cls-1" points="71.69 32.83 79.79 45.15 68.6 42.99 68.6 30.91"/><rect class="cls-2" x="20.23" y="56.24" width="7.44" height="20.65" rx="3.72" ry="3.72"/><rect class="cls-2" x="34.51" y="79.35" width="7.44" height="20.65" rx="3.72" ry="3.72"/><rect class="cls-2" x="53.09" y="79.35" width="7.44" height="20.65" rx="3.72" ry="3.72"/><rect class="cls-2" x="70.48" y="56.24" width="7.44" height="20.65" rx="3.72" ry="3.72"/><rect class="cls-2" x="25.54" y="37.66" width="47.37" height="52.02" rx="23.69" ry="23.69"/><path class="cls-1" d="M29.78,33.85H40.07A139.08,139.08,0,0,1,27.42,62.44C28,50.58,29.24,40.64,29.78,33.85Z"/><path class="cls-1" d="M59.27,33.85H69.56c.53,6.79,1.74,16.73,2.36,28.59A139.08,139.08,0,0,1,59.27,33.85Z"/><path class="cls-1" d="M34.29,43a46.55,46.55,0,0,0,11.84,2.28A174.91,174.91,0,0,1,34.75,80.11,267.17,267.17,0,0,1,34.29,43Z"/><path class="cls-1" d="M41.94,44.82a52.53,52.53,0,0,0,12.41.36A209.32,209.32,0,0,1,47.2,83.9,220.74,220.74,0,0,1,41.94,44.82Z"/><path class="cls-1" d="M51.11,45.37a49,49,0,0,0,12.06-1.79,251.63,251.63,0,0,1-1.59,38A184.6,184.6,0,0,1,51.11,45.37Z"/><rect class="cls-2" x="27.78" y="9.68" width="44.43" height="44.43" rx="22.22" ry="22.22"/><path class="cls-1" d="M50,55.28A22.24,22.24,0,0,0,68.6,45.15a22.14,22.14,0,0,0-37.2,0A22.24,22.24,0,0,0,50,55.28Z"/><rect class="cls-1" x="38.8" y="32.29" width="22.48" height="4.58" rx="2.29" ry="2.29"/><path class="cls-1" d="M41.17,32.32s-8.42.11-7.78,7.25c0,0,4.8-4.32,8.9-.86"/><path class="cls-1" d="M57.93,32.32s8.42.11,7.78,7.25c0,0-4.8-4.32-8.9-.86"/><polygon class="cls-3" points="46.01 32.32 53.09 32.32 49.55 19.37 46.01 32.32"/><circle class="cls-1" cx="32.8" cy="30.92" r="1.4"/><circle class="cls-1" cx="68.02" cy="30.92" r="1.4"/><path class="cls-2" d="M68.1,77s2,4.68,5.19,2.26-1.88,5.4-6.52,3.21c0,0-.27,4.07,3.66,3.84,0,0-5.08,2.9-10.29-2.42"/><polyline class="cls-1" points="30.39 18.49 35.2 24.06 38.22 11.89 41.94 16.79 42.84 8.67"/><path class="cls-1" d="M34.51,92.6,32,96.17l2.13-.53-.53,3.15L36.76,97l1.47,2.58,1.57-2.65,2.37,1.94-.23-3.54,1.75.78L41.94,92.6S38.09,95.28,34.51,92.6Z"/><path class="cls-1" d="M53.19,92.6l-2.53,3.57,2.13-.53-.53,3.15L55.44,97l1.47,2.58,1.57-2.65,2.37,1.94-.23-3.54,1.75.78L60.62,92.6S56.77,95.28,53.19,92.6Z"/></svg>