<svg id="Layer_1" data-name="Layer 1" xmlns="http://www.w3.org/2000/svg" viewBox="0 0 100 100"><defs><style>.cls-1{fill:#c5e0a9;}.cls-2{fill:#09a481;}.cls-3{fill:#00a69c;}.cls-4{fill:#171717;}.cls-5{fill:#009b92;}.cls-6{fill:#00948b;}</style></defs><title>dryad</title><path class="cls-1" d="M30,23.06a3.21,3.21,0,0,0,6.41,0c0-1.77-6.71-12.42-6.71-12.42S30,21.29,30,23.06Z"/><circle class="cls-1" cx="35.15" cy="27.07" r="2.8"/><path class="cls-1" d="M70.09,23.06a3.2,3.2,0,0,1-6.4,0c0-1.77,6.7-12.42,6.7-12.42S70.09,21.29,70.09,23.06Z"/><circle class="cls-1" cx="64.91" cy="27.07" r="2.8"/><rect class="cls-1" x="11.58" y="66.98" width="60.17" height="5.88" rx="2.94" ry="2.94" transform="translate(111.58 28.25) rotate(90)"/><rect class="cls-1" x="27.43" y="66.98" width="60.17" height="5.88" rx="2.94" ry="2.94" transform="translate(127.43 12.4) rotate(90)"/><path class="cls-2" d="M35,33.24S32.23,39,29.64,35c0,0,3.08,10,10.07-1.76"/><path class="cls-2" d="M65,33.24S67.74,39,70.32,35c0,0-3.08,10-10.07-1.76"/><rect class="cls-1" x="19.92" y="45.74" width="60.17" height="5.88" rx="2.94" ry="2.94"/><rect class="cls-2" x="34.68" y="21.63" width="30.29" height="21.41"/><circle class="cls-2" cx="36.46" cy="23.29" r="2.94"/><circle class="cls-2" cx="37.62" cy="18.32" r="2.94"/><circle class="cls-2" cx="34.68" cy="15.98" r="2.94"/><circle class="cls-2" cx="38" cy="14.42" r="2.94"/><circle class="cls-2" cx="38.72" cy="10.73" r="2.94"/><circle class="cls-2" cx="42.06" cy="12.07" r="2.94"/><circle class="cls-2" cx="43.38" cy="9.52" r="2.94"/><circle class="cls-2" cx="45.96" cy="7.11" r="2.94"/><circle class="cls-2" cx="48.9" cy="8.54" r="2.94"/><circle class="cls-2" cx="51.84" cy="7.11" r="2.94"/><circle class="cls-2" cx="52.69" cy="9.13" r="2.94"/><circle class="cls-2" cx="55.96" cy="9.13" r="2.94"/><circle class="cls-2" cx="60.07" cy="6.58" r="2.94"/><circle class="cls-2" cx="59.17" cy="12.07" r="2.94"/><circle class="cls-2" cx="61.46" cy="11.48" r="2.94"/><circle class="cls-2" cx="61.46" cy="15.38" r="2.94"/><circle class="cls-2" cx="62.11" cy="19.36" r="2.94"/><circle class="cls-2" cx="64.4" cy="20.35" r="2.94"/><circle class="cls-2" cx="63.35" cy="23.91" r="2.94"/><rect class="cls-1" x="33.52" y="37.11" width="32.03" height="46.52" rx="16.01" ry="16.01"/><rect class="cls-3" x="32.51" y="48.4" width="34.06" height="4.9" rx="2.45" ry="2.45"/><rect class="cls-3" x="32.51" y="48.51" width="5.11" height="7.66" rx="2.55" ry="2.55"/><rect class="cls-3" x="36.82" y="51.62" width="5.11" height="7.66" rx="2.55" ry="2.55"/><rect class="cls-3" x="40.47" y="49.6" width="5.11" height="7.66" rx="2.55" ry="2.55"/><rect class="cls-3" x="44.64" y="52.34" width="5.11" height="7.66" rx="2.55" ry="2.55"/><rect class="cls-3" x="46.67" y="50.98" width="5.11" height="7.66" rx="2.55" ry="2.55"/><rect class="cls-3" x="50.84" y="52.13" width="5.11" height="7.66" rx="2.55" ry="2.55"/><rect class="cls-3" x="61.46" y="48.67" width="5.11" height="7.66" rx="2.55" ry="2.55"/><rect class="cls-3" x="58.24" y="48.51" width="5.11" height="7.66" rx="2.55" ry="2.55"/><rect class="cls-3" x="54.3" y="50" width="5.11" height="7.66" rx="2.55" ry="2.55"/><rect class="cls-1" x="36.76" y="9.52" width="25.98" height="34.66" rx="12.99" ry="12.99"/><circle class="cls-4" cx="41.66" cy="22.86" r="1.22"/><circle class="cls-4" cx="57.95" cy="22.86" r="1.22"/><polygon class="cls-2" points="47.06 28.61 52.44 28.61 49.62 20.25 47.06 28.61"/><path class="cls-2" d="M45.67,8.77,37.62,14s5.45,6.14,18.34,4.5c0,0-8.16-1.63-8.34-5,0,0,8.07,5.51,15.73,4.79l-4.18-8-6-2.3"/><rect class="cls-2" x="45.96" y="32.34" width="8.34" height="1.62" rx="0.81" ry="0.81"/><circle class="cls-3" cx="42.6" cy="49.86" r="4.6"/><circle class="cls-3" cx="57.51" cy="49.86" r="4.6"/><path class="cls-2" d="M34.68,67.06s-2.77,5.8-5.35,1.75c0,0,3.08,10,10.07-1.75V40H34.68Z"/><path class="cls-2" d="M65,67.06V40H60.25v27.1c7,11.74,10.07,1.75,10.07,1.75C67.74,72.86,65,67.06,65,67.06Z"/><path class="cls-2" d="M65,55.79s2.77,5.8,5.35,1.75c0,0-3.08,10-10.07-1.75"/><path class="cls-2" d="M65,44.51s2.77,5.8,5.35,1.76c0,0-3.08,10-10.07-1.76"/><path class="cls-2" d="M35,55.79s-2.76,5.8-5.35,1.75c0,0,3.08,10,10.07-1.75"/><path class="cls-2" d="M34.68,44.51s-2.77,5.8-5.35,1.76c0,0,3.08,10,10.07-1.76"/><path class="cls-3" d="M33.64,72.2A16.89,16.89,0,0,0,66,72.2Z"/><path class="cls-5" d="M28.78.47a1.29,1.29,0,0,0-.17,1.43c.34.69.73,1.48,1.16,2.32L32.91,4Z"/><path class="cls-3" d="M32.91,4l-3.14.27C30.44,5.54,31.2,7,32,8.32l5.59-.47Z"/><path class="cls-5" d="M37.54,7.85,32,8.32c.48.87,1,1.69,1.42,2.44l6.92-.59Z"/><path class="cls-3" d="M33.37,10.76a14,14,0,0,0,2.2,2.94c1.65,1.39,4.8.57,6.64-.1a2.74,2.74,0,0,0,1.18-.82l-3.1-2.61Z"/><path class="cls-6" d="M43,4.91C41.26,3.47,34.19,1.25,30.16.06a1.29,1.29,0,0,0-1.38.41L43.39,12.78a2.79,2.79,0,0,0,.61-1.3C44.35,9.55,44.62,6.3,43,4.91Z"/></svg>