<svg id="Layer_1" data-name="Layer 1" xmlns="http://www.w3.org/2000/svg" viewBox="0 0 100 100"><defs><style>.cls-1{fill:#b2e2f9;}.cls-2{fill:#ffc63f;}.cls-3{fill:#5596b2;}.cls-4{fill:#ebf7fd;}.cls-5{fill:#ffe5b1;}.cls-6{fill:#ffdb91;}.cls-7{fill:#f05c38;}.cls-8{fill:none;stroke:#ffc640;stroke-miterlimit:10;stroke-width:3.04px;}</style></defs><title>elixir of life</title><path class="cls-1" d="M50,44a35.44,35.44,0,0,1,11,1.75V11H39V45.76A35.44,35.44,0,0,1,50,44"/><path class="cls-1" d="M85.76,64.24A35.76,35.76,0,1,1,50,28.48,35.76,35.76,0,0,1,85.76,64.24"/><path class="cls-2" d="M85.76,64.24a37,37,0,0,0-.46-5.5H83c-9.51-8-24.52-6.77-33,0h0c-8.48,6.77-23.49,8-33,0H14.7a36.88,36.88,0,0,0-.46,5.5,35.76,35.76,0,1,0,71.52,0"/><polygon class="cls-3" points="33.49 11 66.5 11 66.5 0 33.49 0 33.49 11"/><circle class="cls-2" cx="30.23" cy="46.69" r="4.95"/><circle class="cls-2" cx="55.62" cy="36.56" r="2.02"/><circle class="cls-4" cx="70.81" cy="45.94" r="3.12"/><circle class="cls-5" cx="68.17" cy="83.25" r="4.38"/><circle class="cls-6" cx="30.23" cy="81.45" r="3.35"/><path class="cls-7" d="M59.88,51C54.43,51,50,53.4,50,58.86,50,53.4,45.57,51,40.12,51a9.88,9.88,0,0,0-9.89,9.88c0,12.28,19.77,25,19.77,25s19.77-12.69,19.77-25A9.88,9.88,0,0,0,59.88,51Z"/><path class="cls-8" d="M38.26,66.13h0c0-2.92,3-5.34,5.64-4a70.13,70.13,0,0,1,6.1,4,72.05,72.05,0,0,1-6.1,4.06C41.27,71.48,38.26,69.06,38.26,66.13Z"/><path class="cls-8" d="M61.74,66.13h0c0-2.92-3-5.34-5.64-4a70.13,70.13,0,0,0-6.1,4,72.05,72.05,0,0,0,6.1,4.06C58.73,71.48,61.74,69.06,61.74,66.13Z"/></svg>