<svg id="Layer_1" data-name="Layer 1" xmlns="http://www.w3.org/2000/svg" viewBox="0 0 100 100"><defs><style>.cls-1{fill:#ffc640;}.cls-2{fill:#09a582;}.cls-3{fill:#60403c;}.cls-4{fill:#171717;}.cls-5{fill:#714c48;}.cls-6{fill:#895e59;}.cls-7{fill:#3e3e3f;}.cls-8{fill:#fcca98;}.cls-9{fill:#fff;}</style></defs><title>epona</title><path class="cls-1" d="M44.9,14.36s-13.22-.6-17.92.82-13.35.67-13.35.67a25.08,25.08,0,0,0,11.89.84,124,124,0,0,1,16.69-.94"/><path class="cls-1" d="M44.9,8.53S31.68,6.61,27,11.2s-13.35,2.17-13.35,2.17,5,6.23,11.89,2.73,16.69-3.05,16.69-3.05"/><path class="cls-1" d="M39.7,5.74S34.61,11.23,30,9.85A29.65,29.65,0,0,0,14.2,9.26c-5.65,1.43-6.86-.77-6.86-.77s.09,4,6.55,2.64,15.89,2.55,17.22,2.55,10.4-.53,13-2.82"/><path class="cls-2" d="M50,27.15s14.41.89,17.74,4.07c0,0-1.39,5.85,1.48,9.73L46.15,31.09"/><polyline class="cls-3" points="81.71 53.1 76.08 92.73 68.62 53.1"/><polyline class="cls-3" points="77.64 87.94 76.11 98.31 74.1 87.94"/><rect class="cls-3" x="73.81" y="83.63" width="4.51" height="2.96" rx="1.48" ry="1.48" transform="translate(152.12 170.22) rotate(-180)"/><rect class="cls-3" x="73.81" y="85.63" width="4.51" height="2.96" rx="1.48" ry="1.48" transform="translate(152.12 174.21) rotate(-180)"/><polygon class="cls-3" points="40.85 56.49 53.19 60.87 39.97 86.1 36.66 83.25 40.85 56.49"/><polyline class="cls-3" points="41.19 86.36 43.07 96.66 37.84 87.49"/><rect class="cls-3" x="36.53" y="82.7" width="4.51" height="2.96" rx="1.48" ry="1.48" transform="translate(102.54 151.46) rotate(161.28)"/><rect class="cls-3" x="37.18" y="84.59" width="4.51" height="2.96" rx="1.48" ry="1.48" transform="translate(104.4 154.93) rotate(161.28)"/><path class="cls-4" d="M30,59.86a15.71,15.71,0,0,0-.52-3.2,20.06,20.06,0,0,0-1.09-3.1,16.46,16.46,0,0,0-1.73-3A11.87,11.87,0,0,0,24,48a8.84,8.84,0,0,0-4-1.58,9,9,0,0,0-4.46.62,9.71,9.71,0,0,0-1,.44l-.9.51A17.11,17.11,0,0,0,12.13,49a14.43,14.43,0,0,0-2.72,2.79,12.56,12.56,0,0,0-1.83,3.66A14,14,0,0,0,7,59.31a27.38,27.38,0,0,0,.19,3.31,21,21,0,0,1,.18,2.32c0,.26,0,.42,0,.58a.42.42,0,0,1,0,.12s0,.09,0,.12a.37.37,0,0,0,0,.09.31.31,0,0,0,0,.08.4.4,0,0,1-.3.29,1.68,1.68,0,0,1-.86,0A4.86,4.86,0,0,1,3.94,65a3.51,3.51,0,0,1-.78-1,1.47,1.47,0,0,1,0-1.35,1.57,1.57,0,0,0-.69.53,2.23,2.23,0,0,0-.36.87,4.11,4.11,0,0,0,.14,1.88,6.41,6.41,0,0,0,2.09,3.15,5.52,5.52,0,0,0,2,1A4.61,4.61,0,0,0,9.05,70a6.54,6.54,0,0,0,.66-.28,3.82,3.82,0,0,0,.58-.37,5.53,5.53,0,0,0,.52-.41c.16-.14.31-.3.46-.46a6.4,6.4,0,0,0,1.25-2.17,14.11,14.11,0,0,0,.66-3.76c.08-1.06.13-2,.25-2.81a8,8,0,0,1,1.47-3.93,9.69,9.69,0,0,1,1.49-1.62c.28-.27.62-.51.93-.77l.41-.29c.14-.1.26-.15.39-.24a3.93,3.93,0,0,1,1.48-.52,3.75,3.75,0,0,1,1.77.23,14.07,14.07,0,0,1,4.32,2.88C27.14,56.79,28.53,58.28,30,59.86Z"/><path class="cls-4" d="M69,9.83v37.6L52.34,51.54l4.75-29.71S59.64,7.55,69,9.83Z"/><path class="cls-5" d="M49.57,74.87c17.63,0,27.51-5.09,28.87-5.84L66.71,47.76l.22-.11c-.45.22-11.13,5.38-32,1.51A12.14,12.14,0,1,0,30.5,73,104.54,104.54,0,0,0,49.57,74.87Z"/><path class="cls-5" d="M57.73,77.16l.3.11.13,0,.07,0,.29.09.49.14.46.12.41.09c.56.13,1.07.22,1.61.31s1.06.16,1.6.21l.82.08.84.05a27,27,0,0,0,7.67-.66c.35-.07.73-.18,1.11-.29s.75-.22,1.12-.35l.56-.19.59-.23,1.16-.5.57-.27.58-.31L79.26,75a18.84,18.84,0,0,0,2.18-1.55,20.92,20.92,0,0,0,6-7.8,22.26,22.26,0,0,0,1.74-6.82c0-.49.08-1,.1-1.46s0-.86,0-1.29l0-1.27c0-.41-.07-.76-.11-1.14a33.27,33.27,0,0,0-.71-4.16l-.49-1.81c-.08-.29-.16-.6-.25-.88L87.34,46l-.56-1.65-.62-1.53c-.21-.51-.41-1-.63-1.51l-.66-1.44c-.43-1-.9-1.87-1.36-2.78l-.7-1.35-.73-1.3c-.48-.86-1-1.74-1.46-2.56l-1.49-2.47c-.89-1.33-1.73-2.65-2.47-3.93s-1.39-2.52-1.86-3.54c-.22-.48-.43-.95-.57-1.17s-.29-.24-.66.05c0,0-.1.08-.16.12l-.17.11a2.12,2.12,0,0,1-.2.12l-.21.1a.83.83,0,0,1-.22.08,1.52,1.52,0,0,1-.2.06,1.33,1.33,0,0,1-.34,0c-.37-.07-.22-.34.16-.5a4.9,4.9,0,0,1,1.67-.28,14,14,0,0,1,2.2.1,36.24,36.24,0,0,1,4.86,1c1.66.44,3.33,1,5,1.54,3.33,1.16,6.66,2.51,9.93,4a108.35,108.35,0,0,0-7.67-7.8C86.86,18.18,85.44,17,84,15.79a43,43,0,0,0-4.84-3.34A22.64,22.64,0,0,0,76.24,11a16.17,16.17,0,0,0-3.57-1.08l-.52-.09-.56-.05a7.85,7.85,0,0,0-1.2,0h-.31l-.34,0-.67.07a6.43,6.43,0,0,0-.72.13c-.24.06-.47.1-.73.19a10.08,10.08,0,0,0-1.53.6c-.25.13-.51.26-.75.41s-.5.32-.74.49a7.34,7.34,0,0,0-.69.56c-.22.2-.44.4-.65.61s-.38.43-.56.65a7.59,7.59,0,0,0-.52.67c-.15.22-.29.45-.43.68s-.15.23-.21.35l-.17.33c-.22.44-.45.91-.6,1.31s-.33.87-.43,1.25l-.16.6L60.1,19l-.07.27a24.51,24.51,0,0,0-.52,4.13,45.62,45.62,0,0,0,.25,6.85c.23,2.12.54,4.15.89,6.13L61,38.86c.12.83.18,1.65.27,2.46l.11,1.21.08,1.19c0,.79.1,1.58.09,2.32l0,1.13c0,.38,0,.72,0,1.08l-.05,1-.11,1,0,.48c0,.16-.06.29-.09.43l-.17.83-.23.66-.06.16a1.05,1.05,0,0,1-.07.11l-.14.21c0,.06-.08.15-.13.18l-.15.05c-.05,0-.09,0-.13,0a.64.64,0,0,1-.13-.15,2.48,2.48,0,0,1,.1-1.79,5.2,5.2,0,0,1,.34-.85l.24-.48c.09-.16.19-.33.3-.49s.22-.31.35-.48a6.54,6.54,0,0,1,.4-.52c.15-.17.3-.33.46-.48s.31-.33.48-.48c.34-.31.73-.57,1.07-.84a6.65,6.65,0,0,1,.56-.36l.29-.16.25-.15.54-.27.27-.12.24-.11.48-.2c.17,0,.34-.1.46-.15a22.58,22.58,0,0,1,2.39-.62l.18,0,.16-.05.31-.07a2.57,2.57,0,0,1,.33,0h.24l.18,0,.13,0h0l.09,0,.22.08A17.56,17.56,0,0,0,57.73,77.16Z"/><path class="cls-5" d="M60,45.09s8.81,4-23.41,4.39l5.69,14.85L78.3,60"/><path class="cls-6" d="M93.52,18.6A6.44,6.44,0,0,1,96.91,27l-.13.31a6.44,6.44,0,0,1-8.42,3.39l-2.1-.9,6.15-11.7Z"/><path class="cls-5" d="M70.2,16l.13-.31a6.46,6.46,0,0,1,8.43-3.39l13.65,5.81-6.15,11.7L73.6,24.43A6.44,6.44,0,0,1,70.2,16Z"/><path class="cls-5" d="M69.11,10.19a2.27,2.27,0,1,0,4.53,0c0-1.25-2.26-7.31-2.26-7.31S69.11,8.94,69.11,10.19Z"/><circle class="cls-6" cx="95.41" cy="19.74" r="2.51"/><circle class="cls-7" cx="66.24" cy="17.6" r="0.76"/><circle class="cls-5" cx="96.17" cy="19.74" r="0.76"/><circle class="cls-6" cx="91.84" cy="22.24" r="2.51"/><circle class="cls-5" cx="92.6" cy="22.24" r="0.76"/><path class="cls-4" d="M67.57,9.58S74.5,8.2,78.44,11l-7.26,3.06s-4.42-2.41-6.72-1.44c-.13,0-4.37,4.13-4.49,4.19-2.45,1.27,1.57-3.43,1.57-3.43Z"/><path class="cls-5" d="M63,12.25a2.27,2.27,0,0,0,4.53,0c0-1.25-2.27-7.31-2.27-7.31S63,11,63,12.25Z"/><polyline class="cls-5" points="69 52.27 63.37 91.9 55.91 52.27"/><polyline class="cls-5" points="64.93 87.11 63.4 97.47 61.39 87.11"/><rect class="cls-5" x="61.1" y="82.79" width="4.51" height="2.96" rx="1.48" ry="1.48" transform="translate(126.7 168.55) rotate(-180)"/><rect class="cls-5" x="61.1" y="84.79" width="4.51" height="2.96" rx="1.48" ry="1.48" transform="translate(126.7 172.54) rotate(-180)"/><polygon class="cls-4" points="80.92 100 72.09 100 76.51 94.09 80.92 100"/><polygon class="cls-4" points="67.77 100 58.93 100 63.35 94.09 67.77 100"/><polygon class="cls-4" points="46.86 100 38.02 100 42.44 94.09 46.86 100"/><polygon class="cls-5" points="28.12 56.49 40.45 60.87 27.24 86.1 23.93 83.25 28.12 56.49"/><polyline class="cls-5" points="28.46 86.36 30.34 96.66 25.11 87.49"/><rect class="cls-5" x="23.8" y="82.7" width="4.51" height="2.96" rx="1.48" ry="1.48" transform="matrix(-0.95, 0.32, -0.32, -0.95, 77.76, 155.54)"/><rect class="cls-5" x="24.44" y="84.59" width="4.51" height="2.96" rx="1.48" ry="1.48" transform="translate(79.61 159.02) rotate(161.28)"/><polygon class="cls-4" points="34.13 100 25.29 100 29.71 94.09 34.13 100"/><circle class="cls-3" cx="30.49" cy="54.34" r="0.91"/><circle class="cls-3" cx="25.91" cy="58.28" r="1.42"/><circle class="cls-3" cx="32.93" cy="58.26" r="0.54"/><rect class="cls-1" x="36.43" width="20.69" height="22.25" rx="10.35" ry="10.35"/><polyline class="cls-8" points="44.12 20.62 39.98 28.91 43.27 40.71 49.65 41.94 55.28 32.4 50.08 20.62"/><rect class="cls-8" x="37.74" y="1.21" width="18.14" height="24.27" rx="9.07" ry="9.07"/><polyline class="cls-1" points="37.74 6.86 55.88 6.86 54.27 4.2 51.77 2.07 48.59 0.9 45.13 0.9 40.43 2.87 38.49 5"/><circle class="cls-4" cx="40.91" cy="11.24" r="0.77"/><circle class="cls-4" cx="52.86" cy="11.24" r="0.77"/><path class="cls-8" d="M53.25,69.21A3,3,0,0,1,52,68.94a3,3,0,0,1-1.55-4c1.53-3.42-5-9.53-8.14-11.79a3.05,3.05,0,0,1,3.52-5C47.3,49.17,60,58.48,56,67.4A3.06,3.06,0,0,1,53.25,69.21Z"/><circle class="cls-9" cx="33.84" cy="51.43" r="1.86"/><circle class="cls-9" cx="37.55" cy="52.22" r="1.86"/><circle class="cls-9" cx="41.27" cy="53.01" r="1.86"/><circle class="cls-9" cx="44.98" cy="54.08" r="1.86"/><circle class="cls-9" cx="48.91" cy="55.58" r="1.86"/><circle class="cls-9" cx="52.62" cy="56.94" r="1.86"/><path class="cls-2" d="M42.3,24.26s-10.69,3.91-8.46,11,.93,13.47-2,15.06,25,4.39,23.42,9S62,56.47,62,56.47s-7.35-27.69-8.4-28.94l-1.55,3.23"/><rect class="cls-8" x="60.11" y="38.38" width="9.12" height="5.14" rx="2.57" ry="2.57" transform="translate(21.2 -22.05) rotate(23.05)"/><path class="cls-1" d="M53.25,5.16S49.61,9.67,39.12,9.23c0,0,10.8-3.05,6.36-5.66"/><path class="cls-1" d="M44.9,1.21S31.68-.71,27,3.88,13.63,6.05,13.63,6.05s5,6.23,11.89,2.73,16.69-3,16.69-3"/><path class="cls-1" d="M44.9,6.59S31.68,6,27,7.42s-13.35.67-13.35.67a25.08,25.08,0,0,0,11.89.84A122.16,122.16,0,0,1,42.21,8"/><path class="cls-2" d="M46.06,32.36s14.41.89,17.74,4.07c0,0-1.4,5.85,1.48,9.73L42.21,36.3"/></svg>