<svg id="Layer_1" data-name="Layer 1" xmlns="http://www.w3.org/2000/svg" viewBox="0 0 100 100"><defs><style>.cls-1{fill:#fcca98;}.cls-2{fill:#3e3e3f;}.cls-3{fill:#f37d3b;}.cls-4{fill:#fff;}.cls-5{fill:#089a7a;}.cls-6{fill:#09a582;}.cls-7{fill:#069274;}.cls-8{fill:#009b92;}.cls-9{fill:#00a69c;}.cls-10{fill:#00948b;}</style></defs><title>aeolus</title><path class="cls-1" d="M25.35,17.13V30.34a15,15,0,0,0,29.93,0V17.13Z"/><circle class="cls-2" cx="29.4" cy="24.79" r="1.2"/><circle class="cls-2" cx="51.85" cy="24.83" r="1.2"/><circle class="cls-1" cx="57.21" cy="22.7" r="2.88"/><circle class="cls-1" cx="55.42" cy="26.31" r="2.52"/><circle class="cls-1" cx="23.56" cy="22.7" r="2.88"/><circle class="cls-1" cx="25.35" cy="26.31" r="2.52"/><polygon class="cls-3" points="37.36 31.95 43.27 31.95 40.32 21.14 37.36 31.95"/><rect class="cls-1" x="25.81" y="40.48" width="29.01" height="38.24" rx="14.51" ry="14.51"/><rect class="cls-1" x="25.81" y="43.21" width="29.01" height="10.52" rx="5.26" ry="5.26"/><rect class="cls-1" x="52.18" y="44.43" width="6.2" height="17.22" rx="3.1" ry="3.1"/><rect class="cls-1" x="52.18" y="59.61" width="6.2" height="17.22" rx="3.1" ry="3.1"/><rect class="cls-1" x="42.67" y="66.87" width="8.6" height="30.79" rx="4.3" ry="4.3"/><rect class="cls-1" x="30.31" y="66.87" width="8.6" height="30.79" rx="4.3" ry="4.3"/><rect class="cls-1" x="22.71" y="44.43" width="6.2" height="17.22" rx="3.1" ry="3.1"/><rect class="cls-1" x="22.71" y="59.61" width="6.2" height="17.22" rx="3.1" ry="3.1"/><path class="cls-4" d="M25.35,17.13s4-11,20.15-6.5S67,5.23,67,5.23,68.8,18,55.28,17.13,35.65,23.11,25.35,17.13Z"/><path class="cls-4" d="M27.64,14.76S27.84,3.83,40,4.3,56.1,2.1,56.1,2.1s-2,10-7.73,10.31"/><rect class="cls-1" x="49.46" y="32.78" width="9.95" height="3.11" rx="1.56" ry="1.56"/><rect class="cls-1" x="48.43" y="35.89" width="9.95" height="3.11" rx="1.56" ry="1.56"/><path class="cls-5" d="M88.93,27a.36.36,0,0,0-.4,0l-.62.37.14.87Z"/><path class="cls-6" d="M88.05,28.22l-.14-.87c-.35.22-.73.45-1.09.69l.25,1.54Z"/><path class="cls-5" d="M87.07,29.58,86.82,28c-.23.15-.45.3-.65.45l.31,1.91Z"/><path class="cls-6" d="M86.17,28.49a3.77,3.77,0,0,0-.77.67c-.35.49-.06,1.34.17,1.84a.69.69,0,0,0,.25.31l.66-.91Z"/><path class="cls-7" d="M88,31a15.73,15.73,0,0,0,1.08-3.66.35.35,0,0,0-.14-.37l-3.11,4.31a.73.73,0,0,0,.37.14C86.74,31.51,87.64,31.52,88,31Z"/><path class="cls-8" d="M75.27,33a.38.38,0,0,0-.21-.35l-.66-.3-.63.61Z"/><path class="cls-9" d="M73.77,33l.63-.61c-.37-.17-.78-.35-1.18-.51l-1.13,1.08Z"/><path class="cls-8" d="M72.09,32.93l1.13-1.08-.74-.28-1.4,1.33Z"/><path class="cls-9" d="M72.48,31.57a4,4,0,0,0-1-.26c-.6,0-1.14.71-1.42,1.18a.89.89,0,0,0-.12.38l1.13,0Z"/><path class="cls-10" d="M71.41,34.51A16.55,16.55,0,0,0,75,33.34a.36.36,0,0,0,.23-.33L70,32.87a.76.76,0,0,0,.1.39C70.31,33.74,70.81,34.49,71.41,34.51Z"/><path class="cls-4" d="M99.77,19.43A45.74,45.74,0,0,1,92,30.69C88.84,34,84.94,37,80,37.8a11.11,11.11,0,0,1-7.29-1.43,13.58,13.58,0,0,1-5.1-5.13,8.79,8.79,0,0,1-.66-7.36,11,11,0,0,1,4.67-5.48,8.22,8.22,0,0,1,7.14-.85,9.58,9.58,0,0,1,4.92,5.05c2,4.39.81,9.46-1.77,13.08a14.59,14.59,0,0,1-5,4.46,14,14,0,0,1-6.46,1.59,17.13,17.13,0,0,1-11.9-5A16.89,16.89,0,0,0,70.39,41.2a13.31,13.31,0,0,0,6.09-1.76A13.56,13.56,0,0,0,81,35.08c2.29-3.49,3.12-8.17,1.22-11.78a7.9,7.9,0,0,0-4.14-4,6.23,6.23,0,0,0-5.38.91,8.81,8.81,0,0,0-3.52,4.46,6.19,6.19,0,0,0,.72,5.26,10.83,10.83,0,0,0,4.2,3.88,8,8,0,0,0,5.35.84c3.74-.74,7.14-3.43,9.84-6.49a41.57,41.57,0,0,0,6.63-10.55l0,0a2.13,2.13,0,0,1,3.87,1.77Z"/><path class="cls-8" d="M91.45,7.36a.78.78,0,0,0-.71.49l-.56,1.44,1.37,1.28Z"/><path class="cls-9" d="M91.55,10.57,90.18,9.29c-.32.82-.65,1.72-1,2.6l2.43,2.28Z"/><path class="cls-8" d="M91.66,14.17l-2.43-2.28c-.19.55-.37,1.1-.52,1.6l3,2.83Z"/><path class="cls-9" d="M88.71,13.49a7.88,7.88,0,0,0-.42,2.14c0,1.29,1.65,2.36,2.68,2.91a1.67,1.67,0,0,0,.84.19l-.08-2.41Z"/><path class="cls-10" d="M95.13,15.42c0-1.34-1.87-5.36-2.95-7.62a.78.78,0,0,0-.73-.44l.36,11.37a1.63,1.63,0,0,0,.82-.24C93.62,17.87,95.17,16.7,95.13,15.42Z"/><path class="cls-8" d="M92.49,40a.61.61,0,0,0,.44-.38c.07-.24.14-.51.22-.8L92,38.47Z"/><path class="cls-9" d="M92,38.47l1.12.34c.12-.46.25-1,.35-1.43l-2-.61Z"/><path class="cls-8" d="M91.5,36.77l2,.61c.07-.31.13-.6.17-.87l-2.48-.75Z"/><path class="cls-9" d="M93.67,36.51a3.08,3.08,0,0,0,0-1.11c-.19-.61-1.46-.8-2.25-.86a1.86,1.86,0,0,0-.62.08l.35,1.14Z"/><path class="cls-10" d="M88.91,36.87c.19.63,2,2.19,3,3.05a.62.62,0,0,0,.57.07l-1.65-5.37a1.63,1.63,0,0,0-.54.28C89.67,35.39,88.72,36.26,88.91,36.87Z"/><path class="cls-8" d="M60.77,25.4a.6.6,0,0,0,.13.64l.84.83,1.31-.57Z"/><path class="cls-9" d="M63.05,26.3l-1.31.57c.48.47,1,1,1.53,1.45l2.34-1Z"/><path class="cls-8" d="M65.61,27.31l-2.34,1c.34.31.66.59,1,.85l2.9-1.26Z"/><path class="cls-9" d="M64.24,29.17a6.72,6.72,0,0,0,1.38.95c.91.36,2.15-.45,2.85-1a1.21,1.21,0,0,0,.39-.53l-1.72-.67Z"/><path class="cls-10" d="M67.53,25.25c-.94-.37-4.32-.3-6.23-.23a.58.58,0,0,0-.53.38l8.09,3.18a1.19,1.19,0,0,0,.07-.65C68.8,27.05,68.45,25.61,67.53,25.25Z"/><path class="cls-5" d="M68.74,9.72a.23.23,0,0,0-.14.22c0,.14,0,.3,0,.48l.54.2Z"/><path class="cls-6" d="M69.15,10.62l-.54-.2c0,.27,0,.56,0,.85l1,.36Z"/><path class="cls-5" d="M69.62,11.63l-1-.36c0,.18,0,.35,0,.51l1.19.45Z"/><path class="cls-6" d="M68.7,11.78a2.44,2.44,0,0,0,.13.67c.16.36.75.47,1.11.5a.57.57,0,0,0,.26,0l-.31-.68Z"/><path class="cls-7" d="M70.75,11.57A10.6,10.6,0,0,0,69,9.76a.23.23,0,0,0-.26,0l1.46,3.19a.55.55,0,0,0,.2-.17C70.61,12.45,70.91,11.93,70.75,11.57Z"/><path class="cls-4" d="M70.2,17.23a8.81,8.81,0,0,1,6.72-2.12,7.93,7.93,0,0,1,3.41,1.27,10.27,10.27,0,0,1,1.41,1.13,16.09,16.09,0,0,1,1.12,1.38A16.63,16.63,0,0,0,80,16.94a8.18,8.18,0,0,0-3.18-1,9.18,9.18,0,0,0-3.34.15A15.32,15.32,0,0,0,70.2,17.23Z"/><path class="cls-4" d="M86.65,37a8.81,8.81,0,0,1-6,3.65A7.93,7.93,0,0,1,77,40.18a10.52,10.52,0,0,1-1.63-.76A17.09,17.09,0,0,1,74,38.34a17.29,17.29,0,0,0,3.24,1.22,8.29,8.29,0,0,0,3.32.2,9.48,9.48,0,0,0,3.22-.95A14.78,14.78,0,0,0,86.65,37Z"/><path class="cls-8" d="M82.76,39.52a.29.29,0,0,0,.08-.33l-.21-.57-.75,0Z"/><path class="cls-9" d="M81.88,38.6l.75,0-.41-1-1.32,0Z"/><path class="cls-8" d="M80.9,37.58l1.32,0c-.09-.21-.19-.42-.28-.6l-1.63,0Z"/><path class="cls-9" d="M81.94,37a3.06,3.06,0,0,0-.44-.75c-.35-.36-1.11-.25-1.56-.14a.75.75,0,0,0-.29.16l.66.69Z"/><path class="cls-10" d="M79.55,38.13a13.4,13.4,0,0,0,2.88,1.45.28.28,0,0,0,.33-.06l-3.11-3.25a.59.59,0,0,0-.18.29C79.34,37,79.2,37.76,79.55,38.13Z"/><rect class="cls-4" x="5.86" y="73.8" width="82.23" height="24.11" rx="12.05" ry="12.05"/><circle class="cls-4" cx="30.76" cy="72.28" r="16.56"/><circle class="cls-4" cx="55.9" cy="73.8" r="10.81"/><path class="cls-8" d="M.19,58.14A.77.77,0,0,0,.08,59c.21.41.44.88.69,1.38l1.88-.16Z"/><path class="cls-9" d="M2.65,60.21l-1.88.16c.41.79.85,1.64,1.3,2.44l3.33-.28Z"/><path class="cls-8" d="M5.4,62.53l-3.33.28c.29.52.58,1,.85,1.46L7,63.91Z"/><path class="cls-9" d="M2.92,64.27A8.1,8.1,0,0,0,4.23,66c1,.83,2.86.34,4-.06a1.59,1.59,0,0,0,.7-.49L7,63.91Z"/><path class="cls-10" d="M8.64,60.78c-1-.85-5.23-2.18-7.63-2.89a.75.75,0,0,0-.82.25l8.7,7.33a1.57,1.57,0,0,0,.36-.77C9.46,63.54,9.62,61.61,8.64,60.78Z"/><path class="cls-8" d="M79.79,55.55a.55.55,0,0,0-.6.24l-.67,1,.79,1.18Z"/><path class="cls-9" d="M79.31,57.92l-.79-1.18c-.37.55-.77,1.15-1.14,1.74l1.38,2.1Z"/><path class="cls-8" d="M78.76,60.58l-1.38-2.1c-.24.37-.46.74-.66,1.08l1.72,2.6Z"/><path class="cls-9" d="M76.72,59.56a6.4,6.4,0,0,0-.69,1.5c-.19.95.81,2,1.47,2.6a1.33,1.33,0,0,0,.58.29l.36-1.79Z"/><path class="cls-10" d="M81.09,62.09c.2-1-.45-4.25-.84-6.09a.59.59,0,0,0-.46-.45L78.08,64a1.27,1.27,0,0,0,.64,0C79.56,63.63,80.89,63,81.09,62.09Z"/><path class="cls-8" d="M81.94,94a1,1,0,0,0,0-1.07c-.3-.49-.64-1-1-1.64l-2.31.4Z"/><path class="cls-9" d="M78.65,91.7,81,91.3c-.58-.94-1.23-2-1.88-2.9l-4.1.71Z"/><path class="cls-8" d="M75,89.11l4.1-.71c-.41-.61-.82-1.19-1.21-1.71l-5.08.88Z"/><path class="cls-9" d="M77.87,86.69a10.44,10.44,0,0,0-1.81-2c-1.32-.92-3.59-.11-4.92.51a2.09,2.09,0,0,0-.82.68l2.47,1.73Z"/><path class="cls-10" d="M71.15,91.64c1.35,1,6.73,2.14,9.79,2.76a1,1,0,0,0,1-.39L70.32,85.84a2.08,2.08,0,0,0-.36,1C69.83,88.3,69.83,90.71,71.15,91.64Z"/></svg>