<svg id="Layer_1" data-name="Layer 1" xmlns="http://www.w3.org/2000/svg" viewBox="0 0 100 100"><defs><style>.cls-1{fill:#f05c38;}.cls-2{fill:#d05030;}</style></defs><title>evil</title><path class="cls-1" d="M12.64,5.49a.79.79,0,0,0-1.32-.83c-4.95,5.89-11.53,16.93-7,30.59,6.83,20.62,11.63-14.78,11.63-14.78S8.51,15.25,12.64,5.49Z"/><path class="cls-1" d="M87.36,5.49a.79.79,0,0,1,1.32-.83c4.95,5.89,11.53,16.93,7,30.59C88.86,55.87,84.06,20.47,84.06,20.47S91.49,15.25,87.36,5.49Z"/><path class="cls-2" d="M73.22,18.13C60.4,18.13,50,23.83,50,36.66c0-12.83-10.4-18.53-23.22-18.53A23.22,23.22,0,0,0,3.56,41.36C3.56,70.18,50,100,50,100S96.44,70.18,96.44,41.36A23.22,23.22,0,0,0,73.22,18.13Z"/></svg>