<svg id="Layer_1" data-name="Layer 1" xmlns="http://www.w3.org/2000/svg" viewBox="0 0 100 100"><defs><style>.cls-1{fill:#6ab8d9;}.cls-2{fill:#447d93;}.cls-3{fill:#f37d3b;}.cls-4{fill:#fff;}.cls-5{fill:#171717;}</style></defs><title>faerie</title><path class="cls-1" d="M40.25,82.07c0,6.7-6.3,12.12-14.07,12.12S12.1,88.77,12.1,82.07,36.8,52.61,44.58,52.61,40.25,75.38,40.25,82.07Z"/><path class="cls-1" d="M44.58,52.61c0,9.58-9,17.34-20.14,17.34S4.31,62.19,4.31,52.61s-10.25-46.8.87-46.8S44.58,43,44.58,52.61Z"/><path class="cls-2" d="M17.8,19.26C19.76,22,25.66,35,22.91,37S9.8,29.11,7.84,26.36a6.12,6.12,0,1,1,10-7.1Z"/><path class="cls-2" d="M21.65,81.7c1.89-2.8,12-12.9,14.77-11s-2.72,15-4.61,17.83A6.12,6.12,0,1,1,21.65,81.7Z"/><path class="cls-2" d="M13.06,36.33c2.36.94,11.4,6.76,10.46,9.13S12,45.84,9.64,44.9a4.61,4.61,0,0,1,3.42-8.57Z"/><circle class="cls-2" cx="29.67" cy="42.47" r="4.1"/><circle class="cls-3" cx="15.76" cy="59.61" r="2.92"/><circle class="cls-3" cx="29.67" cy="60.02" r="6.08"/><path class="cls-1" d="M59.75,82.07c0,6.7,6.3,12.12,14.07,12.12S87.9,88.77,87.9,82.07,63.2,52.61,55.42,52.61,59.75,75.38,59.75,82.07Z"/><path class="cls-1" d="M55.42,52.61c0,9.58,9,17.34,20.14,17.34s20.13-7.76,20.13-17.34,10.25-46.8-.87-46.8S55.42,43,55.42,52.61Z"/><path class="cls-2" d="M82.2,19.26C80.24,22,74.34,35,77.09,37S90.2,29.11,92.16,26.36a6.12,6.12,0,1,0-10-7.1Z"/><path class="cls-2" d="M78.35,81.7c-1.89-2.8-12-12.9-14.77-11s2.72,15,4.61,17.83A6.12,6.12,0,0,0,78.35,81.7Z"/><path class="cls-2" d="M86.94,36.33c-2.36.94-11.4,6.76-10.46,9.13s11.51.38,13.88-.56a4.61,4.61,0,0,0-3.42-8.57Z"/><circle class="cls-2" cx="70.33" cy="42.47" r="4.1"/><circle class="cls-3" cx="84.24" cy="59.61" r="2.92"/><circle class="cls-3" cx="70.33" cy="60.02" r="6.08"/><circle class="cls-3" cx="41.62" cy="29.3" r="1.93"/><circle class="cls-3" cx="59.94" cy="31.72" r="1.93"/><circle class="cls-3" cx="59.13" cy="29" r="1.93"/><circle class="cls-3" cx="59.65" cy="35.59" r="1.93"/><circle class="cls-3" cx="40.75" cy="31.23" r="1.93"/><circle class="cls-3" cx="40.75" cy="38.9" r="1.93"/><circle class="cls-3" cx="39.68" cy="40.26" r="1.93"/><circle class="cls-3" cx="41.62" cy="42.2" r="1.93"/><circle class="cls-3" cx="59.13" cy="38.9" r="1.93"/><circle class="cls-3" cx="58.9" cy="40.83" r="1.93"/><circle class="cls-3" cx="58" cy="42.45" r="1.93"/><circle class="cls-3" cx="40.75" cy="33.66" r="1.93"/><path class="cls-4" d="M36.64,33.79a2.14,2.14,0,1,0,4.27,0c0-1.18-4.47-8.28-4.47-8.28S36.64,32.61,36.64,33.79Z"/><circle class="cls-4" cx="40.1" cy="36.47" r="1.86"/><path class="cls-4" d="M63.39,33.79a2.13,2.13,0,1,1-4.26,0c0-1.18,4.47-8.28,4.47-8.28S63.39,32.61,63.39,33.79Z"/><circle class="cls-4" cx="59.94" cy="36.47" r="1.86"/><rect class="cls-3" x="40.75" y="22.85" width="18.45" height="18.45" rx="9.23" ry="9.23"/><rect class="cls-4" x="24.39" y="63.07" width="40.11" height="3.92" rx="1.96" ry="1.96" transform="translate(109.47 20.59) rotate(90)"/><rect class="cls-4" x="34.95" y="63.07" width="40.11" height="3.92" rx="1.96" ry="1.96" transform="translate(120.04 10.02) rotate(90)"/><rect class="cls-4" x="29.94" y="48.91" width="40.11" height="3.92" rx="1.96" ry="1.96"/><rect class="cls-2" x="39.01" y="43.16" width="21.35" height="31.02" rx="10.68" ry="10.68"/><rect class="cls-4" x="41.18" y="24.77" width="17.32" height="23.11" rx="8.66" ry="8.66"/><circle class="cls-5" cx="44.44" cy="33.66" r="0.82"/><circle class="cls-5" cx="55.3" cy="33.66" r="0.82"/><polygon class="cls-3" points="48.04 37.49 51.63 37.49 49.75 31.92 48.04 37.49"/><path class="cls-3" d="M47.11,24.27l-5.36,3.48s3.63,4.09,12.22,3c0,0-5.44-1.09-5.55-3.31,0,0,5.38,3.67,10.48,3.19l-2.79-5.3-4-1.53"/><rect class="cls-3" x="47.31" y="39.98" width="5.56" height="1.08" rx="0.54" ry="0.54"/><rect class="cls-2" x="39.01" y="59.52" width="4.37" height="14.41" rx="2.19" ry="2.19"/><rect class="cls-2" x="55.99" y="59.52" width="4.37" height="14.41" rx="2.19" ry="2.19"/><rect class="cls-2" x="43.03" y="62.33" width="4.37" height="14.41" rx="2.19" ry="2.19"/><rect class="cls-2" x="47.4" y="62.33" width="4.37" height="14.41" rx="2.19" ry="2.19"/><rect class="cls-2" x="51.77" y="62.33" width="4.37" height="14.41" rx="2.19" ry="2.19"/><rect class="cls-3" x="39.01" y="58.66" width="21.35" height="2.36"/><circle class="cls-3" cx="48.32" cy="61.08" r="1.56"/><circle class="cls-3" cx="51.15" cy="61.08" r="1.56"/><path class="cls-3" d="M47.4,61.48s-.44,4.57-2.69,4.87l1.5,1.2s2.45-1.74,3-6.07"/><path class="cls-3" d="M52.05,61.49s.44,4.56,2.69,4.87l-1.51,1.2s-2.44-1.75-3-6.07"/></svg>