<svg id="Layer_1" data-name="Layer 1" xmlns="http://www.w3.org/2000/svg" viewBox="0 0 100 100"><defs><style>.cls-1{fill:#714c48;}.cls-2{fill:#5c3d39;}.cls-3{fill:#fcca98;}.cls-4{fill:#fff;}.cls-5{fill:#895e59;}.cls-6{fill:#3e3e3f;}.cls-7{fill:#171717;}.cls-8{fill:#231f20;}.cls-9{fill:#bcd2de;}.cls-10{fill:#f37d3b;}.cls-11{fill:#7d7d7d;}.cls-12{fill:#9c9c9c;}.cls-13{fill:#885e59;}</style></defs><title>father time</title><path class="cls-1" d="M95.06,89.38,78.05,82a3,3,0,0,0-2.41,0l-17,7.38a3,3,0,0,0,1.21,5.82h34a3,3,0,0,0,1.2-5.82Z"/><path class="cls-2" d="M69.1,93.48H84.6A12.12,12.12,0,0,0,94,88.93L78.05,82a3,3,0,0,0-2.41,0l-16,6.93A12.12,12.12,0,0,0,69.1,93.48Z"/><rect class="cls-1" x="56.96" y="53.84" width="39.78" height="38.32" rx="12.14" ry="12.14"/><path class="cls-2" d="M84.6,53.84H69.1a12.17,12.17,0,0,0-11.42,8.07,3,3,0,0,0,2.15.91h34A3,3,0,0,0,96,61.9,12.19,12.19,0,0,0,84.6,53.84ZM74.46,56.75l2.38-1,2.39,1Z"/><polygon class="cls-1" points="59.83 58.37 93.86 58.37 76.84 50.99 59.83 58.37"/><path class="cls-1" d="M93.86,61.41h-34a3,3,0,0,1-1.21-5.82l17-7.38a3,3,0,0,1,2.41,0l17,7.38a3,3,0,0,1-1.2,5.82Zm-19.4-6.07h4.77l-2.39-1Z"/><circle class="cls-2" cx="76.85" cy="74.31" r="12.61"/><circle class="cls-3" cx="76.85" cy="74.31" r="10.41"/><rect class="cls-2" x="62.84" y="72.34" width="1.4" height="5.06" rx="0.7" ry="0.7"/><path class="cls-4" d="M72.25,70.55a5,5,0,0,1,1.24,3.07,4.27,4.27,0,0,1-4.31-4.32A5.09,5.09,0,0,1,72.25,70.55Z"/><path class="cls-4" d="M74.77,68A5,5,0,0,1,76,71.09,5.05,5.05,0,0,1,73,69.84a5,5,0,0,1-1.25-3.07A5.05,5.05,0,0,1,74.77,68Z"/><polygon class="cls-5" points="65.03 58.56 88.39 58.56 76.78 51.84 65.03 58.56"/><rect class="cls-6" x="84.44" y="73.8" width="2.59" height="1.61" rx="0.81" ry="0.81"/><rect class="cls-6" x="66.95" y="73.8" width="2.59" height="1.61" rx="0.81" ry="0.81"/><rect class="cls-6" x="75.69" y="82.55" width="2.59" height="1.61" rx="0.81" ry="0.81" transform="translate(160.34 6.36) rotate(90)"/><rect class="cls-6" x="75.69" y="65.06" width="2.59" height="1.61" rx="0.81" ry="0.81" transform="translate(142.86 -11.12) rotate(90)"/><path class="cls-6" d="M76.06,75.1l.87-8.44.86,8.44a.87.87,0,0,1-.77,1,.87.87,0,0,1-1-.77A1.08,1.08,0,0,1,76.06,75.1Z"/><path class="cls-6" d="M77.6,75.71,71,81.06l5.35-6.57a.87.87,0,0,1,1.35,1.09A.8.8,0,0,1,77.6,75.71Z"/><rect class="cls-5" x="88.39" y="65.51" width="5.47" height="1.65" rx="0.82" ry="0.82"/><rect class="cls-5" x="80.25" y="87.61" width="5.48" height="1.68" rx="0.84" ry="0.84"/><rect class="cls-5" x="62.38" y="65.87" width="3.46" height="0.8" rx="0.4" ry="0.4"/><rect class="cls-5" x="62.38" y="53.96" width="4.76" height="1.24" rx="0.62" ry="0.62"/><rect class="cls-5" x="59.26" y="93" width="2.78" height="0.47" rx="0.24" ry="0.24"/><rect class="cls-7" x="10.99" y="7.91" width="38.17" height="63.17" rx="19.09" ry="19.09"/><rect class="cls-7" x="8.98" y="24.44" width="47.02" height="15.52" rx="7.76" ry="7.76"/><path class="cls-7" d="M48.78,44.07V39l.22,0a3,3,0,0,1,3,3v7.09A5.47,5.47,0,0,1,48.78,44.07Z"/><path class="cls-7" d="M34.65,96.57h0C23.88,96.57,6,99.89,6,89.12l4.22-45.68A19.63,19.63,0,0,1,29.75,23.87h0A19.63,19.63,0,0,1,49.32,43.44l4.91,42.34C54.23,96.55,45.42,96.57,34.65,96.57Z"/><path class="cls-7" d="M32.49,96.59h0c-6.6,0-17.6,3.24-17.6-7.29L17.48,45c0-10.53,5.4-19.15,12-19.15h0c6.6,0,12,8.62,12,19.15L44.5,86C44.5,96.56,39.1,96.59,32.49,96.59Z"/><path class="cls-7" d="M41.49,45A26,26,0,0,0,38.2,31.87H33.13L29.69,44l.76,3.38L29.69,44l-.78,2.76L29.69,44,27,31.87H20.77A26,26,0,0,0,17.48,45L16.33,64.57h26.6Z"/><polygon class="cls-7" points="16.57 60.4 16.33 64.58 42.93 64.58 42.63 60.4 16.57 60.4"/><rect class="cls-7" x="25.11" y="59.6" width="9.93" height="6" rx="3" ry="3"/><ellipse class="cls-8" cx="30.21" cy="22.58" rx="12.72" ry="9.88"/><ellipse class="cls-9" cx="30.21" cy="10.62" rx="13.65" ry="7.68"/><path class="cls-9" d="M17.18,11.65v11.4a12.93,12.93,0,0,0,25.85,0V11.65Z"/><circle class="cls-6" cx="20.68" cy="18.27" r="1.04"/><circle class="cls-6" cx="40.06" cy="18.3" r="1.04"/><polygon class="cls-10" points="27.55 24.44 32.66 24.44 30.1 15.12 27.55 24.44"/><ellipse class="cls-9" cx="37.84" cy="63.03" rx="2.8" ry="3.87"/><rect class="cls-4" x="16.74" y="24.44" width="27.12" height="12.05" rx="6.03" ry="6.03"/><polyline class="cls-4" points="17.48 32.2 21.25 52.85 24.41 45.77 28.71 67.93 31.96 52.27 34.35 61.93 38.75 47.78 40.06 56.58 43.03 31.87"/><rect class="cls-9" x="22.96" y="26.43" width="14.68" height="4.65" rx="2.32" ry="2.32"/><path class="cls-7" d="M59.07,55c-3.28,0-5.24-3.64-8.86-13.27-2.07-5.5-3.84-11-3.92-11.18a3.91,3.91,0,0,1,7.44-2.41c1.76,5.41,4,11.54,5.68,15.6l.29,0a3.9,3.9,0,0,1,4.07,3.74c.08,2,.28,6.73-3.77,7.46A5,5,0,0,1,59.07,55Z"/><path class="cls-11" d="M74.05,20.16l-2.56,5.18s-2.38,2.85.75,7.11H87.18C80.34,23.63,74.05,20.16,74.05,20.16Z"/><path class="cls-11" d="M90.55,37.22c-.8-1.23-1.6-2.41-2.4-3.49H73.32a23.81,23.81,0,0,0,4.34,3.49Z"/><path class="cls-12" d="M90.55,37.22H77.66a43.53,43.53,0,0,0,4.63,2.61,30.75,30.75,0,0,1,4.43,2.72h7Q92.14,39.69,90.55,37.22Z"/><path class="cls-11" d="M100,58a82.85,82.85,0,0,0-6.32-15.45h-7C95,48.63,100,58,100,58Z"/><path class="cls-12" d="M87.18,32.45H72.24a14.43,14.43,0,0,0,1.08,1.28H88.15C87.83,33.29,87.5,32.86,87.18,32.45Z"/><rect class="cls-13" x="35.03" y="3.27" width="6.39" height="105.47" rx="3.19" ry="3.19" transform="translate(50.8 -10.62) rotate(45)"/><rect class="cls-13" x="43.96" y="48.78" width="16.38" height="5.25" rx="2.62" ry="2.62" transform="translate(51.62 -21.82) rotate(45)"/><path class="cls-7" d="M34.85,66.17a3,3,0,0,1-.52,0C13.36,63.34,8.72,42.26,9.19,31.5a3.94,3.94,0,0,1,4.08-3.73A3.9,3.9,0,0,1,17,31.85c0,1-.7,24,18.36,26.53a3.91,3.91,0,0,1-.51,7.79Z"/><ellipse class="cls-9" cx="55.59" cy="31.87" rx="4.05" ry="3.12"/><path class="cls-7" d="M59.89,50.85A3.91,3.91,0,0,1,56,47c0-4.36-.82-9.28-1.61-10.48a3.91,3.91,0,0,1,4.84-6.13C63.08,33.25,63.74,42,63.79,46.9a3.91,3.91,0,0,1-3.86,4ZM54.53,36.63h0Z"/><circle class="cls-9" cx="44.41" cy="15.04" r="2.23"/><circle class="cls-9" cx="43.03" cy="17.83" r="1.94"/><circle class="cls-9" cx="15.66" cy="15.04" r="2.23"/><circle class="cls-9" cx="17.04" cy="17.83" r="1.94"/></svg>