<svg id="Layer_1" data-name="Layer 1" xmlns="http://www.w3.org/2000/svg" viewBox="0 0 100 100"><defs><style>.cls-1{fill:#ffc640;}.cls-2{fill:#3e3e3f;}.cls-3{fill:#f37d3b;}</style></defs><title>fenrir</title><polygon class="cls-1" points="83.75 56.83 81.11 56.83 82.43 53.48 83.75 56.83"/><rect class="cls-2" x="29.85" y="32.06" width="36.71" height="26.72" rx="13.36" ry="13.36"/><rect class="cls-2" x="20.63" y="39.99" width="29.3" height="21.33" rx="10.66" ry="10.66"/><path class="cls-2" d="M72.58,37.14a3.81,3.81,0,1,1-6.67,3.67c-1-1.84-.65-9.06-.65-9.06S71.56,35.3,72.58,37.14Z"/><path class="cls-2" d="M83.18,54.09a2.56,2.56,0,0,1,2.56-2.56H99.85a5.49,5.49,0,0,0-4.93-3.14H89.73a10.66,10.66,0,0,0-10.46-8.83h-8a10.64,10.64,0,1,0,0,21.27h8a10.46,10.46,0,0,0,5.31-1.48h6.94a5.48,5.48,0,0,0,4.7-2.71H85.74A2.56,2.56,0,0,1,83.18,54.09Z"/><path class="cls-2" d="M95.07,48.56s3.78-2.63,3.61,1.74"/><circle class="cls-3" cx="80.72" cy="45.42" r="1.68"/><rect class="cls-2" x="76.07" y="42.39" width="8.38" height="3.03"/><rect class="cls-2" x="90.23" y="58.23" width="2.49" height="4.17" rx="1.25" ry="1.25"/><rect class="cls-2" x="88.21" y="58.49" width="2.49" height="4.17" rx="1.25" ry="1.25"/><rect class="cls-2" x="84.89" y="58.75" width="2.49" height="4.17" rx="1.25" ry="1.25"/><rect class="cls-2" x="75.21" y="59.23" width="2.49" height="4.17" rx="1.25" ry="1.25"/><rect class="cls-2" x="71.66" y="58.75" width="2.49" height="4.17" rx="1.25" ry="1.25"/><rect class="cls-2" x="71.66" y="60.83" width="2.49" height="4.17" rx="1.25" ry="1.25"/><rect class="cls-2" x="68.31" y="59.28" width="2.49" height="4.17" rx="1.25" ry="1.25"/><rect class="cls-2" x="68.31" y="61.36" width="2.49" height="4.17" rx="1.25" ry="1.25"/><rect class="cls-2" x="69.55" y="59.28" width="2.49" height="4.17" rx="1.25" ry="1.25"/><rect class="cls-2" x="69.55" y="61.36" width="2.49" height="4.17" rx="1.25" ry="1.25"/><rect class="cls-2" x="73.71" y="60.27" width="2.49" height="4.17" rx="1.25" ry="1.25"/><rect class="cls-2" x="73.71" y="62.36" width="2.49" height="4.17" rx="1.25" ry="1.25"/><path class="cls-3" d="M95.94,57.59H85.7a3.5,3.5,0,0,1,0-7H99.48a.52.52,0,1,1,0,1H85.7a2.47,2.47,0,0,0,0,4.94H95.94a.52.52,0,1,1,0,1Z"/><polygon class="cls-1" points="84.69 51.1 87.33 51.1 86.01 54.46 84.69 51.1"/><polygon class="cls-1" points="87.07 51.1 89.72 51.1 88.39 54.46 87.07 51.1"/><polygon class="cls-1" points="89.46 51.1 92.1 51.1 90.78 54.46 89.46 51.1"/><polygon class="cls-1" points="91.84 51.1 94.49 51.1 93.17 54.46 91.84 51.1"/><polygon class="cls-1" points="94.23 51.1 96.88 51.1 95.55 54.46 94.23 51.1"/><polygon class="cls-1" points="96.61 51.1 99.26 51.1 97.94 54.46 96.61 51.1"/><polygon class="cls-1" points="95.68 56.83 93.04 56.83 94.36 53.48 95.68 56.83"/><polygon class="cls-1" points="93.3 56.83 90.65 56.83 91.97 53.48 93.3 56.83"/><polygon class="cls-1" points="90.91 56.83 88.27 56.83 89.59 53.48 90.91 56.83"/><polygon class="cls-1" points="88.52 56.83 85.88 56.83 87.2 53.48 88.52 56.83"/><polygon class="cls-1" points="86.14 56.83 83.49 56.83 84.82 53.48 86.14 56.83"/><rect class="cls-2" x="56.57" y="37.81" width="11.25" height="25.11" rx="5.63" ry="5.63"/><path class="cls-2" d="M25.52,45.45A21.44,21.44,0,0,1,24,54.92a17.74,17.74,0,0,1-1.05,2.25,18,18,0,0,1-1.26,2.17,32.84,32.84,0,0,1-3.17,3.93c-2.34,2.36-4.8,5.11-8.15,5.91a18.37,18.37,0,0,1-5,.59A15.34,15.34,0,0,1,.17,68.52L0,67.71A19.91,19.91,0,0,1,3.59,64.2,30.28,30.28,0,0,1,7,61.61a16.58,16.58,0,0,1,3.54-1.79,18.38,18.38,0,0,0,3.69-1.62,28.18,28.18,0,0,0,6.14-5.35,22.41,22.41,0,0,0,4.3-7.45Z"/><rect class="cls-2" x="33.05" y="50.26" width="3.64" height="22.91" rx="1.62" ry="1.62" transform="translate(-33.42 42.73) rotate(-45)"/><circle class="cls-2" cx="41.38" cy="70.31" r="0.79"/><circle class="cls-2" cx="42.76" cy="69.76" r="0.79"/><circle class="cls-2" cx="43.62" cy="68.37" r="0.79"/><rect class="cls-2" x="60.69" y="50.26" width="3.64" height="22.91" rx="1.62" ry="1.62" transform="translate(-25.33 62.27) rotate(-45)"/><circle class="cls-2" cx="69.02" cy="70.31" r="0.79"/><circle class="cls-2" cx="70.4" cy="69.76" r="0.79"/><circle class="cls-2" cx="71.25" cy="68.37" r="0.79"/><polyline class="cls-2" points="56.21 33.52 43.54 28.89 47.72 32.69 36.85 29.79 42.19 34.1 31.32 33.46 39.3 37.27 25.79 36.67 37.24 41.75"/></svg>