<svg id="Layer_1" data-name="Layer 1" xmlns="http://www.w3.org/2000/svg" viewBox="0 0 100 100"><defs><style>.cls-1{fill:#6ab8d9;}.cls-2{fill:#fff;}.cls-3{fill:#69b7d9;}.cls-4{fill:#ffc63f;}.cls-5{fill:#faaf40;}</style></defs><title>fountain of youth</title><path class="cls-1" d="M49.46,61.89A6.43,6.43,0,0,1,43,55.46V23.23a2.88,2.88,0,1,0-5.75,0,6.44,6.44,0,0,1-12.87,0,15.75,15.75,0,0,1,31.5,0V55.46A6.44,6.44,0,0,1,49.46,61.89Z"/><path class="cls-1" d="M49.46,61.89A6.43,6.43,0,0,1,43,55.46V23.23a15.75,15.75,0,1,1,31.5,0,6.44,6.44,0,0,1-12.87,0,2.88,2.88,0,1,0-5.75,0V55.46A6.44,6.44,0,0,1,49.46,61.89Z"/><rect class="cls-2" x="47.68" y="20.38" width="4.2" height="32.98" rx="0.93" ry="0.93"/><path class="cls-3" d="M77,32.31a1.41,1.41,0,0,1-2.82,0c0-.78,1.41-2.85,1.41-2.85S77,31.53,77,32.31Z"/><path class="cls-3" d="M73.59,38.93a3.09,3.09,0,1,1-6.17,0c0-1.7,3.08-6.23,3.08-6.23S73.59,37.23,73.59,38.93Z"/><path class="cls-3" d="M27.07,34.35a1.82,1.82,0,0,1-3.63,0c0-1,1.82-3.67,1.82-3.67S27.07,33.35,27.07,34.35Z"/><rect class="cls-4" x="22.56" y="54.94" width="54.44" height="15.41" rx="3.42" ry="3.42"/><rect class="cls-3" x="58.77" y="54.94" width="6.31" height="14.09"/><rect class="cls-3" x="34.91" y="54.85" width="6.31" height="14.09"/><rect class="cls-3" x="48.72" y="54.94" width="3.16" height="14.09"/><rect class="cls-4" y="69.03" width="100" height="23.5" rx="5.21" ry="5.21"/><circle class="cls-5" cx="21.57" cy="76.5" r="1.45"/><circle class="cls-5" cx="26.75" cy="85.05" r="1.45"/><circle class="cls-5" cx="50.07" cy="85.05" r="1.45"/><circle class="cls-5" cx="73.39" cy="85.05" r="1.45"/><circle class="cls-5" cx="32.94" cy="76.5" r="1.45"/><circle class="cls-5" cx="44.31" cy="76.5" r="1.45"/><circle class="cls-5" cx="55.69" cy="76.5" r="1.45"/><circle class="cls-5" cx="67.06" cy="76.5" r="1.45"/><circle class="cls-5" cx="78.43" cy="76.5" r="1.45"/><rect class="cls-3" x="10.88" y="67.6" width="79.17" height="1.42"/><path class="cls-3" d="M28.86,67.73h3.42a0,0,0,0,1,0,0V81.89a1.71,1.71,0,0,1-1.71,1.71h0a1.71,1.71,0,0,1-1.71-1.71V67.73A0,0,0,0,1,28.86,67.73Z"/><path class="cls-3" d="M32.28,68.38H35.7a0,0,0,0,1,0,0v6.16A1.71,1.71,0,0,1,34,76.25h0a1.71,1.71,0,0,1-1.71-1.71V68.38A0,0,0,0,1,32.28,68.38Z"/><path class="cls-3" d="M86.49,68.57h0a1.71,1.71,0,0,1,1.71,1.71V84.44a0,0,0,0,1,0,0H84.78a0,0,0,0,1,0,0V70.27A1.71,1.71,0,0,1,86.49,68.57Z" transform="translate(172.98 153) rotate(180)"/><path class="cls-3" d="M83.3,68.6h0A1.71,1.71,0,0,1,85,70.31v6.16a0,0,0,0,1,0,0H81.59a0,0,0,0,1,0,0V70.31A1.71,1.71,0,0,1,83.3,68.6Z" transform="translate(166.6 145.08) rotate(180)"/><path class="cls-3" d="M60.22,68.38h0a1.71,1.71,0,0,1,1.71,1.71v6.16a0,0,0,0,1,0,0H58.51a0,0,0,0,1,0,0V70.09a1.71,1.71,0,0,1,1.71-1.71Z" transform="translate(120.44 144.63) rotate(180)"/><path class="cls-3" d="M15.51,68.38h0a1.71,1.71,0,0,1,1.71,1.71v6.16a0,0,0,0,1,0,0H13.8a0,0,0,0,1,0,0V70.09A1.71,1.71,0,0,1,15.51,68.38Z" transform="translate(31.02 144.63) rotate(180)"/></svg>