<svg id="Layer_1" data-name="Layer 1" xmlns="http://www.w3.org/2000/svg" viewBox="0 0 100 100"><defs><style>.cls-1{fill:#4a4a4c;}.cls-2{fill:#3e3e3f;}.cls-3{fill:#58595b;}.cls-4{fill:#231f20;}.cls-5{fill:#454547;}.cls-6{fill:#ffc540;}</style></defs><title>gargoyle</title><rect class="cls-1" x="39.15" y="78.27" width="21.18" height="8.44" rx="4.22" ry="4.22"/><rect class="cls-1" x="39.15" y="73.66" width="21.17" height="9.08"/><rect class="cls-2" x="39.15" y="69.61" width="21.18" height="8.44" rx="4.22" ry="4.22"/><path class="cls-1" d="M62.85,49.84S73.77,53.65,72,59c0,0,22.28-3.47,28-11.77,0,0-5-.64-4.38-4,0,0-5.32.85-5-1.8,0,0-8,.24-6.91-2.05C83.73,39.41,84.94,45.35,62.85,49.84Z"/><path class="cls-1" d="M37.15,49.84S26.23,53.65,28,59c0,0-22.28-3.47-28-11.77,0,0,5-.64,4.38-4,0,0,5.32.85,5-1.8,0,0,8,.24,6.91-2.05C16.27,39.41,15.06,45.35,37.15,49.84Z"/><rect class="cls-3" x="35.43" y="43.41" width="29.21" height="22.65" rx="11.2" ry="11.2"/><rect class="cls-3" x="35.43" y="46.16" width="29.21" height="10.59" rx="5.3" ry="5.3"/><rect class="cls-3" x="61.97" y="47.38" width="6.25" height="17.34" rx="3.12" ry="3.12"/><rect class="cls-3" x="61.97" y="56.67" width="6.25" height="17.34" rx="3.12" ry="3.12"/><rect class="cls-3" x="32.3" y="47.38" width="6.25" height="24" rx="3.12" ry="3.12"/><path class="cls-3" d="M34.53,19.91V33.2a15.07,15.07,0,0,0,30.13,0V19.91Z"/><circle class="cls-4" cx="36.9" cy="34.09" r="1.21"/><circle class="cls-4" cx="61.2" cy="34.13" r="1.21"/><ellipse class="cls-3" cx="49.6" cy="19.51" rx="15.07" ry="4.25"/><rect class="cls-2" x="38.72" y="35.34" width="21.61" height="6.19" rx="3.09" ry="3.09"/><path class="cls-2" d="M35.46,27.22a3,3,0,0,0-.93,0,10.94,10.94,0,0,0-1.22.24,15.42,15.42,0,0,0-2.51.84A22,22,0,0,0,26,31.19a30.24,30.24,0,0,0-4.25,4.08c-.67.75-1.25,1.57-1.88,2.36l-1.72,2.54.94-2.94c.4-1,.74-1.95,1.19-2.9a32.18,32.18,0,0,1,3.2-5.54A26.51,26.51,0,0,1,28,23.9a21.29,21.29,0,0,1,2.87-2A17.68,17.68,0,0,1,32.51,21a10.8,10.8,0,0,1,2-.72Z"/><path class="cls-5" d="M35.46,27.22a4.92,4.92,0,0,1-.66,0l-1.89-6.36c.53-.19,1.06-.37,1.61-.54Z"/><polygon class="cls-5" points="32.84 27.6 30.83 28.3 28.05 23.87 30.32 22.23 32.84 27.6"/><polygon class="cls-5" points="28.85 29.28 26.93 30.48 24.27 27.71 26.04 25.71 28.85 29.28"/><polygon class="cls-5" points="25.1 31.89 23.37 33.49 21.41 32.03 22.74 29.83 25.1 31.89"/><polygon class="cls-5" points="21.74 35.24 20.22 37.13 19.31 36.63 20.27 34.31 21.74 35.24"/><polygon class="cls-5" points="18.78 39.18 18.14 40.17 18.48 39.03 18.78 39.18"/><path class="cls-2" d="M68.26,20.31a10.8,10.8,0,0,1,2,.72,17.68,17.68,0,0,1,1.62.86,21.29,21.29,0,0,1,2.87,2,26.86,26.86,0,0,1,4.55,4.89,32.84,32.84,0,0,1,3.2,5.54c.45,1,.79,1.94,1.18,2.9l.94,2.94-1.71-2.54C82.29,36.84,81.7,36,81,35.27a30.24,30.24,0,0,0-4.25-4.08A22.27,22.27,0,0,0,72,28.33a15.74,15.74,0,0,0-2.51-.84,11.41,11.41,0,0,0-1.22-.24,3.09,3.09,0,0,0-.94,0Z"/><path class="cls-5" d="M68.26,20.31c.54.17,1.08.35,1.61.54L68,27.21a4.89,4.89,0,0,1-.66,0Z"/><polygon class="cls-5" points="72.46 22.23 74.73 23.87 71.95 28.3 69.93 27.6 72.46 22.23"/><polygon class="cls-5" points="76.74 25.71 78.5 27.71 75.85 30.48 73.93 29.28 76.74 25.71"/><polygon class="cls-5" points="80.04 29.83 81.37 32.03 79.41 33.49 77.68 31.89 80.04 29.83"/><polygon class="cls-5" points="82.51 34.31 83.47 36.63 82.56 37.13 81.04 35.24 82.51 34.31"/><polygon class="cls-5" points="84.3 39.03 84.63 40.17 84 39.18 84.3 39.03"/><rect class="cls-3" x="31.26" y="13.29" width="37.52" height="19.58" rx="9.79" ry="9.79"/><polygon class="cls-1" points="41.81 35.34 45.57 35.34 43.69 38.13 41.81 35.34"/><polygon class="cls-6" points="45.5 35.34 49.26 35.34 47.38 38.13 45.5 35.34"/><polygon class="cls-6" points="49.19 35.34 52.95 35.34 51.07 38.13 49.19 35.34"/><polygon class="cls-1" points="52.87 35.34 56.63 35.34 54.75 38.13 52.87 35.34"/><polygon class="cls-1" points="56.63 41.57 52.87 41.57 54.75 38.78 56.63 41.57"/><polygon class="cls-1" points="52.95 41.57 49.19 41.57 51.07 38.78 52.95 41.57"/><polygon class="cls-1" points="49.26 41.57 45.5 41.57 47.38 38.78 49.26 41.57"/><polygon class="cls-1" points="45.57 41.57 41.81 41.57 43.69 38.78 45.57 41.57"/><rect class="cls-3" x="40.29" y="54.46" width="7.84" height="21.76" rx="3.92" ry="3.92"/><rect class="cls-3" x="51.39" y="54.46" width="7.84" height="21.76" rx="3.92" ry="3.92"/><polygon class="cls-3" points="40.67 31.28 49.19 40.74 57.89 31.28 40.67 31.28"/><ellipse class="cls-1" cx="44.42" cy="58.26" rx="2.96" ry="1.07"/><ellipse class="cls-1" cx="54.75" cy="58.26" rx="2.96" ry="1.07"/><rect class="cls-3" x="31.25" y="67.37" width="2.41" height="8.85" rx="1.2" ry="1.2"/><rect class="cls-3" x="33.66" y="67.37" width="2.41" height="8.85" rx="1.2" ry="1.2"/><rect class="cls-3" x="36.06" y="67.37" width="2.41" height="8.85" rx="1.2" ry="1.2"/><rect class="cls-3" x="61.97" y="67.37" width="2.41" height="8.85" rx="1.2" ry="1.2"/><rect class="cls-3" x="64.38" y="67.37" width="2.41" height="8.85" rx="1.2" ry="1.2"/><rect class="cls-3" x="66.79" y="67.37" width="2.41" height="8.85" rx="1.2" ry="1.2"/></svg>