<svg id="Layer_1" data-name="Layer 1" xmlns="http://www.w3.org/2000/svg" viewBox="0 0 100 100"><defs><style>.cls-1{fill:#6ab8d9;}.cls-2{fill:#f37d3b;}.cls-3{fill:#ffc640;}.cls-4{fill:#09a582;}.cls-5{fill:#3e3e3f;}.cls-6{fill:#fcca98;}</style></defs><title>garuda</title><path class="cls-1" d="M31.5,65.24C15.59,77.93,0,59.61,0,59.61S11.55,55.4,18.94,49.5s16.19-7.15,19.66-2.81S38.88,59.34,31.5,65.24Z"/><path class="cls-2" d="M23.91,66.39C7.87,72.29.29,53.56.29,53.56s10.33-.3,17.78-3,14.8-1.41,16.41,3S31.36,63.64,23.91,66.39Z"/><path class="cls-1" d="M28.16,63c-16,5.9-23.62-12.83-23.62-12.83s10.33-.3,17.78-3,14.8-1.42,16.41,3S35.61,60.25,28.16,63Z"/><path class="cls-1" d="M68.5,65.24C84.41,77.93,100,59.61,100,59.61S88.45,55.4,81.06,49.5,64.87,42.35,61.4,46.69,61.12,59.34,68.5,65.24Z"/><path class="cls-2" d="M76.09,66.39c16,5.9,23.62-12.83,23.62-12.83s-10.33-.3-17.78-3-14.8-1.41-16.41,3S68.64,63.64,76.09,66.39Z"/><path class="cls-1" d="M71.84,63c16,5.9,23.62-12.83,23.62-12.83s-10.33-.3-17.78-3-14.8-1.42-16.41,3S64.39,60.25,71.84,63Z"/><path class="cls-2" d="M34,56.91s-15.24,10.2,1.48,23.85H50.78V55.55"/><path class="cls-2" d="M66.35,56.91s15.24,10.2-1.48,23.85H49.54V55.55"/><rect class="cls-3" x="36.12" y="49.24" width="27.86" height="36.72" rx="13.93" ry="13.93"/><rect class="cls-4" x="27.05" y="76.86" width="24.11" height="10.57" rx="4.55" ry="4.55" transform="translate(30.54 -8.43) rotate(20.05)"/><rect class="cls-4" x="47.69" y="76.86" width="24.11" height="10.57" rx="4.55" ry="4.55" transform="translate(144.03 138.82) rotate(159.95)"/><rect class="cls-5" x="30.93" y="44.41" width="9.36" height="7.04" rx="3.52" ry="3.52"/><rect class="cls-5" x="59.74" y="44.41" width="9.36" height="7.04" rx="3.52" ry="3.52"/><rect class="cls-5" x="33.97" y="26.81" width="6.76" height="24.64" rx="3.38" ry="3.38"/><rect class="cls-5" x="59.25" y="26.81" width="6.76" height="24.64" rx="3.38" ry="3.38"/><path class="cls-5" d="M62.18,24.12c0,3.18-5.5,5.75-12.29,5.75S37.6,27.3,37.6,24.12s5.5-8.8,12.29-8.8S62.18,21,62.18,24.12Z"/><ellipse class="cls-5" cx="42.54" cy="26.1" rx="8.99" ry="4.25" transform="translate(-5.08 11.16) rotate(-14.11)"/><ellipse class="cls-5" cx="57.16" cy="26.1" rx="4.25" ry="8.99" transform="translate(17.91 75.18) rotate(-75.89)"/><path class="cls-3" d="M35.68,26.82V39.5a14.37,14.37,0,0,0,28.74,0V26.82Z"/><circle class="cls-5" cx="39.57" cy="34.18" r="1.16"/><circle class="cls-5" cx="61.12" cy="34.21" r="1.16"/><circle class="cls-3" cx="66.27" cy="32.16" r="2.77"/><circle class="cls-3" cx="64.56" cy="35.63" r="2.42"/><circle class="cls-3" cx="33.97" cy="32.16" r="2.77"/><circle class="cls-3" cx="35.68" cy="35.63" r="2.42"/><rect class="cls-3" x="36.12" y="51.86" width="27.86" height="10.1" rx="5.05" ry="5.05"/><rect class="cls-3" x="61.45" y="53.03" width="5.96" height="16.54" rx="2.98" ry="2.98"/><rect class="cls-3" x="65.64" y="63.89" width="5.96" height="16.54" rx="2.98" ry="2.98" transform="translate(-30.59 63.58) rotate(-41.5)"/><rect class="cls-3" x="33.15" y="53.03" width="5.96" height="16.54" rx="2.98" ry="2.98"/><rect class="cls-3" x="29.44" y="63.89" width="5.96" height="16.54" rx="2.98" ry="2.98" transform="translate(60.52 -1.78) rotate(45)"/><polygon class="cls-2" points="52.89 35.16 47.22 35.16 50.05 45.53 52.89 35.16"/><rect class="cls-2" x="48.91" y="44.42" width="2.67" height="4.99" rx="1.33" ry="1.33" transform="translate(97.16 -3.32) rotate(90)"/><rect class="cls-6" x="35.68" y="21.63" width="28.88" height="4.01" rx="2.01" ry="2.01"/><path class="cls-6" d="M64,11.3c-1.21-3.46-13.93-5-14.15-5h0c-.22,0-12.94,1.57-14.15,5s2.74,12.33,2.74,12.33H61.26S65.21,14.8,64,11.3ZM40,18.36s-1.37-3.64-1.24-5.24,2.48-1.47,2.48-1.47C39.53,13.44,40,18.36,40,18.36Zm18.92,0s.43-4.92-1.25-6.71c0,0,2.36-.13,2.49,1.47S58.89,18.36,58.89,18.36Z"/><path class="cls-2" d="M44.45,15.44a7.56,7.56,0,0,1-.76,3.2,7.48,7.48,0,0,1-.77-3.2,7.48,7.48,0,0,1,.77-3.2A7.56,7.56,0,0,1,44.45,15.44Z"/><path class="cls-2" d="M56.36,15.44a7.48,7.48,0,0,1-.77,3.2,7.48,7.48,0,0,1-.77-3.2,7.48,7.48,0,0,1,.77-3.2A7.48,7.48,0,0,1,56.36,15.44Z"/><path class="cls-2" d="M50.78,15.85a11.17,11.17,0,0,1-1.14,4.75,11.17,11.17,0,0,1-1.14-4.75,11.19,11.19,0,0,1,1.14-4.76A11.19,11.19,0,0,1,50.78,15.85Z"/><path class="cls-6" d="M61.45,58.61a2,2,0,0,1-.29,1.92A7.44,7.44,0,0,1,59.88,62a11.8,11.8,0,0,1-3.05,1.81A17.66,17.66,0,0,1,50.27,65a17.44,17.44,0,0,1-6.55-1.25,11.57,11.57,0,0,1-3-1.82,6.6,6.6,0,0,1-1.28-1.44,1.93,1.93,0,0,1-.29-1.92,1.65,1.65,0,0,0,1.32.56,9.31,9.31,0,0,0,1.4,0l2.83-.14c1.88-.09,3.75-.17,5.62-.16s3.75.07,5.63.17l2.83.13a9.33,9.33,0,0,0,1.4,0A1.69,1.69,0,0,0,61.45,58.61Z"/><circle class="cls-2" cx="42.79" cy="61.25" r="0.96"/><circle class="cls-2" cx="57.37" cy="61.25" r="0.96"/><circle class="cls-2" cx="47.74" cy="62.2" r="0.96"/><circle class="cls-2" cx="52.89" cy="62.2" r="0.96"/><rect class="cls-6" x="43.87" y="62.1" width="2.84" height="4.95" rx="1.42" ry="1.42"/><rect class="cls-6" x="48.77" y="63.64" width="2.84" height="4.95" rx="1.42" ry="1.42"/><rect class="cls-6" x="53.85" y="61.96" width="2.84" height="4.95" rx="1.42" ry="1.42"/><rect class="cls-2" x="37.35" y="51.07" width="5.19" height="8.38" rx="2.59" ry="2.59"/><rect class="cls-2" x="57.37" y="51.07" width="5.19" height="8.38" rx="2.59" ry="2.59"/><rect class="cls-3" x="46.29" y="80.76" width="3.16" height="12.97" rx="1.58" ry="1.58"/><rect class="cls-3" x="49.45" y="80.76" width="3.16" height="12.97" rx="1.58" ry="1.58"/></svg>