<svg id="Layer_1" data-name="Layer 1" xmlns="http://www.w3.org/2000/svg" viewBox="0 0 100 100"><defs><style>.cls-1{fill:#171717;}.cls-2{fill:#6ab8d9;}.cls-3{fill:#5ca1be;}.cls-4{fill:#7d7d7d;}.cls-5{fill:#fff;}.cls-6{fill:#211e1f;}.cls-7{fill:#f37d3b;}.cls-8{fill:#cb6930;}.cls-9{fill:#fcca98;}.cls-10{fill:#3e3e3f;}</style></defs><title>gashadokuro</title><path class="cls-1" d="M42.26,75.88s-3.58,8.53-9.87,6.54c0,0,.74,2.16,4.93,1.87s4.94,0,4.94,0,.74-.3,4.94,0-.83,2-.83,2C40.85,90.44,42.26,75.88,42.26,75.88Z"/><path class="cls-1" d="M42.26,75.88s3.58,8.53,9.87,6.54c0,0-.74,2.16-4.93,1.87s-4.94,0-4.94,0-.74-.3-4.93,0,.82,2,.82,2C43.68,90.44,42.26,75.88,42.26,75.88Z"/><rect class="cls-2" x="36.69" y="84.19" width="10.99" height="7.16"/><rect class="cls-2" x="35.49" y="91.56" width="13.69" height="7.16"/><rect class="cls-3" x="37.85" y="84.8" width="1.44" height="5.25"/><rect class="cls-3" x="40.26" y="84.8" width="1.44" height="5.25"/><rect class="cls-3" x="42.67" y="84.8" width="1.44" height="5.25"/><rect class="cls-3" x="45.08" y="84.8" width="1.44" height="5.25"/><rect class="cls-3" x="37.18" y="92.52" width="1.71" height="5.25"/><rect class="cls-3" x="40.04" y="92.52" width="1.71" height="5.25"/><rect class="cls-3" x="42.91" y="92.52" width="1.71" height="5.25"/><rect class="cls-3" x="45.77" y="92.52" width="1.71" height="5.25"/><rect class="cls-4" x="31.96" y="81.11" width="0.98" height="2.16" rx="0.49" ry="0.49" transform="translate(-48.61 47.02) rotate(-45)"/><rect class="cls-4" x="51.55" y="81.11" width="0.98" height="2.16" rx="0.49" ry="0.49" transform="translate(30.73 177.11) rotate(-135)"/><polyline class="cls-1" points="41.12 83.16 43.65 83.16 42.26 75.88 40.65 83.16"/><rect class="cls-1" x="41.07" y="76.61" width="1" height="1.63" rx="0.5" ry="0.5" transform="translate(44.28 -10.41) rotate(30)"/><rect class="cls-1" x="40.22" y="78.08" width="1" height="1.63" rx="0.5" ry="0.5" transform="matrix(0.82, 0.57, -0.57, 0.82, 52.38, -9.12)"/><rect class="cls-1" x="38.97" y="79.34" width="1" height="1.63" rx="0.5" ry="0.5" transform="translate(77.09 -0.88) rotate(51.12)"/><rect class="cls-1" x="37.61" y="80.65" width="1" height="1.63" rx="0.5" ry="0.5" transform="translate(89.6 7.73) rotate(60)"/><rect class="cls-1" x="36.02" y="81.57" width="1" height="1.63" rx="0.5" ry="0.5" transform="translate(93.7 12.74) rotate(63.29)"/><rect class="cls-1" x="34.19" y="81.92" width="1" height="1.63" rx="0.5" ry="0.5" transform="translate(113.62 40.1) rotate(84.36)"/><rect class="cls-1" x="42.61" y="76.61" width="1" height="1.63" rx="0.5" ry="0.5" transform="translate(119.15 122.92) rotate(150)"/><rect class="cls-1" x="43.46" y="78.08" width="1" height="1.63" rx="0.5" ry="0.5" transform="translate(125.12 118.53) rotate(145.15)"/><rect class="cls-1" x="44.72" y="79.34" width="1" height="1.63" rx="0.5" ry="0.5" transform="translate(135.99 95.27) rotate(128.88)"/><rect class="cls-1" x="46.07" y="80.65" width="1" height="1.63" rx="0.5" ry="0.5" transform="translate(140.4 81.87) rotate(120)"/><rect class="cls-1" x="47.66" y="81.57" width="1" height="1.63" rx="0.5" ry="0.5" transform="translate(143.4 76.39) rotate(116.71)"/><rect class="cls-1" x="49.49" y="81.92" width="1" height="1.63" rx="0.5" ry="0.5" transform="translate(137.24 41.12) rotate(95.64)"/><polyline class="cls-1" points="35.2 84.19 42.15 84.8 49.17 84.19 42.15 81.46"/><rect class="cls-4" x="41.66" y="81.3" width="0.98" height="2.16" rx="0.49" ry="0.49"/><path class="cls-1" d="M33.23,89.79a4.53,4.53,0,0,0,2.47.9h13a3.32,3.32,0,0,0,2.15-.9s-.5,2-2.23,2-12.55,0-12.55,0A3.46,3.46,0,0,1,33.23,89.79Z"/><path class="cls-1" d="M42.24,90.93l1.21-.12a1.55,1.55,0,0,1-1.21-1.33v0s0,0,0,0v.08A1.54,1.54,0,0,1,41,90.81l1.21.12h0Z"/><path class="cls-1" d="M48.89,91.36h0a.29.29,0,0,1-.28-.28V84c0-.16.13,0,.28,0v-.29a.28.28,0,0,1,.28.29v7.1A.28.28,0,0,1,48.89,91.36Z"/><path class="cls-1" d="M42.19,91.36h0a.28.28,0,0,1-.28-.28V84c0-.16.12,0,.28,0v-.29a.29.29,0,0,1,.28.29v7.1A.29.29,0,0,1,42.19,91.36Z"/><path class="cls-1" d="M35.77,91.36h0a.28.28,0,0,1-.28-.28V84c0-.16.12,0,.28,0v-.29a.29.29,0,0,1,.28.29v7.1A.29.29,0,0,1,35.77,91.36Z"/><rect class="cls-1" x="34.32" y="96.45" width="16.5" height="2.27"/><rect class="cls-5" x="63.18" y="38.86" width="8.88" height="48.7" rx="1.83" ry="1.83"/><rect class="cls-5" x="40.67" width="54.93" height="46.63" rx="4.58" ry="4.58"/><path class="cls-5" d="M85.94,25.47H80.12a2.06,2.06,0,0,0-2.05,2.06A2.07,2.07,0,0,0,76,25.47H70.19a2.06,2.06,0,0,0-2,2.06,2.06,2.06,0,0,0-2-2.06H60.27a2.06,2.06,0,0,0-2.05,2.06,2.07,2.07,0,0,0-2.06-2.06H50.34a2.06,2.06,0,0,0-2.05,2.06V52.05a2.06,2.06,0,0,0,2.05,2.05h5.82a2.07,2.07,0,0,0,2.06-2.05,2.06,2.06,0,0,0,2.05,2.05h5.82a2.06,2.06,0,0,0,2-2.05,2.06,2.06,0,0,0,2,2.05H76a2.07,2.07,0,0,0,2.06-2.05,2.06,2.06,0,0,0,2.05,2.05h5.82a2.06,2.06,0,0,0,2-2.05V27.53A2.06,2.06,0,0,0,85.94,25.47Z"/><circle class="cls-6" cx="48.75" cy="35.17" r="1.79"/><circle class="cls-6" cx="87.53" cy="35.17" r="1.79"/><rect class="cls-5" x="53.56" y="57.33" width="28.23" height="7.5" rx="1.55" ry="1.55"/><rect class="cls-5" x="57.28" y="66.21" width="20.78" height="7.5" rx="1.55" ry="1.55"/><rect class="cls-5" x="57.28" y="75.1" width="20.78" height="7.5" rx="1.55" ry="1.55"/><path class="cls-5" d="M67.62,92.35h0c-2.07,0-10.34-1.68-10.34-3.75h0A3.76,3.76,0,0,1,61,84.85H74.31a3.77,3.77,0,0,1,3.76,3.75h0C78.07,90.67,69.68,92.35,67.62,92.35Z"/><rect class="cls-5" x="80.55" y="59.06" width="4.96" height="27.81" rx="1.03" ry="1.03"/><rect class="cls-5" x="74.55" y="84.85" width="4.96" height="15.15" rx="1.03" ry="1.03"/><rect class="cls-5" x="55.73" y="84.85" width="4.96" height="15.15" rx="1.03" ry="1.03"/><rect class="cls-5" x="48.72" y="58.82" width="4.96" height="11.29" rx="0.9" ry="0.9" transform="translate(60.58 -17.32) rotate(45)"/><rect class="cls-5" x="41.63" y="59.21" width="4.96" height="13.16" rx="1.03" ry="1.03" transform="translate(121.82 81.11) rotate(135)"/><path class="cls-1" d="M20.19,60.77S14.25,74.94,3.79,71.63c0,0,1.23,3.6,8.2,3.11s8.2,0,8.2,0,1.24-.49,8.2,0S27,78.08,27,78.08C17.84,85,20.19,60.77,20.19,60.77Z"/><path class="cls-1" d="M20.19,60.77S26.14,74.94,36.6,71.63c0,0-1.24,3.6-8.2,3.11s-8.21,0-8.21,0-1.23-.49-8.2,0,1.38,3.34,1.38,3.34C22.54,85,20.19,60.77,20.19,60.77Z"/><rect class="cls-7" x="10.94" y="74.58" width="18.26" height="11.9"/><rect class="cls-7" x="8.94" y="86.82" width="22.74" height="11.9"/><rect class="cls-8" x="12.86" y="75.58" width="2.39" height="8.72"/><rect class="cls-8" x="16.87" y="75.58" width="2.39" height="8.72"/><rect class="cls-8" x="20.87" y="75.58" width="2.39" height="8.72"/><rect class="cls-8" x="24.88" y="75.58" width="2.39" height="8.72"/><rect class="cls-8" x="11.74" y="88.41" width="2.84" height="8.72"/><rect class="cls-8" x="16.5" y="88.41" width="2.84" height="8.72"/><rect class="cls-8" x="21.27" y="88.41" width="2.84" height="8.72"/><rect class="cls-8" x="26.03" y="88.41" width="2.84" height="8.72"/><rect class="cls-4" x="3.08" y="69.46" width="1.63" height="3.59" rx="0.81" ry="0.81" transform="translate(-49.24 23.63) rotate(-45)"/><rect class="cls-4" x="35.63" y="69.46" width="1.63" height="3.59" rx="0.81" ry="0.81" transform="translate(11.84 147.41) rotate(-135)"/><polyline class="cls-1" points="18.29 72.86 22.5 72.86 20.2 60.77 17.52 72.86"/><rect class="cls-1" x="18.22" y="61.98" width="1.65" height="2.71" rx="0.83" ry="0.83" transform="translate(34.22 -1.04) rotate(30)"/><rect class="cls-1" x="16.8" y="64.43" width="1.65" height="2.71" rx="0.83" ry="0.83" transform="translate(40.75 1.72) rotate(34.85)"/><rect class="cls-1" x="14.72" y="66.51" width="1.65" height="2.71" rx="0.83" ry="0.83" transform="translate(58.62 13.17) rotate(51.12)"/><rect class="cls-1" x="12.47" y="68.69" width="1.65" height="2.71" rx="0.83" ry="0.83" transform="translate(67.31 23.51) rotate(60)"/><rect class="cls-1" x="9.82" y="70.22" width="1.65" height="2.71" rx="0.83" ry="0.83" transform="translate(69.8 29.89) rotate(63.29)"/><rect class="cls-1" x="6.78" y="70.81" width="1.65" height="2.71" rx="0.83" ry="0.83" transform="translate(78.68 57.51) rotate(84.36)"/><rect class="cls-1" x="20.77" y="61.98" width="1.65" height="2.71" rx="0.83" ry="0.83" transform="translate(71.97 107.38) rotate(150)"/><rect class="cls-1" x="22.19" y="64.43" width="1.65" height="2.71" rx="0.83" ry="0.83" transform="translate(79.49 106.63) rotate(145.15)"/><rect class="cls-1" x="24.27" y="66.51" width="1.65" height="2.71" rx="0.83" ry="0.83" transform="translate(93.69 90.93) rotate(128.88)"/><rect class="cls-1" x="26.52" y="68.69" width="1.65" height="2.71" rx="0.83" ry="0.83" transform="translate(101.68 81.38) rotate(120)"/><rect class="cls-1" x="29.17" y="70.22" width="1.65" height="2.71" rx="0.83" ry="0.83" transform="translate(107.41 76.95) rotate(116.71)"/><rect class="cls-1" x="32.21" y="70.81" width="1.65" height="2.71" rx="0.83" ry="0.83" transform="translate(108.1 46.38) rotate(95.64)"/><polyline class="cls-1" points="8.46 74.58 20.01 75.58 31.68 74.58 20.01 70.04"/><rect class="cls-4" x="19.2" y="69.78" width="1.63" height="3.59" rx="0.81" ry="0.81"/><path class="cls-1" d="M5.18,83.88a7.54,7.54,0,0,0,4.11,1.5H30.85a5.56,5.56,0,0,0,3.57-1.5s-.84,3.27-3.7,3.35-20.86,0-20.86,0A5.75,5.75,0,0,1,5.18,83.88Z"/><path class="cls-1" d="M20.16,85.78l2-.2a2.58,2.58,0,0,1-2-2.22v-.12a.13.13,0,0,1,0,.06v.06a2.58,2.58,0,0,1-2,2.22l2,.2h0Z"/><path class="cls-1" d="M31.21,86.49h0a.47.47,0,0,1-.47-.47V74.22c0-.26.21,0,.47,0v-.47a.47.47,0,0,1,.47.47V86A.47.47,0,0,1,31.21,86.49Z"/><path class="cls-1" d="M20.07,86.49h0A.47.47,0,0,1,19.6,86V74.22c0-.26.21,0,.47,0v-.47a.47.47,0,0,1,.47.47V86A.47.47,0,0,1,20.07,86.49Z"/><path class="cls-1" d="M9.4,86.49h0A.47.47,0,0,1,8.94,86V74.22c0-.26.21,0,.46,0v-.47a.47.47,0,0,1,.47.47V86A.47.47,0,0,1,9.4,86.49Z"/><rect class="cls-1" x="7.01" y="94.95" width="27.42" height="3.77"/><ellipse class="cls-9" cx="44.04" cy="52.72" rx="1.35" ry="3.53" transform="translate(-24.38 46.59) rotate(-45)"/><path class="cls-9" d="M41.52,50.26l-2.2,2.2a3.53,3.53,0,0,0,5,5l2.2-2.2Z"/><circle class="cls-10" cx="40.92" cy="52.21" r="0.28"/><circle class="cls-10" cx="44.65" cy="55.96" r="0.28"/><circle class="cls-9" cx="45.9" cy="56.5" r="0.68"/><circle class="cls-9" cx="45" cy="56.8" r="0.59"/><circle class="cls-9" cx="40.29" cy="50.89" r="0.68"/><circle class="cls-9" cx="39.99" cy="51.79" r="0.59"/><polygon class="cls-7" points="41.05 54.73 42.04 55.72 43.34 53.42 41.05 54.73"/><rect class="cls-9" x="33.52" y="55.33" width="6.84" height="9.01" rx="3.42" ry="3.42" transform="translate(53.13 -8.59) rotate(45)"/><rect class="cls-9" x="35.37" y="56.74" width="6.84" height="2.48" rx="1.24" ry="1.24" transform="translate(52.36 -10.45) rotate(45)"/><rect class="cls-9" x="39.79" y="59.2" width="1.46" height="4.06" rx="0.73" ry="0.73" transform="translate(55.17 -10.72) rotate(45)"/><rect class="cls-9" x="37.26" y="61.73" width="1.46" height="4.06" rx="0.73" ry="0.73" transform="translate(56.21 -8.19) rotate(45)"/><rect class="cls-9" x="33.26" y="61.09" width="2.03" height="7.26" rx="1.01" ry="1.01" transform="translate(55.8 -5.28) rotate(45)"/><rect class="cls-9" x="31.2" y="59.03" width="2.03" height="7.26" rx="1.01" ry="1.01" transform="translate(53.74 -4.42) rotate(45)"/><rect class="cls-9" x="34.88" y="54.29" width="1.46" height="4.06" rx="0.73" ry="0.73" transform="translate(50.26 -8.69) rotate(45)"/><rect class="cls-9" x="32.35" y="56.82" width="1.46" height="4.06" rx="0.73" ry="0.73" transform="translate(51.3 -6.16) rotate(45)"/></svg>