<svg id="Layer_1" data-name="Layer 1" xmlns="http://www.w3.org/2000/svg" viewBox="0 0 100 100"><defs><style>.cls-1{fill:#fcca98;}.cls-2{fill:#895e59;}.cls-3{fill:#3e3e3f;}.cls-4{fill:#f37d3b;}.cls-5{fill:#4a4a4c;}.cls-6{fill:#58595b;}.cls-7{fill:#212121;}.cls-8{fill:#7696a7;}.cls-9{fill:#9dc8dc;}.cls-10{fill:#09a582;}.cls-11{fill:#00795e;}.cls-12{fill:#121212;}.cls-13{fill:#c7672f;}</style></defs><title>giant</title><rect class="cls-1" x="60.96" y="42.68" width="4.62" height="12.82" rx="2.31" ry="2.31"/><rect class="cls-1" x="53.88" y="48.09" width="6.4" height="22.91" rx="3.2" ry="3.2"/><rect class="cls-1" x="44.69" y="48.09" width="6.4" height="22.91" rx="3.2" ry="3.2"/><rect class="cls-1" x="39.03" y="42.68" width="4.62" height="12.82" rx="2.31" ry="2.31"/><rect class="cls-2" x="41.34" y="28.45" width="21.59" height="28.46" rx="10.79" ry="10.79"/><rect class="cls-2" x="41.34" y="30.48" width="21.59" height="7.83" rx="3.91" ry="3.91"/><rect class="cls-2" x="60.96" y="31.39" width="4.62" height="12.82" rx="2.31" ry="2.31"/><rect class="cls-2" x="39.03" y="31.39" width="4.62" height="12.82" rx="2.31" ry="2.31"/><path class="cls-1" d="M41,11.08V20.9a11.14,11.14,0,0,0,22.28,0V11.08Z"/><path class="cls-1" d="M63.27,21V11.14a11.14,11.14,0,0,0-22.28,0V21Z"/><circle class="cls-3" cx="44.01" cy="16.78" r="0.9"/><circle class="cls-3" cx="60.71" cy="16.81" r="0.9"/><circle class="cls-1" cx="64.7" cy="15.22" r="2.15"/><circle class="cls-1" cx="63.37" cy="17.91" r="1.87"/><circle class="cls-1" cx="39.66" cy="15.22" r="2.15"/><circle class="cls-1" cx="41" cy="17.91" r="1.87"/><polygon class="cls-4" points="49.93 22.1 54.33 22.1 52.13 14.06 49.93 22.1"/><rect class="cls-1" x="50.21" y="30.1" width="3.95" height="27.98" rx="1.97" ry="1.97"/><rect class="cls-5" x="32.81" y="63.78" width="57.77" height="12.78" rx="6.39" ry="6.39"/><polygon class="cls-5" points="87.19 64.91 51.4 82.27 65.5 97.93 88.59 74.84 88.59 66.92 87.19 64.91"/><polygon class="cls-6" points="63.17 69.23 31.23 69.23 23.75 76.71 55.7 76.71 63.17 69.23"/><path class="cls-6" d="M88.11,65.16a6.35,6.35,0,0,0-3.91-1.38h-45a6.31,6.31,0,0,0-2.93.75h-.34l-4.7,4.7h32l2.08-2.08-2.08,2.08h0L55.7,76.71h0l-1.21,1.21,1.21-1.21H23.75L11.87,88.59H64.73L88.16,65.16Z"/><path class="cls-5" d="M60.8,87.22h-45a6.39,6.39,0,0,0,0,12.78h45a6.39,6.39,0,0,0,0-12.78Z"/><rect class="cls-7" x="28.65" y="52.98" width="13.06" height="19.87"/><rect class="cls-8" x="30.51" y="54.43" width="3.65" height="3.65" rx="0.36" ry="0.36" transform="translate(-23.91 88.59) rotate(-90)"/><rect class="cls-8" x="30.51" y="60.49" width="3.65" height="3.65" rx="0.36" ry="0.36" transform="translate(-29.97 94.65) rotate(-90)"/><rect class="cls-8" x="30.51" y="66.55" width="3.65" height="3.65" rx="0.36" ry="0.36" transform="translate(-36.03 100.71) rotate(-90)"/><rect class="cls-9" x="46.58" y="55.95" width="14.11" height="15.47"/><rect class="cls-10" x="55.72" y="53.12" width="9.93" height="20.5"/><rect class="cls-9" x="57.91" y="54.9" width="3.75" height="3.75" rx="0.36" ry="0.36" transform="translate(3.01 116.57) rotate(-90)"/><rect class="cls-9" x="57.91" y="61.81" width="3.75" height="3.75" rx="0.36" ry="0.36" transform="translate(-3.9 123.48) rotate(-90)"/><rect class="cls-11" x="56.72" y="57.86" width="6.67" height="2.29"/><rect class="cls-11" x="57.91" y="59.74" width="0.71" height="1.29" rx="0.35" ry="0.35"/><rect class="cls-11" x="61.54" y="59.74" width="0.71" height="1.29" rx="0.35" ry="0.35"/><rect class="cls-7" x="62.78" y="52.12" width="12.43" height="24.72"/><ellipse class="cls-7" cx="68.99" cy="52.23" rx="5.26" ry="1.75"/><path class="cls-12" d="M73.53,72a1.36,1.36,0,0,0-1.36-1.35h-.46A1.36,1.36,0,0,0,70.35,72v4.83h3.18Z"/><rect class="cls-9" x="67.31" y="51.35" width="3.38" height="9.05" rx="0.36" ry="0.36" transform="translate(13.13 124.88) rotate(-90)"/><rect class="cls-9" x="67.31" y="56.85" width="3.38" height="9.05" rx="0.36" ry="0.36" transform="translate(7.63 130.38) rotate(-90)"/><rect class="cls-9" x="67.31" y="62.35" width="3.38" height="9.05" rx="0.36" ry="0.36" transform="translate(2.13 135.88) rotate(-90)"/><rect class="cls-9" x="65.04" y="70.12" width="3.38" height="4.51" rx="0.36" ry="0.36" transform="translate(-5.64 139.11) rotate(-90)"/><polygon class="cls-7" points="75.07 78.29 22.16 78.29 24.59 75.86 77.47 75.86 75.07 78.29"/><rect class="cls-4" x="33.63" y="48.42" width="18.82" height="32.12"/><path class="cls-13" d="M51,70.89a2.71,2.71,0,0,0-2.71-2.71h-.93a2.71,2.71,0,0,0-2.71,2.71v9.65H51Z"/><rect class="cls-9" x="35.83" y="50.76" width="5.58" height="5.58" rx="0.36" ry="0.36" transform="translate(-14.93 92.17) rotate(-90)"/><rect class="cls-9" x="44.63" y="50.76" width="5.58" height="5.58" rx="0.36" ry="0.36" transform="translate(-6.13 100.97) rotate(-90)"/><rect class="cls-9" x="35.83" y="59.49" width="5.58" height="5.58" rx="0.36" ry="0.36" transform="translate(-23.66 100.91) rotate(-90)"/><rect class="cls-9" x="44.63" y="59.49" width="5.58" height="5.58" rx="0.36" ry="0.36" transform="translate(-14.86 109.71) rotate(-90)"/><rect class="cls-9" x="35.83" y="68.23" width="5.58" height="5.58" rx="0.36" ry="0.36" transform="translate(-32.39 109.64) rotate(-90)"/></svg>