<svg id="Layer_1" data-name="Layer 1" xmlns="http://www.w3.org/2000/svg" viewBox="0 0 100 100"><defs><style>.cls-1{fill:#09a582;}.cls-2{fill:#714c48;}.cls-3{fill:#895e59;}.cls-4{fill:#231f20;}.cls-5{fill:#069274;}.cls-6{fill:#ffc63f;}</style></defs><title>goblin</title><rect class="cls-1" x="18.63" y="57.9" width="8.04" height="25.05" rx="4.02" ry="4.02"/><rect class="cls-1" x="73.61" y="57.9" width="8.04" height="25.05" rx="4.02" ry="4.02"/><rect class="cls-1" x="30.98" y="74.95" width="8.04" height="25.05" rx="4.02" ry="4.02"/><rect class="cls-1" x="62.3" y="74.95" width="8.04" height="25.05" rx="4.02" ry="4.02"/><rect class="cls-2" x="16.6" y="52.59" width="66.8" height="10.83" rx="5.42" ry="5.42"/><path class="cls-1" d="M27.74,37.16a4.71,4.71,0,0,1-9.41,0c0-2.6-.77-12.38-.77-12.38S27.74,34.56,27.74,37.16Z"/><path class="cls-1" d="M72.54,38.47a4.71,4.71,0,1,0,9.41,0c0-2.59.76-12.37.76-12.37S72.54,35.88,72.54,38.47Z"/><path class="cls-2" d="M24.07,49V67.32c0,14.26,11.67,13.2,25.93,13.2s25.93,1.06,25.93-13.2V49Z"/><path class="cls-3" d="M75.93,35.93a25.93,25.93,0,0,0-51.86,0V49H75.93Z"/><rect class="cls-3" x="21.49" y="45.71" width="57.8" height="6.54" rx="3.27" ry="3.27"/><rect class="cls-1" x="28.9" y="19.49" width="42.2" height="27.37" rx="13.68" ry="13.68"/><path class="cls-3" d="M42.44,12.41s10-4.52,9.76-7.14S55.46-1.18,63.11.35c0,0-6.5,2.94-5.36,4.92a10.49,10.49,0,0,1,1.92,8.86"/><circle class="cls-4" cx="35.67" cy="37.7" r="1.94"/><circle class="cls-4" cx="63.11" cy="37.7" r="1.94"/><rect class="cls-5" x="39.72" y="43.37" width="19.9" height="2.01" rx="1" ry="1"/><rect class="cls-1" x="45.89" y="35.23" width="8.04" height="25.05" rx="4.02" ry="4.02"/><polygon class="cls-6" points="41.25 43.37 44.12 43.37 42.68 39.1 41.25 43.37"/><polygon class="cls-6" points="55.6 43.37 58.47 43.37 57.04 39.1 55.6 43.37"/><rect class="cls-2" x="28.71" y="74.1" width="5.24" height="12.34" rx="2.62" ry="2.62"/><rect class="cls-2" x="33.95" y="74.1" width="5.24" height="12.34" rx="2.62" ry="2.62"/><rect class="cls-2" x="39.19" y="74.1" width="5.24" height="12.34" rx="2.62" ry="2.62"/><rect class="cls-2" x="44.43" y="74.1" width="5.24" height="12.34" rx="2.62" ry="2.62"/><rect class="cls-2" x="49.67" y="74.1" width="5.24" height="12.34" rx="2.62" ry="2.62"/><rect class="cls-2" x="54.91" y="74.1" width="5.24" height="12.34" rx="2.62" ry="2.62"/><rect class="cls-2" x="60.15" y="74.1" width="5.24" height="12.34" rx="2.62" ry="2.62"/><rect class="cls-2" x="65.39" y="74.1" width="5.24" height="12.34" rx="2.62" ry="2.62"/></svg>