<svg id="Layer_1" data-name="Layer 1" xmlns="http://www.w3.org/2000/svg" viewBox="0 0 100 100"><defs><style>.cls-1{fill:#ffc640;}</style></defs><title>ankh</title><path class="cls-1" d="M78.66,37.35l-19.57.91,6.4-10.16a18.39,18.39,0,0,0,0-19.56A18.19,18.19,0,0,0,50,0h0A18.19,18.19,0,0,0,34.53,8.5a18.37,18.37,0,0,0,0,19.49l6.44,10.27-19.59-.91V50.68L44.56,49.6,43.33,100H56.67L55.44,49.6l23.22,1.08ZM43.54,14.21A7.47,7.47,0,0,1,50,10.66h0a7.54,7.54,0,0,1,6.49,3.64,7.67,7.67,0,0,1,0,8.12L50,32.67,43.52,22.33A7.65,7.65,0,0,1,43.54,14.21Z"/></svg>