<svg id="Layer_1" data-name="Layer 1" xmlns="http://www.w3.org/2000/svg" viewBox="0 0 100 100"><defs><style>.cls-1{fill:#fff;}.cls-2{fill:#ffc63f;}</style></defs><title>good</title><path class="cls-1" d="M71.75,23.32c-12,0-21.75,5.34-21.75,17.35,0-12-9.74-17.35-21.75-17.35A21.75,21.75,0,0,0,6.5,45.07C6.5,72.07,50,100,50,100S93.5,72.07,93.5,45.07A21.75,21.75,0,0,0,71.75,23.32Z"/><path class="cls-2" d="M50,0C36.23,0,25.07,3.17,25.07,7.08S36.23,14.17,50,14.17,74.93,11,74.93,7.08,63.77,0,50,0Zm0,7.08c-8.37,0-15.15-.93-15.15-2.07S41.63,2.93,50,2.93,65.15,3.86,65.15,5,58.37,7.08,50,7.08Z"/></svg>