<svg id="Layer_1" data-name="Layer 1" xmlns="http://www.w3.org/2000/svg" viewBox="0 0 100 100"><defs><style>.cls-1{fill:#09a582;}.cls-2{fill:#089a7a;}.cls-3{fill:#069274;}.cls-4{fill:#3e3e3f;}.cls-5{fill:#008065;}</style></defs><title>green man</title><path class="cls-1" d="M50,37.18v-9.6L38.39,16C37,18.63,36,21.18,36,23.19a14,14,0,0,0,.31,2.91L47.1,36.87A13.78,13.78,0,0,0,50,37.18Z"/><path class="cls-1" d="M47.1,36.87,36.32,26.1A14,14,0,0,0,47.1,36.87Z"/><path class="cls-2" d="M50,22.84,40.13,13c-.63,1-1.21,2-1.74,3L50,27.58Z"/><path class="cls-1" d="M50,15l-6.7-6.7C42.22,9.8,41.12,11.37,40.13,13L50,22.84Z"/><path class="cls-2" d="M50,0s-3.3,3.66-6.7,8.31L50,15Z"/><path class="cls-3" d="M64,23.19C64,15.47,50,0,50,0V37.18A14,14,0,0,0,64,23.19Z"/><path class="cls-1" d="M50,62.82v9.6L61.61,84C63,81.37,64,78.82,64,76.81a14,14,0,0,0-.31-2.91L52.9,63.13A13.78,13.78,0,0,0,50,62.82Z"/><path class="cls-1" d="M52.9,63.13,63.68,73.9A14,14,0,0,0,52.9,63.13Z"/><path class="cls-2" d="M50,77.16,59.87,87c.63-1,1.21-2,1.74-3L50,72.42Z"/><path class="cls-1" d="M50,85l6.7,6.7c1.08-1.49,2.18-3.06,3.17-4.66L50,77.16Z"/><path class="cls-2" d="M50,100s3.3-3.66,6.7-8.31L50,85Z"/><path class="cls-3" d="M36,76.81C36,84.53,50,100,50,100V62.82A14,14,0,0,0,36,76.81Z"/><path class="cls-1" d="M62.82,50h9.6L84,38.39C81.37,37,78.82,36,76.81,36a14,14,0,0,0-2.91.31L63.13,47.1A13.78,13.78,0,0,0,62.82,50Z"/><path class="cls-1" d="M63.13,47.1,73.9,36.32A14,14,0,0,0,63.13,47.1Z"/><path class="cls-2" d="M77.16,50,87,40.13c-1-.63-2-1.21-3-1.74L72.42,50Z"/><path class="cls-1" d="M85,50l6.7-6.7c-1.49-1.08-3.06-2.18-4.66-3.17L77.16,50Z"/><path class="cls-2" d="M100,50s-3.66-3.3-8.31-6.7L85,50Z"/><path class="cls-3" d="M76.81,64C84.53,64,100,50,100,50H62.82A14,14,0,0,0,76.81,64Z"/><path class="cls-1" d="M37.18,50h-9.6L16,61.61C18.63,63,21.18,64,23.19,64a14,14,0,0,0,2.91-.31L36.87,52.9A13.78,13.78,0,0,0,37.18,50Z"/><path class="cls-1" d="M36.87,52.9,26.1,63.68A14,14,0,0,0,36.87,52.9Z"/><path class="cls-2" d="M22.84,50,13,59.87c1,.63,2,1.21,3,1.74L27.58,50Z"/><path class="cls-1" d="M15,50l-6.7,6.7c1.49,1.08,3.06,2.18,4.66,3.17L22.84,50Z"/><path class="cls-2" d="M0,50s3.66,3.3,8.31,6.7L15,50Z"/><path class="cls-3" d="M23.19,36C15.47,36,0,50,0,50H37.18A14,14,0,0,0,23.19,36Z"/><path class="cls-1" d="M59.06,40.94l6.8-6.8V17.73c-2.88.88-5.37,2-6.8,3.42a14.07,14.07,0,0,0-1.83,2.28V38.66A14.07,14.07,0,0,0,59.06,40.94Z"/><path class="cls-1" d="M57.23,38.66V23.43A14,14,0,0,0,57.23,38.66Z"/><path class="cls-2" d="M69.2,30.8v-14c-1.15.27-2.27.57-3.34.9V34.14Z"/><path class="cls-1" d="M74.74,25.26V15.78c-1.82.29-3.7.63-5.54,1v14Z"/><path class="cls-2" d="M85.36,14.64s-4.93.26-10.62,1.14v9.48Z"/><path class="cls-3" d="M78.85,40.94c5.46-5.47,6.51-26.3,6.51-26.3l-26.3,26.3A14,14,0,0,0,78.85,40.94Z"/><path class="cls-1" d="M40.94,59.06l-6.8,6.8V82.27c2.88-.88,5.37-2,6.8-3.42a14.07,14.07,0,0,0,1.83-2.28V61.34A14.07,14.07,0,0,0,40.94,59.06Z"/><path class="cls-1" d="M42.77,61.34V76.57A14,14,0,0,0,42.77,61.34Z"/><path class="cls-2" d="M30.8,69.2v14c1.15-.27,2.27-.57,3.34-.9V65.86Z"/><path class="cls-1" d="M25.26,74.74v9.48c1.82-.29,3.7-.63,5.54-1v-14Z"/><path class="cls-2" d="M14.64,85.36s4.93-.26,10.62-1.14V74.74Z"/><path class="cls-3" d="M21.15,59.06c-5.46,5.47-6.51,26.3-6.51,26.3l26.3-26.3A14,14,0,0,0,21.15,59.06Z"/><path class="cls-1" d="M59.06,59.06l6.8,6.8H82.27c-.88-2.88-2-5.37-3.42-6.8a14.07,14.07,0,0,0-2.28-1.83H61.34A14.07,14.07,0,0,0,59.06,59.06Z"/><path class="cls-1" d="M61.34,57.23H76.57A14,14,0,0,0,61.34,57.23Z"/><path class="cls-2" d="M69.2,69.2h14c-.27-1.15-.57-2.27-.9-3.34H65.86Z"/><path class="cls-1" d="M74.74,74.74h9.48c-.29-1.82-.63-3.7-1-5.54h-14Z"/><path class="cls-2" d="M85.36,85.36s-.26-4.93-1.14-10.62H74.74Z"/><path class="cls-3" d="M59.06,78.85c5.47,5.46,26.3,6.51,26.3,6.51l-26.3-26.3A14,14,0,0,0,59.06,78.85Z"/><path class="cls-1" d="M40.94,40.94l-6.8-6.8H17.73c.88,2.88,2,5.37,3.42,6.8a14.07,14.07,0,0,0,2.28,1.83H38.66A14.07,14.07,0,0,0,40.94,40.94Z"/><path class="cls-1" d="M38.66,42.77H23.43A14,14,0,0,0,38.66,42.77Z"/><path class="cls-2" d="M30.8,30.8h-14c.27,1.15.57,2.27.9,3.34H34.14Z"/><path class="cls-1" d="M25.26,25.26H15.78c.29,1.82.63,3.7,1,5.54h14Z"/><path class="cls-2" d="M14.64,14.64s.26,4.93,1.14,10.62h9.48Z"/><path class="cls-3" d="M40.94,21.15c-5.47-5.46-26.3-6.51-26.3-6.51l26.3,26.3A14,14,0,0,0,40.94,21.15Z"/><path class="cls-1" d="M27,49.59a23,23,0,0,0,23,23v-46A23,23,0,0,0,27,49.59Z"/><path class="cls-1" d="M73,49.59a23,23,0,0,0-23-23v46A23,23,0,0,0,73,49.59Z"/><circle class="cls-4" cx="36.86" cy="43.01" r="1.41"/><circle class="cls-4" cx="63.14" cy="43.06" r="1.41"/><polygon class="cls-5" points="43.3 55.77 56.95 55.77 50.12 30.83 43.3 55.77"/><rect class="cls-5" x="37.49" y="57.23" width="25.65" height="2.52" rx="1.26" ry="1.26"/><path class="cls-5" d="M47.87,30.8S27.72,30.1,26.1,41.6H44.2"/><path class="cls-5" d="M52.4,30.8s20.15-.7,21.77,10.8H56.08"/></svg>