<svg id="Layer_1" data-name="Layer 1" xmlns="http://www.w3.org/2000/svg" viewBox="0 0 100 100"><defs><style>.cls-1{fill:#008166;}.cls-2{fill:#09a582;}.cls-3{fill:#231f20;}.cls-4{fill:#5c475e;}.cls-5{fill:#ffc640;}</style></defs><title>gremlin</title><path class="cls-1" d="M34.32,14.75S28.11-.51,4.66,0c0,0,1.56,7.76,3.66,8.28,0,0-1.31,5.06,1.74,6.46a4.49,4.49,0,0,0,5.41,3.05s.52,3,4.88,2.61l7.93.35"/><path class="cls-2" d="M34.32,14.75S28.11-.51,4.66,0c0,0,.16.79.44,1.88,21.49.52,27.33,14.69,27.33,14.69l-4.2,4.18h.05Z"/><path class="cls-1" d="M65.68,14.75S71.89-.51,95.34,0c0,0-1.56,7.76-3.66,8.28,0,0,1.31,5.06-1.74,6.46a4.49,4.49,0,0,1-5.41,3.05s-.52,3-4.88,2.61l-7.93.35"/><path class="cls-2" d="M65.68,14.75S71.89-.51,95.34,0c0,0-.16.79-.44,1.88-21.49.52-27.33,14.69-27.33,14.69l4.2,4.18h0Z"/><rect class="cls-2" x="36.44" y="36.57" width="23.63" height="26.82" rx="11.82" ry="11.82"/><rect class="cls-2" x="33.17" y="48.25" width="30.11" height="34.92" rx="15.05" ry="15.05"/><rect class="cls-2" x="28.28" y="14.42" width="41.49" height="28.75" rx="14.37" ry="14.37"/><rect class="cls-2" x="23" y="13" width="25.15" height="20.55" rx="10.28" ry="10.28"/><rect class="cls-2" x="51.47" y="13" width="25.15" height="20.55" rx="10.28" ry="10.28"/><circle class="cls-3" cx="30.79" cy="23.35" r="1.9"/><circle class="cls-3" cx="69.23" cy="23.35" r="1.9"/><rect class="cls-4" x="34.32" y="29.39" width="29.72" height="9.88" rx="4.94" ry="4.94"/><path class="cls-5" d="M41.05,29.39H39.26a4.9,4.9,0,0,0-1.91.39l1.77,4.14Z"/><polygon class="cls-5" points="47.15 29.39 43.29 29.39 45.22 33.92 47.15 29.39"/><polygon class="cls-5" points="53.25 29.39 49.39 29.39 51.32 33.92 53.25 29.39"/><path class="cls-5" d="M59.34,29.41l-.24,0H55.5l1.92,4.53Z"/><polygon class="cls-5" points="52.77 39.27 55.97 39.27 54.37 35.51 52.77 39.27"/><polygon class="cls-5" points="46.67 39.27 49.87 39.27 48.27 35.51 46.67 39.27"/><polygon class="cls-5" points="40.57 39.27 43.77 39.27 42.17 35.51 40.57 39.27"/><path class="cls-5" d="M35.32,37.27a5,5,0,0,0,2.2,1.67l-1.45-3.43Z"/><path class="cls-5" d="M61.74,38.49l-1.26-3-1.6,3.76h.22A4.87,4.87,0,0,0,61.74,38.49Z"/><path class="cls-1" d="M53.48,23.47a4.09,4.09,0,0,0-8.17,0v.06h8.17Z"/><rect class="cls-2" x="31.26" y="41.13" width="4.58" height="18.48" rx="2.29" ry="2.29" transform="translate(45.44 -8.98) rotate(45)"/><rect class="cls-2" x="20.33" y="51.64" width="8" height="15.9" rx="4" ry="4" transform="translate(49.26 0.24) rotate(45)"/><rect class="cls-2" x="61.51" y="41.13" width="4.58" height="18.48" rx="2.29" ry="2.29" transform="translate(144.53 40.86) rotate(135)"/><rect class="cls-2" x="69.02" y="51.64" width="8" height="15.9" rx="4" ry="4" transform="translate(166.79 50.08) rotate(135)"/><rect class="cls-2" x="36.45" y="73.58" width="5.47" height="22.06" rx="2.74" ry="2.74"/><rect class="cls-2" x="30.55" y="93.2" width="4.65" height="6.8" rx="2.32" ry="2.32"/><rect class="cls-2" x="34.97" y="93.2" width="4.65" height="6.8" rx="2.32" ry="2.32"/><rect class="cls-2" x="39.39" y="93.2" width="4.65" height="6.8" rx="2.32" ry="2.32"/><polyline class="cls-2" points="31.77 95.64 25.06 100 32.87 100"/><rect class="cls-2" x="54.8" y="73.58" width="5.47" height="22.06" rx="2.74" ry="2.74" transform="translate(115.07 169.22) rotate(-180)"/><rect class="cls-2" x="61.52" y="93.2" width="4.65" height="6.8" rx="2.32" ry="2.32" transform="translate(127.69 193.2) rotate(180)"/><rect class="cls-2" x="57.1" y="93.2" width="4.65" height="6.8" rx="2.32" ry="2.32" transform="translate(118.85 193.2) rotate(180)"/><rect class="cls-2" x="52.68" y="93.2" width="4.65" height="6.8" rx="2.32" ry="2.32" transform="translate(110 193.2) rotate(180)"/><polyline class="cls-2" points="64.95 95.64 71.66 100 63.85 100"/><polygon class="cls-2" points="17.66 61.45 18.48 75.68 20.46 61.45 17.66 61.45"/><polygon class="cls-2" points="19.6 62.49 20.42 76.72 22.4 62.49 19.6 62.49"/><polygon class="cls-2" points="21.54 63.53 22.36 77.76 24.34 63.53 21.54 63.53"/><polygon class="cls-2" points="72.05 61.45 72.86 75.68 74.84 61.45 72.05 61.45"/><polygon class="cls-2" points="73.98 62.49 74.8 76.72 76.78 62.49 73.98 62.49"/><polygon class="cls-2" points="75.92 63.53 76.74 77.76 78.72 63.53 75.92 63.53"/><circle class="cls-1" cx="39.24" cy="63.33" r="0.84"/><circle class="cls-1" cx="42.28" cy="65.71" r="0.84"/><circle class="cls-1" cx="54.8" cy="58.37" r="0.84"/><circle class="cls-1" cx="32.68" cy="32.49" r="0.84"/></svg>