<svg id="Layer_1" data-name="Layer 1" xmlns="http://www.w3.org/2000/svg" viewBox="0 0 100 100"><defs><style>.cls-1{fill:#964c1e;}.cls-2{fill:#ffc640;}.cls-3{fill:#fff;}.cls-4{fill:#221f1f;}.cls-5{fill:#ffc540;}.cls-6{fill:#b95f2b;}.cls-7{fill:#cb6930;}</style></defs><title>griffin</title><path class="cls-1" d="M42.18,31.86c9.3-14.92,27.24-4.47,27.24-4.47s-8.19,6.75-12.51,13.68S45.79,51.56,41.72,49,37.86,38.79,42.18,31.86Z"/><path class="cls-1" d="M48,28.74c11.36-9.42,22.9,3.67,22.9,3.67S62.6,35.62,57.33,40s-11.64,5.4-14.21,2.3S42.74,33.12,48,28.74Z"/><path class="cls-1" d="M45.54,32.73c11.35-9.43,22.9,3.66,22.9,3.66S60.12,39.6,54.84,44s-11.63,5.41-14.2,2.3S40.26,37.1,45.54,32.73Z"/><rect class="cls-2" x="52.4" y="58.22" width="4.92" height="28.71" rx="2.46" ry="2.46"/><rect class="cls-2" x="62.61" y="58.22" width="4.92" height="28.71" rx="2.46" ry="2.46"/><path class="cls-2" d="M67.27,54c6.72,6.88,6.07,18.43-1.46,25.81S46.74,87.55,40,80.67,12.4,40.18,19.93,32.8,60.55,47.08,67.27,54Z"/><polyline class="cls-2" points="26.71 58.12 30.09 86.92 33.77 58.12"/><polyline class="cls-2" points="34.22 58.12 37.61 86.92 41.28 58.12"/><path class="cls-3" d="M16.4,46.51A13,13,0,0,0,38.78,33.14C35.12,27,18.15,9.9,12,13.59S12.74,40.37,16.4,46.51Z"/><circle class="cls-4" cx="17.48" cy="22.91" r="1.2"/><path class="cls-5" d="M.19,29.1s.58-2.53,9.58-1.68a4.12,4.12,0,0,0,.78-8.2C-2.29,18,.19,29.1.19,29.1Z"/><path class="cls-3" d="M22.77,50.84A3.08,3.08,0,0,0,25,52a12.66,12.66,0,0,1-5.41,6.37A8.82,8.82,0,0,1,22.77,50.84Z"/><path class="cls-3" d="M25,52a10.7,10.7,0,0,0,4.31-.33,25.51,25.51,0,0,1-1.65,8.27A18.9,18.9,0,0,1,25,52Z"/><path class="cls-3" d="M29.29,51.63a17.49,17.49,0,0,0,4.48-1.9,34.1,34.1,0,0,1,.89,8.39A30.46,30.46,0,0,1,29.29,51.63Z"/><path class="cls-3" d="M33.77,49.73a17.39,17.39,0,0,0,3.79-3,30.41,30.41,0,0,1,3.14,7.82A33.55,33.55,0,0,1,33.77,49.73Z"/><path class="cls-3" d="M37.56,46.69a10.74,10.74,0,0,0,2.34-3.64,19,19,0,0,1,5.71,6.12A25.36,25.36,0,0,1,37.56,46.69Z"/><path class="cls-3" d="M39.9,43.05A3.05,3.05,0,0,0,40,40.57a8.81,8.81,0,0,1,8.11.75A12.69,12.69,0,0,1,39.9,43.05Z"/><path class="cls-3" d="M40,40.57a3,3,0,0,0-2.21-1.12,12.68,12.68,0,0,1,5.41-6.38A8.84,8.84,0,0,1,40,40.57Z"/><path class="cls-3" d="M37.75,39.45a10.68,10.68,0,0,0-4.31.32,25.51,25.51,0,0,1,1.65-8.27A18.75,18.75,0,0,1,37.75,39.45Z"/><path class="cls-3" d="M33.44,39.77A17.43,17.43,0,0,0,29,41.67a34,34,0,0,1-.9-8.38A30.4,30.4,0,0,1,33.44,39.77Z"/><path class="cls-3" d="M29,41.67a17.75,17.75,0,0,0-3.8,3A30.41,30.41,0,0,1,22,36.89,34.29,34.29,0,0,1,29,41.67Z"/><path class="cls-3" d="M25.17,44.71a10.55,10.55,0,0,0-2.33,3.64,18.81,18.81,0,0,1-5.72-6.12A25.54,25.54,0,0,1,25.17,44.71Z"/><path class="cls-3" d="M22.84,48.35a3.09,3.09,0,0,0-.07,2.49,8.81,8.81,0,0,1-8.11-.75A12.65,12.65,0,0,1,22.84,48.35Z"/><path class="cls-6" d="M56.77,35.15c18.23-12.77,34,8.32,34,8.32s-12.89,3.81-21.36,9.74-18.16,6.7-21.64,1.71S48.3,41.08,56.77,35.15Z"/><path class="cls-7" d="M65.12,34.41C83,29.07,90,50.07,90,50.07s-11.28-.39-19.6,2.09-16.25.52-17.7-4.38S56.8,36.9,65.12,34.41Z"/><path class="cls-6" d="M60.25,37.82c17.91-5.34,24.88,15.66,24.88,15.66s-11.28-.39-19.6,2.09-16.25.52-17.7-4.38S51.93,40.31,60.25,37.82Z"/><path class="cls-2" d="M87.2,69A9.57,9.57,0,0,1,85,68.74a10.61,10.61,0,0,1-6.7-5.45c-3.72-6.46-10.29-3.24-11-2.85a1.91,1.91,0,0,1-1.8-3.36c3.61-1.94,11.62-3.54,16.14,4.31A7,7,0,0,0,85.85,65a8.13,8.13,0,0,0,5.62-1.08,1.9,1.9,0,0,1,2.08,3.19A12.68,12.68,0,0,1,87.2,69Z"/><path class="cls-6" d="M93.7,68.5a3.75,3.75,0,0,1-3.25-6.77c1.87-.9,9.55-.43,9.55-.43S95.56,67.6,93.7,68.5Z"/><path class="cls-2" d="M46.49,46.69s9.69,1.76,12.82,13.94S42.68,57.8,42.68,57.8"/></svg>