<svg id="Layer_1" data-name="Layer 1" xmlns="http://www.w3.org/2000/svg" viewBox="0 0 100 100"><defs><style>.cls-1{fill:#6ab8d9;}.cls-2{fill:#b2e2f9;}.cls-3{fill:#fff;}.cls-4{fill:#ffc640;}.cls-5{fill:#ffc63f;}</style></defs><title>heaven</title><circle class="cls-1" cx="49.98" cy="27.43" r="21.92"/><circle class="cls-1" cx="26.95" cy="32.99" r="16.36"/><circle class="cls-1" cx="76.12" cy="36.24" r="13.11"/><rect class="cls-1" x="18.34" y="32.58" width="66.17" height="16.77" rx="8.22" ry="8.22"/><circle class="cls-2" cx="21.2" cy="49.2" r="11.8"/><circle class="cls-2" cx="8.81" cy="52.19" r="8.81"/><circle class="cls-2" cx="35.27" cy="53.94" r="7.06"/><rect class="cls-2" x="4.17" y="51.97" width="35.62" height="9.03" rx="4.42" ry="4.42"/><circle class="cls-2" cx="78.8" cy="49.2" r="11.8"/><circle class="cls-2" cx="91.19" cy="52.19" r="8.81"/><circle class="cls-2" cx="64.73" cy="53.94" r="7.06"/><rect class="cls-2" x="60.21" y="51.97" width="35.62" height="9.03" rx="4.42" ry="4.42" transform="translate(156.05 112.97) rotate(-180)"/><path class="cls-3" d="M40.41,57.11V42.17a9.51,9.51,0,0,1,19,0V57.11Z"/><path class="cls-4" d="M49.91,34.22a8,8,0,0,1,8,8V55.56H42V42.17a8,8,0,0,1,7.95-8m0-3.1A11.06,11.06,0,0,0,38.85,42.17V58.66H61V42.17a11.06,11.06,0,0,0-11.06-11Z"/><circle class="cls-3" cx="44.84" cy="23.6" r="3.5"/><path class="cls-3" d="M44.33,16.31a6.61,6.61,0,0,0-8.55,3.78l-.3.77a.73.73,0,0,0,1.37.53.74.74,0,0,0,1.38.53.74.74,0,0,0,.42,1,.75.75,0,0,0,1-.42A.73.73,0,0,0,41,23a.74.74,0,0,0,1.38.53l.3-.77,5.46,2.12A6.61,6.61,0,0,0,44.33,16.31Z"/><circle class="cls-3" cx="54.98" cy="23.6" r="3.5"/><path class="cls-3" d="M55.49,16.31A6.61,6.61,0,0,1,64,20.09l.3.77a.73.73,0,0,1-1.37.53.73.73,0,1,1-1.37.53.74.74,0,0,1-1.38.54.73.73,0,1,1-1.37.53.73.73,0,1,1-1.37.53l-.3-.77-5.46,2.12A6.62,6.62,0,0,1,55.49,16.31Z"/><path class="cls-5" d="M49.86,12.37c-2.26,0-4.1.52-4.1,1.17s1.84,1.16,4.1,1.16S54,14.18,54,13.54,52.13,12.37,49.86,12.37Zm0,1.17c-1.37,0-2.49-.16-2.49-.34s1.12-.35,2.49-.35,2.5.16,2.5.35S51.24,13.54,49.86,13.54Z"/><rect class="cls-4" x="36.74" y="62.67" width="26.35" height="3.43"/><rect class="cls-4" x="34.25" y="70.11" width="31.32" height="3.43"/><rect class="cls-4" x="30.68" y="77.09" width="38.47" height="3.43"/><rect class="cls-4" x="25.56" y="84.08" width="48.7" height="3.43"/><rect class="cls-4" x="19.29" y="91.06" width="61.25" height="3.43"/></svg>