<svg id="Layer_1" data-name="Layer 1" xmlns="http://www.w3.org/2000/svg" viewBox="0 0 100 100"><defs><style>.cls-1{fill:#f05c38;}.cls-2{fill:#f9a63f;}.cls-3{fill:#ffc640;}</style></defs><title>hell</title><path class="cls-1" d="M44.46,5.43c2.79,13.35-6.54,24.83-6.54,24.83a53.88,53.88,0,0,0-8.33-18.79,17.07,17.07,0,0,1-3,13.82C17.53,19.36,21.33,0,21.33,0,10.92,3.65,2.89,13,5.46,25.32c1.82,8.69,5.46,14,10,17a55.63,55.63,0,0,0-7.39-1.82c4.61,13.4,16.38,21.94,28,19.52,12.8-2.67,20.7-16.7,17.31-32.95s-8.92-21.6-8.92-21.6Zm0,0"/><path class="cls-1" d="M55.82,5.17s-5.61,5.25-9.31,21.43,4,30.35,16.7,33.26c11.53,2.64,23.46-5.68,28.32-19a54.39,54.39,0,0,0-7.43,1.69c4.64-2.91,8.38-8.12,10.35-16.78C97.25,13.52,89.39,4,79.06.16c0,0,3.43,19.43-5.76,25.19a17.07,17.07,0,0,1-2.72-13.87,53.88,53.88,0,0,0-8.67,18.64s-9.12-11.66-6.09-25Zm0,0"/><path class="cls-2" d="M72.39,15.47c0,12.08-12.89,22.9-12.89,22.9,0-9.54-4.83-19.09-4.83-19.09,0,7.48-11.29,7.64-11.29,7.64-5-5.41,0-20.35,0-20.35C31.11,7.83,25,14.51,25,25.64c0,7.87,2.79,13.11,7.14,16.54a71.8,71.8,0,0,0-7.71-2.93,26.43,26.43,0,0,0,26.23,22c14.69,0,26.61-10.74,26.61-25.44s-4.85-20.36-4.85-20.36Zm0,0"/><path class="cls-3" d="M32.94,49.56c0,4-4.25,7.55-4.25,7.55a16.1,16.1,0,0,0-1.59-6.29c0,2.46-3.72,2.51-3.72,2.51-1.66-1.78,0-6.7,0-6.7-4.05.41-6.07,2.61-6.07,6.28a6.51,6.51,0,0,0,2.35,5.45,24.08,24.08,0,0,0-2.54-1,8.72,8.72,0,0,0,8.65,7.26,8.44,8.44,0,0,0,8.76-8.38c0-4.85-1.59-6.71-1.59-6.71Zm0,0"/><path class="cls-3" d="M67.06,49.56s-1.59,1.86-1.59,6.71a8.44,8.44,0,0,0,8.76,8.38,8.72,8.72,0,0,0,8.65-7.26,24.08,24.08,0,0,0-2.54,1,6.51,6.51,0,0,0,2.35-5.45c0-3.67-2-5.87-6.07-6.28,0,0,1.66,4.92,0,6.7,0,0-3.72,0-3.72-2.51a16.1,16.1,0,0,0-1.59,6.29s-4.25-3.57-4.25-7.55Zm0,0"/><rect class="cls-3" x="35.76" y="65.61" width="28.48" height="3.7"/><rect class="cls-3" x="33.08" y="73.65" width="33.85" height="3.7"/><rect class="cls-3" x="29.21" y="81.2" width="41.58" height="3.7"/><rect class="cls-3" x="23.68" y="88.75" width="52.64" height="3.7"/><rect class="cls-3" x="16.9" y="96.3" width="66.2" height="3.7"/><path d="M59.48,33.45c.11-.7,1.72-.41,2.28-1.16.9-1.2,0-2.67-.33-3.4s2.39.86,2.61,2.49a2.69,2.69,0,0,1-.2,1.41C63.14,34.37,61,35.25,60,34.6A1.26,1.26,0,0,1,59.48,33.45Z"/><path d="M40.52,33.45c-.11-.7-1.72-.41-2.28-1.16-.9-1.2,0-2.67.33-3.4s-2.39.86-2.61,2.49a2.69,2.69,0,0,0,.2,1.41c.7,1.58,2.88,2.46,3.84,1.81A1.26,1.26,0,0,0,40.52,33.45Z"/><path d="M39.73,59.6V43.46a10.27,10.27,0,1,1,20.54,0V59.6Z"/><path class="cls-3" d="M50,34.86a8.61,8.61,0,0,1,8.6,8.6V57.92H41.4V43.46a8.61,8.61,0,0,1,8.6-8.6m0-3.35h0a12,12,0,0,0-12,12V61.27H62V43.46A12,12,0,0,0,50,31.51Z"/></svg>