<svg id="Layer_1" data-name="Layer 1" xmlns="http://www.w3.org/2000/svg" viewBox="0 0 100 100"><defs><style>.cls-1{fill:#ffc640;}.cls-2{fill:#faad3f;}.cls-3{fill:#f37d3b;}.cls-4{fill:#bc6842;}.cls-5{fill:#3e3e3f;}.cls-6{fill:#7d7d7d;}.cls-7{fill:#323031;}.cls-8{fill:#231f20;}.cls-9{fill:#714c48;}</style></defs><title>hellhound</title><path class="cls-1" d="M73.88,13.49s5.6,15.81-36.71,26.32l22.1,13.88,1.51.94C86.76,40.64,73.88,13.49,73.88,13.49Z"/><path class="cls-2" d="M17.56,50.31c1.8,4.17,13,3.34,25.05-1.86s19-16.58,18.67-16.6C29,30.56,30.36,20.12,30.36,20.12S15.76,46.14,17.56,50.31Z"/><path class="cls-3" d="M27.29,16.61a3.48,3.48,0,1,1-7,0c0-1.93,3.48-7,3.48-7S27.29,14.68,27.29,16.61Z"/><path class="cls-3" d="M20.33,43.55a2,2,0,0,1-3.93,0c0-1.09,2-4,2-4S20.33,42.46,20.33,43.55Z"/><path class="cls-2" d="M85.67,38.64a5.49,5.49,0,1,1-11,0c0-3,5.49-11.11,5.49-11.11S85.67,35.6,85.67,38.64Z"/><path class="cls-2" d="M64.69,12a2.5,2.5,0,0,1-5,0c0-1.38,2.5-5,2.5-5S64.69,10.62,64.69,12Z"/><path class="cls-1" d="M61.8,37.51S75,47.92,44.71,79.32H72.58C87.14,53.66,61.8,37.51,61.8,37.51Z"/><path class="cls-3" d="M84,56.58a34.45,34.45,0,0,1-68.89,0c0-15.45,11.29-15.7,20.67-26.78C46.91,16.64,44.54,0,44.54,0S84,37.55,84,56.58Z"/><path class="cls-1" d="M45.59,66.76c-.07.21,0,.15.14.13a.88.88,0,0,0,.29-.11c.21-.11.42-.22.65-.37.45-.27.89-.62,1.35-1a27.93,27.93,0,0,0,2.64-2.4,31.17,31.17,0,0,0,7.66-13.53,35.72,35.72,0,0,0,1.24-8.68A39.78,39.78,0,0,1,67.4,58.51a45.6,45.6,0,0,1,.65,10.63,48.4,48.4,0,0,1-.62,5.54c-.17.94-.35,1.89-.6,2.86-.11.48-.26,1-.41,1.49-.07.25-.16.51-.27.81a7.47,7.47,0,0,1-.45,1A12.28,12.28,0,0,1,45.59,66.76Z"/><path class="cls-4" d="M53.5,79.25a38,38,0,0,0,4-4.52,40.65,40.65,0,0,0,3.39-5.23c2-3.66,3.38-7.75,2.84-12.23a19.1,19.1,0,0,1,2,6.57,31.24,31.24,0,0,1-.07,7.1,45.46,45.46,0,0,1-1.41,7,47,47,0,0,1-2.47,7l-.11.23a5.13,5.13,0,1,1-9.33-4.27A5,5,0,0,1,53.5,79.25Z"/><path class="cls-1" d="M49.55,69.45a6.37,6.37,0,0,1-12.74,0c0-3.52,6.37-12.89,6.37-12.89S49.55,65.93,49.55,69.45Z"/><path class="cls-1" d="M32.13,57.71a3.19,3.19,0,1,1-6.37,0C25.76,56,29,51.27,29,51.27S32.13,56,32.13,57.71Z"/><path class="cls-5" d="M65.47,16.9a4.1,4.1,0,0,1-8.14,0C57.33,14.9,61.4,4,61.4,4S65.47,14.9,65.47,16.9Z"/><polygon class="cls-6" points="69.56 39.51 75.63 35.4 68.95 37.06 69.56 39.51"/><polygon class="cls-6" points="29.4 39.51 23.34 35.4 30.02 37.06 29.4 39.51"/><path class="cls-5" d="M43.12,16.9a3.86,3.86,0,0,1-4.07,3.61A3.86,3.86,0,0,1,35,16.9C35,14.9,39.05,4,39.05,4S43.12,14.9,43.12,16.9Z"/><path class="cls-7" d="M40.46,16.93a2.29,2.29,0,0,1-4.53,0c0-1.09,2.27-7,2.27-7S40.46,15.84,40.46,16.93Z"/><path class="cls-7" d="M64.21,16.93a2.29,2.29,0,0,1-4.54,0c0-1.09,2.27-7,2.27-7S64.21,15.84,64.21,16.93Z"/><path class="cls-7" d="M88.84,37.66a12.51,12.51,0,0,0-2.45-7.19l-1,.22a30.14,30.14,0,0,1-2.23,4.37A6.42,6.42,0,0,0,88.84,37.66Z"/><path class="cls-7" d="M83.14,35.06c-.47.76-.94,1.51-1.42,2.26l-3.88,6a39.36,39.36,0,0,0-3.33,6.5,68.47,68.47,0,0,1-3.09,6.91C70.24,59,69,61.24,67.71,63.46s-2.55,4.47-3.87,6.68c-2.61,4.47-5.37,8.88-8.13,13.31l.79.7c4-3.39,7.81-7.05,11.5-10.82,1.82-1.91,3.62-3.84,5.38-5.82s3.42-4.05,5.07-6.15,3.41-4.15,5.07-6.33a25.78,25.78,0,0,0,3.85-7.28,28.56,28.56,0,0,0,1.52-8.54c0-.51,0-1,0-1.55A6.42,6.42,0,0,1,83.14,35.06Z"/><path class="cls-5" d="M81,82c0,5.75-14,10.4-31.31,10.4S18.42,87.76,18.42,82s14-73,31.3-73S81,76.26,81,82Z"/><path class="cls-8" d="M67.62,90.55a77.6,77.6,0,0,1-18.78,2.6A67.29,67.29,0,0,1,30,90.09c0-3.22,9.13-43.66,18.82-43.66S67.62,87.33,67.62,90.55Z"/><ellipse class="cls-8" cx="42.09" cy="20.58" rx="5.98" ry="2.82" transform="translate(0.58 42.32) rotate(-53.7)"/><circle class="cls-3" cx="41.21" cy="20.51" r="0.88"/><circle class="cls-3" cx="58.22" cy="20.51" r="0.88"/><rect class="cls-5" x="30.02" y="47.47" width="8.13" height="51.15" rx="3.62" ry="3.62"/><rect class="cls-5" x="60.35" y="47.47" width="8.13" height="51.15" rx="3.62" ry="3.62"/><rect class="cls-5" x="73.29" y="62.71" width="11.15" height="27" rx="4.97" ry="4.97"/><rect class="cls-5" x="15.58" y="62.71" width="11.15" height="27" rx="4.97" ry="4.97"/><circle class="cls-8" cx="17.35" cy="88.39" r="1.77"/><circle class="cls-8" cx="20.4" cy="89.7" r="1.77"/><circle class="cls-8" cx="23.94" cy="88.85" r="1.77"/><circle class="cls-8" cx="76.08" cy="88.39" r="1.77"/><circle class="cls-8" cx="79.13" cy="89.7" r="1.77"/><circle class="cls-8" cx="82.67" cy="88.85" r="1.77"/><circle class="cls-8" cx="61.12" cy="96.92" r="1.77"/><circle class="cls-8" cx="64.17" cy="98.23" r="1.77"/><circle class="cls-8" cx="67.71" cy="97.38" r="1.77"/><circle class="cls-8" cx="30.79" cy="96.92" r="1.77"/><circle class="cls-8" cx="33.83" cy="98.23" r="1.77"/><circle class="cls-8" cx="37.38" cy="97.38" r="1.77"/><polygon class="cls-1" points="41.21 34.43 42.61 38.84 44.44 34.43 41.21 34.43"/><polygon class="cls-1" points="44 34.43 45.4 38.84 47.23 34.43 44 34.43"/><polygon class="cls-1" points="52.92 34.43 54.33 38.84 56.16 34.43 52.92 34.43"/><polygon class="cls-1" points="55.71 34.43 57.12 38.84 58.95 34.43 55.71 34.43"/><ellipse class="cls-8" cx="44.3" cy="30.58" rx="7.87" ry="5.32" transform="translate(-7.45 15.76) rotate(-18.63)"/><ellipse class="cls-8" cx="56.11" cy="30.58" rx="5.32" ry="7.87" transform="translate(9.21 73.98) rotate(-71.37)"/><ellipse class="cls-8" cx="50.07" cy="25.44" rx="3.41" ry="1.66"/><path class="cls-9" d="M30,35.06s18.05,14,39.87.28l2,5.61s-19.72,14.93-44-.35"/><path class="cls-6" d="M32.71,40a1.14,1.14,0,0,1-1.35.89A23.44,23.44,0,0,1,28.13,39a23.25,23.25,0,0,1,3.69-.4A1.15,1.15,0,0,1,32.71,40Z"/><path class="cls-6" d="M37,42a1.16,1.16,0,0,1-1.36.89,8.67,8.67,0,0,1-2.13-1.58,8.4,8.4,0,0,1,2.6-.67A1.15,1.15,0,0,1,37,42Z"/><path class="cls-6" d="M41.32,43.49a1.14,1.14,0,0,1-1.36.88c-.62-.13-1-1.41-1-1.41s.83-1,1.45-.83A1.15,1.15,0,0,1,41.32,43.49Z"/><circle class="cls-6" cx="44.68" cy="43.94" r="1.08"/><path class="cls-6" d="M66.25,40a1.15,1.15,0,0,0,1.36.89A23.85,23.85,0,0,0,70.83,39a23.11,23.11,0,0,0-3.69-.4A1.15,1.15,0,0,0,66.25,40Z"/><path class="cls-6" d="M62,42a1.16,1.16,0,0,0,1.36.89,8.67,8.67,0,0,0,2.13-1.58,8.4,8.4,0,0,0-2.6-.67A1.15,1.15,0,0,0,62,42Z"/><path class="cls-6" d="M57.64,43.49a1.14,1.14,0,0,0,1.36.88c.62-.13,1-1.41,1-1.41s-.83-1-1.45-.83A1.15,1.15,0,0,0,57.64,43.49Z"/><circle class="cls-6" cx="54.28" cy="43.94" r="1.08"/><circle class="cls-6" cx="49.31" cy="44.34" r="1.08"/></svg>