<svg id="Layer_1" data-name="Layer 1" xmlns="http://www.w3.org/2000/svg" viewBox="0 0 100 100"><defs><style>.cls-1{fill:#7a534e;}.cls-2{fill:#fcca98;}.cls-3{fill:#3e3e3f;}.cls-4{fill:#f37d3b;}.cls-5{fill:#fff;}.cls-6{fill:#171717;}</style></defs><title>vulcan</title><path class="cls-1" d="M43.44,23.24V3.54A41.73,41.73,0,0,0,28,0H27c-1.4,0-7.43.11-15.68,3.54v19.7S10.67,25.82,9,24.82c0,0,.07,2,1.76,2H27.31V22h.14v4.8H44c1.69,0,1.76-2,1.76-2C44.09,25.82,43.44,23.24,43.44,23.24Z"/><path class="cls-2" d="M12.08,5.73V19.17a15.23,15.23,0,0,0,30.46,0V5.73Z"/><circle class="cls-3" cx="16.21" cy="13.53" r="1.23"/><circle class="cls-3" cx="39.05" cy="13.57" r="1.23"/><circle class="cls-2" cx="44.5" cy="11.39" r="2.93"/><circle class="cls-2" cx="42.68" cy="15.07" r="2.56"/><circle class="cls-2" cx="10.27" cy="11.39" r="2.93"/><circle class="cls-2" cx="12.09" cy="15.07" r="2.56"/><polygon class="cls-4" points="24.3 20.81 30.32 20.81 27.31 9.82 24.3 20.81"/><rect class="cls-2" x="7.29" y="29.5" width="40.56" height="38.92" rx="17.3" ry="17.3"/><rect class="cls-2" x="6.71" y="32.27" width="39.96" height="10.71" rx="5.35" ry="5.35"/><rect class="cls-2" x="41.43" y="33.51" width="6.31" height="17.53" rx="3.16" ry="3.16"/><rect class="cls-2" x="28.52" y="56.35" width="8.75" height="31.33" rx="4.37" ry="4.37"/><rect class="cls-2" x="15.94" y="56.35" width="8.75" height="31.33" rx="4.37" ry="4.37"/><rect class="cls-2" x="5.92" y="33.51" width="6.31" height="17.53" rx="3.16" ry="3.16"/><polygon class="cls-1" points="12.24 21.33 42.69 21.33 42.69 31.1 40.12 30.74 38.46 32.57 36.11 31.37 34.09 33.51 30.32 32.27 28.33 32.63 23.45 33.09 22.36 33.99 20.1 32.27 15.71 33.51 15.71 31.55 13.86 31.37 11.32 25.13 12.24 21.33"/><rect class="cls-2" x="22.6" y="23.2" width="8.86" height="1.45" rx="0.72" ry="0.72"/><path class="cls-5" d="M13.79,32S30.28,49.52,41.43,48.44V68.72H12.23V32Z"/><rect class="cls-1" x="19.14" y="58.77" width="37.94" height="4.52" rx="2.26" ry="2.26"/><rect class="cls-1" x="-1.32" y="58.77" width="37.94" height="4.52" rx="2.26" ry="2.26"/><rect class="cls-3" x="53.33" y="53.73" width="7.51" height="17.07" rx="3.54" ry="3.54"/><rect class="cls-3" x="50.16" y="67.99" width="13.84" height="4.02" rx="2.01" ry="2.01"/><path class="cls-3" d="M60.84,60.33V55.6s-1.18-5.06-7.51-7.05V61.7"/><rect class="cls-2" x="41.43" y="48.96" width="6.31" height="17.53" rx="3.16" ry="3.16"/><rect class="cls-2" x="5.92" y="48.96" width="6.31" height="17.53" rx="3.16" ry="3.16"/><circle class="cls-3" cx="29.06" cy="50.04" r="0.53"/><circle class="cls-3" cx="37.15" cy="53.04" r="1.89"/><circle class="cls-3" cx="8.33" cy="57.41" r="0.74"/><circle class="cls-3" cx="34.49" cy="20.83" r="0.49"/><circle class="cls-3" cx="21.83" cy="63.69" r="0.77"/><circle class="cls-3" cx="29.45" cy="67.18" r="2.01"/><path class="cls-6" d="M47.75,49.18c-1.09,0-2,2.55-2,5.68s.83,5.48,1.87,5.65a3.08,3.08,0,0,0,.1-.75Z"/><rect class="cls-3" x="52.13" y="75.15" width="40.01" height="9.21" rx="4.6" ry="4.6"/><path class="cls-3" d="M55.36,80.17s6.45,5.38,5.46,16.67H78.31s-2.42-12.15.6-18.29H89.85"/><path class="cls-3" d="M89.85,80.17s-6.45,5.38-5.46,16.67H66.89s2.42-12.15-.59-18.29H55.36"/><rect class="cls-3" x="56.72" y="96.84" width="31.45" height="3.16" rx="1.58" ry="1.58"/><path class="cls-3" d="M85.13,79.75s11.11.27,16.19,4.18c0,0-5,4.66-11,4.9,0,0-3.29-.18-6.51,4.1"/></svg>