<svg id="Layer_1" data-name="Layer 1" xmlns="http://www.w3.org/2000/svg" viewBox="0 0 100 100"><defs><style>.cls-1{fill:#faaf40;}.cls-2{fill:#ffc640;}.cls-3{fill:#ffdb91;}</style></defs><title>holy grail</title><rect class="cls-1" x="6.05" width="87.89" height="9.34"/><path class="cls-2" d="M58.71,52.42A44,44,0,0,0,94,9.34H6.05A44,44,0,0,0,41.28,52.42a5.92,5.92,0,0,1,4.64,5.12l1.7,13.58-.57,4.45A28.28,28.28,0,0,1,36.66,94.05a21.43,21.43,0,0,0-5.1,6H68.44a21.36,21.36,0,0,0-5.09-5.94A28.33,28.33,0,0,1,53,75.57l-.59-4.65,1.69-13.38A6,6,0,0,1,58.71,52.42Z"/><circle class="cls-3" cx="50" cy="69.67" r="5.2"/><path class="cls-1" d="M50,66.05a3.62,3.62,0,1,1-3.62,3.62A3.63,3.63,0,0,1,50,66.05m0-3.16a6.78,6.78,0,1,0,6.78,6.78A6.79,6.79,0,0,0,50,62.89Z"/><path class="cls-3" d="M17,14.54a5.2,5.2,0,1,1,5.2-5.2A5.2,5.2,0,0,1,17,14.54Z"/><path class="cls-1" d="M17,5.72a3.62,3.62,0,1,1-3.62,3.62A3.63,3.63,0,0,1,17,5.72m0-3.15a6.78,6.78,0,1,0,6.78,6.77A6.78,6.78,0,0,0,17,2.57Z"/><path class="cls-3" d="M39,14.54a5.2,5.2,0,1,1,5.2-5.2A5.2,5.2,0,0,1,39,14.54Z"/><path class="cls-1" d="M39,5.72a3.62,3.62,0,1,1-3.62,3.62A3.63,3.63,0,0,1,39,5.72m0-3.15a6.78,6.78,0,1,0,6.78,6.77A6.78,6.78,0,0,0,39,2.57Z"/><path class="cls-3" d="M61,14.54a5.2,5.2,0,1,1,5.2-5.2A5.2,5.2,0,0,1,61,14.54Z"/><path class="cls-1" d="M61,5.72a3.62,3.62,0,1,1-3.62,3.62A3.63,3.63,0,0,1,61,5.72m0-3.15a6.78,6.78,0,1,0,6.78,6.77A6.78,6.78,0,0,0,61,2.57Z"/><path class="cls-3" d="M83,14.54a5.2,5.2,0,1,1,5.2-5.2A5.2,5.2,0,0,1,83,14.54Z"/><path class="cls-1" d="M83,5.72a3.62,3.62,0,1,1-3.62,3.62A3.63,3.63,0,0,1,83,5.72m0-3.15a6.78,6.78,0,1,0,6.78,6.77A6.78,6.78,0,0,0,83,2.57Z"/><rect class="cls-1" x="28.08" y="97.57" width="43.84" height="2.43" rx="1.22" ry="1.22"/><ellipse class="cls-3" cx="67.79" cy="41.87" rx="9.35" ry="4.72" transform="translate(-11.65 35.75) rotate(-27.3)"/></svg>