<svg id="Layer_1" data-name="Layer 1" xmlns="http://www.w3.org/2000/svg" viewBox="0 0 100 100"><defs><style>.cls-1{fill:#ffc640;}.cls-2{fill:#ffdb91;}</style></defs><title>apple of discord</title><path class="cls-1" d="M67.94,19.45,50,21.42l-17.94-2A21.33,21.33,0,0,0,8.68,44.06L14,76.64A27.78,27.78,0,0,0,43.57,99.91l6.43-.5,6.43.5A27.78,27.78,0,0,0,86.05,76.64l5.27-32.58A21.33,21.33,0,0,0,67.94,19.45Z"/><polygon class="cls-1" points="51.57 26.43 47.33 26.43 46.07 4.18 52.83 4.18 51.57 26.43"/><path class="cls-1" d="M79.88-3.32h0a0,0,0,0,1,0,0v0a25,25,0,0,1-25,25h0a0,0,0,0,1,0,0v0A25,25,0,0,1,79.88-3.32Z" transform="translate(6.4 -20.9) rotate(18.5)"/><circle class="cls-2" cx="73.27" cy="36.49" r="10.06"/></svg>