<svg id="Layer_1" data-name="Layer 1" xmlns="http://www.w3.org/2000/svg" viewBox="0 0 100 100"><defs><style>.cls-1{fill:#ffc640;}.cls-2{fill:#069274;}.cls-3{fill:#09a582;}.cls-4{fill:#231f20;}</style></defs><title>hydra</title><path class="cls-1" d="M38,25.31l-4.79-2.64s-5.82,10,2.46,15.95,5.12-3.85,5.12-3.85"/><path class="cls-1" d="M83.5,18.91l-4-3s-6.18,5.4-1.32,11.18c4.49,5.33,5.9,3.18,5.65,5.44,0,.18-.06.4-.1.65-.56,3.33,7.69,0,7.69,0"/><path class="cls-1" d="M64.9,24.31l4.34-1.64S72.82,35.19,64.9,35c0,0-1.82-.11-1.76,2.23l-7.51.26.76-9.76"/><path class="cls-1" d="M17.32,15.73V10s12-1.13,15.3,6.4,0,12.07,0,12.07h-6"/><path class="cls-2" d="M78.47,84.26c10.84,11.91,16.76.17,16.76.17s-6,7.69-12.94-6C77.5,69,71.37,70.35,68,72.12L67.49,79A15.15,15.15,0,0,1,78.47,84.26Z"/><polygon class="cls-3" points="78.83 76.2 83.5 76.83 81.87 80.3 78.83 76.2"/><polygon class="cls-3" points="83.45 82.4 86.5 82.36 85.82 85.08 83.45 82.4"/><polygon class="cls-3" points="88.49 86.81 90.77 85.56 90.19 87.21 88.49 86.81"/><rect class="cls-2" x="40.15" y="75.72" width="4.14" height="16.15" rx="2.07" ry="2.07"/><rect class="cls-2" x="55.86" y="75.72" width="4.14" height="16.15" rx="2.07" ry="2.07"/><rect class="cls-3" x="25.62" y="54.38" width="50.37" height="29.42" rx="14.71" ry="14.71"/><rect class="cls-3" x="29.56" y="68.25" width="6.14" height="23.94" rx="3.07" ry="3.07"/><rect class="cls-3" x="65.13" y="68.25" width="6.14" height="23.94" rx="3.07" ry="3.07"/><path class="cls-3" d="M35.69,71.67a5.08,5.08,0,0,1-1.93-.39C33,71,15.91,63.73,12,50.26c-1.88-6.45-.54-13,4-19.47a31.78,31.78,0,0,0,3.51-6.06A24.56,24.56,0,0,0,14,26a5,5,0,0,1-3.46-9.44c3.89-1.42,13.38-4.13,17.71,1.5,4.17,5.4-.32,13.15-4.05,18.5-2.73,3.91-3.57,7.47-2.58,10.89,2.16,7.39,12.27,13,16,14.55a5,5,0,0,1-1.93,9.68Z"/><path class="cls-3" d="M34.66,69.42a5,5,0,0,1-3.86-1.81c-.63-.76-6.13-7.6-5.43-14.93A12.62,12.62,0,0,1,30.13,44c5.08-4.15,7.29-9.62,7.07-11.28a5,5,0,0,1,5.4-8.48A9.58,9.58,0,0,1,47.22,32c.44,6.13-4,14.27-10.74,19.79a2.59,2.59,0,0,0-1.1,1.89c-.24,2.49,2,6.17,3.16,7.56a5,5,0,0,1-3.88,8.23Z"/><path class="cls-3" d="M35.69,64.37a5,5,0,0,1-1.1-9.93c4.28-1,16.42-5.38,16.16-12.59l0-1.28c-.43-11.84-.61-16.74,10.07-18.43a5,5,0,0,1,1.57,9.94c-.36.05-1.1.17-1.69.29-.13,1.53,0,4.61.1,7.83l0,1.29c.49,13.62-14.86,20.71-24,22.76A5.22,5.22,0,0,1,35.69,64.37Z"/><path class="cls-3" d="M60.82,63.59a5,5,0,0,1-5-4.5c-.51-4.93.65-14.46,8.25-18.93,3.08-1.81,2.51-3.56,2.5-3.58A5,5,0,0,1,76,33c1.3,3.35,1.54,11-6.78,15.87-3.87,2.27-3.35,9.18-3.34,9.25a5,5,0,0,1-4.52,5.48A4.07,4.07,0,0,1,60.82,63.59Z"/><path class="cls-3" d="M71.27,71.66a4.83,4.83,0,0,1-1.62-.27A5,5,0,0,1,66.51,65c.59-1.76,6.14-17.22,18-19.76C85,45.15,85.66,44,86,42.41c1.34-5.89-1-13.9-2.63-15.33a5,5,0,0,1,4.14-9.16c7,3,9.58,15.64,8.79,23.61C95.59,49,92.05,53.94,86.6,55.11S77.08,65.21,76,68.26A5,5,0,0,1,71.27,71.66ZM83.54,27.15h0ZM83.35,27Z"/><path class="cls-1" d="M66.44,67A2.56,2.56,0,0,0,64,64.69H35.64A2.56,2.56,0,0,0,33.23,67a2.52,2.52,0,0,0,2.18,2.27,2.28,2.28,0,0,0,0,4.55,2.52,2.52,0,0,0-2.2,2.28,2.67,2.67,0,0,0,2.89,2.36h2.23a2.44,2.44,0,0,0-1.9,2.2A2.67,2.67,0,0,0,39.34,83H41.9a2.81,2.81,0,0,0,2.8,1.83h10A2.82,2.82,0,0,0,57.49,83h2.56a2.66,2.66,0,0,0,2.88-2.35A2.43,2.43,0,0,0,61,78.47h2.52a2.66,2.66,0,0,0,2.88-2.36,2.52,2.52,0,0,0-2.19-2.28,2.28,2.28,0,0,0,0-4.55A2.51,2.51,0,0,0,66.44,67Z"/><path class="cls-3" d="M.2,25.49h0a4.86,4.86,0,0,1,3.27-6L13,16.64a4.87,4.87,0,0,1,6,3.26h0"/><path class="cls-3" d="M21.48,19h0a4.86,4.86,0,0,1-3.27,6l-9.5,2.82a4.86,4.86,0,0,1-6-3.27h0"/><polygon class="cls-1" points="3.64 24.47 5.24 23.99 3.75 21.9 3.64 24.47"/><polygon class="cls-1" points="7.25 23.39 8.86 22.92 7.36 20.83 7.25 23.39"/><polygon class="cls-1" points="10.86 22.32 12.47 21.84 10.97 19.76 10.86 22.32"/><polygon class="cls-1" points="14.47 21.25 16.08 20.77 14.59 18.68 14.47 21.25"/><path class="cls-3" d="M1.36,21.56.25,17.82s3.25-.09,4.07,1.93"/><path class="cls-3" d="M100,12h0a4.87,4.87,0,0,0-6.84-.56L85.6,17.8A4.87,4.87,0,0,0,85,24.64h0"/><path class="cls-3" d="M82.9,26.2h0a4.86,4.86,0,0,0,6.83.56l7.56-6.4a4.87,4.87,0,0,0,.57-6.84h0"/><polygon class="cls-1" points="97.26 14.28 95.99 15.36 95.06 12.97 97.26 14.28"/><polygon class="cls-1" points="94.39 16.72 93.11 17.8 92.18 15.41 94.39 16.72"/><polygon class="cls-1" points="91.51 19.15 90.23 20.23 89.31 17.84 91.51 19.15"/><polygon class="cls-1" points="88.64 21.59 87.36 22.67 86.43 20.28 88.64 21.59"/><path class="cls-3" d="M96.07,10.78l-2.52-3s-1.85,2.67-.61,4.46"/><path class="cls-3" d="M48.29,12.84h0a4.87,4.87,0,0,0-6.5,2.2L37.4,23.92a4.87,4.87,0,0,0,2.2,6.5h0"/><path class="cls-3" d="M38.26,32.71h0a4.86,4.86,0,0,0,6.49-2.2l4.39-8.89a4.84,4.84,0,0,0-2.2-6.49h0"/><polygon class="cls-1" points="46.7 16.06 45.96 17.56 44.15 15.73 46.7 16.06"/><polygon class="cls-1" points="45.03 19.43 44.29 20.94 42.48 19.11 45.03 19.43"/><polygon class="cls-1" points="43.36 22.81 42.62 24.32 40.81 22.49 43.36 22.81"/><polygon class="cls-1" points="41.69 26.19 40.95 27.69 39.15 25.87 41.69 26.19"/><path class="cls-3" d="M44.22,13.32l-3.5-1.73s-.64,3.19,1.22,4.34"/><path class="cls-3" d="M53.53,10.81h0A4.87,4.87,0,0,1,60,13l4.39,8.88a4.87,4.87,0,0,1-2.2,6.5h0"/><path class="cls-3" d="M63.56,30.67h0a4.85,4.85,0,0,1-6.49-2.19l-4.39-8.89a4.84,4.84,0,0,1,2.2-6.49h0"/><polygon class="cls-1" points="55.12 14.03 55.86 15.53 57.67 13.7 55.12 14.03"/><polygon class="cls-1" points="56.79 17.4 57.53 18.91 59.34 17.08 56.79 17.4"/><polygon class="cls-1" points="58.46 20.78 59.2 22.28 61.01 20.46 58.46 20.78"/><polygon class="cls-1" points="60.13 24.16 60.87 25.66 62.67 23.84 60.13 24.16"/><path class="cls-3" d="M57.6,11.29l3.5-1.73s.64,3.19-1.22,4.34"/><path class="cls-3" d="M89.33,35h0a4.85,4.85,0,0,0-4.84-4.86l-9.91,0A4.87,4.87,0,0,0,69.72,35h0"/><path class="cls-3" d="M67.08,34.77h0a4.86,4.86,0,0,0,4.84,4.86l9.91,0a4.86,4.86,0,0,0,4.86-4.84h0"/><polygon class="cls-1" points="85.75 35 84.07 35 84.91 32.58 85.75 35"/><polygon class="cls-1" points="81.98 34.99 80.3 34.99 81.14 32.57 81.98 34.99"/><polygon class="cls-1" points="78.21 34.98 76.53 34.98 77.38 32.56 78.21 34.98"/><polygon class="cls-1" points="74.44 34.98 72.77 34.97 73.61 32.55 74.44 34.98"/><path class="cls-3" d="M87.11,31.57v-3.9s-3.14.83-3.35,3"/><circle class="cls-4" cx="19.84" cy="18.62" r="0.81"/><circle class="cls-4" cx="38.02" cy="28.51" r="0.81"/><circle class="cls-4" cx="64.63" cy="27.91" r="0.81"/><circle class="cls-4" cx="83.89" cy="22.28" r="0.81"/><circle class="cls-4" cx="69.99" cy="33.2" r="0.81"/></svg>