<svg id="Layer_1" data-name="Layer 1" xmlns="http://www.w3.org/2000/svg" viewBox="0 0 100 100"><defs><style>.cls-1{fill:#ffc640;}</style></defs><title>immortality</title><path class="cls-1" d="M21.29,72.37a19.91,19.91,0,0,1-10.53-3.12,22.6,22.6,0,0,1,0-38.5,19,19,0,0,1,18.77-1.19C36,32.73,51.62,44.08,53.38,45.37L59.73,50l-6.35,4.63C51.62,55.92,36,67.27,29.53,70.44A18.65,18.65,0,0,1,21.29,72.37Zm0-33.26a8.68,8.68,0,0,0-4.49,1.37,11.12,11.12,0,0,0,0,19,7.79,7.79,0,0,0,7.65.62C27.67,58.58,34.58,53.9,40.14,50c-5.56-3.9-12.47-8.58-15.66-10.14A7.11,7.11,0,0,0,21.32,39.11Z"/><path class="cls-1" d="M78.71,72.37a18.65,18.65,0,0,1-8.24-1.93C64,67.27,48.38,55.92,46.62,54.63L40.27,50l6.35-4.63C48.38,44.08,64,32.73,70.47,29.56a19.07,19.07,0,0,1,18.77,1.19,22.6,22.6,0,0,1,0,38.5A19.91,19.91,0,0,1,78.71,72.37ZM59.86,50c5.56,3.9,12.47,8.58,15.66,10.14a7.79,7.79,0,0,0,7.65-.62,11.12,11.12,0,0,0,0-19,7.81,7.81,0,0,0-7.66-.62C72.33,41.42,65.42,46.1,59.86,50Z"/></svg>