<svg id="Layer_1" data-name="Layer 1" xmlns="http://www.w3.org/2000/svg" viewBox="0 0 100 100"><defs><style>.cls-1{fill:#7f5752;}.cls-2{fill:#885e59;}.cls-3{fill:#fcca98;}.cls-4{fill:#231f20;}.cls-5{fill:#be9a77;}</style></defs><title>jackalope</title><rect class="cls-1" x="71.92" y="60.18" width="8.61" height="32.25" rx="4.3" ry="4.3"/><rect class="cls-1" x="19.3" y="60.18" width="8.61" height="32.25" rx="4.3" ry="4.3"/><path class="cls-2" d="M78.29,77.31c0,5.86-12.86,18.52-28.72,18.52S20.85,83.17,20.85,77.31s12.86-37,28.72-37S78.29,71.44,78.29,77.31Z"/><circle class="cls-2" cx="49.46" cy="42.08" r="19.65"/><rect class="cls-2" x="16.27" y="87.17" width="16.26" height="7.65" rx="3.83" ry="3.83"/><rect class="cls-2" x="68.09" y="87.17" width="16.26" height="7.65" rx="3.83" ry="3.83"/><path class="cls-2" d="M20.06,24A9.35,9.35,0,0,1,34.74,12.36c3.2,4.06,7.8,16.64,3.75,19.84S23.26,28,20.06,24Z"/><path class="cls-3" d="M23.44,23.42a6.41,6.41,0,1,1,9.9-8.15c2.25,2.73,5.58,11.29,2.85,13.55S25.69,26.15,23.44,23.42Z"/><path class="cls-2" d="M80.16,24A9.35,9.35,0,0,0,65.48,12.36C62.28,16.42,57.67,29,61.73,32.2S77,28,80.16,24Z"/><path class="cls-3" d="M76.77,23.42a6.41,6.41,0,1,0-9.9-8.15C64.62,18,61.29,26.56,64,28.82S74.52,26.15,76.77,23.42Z"/><path class="cls-3" d="M58.46,48.51c0,4.76-3.86,4.94-8.61,4.94s-8.62-.18-8.62-4.94a8.62,8.62,0,1,1,17.23,0Z"/><path class="cls-2" d="M48,51a.71.71,0,0,1-.47-.18.72.72,0,0,1-.08-1l1.68-1.95V43.92a.72.72,0,1,1,1.43,0v4.45l-2,2.35A.7.7,0,0,1,48,51Z"/><path class="cls-2" d="M51.71,50.93a.73.73,0,0,1-.55-.25l-2-2.36V43.87a.72.72,0,1,1,1.44,0v3.92l1.67,2a.71.71,0,0,1-.08,1A.69.69,0,0,1,51.71,50.93Z"/><path class="cls-4" d="M54.93,40.54c0,2.78-5,5-5,5s-5-2.25-5-5,2.25-2.64,5-2.64S54.93,37.77,54.93,40.54Z"/><circle class="cls-4" cx="36.24" cy="40.02" r="1.16"/><circle class="cls-4" cx="64.16" cy="40.02" r="1.16"/><path class="cls-5" d="M55.33,28A2.69,2.69,0,0,1,53,24L63.44,5.72A2.69,2.69,0,0,1,68.1,8.39L57.67,26.63A2.69,2.69,0,0,1,55.33,28Z"/><path class="cls-5" d="M77.57,9.74H65.94a2.69,2.69,0,1,1,0-5.37H77.57a2.69,2.69,0,1,1,0,5.37Z"/><path class="cls-5" d="M69.13,14.46H63.77a1.79,1.79,0,1,1,0-3.58h5.36a1.79,1.79,0,1,1,0,3.58Z"/><path class="cls-5" d="M64.56,7.37a1.78,1.78,0,0,1-1.26-.52L59.5,3.06A1.79,1.79,0,1,1,62,.53l3.79,3.79a1.79,1.79,0,0,1-1.27,3.05Z"/><path class="cls-5" d="M77.94,7.37a1.79,1.79,0,0,1-1.27-3L80.47.53A1.79,1.79,0,0,1,83,3.06L79.21,6.85A1.79,1.79,0,0,1,77.94,7.37Z"/><path class="cls-5" d="M66.13,19.09H60.77a1.79,1.79,0,0,1,0-3.58h5.36a1.79,1.79,0,0,1,0,3.58Z"/><path class="cls-5" d="M43.84,28a2.67,2.67,0,0,1-2.33-1.36L31.07,8.39a2.69,2.69,0,0,1,4.66-2.67L46.17,24a2.7,2.7,0,0,1-2.33,4Z"/><path class="cls-5" d="M33.23,9.74H21.6a2.69,2.69,0,0,1,0-5.37H33.23a2.69,2.69,0,1,1,0,5.37Z"/><path class="cls-5" d="M35.41,14.46H30a1.79,1.79,0,1,1,0-3.58h5.37a1.79,1.79,0,0,1,0,3.58Z"/><path class="cls-5" d="M34.61,7.37a1.79,1.79,0,0,1-1.27-3L37.14.53a1.79,1.79,0,0,1,2.53,2.53L35.88,6.85A1.79,1.79,0,0,1,34.61,7.37Z"/><path class="cls-5" d="M21.23,7.37A1.78,1.78,0,0,1,20,6.85l-3.8-3.79A1.79,1.79,0,0,1,18.71.53L22.5,4.32a1.79,1.79,0,0,1-1.27,3.05Z"/><path class="cls-5" d="M38.4,19.09H33a1.79,1.79,0,0,1,0-3.58H38.4a1.79,1.79,0,0,1,0,3.58Z"/><path class="cls-3" d="M49,72c-6.39,0-11.57,6.28-11.57,14a16,16,0,0,0,2.18,8.18,31.74,31.74,0,0,0,10,1.67,31.17,31.17,0,0,0,8.5-1.2A15.86,15.86,0,0,0,60.55,86C60.55,78.24,55.37,72,49,72Z"/><rect class="cls-2" x="35.77" y="67.75" width="8.61" height="32.25" rx="4.3" ry="4.3"/><rect class="cls-2" x="54.16" y="67.75" width="8.61" height="32.25" rx="4.3" ry="4.3"/></svg>