<svg id="Layer_1" data-name="Layer 1" xmlns="http://www.w3.org/2000/svg" viewBox="0 0 100 100"><defs><style>.cls-1{fill:#bcd2de;}.cls-2{fill:#346478;}.cls-3{fill:#447d93;}.cls-4{fill:#3e3e3f;}.cls-5{fill:#ffc640;}.cls-6{fill:#f37d3b;}.cls-7{fill:#98abb5;}.cls-8{fill:#bba5c1;}.cls-9{fill:#9a85b0;}</style></defs><title>jiangshi</title><rect class="cls-1" x="39.66" y="90.74" width="6.37" height="9.48" rx="3.19" ry="3.19" transform="translate(-42 34.21) rotate(-30)"/><rect class="cls-1" x="45.62" y="90.74" width="6.37" height="9.48" rx="3.19" ry="3.19" transform="matrix(0.87, -0.5, 0.5, 0.87, -41.2, 37.19)"/><rect class="cls-2" x="39.03" y="78.6" width="5.71" height="16.11" rx="2.86" ry="2.86"/><rect class="cls-2" x="45.5" y="78.6" width="5.71" height="16.11" rx="2.86" ry="2.86"/><ellipse class="cls-3" cx="45.83" cy="85.36" rx="14.06" ry="2.37"/><path class="cls-1" d="M79.72,44.27s7-2.15,7.45,2.89-3.72,2.93-3.72,2.93l-3.73-3.62"/><rect class="cls-3" x="31.77" y="38.75" width="28.12" height="37.07" rx="14.06" ry="14.06"/><rect class="cls-3" x="31.77" y="41.39" width="28.12" height="10.2" rx="5.1" ry="5.1"/><path class="cls-3" d="M44.35,43.42H81.47V58.7S76.94,48.77,45,48.31"/><path class="cls-4" d="M38,41.13H27.14s5.3,1.49,6.94,4.91H46.32V41.39"/><path class="cls-4" d="M51.34,41.13H62.23s-5.3,1.49-6.94,4.91H43V41.39"/><circle class="cls-5" cx="45.75" cy="3.19" r="3.19"/><circle class="cls-4" cx="45.55" cy="16.98" r="12.47"/><path class="cls-6" d="M62.2,12.1c0,2.69-7.3,7.5-16.3,7.5s-16.31-4.81-16.31-7.5,7.3-4.5,16.31-4.5S62.2,9.41,62.2,12.1Z"/><path class="cls-4" d="M62.2,13.65c0,2.69-7.3,7.5-16.3,7.5s-16.31-4.81-16.31-7.5,7.3-4.5,16.31-4.5S62.2,11,62.2,13.65Z"/><path class="cls-1" d="M31.32,16.12v12.8a14.51,14.51,0,0,0,29,0V16.12Z"/><circle class="cls-4" cx="35.25" cy="23.54" r="1.17"/><circle class="cls-4" cx="57" cy="23.58" r="1.17"/><circle class="cls-1" cx="62.2" cy="21.51" r="2.79"/><circle class="cls-1" cx="60.47" cy="25.01" r="2.44"/><circle class="cls-1" cx="29.59" cy="21.51" r="2.79"/><circle class="cls-1" cx="31.32" cy="25.01" r="2.44"/><rect class="cls-7" x="44.24" y="19.6" width="0.84" height="5" rx="0.42" ry="0.42"/><rect class="cls-7" x="47.18" y="19.6" width="0.84" height="5" rx="0.42" ry="0.42"/><rect class="cls-8" x="35.73" y="29.38" width="20.17" height="7.24" rx="3.62" ry="3.62"/><polygon class="cls-5" points="39.35 29.38 42.83 29.38 41.09 33.67 39.35 29.38"/><polygon class="cls-5" points="49.09 29.38 52.57 29.38 50.83 33.67 49.09 29.38"/><path class="cls-1" d="M68.31,47.07s7-2.15,7.45,2.89S72,52.89,72,52.89l-3.72-3.62"/><rect class="cls-3" x="31.77" y="58.7" width="28.12" height="26.64"/><rect class="cls-9" x="41.48" y="46.62" width="14.99" height="38.01"/><rect class="cls-2" x="47.32" y="45.19" width="1.41" height="38.19" rx="0.7" ry="0.7"/><rect class="cls-2" x="50.12" y="45.19" width="1.41" height="38.19" rx="0.7" ry="0.7"/><path class="cls-3" d="M32.27,44.72H69.38V60S64.86,50.06,33,49.6"/><rect class="cls-5" x="45.83" y="52.35" width="7.04" height="1.7" rx="0.85" ry="0.85"/><rect class="cls-5" x="45.83" y="62.59" width="7.04" height="1.7" rx="0.85" ry="0.85"/><rect class="cls-5" x="45.83" y="72.82" width="7.04" height="1.7" rx="0.85" ry="0.85"/></svg>