<svg id="Layer_1" data-name="Layer 1" xmlns="http://www.w3.org/2000/svg" viewBox="0 0 100 100"><defs><style>.cls-1{fill:#006850;}.cls-2{fill:#008569;}.cls-3{fill:#447d93;}.cls-4{fill:#09a582;}.cls-5{fill:#ffc640;}.cls-6{fill:#231f20;}</style></defs><title>jörmungandr</title><polyline class="cls-1" points="38.39 4.51 35.65 0 32.35 4.04 27.71 1.22 27.71 5.9 20.69 5.1 24.77 9.54 17.38 11.71 24.2 15.18 18.7 19.29 25.45 21.01 20.03 26.62 26.27 27.44 22.68 34.13 30.7 35.89 29.64 11.2"/><path class="cls-2" d="M33.28,40.42a5.29,5.29,0,0,1-4.81-3.08c-3.17-6.87-9.74-23.65-2.3-31.08,6.11-6.09,16-1.48,19.29,0A5.3,5.3,0,0,1,41,15.91c-4.84-2.25-6.88-2.15-7.37-2.06-1.15,2.26,1,11.51,4.47,19a5.31,5.31,0,0,1-4.82,7.52Z"/><path class="cls-2" d="M51.26,87.14c-.06-.15-.06,0-.08,0a.56.56,0,0,0,0,.2,2.72,2.72,0,0,0,0,.49,7,7,0,0,0,.15,1.07,8,8,0,0,0,.81,2.15,9.88,9.88,0,0,0,3.57,3.69,18,18,0,0,0,5.67,2.17c1.05.16,2.13.33,3.23.45L68,97.5l-3.19,1.18c-1.1.32-2.23.6-3.38.88a22.3,22.3,0,0,1-7.37.21,16.84,16.84,0,0,1-10.76-6.29A17.25,17.25,0,0,1,42,91.57a11.69,11.69,0,0,1-.57-1.06c-.09-.18-.18-.37-.27-.59a5.32,5.32,0,0,1-.28-.8Z"/><path class="cls-2" d="M19.76,64.23l-7.49-7.51c10.54-10.52,29.1-20,29.88-20.44L47,45.73C46.79,45.82,29.11,54.89,19.76,64.23Z"/><path class="cls-2" d="M52.74,59.38l-8.67-6.11C46.42,49.94,67.54,21,87,27.94l-3.58,10C74,34.56,58.7,50.92,52.74,59.38Z"/><circle class="cls-3" cx="54.45" cy="56.82" r="34.8"/><circle class="cls-3" cx="54.45" cy="56.82" r="34.8"/><path class="cls-3" d="M59.48,48.3a.38.38,0,0,0-.15.16.47.47,0,0,0,.09,0C59.48,48.35,59.53,48.25,59.48,48.3Z"/><path class="cls-3" d="M76.38,49.83c.05,0,.29.06,0,0Z"/><path class="cls-3" d="M72,49.61a.19.19,0,0,1,.16-.13.21.21,0,0,0-.16.08S72,49.59,72,49.61Z"/><path class="cls-3" d="M73.56,49.21s.34,0,.06,0Z"/><path class="cls-3" d="M73.29,49.16s.18,0,0,0Z"/><path class="cls-3" d="M80.93,41.55c-.29.2-.22.19-.21.61.28-.44.32.06.36.33C81.4,42.34,81.23,42,80.93,41.55Z"/><path class="cls-3" d="M74.05,49.37a.13.13,0,0,1,0-.07h0A.16.16,0,0,0,74.05,49.37Z"/><path class="cls-3" d="M79.3,42.79a1.08,1.08,0,0,0-.84-.8,1.83,1.83,0,0,1,.36.31c.42.41.09.94.88,1.08C79.33,43.23,79.05,43,79.3,42.79Z"/><path class="cls-3" d="M79.11,51.78l0-.08a.08.08,0,0,1-.05.08Z"/><path class="cls-3" d="M65.68,48.42l0,0s0,0,0,0Z"/><path class="cls-3" d="M79.49,52.45a.66.66,0,0,1,.12.17.41.41,0,0,0-.07-.11Z"/><path class="cls-3" d="M72.7,68.17l.06.08,0,0Z"/><path class="cls-3" d="M78,51.7a.13.13,0,0,0-.07-.06C77.72,51.49,78,51.67,78,51.7Z"/><path class="cls-3" d="M77.74,51.25a.08.08,0,0,1-.07,0S77.78,51.25,77.74,51.25Z"/><path class="cls-3" d="M77.34,51l.1.06-.07,0Z"/><path class="cls-3" d="M77.78,51.3v0a0,0,0,0,0,0,0Z"/><path class="cls-3" d="M70.79,50.18a.57.57,0,0,1,.08.13l0-.06Z"/><path class="cls-3" d="M69.08,49.43h0Z"/><path class="cls-3" d="M68.82,49.25l0,0,0,.08Z"/><path class="cls-3" d="M69,49.54a.58.58,0,0,0,0-.14.33.33,0,0,1,0,.21Z"/><path class="cls-3" d="M68.5,48.85l-.09,0a.23.23,0,0,1,.12.06Z"/><path class="cls-3" d="M65.18,49.54a.16.16,0,0,1,.06.08v0Z"/><path class="cls-3" d="M68.31,48.76l0,0,.06,0Z"/><path class="cls-3" d="M71.51,50.63l0,.06,0,0Z"/><path class="cls-3" d="M63.83,53.38h0a.27.27,0,0,1-.13-.13A.3.3,0,0,0,63.83,53.38Z"/><path class="cls-3" d="M65.92,48.52l-.06-.09a.54.54,0,0,1,.1.2Z"/><path class="cls-3" d="M79.68,52.77l.11.22,0-.08Z"/><path class="cls-3" d="M72.29,48.83h0S72.4,48.82,72.29,48.83Z"/><path class="cls-3" d="M64.78,54.11h0a.47.47,0,0,0-.17,0A.23.23,0,0,1,64.78,54.11Z"/><path class="cls-3" d="M65.67,50.17l-.08-.05a.24.24,0,0,1,.09.08S65.67,50.18,65.67,50.17Z"/><path class="cls-3" d="M64.24,54h0a.25.25,0,0,0-.06-.2A.19.19,0,0,1,64.24,54Z"/><path class="cls-3" d="M67.47,48.23l0,0Z"/><path class="cls-3" d="M78.87,51.61h0Z"/><path class="cls-3" d="M80,53.49c.19.41.35.85.53,1.25-.15-.34-.29-.72-.45-1.08Z"/><path class="cls-3" d="M76,65.08v0a.06.06,0,0,1,0,0Z"/><path class="cls-3" d="M75.48,67h0Z"/><path class="cls-3" d="M73.06,69.64v0a.28.28,0,0,1,0-.09Z"/><path class="cls-3" d="M72.78,70c.07,0,0,0,0,0Z"/><path class="cls-3" d="M76.16,65.46h0Z"/><path class="cls-3" d="M72.4,69.86h0S72.23,69.8,72.4,69.86Z"/><path class="cls-3" d="M73.06,69.1a.16.16,0,0,1,0,.08l0-.07Z"/><path class="cls-3" d="M77.59,64.63l0,0a.12.12,0,0,1-.1,0Z"/><path class="cls-3" d="M73,68.4a0,0,0,0,0,0,0s0,0,0,0Z"/><path class="cls-3" d="M76.13,66.07s0,0,.05,0h0Z"/><path class="cls-3" d="M76.06,66.14s0,0,0,.06a.35.35,0,0,0,0-.11Z"/><path class="cls-3" d="M60.42,34a.06.06,0,0,1,.06,0h0Z"/><path class="cls-3" d="M47,39.34s0,0,0,0,0,0,0,0Z"/><path class="cls-3" d="M46.65,40.42l0,0a0,0,0,0,0,0,0Z"/><path class="cls-3" d="M47.1,39.5s0,0,0,0,0,0,0,0Z"/><path class="cls-3" d="M46.11,43.07l0,0,.08-.08Z"/><path class="cls-3" d="M45.87,42.39h.05s0,0,0,0h0A.08.08,0,0,1,45.87,42.39Z"/><path class="cls-3" d="M47.34,39.21s0-.05,0-.07v.07Z"/><path class="cls-3" d="M46,42.16l0,0s0,0,0,0Z"/><path class="cls-3" d="M65.47,48.61a.35.35,0,0,1,.11,0h0Z"/><path class="cls-3" d="M46.64,40.39s0,0,0,0h0Z"/><path class="cls-3" d="M45.88,43.36s0,0,0,0h0Z"/><path class="cls-3" d="M46.08,42.75h.08s0,0,0,0-.05,0-.11,0S46.09,42.74,46.08,42.75Z"/><path class="cls-3" d="M45.74,43.57l.08-.08,0,0A0,0,0,0,0,45.74,43.57Z"/><path class="cls-3" d="M45.8,43.77l.06.08a1.47,1.47,0,0,0-.1-.13Z"/><path class="cls-3" d="M46.82,41.92l0,0a.08.08,0,0,1-.08,0Z"/><path class="cls-3" d="M45.81,43.12a0,0,0,0,1,0,0h0Z"/><path class="cls-3" d="M46.16,42.33l.08.05h0Z"/><path class="cls-3" d="M48,39.08l0,0h0Z"/><path class="cls-3" d="M60.82,33.89h0l-.1.08A.27.27,0,0,1,60.82,33.89Z"/><path class="cls-3" d="M49.81,34.68c.12-.08.15-.11.29-.1a.83.83,0,0,0-.22,0S49.8,34.68,49.81,34.68Z"/><path class="cls-3" d="M46.27,39.07l.16,0,0,0-.2,0Z"/><path class="cls-3" d="M60.78,33.88h0Z"/><path class="cls-3" d="M60.52,33.94h0Z"/><path class="cls-3" d="M45.61,39.09l0,0L45.58,39Z"/><path class="cls-3" d="M46.26,39.9l0,0a0,0,0,0,1-.05,0Z"/><path class="cls-3" d="M42.79,43.55h0s0,0,0,0Z"/><path class="cls-3" d="M61.42,34v0S61.34,34,61.42,34Z"/><path class="cls-3" d="M60.3,36.15s.05,0,.05,0h0Z"/><path class="cls-3" d="M60.49,35.64l0,0a.61.61,0,0,1,.05.12Z"/><path class="cls-3" d="M41.63,42.76l0,0a.19.19,0,0,1-.12-.1A.6.6,0,0,0,41.63,42.76Z"/><path class="cls-3" d="M47.35,39.14h0S47.34,39.14,47.35,39.14Z"/><path class="cls-3" d="M61.08,48.3l0,.06,0,0Z"/><path class="cls-3" d="M61,48.4l0,0s0,0,0,0Z"/><path class="cls-3" d="M62.26,47.53s0,0,0,.06h0A.08.08,0,0,0,62.26,47.53Z"/><path class="cls-3" d="M61.47,46.75l0,0a.05.05,0,0,1,0,0Z"/><path class="cls-3" d="M61.9,47h0C61.78,47,61.88,47,61.9,47Z"/><path class="cls-3" d="M60,44.9s0,0,0,0h0s0,0,0,.07,0-.12.15-.1a.15.15,0,0,1-.09,0Z"/><path class="cls-3" d="M47,41.67l0-.09v0A.09.09,0,0,1,47,41.67Z"/><path class="cls-3" d="M59.91,45.16h0v0Z"/><path class="cls-3" d="M60.85,46.27h0l-.08,0Z"/><path class="cls-3" d="M63,52.55h0Z"/><path class="cls-3" d="M62.45,52s0,0,0,.08v0Z"/><path class="cls-3" d="M65.25,49.16l.08,0-.06,0Z"/><path class="cls-3" d="M62,48.1s0,0,0,0,0-.07,0-.1S62,48.08,62,48.1Z"/><path class="cls-3" d="M61.86,51.65l.22.11a.7.7,0,0,1-.29-.21A.61.61,0,0,0,61.86,51.65Z"/><path class="cls-3" d="M60.14,45.32h.07a.18.18,0,0,1-.13-.06Z"/><path class="cls-3" d="M58.36,41.29h0Z"/><path class="cls-3" d="M58.69,39.18h0S58.67,39.17,58.69,39.18Z"/><path class="cls-3" d="M58.14,40.74a.34.34,0,0,1,0,.2V40.8A.06.06,0,0,1,58.14,40.74Z"/><path class="cls-3" d="M58.61,41.41l0,0a.05.05,0,0,1,0,.05Z"/><path class="cls-3" d="M58.09,40.15a.41.41,0,0,0,0,.09l0,.06-.1-.16Z"/><path class="cls-3" d="M58.23,39.74a0,0,0,0,1,0,0h0Z"/><path class="cls-3" d="M58.07,40.11h0l0,0Z"/><path class="cls-3" d="M59.76,44.35l.07,0-.1-.06Z"/><path class="cls-3" d="M58.57,41.49l0,0s0,0,0-.06Z"/><path class="cls-3" d="M59.14,42.14a.14.14,0,0,1,0,.06h0Z"/><path class="cls-3" d="M59.31,43.64h.1a.23.23,0,0,1-.14,0Z"/><path class="cls-3" d="M60.68,37.75h0l0,0A0,0,0,0,1,60.68,37.75Z"/><path class="cls-3" d="M59.61,43.52a.19.19,0,0,1,0,.08s0,0,0-.07Z"/><path class="cls-3" d="M58.73,41.57h0Z"/><path class="cls-3" d="M60.35,36.56h0v0S60.37,36.56,60.35,36.56Z"/><path class="cls-3" d="M60.47,36.91l-.06.05,0,0,.07,0A0,0,0,0,1,60.47,36.91Z"/><path class="cls-3" d="M60.12,38.07l.05,0-.31.11A2.67,2.67,0,0,1,60.12,38.07Z"/><path class="cls-3" d="M71.61,50l.09.07a.13.13,0,0,1-.1-.09Z"/><path class="cls-4" d="M46.47,33.36c.07-.09.19-.14.27-.25s-.08,0-.06-.13a.76.76,0,0,0-.15,0c.09.17,0,.07-.1.12S46.62,33.19,46.47,33.36Z"/><path class="cls-4" d="M43.28,36.34s-.1-.11-.11-.16S43,36.36,43.28,36.34Z"/><path class="cls-4" d="M45.34,33.45a1.33,1.33,0,0,0,.24.12C45.49,33.38,45.43,33.48,45.34,33.45Z"/><path class="cls-4" d="M44,33.77c-.16.15-.22.28-.5.33.17,0,.14.13.43.16a3,3,0,0,0-.68.64c.16-.11.41-.22.6-.33-.06.06-.15,0-.21.14a1.47,1.47,0,0,1,.27-.06c0,.06-.09.07,0,.16a1.48,1.48,0,0,0-.53.6c.24,0,.57.14.9.22-.43.13-.42.18-.16.45a3.64,3.64,0,0,0-.21.5,1,1,0,0,0-1-.12c.09,0,.19,0,.29.06-.1.35-.44.41-.84.33a3.8,3.8,0,0,1,.37.38.92.92,0,0,0,.86.26,8,8,0,0,1-2,.27,16.13,16.13,0,0,1,1.73.4,2.77,2.77,0,0,1,.42.15c.45.18,1.07.42,1.43.17a3.86,3.86,0,0,1-.42-.26c.16,0,.27-.09.22-.08.74.19.82-.67,0-.79.18-.27.29-.24-.07-.58a2.11,2.11,0,0,1,.31.21,2.24,2.24,0,0,0-1-2.1,1.84,1.84,0,0,0,.56.1l-.27-.15c1.15.18,1-.57,0-.8a4.48,4.48,0,0,1,.78-.35c-.52-.19-1-.5-1.12,0C44.09,33.64,43.94,33.54,44,33.77Z"/><path class="cls-4" d="M43,34.65c0-.08.17.09.17-.14a1,1,0,0,0-.19,0S43.09,34.54,43,34.65Z"/><path class="cls-4" d="M43.45,34.49c-.14,0-.12,0-.22,0S43.33,34.59,43.45,34.49Z"/><path class="cls-4" d="M43.42,33.59c.08.13.16.29.2.36C43.82,33.77,43.72,33.62,43.42,33.59Z"/><path class="cls-4" d="M43.53,34.25c-.17,0-.19-.27-.28,0C43.4,34.38,43.55,34.26,43.53,34.25Z"/><path class="cls-4" d="M43.12,33.5Z"/><path class="cls-4" d="M44,33.14c-.4,0-.44,0-.5.2,0,0,.17,0,.24,0A1.83,1.83,0,0,0,44,33.14Z"/><path class="cls-4" d="M57.94,47.77c-.29-.27-.17-.06-.14-.07S58.07,48,57.94,47.77Z"/><path class="cls-4" d="M53.09,38.73c.16-.15.38-.36.51-.5C53.38,38.37,53.17,38.47,53.09,38.73Z"/><path class="cls-4" d="M54.56,38.33c-.29-.2-.35,0-.53.18a.32.32,0,0,1,0,.17A1.34,1.34,0,0,0,54.56,38.33Z"/><path class="cls-4" d="M43.14,45.47l.15.1Z"/><path class="cls-4" d="M42.76,45.28a1,1,0,0,0-.49.06C42.54,45.65,42.8,45.67,42.76,45.28Z"/><path class="cls-4" d="M41.76,45.46c-.09,0-.15-.07-.24,0C41.64,45.6,41.64,45.48,41.76,45.46Z"/><path class="cls-4" d="M53.69,32.72l.05,0Z"/><path class="cls-4" d="M53.69,32.72Z"/><path class="cls-4" d="M58.27,32c.21.07.28.19.52.09A2.65,2.65,0,0,0,58.27,32Z"/><path class="cls-4" d="M54.71,31.78c-.15,0-.22-.12-.33,0C54.46,31.8,54.86,31.79,54.71,31.78Z"/><path class="cls-4" d="M55.81,32a1.64,1.64,0,0,0-.33-.06.89.89,0,0,1,.28-.3l-.42.16c0-.3-.09-.1-.21-.16s-.11.06.19.17a1.32,1.32,0,0,1-.5.06A1.71,1.71,0,0,0,55.81,32Z"/><path class="cls-4" d="M57.08,31.65a2.34,2.34,0,0,0-.46.21,1.11,1.11,0,0,0,.6,0A.37.37,0,0,1,57.08,31.65Z"/><path class="cls-4" d="M46.88,26.64h-.2A1.64,1.64,0,0,1,46.88,26.64Z"/><path class="cls-4" d="M47,26.64h-.07l.31,0C47.13,26.64,47,26.6,47,26.64Z"/><path class="cls-4" d="M58.52,32.21c.09.15.14,0,.29.08C58.77,32.28,58.66,32.14,58.52,32.21Z"/><path class="cls-4" d="M51.5,33.18Z"/><path class="cls-4" d="M56,31.85a.94.94,0,0,0,.51.07C56.34,31.69,56.22,31.64,56,31.85Z"/><path class="cls-4" d="M47.52,38.14h0Z"/><path class="cls-4" d="M52.64,49.74a1.42,1.42,0,0,0-.08-.18S52.62,49.8,52.64,49.74Z"/><path class="cls-4" d="M53.6,40v0l.07.06S53.63,40,53.6,40Z"/><path class="cls-4" d="M86.21,71.05a34.74,34.74,0,0,0-.56-29.66c-.32-.14-.73-.19-1-.31-.05-.21-.63-.39-1-.53a2.39,2.39,0,0,0,.43.26c-.75-.15-1.64-.38-2.34-.59a1.75,1.75,0,0,0,.2.19,2.15,2.15,0,0,1-.5-.12c.13.11.36.33.54.46a2.72,2.72,0,0,0-.43-.17c.26.16.41.4.65.58a5.11,5.11,0,0,1-.53,0,1.75,1.75,0,0,0,.33.34,2,2,0,0,1-.38-.38,1.62,1.62,0,0,0,.38,0,15.14,15.14,0,0,0-2.28-.87c0,.34.66,1,1.1,1.57-.67-.38-1.29-1.23-2.07-1.22a.05.05,0,0,0,0,0l.31.25a6.2,6.2,0,0,0-.79-.36,3.72,3.72,0,0,0,1.2,1.07,3.78,3.78,0,0,1-1.4-.91c-.24-.38.25-.54-.34-.91.29.47-.08.56-.51.55.66.64.06,1,.47,1.59a1.11,1.11,0,0,0,.59.37.33.33,0,0,0-.14,0c-.59.08.11.27-.1.46-.59.52-1.48,1-2.18-.22a2.32,2.32,0,0,1,.65.32s-.13,0-.11,0a1,1,0,0,0,.45.15l-.08-.2c1.39.18.12-2.09,0-2.73,0-.15.39-.26.15-.65a2,2,0,0,0-.92-.49c-.43,0-.52.59-1.15.53a.94.94,0,0,1,.14,1c.33.07.55.51.87.75-.34.45-2.63-2-3.42-1.91.13.16.19.36.29.49-.17.12-.21,0-.4,0-.16.27-.2.1-.2-.11-.43-.67-1.72-.32-2.35-.77.08,0,.19,0,.26,0s0-.29,0-.3.17.07.27.07a1.85,1.85,0,0,0-.84-.15c0,.05.13.07.14.14A12.49,12.49,0,0,0,68,38.27s0,.12,0,.14-.25-.09-.38-.11c-.31,1-2-1-.44-.36-.16-.6-.75-.74-1.22-1,.38.29.3,1.38.06,1.66-.35-.53-2.26-.89-1.57.06-.61,0-1-.88-1.54-.79.43.87.36,1.14-.4.19-.39-.49,0-1.2-.65-1.52,0,0,.12,0,.11,0-.21-.24-.38-.45-.59-.71.69.43,1.17,1,2,1.47s2.33.45,1.16-.67c-.68-.27-1.37-1.62-2.42-1.63l.17-.14c-.18-.1-.27-.21-.49-.34l.34.15a2.71,2.71,0,0,0-.34-.34,1.27,1.27,0,0,1-.8-.29,1.8,1.8,0,0,1-.38-.35,2.23,2.23,0,0,0,.83.29c-.23-.34-.61-.81-1-.45.14-.2,0-.19,0-.27a.54.54,0,0,0,.22-.08.75.75,0,0,0-.43-.17.14.14,0,0,0,.1.11c-.09,0-.33,0-.42.06a.74.74,0,0,0,.1-.27c-.21.08-.53.08-.73.17a3.92,3.92,0,0,1,.39-.25c-.38-.38-.72-.21-1,0a.84.84,0,0,0-.71-.47,2.29,2.29,0,0,1,.16.31c-.33-.26-.38-.27-.52-.05,0-.06-.24,0-.29,0,.1-.13.13-.11.21-.26a1.06,1.06,0,0,0-.35.15c-.12-.27,0-.13-.38-.21,0,0,0,.07,0,.11-.33-.21-.58.06-1,0,.12.06.27.15.39.2-.44-.11-.45-.22-.6.07-.18-.35,0-.05-.36-.25,0,0,.13.1.11.1s-.15-.11-.34-.07a.05.05,0,0,1,0,.06c.07.06.17,0,.23.07s-.05.06.09.17c0,0-.08,0-.07.07a1.31,1.31,0,0,0-.47-.16,2.69,2.69,0,0,1,.38.19,2.49,2.49,0,0,0-.76-.14s.09.11.09.12c-.35,0-.22-.06-.45.14a3.19,3.19,0,0,1,.37.13c-.16-.06-.35-.05-.53-.12,0,0,.09.12.07.12-.38.06-.7.15-.19.3a4,4,0,0,0-.78,0s.13,0,.15,0a2.26,2.26,0,0,0-1.09.21,1,1,0,0,0,.83.18l-.07,0a.13.13,0,0,1,0,0,1.32,1.32,0,0,1-1-.23.35.35,0,0,0-.29-.15c0,.07.08.05.08.13s-.2,0-.24,0a1,1,0,0,1,.11.25.61.61,0,0,0-.8-.28c.19.06.38.18.56.24-.16,0-.22,0-.23,0a1.75,1.75,0,0,0-.66-.2.91.91,0,0,1,.25.07,1.49,1.49,0,0,0-.77-.06l.2.14c-.2-.09-.34-.1-.24.19-.39.26.62.46.85.42-.06.15-.12,0,0,.14a1.44,1.44,0,0,0-.3,0c-.23-.26-1.25-.6-.65-.12-.12.09-.17.11-.2.11s.06.06.07.2c-.31.07-.09-.05-.35.15a1.67,1.67,0,0,1,.76-.15,3.09,3.09,0,0,1-.46.14s.2.14.19.12c-.42-.07-.3,0-.61.15.19,0,.44,0,.63,0l-.2.15s0,0,0,.13c-.69-.27-.26.38-.15.51.35.3,1.27.37,1.53,0,.32.16.35.12.59-.16a4.1,4.1,0,0,0,.16.53c-.43.29.21,1.84-.21,1.74,0,.23,0,.38,0,.57a4.28,4.28,0,0,0,1.52.16c.48-.19.69-.9.93-1.1a3.2,3.2,0,0,0-.27-.22,2,2,0,0,0,1.17.07l-.27-.14c1.24.15-.58-1.13.3-1.38,0-.22.1-.29.15-.46.1,0,.13.08.27.07s0-.14,0-.18.13.1.2,0c.63-.08,1.57.1,1.7-.7.22,0,1.91,0,1.46.94a3.86,3.86,0,0,0-2.09.46c-.25.34-.27,1.36.16,1.53,0,.09-.09.08-.12.18.18.08.07,0,.2,0a1.85,1.85,0,0,1,0,.24,4.45,4.45,0,0,0,1.37.19c.22.08.1.08.3,0,0,0-.1.06-.07.11.31.08.63.18.91.28,0,.16.32.47.49.7a2.53,2.53,0,0,0-.88-.33c-.23.21-2.19-1-2-.26.07.11,0,.31.28.44-.41,1.22-.61,0-1-.06-.69-.15-1,.65-1,1.18-.17,0-.17.24-.39,0,.06,0,.17,0,.23-.1a1.56,1.56,0,0,0-.77.21l.09.05-.08,0,.1.05a1,1,0,0,0,.17.1c-.32-.12-.62-.22-.73-.54-.58-.52-1.64.09-2.17-.57.09.16,0,.15.25.32,0,0-.05.09,0,.11-.29-.29-.33-.65-.69-.87s-.55.11-.83-.1a.74.74,0,0,0,.12-.16,3,3,0,0,1-.47-.27,2.15,2.15,0,0,0,0-.4,1.61,1.61,0,0,1,1-.49c-.29-.27-.11-.57.19-.78-.43,0-1.87.15-.76.14a.91.91,0,0,0-.11.16c-.86-.51-.48,1-.85,1.19a1.74,1.74,0,0,0,.3.67c-.26-.39-.31-.43-.61-.16,0-.11,0-.18-.15-.12-.18-.31-.44-.38-.54.09.13-1-1.42-.18-1.75.09,0,0,0,0,0,.05s.08.1.09.12-.29-.15-.35-.21a2.48,2.48,0,0,0,.3.25s0,0,0,0l-.16,0h0l.19,0a1.14,1.14,0,0,0-.4-.11.41.41,0,0,0-.45,0c-.32-.18-1.41.43-1.41.43-.57,0-1.26-1.15-1.07.09-.58-.13-.88-.66-1.61-.58a.09.09,0,0,0,0,0,.6.6,0,0,1,.2.14l-.16-.07s.07.11.08.12-.13,0-.2,0a10.73,10.73,0,0,0,1.11,1.07c-.11,0-.13-.06-.23-.06,0,.36.31.8,0,1,0,.18,0,.39.08.57a1.51,1.51,0,0,0-.09-.41c-.1.17-.26.31-.35.5L42,42a2.1,2.1,0,0,1-.71.64c-.95-.37-2.75-2-3.64-1.32.1-.07-.2.75-.22.78-.33.66-.81.88-1.21,1.46a1.92,1.92,0,0,0,.44-.06,3.86,3.86,0,0,0-.4.28.29.29,0,0,1,.26.13c-.14.11-.35.51-.6.74a2.73,2.73,0,0,0,1.12.32s.17.32.2.36c-.61.68.89.67,1.4.74a2,2,0,0,0,1.24,0,3.49,3.49,0,0,1,1-.4c-.67-1.27,2.45-.85,2.44-1.42.12-1,1.77.43,2.36.16,1.41,0,1.17.52,1.42,1.55a5.25,5.25,0,0,1,1.09,1.74c.16.17.51.51.51.82s-.56,1-.34,1.1c.77.27,1-2.4,1.59-.64.36-.63-1.08-1.26-.56-1.64-1.16-.35-1.27-2.45-.79-2.93a1.53,1.53,0,0,1,.6.22c-.33.4,0,.39,0,.42s0,0,.07.07,0,.09,0,.09,0,.26.08,0l.09.17a2.88,2.88,0,0,1,.22.49s-.13-.08-.17-.07c.11.66.67.75.89,1.37a3,3,0,0,0-.28-.24c.84.72.92,1.27.46,2a3.86,3.86,0,0,1,.16.48s-.22-.08,0,.26a.2.2,0,0,1,0-.26,1.07,1.07,0,0,0,.39.69.08.08,0,0,1,0,.07c-.06,0-.12-.05-.18-.08-.05.65.62.49,1,1-.23,0-.51-.46-.79-.38s-.13.51-.18,1c0,0,.14-.13.16-.14l.06.45c.22.08,0-.11.33.15,0-.24.08-.56.09-.79.15.22.16.12.31.25,0-.14-.07-.25-.1-.38.2.19.21,0,.42.35.21-.42-.09-.75-.42-1.05a2.72,2.72,0,0,1,.28,0s-.09-.17-.06-.18a.92.92,0,0,1,.12.16c0-.25-.17-.77.21-.9a1.12,1.12,0,0,0,.14.32h0c.12,0,.13.19.23.23s0-.18,0-.22.23.23.26.24c-.15-.19-.09-.32-.14-.48.63,0,.89.44,1.42.72-.16.06-.28.16-.4.21a3.64,3.64,0,0,1,1.62-.08A1.64,1.64,0,0,1,55,49.39a13.47,13.47,0,0,1,1.27-1.13s0,.11-.05.1c.57-.08.8-.73,1.61-.73-.13.09.09.11.12.14A3.58,3.58,0,0,0,58,47.4a1.7,1.7,0,0,0,.26.54,1.75,1.75,0,0,1-.49-.18c0,.1.16.11.18.2s-.11,0-.12,0c.25.25.6.43.8.62-.21,0-.43.09-.64.09.61.31.08.7.58,1a4.12,4.12,0,0,0,1.32-.09c-.37-.06-.81-.46-.59-.76h0s.06-.11.16-.15,0,0-.07.13a4,4,0,0,1,1.58.05,2.12,2.12,0,0,0,.28,0s-.11,0-.12,0c.3.09.2,0,.33.2-.38,0-.44.1-.79,0,.09.15.13.33.24.49-.1,0-.14-.12-.22,0a.52.52,0,0,1-.74.06l.09.1a.33.33,0,0,1-.17,0,9.9,9.9,0,0,0,1.29,1.79c.18.5,1.07,1.25.09,1.59-.64.23-1.72-.62-2.14-1s-.68-1-1.63-1.13c-.28,0-.56.07-.83,0-.12,0-.54-.2-.66-.2-.37,0-.87-.36-.23.19-.15,0-.41-.05-.56-.09s.12.12.11.12a5.94,5.94,0,0,1-.63-.32c-.14-.07-.79-.28-1,.22a3,3,0,0,1,.4.12c-.2.27-.27.46-.14.73-.06-.05-.22,0-.25,0a2.25,2.25,0,0,1-.08-.24c-.07.39.19.67.22,1.16-.07-.12-.16,0-.18.05.15,0,.33.14.5.19-.15,0-.31,0-.46,0,.55.2.67.59,1.26.86.27.12.2-.34.67-.06s.32.65.83.85c.34.14.68,0,1,.09.64.21.28-.09.27.32a2.87,2.87,0,0,1-1,1.83c-.59.63-1.18,1.4-1.89.48.08,0,0,.11-.1.1s-.09-.16-.12-.19a.19.19,0,0,0,.08-.07.91.91,0,0,0-.66-.28h.22A2.86,2.86,0,0,1,52.3,56c-.78-.55-1.22-1.25-1.83-1.75a1.2,1.2,0,0,0-1-.42c-.74.09-.39.57-.74.8-.75.49-1.65-.56-2.15-1.25-.17-.23,0-.53-.23-.81a1.91,1.91,0,0,0-.48-.46c-.34-.28-.74-.39-1-.77,0-.15-.19-.3-.2-.4-.05-.74.11,0,.36-.59s.32-1,.79-1.34c-.12,0-.28,0-.41.06a.42.42,0,0,0-.17-.37,8.14,8.14,0,0,0-1.37-.47c-.62-.21-1.14-.43-1.82-.71s-3.5,0-3.59-.6c-.46,0-1.18-.22-1-.8-.59-.18-.82.56-1.38.77s-1,0-1.59.28c-.79.44-.76,1.22-1.49,1.65-.49.28-1,.11-1.5.25a4.92,4.92,0,0,0-.94.48,21,21,0,0,1-2.12,1.23s.09-.07.14-.06c-.52.44-1.27.83-1.53,1.48.06,0,.1-.12.16-.15.28.69-.77,3.51-2.15,3.56.09.12.19.49.27.63a.3.3,0,0,0,.09.49.87.87,0,0,1-.28-.17,1.5,1.5,0,0,0-.29.5c.14,0,.07-.09.17.06h-.22c.05.13.16.18.21.26-.08.29.15.42.54.43a1.06,1.06,0,0,1-.29,0s.19.15.18.18-.16-.07-.26,0,.08.19.15.26-.1.15-.08.21c.25,0,.18.55.45.82a3.23,3.23,0,0,0,0,.76c-.08.09-.06,0-.15.15a.79.79,0,0,1,.17,0c-.15,0-.09.06-.23,0,0,.29,0,.43.2.61a6.9,6.9,0,0,0,.92,2.15c.74,1.3,1.06.69,2.25,1.14a.42.42,0,0,0-.16-.09c.21.09.47.17.72.27a2.75,2.75,0,0,0-.3-.14c.29.11.59.22.79.28-.06.09-.05.08,0,.14s-.1,0-.13,0c.53.65,1.12.44,1.88.45s1.45.28,2.16.31l-.19,0c.43.11.72.68.79.87s0,0,0,.09a.36.36,0,0,1-.15,0c.07.13,0,.08.16.12a.45.45,0,0,0,.1.79s0,.12.18,0-.05.12.12.13a.47.47,0,0,1,0-.23.91.91,0,0,1,0,.23l.17-.15c.19.27.46.42.67.15a.25.25,0,0,1,.06.31c.1.09.16.52.46.54a8.25,8.25,0,0,0-1,2c0-.06-.07-.1-.14-.08.09.2,0,.24.24.4-.08,0-.13,0-.15,0s-.12-.23-.15-.28c-.19.36-.28.57-.59.4a.76.76,0,0,0,.14.59c-.09.13-.06.1,0,.2-.13-.12-.07-.06-.18-.29a1.75,1.75,0,0,0,.06.5s0-.08-.08-.08a2,2,0,0,0,.23.56s-.09-.09-.16-.13c.23.62.39,2.77.85,2.8a3.75,3.75,0,0,0-.48,0c.07.53.21,1.57-.32,1.86-.18.42,0,1-.17,1.42-.28.71-.87.76-1.37,1.2a4.11,4.11,0,0,0-1.48,3v.66a34.48,34.48,0,0,0,8.62,5.51c.75.34,1.52.61,2.29.89a6.49,6.49,0,0,1,.32-1.35c.51.26,2-.49,2.77-.61.48-.07,2.09-.5,1.81-1a13.26,13.26,0,0,0,1-2.24c.06-.39-.1-.73,0-1.26s1.35-2.72,1.5-3.14c.79-2.16,2.61-1.37,4.86-2.06a9.22,9.22,0,0,0,3.34-2.18c.38-.34,1.29-1.38,1.62-1.34-.09-.06,0-.15-.17-.12,1-1.19-.58-1-1.52-1.16a7.27,7.27,0,0,1-1.73-.29c-.46-.34-.33-1.06-.91-1.17,1.48.09-.29-2.33-.41-3-.07.06-.06.12-.12.19-.12-.7.17-1.41,0-2.13s-.3-.7-.18-1.43a19.34,19.34,0,0,1,.22-2.68c-.34-.64-.66-3.88-.22-4.39A2.9,2.9,0,0,0,55,59.81a10,10,0,0,1,.79-.92,6.43,6.43,0,0,1-.52.83c.69.33.43,1.9.57,2.52a5.68,5.68,0,0,1,.27,2.08c-.18,1.57,1.08,3.42.29,5,0,.38-.52,1.56.08,1.9a6.63,6.63,0,0,0,2.32,0,12.89,12.89,0,0,0,2.49,0c.19,0,.14-.34.42-.41a5.44,5.44,0,0,1,.9,0c.2,0,.33.2.51.2s.17-.31.4-.37c.38-.09,1,0,1.33-.23s.38-.71.76-.84c.09.2,1.54-.56.92-1.57s-1.25-1.18-.6-2.38a5.12,5.12,0,0,1-1.73.83A1.36,1.36,0,0,1,63,65.61c.83-.53-.05-1.39-.2-.21a1.78,1.78,0,0,1,.08-1.3c-.32-.63-.26-1.75-.65-2.24.08-.12.17,0,.25,0s0-.22,0-.31a.63.63,0,0,0,.63.05c1,.87.53,3,2.31,3.61.48.15.59-.16,1,.34.23.32,0,.68.4,1.08a6,6,0,0,0,1.92,1.14c.67.28,1.33.42,2.07.76.28.36.18,1.27.62,1.47h0a.66.66,0,0,0,0,.14.72.72,0,0,1,.33,0c-.61.38.23,1,.71.87a.66.66,0,0,1-.91.09c.14,1.13,1.49,2.14,1.61.8a2.27,2.27,0,0,1,.31.17.93.93,0,0,0-.24.27,1.51,1.51,0,0,1,.3.1,3,3,0,0,0-.32.06c.12.38-.47,1-.27,1.43-.11,0-.12-.07-.14.15a.11.11,0,0,0,.11-.07c-.57,1-.27,2.25-.28,3.13,0,1.19,0,2.38-.06,3.55a1.91,1.91,0,0,1,0-.28c-.09.3-.19,1,.08,1.24.55.46.72-.6,1.39-.06-.36-.39.46-.77.68-1A4.59,4.59,0,0,0,75.43,79a.47.47,0,0,1,0,.17c.19-1.26.54-1.2,1.35-1.42s1.68-.88,2.59-1.18c0,0-.1,0-.14-.06s.22-.12.21-.1,0,.07,0,.13a1.09,1.09,0,0,0,.45,0,3.44,3.44,0,0,0,1.33-1.06c0,.24.06.19-.07.46.06,0,.18.08.26.14a.77.77,0,0,1,.12-.28,2.39,2.39,0,0,1-.05.36.1.1,0,0,1,.17,0s0-.2,0-.2.08,0,.08-.08c.18.33,0,.37.26,0a.78.78,0,0,1,0,.34c.09-.12.24-.23.34-.34a2.15,2.15,0,0,0-.1.27s.16,0,.16,0a.77.77,0,0,0-.09.2.85.85,0,0,0,.37-1c.16,0,.08.11.19,0-.15.4-.13.78.32.65a1.87,1.87,0,0,1,0,.53c.17-.25.33-.51.5-.77,0-.13,0-.08,0,0,.62-1,1.19-2,1.73-3a.05.05,0,0,0,0,0H85.3a.18.18,0,0,0,.1,0C85.67,72.11,86,71.6,86.21,71.05ZM49.8,35s.1-.12.06-.14l.23,0A.37.37,0,0,0,49.8,35Zm10.61-.72.05,0v0Zm.09,0h0Zm.3-.05h0a.22.22,0,0,0-.14.06l.11-.07h0Zm-.32,1.75,0,.06,0-.11Zm-.19.51,0,0h0A0,0,0,0,0,60.29,36.45Zm1.12-2.21v0C61.33,34.32,61.36,34.29,61.41,34.24ZM41.62,43.06,41.54,43a.29.29,0,0,0,.12.1Zm1.15.79h0Zm2.82-4.46,0-.06a.19.19,0,0,0,0,.09Zm.72,0h0l.15,0A.22.22,0,0,1,46.31,39.37Zm-.07.82h0s0,0,0,0Zm1.7-.81v0h0Zm-1.84,4,0,0a.3.3,0,0,0-.08.08Zm1.24-3.92s0,0,0,.06v0s0,0,0,0h0Zm-1.37,3,0,0,0,0Zm1.11-2.66v0a.06.06,0,0,0,0,0ZM47,39.63h0a0,0,0,0,1,0,0S47,39.64,47,39.63Zm-.31,1.08,0,0a.05.05,0,0,1,0-.05l0,.06h0v0Zm-.74,2h0a.08.08,0,0,0,.07,0h0A.06.06,0,0,1,45.9,42.69Zm-.1.73v0h0S45.8,43.39,45.8,43.42Zm.34-.79.08,0h0A.11.11,0,0,0,46.14,42.63Zm-.41,1.23a0,0,0,0,1,0-.06l0,0Zm.13-.21,0,0h0S45.87,43.66,45.86,43.65Zm.29-.61h-.08s0,0,0,0,.09,0,.11,0Zm-.36,1,0-.06.11.13Zm1-1.85h0a.08.08,0,0,0,.08,0ZM47,42a.08.08,0,0,0,0-.07l0,0A.25.25,0,0,0,47,42Zm11.18-2v0Zm-.16.4s0,0,0,0l0,0Zm.07.14a.47.47,0,0,0,0-.1h0a1.4,1.4,0,0,0,.1.16Zm.56-1.06h0ZM58.13,41s0,0,0,.07,0,.09,0,.14A.3.3,0,0,0,58.13,41Zm.22.56h0Zm.25.11h0s0,0,0,0Zm0,.09h0s0,0,0,0Zm1.83-4.53s0,0,.06-.06v0l-.07.05S60.39,37.27,60.39,37.26Zm0-.4s0,0,0,0a0,0,0,0,0,0,0Zm-.23,1.5-.26.1.3-.12Zm-1.41,3.5h0C58.61,41.87,58.57,41.87,58.7,41.86Zm2-3.81s0,0,0,0l0,0Zm-1.54,4.39s0,0,0,0h0S59.13,42.46,59.13,42.44Zm.17,1.49h0a.17.17,0,0,0,.14,0Zm.29-.11h0a.06.06,0,0,1,0,.07A.08.08,0,0,0,59.59,43.82Zm.16.83,0,0,.11,0Zm.15.8h0s0,0,0,0Zm0-.15a.17.17,0,0,1,0-.08h0s0,0,0,0h0l.09,0C60,45.18,59.92,45.22,59.92,45.3Zm.26.32h0a.09.09,0,0,1-.06,0,.16.16,0,0,0,.13.06Zm.66,1h0l.08,0Zm.62.48h0s0,0,0,0Zm-.4,1.54v0l0,0A.16.16,0,0,0,61.06,48.59Zm-.05.1v0a.05.05,0,0,0,0,0Zm.86-1.38h0S61.77,47.3,61.87,47.31Zm.38.52a.13.13,0,0,1,0,.05h0A.1.1,0,0,0,62.25,47.83Zm-.3.56s0,0,0,0a.37.37,0,0,0,0,.11A0,0,0,0,1,62,48.39Zm-.1,3.55a.39.39,0,0,1-.08-.1,1.06,1.06,0,0,0,.29.22Zm.58.32.06.06h0A.19.19,0,0,0,62.43,52.26Zm.6.58h0Zm2.21-3.39s0,0,0,0l.06,0Zm.21-.54.08,0h0Zm.19-.17,0,0h0A.08.08,0,0,0,65.64,48.74Zm-.48,1.1.07,0v0S65.2,49.86,65.16,49.84Zm.74-1,0,.11a1.86,1.86,0,0,0-.1-.2Zm-2.08,4.86a.23.23,0,0,1-.12-.12.27.27,0,0,0,.13.13Zm5.25-3.94h0Zm-.13.1v.07a.35.35,0,0,0,0-.2A.5.5,0,0,1,68.94,49.83Zm-.13-.29v0a.22.22,0,0,0,0-.08Zm-.33-.4,0,0-.13-.05Zm-.18-.08h0a.05.05,0,0,0,0,0Zm-.84-.54,0,0S67.36,48.45,67.46,48.52Zm-1.81,1.94,0,0a.28.28,0,0,0-.09-.07Zm-1.42,3.87a.28.28,0,0,0,0-.2.37.37,0,0,1,.06.21Zm.54.08a.32.32,0,0,0-.14,0,.29.29,0,0,1,.16,0Zm2,4.1c-.92-.23-2.91-1.26-2-2.48.09,0,0,.1,0,.1.15-.36.37-.73.8-.49-.26-.34-.47-1.24-.72-1.26.13-.49-.42-1,0-1.56,0,0-.12.08-.13.17-.28-.94.08-.67.35-1.37.14.06.43.06.62.13A1.57,1.57,0,0,1,67,51.51c1.11.32.39.94.66,1.53-.4-.28-1.46-.56-.91.2-.9-.54-.52.26-.25.83.06.13.46.38.48.46.08.35-.25.63-.1,1.07.07-1.08,1,0,.87.46s-.66,0-.85-.34a.93.93,0,0,0-.13.77c.17,0,.14-.12.23.27,0,0-.21-.11-.16-.12s-.14.21-.1.2c.54.22,0,1.26,0,1.75C66.69,58.52,66.48,58.5,66.72,58.51Zm4-8,0,.06,0,.06A.42.42,0,0,0,70.77,50.48Zm.82-.22h0a.13.13,0,0,0,.09.09Zm.69-1.14c.11,0,0,0,0,0Zm-.79,1.81,0,0v0A.07.07,0,0,0,71.49,50.93Zm.5-1v0a.32.32,0,0,1,.17-.09C72.06,49.8,72,49.84,72,49.91Zm1.29-.46h0Zm.26,0h.07C73.88,49.55,73.6,49.51,73.54,49.5Zm.5.16,0-.07h0A.1.1,0,0,0,74,49.66Zm2.33.47h0C76.66,50.18,76.42,50.14,76.37,50.13Zm2.44-7.54a1.79,1.79,0,0,0-.36-.3,1,1,0,0,1,.83.8c-.24.21,0,.44.4.59C78.9,43.53,79.23,43,78.81,42.59Zm1.9-.14c0-.42-.08-.4.2-.61.31.42.48.79.15.95C81,42.51,81,42,80.71,42.45Zm-3.38,8.86,0,0,.08,0Zm.33.25h0Zm.11,0a.14.14,0,0,0,0-.06l0,0Zm.15.33A.19.19,0,0,1,78,52S77.7,51.79,77.92,51.93Zm.93,0h.09A.07.07,0,0,0,78.85,51.91Zm.25.16h0a.14.14,0,0,0,0-.08Zm.38.67,0,.07.06.1A1,1,0,0,0,79.48,52.74ZM72.69,68.47l0,0,0,0Zm7-15.41.07.15,0,.08ZM72.93,68.69v0s0,0,0,0A.06.06,0,0,0,72.93,68.69Zm-.55,1.46c-.16-.05,0,0,.05,0Zm.66-.76v0l0,.06A.19.19,0,0,0,73,69.39Zm-.27.88,0,0S72.83,70.32,72.77,70.27Zm.28-.34v0Zm7-16.15.07.18c.17.35.3.73.45,1.08C80.35,54.63,80.19,54.19,80,53.78ZM76,65.37h0v0Zm-.53,1.91h0s0,0,0,0Zm.66-1.52h0Zm-.1.67s0,0,0-.05l0,.12Zm.06-.07h.06Zm5-11.19a.5.5,0,0,1,0,.12S81.1,55.11,81.13,55.17Zm-3.55,9.76h-.06a.1.1,0,0,0,.09,0Zm.18-.07H77.7a.06.06,0,0,0,.08-.05Zm4.14-9.34h0C82.05,55.54,81.92,55.52,81.9,55.52Zm.12,0,.1.08,0,0Zm.72,1a.38.38,0,0,0,0,.1.12.12,0,0,0,0-.13Zm-.45-.64a.41.41,0,0,0,0,.09l0,0S82.31,55.91,82.29,55.87Zm-3.84,9.61,0,0,.12.09Zm0,.41a0,0,0,0,1,0,0,.14.14,0,0,0,0,.07Zm-.38,1v0a.06.06,0,0,0,0,.06Zm0,.06h0a.16.16,0,0,0,0,.09Zm0,.53,0,0a.13.13,0,0,1,0,.06Zm.26-.51h0Zm.06,0,0,0h0A.05.05,0,0,0,78.44,67Zm6.2-9.28h0Zm-.11,0h0l0,0Zm0,0h0Zm-1.16-.61h0S83.23,57.15,83.32,57.1Zm.11,0,0,0C83.54,57,83.44,57.06,83.43,57.07Zm.08.14,0,.06c0,.06,0,.11.07.16A1.51,1.51,0,0,0,83.51,57.21Zm.23.34c.12.21,0,.07-.06,0Zm-5.18,11.7s0,.08-.06.09a1.28,1.28,0,0,1,.11-.2A.54.54,0,0,0,78.56,69.25Zm.32-.66,0,0,.06,0Zm0,.3,0,0h0Zm-.18,1-.15-.2.2.27ZM84.3,57.62h0C84.45,57.67,84.31,57.62,84.3,57.62Zm-5.4,12.6,0-.07a1.16,1.16,0,0,0,.14.24S78.94,70.28,78.9,70.22Zm.19.27,0,0,0,.05Zm6.09-13h.1A.12.12,0,0,1,85.18,57.53Zm.31,0h.08C85.69,57.54,85.52,57.5,85.49,57.5ZM80.16,71.29h0Zm.47.7a.13.13,0,0,0,0-.06s0,0,0,.07Zm6.62-13.44a.07.07,0,0,1,0,.05S87.13,58.45,87.25,58.55Zm-4.69,14,0,.1s0,0,0,0A.34.34,0,0,0,82.56,72.52ZM89,57.92l0,0S88.94,57.85,89,57.92Zm-.39.76v0a.13.13,0,0,0,0-.06S88.61,58.66,88.62,58.68Zm-1,.08,0,0,0,0S87.63,58.74,87.6,58.76Zm-6,13.93a.11.11,0,0,1,0-.09S81.68,72.84,81.57,72.69Zm.24.1-.09-.05C81.81,72.77,82,72.85,81.81,72.79Zm.58-.86h-.06a.14.14,0,0,1,.09,0Zm5.75-12.88,0,0v0A.1.1,0,0,0,88.14,59.05Zm.1.11c.06.09,0,.06,0,0ZM82,73.22l0,0a.06.06,0,0,0,0,.08A.06.06,0,0,1,82,73.22Zm.06-.1a.1.1,0,0,1,.07-.05l0,0A.26.26,0,0,0,82,73.12Zm-.12,1.17a.19.19,0,0,1-.07-.11.26.26,0,0,0,.11.14Zm.13-.55.06,0,0,0Zm0-.44,0,0a2.48,2.48,0,0,0,.22.4A3.92,3.92,0,0,1,82,73.3Zm.24.54h0s0,0,0,0ZM81.8,75h0a.07.07,0,0,0,0,.06S81.79,75,81.8,75Zm1-1.63a.08.08,0,0,0,0,.08l0,0A.34.34,0,0,0,82.77,73.36Zm-1,1.89h0s0,0,0,0Zm0,.21a.29.29,0,0,0,0-.09.9.9,0,0,0,0,.23Zm1-1.53,0-.05a.19.19,0,0,0,0,.08Zm.3-.82,0,0a.21.21,0,0,0,.17,0A.1.1,0,0,1,83,73.11Zm-.1,1s-.28-.25-.11-.11a1.63,1.63,0,0,0,.2.17Zm1.26-.91a.17.17,0,0,0-.06.1v0Zm-1.07,2.08a.16.16,0,0,1,0-.07.26.26,0,0,0,0,.12ZM84,73.45h0Zm-.86,2.26v-.09a.13.13,0,0,0,0,.12Zm.56-1.21,0,0,0,0Zm-.38,1.36c-.11,0,0,0,0,0Zm.07-.11v0s0,.06,0,.09Zm.39-.68h0a.11.11,0,0,0,0,0Zm.26-.2c-.08,0,0,0,0,0S84,74.87,84,74.87Z"/><path class="cls-4" d="M46.33,39.07a.12.12,0,0,0,.1,0,.25.25,0,0,1-.15,0Z"/><path class="cls-4" d="M59.42,48.43a.47.47,0,0,1-.09,0h0C59.3,48.57,59.36,48.51,59.42,48.43Z"/><path class="cls-4" d="M59.32,48.46Z"/><path class="cls-4" d="M54.72,56.73l0,0,.08.09S54.71,56.73,54.72,56.73Z"/><path class="cls-4" d="M34.59,76.51l0,0a0,0,0,0,0,0,0S34.6,76.5,34.59,76.51Z"/><path class="cls-4" d="M54.89,40.07s0,.11,0,0Z"/><path class="cls-4" d="M45.41,47c.43.23,1.3-1.44,0-1C45.4,46.34,44.84,47.21,45.41,47Z"/><path class="cls-4" d="M43.29,35.8c.18,0,.13-.1.21-.14-.08,0-.19,0-.28.1S43.27,35.77,43.29,35.8Z"/><path class="cls-4" d="M40.39,36a1.65,1.65,0,0,0-.32,0c.06.06.21,0,.29.08s-.13,0-.2,0a1.13,1.13,0,0,0,.77.07c.73.21,1.46.33,1.6-.72.19,0,.34,0,.45-.16,0,0,0,.1.05.1,0-.19,0-.08-.11-.19.18-.32-.07-.48-.45-.5,0,0,.16,0,.16,0-.24,0-.12-.12-.36,0,0,0,.12-.12.07-.13a1.12,1.12,0,0,0-.67.07c.08.08.18.09.26.15a1.32,1.32,0,0,1-1-.13c.1.16,0,0,0,.19a.24.24,0,0,1,.15.06c-.23,0-.12,0-.15.11s-.14,0-.2,0,0,.07,0,.07a3,3,0,0,0,.45.34c-.26,0-.36.11-.65.15.19.05.39.13.54.16a1.06,1.06,0,0,0-.58,0c-.14-.07-.15-.1-.31-.07,0,0,.19.09.21.11s-.2,0-.3.08A1.27,1.27,0,0,0,40.39,36Z"/><path class="cls-4" d="M39.94,26.88a1.36,1.36,0,0,1-.35,0l.28.13c-.31,0-.67-.18-1-.25a7.53,7.53,0,0,1,.88.54,2.3,2.3,0,0,1-.3.07c.09,0,.18,0,.26.07a5,5,0,0,1-.61-.08l0,0s0,.1,0,.1a1.7,1.7,0,0,1,.89.45c.06.73,3.08.91,3.23.43,0,0,.08-.18-.24-.23,0-.1.27,0-.07-.15.22-.19.06,0,0-.22a1.43,1.43,0,0,0,.29,0c-.54-.21-1.1-.15-1.53-.55a.58.58,0,0,1-.09.23c-.23-.52-.87-.52-1.35-.32.05-.16,0-.16,0-.3.39-.09,0-.43-.35-.54.08.08.17.06.22.15s-.18-.11-.2-.06a.46.46,0,0,1,.1.22s-.09,0-.1,0a1,1,0,0,0-.26-.21c-.07.05-.07,0-.08,0s0,0,0,0l0,0s-.09,0-.11,0,.13.08.18.14l-.33-.15s0,.16,0,.14c-.13,0-.11-.08-.25-.1A6.32,6.32,0,0,1,39.94,26.88Z"/><path class="cls-4" d="M39.42,26.37s0,0,0,0S39.43,26.33,39.42,26.37Z"/><path class="cls-4" d="M39.45,26.37s0,0,0,0l0,0S39.44,26.38,39.45,26.37Z"/><path class="cls-4" d="M53.71,50.75a.22.22,0,0,0,.11.19s0,0,0,0h0c0-.29-.13-.18-.21-.27S53.42,50.7,53.71,50.75Z"/><path class="cls-4" d="M53.47,50.07c-.12,0-.14-.16-.17,0C53.43,50.21,53.4,50.1,53.47,50.07Z"/><path class="cls-4" d="M52.3,50.36c-.11-.11,0-.25-.29-.15a3.42,3.42,0,0,1,.6.91A.89.89,0,0,0,52.3,50.36Z"/><path class="cls-4" d="M49.28,37.84c0-.09-.1.08-.12.12C49.43,38,49.23,37.94,49.28,37.84Z"/><path class="cls-4" d="M51.2,39.14a1,1,0,0,0,.22.15C51.48,38.93,51.37,39.14,51.2,39.14Z"/><path class="cls-4" d="M46.56,44.92c-.18.09-.47.2-.61.28a.68.68,0,0,0,.07.61A1.32,1.32,0,0,0,46.56,44.92Z"/><path class="cls-4" d="M44.86,31.07s-.14.06,0,.22C45,31.16,44.86,31.23,44.86,31.07Z"/><path class="cls-4" d="M56.49,38.79a.57.57,0,0,0-.58-.22c-.07.12,0,.11-.09.26A5.33,5.33,0,0,0,56.49,38.79Z"/><path class="cls-4" d="M56.43,38.51c-.15-.23-.06-.18-.38-.24.08,0,.17.15.16.24S56.38,38.5,56.43,38.51Z"/><path class="cls-4" d="M50.35,38.24c0-.24.13-.38-.31-.39C49.94,38.17,50.14,38.12,50.35,38.24Z"/><path class="cls-4" d="M52.18,39.15c0-.06.12-.09-.06-.22C52,39.06,52.16,39,52.18,39.15Z"/><path class="cls-4" d="M50.43,38.26c-.15,0-.16.12-.22.18A1.59,1.59,0,0,0,50.43,38.26Z"/><path class="cls-4" d="M50.1,38.28v0s0-.06,0-.08Z"/><path class="cls-4" d="M51,37.06Z"/><path class="cls-4" d="M50.94,38.13c0-.27-.07-.11-.23-.13s-.11.34,0,.65C51,38.49,51.7,37.84,50.94,38.13Z"/><path class="cls-4" d="M50.42,38.4c-.09.22.11.14.16.26S50.66,38.54,50.42,38.4Z"/><path class="cls-4" d="M50,46.27l.08.08Z"/><path class="cls-4" d="M50,46.52a1.55,1.55,0,0,0,.22.12C50.16,46.57,50,46.52,50,46.52Z"/><path class="cls-4" d="M49.92,46.31a1.42,1.42,0,0,0,.36.21C50.17,46.44,50,46.35,49.92,46.31Z"/><path class="cls-4" d="M49.65,45.4c0-.11-.26-.4-.12-.19S49.55,45.37,49.65,45.4Z"/><path class="cls-4" d="M55.57,37.19c-.12-.2-.16,0-.18,0s-.09-.15,0,.07Z"/><path class="cls-2" d="M32.4,88a46.56,46.56,0,0,1-11.71-1.46C11.48,84.17,6.26,80.29,4.74,74.71s1-11.52,7.53-18l7.49,7.51c-4.27,4.26-5,6.84-4.79,7.69s2.27,2.78,8.37,4.36c25.48,6.59,55.15-17.78,60.91-33,.48-1.27,1.46-4.31.12-5a7.32,7.32,0,0,0-.92-.4l3.56-10a18.13,18.13,0,0,1,2.19.95c2.33,1.19,9.58,6,5,18.19C88.06,63.16,61,88,32.4,88Z"/><path class="cls-2" d="M58.88,18h0a5,5,0,0,0-2.49-6.6L47.11,7.22a5,5,0,0,0-6.6,2.5h0"/><path class="cls-2" d="M38.12,8.42h0A5,5,0,0,0,40.61,15l9.28,4.2a5,5,0,0,0,6.6-2.5h0"/><polygon class="cls-5" points="55.52 16.49 53.95 15.79 55.76 13.87 55.52 16.49"/><polygon class="cls-5" points="51.99 14.9 50.42 14.19 52.23 12.27 51.99 14.9"/><polygon class="cls-5" points="48.46 13.31 46.89 12.6 48.7 10.68 48.46 13.31"/><polygon class="cls-5" points="44.93 11.71 43.36 11 45.17 9.09 44.93 11.71"/><path class="cls-2" d="M58.24,13.84l1.65-3.65s-3.29-.54-4.41,1.4"/><circle class="cls-6" cx="42.4" cy="8.5" r="0.76"/><polygon class="cls-1" points="79.79 30.16 83.27 27.9 85.51 31.89 79.79 30.16"/><polyline class="cls-1" points="87.64 33.65 88.55 32.29 90.88 38.93 87.73 33.89"/><polygon class="cls-1" points="88.67 46.05 89.64 40.63 91.79 40.97 88.67 46.05"/><polygon class="cls-1" points="87.2 48.23 83.47 49.3 83.57 53.26 87.2 48.23"/><polygon class="cls-1" points="82 54.63 78.27 55.69 78.36 59.65 82 54.63"/><polygon class="cls-1" points="76.69 60.47 74.1 61.21 73.04 64.85 76.69 60.47"/><polygon class="cls-1" points="70.94 66.04 67.99 65.25 65.96 70.1 70.94 66.04"/><polygon class="cls-1" points="57.01 74.63 58.73 68.95 63.78 71.62 57.01 74.63"/><polygon class="cls-1" points="53.3 76.41 47.48 73.77 44.56 78.87 53.3 76.41"/><polygon class="cls-1" points="38.85 80 33.35 75.31 29.24 80 38.85 80"/><polyline class="cls-1" points="24.34 78.54 20.82 72.74 14.92 75.62"/><polygon class="cls-1" points="13.33 72.31 14.2 66.79 12.07 68.17 13.33 72.31"/><polygon class="cls-1" points="14.2 63.56 16.65 59.05 17.57 60.85 14.2 63.56"/><polygon class="cls-1" points="50.21 92.64 53.09 93.61 53.3 95.29 50.21 92.64"/><polygon class="cls-1" points="57.75 97.05 59.93 95.29 61.45 97.67 57.75 97.05"/></svg>