<svg id="Layer_1" data-name="Layer 1" xmlns="http://www.w3.org/2000/svg" viewBox="0 0 100 100"><defs><style>.cls-1{fill:#bcd2de;}.cls-2{fill:#98abb5;}.cls-3{fill:#3e3e3f;}.cls-4{fill:#231f20;}.cls-5{fill:#447d93;}.cls-6{fill:#66343a;}.cls-7{fill:#ffc640;}.cls-8{fill:#acc1cc;}</style></defs><title>jötunn</title><rect class="cls-1" x="76.71" y="65.08" width="5.52" height="20.99" rx="2.76" ry="2.76" transform="translate(158.93 151.15) rotate(180)"/><rect class="cls-1" x="72.08" y="66.66" width="5.52" height="20.99" rx="2.76" ry="2.76" transform="translate(149.67 154.3) rotate(-180)"/><rect class="cls-1" x="68.18" y="66.66" width="5.52" height="20.99" rx="2.76" ry="2.76" transform="translate(141.89 154.3) rotate(-180)"/><rect class="cls-2" x="64.62" y="67.64" width="5.52" height="20.99" rx="2.76" ry="2.76" transform="translate(134.76 156.27) rotate(-180)"/><rect class="cls-1" x="60.33" y="28.22" width="19.51" height="47.3" rx="9.75" ry="9.75"/><rect class="cls-1" x="28.23" y="52.7" width="19.51" height="47.3" rx="9.75" ry="9.75"/><rect class="cls-1" x="51.64" y="52.7" width="19.51" height="47.3" rx="9.75" ry="9.75"/><rect class="cls-1" x="27.37" y="11.58" width="43.95" height="71.34" rx="21.97" ry="21.97"/><polyline class="cls-3" points="42.47 31.09 46.12 47.27 47.06 43.47 50.36 57.66 52.87 50.82 55.45 59.56 58.46 52.21 61.9 58.17 64.41 50.95 68.22 56.39 70.58 51.45 72.95 56.01 78.2 28.22"/><path class="cls-1" d="M73.84,13.37a4.26,4.26,0,0,0,8.52,0c0-2.35,1.2-6.46-1.16-6.46S73.84,11,73.84,13.37Z"/><rect class="cls-1" x="40.08" y="2.12" width="40.5" height="37.84" rx="15.57" ry="15.57"/><circle class="cls-4" cx="47.74" cy="18.67" r="1.35"/><path class="cls-1" d="M44.5,12.67a4.27,4.27,0,1,1-8.53,0c0-2.35-1.19-6.46,1.16-6.46S44.5,10.32,44.5,12.67Z"/><rect class="cls-5" x="66.32" y="14.7" width="10.45" height="15.39" rx="5.22" ry="5.22"/><rect class="cls-5" x="64.38" y="25.33" width="16.41" height="8.02" rx="4.01" ry="4.01"/><rect class="cls-5" x="71.79" y="19.65" width="6.46" height="10.04" rx="3.23" ry="3.23"/><rect class="cls-1" x="49.62" width="21.43" height="13.82" rx="6.91" ry="6.91"/><rect class="cls-6" x="20.77" y="22.39" width="20.89" height="50.15" rx="10.44" ry="10.44"/><rect class="cls-1" x="27.37" y="31.18" width="5.6" height="13.79" rx="2.8" ry="2.8"/><rect class="cls-7" x="52.89" y="29.69" width="4.93" height="9.47" rx="2.46" ry="2.46"/><rect class="cls-7" x="59.35" y="31.63" width="3.01" height="5.86" rx="1.5" ry="1.5"/><rect class="cls-1" x="48.22" y="33.35" width="36.4" height="11.62" rx="5.81" ry="5.81"/><path class="cls-6" d="M29.26,66.26S42,72.86,40.87,82.91h1.6l2,4.14,2.58-2,3,2,5.31-3,5,1.87s12-15.92,10.47-20.33C70.8,65.64,60.61,76,29.26,66.26Z"/><rect class="cls-1" x="14.91" y="28.22" width="19.51" height="47.3" rx="9.75" ry="9.75"/><rect class="cls-1" x="28.23" y="87.64" width="23.41" height="12.36" rx="6.18" ry="6.18"/><rect class="cls-1" x="51.64" y="87.64" width="23.41" height="12.36" rx="6.18" ry="6.18"/><rect class="cls-1" x="13.38" y="65.08" width="5.52" height="20.99" rx="2.76" ry="2.76"/><rect class="cls-1" x="18.01" y="66.66" width="5.52" height="20.99" rx="2.76" ry="2.76"/><rect class="cls-1" x="21.9" y="66.66" width="5.52" height="20.99" rx="2.76" ry="2.76"/><rect class="cls-1" x="25.47" y="67.64" width="5.52" height="20.99" rx="2.76" ry="2.76"/><path class="cls-3" d="M40.85,6.91l-.77,11.76,3.22-3V26.47L45.09,14.7l5-11.55S47.47,1.27,40.85,6.91Z"/><circle class="cls-8" cx="20.39" cy="43.48" r="1.5"/><circle class="cls-8" cx="25.33" cy="48.13" r="0.67"/><circle class="cls-8" cx="31.45" cy="34.89" r="0.47"/><circle class="cls-8" cx="50.87" cy="29.76" r="0.77"/><circle class="cls-8" cx="77.75" cy="64.93" r="1.73"/><circle class="cls-8" cx="56.82" cy="61.41" r="0.42"/><circle class="cls-8" cx="72.57" cy="73.32" r="0.78"/><circle class="cls-8" cx="58.26" cy="91.3" r="0.44"/><circle class="cls-8" cx="73.85" cy="38.3" r="2.06"/><circle class="cls-8" cx="55.36" cy="11.3" r="2.46"/></svg>