<svg id="Layer_1" data-name="Layer 1" xmlns="http://www.w3.org/2000/svg" xmlns:xlink="http://www.w3.org/1999/xlink" viewBox="0 0 100 100"><defs><style>.cls-1{fill:none;}.cls-2{fill:#6d4945;}.cls-3{fill:#5c5c5c;}.cls-4{fill:#e0e0e0;}.cls-5{fill:#fff;}.cls-6{fill:#7d7d7d;}.cls-7{clip-path:url(#clip-path);}.cls-8{clip-path:url(#clip-path-2);}.cls-9{clip-path:url(#clip-path-3);}.cls-10{clip-path:url(#clip-path-4);}</style><clipPath id="clip-path"><circle class="cls-1" cx="43.35" cy="56.43" r="5.07"/></clipPath><clipPath id="clip-path-2"><circle class="cls-1" cx="58.72" cy="41.07" r="5.07"/></clipPath><clipPath id="clip-path-3"><circle class="cls-1" cx="74.08" cy="25.7" r="5.07"/></clipPath><clipPath id="clip-path-4"><circle class="cls-1" cx="89.45" cy="10.34" r="5.07"/></clipPath></defs><title>kanabō</title><polygon class="cls-2" points="7.63 95.99 4.01 92.37 62.17 32.31 67.69 37.83 7.63 95.99"/><path class="cls-3" d="M1.18,98.82a4,4,0,1,1,5.7,0A4,4,0,0,1,1.18,98.82Zm4.56-4.56a2.42,2.42,0,1,0,0,3.42A2.43,2.43,0,0,0,5.74,94.26Z"/><polygon class="cls-4" points="93.82 17.21 97.08 13.95 98.27 18.4 99.46 22.85 95.01 21.66 90.56 20.47 93.82 17.21"/><polygon class="cls-4" points="78.87 32.16 82.13 28.9 83.32 33.35 84.51 37.8 80.06 36.61 75.61 35.41 78.87 32.16"/><polygon class="cls-4" points="63.92 47.1 67.18 43.85 68.37 48.3 69.56 52.75 65.11 51.55 60.66 50.36 63.92 47.1"/><polygon class="cls-4" points="48.97 62.05 52.23 58.79 53.42 63.24 54.62 67.7 50.17 66.5 45.72 65.31 48.97 62.05"/><polygon class="cls-5" points="37.95 51.03 34.69 54.29 33.5 49.83 32.3 45.38 36.76 46.58 41.21 47.77 37.95 51.03"/><polygon class="cls-5" points="52.9 36.08 49.64 39.34 48.45 34.89 47.25 30.43 51.7 31.63 56.16 32.82 52.9 36.08"/><polygon class="cls-5" points="67.84 21.13 64.58 24.39 63.39 19.94 62.2 15.49 66.65 16.68 71.1 17.87 67.84 21.13"/><polygon class="cls-5" points="82.79 6.18 79.53 9.44 78.34 4.99 77.15 0.54 81.6 1.73 86.05 2.92 82.79 6.18"/><rect class="cls-6" x="57.14" y="-6.73" width="15.59" height="83.6" transform="translate(43.82 -35.64) rotate(45)"/><circle class="cls-4" cx="43.35" cy="56.43" r="5.07"/><g class="cls-7"><polygon class="cls-5" points="37.71 50.79 40.97 47.53 42.16 51.98 43.35 56.43 38.9 55.24 34.45 54.05 37.71 50.79"/></g><circle class="cls-4" cx="58.72" cy="41.07" r="5.07"/><g class="cls-8"><polygon class="cls-5" points="53.07 35.42 56.33 32.17 57.53 36.62 58.72 41.07 54.27 39.88 49.82 38.68 53.07 35.42"/></g><circle class="cls-4" cx="74.08" cy="25.7" r="5.07"/><g class="cls-9"><polygon class="cls-5" points="68.44 20.06 71.7 16.8 72.89 21.25 74.08 25.7 69.63 24.51 65.18 23.32 68.44 20.06"/></g><circle class="cls-4" cx="89.45" cy="10.34" r="5.07"/><g class="cls-10"><polygon class="cls-5" points="83.8 4.7 87.06 1.44 88.25 5.89 89.45 10.34 85 9.15 80.54 7.96 83.8 4.7"/></g><polygon class="cls-3" points="6.22 99.02 5.59 98.4 7.1 94.48 5.14 92.91 1.57 94.38 1.05 93.86 15.37 79.54 20.54 84.7 6.22 99.02"/></svg>