<svg id="Layer_1" data-name="Layer 1" xmlns="http://www.w3.org/2000/svg" viewBox="0 0 100 100"><defs><style>.cls-1{fill:#7a534e;}.cls-2{fill:#09a582;}.cls-3{fill:#231f20;}.cls-4{fill:#008166;}.cls-5{fill:#ffc640;}.cls-6{fill:#f9a63f;}.cls-7{fill:#6ab8d9;}</style></defs><title>kappa</title><ellipse class="cls-1" cx="49.73" cy="55.56" rx="19.4" ry="22.22"/><path class="cls-1" d="M65.22,57.48a2.28,2.28,0,0,1,2.37-1.92h3.08a2.39,2.39,0,1,1-.42,4.76l-3-.54A2.29,2.29,0,0,1,65.22,57.48Z"/><path class="cls-1" d="M64.55,61.23a2.27,2.27,0,0,1,2.67-1.45l3,.54A2.4,2.4,0,0,1,69,64.94l-2.88-1.1A2.28,2.28,0,0,1,64.55,61.23Z"/><path class="cls-1" d="M63.2,64.76a2.31,2.31,0,0,1,2.89-.92L69,64.94a2.4,2.4,0,1,1-2.13,4.3l-2.62-1.63A2.32,2.32,0,0,1,63.2,64.76Z"/><path class="cls-1" d="M61.21,67.93a2.36,2.36,0,0,1,3-.32l2.62,1.63a2.27,2.27,0,0,1,.42,3.38h0a2.27,2.27,0,0,1-3.38.43l-2.22-2.14A2.34,2.34,0,0,1,61.21,67.93Z"/><path class="cls-1" d="M58.67,70.58a2.36,2.36,0,0,1,3,.33l2.22,2.14a2.43,2.43,0,0,1-3.73,3.1l-1.68-2.58A2.34,2.34,0,0,1,58.67,70.58Z"/><path class="cls-1" d="M55.67,72.55a2.32,2.32,0,0,1,2.8,1l1.68,2.58A2.29,2.29,0,0,1,59,79.42h0a2.3,2.3,0,0,1-3.27-1.12l-1-2.91A2.34,2.34,0,0,1,55.67,72.55Z"/><path class="cls-1" d="M52.34,73.67a2.35,2.35,0,0,1,2.43,1.72l1,2.91a2.29,2.29,0,0,1-1.93,2.87A2.27,2.27,0,0,1,51,79.24l-.2-3.07A2.37,2.37,0,0,1,52.34,73.67Z"/><path class="cls-1" d="M48.86,73.89a2.39,2.39,0,0,1,1.9,2.28l.2,3.07a2.28,2.28,0,0,1-2.61,2.29h0a2.27,2.27,0,0,1-2.28-2.6l.6-3A2.41,2.41,0,0,1,48.86,73.89Z"/><path class="cls-1" d="M45.43,73.22a2.35,2.35,0,0,1,1.24,2.69l-.6,3a2.45,2.45,0,0,1-4.64-1.56l1.36-2.77A2.33,2.33,0,0,1,45.43,73.22Z"/><path class="cls-1" d="M42.24,71.66h0a2.34,2.34,0,0,1,.55,2.94l-1.36,2.77a2.43,2.43,0,0,1-4.07-2.67l2-2.37A2.34,2.34,0,0,1,42.24,71.66Z"/><path class="cls-1" d="M39.46,69.33a2.35,2.35,0,0,1-.13,3l-2,2.37A2.42,2.42,0,1,1,34,71.22l2.43-1.89A2.36,2.36,0,0,1,39.46,69.33Z"/><path class="cls-1" d="M37.18,66.4h0a2.33,2.33,0,0,1-.74,2.93L34,71.22a2.41,2.41,0,1,1-2.55-4.08l2.76-1.36A2.31,2.31,0,0,1,37.18,66.4Z"/><path class="cls-1" d="M35.51,63a2.32,2.32,0,0,1-1.29,2.75l-2.76,1.36a2.4,2.4,0,1,1-1.71-4.48l3-.82A2.29,2.29,0,0,1,35.51,63Z"/><path class="cls-1" d="M34.49,59.37a2.28,2.28,0,0,1-1.78,2.47l-3,.82A2.39,2.39,0,1,1,28.9,58L32,57.68A2.26,2.26,0,0,1,34.49,59.37Z"/><path class="cls-1" d="M34.16,55.56A2.28,2.28,0,0,1,32,57.68L28.9,58a2.39,2.39,0,1,1,0-4.78l3.06.27A2.27,2.27,0,0,1,34.16,55.56Z"/><path class="cls-1" d="M34.49,51.74A2.26,2.26,0,0,1,32,53.44l-3.06-.27a2.39,2.39,0,1,1,.85-4.71l3,.82A2.27,2.27,0,0,1,34.49,51.74Z"/><path class="cls-1" d="M35.51,48.08a2.31,2.31,0,0,1-2.8,1.2l-3-.82A2.4,2.4,0,1,1,31.46,44l2.76,1.36A2.3,2.3,0,0,1,35.51,48.08Z"/><path class="cls-1" d="M37.18,44.71h0a2.31,2.31,0,0,1-3,.63L31.46,44A2.41,2.41,0,1,1,34,39.9l2.43,1.88A2.33,2.33,0,0,1,37.18,44.71Z"/><path class="cls-1" d="M39.46,41.79a2.37,2.37,0,0,1-3,0L34,39.9a2.42,2.42,0,0,1,3.35-3.49l2,2.37A2.36,2.36,0,0,1,39.46,41.79Z"/><path class="cls-1" d="M42.24,39.46h0a2.36,2.36,0,0,1-2.91-.68l-2-2.37a2.26,2.26,0,0,1,.71-3.36,2.29,2.29,0,0,1,3.36.69l1.36,2.77A2.35,2.35,0,0,1,42.24,39.46Z"/><path class="cls-1" d="M45.43,37.89a2.32,2.32,0,0,1-2.64-1.38l-1.36-2.77a2.45,2.45,0,1,1,4.64-1.55l.6,3A2.34,2.34,0,0,1,45.43,37.89Z"/><path class="cls-1" d="M48.86,37.22a2.38,2.38,0,0,1-2.19-2l-.6-3a2.27,2.27,0,0,1,2.28-2.6h0A2.28,2.28,0,0,1,51,31.87l-.2,3.07A2.38,2.38,0,0,1,48.86,37.22Z"/><path class="cls-1" d="M52.34,37.45a2.38,2.38,0,0,1-1.58-2.51l.2-3.07a2.45,2.45,0,0,1,4.81.94l-1,2.92A2.36,2.36,0,0,1,52.34,37.45Z"/><path class="cls-1" d="M55.67,38.56a2.32,2.32,0,0,1-.9-2.83l1-2.92A2.3,2.3,0,0,1,59,31.69h0A2.29,2.29,0,0,1,60.15,35l-1.68,2.58A2.32,2.32,0,0,1,55.67,38.56Z"/><path class="cls-1" d="M58.67,40.54a2.36,2.36,0,0,1-.2-3L60.15,35a2.43,2.43,0,0,1,3.73,3.11L61.66,40.2A2.37,2.37,0,0,1,58.67,40.54Z"/><path class="cls-1" d="M61.21,43.18a2.34,2.34,0,0,1,.45-3l2.22-2.13a2.26,2.26,0,0,1,3.38.43h0a2.27,2.27,0,0,1-.42,3.38L64.22,43.5A2.33,2.33,0,0,1,61.21,43.18Z"/><path class="cls-1" d="M63.2,46.35a2.32,2.32,0,0,1,1-2.85l2.62-1.62A2.4,2.4,0,1,1,69,46.18l-2.88,1.09A2.31,2.31,0,0,1,63.2,46.35Z"/><path class="cls-1" d="M64.55,49.88a2.28,2.28,0,0,1,1.54-2.61L69,46.18a2.28,2.28,0,0,1,3,1.67,2.31,2.31,0,0,1-1.67,2.95l-3,.54A2.29,2.29,0,0,1,64.55,49.88Z"/><path class="cls-1" d="M65.22,53.64a2.28,2.28,0,0,1,2-2.3l3-.54a2.39,2.39,0,1,1,.42,4.76H67.59A2.29,2.29,0,0,1,65.22,53.64Z"/><rect class="cls-2" x="36.59" y="30.72" width="25.89" height="29.38" rx="12.94" ry="12.94"/><rect class="cls-2" x="33.01" y="43.52" width="32.98" height="38.25" rx="16.49" ry="16.49"/><rect class="cls-2" x="27.65" y="6.45" width="45.46" height="31.49" rx="15.74" ry="15.74"/><circle class="cls-3" cx="34.98" cy="16.24" r="2.08"/><circle class="cls-3" cx="65.99" cy="16.24" r="2.08"/><rect class="cls-2" x="30.92" y="35.71" width="5.02" height="20.25" rx="2.51" ry="2.51" transform="translate(42.2 -10.22) rotate(45)"/><rect class="cls-2" x="18.95" y="47.22" width="8.77" height="17.42" rx="4.38" ry="4.38" transform="translate(46.38 -0.12) rotate(45)"/><rect class="cls-2" x="64.06" y="35.71" width="5.02" height="20.25" rx="2.51" ry="2.51" transform="translate(146.05 31.17) rotate(135)"/><rect class="cls-2" x="72.28" y="47.22" width="8.77" height="17.42" rx="4.38" ry="4.38" transform="translate(170.43 41.27) rotate(135)"/><rect class="cls-2" x="36.6" y="71.26" width="6" height="24.17" rx="3" ry="3"/><rect class="cls-2" x="30.14" y="92.76" width="5.09" height="7.45" rx="2.55" ry="2.55"/><rect class="cls-2" x="34.98" y="92.76" width="5.09" height="7.45" rx="2.55" ry="2.55"/><rect class="cls-2" x="39.83" y="92.76" width="5.09" height="7.45" rx="2.55" ry="2.55"/><polyline class="cls-2" points="31.47 95.43 24.12 100.21 32.68 100.21"/><rect class="cls-2" x="56.7" y="71.26" width="6" height="24.17" rx="3" ry="3" transform="translate(119.4 166.69) rotate(180)"/><rect class="cls-2" x="64.07" y="92.76" width="5.09" height="7.45" rx="2.55" ry="2.55" transform="translate(133.23 192.96) rotate(180)"/><rect class="cls-2" x="59.22" y="92.76" width="5.09" height="7.45" rx="2.55" ry="2.55" transform="translate(123.54 192.96) rotate(-180)"/><rect class="cls-2" x="54.38" y="92.76" width="5.09" height="7.45" rx="2.55" ry="2.55" transform="translate(113.85 192.96) rotate(180)"/><polyline class="cls-2" points="67.83 95.43 75.18 100.21 66.62 100.21"/><polygon class="cls-2" points="16.02 57.98 16.91 73.56 19.09 57.98 16.02 57.98"/><polygon class="cls-2" points="18.14 59.12 19.04 74.7 21.21 59.12 18.14 59.12"/><polygon class="cls-2" points="20.27 60.25 21.16 75.84 23.33 60.25 20.27 60.25"/><polygon class="cls-2" points="75.6 57.98 76.49 73.56 78.66 57.98 75.6 57.98"/><polygon class="cls-2" points="77.72 59.12 78.61 74.7 80.78 59.12 77.72 59.12"/><polygon class="cls-2" points="79.84 60.25 80.74 75.84 82.91 60.25 79.84 60.25"/><circle class="cls-4" cx="39.65" cy="60.03" r="0.92"/><circle class="cls-4" cx="42.99" cy="62.65" r="0.92"/><circle class="cls-4" cx="56.7" cy="54.6" r="0.92"/><circle class="cls-4" cx="32.48" cy="26.26" r="0.92"/><path class="cls-5" d="M66,25.32C66,29.39,50.61,37.6,50.61,37.6S35.23,29.39,35.23,25.32,42.12,18,50.61,18,66,21.25,66,25.32Z"/><rect class="cls-6" x="47.14" y="21.07" width="1.2" height="6.71" rx="0.6" ry="0.6"/><rect class="cls-6" x="53.07" y="21.07" width="1.2" height="6.71" rx="0.6" ry="0.6"/><path class="cls-7" d="M60.49,1.73a42.73,42.73,0,0,0-20.19.1,34.06,34.06,0,0,0,10,1.3A33.45,33.45,0,0,0,60.49,1.73Z"/><path d="M60.49.21a33.45,33.45,0,0,1-10.24,1.4,34.06,34.06,0,0,1-10-1.3c-7,1.83-11.85,5.48-11.85,9.68l2.46,6.25L33.38,10l2.46,6.24L38.3,10l2.46,6.24L43.23,10l2.46,6.24L48.15,10l2.46,6.24L53.07,10l2.47,6.24L58,10l2.46,6.24L62.92,10l2.47,6.24L67.85,10l2.46,6.24L72.78,10C72.78,5.7,67.77,2,60.49.21Z"/><path class="cls-5" d="M61.82,47c0-1.82-.78-3.33-1.79-3.62H39c-1,.29-1.78,1.8-1.78,3.62s.69,3.15,1.61,3.55c-.92.41-1.61,1.84-1.61,3.56s.7,3.16,1.62,3.55c-.92.4-1.62,1.84-1.62,3.56,0,2,1,3.68,2.13,3.68H41a4.12,4.12,0,0,0-1.41,3.44c0,2,1,3.68,2.14,3.68h1.89c.22,1.62,1.07,2.85,2.07,2.85h7.39c1,0,1.85-1.23,2.07-2.85h1.9c1.17,0,2.13-1.66,2.13-3.68a4.15,4.15,0,0,0-1.4-3.44h1.86c1.18,0,2.14-1.65,2.14-3.68,0-1.72-.7-3.16-1.63-3.56.93-.39,1.63-1.84,1.63-3.55S61.13,51,60.2,50.54C61.13,50.14,61.82,48.7,61.82,47Z"/></svg>