<svg id="Layer_1" data-name="Layer 1" xmlns="http://www.w3.org/2000/svg" viewBox="0 0 100 100"><defs><style>.cls-1{fill:#09a481;}.cls-2{fill:#019274;}.cls-3{fill:#9c8062;}.cls-4{fill:#09a582;}.cls-5{fill:#be9a77;}.cls-6{fill:#aa8a6b;}.cls-7{fill:#3e3e3f;}.cls-8{fill:#171717;}</style></defs><title>kelpie</title><path class="cls-1" d="M75.47,50.47C77.6,52,79.18,53.39,81,54.93s3.39,3.1,5,4.8a57.42,57.42,0,0,1,4.79,5.6,22.56,22.56,0,0,1,4,8.11A8.41,8.41,0,0,1,95,74.91a13.58,13.58,0,0,1,0,1.57,9.49,9.49,0,0,1-.77,3.26,8.88,8.88,0,0,1-1.69,2.58,14.47,14.47,0,0,1-2,1.63,17.66,17.66,0,0,1-7.22,2.17,61.73,61.73,0,0,1-12.73-.29,59.22,59.22,0,0,0,10.92-5.08c1.52-1,3.06-2.22,3.5-3.27,0-.24.11-.45.06-.58s-.13-.18-.34-.1-.31.15-.37.29-.15,0-.19.08-.07.06-.17,0c-.52-.12-1.65-.92-3-1.55a47.67,47.67,0,0,0-4.69-1.88c-1.68-.58-3.44-1.1-5.22-1.57a45.93,45.93,0,0,0-5.22-1.14,11.85,11.85,0,1,1,8.42-21.4Z"/><path class="cls-2" d="M76.19,85.79c-1.39,2.81-6.14,3.31-10.6,1.1S60,77.81,60,77.81s6.13-3.3,10.59-1.1S77.57,83,76.19,85.79Z"/><path class="cls-2" d="M75.52,83.84c-2.81-1.39-6.87,1.1-9.08,5.57S67.54,100,67.54,100s6.88-1.1,9.08-5.56S78.34,85.23,75.52,83.84Z"/><polygon class="cls-2" points="66.36 63.66 69.1 60.91 69.57 64.13 66.36 63.66"/><polygon class="cls-2" points="70.02 60 72.76 57.25 73.23 60.47 70.02 60"/><polygon class="cls-2" points="73.68 56.34 76.42 53.59 76.89 56.81 73.68 56.34"/><polygon class="cls-2" points="72.22 69.52 74.97 66.78 75.43 69.99 72.22 69.52"/><polygon class="cls-2" points="75.88 65.86 78.63 63.11 79.09 66.33 75.88 65.86"/><polygon class="cls-2" points="79.54 62.2 82.29 59.45 82.75 62.67 79.54 62.2"/><polygon class="cls-2" points="71.22 64.86 73.96 62.11 74.43 65.33 71.22 64.86"/><polygon class="cls-2" points="74.88 61.2 77.62 58.45 78.09 61.67 74.88 61.2"/><polygon class="cls-2" points="77.76 71.4 80.51 68.66 80.97 71.87 77.76 71.4"/><polygon class="cls-2" points="81.42 67.74 84.17 65 84.63 68.21 81.42 67.74"/><polygon class="cls-2" points="82.69 72.68 85.44 69.93 85.91 73.14 82.69 72.68"/><polygon class="cls-2" points="86.43 76.42 89.18 73.67 89.65 76.88 86.43 76.42"/><polygon class="cls-3" points="33.49 45.25 10.57 69.43 12.53 70.86 41.63 55.52 33.49 45.25"/><polyline class="cls-3" points="9.39 72.38 9.86 82.85 12.92 72.74"/><rect class="cls-3" x="9" y="68.24" width="4.51" height="2.96" rx="1.48" ry="1.48" transform="translate(7.1 -0.78) rotate(5.8)"/><rect class="cls-3" x="8.79" y="70.22" width="4.51" height="2.96" rx="1.48" ry="1.48" transform="translate(7.3 -0.75) rotate(5.8)"/><path class="cls-4" d="M38.25,7V44.59L54.92,48.7,50.16,19S47.6,4.68,38.25,7Z"/><path class="cls-5" d="M75.39,56.05a12.15,12.15,0,0,0-14.17-9.73c-13.61,2.53-22.86,1.21-27.8-.07L27.91,69.91a77.73,77.73,0,0,0,18.67,2.14,104.64,104.64,0,0,0,19.08-1.83A12.16,12.16,0,0,0,75.39,56.05Z"/><path class="cls-5" d="M49.52,74.35l-.3.11-.14.05-.07,0-.28.09-.5.14-.45.11-.42.1c-.56.13-1.07.22-1.61.31s-1.06.16-1.6.21l-.82.08-.84.05A27.11,27.11,0,0,1,34.81,75c-.34-.07-.73-.18-1.11-.29l-1.12-.35L32,74.13l-.59-.24c-.39-.16-.78-.32-1.16-.5l-.57-.27-.58-.31c-.39-.21-.77-.43-1.15-.66a21.38,21.38,0,0,1-2.19-1.56,21.06,21.06,0,0,1-6-7.8A22.33,22.33,0,0,1,18.09,56c0-.49-.08-1-.11-1.46s0-.86,0-1.29l0-1.27c0-.41.07-.77.11-1.15a35.28,35.28,0,0,1,.7-4.16l.5-1.81c.08-.29.16-.6.25-.89l.28-.83.57-1.64.62-1.54c.21-.5.41-1,.63-1.51L22.35,37c.43-1,.9-1.87,1.37-2.78l.69-1.35.73-1.3c.48-.87,1-1.74,1.47-2.57L28.1,26.5c.89-1.33,1.73-2.65,2.47-3.93S32,20,32.43,19c.22-.48.43-1,.57-1.18s.29-.24.67,0c0,0,.09.08.15.12l.18.11.19.13a1,1,0,0,1,.21.1l.22.08.2,0a1,1,0,0,0,.34,0c.37-.06.22-.33-.16-.49a4.87,4.87,0,0,0-1.67-.29,15.35,15.35,0,0,0-2.2.11,35.93,35.93,0,0,0-4.86,1c-1.66.43-3.34,1-5,1.53-3.34,1.17-6.67,2.52-9.94,4A108.5,108.5,0,0,1,19,16.56c1.36-1.25,2.78-2.47,4.27-3.64a42.25,42.25,0,0,1,4.85-3.35A23.29,23.29,0,0,1,31,8.12,16.53,16.53,0,0,1,34.56,7L35.08,7l.56-.06a11.63,11.63,0,0,1,1.2,0h.31l.34,0,.68.07c.22,0,.47.09.71.14s.48.1.74.18a9.58,9.58,0,0,1,1.52.6c.26.13.51.26.76.41l.74.5a6,6,0,0,1,.69.56c.22.19.44.4.65.61s.38.42.56.65a7.59,7.59,0,0,1,.52.67c.15.22.29.45.44.68a4,4,0,0,1,.2.35l.17.33a10.08,10.08,0,0,1,.6,1.32,12.4,12.4,0,0,1,.43,1.25l.17.6.08.3.06.28a24.49,24.49,0,0,1,.53,4.12,45.64,45.64,0,0,1-.26,6.86c-.22,2.12-.53,4.15-.89,6.14L46.25,36c-.12.83-.18,1.65-.26,2.46l-.12,1.22-.07,1.18c0,.79-.11,1.58-.1,2.33v1.13c0,.38,0,.72,0,1.08l.05,1.05.11,1,0,.48c0,.16.06.29.09.43l.17.83.24.66,0,.16a.63.63,0,0,0,.07.12l.14.2a1,1,0,0,0,.14.19l.15,0s.08,0,.12,0a.87.87,0,0,0,.13-.15,2.46,2.46,0,0,0-.1-1.8,5.2,5.2,0,0,0-.34-.85l-.24-.47a5.09,5.09,0,0,0-.3-.5c-.11-.17-.22-.31-.34-.48s-.27-.35-.41-.52-.3-.33-.45-.48-.32-.33-.49-.48c-.34-.31-.73-.58-1.07-.84a6.65,6.65,0,0,0-.56-.36l-.29-.16-.25-.15-.54-.28L41.57,43l-.24-.12-.47-.19a4.79,4.79,0,0,1-.46-.16c-1.17-.37-1.9-.49-2.39-.62l-.19,0-.16,0-.31-.07a2.57,2.57,0,0,0-.33-.05h-.24a.53.53,0,0,0-.18,0l-.13,0h0l-.1,0-.22.08a17.58,17.58,0,0,1,13.4,32.5Z"/><path class="cls-5" d="M47.25,42.25S36.76,48.08,69,48.46l-4,13L28.93,57.21"/><path class="cls-6" d="M13.69,15.73a6.44,6.44,0,0,0-3.39,8.43l.13.31a6.45,6.45,0,0,0,8.43,3.39L21,27l-6.15-11.7Z"/><path class="cls-5" d="M37,13.14l-.13-.31a6.44,6.44,0,0,0-8.43-3.39L14.81,15.26,21,27l12.68-5.39A6.45,6.45,0,0,0,37,13.14Z"/><path class="cls-5" d="M38.12,7.32a2.27,2.27,0,0,1-4.53,0C33.59,6.06,35.86,0,35.86,0S38.12,6.06,38.12,7.32Z"/><circle class="cls-6" cx="11.8" cy="16.87" r="2.51"/><circle class="cls-7" cx="41" cy="14.73" r="0.76"/><circle class="cls-3" cx="11.04" cy="16.87" r="0.76"/><circle class="cls-6" cx="15.38" cy="19.38" r="2.51"/><circle class="cls-3" cx="14.62" cy="19.38" r="0.76"/><path class="cls-4" d="M39.67,6.71S32.73,5.32,28.78,8.15l7.28,3.07s4.42-2.41,6.72-1.44c.13.05,4.37,4.13,4.5,4.19,2.44,1.27-1.58-3.43-1.58-3.43Z"/><path class="cls-5" d="M44.2,9.37a2.27,2.27,0,1,1-4.53,0c0-1.25,2.26-7.31,2.26-7.31S44.2,8.12,44.2,9.37Z"/><polygon class="cls-8" points="4.9 84.05 13.7 84.95 9.9 78.62 4.9 84.05"/><polygon class="cls-5" points="50.82 53.47 27.91 77.65 29.86 79.07 58.97 63.73 50.82 53.47"/><polyline class="cls-5" points="26.73 80.6 27.2 91.07 30.25 80.95"/><rect class="cls-5" x="26.33" y="76.45" width="4.51" height="2.96" rx="1.48" ry="1.48" transform="translate(8.02 -2.49) rotate(5.8)"/><rect class="cls-5" x="26.13" y="78.44" width="4.51" height="2.96" rx="1.48" ry="1.48" transform="translate(8.22 -2.46) rotate(5.8)"/><polygon class="cls-8" points="22.23 92.27 31.04 93.16 27.23 86.83 22.23 92.27"/><path class="cls-4" d="M30.35,8.09a3.25,3.25,0,0,0,.39,4c1.8,1.74-.92,6.54-.92,6.54s4.5-3,3.77-5.57A2.88,2.88,0,0,1,35.06,9.5s-3,1.85.25,7.37,4.31,7.43.55,11.5-1.45,7.3,3.45,9.36c0,0-7.48-5.35-2.19-8.51s3.07-11.38.38-12.87.92-7.42.92-7.42"/><path class="cls-4" d="M48.07,16.11s-2.51-2.18-2.94,5c0,0,0-3.65,2.94-3.2"/><path class="cls-4" d="M49.81,26.56s5,10.31,9.16,5.93c0,0-2.67,7.9-9.8-1.64"/><path class="cls-4" d="M47.45,37.73s-4.09,3.39-3.25,5.5S39.36,48,41,50.87c0,0,2.84-5.87,4.69-6.54s3.13-5.4,3.13-5.4"/><path class="cls-4" d="M48.82,36.18s1.89,7.51-.34,9.07,2.41,7.17,2.41,7.17-3.44-3.3-.61-5.93,2.58-4.24,2.58-4.24"/></svg>