<svg id="Layer_1" data-name="Layer 1" xmlns="http://www.w3.org/2000/svg" viewBox="0 0 100 100"><defs><style>.cls-1{fill:#fff;}.cls-2{fill:#c5652f;}.cls-3{fill:#e37537;}.cls-4{fill:#f37d3b;}.cls-5{fill:#231f20;}</style></defs><title>kitsune</title><path class="cls-1" d="M40.46,44.92A17.91,17.91,0,0,0,35,42a20.25,20.25,0,0,0-2.74-.58,12.75,12.75,0,0,0-2.83,0,8,8,0,0,0-5,2.31l.31,1.46a9.39,9.39,0,0,1,2.8,2.8,16.37,16.37,0,0,1,.85,1.4l.07.14A14.75,14.75,0,0,0,40.46,44.92Z"/><path class="cls-2" d="M61.79,82.05a47.89,47.89,0,0,1-7.51-1.83,20.43,20.43,0,0,1-6.23-3.12c-1.68-1.27-2.44-2.72-2.43-3.9a5.77,5.77,0,0,1,.2-2c.06-.35.24-.78.34-1.16l.51-2.3a36.82,36.82,0,0,0,.84-9.94,17.6,17.6,0,0,0-3.77-9.69,20.28,20.28,0,0,0-3.28-3.2,14.75,14.75,0,0,1-12,4.59l.62,1.24A49.6,49.6,0,0,1,31,56a27.33,27.33,0,0,0,2,4.92,13.8,13.8,0,0,1,1.72,5.75l.09,1.62a21.28,21.28,0,0,0,0,2.76,15.26,15.26,0,0,0,1.48,5.75,13.54,13.54,0,0,0,3.79,4.57,15.9,15.9,0,0,0,4.64,2.45,25.49,25.49,0,0,0,8.91,1,37,37,0,0,0,8.24-1.34Z"/><path class="cls-1" d="M22.84,50.93A17.6,17.6,0,0,0,17.29,50a18.19,18.19,0,0,0-2.78.28,12.3,12.3,0,0,0-2.7.86,8.05,8.05,0,0,0-4.05,3.72l.74,1.3A9.3,9.3,0,0,1,12,58a14.7,14.7,0,0,1,1.24,1.07l.5.51A15.27,15.27,0,0,0,22.84,50.93Z"/><path class="cls-3" d="M55,80a48.18,48.18,0,0,1-7.71.55,20.76,20.76,0,0,1-6.89-1.08,5.21,5.21,0,0,1-3.49-3,5.69,5.69,0,0,1-.42-2,11.9,11.9,0,0,1,0-1.21L36.29,71a36.87,36.87,0,0,0-2.23-9.72,17.53,17.53,0,0,0-6.54-8.08,20.23,20.23,0,0,0-4.68-2.26,15.27,15.27,0,0,1-9.08,8.64l.57.59a48.82,48.82,0,0,1,3.48,4.42,27.36,27.36,0,0,0,3.4,4.08,13.85,13.85,0,0,1,3.39,5l.57,1.51A22.47,22.47,0,0,0,26,77.75a15.41,15.41,0,0,0,3.16,5,13.54,13.54,0,0,0,5,3.2,15.72,15.72,0,0,0,5.16.92,25.34,25.34,0,0,0,8.81-1.71,36.39,36.39,0,0,0,7.44-3.78Z"/><path class="cls-1" d="M9.94,62a17.05,17.05,0,0,0-1.87.34,19.55,19.55,0,0,0-2.63.94A13,13,0,0,0,3,64.73a8.09,8.09,0,0,0-3,4.59l1,1.09a9.38,9.38,0,0,1,3.86.9c.48.18,1,.55,1.46.75l1.31.81a50.08,50.08,0,0,1,4.44,3.45c.29.26.58.5.88.74A16.24,16.24,0,0,0,9.94,62Z"/><path class="cls-4" d="M52,82.3a47.34,47.34,0,0,1-7.35,2.39,20.22,20.22,0,0,1-6.94.62c-2.1-.2-3.51-1-4.12-2a5.7,5.7,0,0,1-.87-1.8,11,11,0,0,1-.32-1.17l-.78-2.22a36.58,36.58,0,0,0-4.51-8.9,17.56,17.56,0,0,0-8.3-6.26,19.25,19.25,0,0,0-8.83-1,16.24,16.24,0,0,1,3,15.1,28.45,28.45,0,0,0,3.4,2.39,14,14,0,0,1,4.49,4l.92,1.33a22.93,22.93,0,0,0,1.48,2.35,15.27,15.27,0,0,0,4.28,4.1,13.56,13.56,0,0,0,5.63,1.9,15.93,15.93,0,0,0,5.23-.35A25.31,25.31,0,0,0,46.54,89a36.05,36.05,0,0,0,6.31-5.47Z"/><path class="cls-4" d="M53.43,15.07c2,6.41-.9,13-6.44,14.71s-11.64-2.09-13.63-8.51S29.84,2,29.84,2,51.44,8.65,53.43,15.07Z"/><path class="cls-2" d="M46.92,17.93c1.44,4.68.69,9.07-1.69,9.8s-5.49-2.46-6.93-7.14S35.06,6.76,35.06,6.76,45.47,13.25,46.92,17.93Z"/><path class="cls-4" d="M76.41,15.07c-2,6.41.9,13,6.44,14.71s11.64-2.09,13.63-8.51S100,2,100,2,78.4,8.65,76.41,15.07Z"/><path class="cls-2" d="M82.92,17.93c-1.44,4.68-.69,9.07,1.69,9.8s5.49-2.46,6.93-7.14S94.78,6.76,94.78,6.76,84.37,13.25,82.92,17.93Z"/><circle class="cls-4" cx="66.04" cy="57.42" r="16.02"/><path class="cls-4" d="M87.89,78.33c0,12.67-9.78,14.5-21.85,14.5S44.19,91,44.19,78.33,54,55.38,66,55.38,87.89,65.65,87.89,78.33Z"/><path class="cls-4" d="M90.82,37.63C90.82,51.67,65.4,63,65.4,63S40,51.67,40,37.63a25.42,25.42,0,1,1,50.83,0Z"/><path class="cls-1" d="M71.6,75c0,9.18-2.77,9.84-6.2,9.84s-6.2-.66-6.2-9.84S62,58.39,65.4,58.39,71.6,65.83,71.6,75Z"/><path class="cls-1" d="M41,30.42a25.19,25.19,0,0,0-1,7.21C40,51.67,65.4,63,65.4,63s1.66-.74,4.13-2.08C65.22,47.45,55.73,35.48,41,30.42Z"/><path class="cls-1" d="M89.76,30.42a25.19,25.19,0,0,1,1.06,7.21C90.82,51.67,65.4,63,65.4,63S63.74,62.3,61.28,61C65.58,47.45,75.07,35.48,89.76,30.42Z"/><rect class="cls-4" x="59.94" y="35.76" width="11.23" height="28.07" rx="5.61" ry="5.61"/><path class="cls-1" d="M59.94,58.22a5.63,5.63,0,0,0,4.38,5.46A30.59,30.59,0,0,0,59.94,50Z"/><path class="cls-1" d="M71.27,58.22a5.62,5.62,0,0,1-4.38,5.46A30.59,30.59,0,0,1,71.27,50Z"/><ellipse class="cls-5" cx="65.57" cy="59.02" rx="3.65" ry="2.18"/><circle class="cls-5" cx="49.85" cy="41.51" r="1.34"/><circle class="cls-5" cx="80.1" cy="41.51" r="1.34"/><rect class="cls-4" x="49.85" y="73.44" width="7.24" height="24.54" rx="3.62" ry="3.62"/><rect class="cls-4" x="74.2" y="73.44" width="7.24" height="24.54" rx="3.62" ry="3.62"/></svg>