<svg id="Layer_1" data-name="Layer 1" xmlns="http://www.w3.org/2000/svg" viewBox="0 0 100 100"><defs><style>.cls-1{fill:#3e3e3f;}.cls-2{fill:#231f20;}.cls-3{fill:#09a582;}.cls-4{fill:#fff;}.cls-5{fill:#f37d3b;}.cls-6{fill:#744f4a;}.cls-7{fill:#ffc640;}</style></defs><title>baba yaga</title><path class="cls-1" d="M79.73,79.15c0,10.61-12.64,19.21-28.23,19.21s-28.23-8.6-28.23-19.21S35.91,51.1,51.5,51.1,79.73,68.54,79.73,79.15Z"/><path class="cls-1" d="M31.3,64.81c-5.75-3.55-9.07-8.24-5.67-14.88,3.07-6.19,12.84-7.41,25.87-7.14,13-.27,22.8,1,25.87,7.14,3.39,6.64.08,11.33-5.67,14.88-13.45,7.06-18.11,15-20.2,15S44.75,71.87,31.3,64.81Z"/><ellipse class="cls-2" cx="51.5" cy="47.67" rx="17.09" ry="2.63"/><path class="cls-2" d="M65.85,31.19a14.36,14.36,0,0,0-28.71,0v17H65.85Z"/><rect class="cls-3" x="51.86" y="4.17" width="27.99" height="32.69" rx="13.99" ry="13.99"/><path class="cls-3" d="M76,13s17.83,4.7,17.74,11.85H76"/><circle class="cls-2" cx="70.86" cy="18.87" r="1.24"/><path class="cls-4" d="M51.5,21.24l3.92,21.52.45-21.52s1.36,19.27,3.44,20.18c0,0-3.26-19.09,1.17-23.8,0,0,3.65,6.07,1.1,11.31a11.65,11.65,0,0,0,3.88-13.66"/><path class="cls-5" d="M77.94,8.64s-13,15.62-27.8,14.41c0,0-2.23-.6-.66-2.53,0,0-4.59.36-2.66-2.23,0,0-4.22-2.36-1.45-3.92S59.25-9.34,77.94,8.64Z"/><rect class="cls-6" x="59.77" y="21.25" width="4.87" height="75.59" rx="2.43" ry="2.43" transform="translate(121.25 -3.17) rotate(90)"/><rect class="cls-7" x="17.95" y="52.45" width="11.74" height="13.75" rx="5.87" ry="5.87" transform="translate(83.15 35.5) rotate(90)"/><path class="cls-7" d="M.9,51.18l-.32.52,6,2.14L0,56.18l6.56,2.33L0,60.85l6.56,2.34L0,65.53l6.56,2.34-4,1.42a12.44,12.44,0,0,0,21.23-8.82V57.9A12.49,12.49,0,0,0,11.37,45.44a12.35,12.35,0,0,0-7.7,2.69l2.89,1Z"/><rect class="cls-6" x="15" y="57.13" width="15.75" height="5.15" rx="2.58" ry="2.58" transform="translate(82.58 36.84) rotate(90)"/><rect class="cls-2" x="42.1" y="31.09" width="4.96" height="30.2" rx="2.48" ry="2.48"/></svg>