<svg id="Layer_1" data-name="Layer 1" xmlns="http://www.w3.org/2000/svg" viewBox="0 0 100 100"><defs><style>.cls-1{fill:#599db9;}.cls-2{fill:#6ab7d8;}.cls-3{fill:#447d93;}.cls-4{fill:#fff;}.cls-5{fill:#f37d3b;}.cls-6{fill:#fcca97;}.cls-7{fill:#fccb98;}.cls-8{fill:#231f20;}.cls-9{fill:#891a13;}.cls-10{fill:#ffc640;}.cls-11{fill:#be9a77;}.cls-12{fill:#553834;}.cls-13{fill:#60403c;}.cls-14{fill:#6d4945;}.cls-15{fill:#e1b589;}.cls-16{fill:#b18f6e;}</style></defs><title>kraken</title><path class="cls-1" d="M92.13,54.57H36.69c-4.32,0-5.27-3.55-5.27-7.87h1.06c0-4.33-.11-7.88,4.21-7.88H92.13A7.9,7.9,0,0,1,100,46.7h0A7.9,7.9,0,0,1,92.13,54.57Z"/><polyline class="cls-1" points="69.09 80.9 97.54 52.45 97.54 42.69 95.81 40.21 51.73 61.61"/><path class="cls-2" d="M33.08,39.74,3,69.39H68.14L97,40.52h-.07a7.8,7.8,0,0,0-4.81-1.7H36.69a7.78,7.78,0,0,0-3.61.93"/><path class="cls-3" d="M63.31,67.71H7.87a7.87,7.87,0,0,0,0,15.74H63.31a7.87,7.87,0,0,0,0-15.74Z"/><polygon class="cls-1" points="18.4 61.71 27.36 61.71 22.89 60.55 18.4 61.71"/><polygon class="cls-1" points="33.04 65.44 42 65.44 37.52 64.29 33.04 65.44"/><polygon class="cls-1" points="53.04 66.02 57.52 66.02 55.28 64.86 53.04 66.02"/><polygon class="cls-1" points="73.45 48.01 77.93 48.01 75.69 46.86 73.45 48.01"/><polygon class="cls-1" points="66.28 42.58 76.71 42.58 71.49 41.5 66.28 42.58"/><ellipse class="cls-4" cx="35.59" cy="58.38" rx="4.26" ry="1.1"/><ellipse class="cls-4" cx="51.89" cy="59.05" rx="4.26" ry="1.1"/><ellipse class="cls-4" cx="63.47" cy="55.67" rx="4.26" ry="1.1"/><ellipse class="cls-4" cx="74.95" cy="56.82" rx="4.26" ry="1.1"/><path class="cls-5" d="M36.87,54.56a16.5,16.5,0,0,1-9.09-2.31c-3.47-2.26-5.32-6-5.52-11.17C22,33.84,23.43,29.53,26.69,27.9c4.24-2.13,9.14,1.66,9.69,2.09a2.11,2.11,0,0,1-2.65,3.29c-1-.84-3.7-2.34-5.15-1.61-.57.28-2.39,1.79-2.11,9.25.15,3.75,1.33,6.31,3.62,7.8,5.15,3.38,15,.67,18.4-.66A2.11,2.11,0,0,1,50,52,40.7,40.7,0,0,1,36.87,54.56Z"/><path class="cls-6" d="M36.87,53.52a15.44,15.44,0,0,1-8.51-2.15C25.19,49.3,23.5,45.83,23.31,41c-.25-6.78,1-10.77,3.85-12.2,3.72-1.87,8.36,1.82,8.56,2a1.05,1.05,0,0,1-1.32,1.64c-1-.84-4.22-2.78-6.29-1.74-1.38.7-3,3-2.69,10.24.16,4.06,1.53,7,4.09,8.65,6.66,4.35,19.23-.51,19.36-.56a1.05,1.05,0,1,1,.77,2A39.39,39.39,0,0,1,36.87,53.52Z"/><path class="cls-5" d="M46.4,50.82a.59.59,0,1,1,1.13-.35.59.59,0,1,1-1.13.35Z"/><path class="cls-7" d="M46.48,51.09a.61.61,0,0,1,.4-.75.61.61,0,1,1-.4.75Z"/><path class="cls-5" d="M43.54,51.54a.59.59,0,1,1,.71.46A.59.59,0,0,1,43.54,51.54Z"/><path class="cls-7" d="M43.6,51.82A.6.6,0,0,1,44,51.1a.61.61,0,0,1,.72.45.59.59,0,0,1-.45.72A.58.58,0,0,1,43.6,51.82Z"/><path class="cls-5" d="M40.63,52.05a.59.59,0,1,1,1.17-.18.6.6,0,0,1-.5.69A.59.59,0,0,1,40.63,52.05Z"/><path class="cls-7" d="M40.67,52.33a.59.59,0,1,1,1.17-.18.58.58,0,0,1-.49.69A.59.59,0,0,1,40.67,52.33Z"/><path class="cls-5" d="M37.69,52.3a.59.59,0,1,1,.62.58A.59.59,0,0,1,37.69,52.3Z"/><path class="cls-7" d="M37.7,52.59a.6.6,0,1,1,.63.58A.6.6,0,0,1,37.7,52.59Z"/><path class="cls-5" d="M34.75,52.22a.61.61,0,0,1,.63-.56.6.6,0,0,1,.54.64.59.59,0,1,1-1.17-.08Z"/><path class="cls-7" d="M34.72,52.5a.6.6,0,1,1,1.19.09.59.59,0,0,1-.64.56A.58.58,0,0,1,34.72,52.5Z"/><path class="cls-5" d="M31.87,51.66A.59.59,0,1,1,33,52a.59.59,0,1,1-1.14-.29Z"/><path class="cls-7" d="M31.79,51.93a.59.59,0,0,1,.72-.42.6.6,0,0,1,.44.71.6.6,0,1,1-1.16-.29Z"/><path class="cls-5" d="M29.2,50.48a.61.61,0,0,1,.79-.24.6.6,0,0,1,.24.79.58.58,0,1,1-1-.55Z"/><path class="cls-7" d="M29.05,50.72a.63.63,0,0,1,.81-.23.6.6,0,0,1-.58,1.06A.58.58,0,0,1,29.05,50.72Z"/><path class="cls-5" d="M27,48.58a.64.64,0,0,1,.84,0,.63.63,0,0,1,0,.84.58.58,0,1,1-.8-.85Z"/><path class="cls-7" d="M26.79,48.76a.63.63,0,0,1,.84,0,.64.64,0,0,1,0,.85.58.58,0,0,1-.85,0A.57.57,0,0,1,26.79,48.76Z"/><path class="cls-5" d="M25.53,46.07a.58.58,0,0,1,.51,1,.59.59,0,1,1-.51-1Z"/><path class="cls-7" d="M25.27,46.18a.58.58,0,0,1,.77.29.59.59,0,0,1-.25.79.6.6,0,1,1-.52-1.08Z"/><path class="cls-5" d="M24.75,43.25a.59.59,0,0,1,.69.46.61.61,0,0,1-.46.69.57.57,0,0,1-.72-.45A.6.6,0,0,1,24.75,43.25Z"/><path class="cls-7" d="M24.47,43.3a.58.58,0,0,1,.69.46.62.62,0,0,1-.45.71A.59.59,0,0,1,24,44,.6.6,0,0,1,24.47,43.3Z"/><path class="cls-5" d="M24.51,40.32a.59.59,0,0,1,0,1.18.6.6,0,0,1-.64-.57A.62.62,0,0,1,24.51,40.32Z"/><path class="cls-7" d="M24.23,40.33a.58.58,0,0,1,.6.57.6.6,0,0,1-.56.62.62.62,0,0,1-.65-.58A.61.61,0,0,1,24.23,40.33Z"/><path class="cls-5" d="M24.56,37.37a.6.6,0,0,1,.56.61.59.59,0,0,1-.61.57.63.63,0,0,1-.6-.62A.61.61,0,0,1,24.56,37.37Z"/><path class="cls-7" d="M24.28,37.35a.6.6,0,0,1,.55.62.58.58,0,0,1-.6.57.6.6,0,1,1,.05-1.19Z"/><path class="cls-5" d="M25,34.46a.59.59,0,0,1,.46.68.63.63,0,0,1-.69.47.58.58,0,0,1-.5-.69A.61.61,0,0,1,25,34.46Z"/><path class="cls-7" d="M24.68,34.4a.59.59,0,0,1,.46.69.63.63,0,0,1-.69.48.59.59,0,0,1-.5-.7A.61.61,0,0,1,24.68,34.4Z"/><path class="cls-5" d="M25.91,31.71a.68.68,0,0,1,.3.79A.6.6,0,0,1,25.13,32,.53.53,0,0,1,25.91,31.71Z"/><path class="cls-7" d="M25.67,31.57a.69.69,0,0,1,.29.81.61.61,0,0,1-.78.29.6.6,0,0,1-.31-.81A.54.54,0,0,1,25.67,31.57Z"/><path class="cls-5" d="M28,29.82a.58.58,0,0,1-.21.74A.56.56,0,0,1,27,30.4a.6.6,0,0,1,.14-.87A.58.58,0,0,1,28,29.82Z"/><path class="cls-7" d="M27.88,29.56a.6.6,0,0,1-.25.76.57.57,0,0,1-.79-.14.62.62,0,0,1,.17-.9A.62.62,0,0,1,27.88,29.56Z"/><path class="cls-5" d="M30.81,29.68a.63.63,0,0,1-.65.49.61.61,0,0,1-.5-.64.58.58,0,0,1,.66-.55A.57.57,0,0,1,30.81,29.68Z"/><path class="cls-7" d="M30.87,29.41a.64.64,0,0,1-.68.48.62.62,0,0,1-.52-.65.58.58,0,0,1,.69-.54A.58.58,0,0,1,30.87,29.41Z"/><path class="cls-5" d="M33.5,30.78a.58.58,0,1,1-1-.53.58.58,0,0,1,.8-.28A.57.57,0,0,1,33.5,30.78Z"/><path class="cls-7" d="M33.64,30.54a.62.62,0,0,1-.8.25.61.61,0,0,1-.26-.8.6.6,0,1,1,1.06.55Z"/><circle class="cls-8" cx="43.72" cy="44.44" r="1.19"/><rect class="cls-5" x="43.21" y="22.88" width="16.58" height="23.37" rx="8.29" ry="8.29"/><rect class="cls-5" x="45.06" y="36.27" width="12.88" height="16.37" rx="6.44" ry="6.44"/><rect class="cls-5" x="55.68" y="42.63" width="4.32" height="3.62" rx="1.81" ry="1.81"/><rect class="cls-5" x="43.21" y="42.63" width="4.32" height="3.62" rx="1.81" ry="1.81"/><circle class="cls-8" cx="58.34" cy="44.44" r="1.19"/><path class="cls-9" d="M52.85,47c0,1.7-1.39.84-3.1.84s-3.09.86-3.09-.84a3.1,3.1,0,0,1,6.19,0Z"/><path class="cls-10" d="M48.53,44.15a3.09,3.09,0,0,0-1.12.84l.41,1.14Z"/><path class="cls-10" d="M50.39,44a3.39,3.39,0,0,0-.64-.06,2.84,2.84,0,0,0-.88.14l.74,2.09Z"/><path class="cls-10" d="M51.89,44.76a3,3,0,0,0-1.23-.71l.74,2.08Z"/><path class="cls-5" d="M35.4,58.93a2.11,2.11,0,0,1-2.07-1.75c-.66-3.79.09-6.62,2.23-8.4,4.41-3.66,12.76-.71,13.7-.36a2.11,2.11,0,1,1-1.46,3.95c-2.25-.83-7.55-2-9.54-.34-.9.74-1.16,2.23-.78,4.43a2.1,2.1,0,0,1-1.71,2.44A2.22,2.22,0,0,1,35.4,58.93Z"/><path class="cls-5" d="M75,57.17a2.1,2.1,0,0,1-2-1.34c-.49-1.26-1.53-3.41-2.95-3.62-1.72-.22-4.15,2-5.06,3.19a2.18,2.18,0,0,1-1.72.81,2.1,2.1,0,0,1-1.67-.9c-3.79-5.47-7.21-4-7.59-3.82a2.12,2.12,0,0,1-2.82-.93,2.08,2.08,0,0,1,.86-2.8c2.12-1.15,7-1.73,11.42,3.13,1.66-1.51,4.29-3.26,7.17-2.85,2.7.39,4.82,2.49,6.29,6.25A2.11,2.11,0,0,1,75.72,57,2.07,2.07,0,0,1,75,57.17Z"/><path class="cls-11" d="M34.76,16.8a.79.79,0,0,0-.56.1C34,17.07,35.61,18,35.61,18"/><rect class="cls-12" x="32.25" y="20.24" width="12.26" height="0.69" rx="0.17" ry="0.17" transform="translate(21.28 -19.47) rotate(38.68)"/><path class="cls-13" d="M37.29,31.21c-.89-.83-1.94-1.77-3-2.68l-1.13-1c-1-.88-2-1.68-2.71-2.26L30,24.92c-.59-.46-1.13-.86-1.63-1.21a13.43,13.43,0,0,0-2.17-1.29c-.47-.2-.78-.25-.88-.11-.3.37-3.14,2.5,1.6,6.54.13.12.27.23.42.35.63.5,1.22,1,1.79,1.37s1.11.79,1.62,1.13a26.18,26.18,0,0,0,3.08,1.74c.38.17.74.32,1.07.45a8,8,0,0,0,2.75.58,2.56,2.56,0,0,0,2-.68C39.78,33.63,38.75,32.57,37.29,31.21Z"/><path class="cls-12" d="M25.32,22.31c-.3.37-3.14,2.5,1.6,6.54l-.72-6.43C25.73,22.22,25.42,22.17,25.32,22.31Z"/><path class="cls-12" d="M28.37,23.71l.76,6.86c.57.42,1.11.79,1.62,1.13L30,24.92C29.41,24.46,28.87,24.06,28.37,23.71Z"/><path class="cls-12" d="M33.18,27.55l.65,5.89c.38.17.74.32,1.07.45l-.59-5.36Z"/><path class="cls-12" d="M39.66,33.79c.12-.16-.91-1.22-2.37-2.58l.36,3.26A2.56,2.56,0,0,0,39.66,33.79Z"/><path class="cls-14" d="M39.7,33.74c-.29.36-7.91-5.25-10.66-7.46s-4-3.69-3.72-4.05,2,.54,4.77,2.74S40,33.38,39.7,33.74Z"/><path class="cls-13" d="M38.81,33c-.2.25-6.81-4.72-9.21-6.65S26,23.21,26.24,23s1.66.59,4.07,2.52S39,32.78,38.81,33Z"/><path class="cls-14" d="M30.67,26.57l-1.14-.91a.64.64,0,0,0-.91.1.75.75,0,0,0-.07.12l.49.4c.44.36,1,.8,1.65,1.29l.08-.09A.64.64,0,0,0,30.67,26.57Z"/><path class="cls-14" d="M35.12,30.13,34,29.22a.64.64,0,0,0-.91.1l0,0c.74.55,1.5,1.1,2.22,1.62A.65.65,0,0,0,35.12,30.13Z"/><circle class="cls-12" cx="26.34" cy="25.26" r="0.53"/><circle class="cls-12" cx="30.22" cy="28.44" r="0.81"/><circle class="cls-12" cx="32.36" cy="31.59" r="0.3"/><path class="cls-13" d="M29.71,27.92a1.8,1.8,0,0,1-.16.93,1.78,1.78,0,0,1-.36-.87,1.8,1.8,0,0,1,.16-.93A1.78,1.78,0,0,1,29.71,27.92Z"/><path class="cls-13" d="M34.5,31.75a1.92,1.92,0,0,1-.16.93,1.65,1.65,0,0,1-.2-1.8A2,2,0,0,1,34.5,31.75Z"/><path class="cls-14" d="M27.56,27.64a9.59,9.59,0,0,1,.05,1.47,10.1,10.1,0,0,1-.27-1.44,9.58,9.58,0,0,1-.05-1.47A10.1,10.1,0,0,1,27.56,27.64Z"/><path class="cls-14" d="M28.12,27.06a11.41,11.41,0,0,1,.05,1.47,10.1,10.1,0,0,1-.27-1.44,9.59,9.59,0,0,1,0-1.47A10.1,10.1,0,0,1,28.12,27.06Z"/><path class="cls-13" d="M25.66,25.21a1.74,1.74,0,0,1-.3,1.07,1.72,1.72,0,0,1-.52-1,1.81,1.81,0,0,1,.29-1.08A1.82,1.82,0,0,1,25.66,25.21Z"/><path class="cls-13" d="M30.34,30a2.83,2.83,0,0,1,0,.91,3.15,3.15,0,0,1-.24-.88,3.32,3.32,0,0,1,0-.92A2.92,2.92,0,0,1,30.34,30Z"/><path class="cls-12" d="M39.15,18.6a.36.36,0,0,0-.51,0L32,26.9l-.68.85.58.45.66-.83,6.62-8.26A.36.36,0,0,0,39.15,18.6Z"/><rect class="cls-14" x="37.64" y="19.42" width="1.5" height="0.26" rx="0.06" ry="0.06" transform="translate(20.64 -19.71) rotate(38.68)"/><rect class="cls-14" x="37.77" y="19.26" width="1.5" height="0.26" rx="0.06" ry="0.06" transform="translate(20.56 -19.82) rotate(38.68)"/><rect class="cls-14" x="37.9" y="19.09" width="1.5" height="0.26" rx="0.06" ry="0.06" transform="translate(20.49 -19.94) rotate(38.68)"/><path class="cls-6" d="M41.71,27.88c.64-1,.95-4.75.95-4.75l-7.9-6.33a19.05,19.05,0,0,1-.9,4.65A12.86,12.86,0,0,0,41.71,27.88Z"/><path class="cls-15" d="M33.86,21.45a1.07,1.07,0,0,1-.13.21c-.69.86-4.51,2.06-4.51,2.06l7.91,6.33S41,28.85,41.64,28a.61.61,0,0,1,.07-.1A12.86,12.86,0,0,1,33.86,21.45Z"/><path class="cls-15" d="M41.49,27a21.12,21.12,0,0,1-6.35-5.08A20.8,20.8,0,0,1,41.49,27Z"/><path class="cls-16" d="M37.41,29.23s-1.55-1-3.3-2.38-3.05-2.7-3.05-2.7,1.54,1,3.3,2.39S37.41,29.23,37.41,29.23Z"/><path class="cls-5" d="M66.28,51.71a2.71,2.71,0,0,1-.4,0,2.11,2.11,0,0,1-1.68-2.44c-1.06-.2-3.92.34-6.31,1.24a2.11,2.11,0,1,1-1.49-3.94c2.34-.89,8.08-2.7,10.73-.47A3.91,3.91,0,0,1,68.35,50,2.12,2.12,0,0,1,66.28,51.71Z"/><path class="cls-5" d="M51.89,60.05a2.1,2.1,0,0,1-1.52-3.56c.82-.86.73-1.35.7-1.51-.21-1.13-2.13-2.46-3.11-2.93a2.11,2.11,0,0,1,1.81-3.81c.49.23,4.77,2.36,5.44,6a5.77,5.77,0,0,1-1.79,5.19A2.11,2.11,0,0,1,51.89,60.05Z"/></svg>