<svg id="Layer_1" data-name="Layer 1" xmlns="http://www.w3.org/2000/svg" viewBox="0 0 100 100"><defs><style>.cls-1{fill:#ffc540;}.cls-2{fill:#fff;}.cls-3{fill:#d98334;}.cls-4{fill:#b8602a;}.cls-5{fill:#3f3f40;}.cls-6{fill:#dead35;}</style></defs><title>maahes</title><rect class="cls-1" x="52.31" y="66.6" width="9.32" height="33.4" rx="4.66" ry="4.66"/><rect class="cls-1" x="38.9" y="66.6" width="9.32" height="33.4" rx="4.66" ry="4.66"/><rect class="cls-2" x="34.01" y="37.98" width="31.47" height="41.49" rx="15.74" ry="15.74"/><rect class="cls-2" x="34.01" y="40.93" width="31.47" height="11.42" rx="5.71" ry="5.71"/><ellipse class="cls-3" cx="49.97" cy="49.1" rx="14.41" ry="7.51"/><ellipse class="cls-1" cx="49.97" cy="47.3" rx="14.41" ry="7.51"/><ellipse class="cls-3" cx="49.97" cy="45.49" rx="14.41" ry="7.51"/><rect class="cls-1" x="62.62" y="42.25" width="6.73" height="18.69" rx="3.36" ry="3.36"/><rect class="cls-1" x="62.62" y="58.72" width="6.73" height="18.69" rx="3.36" ry="3.36"/><rect class="cls-1" x="30.65" y="42.25" width="6.73" height="18.69" rx="3.36" ry="3.36"/><rect class="cls-1" x="30.65" y="58.72" width="6.73" height="18.69" rx="3.36" ry="3.36"/><polyline class="cls-4" points="31.45 50.01 35.56 47.75 41.11 40.58 41.11 34 32.72 34"/><polyline class="cls-4" points="69.08 50.01 64.97 47.75 58.71 40.58 59.42 34 67.81 34"/><path class="cls-1" d="M36,9.19c0,3.12-2,5.66-4.53,5.66s-4.54-2.54-4.54-5.66-.47-5.65,2-5.65S36,6.07,36,9.19Z"/><path class="cls-1" d="M72.83,9.19c0,3.12-2,5.66-4.54,5.66s-4.53-2.54-4.53-5.66,4.7-5.65,7.2-5.65S72.83,6.07,72.83,9.19Z"/><polygon class="cls-4" points="71.43 38.29 66.56 34 66.56 37.19 71.43 38.29"/><polygon class="cls-4" points="33.08 30.02 33.84 30.02 33.84 29.48 33.84 30.02 66.56 30.02 66.56 29.62 66.56 30.02 67.1 30.02 66.56 30.02 66.56 31.8 73.76 31.13 65.03 27.37 73.76 23.6 64.3 22.72 71.43 16.45 62.16 18.53 67.01 10.36 58.84 15.2 60.92 5.93 54.65 13.07 53.76 3.61 50 12.33 46.24 3.61 45.35 13.07 39.08 5.93 41.16 15.2 32.99 10.36 37.84 18.53 28.57 16.45 35.7 22.72 26.24 23.6 34.97 27.37 26.24 31.13 33.84 31.84 33.84 30.02 33.08 30.02"/><polygon class="cls-4" points="28.57 38.29 33.84 37.1 33.84 33.65 28.57 38.29"/><path class="cls-4" d="M75.19,27.82l-1-.45,1-.45A3.61,3.61,0,0,0,74.09,20L73,19.91l.86-.75a3.61,3.61,0,0,0-3.18-6.23l-1.11.24.58-1a3.61,3.61,0,0,0-4.94-4.95l-1,.58.25-1.1a3.61,3.61,0,0,0-6.23-3.18l-.75.85-.1-1.13a3.61,3.61,0,0,0-6.91-1.09l-.45,1-.45-1a3.61,3.61,0,0,0-6.91,1.09l-.1,1.13-.75-.85a3.61,3.61,0,0,0-6.23,3.18l.25,1.1-1-.58a3.61,3.61,0,0,0-4.94,4.95l.58,1-1.11-.24a3.61,3.61,0,0,0-3.18,6.23l.86.75-1.13.1a3.61,3.61,0,0,0-1.1,6.91l1,.45-1,.45a3.61,3.61,0,0,0,1.1,6.9l1.13.11-.86.75a3.61,3.61,0,0,0,3.18,6.23l1.11-.25-.58,1a3.58,3.58,0,0,0,4,5.32V30h0v0h4.87a4.06,4.06,0,0,0-.67-.76,3.65,3.65,0,0,0,0-3.79,3.54,3.54,0,0,0,1.09-1.63,3.68,3.68,0,0,0,.08-2,3.74,3.74,0,0,0,1.55-1.22,3.6,3.6,0,0,0,.68-1.85,3.6,3.6,0,0,0,1.84-.68,3.54,3.54,0,0,0,1.22-1.55,3.57,3.57,0,0,0,3.6-1.17,3.61,3.61,0,0,0,3.8,0,3.57,3.57,0,0,0,3.6,1.17,3.62,3.62,0,0,0,3.06,2.23,3.6,3.6,0,0,0,.68,1.85,3.74,3.74,0,0,0,1.55,1.22,3.68,3.68,0,0,0,.08,2A3.54,3.54,0,0,0,62,25.47a3.65,3.65,0,0,0,0,3.79,4.06,4.06,0,0,0-.67.76h5.26v0h0v17.9a3.57,3.57,0,0,0,3-1,3.6,3.6,0,0,0,.55-4.39l-.58-1,1.11.25a3.61,3.61,0,0,0,3.18-6.23L73,34.83l1.13-.11a3.61,3.61,0,0,0,1.1-6.9Z"/><path class="cls-3" d="M69.08,50a4.63,4.63,0,0,1-4.62-4.63v-20a14.19,14.19,0,1,0-28.38,0v20a4.63,4.63,0,0,1-9.26,0v-20a23.45,23.45,0,1,1,46.89,0v20A4.63,4.63,0,0,1,69.08,50Z"/><path class="cls-3" d="M69.08,50a4.63,4.63,0,0,1-4.62-4.63v-20a14.19,14.19,0,1,0-28.38,0v20a4.63,4.63,0,0,1-9.26,0v-20a23.45,23.45,0,1,1,46.89,0v20A4.63,4.63,0,0,1,69.08,50Z"/><rect class="cls-5" x="26.82" y="41.88" width="9.25" height="3.47"/><path class="cls-5" d="M36.08,34.79H26.82V27.7h9.26Zm37.63-.07H64.46V27.63h9.25ZM36.52,21.81l-9-2.3a23.42,23.42,0,0,1,3.75-8L38.78,17A13.92,13.92,0,0,0,36.52,21.81ZM64,21.75A14.09,14.09,0,0,0,61.72,17l7.47-5.47A23.18,23.18,0,0,1,73,19.42Zm-21.34-8.4-5-7.8a23.31,23.31,0,0,1,8.16-3.26l1.76,9.08A13.9,13.9,0,0,0,42.66,13.35Zm15.16,0a14,14,0,0,0-4.92-2l1.71-9.09a23.1,23.1,0,0,1,8.18,3.24Z"/><rect class="cls-5" x="64.46" y="41.88" width="9.25" height="3.47"/><circle class="cls-1" cx="50.31" cy="25.58" r="17.59"/><circle class="cls-5" cx="38.55" cy="18.83" r="1.4"/><circle class="cls-5" cx="62.36" cy="18.83" r="1.4"/><ellipse class="cls-6" cx="44.87" cy="28.42" rx="7.26" ry="4.91" transform="translate(-6.73 15.82) rotate(-18.63)"/><ellipse class="cls-6" cx="55.76" cy="28.42" rx="4.91" ry="7.26" transform="translate(11.02 72.18) rotate(-71.37)"/><path class="cls-5" d="M53.33,23.43c0,.77-1.49,2.51-3.33,2.51s-3.33-1.74-3.33-2.51S48.16,22,50,22,53.33,22.66,53.33,23.43Z"/><rect class="cls-1" x="44.35" y="34.96" width="11.92" height="16.84" rx="5.96" ry="5.96"/><rect class="cls-5" x="30.65" y="68.52" width="6.73" height="3.9"/><rect class="cls-5" x="38.9" y="89.78" width="9.32" height="3.9"/><rect class="cls-5" x="52.31" y="89.78" width="9.32" height="3.9"/><rect class="cls-5" x="62.62" y="68.52" width="6.73" height="3.9"/></svg>