<svg id="Layer_1" data-name="Layer 1" xmlns="http://www.w3.org/2000/svg" viewBox="0 0 100 100"><defs><style>.cls-1{fill:none;stroke:#ffc640;stroke-miterlimit:10;stroke-width:1.42px;}.cls-2{fill:#ffc640;}.cls-3{fill:#ffdb91;}.cls-4{fill:#e6b43b;}</style></defs><title>magic lamp</title><ellipse class="cls-1" cx="49.44" cy="26.85" rx="3.2" ry="4.68"/><rect class="cls-2" x="33.11" y="77.25" width="35" height="1.29"/><path class="cls-2" d="M65.4,48.54C29.4,59.38,14.53,42.3,3.6,30.86H0c1.82,2.88,11.25,33.16,33.18,44,1,.52,2,1.23,2,2.4H57.89a11.38,11.38,0,0,1,4.62-9.08A36.8,36.8,0,0,0,77,43.14,45.42,45.42,0,0,1,65.4,48.54Z"/><path class="cls-2" d="M64.79,44.81C63.3,36.3,57,29.9,49.44,29.9c-8.16,0-14.84,7.46-15.6,17A79.11,79.11,0,0,0,64.79,44.81Z"/><path class="cls-2" d="M91.79,39.2h0a4,4,0,0,1,2.89,1.16c2.14,1.91.91,5.93.29,7.56C91.39,57.29,77.12,70.48,56.6,70.48a26,26,0,0,1-7.53-.77c.65-1,2.29-2.89,6.32-6s9-6.31,12.64-8.63c2.23-1.43,4-2.56,5-3.34s2.49-2.06,4-3.41c4.1-3.63,10.29-9.12,14.7-9.12m0-4.12c-7.74,0-16.59,9.87-21.21,13.36-5.91,4.47-45.53,26.15-14,26.15S107.2,46,97.43,37.29a8.23,8.23,0,0,0-5.64-2.21Z"/><path class="cls-2" d="M81.22,41.58s2.57,29.93-25.47,33S81.22,41.58,81.22,41.58Z"/><path class="cls-2" d="M72.38,67.38s-8.14,5.84-7.2,10.52l-10.12-.39v-7.8Z"/><ellipse class="cls-3" cx="65.91" cy="60.57" rx="8.77" ry="4.76" transform="translate(-23.21 52.12) rotate(-37.17)"/><ellipse class="cls-3" cx="56.6" cy="36.8" rx="2.26" ry="4.16" transform="translate(-9.45 50.8) rotate(-45)"/><rect class="cls-4" x="44.44" y="28.23" width="10.02" height="2.9" rx="1.45" ry="1.45"/></svg>