<svg id="Layer_1" data-name="Layer 1" xmlns="http://www.w3.org/2000/svg" viewBox="0 0 100 100"><defs><style>.cls-1{fill:#885e59;}.cls-2{fill:#4f3330;}.cls-3{fill:#714d49;}.cls-4{fill:#ffc540;}.cls-5{fill:#f89e3e;}.cls-6{fill:#3f3f40;}</style></defs><title>mimic</title><path class="cls-1" d="M98.14,39.6A25.28,25.28,0,0,0,72.93,14.39H27.55A25.28,25.28,0,0,0,2.34,39.6v3.21h95.8Z"/><path class="cls-1" d="M2.34,59.88V74.76A10.88,10.88,0,0,0,13.19,85.61H87.28A10.89,10.89,0,0,0,98.14,74.76V59.88Z"/><polygon class="cls-2" points="98.14 59.88 2.34 59.88 9.62 52.2 2.34 44.52 98.14 44.52 89.44 52.2 98.14 59.88"/><rect class="cls-3" y="40.07" width="100" height="5.43" rx="2.72" ry="2.72"/><rect class="cls-4" x="41.4" y="31.23" width="17.68" height="27.14" rx="8.84" ry="8.84"/><circle class="cls-5" cx="50.27" cy="40.34" r="4.19"/><polygon class="cls-5" points="45.33 52.1 55.18 52.1 50.25 39.63 45.33 52.1"/><circle class="cls-6" cx="11.77" cy="35.19" r="2.62"/><circle class="cls-6" cx="88.67" cy="35.19" r="2.62"/><polygon class="cls-4" points="6.86 45.5 13.04 45.5 9.62 52.1 6.86 45.5"/><polygon class="cls-4" points="15.44 45.5 21.62 45.5 18.2 52.1 15.44 45.5"/><polygon class="cls-4" points="24.02 45.5 30.2 45.5 26.78 52.1 24.02 45.5"/><polygon class="cls-4" points="34.51 59.86 28.33 59.86 31.75 53.26 34.51 59.86"/><polygon class="cls-4" points="25.93 59.86 19.75 59.86 23.17 53.26 25.93 59.86"/><polygon class="cls-4" points="17.36 59.86 11.17 59.86 14.59 53.26 17.36 59.86"/><polygon class="cls-4" points="87.82 59.86 81.63 59.86 85.05 53.26 87.82 59.86"/><polygon class="cls-4" points="79.24 59.86 73.06 59.86 76.47 53.26 79.24 59.86"/><polygon class="cls-4" points="70.66 59.86 64.48 59.86 67.89 53.26 70.66 59.86"/><polygon class="cls-4" points="32.59 45.5 38.78 45.5 35.36 52.1 32.59 45.5"/><polygon class="cls-4" points="60.61 45.5 66.79 45.5 63.37 52.1 60.61 45.5"/><polygon class="cls-4" points="69.19 45.5 75.37 45.5 71.95 52.1 69.19 45.5"/><polygon class="cls-4" points="77.77 45.5 83.95 45.5 80.53 52.1 77.77 45.5"/><polygon class="cls-4" points="86.34 45.5 92.53 45.5 89.11 52.1 86.34 45.5"/></svg>