<svg id="Layer_1" data-name="Layer 1" xmlns="http://www.w3.org/2000/svg" viewBox="0 0 100 100"><defs><style>.cls-1{fill:#4e4544;}.cls-2{fill:#3b3433;}.cls-3{fill:#685c5a;}.cls-4{fill:#c4ae94;}.cls-5{fill:#00a69c;}.cls-6{fill:#3e3e3f;}.cls-7{fill:#90807d;}.cls-8{fill:none;stroke:#4e4544;stroke-linecap:round;stroke-miterlimit:10;stroke-width:2.2px;}</style></defs><title>monster</title><path class="cls-1" d="M25.39,49.38h49A5.64,5.64,0,0,1,80.08,55V88.73A11.27,11.27,0,0,1,68.81,100H31A11.27,11.27,0,0,1,19.75,88.73V55A5.64,5.64,0,0,1,25.39,49.38Z" transform="translate(99.83 149.38) rotate(180)"/><path class="cls-2" d="M35.12,100c-3.29,0-6-3.74-6-8.34V82c0-10.56,6.15-19.14,13.71-19.14H57c7.56,0,13.71,8.58,13.71,19.14v9.7c0,4.6-2.68,8.34-6,8.34Z"/><path class="cls-1" d="M65.21,21.74c.53-3.22,8-1.89,10.58-5.35C80,10.83,75.59,4,74.26.65c-1.1-2.81,11,4,12.06,11.55a12.29,12.29,0,0,1-.95,6.5c-3.2,7.3-13.32,11.39-17.73,8.36A5.76,5.76,0,0,1,65.21,21.74Z"/><path class="cls-1" d="M33.18,21.74c-.54-3.22-8-1.89-10.58-5.35C18.44,10.83,22.8,4,24.13.65c1.1-2.81-11,4-12.06,11.55A12.19,12.19,0,0,0,13,18.7c3.2,7.3,13.31,11.39,17.73,8.36A5.78,5.78,0,0,0,33.18,21.74Z"/><path class="cls-3" d="M48.07,5.39h3.76A28.28,28.28,0,0,1,80.11,33.67V44.74A11.27,11.27,0,0,1,68.84,56H31.06A11.27,11.27,0,0,1,19.79,44.74V33.67A28.28,28.28,0,0,1,48.07,5.39Z"/><path class="cls-3" d="M33.24,49.38H66.66a0,0,0,0,1,0,0V62.12A11.25,11.25,0,0,1,55.41,73.37H44.49A11.25,11.25,0,0,1,33.24,62.12V49.38A0,0,0,0,1,33.24,49.38Z"/><path class="cls-2" d="M57.27,29.7H73a0,0,0,0,1,0,0V34a7.88,7.88,0,0,1-7.88,7.88h0A7.88,7.88,0,0,1,57.27,34V29.7a0,0,0,0,1,0,0Z"/><path class="cls-2" d="M25.36,29.7H41.11a0,0,0,0,1,0,0V34a7.88,7.88,0,0,1-7.88,7.88h0A7.88,7.88,0,0,1,25.36,34V29.7a0,0,0,0,1,0,0Z"/><circle class="cls-4" cx="65.15" cy="29.7" r="7.88"/><circle class="cls-4" cx="33.24" cy="29.7" r="7.88"/><circle class="cls-5" cx="33.24" cy="29.7" r="4.73"/><circle class="cls-5" cx="65.15" cy="29.7" r="4.73"/><circle class="cls-6" cx="65.15" cy="29.7" r="2.93"/><circle class="cls-6" cx="33.24" cy="29.7" r="2.93"/><path class="cls-2" d="M50,37.57S44.73,39.19,44.73,44c0,2.49,1.17,4.52,2.61,4.52S50,46.48,50,44c0,2.49,1.17,4.52,2.61,4.52s2.61-2,2.61-4.52C55.17,39.19,50,37.57,50,37.57Z"/><path class="cls-2" d="M42.47,67.91a3,3,0,0,1-3-3V61.4a6.92,6.92,0,0,1,6.9-6.91h7.11a6.92,6.92,0,0,1,6.9,6.91v3.5a3,3,0,0,1-3,3Z"/><path class="cls-7" d="M42.64,55.6s.4,5,1.36,5.15,2.36-6.26,2.36-6.26Z"/><path class="cls-7" d="M57.27,55.6s-.4,5-1.36,5.15-2.36-6.26-2.36-6.26Z"/><path class="cls-1" d="M53.47,55.6a5.8,5.8,0,0,1,5.8,5.8v3.5a1.92,1.92,0,0,1-1.91,1.91H42.47a1.92,1.92,0,0,1-1.91-1.91V61.4a5.8,5.8,0,0,1,5.8-5.8h7.11m0-2.21H46.36a8,8,0,0,0-8,8v3.5A4.11,4.11,0,0,0,42.47,69H57.36a4.11,4.11,0,0,0,4.11-4.11V61.4a8,8,0,0,0-8-8Z"/><path class="cls-8" d="M45,24.16h0a4.4,4.4,0,0,0,4.4,4.4h1.17a4.4,4.4,0,0,0,4.41-4.4v-.27"/><path class="cls-8" d="M73.65,46.1H71.51a8.39,8.39,0,0,0-8.39,8.39h0"/><path class="cls-8" d="M26.48,46.1h2.14A8.39,8.39,0,0,1,37,54.49h0"/><rect class="cls-1" x="11.1" y="51.13" width="13.57" height="49.22" rx="6.79" ry="6.79" transform="translate(-14.63 5.04) rotate(-11.41)"/><path class="cls-1" d="M8.94,46.6h0a1.95,1.95,0,0,1,1.95,1.95V65.14a0,0,0,0,1,0,0H7a0,0,0,0,1,0,0V48.55A1.95,1.95,0,0,1,8.94,46.6Z" transform="translate(-10.88 2.87) rotate(-11.41)"/><path class="cls-1" d="M12.75,41h0A1.95,1.95,0,0,1,14.7,43V59.55a0,0,0,0,1,0,0h-3.9a0,0,0,0,1,0,0V43A1.95,1.95,0,0,1,12.75,41Z" transform="translate(-9.7 3.52) rotate(-11.41)"/><path class="cls-1" d="M18.11,43.07h0A1.95,1.95,0,0,1,20.05,45V61.6a0,0,0,0,1,0,0h-3.9a0,0,0,0,1,0,0V45A1.95,1.95,0,0,1,18.11,43.07Z" transform="translate(-10 4.62) rotate(-11.41)"/><polygon class="cls-4" points="7.5 49.4 6.31 49.65 6.25 46.28 6.19 42.91 7.45 46.03 8.7 49.16 7.5 49.4"/><polygon class="cls-4" points="11.58 44.45 10.38 44.69 10.32 41.32 10.27 37.95 11.52 41.08 12.77 44.21 11.58 44.45"/><polygon class="cls-4" points="16.83 46.01 15.63 46.25 15.57 42.88 15.52 39.51 16.77 42.64 18.03 45.77 16.83 46.01"/><path class="cls-2" d="M6.47,49.38H8.94a0,0,0,0,1,0,0V50a1.23,1.23,0,0,1-1.23,1.23h0A1.23,1.23,0,0,1,6.47,50v-.67A0,0,0,0,1,6.47,49.38Z" transform="translate(-9.81 2.52) rotate(-11.41)"/><path class="cls-2" d="M10.53,44.43H13a0,0,0,0,1,0,0v.67a1.23,1.23,0,0,1-1.23,1.23h0a1.23,1.23,0,0,1-1.23-1.23v-.67A0,0,0,0,1,10.53,44.43Z" transform="translate(-8.75 3.22) rotate(-11.41)"/><path class="cls-2" d="M15.78,46h2.47a0,0,0,0,1,0,0v.67A1.23,1.23,0,0,1,17,47.89h0a1.23,1.23,0,0,1-1.23-1.23V46a0,0,0,0,1,0,0Z" transform="translate(-8.95 4.29) rotate(-11.41)"/><ellipse class="cls-2" cx="14.14" cy="57.17" rx="5.16" ry="3.1" transform="translate(-11.03 3.93) rotate(-11.41)"/><rect class="cls-1" x="75.32" y="51.13" width="13.57" height="49.22" rx="6.79" ry="6.79" transform="translate(147.61 166.23) rotate(-168.59)"/><path class="cls-1" d="M89.11,46.6H93a0,0,0,0,1,0,0V63.19a1.95,1.95,0,0,1-1.95,1.95h0a1.95,1.95,0,0,1-1.95-1.95V46.6A0,0,0,0,1,89.11,46.6Z" transform="translate(169.26 128.65) rotate(-168.59)"/><path class="cls-1" d="M85.3,41h3.9a0,0,0,0,1,0,0V57.6a1.95,1.95,0,0,1-1.95,1.95h0A1.95,1.95,0,0,1,85.3,57.6V41A0,0,0,0,1,85.3,41Z" transform="translate(162.82 116.84) rotate(-168.59)"/><path class="cls-1" d="M79.95,43.07h3.9a0,0,0,0,1,0,0V59.65a1.95,1.95,0,0,1-1.95,1.95h0a1.95,1.95,0,0,1-1.95-1.95V43.07A0,0,0,0,1,79.95,43.07Z" transform="translate(151.82 119.84) rotate(-168.59)"/><polygon class="cls-4" points="92.5 49.4 93.69 49.65 93.75 46.28 93.81 42.91 92.55 46.03 91.3 49.16 92.5 49.4"/><polygon class="cls-4" points="88.42 44.45 89.62 44.69 89.68 41.32 89.73 37.95 88.48 41.08 87.23 44.21 88.42 44.45"/><polygon class="cls-4" points="83.17 46.01 84.37 46.25 84.43 42.88 84.48 39.51 83.23 42.64 81.97 45.77 83.17 46.01"/><path class="cls-2" d="M92.29,49.38h0a1.23,1.23,0,0,1,1.23,1.23v.67a0,0,0,0,1,0,0H91.06a0,0,0,0,1,0,0v-.67A1.23,1.23,0,0,1,92.29,49.38Z" transform="translate(172.81 117.93) rotate(-168.59)"/><path class="cls-2" d="M88.24,44.43h0a1.23,1.23,0,0,1,1.23,1.23v.67a0,0,0,0,1,0,0H87a0,0,0,0,1,0,0v-.67A1.23,1.23,0,0,1,88.24,44.43Z" transform="translate(165.75 107.32) rotate(-168.59)"/><path class="cls-2" d="M83,46h0a1.23,1.23,0,0,1,1.23,1.23v.67a0,0,0,0,1,0,0H81.75a0,0,0,0,1,0,0v-.67A1.23,1.23,0,0,1,83,46Z" transform="matrix(-0.98, -0.2, 0.2, -0.98, 155.04, 109.37)"/><ellipse class="cls-2" cx="85.86" cy="57.17" rx="3.1" ry="5.16" transform="translate(12.83 130.02) rotate(-78.59)"/><path class="cls-2" d="M28.09,12.29a4.85,4.85,0,0,0,2.63,3.55C33,16.92,44.08,18,45.85,23.1S42,27,37.68,25.42,26.39,20.17,28.09,12.29Z"/><path class="cls-2" d="M72,12.29a4.85,4.85,0,0,1-2.63,3.55C67.1,16.92,56.05,18,54.27,23.1s3.85,3.86,8.18,2.32S73.74,20.17,72,12.29Z"/></svg>