<svg id="Layer_1" data-name="Layer 1" xmlns="http://www.w3.org/2000/svg" viewBox="0 0 100 100"><defs><style>.cls-1{fill:#685c5a;}.cls-2{fill:#e1b589;}.cls-3{fill:#80726f;}.cls-4{fill:#4e4544;}.cls-5{fill:#3b3433;}.cls-6{fill:#c4ae94;}.cls-7{fill:#00a69c;}.cls-8{fill:#3e3e3f;}.cls-9{fill:#90807d;}.cls-10{fill:none;stroke:#4e4544;stroke-linecap:round;stroke-miterlimit:10;stroke-width:1.4px;}</style></defs><title>necronomicon</title><path class="cls-1" d="M12,10H80.1a0,0,0,0,1,0,0V97.72A2.28,2.28,0,0,1,77.82,100H12a0,0,0,0,1,0,0V10A0,0,0,0,1,12,10Z"/><polygon class="cls-2" points="76.5 97.02 14.11 97.02 14.11 90.04 83.5 90.04 76.5 97.02"/><path class="cls-3" d="M19.9,0H85.72A2.28,2.28,0,0,1,88,2.28V87.76A2.28,2.28,0,0,1,85.72,90H19.9a0,0,0,0,1,0,0V0A0,0,0,0,1,19.9,0Z"/><polygon class="cls-1" points="19.89 90.04 12 100 12 9.96 19.89 0 19.89 90.04"/><path class="cls-4" d="M80.87,7.66V81.48H28.37V7.66h52.5m3.3-3.3H25.06V84.78H84.17V4.36Z"/><path class="cls-4" d="M64.42,27.5c.34-2.05,5.09-1.2,6.74-3.41,2.66-3.54-.12-7.89-1-10-.7-1.79,7,2.55,7.69,7.37a7.79,7.79,0,0,1-.61,4.14c-2,4.66-8.49,7.26-11.3,5.33A3.65,3.65,0,0,1,64.42,27.5Z"/><path class="cls-4" d="M44,27.5c-.34-2.05-5.09-1.2-6.74-3.41-2.66-3.54.12-7.89,1-10,.7-1.79-7,2.55-7.69,7.37a7.75,7.75,0,0,0,.6,4.14c2.05,4.66,8.5,7.26,11.31,5.33A3.67,3.67,0,0,0,44,27.5Z"/><path class="cls-1" d="M53.49,17.07h2.4a18,18,0,0,1,18,18v7.06a7.19,7.19,0,0,1-7.19,7.19H42.64a7.19,7.19,0,0,1-7.19-7.19V35.11A18,18,0,0,1,53.49,17.07Z"/><path class="cls-1" d="M44,45.13H65.35a0,0,0,0,1,0,0v8.12a7.17,7.17,0,0,1-7.17,7.17h-7A7.17,7.17,0,0,1,44,53.25V45.13a0,0,0,0,1,0,0Z"/><path class="cls-5" d="M59.36,32.58h10a0,0,0,0,1,0,0V35.3a5,5,0,0,1-5,5h0a5,5,0,0,1-5-5V32.58A0,0,0,0,1,59.36,32.58Z"/><path class="cls-5" d="M39,32.58H49a0,0,0,0,1,0,0V35.3a5,5,0,0,1-5,5h0a5,5,0,0,1-5-5V32.58A0,0,0,0,1,39,32.58Z"/><circle class="cls-6" cx="64.38" cy="32.58" r="5.02"/><circle class="cls-6" cx="44.03" cy="32.58" r="5.02"/><circle class="cls-7" cx="44.03" cy="32.58" r="3.02"/><circle class="cls-7" cx="64.38" cy="32.58" r="3.02"/><circle class="cls-8" cx="64.38" cy="32.58" r="1.87"/><circle class="cls-8" cx="44.03" cy="32.58" r="1.87"/><path class="cls-5" d="M54.69,37.6s-3.33,1-3.33,4.09c0,1.59.74,2.88,1.66,2.88s1.67-1.29,1.67-2.88c0,1.59.74,2.88,1.66,2.88S58,43.28,58,41.69C58,38.63,54.69,37.6,54.69,37.6Z"/><path class="cls-5" d="M71.71,19.16a3.49,3.49,0,0,1-1.89,2.56c-1.66.77-9.59,1.55-10.87,5.21s2.76,2.77,5.87,1.66S72.93,24.82,71.71,19.16Z"/><path class="cls-5" d="M37.67,19.16a3.5,3.5,0,0,0,1.88,2.56c1.66.77,9.59,1.55,10.87,5.21s-2.76,2.77-5.87,1.66S36.45,24.82,37.67,19.16Z"/><path class="cls-5" d="M49.91,56.94A1.92,1.92,0,0,1,48,55V52.79a4.41,4.41,0,0,1,4.4-4.4h4.53a4.41,4.41,0,0,1,4.4,4.4V55a1.92,1.92,0,0,1-1.92,1.91Z"/><path class="cls-9" d="M50,49.09s.26,3.2.87,3.29,1.51-4,1.51-4Z"/><path class="cls-9" d="M59.36,49.09s-.26,3.2-.87,3.29-1.51-4-1.51-4Z"/><path class="cls-4" d="M56.93,49.09a3.7,3.7,0,0,1,3.7,3.7V55a1.22,1.22,0,0,1-1.22,1.21h-9.5A1.21,1.21,0,0,1,48.7,55V52.79a3.7,3.7,0,0,1,3.7-3.7h4.53m0-1.4H52.4a5.1,5.1,0,0,0-5.1,5.1V55a2.62,2.62,0,0,0,2.61,2.62h9.5A2.62,2.62,0,0,0,62,55V52.79a5.1,5.1,0,0,0-5.1-5.1Z"/><path class="cls-10" d="M51.5,29.05h0a2.8,2.8,0,0,0,2.81,2.8h.75a2.8,2.8,0,0,0,2.81-2.8v-.18"/><path class="cls-10" d="M69.8,43H68.44a5.35,5.35,0,0,0-5.36,5.35h0"/><path class="cls-10" d="M39.72,43h1.36a5.34,5.34,0,0,1,5.35,5.35h0"/><rect class="cls-4" x="40.97" y="48.73" width="6.73" height="24.39" rx="3.36" ry="3.36" transform="translate(-30.43 51.54) rotate(-46.8)"/><path class="cls-4" d="M35,50.88h0a1,1,0,0,1,1,1v8.22a0,0,0,0,1,0,0H34a0,0,0,0,1,0,0V51.84a1,1,0,0,1,1-1Z" transform="translate(-29.39 43.02) rotate(-46.8)"/><path class="cls-4" d="M35,47.53h0a1,1,0,0,1,1,1v8.22a0,0,0,0,1,0,0H34a0,0,0,0,1,0,0V48.49A1,1,0,0,1,35,47.53Z" transform="translate(-26.97 41.92) rotate(-46.8)"/><path class="cls-4" d="M37.7,46.82h0a1,1,0,0,1,1,1V56a0,0,0,0,1,0,0H36.74a0,0,0,0,1,0,0V47.79a1,1,0,0,1,1-1Z" transform="translate(-25.59 43.7) rotate(-46.8)"/><polygon class="cls-6" points="32.58 53.27 32.16 53.71 31.17 52.37 30.18 51.02 31.59 51.93 32.99 52.83 32.58 53.27"/><polygon class="cls-6" points="32.8 50.1 32.39 50.54 31.4 49.2 30.41 47.85 31.81 48.76 33.21 49.66 32.8 50.1"/><polygon class="cls-6" points="35.37 49.22 34.95 49.66 33.97 48.32 32.98 46.98 34.38 47.88 35.78 48.78 35.37 49.22"/><path class="cls-5" d="M32.31,53.12h1.22a0,0,0,0,1,0,0v.33a.61.61,0,0,1-.61.61h0a.61.61,0,0,1-.61-.61v-.33A0,0,0,0,1,32.31,53.12Z" transform="translate(-28.68 40.91) rotate(-46.8)"/><path class="cls-5" d="M32.53,50h1.22a0,0,0,0,1,0,0v.33a.61.61,0,0,1-.61.61h0a.61.61,0,0,1-.61-.61V50A0,0,0,0,1,32.53,50Z" transform="translate(-26.3 40.07) rotate(-46.8)"/><path class="cls-5" d="M35.1,49.08h1.22a0,0,0,0,1,0,0v.33a.61.61,0,0,1-.61.61h0a.61.61,0,0,1-.61-.61v-.33A0,0,0,0,1,35.1,49.08Z" transform="translate(-24.85 41.66) rotate(-46.8)"/><ellipse class="cls-5" cx="37.49" cy="54.5" rx="2.56" ry="1.54" transform="translate(-27.91 44.52) rotate(-46.8)"/><rect class="cls-4" x="61.94" y="48.83" width="6.73" height="24.39" rx="3.36" ry="3.36" transform="translate(68.97 150.32) rotate(-135.41)"/><path class="cls-4" d="M73.43,50.62h1.93a0,0,0,0,1,0,0v8.22a1,1,0,0,1-1,1h0a1,1,0,0,1-1-1V50.62a0,0,0,0,1,0,0Z" transform="translate(88.63 146.75) rotate(-135.41)"/><path class="cls-4" d="M73.37,47.27H75.3a0,0,0,0,1,0,0v8.22a1,1,0,0,1-1,1h0a1,1,0,0,1-1-1V47.27A0,0,0,0,1,73.37,47.27Z" transform="translate(90.87 140.97) rotate(-135.41)"/><path class="cls-4" d="M70.59,46.67h1.93a0,0,0,0,1,0,0v8.22a1,1,0,0,1-1,1h0a1,1,0,0,1-1-1V46.67a0,0,0,0,1,0,0Z" transform="translate(86.54 137.99) rotate(-135.41)"/><polygon class="cls-6" points="76.75 52.91 77.18 53.34 78.12 51.96 79.05 50.58 77.69 51.53 76.32 52.49 76.75 52.91"/><polygon class="cls-6" points="76.41 49.76 76.84 50.18 77.77 48.8 78.71 47.42 77.34 48.38 75.97 49.33 76.41 49.76"/><polygon class="cls-6" points="73.8 48.98 74.23 49.4 75.17 48.02 76.11 46.64 74.74 47.6 73.37 48.55 73.8 48.98"/><path class="cls-5" d="M76.41,52.77h0a.61.61,0,0,1,.61.61v.33a0,0,0,0,1,0,0H75.8a0,0,0,0,1,0,0v-.33a.61.61,0,0,1,.61-.61Z" transform="translate(93.46 144.81) rotate(-135.41)"/><path class="cls-5" d="M76.07,49.62h0a.61.61,0,0,1,.61.61v.33a0,0,0,0,1,0,0H75.46a0,0,0,0,1,0,0v-.33A.61.61,0,0,1,76.07,49.62Z" transform="translate(95.09 139.17) rotate(-135.41)"/><path class="cls-5" d="M73.47,48.84h0a.61.61,0,0,1,.61.61v.33a0,0,0,0,1,0,0H72.86a0,0,0,0,1,0,0v-.33A.61.61,0,0,1,73.47,48.84Z" transform="translate(91.18 136.01) rotate(-135.41)"/><ellipse class="cls-5" cx="71.89" cy="54.34" rx="1.54" ry="2.56" transform="translate(-17.27 67.39) rotate(-45.41)"/><rect class="cls-4" x="35.36" y="73.73" width="38.52" height="4.68" rx="2.34" ry="2.34"/><rect class="cls-5" x="46.6" y="11.43" width="16.04" height="2" rx="1" ry="1"/></svg>