<svg id="Layer_1" data-name="Layer 1" xmlns="http://www.w3.org/2000/svg" viewBox="0 0 100 100"><defs><style>.cls-1{fill:#6ab7d8;}.cls-2{fill:#eaf6fd;}.cls-3{fill:#fff;}.cls-4{fill:#ffc540;}.cls-5{fill:#fcca98;}.cls-6{fill:#3e3e3f;}.cls-7{fill:#f37d3b;}</style></defs><title>poseidon</title><path class="cls-1" d="M76.53,78.28c0,8-12.13,14.49-27.09,14.49S22.35,86.29,22.35,78.28,34.48,40.56,49.44,40.56,76.53,70.28,76.53,78.28Z"/><ellipse class="cls-2" cx="44.13" cy="84.5" rx="6.05" ry="2.1"/><ellipse class="cls-2" cx="54.66" cy="84.5" rx="6.05" ry="2.1"/><path class="cls-1" d="M68.75,24.67,42.61,53.05,61.92,71.49s4.33-39.26,34.19-39.14L81.82,19.2"/><circle class="cls-2" cx="90.3" cy="25.38" r="5.04"/><circle class="cls-2" cx="85.26" cy="30.16" r="3.44"/><circle class="cls-2" cx="91.71" cy="31.78" r="4.47"/><circle class="cls-2" cx="96.11" cy="28.46" r="3.89"/><circle class="cls-2" cx="87.56" cy="21.23" r="3.62"/><circle class="cls-2" cx="84.04" cy="19.71" r="3.67"/><circle class="cls-2" cx="80.87" cy="19.93" r="3.9"/><circle class="cls-2" cx="76.66" cy="19.93" r="3.45"/><circle class="cls-2" cx="73.2" cy="22.46" r="2.22"/><circle class="cls-2" cx="87.24" cy="36.77" r="2.22"/><circle class="cls-2" cx="70.46" cy="24.67" r="1.71"/><circle class="cls-2" cx="86.38" cy="39.18" r="1.71"/><circle class="cls-2" cx="89.42" cy="36.26" r="1.71"/><path class="cls-1" d="M31.25,24.67,57.39,53.05,38.08,71.49S33.75,32.23,3.89,32.35L18.18,19.2"/><circle class="cls-2" cx="9.7" cy="25.38" r="5.04"/><circle class="cls-2" cx="14.74" cy="30.16" r="3.44"/><circle class="cls-2" cx="8.29" cy="31.78" r="4.47"/><circle class="cls-2" cx="3.89" cy="28.46" r="3.89"/><circle class="cls-2" cx="12.44" cy="21.23" r="3.62"/><circle class="cls-2" cx="15.96" cy="19.71" r="3.67"/><circle class="cls-2" cx="19.13" cy="19.93" r="3.9"/><circle class="cls-2" cx="23.34" cy="19.93" r="3.45"/><circle class="cls-2" cx="26.8" cy="22.46" r="2.22"/><circle class="cls-2" cx="12.76" cy="36.77" r="2.22"/><circle class="cls-2" cx="29.54" cy="24.67" r="1.71"/><circle class="cls-2" cx="13.62" cy="39.18" r="1.71"/><circle class="cls-2" cx="10.58" cy="36.26" r="1.71"/><circle class="cls-3" cx="37.19" cy="22.91" r="2.35"/><circle class="cls-3" cx="61.16" cy="22.91" r="2.35"/><circle class="cls-3" cx="61.16" cy="31.06" r="2.35"/><circle class="cls-3" cx="60.57" cy="35.2" r="2.35"/><circle class="cls-3" cx="58.22" cy="38.63" r="2.35"/><circle class="cls-3" cx="55.33" cy="39.9" r="2.35"/><circle class="cls-3" cx="37.49" cy="31.06" r="2.35"/><circle class="cls-3" cx="38.08" cy="35.2" r="2.35"/><circle class="cls-3" cx="40.43" cy="38.63" r="2.35"/><polygon class="cls-4" points="51.09 12.14 48.58 7.23 46.17 11.95 41.34 7.23 41.34 12.19 41.34 14.95 56.12 14.95 56.12 12.19 56.12 7.23 51.09 12.14"/><path class="cls-5" d="M36.77,19.4V30.33a12.39,12.39,0,0,0,24.77,0V19.4Z"/><circle class="cls-6" cx="40.13" cy="25.74" r="1"/><circle class="cls-6" cx="58.7" cy="25.77" r="1"/><circle class="cls-5" cx="63.14" cy="24.01" r="2.39"/><circle class="cls-5" cx="61.66" cy="27" r="2.08"/><circle class="cls-5" cx="35.29" cy="24.01" r="2.39"/><circle class="cls-5" cx="36.77" cy="27" r="2.08"/><polygon class="cls-7" points="46.71 31.66 51.6 31.66 49.16 22.72 46.71 31.66"/><rect class="cls-5" x="37.15" y="38.73" width="24.01" height="31.65" rx="12" ry="12"/><rect class="cls-5" x="37.15" y="40.98" width="24.01" height="8.71" rx="4.35" ry="4.35"/><rect class="cls-5" x="58.98" y="41.99" width="5.13" height="14.25" rx="2.57" ry="2.57"/><rect class="cls-5" x="63.75" y="49.12" width="5.13" height="14.25" rx="2.57" ry="2.57" transform="translate(10.08 122.56) rotate(-90)"/><rect class="cls-5" x="51.11" y="60.56" width="7.11" height="25.48" rx="3.56" ry="3.56"/><rect class="cls-5" x="40.88" y="60.56" width="7.11" height="25.48" rx="3.56" ry="3.56"/><rect class="cls-5" x="34.59" y="41.99" width="5.13" height="14.25" rx="2.57" ry="2.57"/><rect class="cls-5" x="34.59" y="54.55" width="5.13" height="14.25" rx="2.57" ry="2.57"/><circle class="cls-3" cx="37.22" cy="19.66" r="1.38"/><circle class="cls-3" cx="43.05" cy="14.66" r="1.38"/><circle class="cls-3" cx="44.43" cy="14.95" r="1.38"/><circle class="cls-3" cx="46.24" cy="13.57" r="1.38"/><circle class="cls-3" cx="39.06" cy="18.74" r="1.56"/><circle class="cls-3" cx="42.46" cy="17.91" r="2.65"/><circle class="cls-3" cx="40.4" cy="16.33" r="2.65"/><circle class="cls-3" cx="47.1" cy="17.58" r="3.31"/><circle class="cls-3" cx="60.57" cy="19.66" r="1.38"/><circle class="cls-3" cx="54.74" cy="14.66" r="1.38"/><circle class="cls-3" cx="53.36" cy="14.95" r="1.38"/><circle class="cls-3" cx="51.56" cy="13.57" r="1.38"/><circle class="cls-3" cx="58.73" cy="18.74" r="1.56"/><circle class="cls-3" cx="55.33" cy="17.91" r="2.65"/><circle class="cls-3" cx="57.39" cy="16.33" r="2.65"/><circle class="cls-3" cx="50.7" cy="17.58" r="3.31"/><path class="cls-3" d="M48.53,32.25a6.26,6.26,0,0,0-5.48-.18c-3.16,1.28-5-.41-5-.41s1,3.24,5,2.17S48.82,36.44,48.53,32.25Z"/><path class="cls-3" d="M50.12,32.25a6.26,6.26,0,0,1,5.48-.18c3.16,1.28,5-.41,5-.41s-1,3.24-5,2.17S49.83,36.44,50.12,32.25Z"/><circle class="cls-3" cx="43.32" cy="39.9" r="2.35"/><circle class="cls-3" cx="40.43" cy="37.85" r="1.57"/><circle class="cls-3" cx="42.42" cy="40.19" r="1.8"/><circle class="cls-3" cx="44.21" cy="41.68" r="0.9"/><circle class="cls-3" cx="46.09" cy="41.08" r="1.66"/><circle class="cls-3" cx="44.03" cy="37.88" r="2.68"/><circle class="cls-3" cx="41.43" cy="35.9" r="1.89"/><circle class="cls-3" cx="38.86" cy="35.46" r="1.89"/><circle class="cls-3" cx="44.23" cy="34.65" r="1.44"/><circle class="cls-3" cx="43.32" cy="34.83" r="1.44"/><circle class="cls-3" cx="47.02" cy="34.6" r="1.91"/><circle class="cls-3" cx="45.09" cy="40.35" r="1.62"/><circle class="cls-3" cx="48.25" cy="37.88" r="2.68"/><circle class="cls-3" cx="55.06" cy="39.78" r="2.35"/><circle class="cls-3" cx="57.94" cy="37.73" r="1.57"/><circle class="cls-3" cx="55.95" cy="40.07" r="1.8"/><circle class="cls-3" cx="54.16" cy="41.55" r="0.9"/><circle class="cls-3" cx="52.28" cy="40.96" r="1.66"/><circle class="cls-3" cx="54.35" cy="37.76" r="2.68"/><circle class="cls-3" cx="56.94" cy="35.78" r="1.89"/><circle class="cls-3" cx="59.51" cy="35.34" r="1.89"/><circle class="cls-3" cx="54.15" cy="34.53" r="1.44"/><circle class="cls-3" cx="55.06" cy="34.71" r="1.44"/><circle class="cls-3" cx="51.35" cy="34.48" r="1.91"/><circle class="cls-3" cx="53.28" cy="40.23" r="1.62"/><circle class="cls-3" cx="50.12" cy="37.76" r="2.68"/><path class="cls-3" d="M39.57,41.3S53,55.58,62.05,54.7V71.19H38.3V41.3Z"/><rect class="cls-4" x="72.05" y="40.5" width="2.79" height="35.28" rx="1.4" ry="1.4"/><path class="cls-4" d="M73.45,43.21H67.8V32.29a1.4,1.4,0,1,1,2.8,0v8.13h2.85a1.4,1.4,0,0,1,0,2.79Z"/><path class="cls-4" d="M79.09,43.21H73.45a1.4,1.4,0,1,1,0-2.79H76.3V32.29a1.4,1.4,0,1,1,2.79,0Z"/><path class="cls-4" d="M73.45,43.63a1.4,1.4,0,0,1-1.4-1.39v-10a1.4,1.4,0,1,1,2.79,0v10A1.39,1.39,0,0,1,73.45,43.63Z"/><polygon class="cls-4" points="67.09 32.29 71.31 32.29 69.2 28.53 67.09 32.29"/><polygon class="cls-4" points="71.34 32.29 75.55 32.29 73.45 28.53 71.34 32.29"/><polygon class="cls-4" points="75.59 32.29 79.8 32.29 77.69 28.53 75.59 32.29"/></svg>