<svg id="Layer_1" data-name="Layer 1" xmlns="http://www.w3.org/2000/svg" viewBox="0 0 100 100"><defs><style>.cls-1{fill:#f37d3b;}.cls-2{fill:#d97035;}.cls-3{fill:#be9a77;}.cls-4{fill:#ffc540;}.cls-5{fill:#885e59;}.cls-6{fill:#3e3e3f;}.cls-7{fill:#231f20;}.cls-8{fill:#b95f2b;}.cls-9{fill:#b64028;}.cls-10{fill:#fff;}</style></defs><title>oni</title><rect class="cls-1" x="35.14" y="72.08" width="11.27" height="27.92" rx="5.63" ry="5.63"/><rect class="cls-1" x="54.24" y="72.08" width="11.27" height="27.92" rx="5.63" ry="5.63"/><rect class="cls-1" x="77.71" y="38.69" width="9.28" height="23.01" rx="4.64" ry="4.64" transform="translate(32.15 132.54) rotate(-90)"/><rect class="cls-1" x="14.92" y="46.09" width="9.28" height="23.01" rx="4.64" ry="4.64" transform="translate(-7.32 112.15) rotate(-135)"/><rect class="cls-1" x="25.73" y="43.57" width="48.02" height="13.24" rx="6.62" ry="6.62"/><path class="cls-2" d="M49.37,55A16.86,16.86,0,0,0,65.26,43.57H33.47A16.86,16.86,0,0,0,49.37,55Z"/><rect class="cls-1" x="30.82" y="51.83" width="38.01" height="14.19" rx="7.1" ry="7.1"/><rect class="cls-1" x="31.48" y="60.34" width="36.88" height="10.59" rx="5.29" ry="5.29"/><rect class="cls-1" x="31.48" y="65.64" width="36.88" height="10.59" rx="5.29" ry="5.29"/><polyline class="cls-3" points="31.95 72.77 31.95 89.42 38.55 85.04 40.78 88.42 44.53 84.58 46.74 87.04 51.94 84.28 67.93 84.28 67.93 74"/><rect class="cls-4" x="30.33" y="70.93" width="38.83" height="2.3" rx="1.15" ry="1.15"/><rect class="cls-4" x="30.33" y="73.23" width="38.83" height="2.3" rx="1.15" ry="1.15"/><rect class="cls-4" x="46.32" y="73.74" width="3.04" height="7.06" rx="1.52" ry="1.52"/><rect class="cls-4" x="49.37" y="73.74" width="3.04" height="7.06" rx="1.52" ry="1.52"/><path class="cls-2" d="M49.37,55.59s-.4,3.09-4.3,3.33h8.4S50.52,59.35,49.37,55.59Z"/><rect class="cls-5" x="84.63" y="38.77" width="5.11" height="24.07" rx="2.56" ry="2.56"/><path class="cls-6" d="M87.14,43.34h0a5.29,5.29,0,0,1-5.41-4.54L79.09,5.17C78.84,2.56,82.46,0,87.14,0h0c4.69,0,8.31,2.56,8.06,5.17Q93.88,22,92.55,38.8A5.28,5.28,0,0,1,87.14,43.34Z"/><polyline class="cls-6" points="79.92 7.57 76.44 10.07 80.69 11.76"/><polyline class="cls-6" points="80.64 13.6 77.16 16.11 81.41 17.8"/><polyline class="cls-6" points="81.35 19.64 77.88 22.14 82.12 23.83"/><polyline class="cls-6" points="82.07 25.67 78.59 28.18 82.84 29.86"/><polyline class="cls-6" points="82.79 31.71 79.31 34.21 83.55 35.9"/><polyline class="cls-6" points="94.44 7.57 97.92 10.07 93.68 11.76"/><polyline class="cls-6" points="93.73 13.6 97.21 16.11 92.96 17.8"/><polyline class="cls-6" points="93.01 19.64 96.49 22.14 92.25 23.83"/><polyline class="cls-6" points="92.3 25.67 95.78 28.18 91.53 29.86"/><polyline class="cls-6" points="91.58 31.71 95.06 34.21 90.81 35.9"/><rect class="cls-1" x="85.96" y="45.55" width="5.57" height="9.28" rx="2.79" ry="2.79"/><path class="cls-7" d="M38.55,11s-19-6.9-11.83,20.22L29,29.4l-.19,2.79,2.45-2,.16,4.15,11.27-4.53,7.53-16.23S50.26,7.26,38.55,11Z"/><path class="cls-7" d="M60.15,11s19-6.9,11.83,20.22L69.66,29.4l.19,2.79-2.45-2-.16,4.15L56,29.78,48.44,13.55S48.44,7.26,60.15,11Z"/><path class="cls-7" d="M32.8,31.57s-2.3,8.36-8.9,7.36c0,0,8.44,6.37,13.19-2.37"/><path class="cls-7" d="M36.48,35.33s-2.3,8.36-8.9,7.36c0,0,8.44,6.37,13.2-2.37"/><path class="cls-7" d="M40.85,38.77s-2.3,8.36-8.89,7.37c0,0,8.43,6.36,13.19-2.38"/><path class="cls-7" d="M65.63,31.57s2.3,8.36,8.9,7.36c0,0-8.44,6.37-13.2-2.37"/><path class="cls-7" d="M62,35.33s2.3,8.36,8.9,7.36c0,0-8.44,6.37-13.2-2.37"/><path class="cls-7" d="M57.58,38.77s2.3,8.36,8.89,7.37c0,0-8.43,6.36-13.19-2.38"/><rect class="cls-1" x="31.3" y="12.52" width="36.88" height="15.34" rx="6.88" ry="6.88"/><rect class="cls-1" x="30.33" y="28.96" width="38.07" height="12.74" rx="6.37" ry="6.37"/><path class="cls-1" d="M32.57,19.54V32.69a16.8,16.8,0,0,0,33.6,0V19.54Z"/><rect class="cls-8" x="36.1" y="32.19" width="27.5" height="7.17" rx="3.59" ry="3.59"/><rect class="cls-9" x="39.22" y="33.65" width="20.29" height="4.25" rx="2.13" ry="2.13"/><path class="cls-10" d="M39.13,35.58a16,16,0,0,1-1.25,2.82A10.23,10.23,0,0,1,36,40.84a4.78,4.78,0,0,1-2.77,1.37,4.86,4.86,0,0,1-2.81-.82,4.52,4.52,0,0,0,2.7.21,3.83,3.83,0,0,0,2-1.57,11.44,11.44,0,0,0,1.64-5v0A1.24,1.24,0,0,1,38.1,34a1.25,1.25,0,0,1,1.09,1.37A1,1,0,0,1,39.13,35.58Z"/><path class="cls-10" d="M40.5,37.71a17.69,17.69,0,0,1,.09-3.35,10.86,10.86,0,0,1,.81-3.12,10.62,10.62,0,0,0,.41,3,16,16,0,0,0,1.06,2.78,1.25,1.25,0,1,1-2.24,1.13A1.37,1.37,0,0,1,40.5,37.71Z"/><path class="cls-10" d="M56,37.06A15.27,15.27,0,0,0,57,34.28a11,11,0,0,0,.42-3,11.19,11.19,0,0,1,.8,3.12,16.89,16.89,0,0,1,.09,3.35,1.25,1.25,0,0,1-2.5-.16A1.37,1.37,0,0,1,56,37.06Z"/><path class="cls-10" d="M62.54,35.12a11.29,11.29,0,0,0,1.63,5,3.87,3.87,0,0,0,2,1.57,4.48,4.48,0,0,0,2.69-.21,4.15,4.15,0,0,1-5.58-.55,10.49,10.49,0,0,1-1.87-2.44,16,16,0,0,1-1.25-2.82,1.24,1.24,0,0,1,2.35-.78,2,2,0,0,1,.05.24Z"/><polygon class="cls-10" points="43.53 33.65 45.53 33.65 44.53 35.65 43.53 33.65"/><polygon class="cls-10" points="46.74 33.65 48.73 33.65 47.74 35.65 46.74 33.65"/><polygon class="cls-10" points="49.95 33.65 51.94 33.65 50.94 35.65 49.95 33.65"/><polygon class="cls-10" points="53.15 33.65 55.14 33.65 54.15 35.65 53.15 33.65"/><polygon class="cls-10" points="53.47 37.91 51.48 37.91 52.47 35.91 53.47 37.91"/><polygon class="cls-10" points="50.26 37.91 48.27 37.91 49.27 35.91 50.26 37.91"/><polygon class="cls-10" points="47.06 37.91 45.07 37.91 46.06 35.91 47.06 37.91"/><circle class="cls-7" cx="36.51" cy="28.69" r="0.72"/><circle class="cls-7" cx="62.24" cy="28.69" r="0.72"/><polygon class="cls-9" points="44.33 32.19 55.14 32.19 49.95 17.8 44.33 32.19"/><path class="cls-9" d="M44.42,19.26a34.6,34.6,0,0,1-1.8,3.22c-.32.51-.49,1.16-1,1.48a3.45,3.45,0,0,1-2,.57.19.19,0,0,1-.18-.17,3.46,3.46,0,0,1,.4-2.06c.28-.57.92-.79,1.4-1.15a34.78,34.78,0,0,1,3.06-2.06.14.14,0,0,1,.18.05A.13.13,0,0,1,44.42,19.26Z"/><path class="cls-9" d="M54.24,19.09a34.78,34.78,0,0,1,3.06,2.06c.48.36,1.12.58,1.39,1.15a3.39,3.39,0,0,1,.41,2.06.18.18,0,0,1-.18.17,3.4,3.4,0,0,1-2-.57c-.54-.32-.71-1-1-1.48-.64-1-1.24-2.1-1.79-3.22a.12.12,0,0,1,.06-.17A.13.13,0,0,1,54.24,19.09Z"/><path class="cls-9" d="M36.51,32.26a3.58,3.58,0,1,1,3.57-3.57A3.58,3.58,0,0,1,36.51,32.26Zm0-4.69a1.12,1.12,0,1,0,1.12,1.12A1.12,1.12,0,0,0,36.51,27.57Z"/><path class="cls-9" d="M62.07,32.26a3.58,3.58,0,1,1,3.58-3.57A3.57,3.57,0,0,1,62.07,32.26Zm0-4.69a1.12,1.12,0,1,0,1.12,1.12A1.12,1.12,0,0,0,62.07,27.57Z"/><path class="cls-10" d="M36.48,18.49a4.19,4.19,0,0,1-.9-1,6.55,6.55,0,0,1-.41-.69,7.74,7.74,0,0,1-.53-1.26,11.4,11.4,0,0,1-.5-2.29,19.86,19.86,0,0,1,0-4.14,38.67,38.67,0,0,1,1.5-7.46A37.36,37.36,0,0,0,37.73,8.6a14.73,14.73,0,0,0,1.62,2.86,5.41,5.41,0,0,0,.93,1,1.89,1.89,0,0,0,.43.26.3.3,0,0,0,.16,0c0-.07.18,0-.24-.34a3.68,3.68,0,0,1-4.15,6.09Z"/><path class="cls-10" d="M57.44,12.4c-.42.36-.21.27-.24.34a.27.27,0,0,0,.15,0,1.93,1.93,0,0,0,.44-.26,6.18,6.18,0,0,0,.93-1A14.71,14.71,0,0,0,60.33,8.6a36.63,36.63,0,0,0,2.15-6.91A39.44,39.44,0,0,1,64,9.15a19.86,19.86,0,0,1,0,4.14,12.13,12.13,0,0,1-.5,2.29,8.84,8.84,0,0,1-.54,1.26,6.55,6.55,0,0,1-.41.69,3.84,3.84,0,0,1-.89,1,3.68,3.68,0,1,1-4.15-6.09Z"/></svg>