<svg id="Layer_1" data-name="Layer 1" xmlns="http://www.w3.org/2000/svg" viewBox="0 0 100 100"><defs><style>.cls-1{fill:#ffc540;}.cls-2{fill:#231f20;}.cls-3{fill:#66343a;}.cls-4{fill:#367665;}.cls-5{fill:#2d6859;}.cls-6{fill:#3f8472;}.cls-7{fill:#4a4a4c;}.cls-8{fill:#ffc640;}.cls-9{fill:#be9a77;}</style></defs><title>orc</title><path class="cls-1" d="M69.75,22.63a3.12,3.12,0,0,1,2.4-5.13,3.07,3.07,0,0,1,1.87.62l-.64.85a2,2,0,0,0-1.23-.41,2.06,2.06,0,0,0-2.06,2.06A2.09,2.09,0,0,0,70.57,22Z"/><path class="cls-2" d="M63.4,10.85c-.73-.49-1.44-1-2.1-1.45s-1.4-.83-2.06-1.22a7,7,0,0,0-3.58-1,.8.8,0,0,0-.56.24,1,1,0,0,0-.35.42c-.15.26-.3.37-.74.34s-1.07,0-1.91.12-1.81.23-3.18.34h-.1a.59.59,0,0,1-.61-.37,5.59,5.59,0,0,1-.33-3.69,6,6,0,0,1,1.79-3.13A5.47,5.47,0,0,1,53.49,0a10,10,0,0,1,4,1,10.66,10.66,0,0,1,2.82,2,18.06,18.06,0,0,1,1.79,2.38,23.71,23.71,0,0,1,1.2,2.5c.3.85.57,1.71.8,2.56a.42.42,0,0,1-.29.51.42.42,0,0,1-.35-.05Z"/><rect class="cls-3" x="45.6" y="12.07" width="9.01" height="3.1" rx="1.55" ry="1.55"/><rect class="cls-3" x="45.6" y="9.8" width="9.01" height="3.1" rx="1.55" ry="1.55"/><rect class="cls-3" x="45.6" y="7.52" width="9.01" height="3.1" rx="1.55" ry="1.55"/><rect class="cls-4" x="22.38" y="29.02" width="54.66" height="33.73" rx="16.86" ry="16.86"/><rect class="cls-4" x="30.96" y="38.29" width="37.46" height="41.12" rx="18.45" ry="18.45"/><rect class="cls-3" x="28.21" y="34.32" width="8.45" height="34.73" rx="4.22" ry="4.22"/><rect class="cls-3" x="64.42" y="34.32" width="8.45" height="34.73" rx="4.22" ry="4.22"/><polyline class="cls-5" points="46.46 65.63 43.98 57.17 49.87 53.33 55.52 57.49 52.69 65.63"/><polyline class="cls-3" points="34.45 42.51 30.96 49.23 33.21 49.93 32.7 53.67 36.29 53.67 37.04 56.16 40.36 54.07 43.07 56.16 44.63 54.07 46.16 56.16 49.69 50"/><polyline class="cls-3" points="65.33 42.51 68.82 49.23 66.56 49.93 67.08 53.67 63.49 53.67 62.74 56.16 59.42 54.07 56.71 56.16 55.15 54.07 53.62 56.16 50.09 50"/><circle class="cls-3" cx="65.1" cy="30.74" r="3.42"/><circle class="cls-3" cx="69.58" cy="29.29" r="3.42"/><circle class="cls-3" cx="67.79" cy="33.44" r="3.42"/><circle class="cls-3" cx="72.34" cy="32.7" r="3.42"/><circle class="cls-3" cx="70.48" cy="36.12" r="3.42"/><circle class="cls-3" cx="67.06" cy="37.73" r="3.42"/><circle class="cls-3" cx="67.45" cy="40.5" r="3.42"/><circle class="cls-3" cx="37.04" cy="30.74" r="3.42"/><circle class="cls-3" cx="32.55" cy="29.29" r="3.42"/><circle class="cls-3" cx="34.35" cy="33.44" r="3.42"/><circle class="cls-3" cx="29.8" cy="32.7" r="3.42"/><circle class="cls-3" cx="31.66" cy="36.12" r="3.42"/><circle class="cls-3" cx="35.07" cy="37.73" r="3.42"/><circle class="cls-3" cx="34.69" cy="40.5" r="3.42"/><path class="cls-4" d="M38.82,26.25a5.2,5.2,0,0,1-10.4,0V14.34S38.82,23.38,38.82,26.25Z"/><path class="cls-4" d="M61.71,26.5a4.95,4.95,0,1,0,9.89,0V15.18S61.71,23.77,61.71,26.5Z"/><rect class="cls-6" x="35.84" y="20.36" width="28.96" height="21.72"/><circle class="cls-2" cx="38.8" cy="28.35" r="2.14"/><circle class="cls-2" cx="61.6" cy="28.35" r="2.14"/><rect class="cls-6" x="33.47" y="12.9" width="33.45" height="14.92" rx="7.46" ry="7.46"/><rect class="cls-4" x="71.94" y="52.07" width="5.83" height="27.96" rx="2.92" ry="2.92"/><rect class="cls-5" x="35.39" y="66.05" width="6.81" height="32.66" rx="3.41" ry="3.41"/><rect class="cls-5" x="56.74" y="66.05" width="6.81" height="32.66" rx="3.41" ry="3.41"/><rect class="cls-4" x="22.38" y="52.07" width="5.83" height="27.96" rx="2.92" ry="2.92"/><rect class="cls-4" x="21.04" y="39.1" width="8.76" height="17.79" rx="4.38" ry="4.38"/><rect class="cls-4" x="70.48" y="39.1" width="8.76" height="17.79" rx="4.38" ry="4.38"/><polyline class="cls-7" points="33.21 45.42 35.84 44.28 37.23 47.23 39.68 47.23 40.32 47.99 44.63 47.33 46.46 50.77 38.49 50.77"/><polyline class="cls-7" points="66.66 45.42 64.03 44.28 62.64 47.23 60.19 47.23 59.55 47.99 55.24 47.33 53.41 50.77 61.38 50.77"/><polygon class="cls-7" points="49.79 66.88 30.93 63.1 30.93 76.84 34.35 74.61 35.97 83.04 39.84 80.99 43.07 85.09 49.79 81.55 56.51 85.09 59.74 80.99 63.61 83.04 65.23 74.61 68.65 76.84 68.65 63.1 49.79 66.88"/><rect class="cls-8" x="44.63" y="64.12" width="10.88" height="6.21" rx="3.1" ry="3.1"/><polygon class="cls-3" points="49.79 68.18 30.93 64.4 30.93 78.14 34.35 75.9 35.97 84.34 39.84 82.29 43.07 86.39 49.79 82.85 56.51 86.39 59.74 82.29 63.61 84.34 65.23 75.9 68.65 78.14 68.65 64.4 49.79 68.18"/><polyline class="cls-4" points="22.38 75.39 20.57 81.33 29.14 83.01 28.21 74.1"/><path class="cls-4" d="M22.08,93h0a23.15,23.15,0,0,1-1.51-4.19V81.46A1.52,1.52,0,0,1,22.08,80h0a1.52,1.52,0,0,1,1.51,1.51v7.37A23.15,23.15,0,0,1,22.08,93Z"/><path class="cls-4" d="M25,93h0a23.15,23.15,0,0,1-1.51-4.19V81.46A1.52,1.52,0,0,1,25,80h0a1.52,1.52,0,0,1,1.51,1.51v7.37A23.15,23.15,0,0,1,25,93Z"/><path class="cls-4" d="M27.63,93h0a23.15,23.15,0,0,1-1.51-4.19V81.46A1.52,1.52,0,0,1,27.63,80h0a1.52,1.52,0,0,1,1.51,1.51v7.37A23.15,23.15,0,0,1,27.63,93Z"/><polyline class="cls-4" points="77.63 75.39 79.43 81.33 70.86 83.01 71.79 74.1"/><path class="cls-4" d="M77.92,93h0a23.15,23.15,0,0,0,1.51-4.19V81.46A1.52,1.52,0,0,0,77.92,80h0a1.52,1.52,0,0,0-1.51,1.51v7.37A23.15,23.15,0,0,0,77.92,93Z"/><path class="cls-4" d="M75,93h0a23.15,23.15,0,0,0,1.51-4.19V81.46A1.52,1.52,0,0,0,75,80h0a1.52,1.52,0,0,0-1.51,1.51v7.37A23.15,23.15,0,0,0,75,93Z"/><path class="cls-4" d="M72.37,93h0a23.15,23.15,0,0,0,1.51-4.19V81.46A1.52,1.52,0,0,0,72.37,80h0a1.52,1.52,0,0,0-1.51,1.51v7.37A23.15,23.15,0,0,0,72.37,93Z"/><path class="cls-4" d="M31.81,100a7,7,0,0,1,14,0"/><path class="cls-4" d="M53.05,100a7,7,0,0,1,14,0"/><path class="cls-1" d="M51,35.86H49.71a4.26,4.26,0,0,1,0-8.51H51a4.26,4.26,0,0,1,0,8.51Zm-1.33-6.51a2.26,2.26,0,0,0,0,4.51H51a2.26,2.26,0,0,0,0-4.51Z"/><rect class="cls-5" x="46.46" y="18.35" width="7.83" height="13.59" rx="3.92" ry="3.92"/><rect class="cls-9" x="37.23" y="36.09" width="3.12" height="7.16" rx="1.56" ry="1.56"/><rect class="cls-9" x="41.51" y="34.32" width="3.12" height="7.16" rx="1.56" ry="1.56"/><rect class="cls-9" x="46.46" y="36.09" width="3.12" height="7.16" rx="1.56" ry="1.56"/><rect class="cls-9" x="53.96" y="35.43" width="3.12" height="7.16" rx="1.56" ry="1.56"/><rect class="cls-9" x="58.47" y="37.16" width="3.12" height="7.16" rx="1.56" ry="1.56"/><path class="cls-6" d="M33.47,39v6.56A7.48,7.48,0,0,0,40.93,53H59.45a7.47,7.47,0,0,0,7.46-7.46V39Z"/><path class="cls-1" d="M72.15,23.75a3.13,3.13,0,0,1-2.4-1.12.53.53,0,0,1,.82-.68,2.06,2.06,0,0,0,3.64-1.33A2.05,2.05,0,0,0,73.38,19a.53.53,0,1,1,.64-.85,3.08,3.08,0,0,1,1.25,2.5A3.13,3.13,0,0,1,72.15,23.75Z"/></svg>