<svg id="Layer_1" data-name="Layer 1" xmlns="http://www.w3.org/2000/svg" viewBox="0 0 100 100"><defs><style>.cls-1{fill:#d2b490;}.cls-2{fill:#f1dcbd;}.cls-3{fill:#ffc63f;}.cls-4{fill:#f5853c;}.cls-5{fill:#f05c38;}.cls-6{fill:#ffc640;}.cls-7{fill:#ffeaad;}.cls-8{fill:#ffdb70;}.cls-9{fill:#121212;}.cls-10{fill:#7d7d7d;}.cls-11{fill:#4f4f4f;}.cls-12{fill:#ff9926;}.cls-13{fill:#fff;}.cls-14{fill:none;stroke:#685c5a;stroke-linecap:round;stroke-miterlimit:10;stroke-width:0.93px;}</style></defs><title>book of the dead</title><polygon class="cls-1" points="100 82.52 9.81 82.52 8.94 81.42 7.33 82.52 0 82.52 0 70.28 1.43 68.9 0 68.23 0 17.48 9.52 17.48 11.55 18.87 12.11 17.48 100 17.48 100 25.13 98.22 25.48 100 26.91 100 82.52"/><path class="cls-2" d="M5.37,20.81H94.48a2.1,2.1,0,0,1,2.1,2.1V77.2a2.1,2.1,0,0,1-2.1,2.1H5.37a2,2,0,0,1-2-2V22.77A2,2,0,0,1,5.37,20.81Z"/><path class="cls-3" d="M54.87,60.6a2.33,2.33,0,0,0-.53.07,4.8,4.8,0,0,0-2-2V56H51.06l.61,15.84h.53a67,67,0,0,1,2.29-6.83,2.33,2.33,0,0,0,.38,0,2.25,2.25,0,0,0,0-4.49Zm0,3.38h-.11a6.29,6.29,0,0,0,.11-1.14,4.73,4.73,0,0,0-.14-1.13h.14a1.14,1.14,0,0,1,0,2.28Z"/><path class="cls-3" d="M53.39,60.67a4.5,4.5,0,0,0-1.63-2V56H48v2.62a4.75,4.75,0,0,0-2,2,2.35,2.35,0,0,0-.54-.07,2.25,2.25,0,0,0,0,4.49,2.58,2.58,0,0,0,.39,0,67,67,0,0,1,2.29,6.83h3.6c.54-3,1.39-5,1.84-6.83a10.4,10.4,0,0,0,.31-2.21A6.17,6.17,0,0,0,53.39,60.67ZM45.5,64h-.11a1.14,1.14,0,1,1,0-2.27h.14a4.73,4.73,0,0,0-.14,1.13A6.29,6.29,0,0,0,45.5,64Z"/><polygon class="cls-4" points="51.52 55.78 51.87 56.04 51.52 56.31 48.75 56.31 48.4 56.04 48.75 55.78 51.52 55.78"/><path class="cls-4" d="M52.31,55.78a.27.27,0,0,1,0,.53h-.79v-.53Z"/><path class="cls-4" d="M48,55.78a.27.27,0,1,0,0,.53h.79v-.53Z"/><path class="cls-5" d="M35.09,73.36l-.63.38c.06.65.09,1.42.1,2.34H31.29a.33.33,0,1,0,0,.66h3.6a.34.34,0,0,0,.34-.33A28.19,28.19,0,0,0,35.09,73.36Z"/><path class="cls-6" d="M35.79,67.05v6.69H34.46c-.32-3.37-1.4-4.22-3.86-6.69Z"/><path class="cls-6" d="M38.64,76.74H34.9a.33.33,0,1,1,0-.66h3.74a.33.33,0,1,1,0,.66Z"/><path class="cls-6" d="M37.55,73.33l-.58.41a10.47,10.47,0,0,1,.31,2.67.34.34,0,0,0,.67,0A10.8,10.8,0,0,0,37.55,73.33Z"/><path class="cls-7" d="M37.3,70.4l-7.07-8.28-1.37-.83c.09,3,.44,4.43,1.74,5.76s3.67,2.12,5.19,4.15A7.12,7.12,0,0,1,37,73.74H38.3Z"/><path class="cls-8" d="M39.31,67.62v2.23a8.82,8.82,0,0,1-1,.84v3a8.41,8.41,0,0,0-1.44-3.34,12.33,12.33,0,0,0-3.51-3,10.14,10.14,0,0,1-1.79-1.32c-.88-.89-1.21-1.81-1.33-4Z"/><path class="cls-6" d="M35.68,60.48a1.78,1.78,0,0,0-1.13-.72,3.41,3.41,0,0,0-3.41-3.41H29.86L44.22,75.08h1.34Z"/><path class="cls-6" d="M34.35,60.48l9.87,14.6H42.85l-5.67-8.3-8.34-6.14c0-.92,0-2,0-3.23a1.07,1.07,0,0,1,1-1.06,3.41,3.41,0,0,1,3.35,3.41A1.8,1.8,0,0,1,34.35,60.48Z"/><path class="cls-5" d="M34.55,62a6.06,6.06,0,0,0-4.71-1.61l10.22,9a21.9,21.9,0,0,1,2.63,1.4Z"/><path class="cls-5" d="M33.21,62l6.85,7.4L38.6,68.8c-4.53-1.88-9.3-3.32-9.74-7.51,0-.21,0-.43,0-.65a5.29,5.29,0,0,1,1-.22A6.72,6.72,0,0,1,33.21,62Z"/><path class="cls-4" d="M27.51,59.08a.33.33,0,0,1-.33-.33,1.4,1.4,0,0,1,1.39-1.4H31A.34.34,0,0,1,31,58H28.57a.73.73,0,0,0-.72.73A.34.34,0,0,1,27.51,59.08Z"/><path class="cls-5" d="M65.18,73.36l.63.38c-.06.65-.1,1.42-.1,2.34H69a.33.33,0,1,1,0,.66h-3.6a.33.33,0,0,1-.33-.33A25.83,25.83,0,0,1,65.18,73.36Z"/><path class="cls-6" d="M64.48,67.05v6.69h1.33c.31-3.37,1.4-4.22,3.86-6.69Z"/><path class="cls-6" d="M61.62,76.74h3.74a.33.33,0,1,0,0-.66H61.62a.33.33,0,1,0,0,.66Z"/><path class="cls-6" d="M62.72,73.33l.58.41A10.45,10.45,0,0,0,63,76.41a.34.34,0,0,1-.67,0A10.78,10.78,0,0,1,62.72,73.33Z"/><path class="cls-7" d="M63,70.4,70,62.12l1.37-.83c-.09,3-.44,4.43-1.74,5.76S66,69.17,64.48,71.2a7,7,0,0,0-1.18,2.54H62Z"/><path class="cls-8" d="M61,67.62v2.23a8.13,8.13,0,0,0,1,.84v3a8.27,8.27,0,0,1,1.44-3.34,12.2,12.2,0,0,1,3.51-3,10.94,10.94,0,0,0,1.79-1.32c.88-.89,1.2-1.81,1.33-4Z"/><path class="cls-6" d="M64.58,60.48a1.8,1.8,0,0,1,1.14-.72,3.41,3.41,0,0,1,3.4-3.41h1.29L56,75.08H54.7Z"/><path class="cls-6" d="M65.92,60.48,56,75.08h1.38l5.66-8.3,8.35-6.14c0-.92,0-2,0-3.23a1.07,1.07,0,0,0-1-1.06,3.41,3.41,0,0,0-3.35,3.41A1.8,1.8,0,0,0,65.92,60.48Z"/><path class="cls-5" d="M65.72,62a6,6,0,0,1,4.71-1.61l-10.23,9a21.76,21.76,0,0,0-2.62,1.4Z"/><path class="cls-5" d="M67.06,62l-6.86,7.4,1.46-.63c4.54-1.88,9.31-3.32,9.75-7.51,0-.21,0-.43,0-.65a5.65,5.65,0,0,0-1-.22A6.72,6.72,0,0,0,67.06,62Z"/><path class="cls-4" d="M72.75,59.08a.34.34,0,0,0,.34-.33,1.4,1.4,0,0,0-1.4-1.4H69.24a.34.34,0,1,0,0,.67h2.45a.73.73,0,0,1,.73.73A.33.33,0,0,0,72.75,59.08Z"/><rect class="cls-4" x="15.24" y="68.68" width="5.27" height="2.32"/><path class="cls-9" d="M15,59.08l3.55,1.86V55.52A5.2,5.2,0,0,0,15,59.08Z"/><polygon class="cls-4" points="16.63 73.61 16.63 76.44 13.88 76.44 12.49 72.27 16.63 73.61"/><path class="cls-10" d="M13.62,59.08l2.32.93,1.23-4.49A5.2,5.2,0,0,0,13.62,59.08Z"/><path class="cls-11" d="M22.49,62.11a.35.35,0,0,1,.3.35.35.35,0,0,1-.34.35h-.08l-.48,2.64-1.84,4.16H16.63l-6-3.23,3-7.3H15c.62-3,2.1-3.54,2.16-3.56v3.56a2.85,2.85,0,0,1,2.74,1.61,2.52,2.52,0,0,0,2.54,1.42Z"/><polygon class="cls-4" points="10.48 73.27 10.7 72.27 8.38 73.61 8.38 76.44 9.77 76.44 11.13 76.44 12.52 72.27 10.48 73.27"/><rect class="cls-5" x="11.13" y="71.34" width="2.75" height="5.1"/><polygon class="cls-4" points="21.89 73.61 21.89 76.4 20.5 76.4 20.04 72.68 21.89 73.61"/><path class="cls-6" d="M21.89,73.61H20.5l-.65-4,.65-3.69a2.26,2.26,0,0,1,1.39-.47C21.9,65.54,21.89,73.61,21.89,73.61Z"/><polygon class="cls-4" points="20.5 72.68 20.5 76.4 19.58 76.4 19.58 73.61 20.5 72.68"/><path class="cls-6" d="M20.5,65.92v7.69h-.92V67.76A2.3,2.3,0,0,1,20.5,65.92Z"/><path class="cls-6" d="M24.48,70.65V76.4a.35.35,0,0,0,.7,0V70.65Z"/><polygon class="cls-12" points="24.01 69.45 24.14 71.11 25.53 71.11 25.65 69.45 24.01 69.45"/><path class="cls-12" d="M25.29,72.57h-.92a.35.35,0,1,1,0-.69h.92a.35.35,0,1,1,0,.69Z"/><rect class="cls-9" x="13.39" y="62.06" width="2.81" height="0.7"/><path class="cls-13" d="M17.17,61.5a2.41,2.41,0,0,0-1.9.9,2.44,2.44,0,0,0,3.8,0A2.41,2.41,0,0,0,17.17,61.5Z"/><path class="cls-6" d="M15.93,66.38a2.33,2.33,0,0,1-2.31-2.33v-5h0a5.25,5.25,0,0,0-5.24,5.24v9.29h8.25V66.38Z"/><rect class="cls-4" x="79.75" y="68.68" width="5.27" height="2.32"/><path class="cls-9" d="M85.25,59.08,81.7,60.94V55.52A5.2,5.2,0,0,1,85.25,59.08Z"/><polygon class="cls-4" points="83.64 73.61 83.64 76.44 86.39 76.44 87.78 72.27 83.64 73.61"/><path class="cls-10" d="M86.65,59.08,84.33,60,83.1,55.52A5.22,5.22,0,0,1,86.65,59.08Z"/><path class="cls-11" d="M77.77,62.11a.35.35,0,0,0,0,.7h.08l.47,2.64,1.85,4.16h3.42l6-3.23-3-7.3h-1.4c-.61-3-2.1-3.54-2.15-3.56v3.56a2.87,2.87,0,0,0-2.75,1.61,2.52,2.52,0,0,1-2.53,1.42Z"/><polygon class="cls-4" points="89.79 73.27 89.56 72.27 91.88 73.61 91.88 76.44 90.49 76.44 89.14 76.44 87.74 72.27 89.79 73.27"/><rect class="cls-5" x="86.39" y="71.34" width="2.75" height="5.1"/><polygon class="cls-4" points="78.37 73.61 78.37 76.4 79.77 76.4 80.23 72.68 78.37 73.61"/><path class="cls-6" d="M78.37,73.61h1.39l.65-4-.65-3.69a2.24,2.24,0,0,0-1.39-.47Z"/><polygon class="cls-4" points="79.77 72.68 79.77 76.4 80.68 76.4 80.68 73.61 79.77 72.68"/><path class="cls-6" d="M79.76,65.92v7.69h.92V67.76A2.3,2.3,0,0,0,79.76,65.92Z"/><path class="cls-6" d="M75.78,70.65V76.4a.35.35,0,0,1-.69,0V70.65Z"/><polygon class="cls-12" points="76.26 69.45 76.13 71.11 74.74 71.11 74.61 69.45 76.26 69.45"/><path class="cls-12" d="M75,72.57h.93a.35.35,0,1,0,0-.69H75a.35.35,0,1,0,0,.69Z"/><rect class="cls-9" x="84.06" y="62.06" width="2.81" height="0.7"/><path class="cls-13" d="M83.1,61.5a2.39,2.39,0,0,1,1.89.9,2.43,2.43,0,0,1-3.79,0A2.4,2.4,0,0,1,83.1,61.5Z"/><path class="cls-6" d="M84.34,66.38a2.33,2.33,0,0,0,2.31-2.33v-5h0a5.24,5.24,0,0,1,5.23,5.24v9.29H83.64V66.38Z"/><line class="cls-14" x1="8.44" y1="25.33" x2="8.44" y2="51.18"/><line class="cls-14" x1="16.75" y1="25.33" x2="16.75" y2="51.18"/><line class="cls-14" x1="25.06" y1="25.33" x2="25.06" y2="51.18"/><line class="cls-14" x1="33.38" y1="25.33" x2="33.38" y2="51.18"/><line class="cls-14" x1="50" y1="25.33" x2="50" y2="51.18"/><line class="cls-14" x1="58.31" y1="25.33" x2="58.31" y2="51.18"/><line class="cls-14" x1="66.62" y1="25.33" x2="66.62" y2="51.18"/><line class="cls-14" x1="74.94" y1="25.33" x2="74.94" y2="51.18"/><line class="cls-14" x1="83.25" y1="25.33" x2="83.25" y2="51.18"/><line class="cls-14" x1="91.56" y1="25.33" x2="91.56" y2="51.18"/><line class="cls-14" x1="41.69" y1="25.33" x2="41.69" y2="51.18"/><line class="cls-14" x1="10.04" y1="26.76" x2="14.79" y2="26.76"/><line class="cls-14" x1="10.04" y1="28.74" x2="14.79" y2="28.74"/><line class="cls-14" x1="10.04" y1="30.8" x2="14.79" y2="30.8"/><line class="cls-14" x1="10.17" y1="45.71" x2="14.92" y2="45.71"/><line class="cls-14" x1="10.17" y1="47.69" x2="14.92" y2="47.69"/><line class="cls-14" x1="10.17" y1="49.74" x2="14.92" y2="49.74"/><line class="cls-14" x1="10.17" y1="43.64" x2="14.92" y2="43.64"/><line class="cls-14" x1="10.73" y1="33.47" x2="14.09" y2="36.83"/><line class="cls-14" x1="14.09" y1="33.47" x2="10.73" y2="36.83"/><path class="cls-14" d="M11.1,38.9h0A2.88,2.88,0,0,1,14,41.78v0a0,0,0,0,1,0,0h0A2.88,2.88,0,0,1,11.1,38.9v0A0,0,0,0,1,11.1,38.9Z" transform="translate(-24.85 20.68) rotate(-45)"/><line class="cls-14" x1="84.92" y1="26.76" x2="89.67" y2="26.76"/><line class="cls-14" x1="84.92" y1="28.74" x2="89.67" y2="28.74"/><line class="cls-14" x1="84.92" y1="30.8" x2="89.67" y2="30.8"/><line class="cls-14" x1="85.05" y1="45.71" x2="89.8" y2="45.71"/><line class="cls-14" x1="85.05" y1="47.69" x2="89.8" y2="47.69"/><line class="cls-14" x1="85.05" y1="49.74" x2="89.8" y2="49.74"/><line class="cls-14" x1="85.05" y1="43.64" x2="89.8" y2="43.64"/><line class="cls-14" x1="85.61" y1="33.47" x2="88.98" y2="36.83"/><line class="cls-14" x1="88.98" y1="33.47" x2="85.61" y2="36.83"/><path class="cls-14" d="M86,38.9h0a2.88,2.88,0,0,1,2.88,2.88v0a0,0,0,0,1,0,0h0A2.88,2.88,0,0,1,86,38.9v0A0,0,0,0,1,86,38.9Z" transform="translate(-2.92 73.63) rotate(-45)"/><line class="cls-14" x1="31.85" y1="49.74" x2="27.1" y2="49.74"/><line class="cls-14" x1="31.85" y1="47.76" x2="27.1" y2="47.76"/><line class="cls-14" x1="31.85" y1="45.71" x2="27.1" y2="45.71"/><line class="cls-14" x1="31.72" y1="30.8" x2="26.97" y2="30.8"/><line class="cls-14" x1="31.72" y1="28.82" x2="26.97" y2="28.82"/><line class="cls-14" x1="31.72" y1="26.76" x2="26.97" y2="26.76"/><line class="cls-14" x1="31.72" y1="32.86" x2="26.97" y2="32.86"/><line class="cls-14" x1="31.15" y1="43.04" x2="27.79" y2="39.68"/><line class="cls-14" x1="27.79" y1="43.04" x2="31.15" y2="39.68"/><path class="cls-14" d="M27.9,34.73h0a2.88,2.88,0,0,1,2.88,2.88v0a0,0,0,0,1,0,0h0a2.88,2.88,0,0,1-2.88-2.88v0A0,0,0,0,1,27.9,34.73Z" transform="translate(75.67 41) rotate(135)"/><line class="cls-14" x1="18.65" y1="27.1" x2="23.4" y2="27.1"/><line class="cls-14" x1="18.65" y1="29.08" x2="23.4" y2="29.08"/><line class="cls-14" x1="18.65" y1="36.4" x2="23.4" y2="36.4"/><line class="cls-14" x1="18.65" y1="38.38" x2="23.4" y2="38.38"/><line class="cls-14" x1="18.65" y1="45.43" x2="23.4" y2="45.43"/><line class="cls-14" x1="19.35" y1="31.06" x2="22.71" y2="34.42"/><line class="cls-14" x1="22.71" y1="31.06" x2="19.35" y2="34.42"/><path class="cls-14" d="M19.59,47.12h0A2.88,2.88,0,0,1,22.47,50v0a0,0,0,0,1,0,0h0a2.88,2.88,0,0,1-2.88-2.88v0A0,0,0,0,1,19.59,47.12Z" transform="translate(-28.18 29.09) rotate(-45)"/><rect class="cls-14" x="18.65" y="40.78" width="4.75" height="2.59" rx="1.3" ry="1.3"/><line class="cls-14" x1="76.57" y1="27.1" x2="81.32" y2="27.1"/><line class="cls-14" x1="76.57" y1="29.08" x2="81.32" y2="29.08"/><line class="cls-14" x1="76.57" y1="36.4" x2="81.32" y2="36.4"/><line class="cls-14" x1="76.57" y1="38.38" x2="81.32" y2="38.38"/><line class="cls-14" x1="76.57" y1="45.43" x2="81.32" y2="45.43"/><line class="cls-14" x1="77.26" y1="31.06" x2="80.62" y2="34.42"/><line class="cls-14" x1="80.62" y1="31.06" x2="77.26" y2="34.42"/><path class="cls-14" d="M77.5,47.12h0A2.88,2.88,0,0,1,80.38,50v0a0,0,0,0,1,0,0h0a2.88,2.88,0,0,1-2.88-2.88v0A0,0,0,0,1,77.5,47.12Z" transform="translate(-11.22 70.05) rotate(-45)"/><rect class="cls-14" x="76.57" y="40.78" width="4.75" height="2.59" rx="1.3" ry="1.3"/><line class="cls-14" x1="39.79" y1="49.41" x2="35.04" y2="49.41"/><line class="cls-14" x1="39.79" y1="47.43" x2="35.04" y2="47.43"/><line class="cls-14" x1="39.79" y1="40.11" x2="35.04" y2="40.11"/><line class="cls-14" x1="39.79" y1="38.13" x2="35.04" y2="38.13"/><line class="cls-14" x1="39.79" y1="31.07" x2="35.04" y2="31.07"/><line class="cls-14" x1="39.1" y1="45.45" x2="35.74" y2="42.09"/><line class="cls-14" x1="35.74" y1="45.45" x2="39.1" y2="42.09"/><path class="cls-14" d="M36,26.5h0a2.88,2.88,0,0,1,2.88,2.88v0a0,0,0,0,1,0,0h0A2.88,2.88,0,0,1,36,26.5v0A0,0,0,0,1,36,26.5Z" transform="translate(83.63 21.24) rotate(135)"/><rect class="cls-14" x="35.04" y="33.14" width="4.75" height="2.59" rx="1.3" ry="1.3" transform="translate(74.83 68.87) rotate(180)"/><line class="cls-14" x1="43.16" y1="26.76" x2="47.91" y2="26.76"/><line class="cls-14" x1="43.16" y1="28.74" x2="47.91" y2="28.74"/><polyline class="cls-14" points="43.16 30.8 47.91 30.8 47.91 32.92 44.94 32.92 44.94 35.04 47.91 35.04"/><line class="cls-14" x1="43.29" y1="49.74" x2="48.04" y2="49.74"/><line class="cls-14" x1="43.29" y1="43.64" x2="48.04" y2="43.64"/><line class="cls-14" x1="43.16" y1="37.1" x2="47.91" y2="37.1"/><path class="cls-14" d="M44.22,38.9h0a2.88,2.88,0,0,1,2.88,2.88v0a0,0,0,0,1,0,0h0a2.88,2.88,0,0,1-2.88-2.88v0A0,0,0,0,1,44.22,38.9Z" transform="translate(-15.15 44.1) rotate(-45)"/><path class="cls-14" d="M44.09,45.41h0A2.88,2.88,0,0,1,47,48.3v0a0,0,0,0,1,0,0h0a2.88,2.88,0,0,1-2.88-2.88v0A0,0,0,0,1,44.09,45.41Z" transform="translate(-19.79 45.92) rotate(-45)"/><line class="cls-14" x1="64.97" y1="49.74" x2="60.22" y2="49.74"/><line class="cls-14" x1="64.97" y1="47.76" x2="60.22" y2="47.76"/><line class="cls-14" x1="64.97" y1="45.71" x2="60.22" y2="45.71"/><line class="cls-14" x1="64.84" y1="30.8" x2="60.09" y2="30.8"/><line class="cls-14" x1="64.84" y1="28.82" x2="60.09" y2="28.82"/><line class="cls-14" x1="64.84" y1="26.76" x2="60.09" y2="26.76"/><line class="cls-14" x1="64.84" y1="32.86" x2="60.09" y2="32.86"/><line class="cls-14" x1="64.28" y1="43.04" x2="60.91" y2="39.68"/><line class="cls-14" x1="60.91" y1="43.04" x2="64.28" y2="39.68"/><path class="cls-14" d="M61,34.73h0a2.88,2.88,0,0,1,2.88,2.88v0a0,0,0,0,1,0,0h0A2.88,2.88,0,0,1,61,34.73v0A0,0,0,0,1,61,34.73Z" transform="translate(132.21 17.58) rotate(135)"/><line class="cls-14" x1="51.77" y1="27.1" x2="56.53" y2="27.1"/><line class="cls-14" x1="51.77" y1="29.08" x2="56.53" y2="29.08"/><line class="cls-14" x1="51.77" y1="36.4" x2="56.53" y2="36.4"/><line class="cls-14" x1="51.77" y1="38.38" x2="56.53" y2="38.38"/><line class="cls-14" x1="51.77" y1="45.43" x2="56.53" y2="45.43"/><line class="cls-14" x1="52.47" y1="31.06" x2="55.83" y2="34.42"/><line class="cls-14" x1="55.83" y1="31.06" x2="52.47" y2="34.42"/><path class="cls-14" d="M52.71,47.12h0A2.88,2.88,0,0,1,55.59,50v0a0,0,0,0,1,0,0h0a2.88,2.88,0,0,1-2.88-2.88v0a0,0,0,0,1,0,0Z" transform="translate(-18.48 52.51) rotate(-45)"/><rect class="cls-14" x="51.77" y="40.78" width="4.75" height="2.59" rx="1.3" ry="1.3"/><line class="cls-14" x1="72.91" y1="49.41" x2="68.16" y2="49.41"/><line class="cls-14" x1="72.91" y1="47.43" x2="68.16" y2="47.43"/><line class="cls-14" x1="72.91" y1="40.11" x2="68.16" y2="40.11"/><line class="cls-14" x1="72.91" y1="38.13" x2="68.16" y2="38.13"/><line class="cls-14" x1="72.91" y1="31.07" x2="68.16" y2="31.07"/><line class="cls-14" x1="72.22" y1="45.45" x2="68.86" y2="42.09"/><line class="cls-14" x1="68.86" y1="45.45" x2="72.22" y2="42.09"/><path class="cls-14" d="M69.1,26.5h0A2.88,2.88,0,0,1,72,29.38v0a0,0,0,0,1,0,0h0A2.88,2.88,0,0,1,69.1,26.5v0a0,0,0,0,1,0,0Z" transform="translate(140.17 -2.18) rotate(135)"/><rect class="cls-14" x="68.16" y="33.14" width="4.75" height="2.59" rx="1.3" ry="1.3" transform="translate(141.08 68.87) rotate(180)"/></svg>