<svg id="Layer_1" data-name="Layer 1" xmlns="http://www.w3.org/2000/svg" viewBox="0 0 100 100"><defs><style>.cls-1{fill:#09a582;}.cls-2{fill:#007f63;}.cls-3{fill:#ffc640;}</style></defs><title>ouroboros</title><path class="cls-1" d="M50.08,99.76A46.64,46.64,0,1,1,96.72,53.12,46.7,46.7,0,0,1,50.08,99.76Zm0-77.49A30.85,30.85,0,1,0,80.92,53.12,30.89,30.89,0,0,0,50.08,22.27Z"/><path class="cls-2" d="M96.8,53.2a47.07,47.07,0,0,1-3.19,16.9A48.22,48.22,0,0,0,81.88,59.16a48.8,48.8,0,0,0,7.56-2.31A58.45,58.45,0,0,0,96.8,53.2Z"/><path class="cls-2" d="M93.61,70.1a46.82,46.82,0,0,1-9.06,14.6,46.23,46.23,0,0,0-3-7.65,44.82,44.82,0,0,0-4-6.79,45.93,45.93,0,0,0,7.88.59A48.21,48.21,0,0,0,93.61,70.1Z"/><path class="cls-2" d="M84.55,84.7a47,47,0,0,1-13.7,10.36,47.77,47.77,0,0,0,0-8.2,45,45,0,0,0-1.31-7.79,43.6,43.6,0,0,0,7.14,3.38c1.25.47,2.55.91,3.89,1.31S83.18,84.43,84.55,84.7Z"/><path class="cls-2" d="M70.85,95.06a47,47,0,0,1-16.54,4.73,49,49,0,0,0,4.57-15.4A48,48,0,0,0,70.85,95.06Z"/><path class="cls-2" d="M54.31,99.79a46.24,46.24,0,0,1-17.11-1.6A48.79,48.79,0,0,0,47,85.5a54.76,54.76,0,0,0,3,7.33A57.35,57.35,0,0,0,54.31,99.79Z"/><path class="cls-2" d="M37.2,98.19a46.72,46.72,0,0,1-15.39-7.68,47.35,47.35,0,0,0,7.34-3.65,44.29,44.29,0,0,0,6.4-4.64A48.06,48.06,0,0,0,37.2,98.19Z"/><path class="cls-2" d="M21.81,90.51A46.85,46.85,0,0,1,10.24,77.82a46.13,46.13,0,0,0,8.16-.77A44.06,44.06,0,0,0,26,75c-.54,1.18-1.06,2.39-1.53,3.65s-.83,2.48-1.18,3.77A46.24,46.24,0,0,0,21.81,90.51Z"/><path class="cls-2" d="M10.24,77.82A46.73,46.73,0,0,1,4,61.79a48.45,48.45,0,0,0,15.75,3.12,44.32,44.32,0,0,0-5.21,5.94A47.47,47.47,0,0,0,10.24,77.82Z"/><path class="cls-2" d="M4,61.79A46,46,0,0,1,4,44.61a52.35,52.35,0,0,0,6.54,4.93,52.67,52.67,0,0,0,7,3.66,53.78,53.78,0,0,0-7,3.65A51.49,51.49,0,0,0,4,61.79Z"/><path class="cls-2" d="M4,44.61a46.78,46.78,0,0,1,6.23-16,47.57,47.57,0,0,0,4.31,7,44.86,44.86,0,0,0,5.21,5.93A48.47,48.47,0,0,0,4,44.61Z"/><path class="cls-2" d="M10.24,28.57A46.85,46.85,0,0,1,21.81,15.88a46.24,46.24,0,0,0,1.52,8.06c.35,1.3.75,2.55,1.18,3.77s1,2.48,1.53,3.65a44.06,44.06,0,0,0-7.64-2A48.1,48.1,0,0,0,10.24,28.57Z"/><path class="cls-2" d="M21.81,15.88A46.72,46.72,0,0,1,37.2,8.2a48.06,48.06,0,0,0-1.65,16,44.29,44.29,0,0,0-6.4-4.64A47.35,47.35,0,0,0,21.81,15.88Z"/><path class="cls-2" d="M37.2,8.2A46.24,46.24,0,0,1,54.31,6.6a57.35,57.35,0,0,0-4.31,7,54.76,54.76,0,0,0-3,7.33A49,49,0,0,0,37.2,8.2Z"/><path class="cls-2" d="M54.31,6.6a47,47,0,0,1,16.54,4.73A48,48,0,0,0,58.88,22,49,49,0,0,0,54.31,6.6Z"/><path class="cls-2" d="M70.85,11.33a47,47,0,0,1,13.7,10.36c-1.37.27-2.7.59-4,.95s-2.64.83-3.89,1.3a43.65,43.65,0,0,0-7.14,3.39,45.22,45.22,0,0,0,1.31-7.8A47.77,47.77,0,0,0,70.85,11.33Z"/><path class="cls-2" d="M84.55,21.69A46.75,46.75,0,0,1,93.61,36.3a47.21,47.21,0,0,0-8.17-.75,44,44,0,0,0-7.88.59,44.92,44.92,0,0,0,4-6.8A46.23,46.23,0,0,0,84.55,21.69Z"/><path class="cls-2" d="M93.61,36.3A47,47,0,0,1,96.8,53.2a57.22,57.22,0,0,0-7.36-3.66,48.8,48.8,0,0,0-7.56-2.31A48.37,48.37,0,0,0,93.61,36.3Z"/><path class="cls-3" d="M67.35,8.66s3.08,4,2,6.28,3.31-3.67,2.25-7"/><path class="cls-1" d="M72.73,8C69.32,3.07,62.54,0,55.18,0c-7.94,0-14.84,3.58-18,8.67a19.67,19.67,0,0,1,1.68,14.5c3.59,3.88,9.57,6.45,16.3,6.45a25.38,25.38,0,0,0,9.31-1.74L55.18,14.81Z"/><circle class="cls-1" cx="42.6" cy="5.58" r="4.83"/><circle class="cls-3" cx="42.6" cy="5.05" r="1.83"/><rect class="cls-2" x="53.2" y="9.82" width="20.15" height="2.02" rx="1.01" ry="1.01" transform="translate(0.4 23.77) rotate(-21.34)"/><path class="cls-2" d="M63.21,29.62l-9.7-13.54a1,1,0,0,1,.23-1.41h0a1,1,0,0,1,1.41.24l9.7,13.53a1,1,0,0,1-.23,1.41h0A1,1,0,0,1,63.21,29.62Z"/></svg>