<svg id="Layer_1" data-name="Layer 1" xmlns="http://www.w3.org/2000/svg" viewBox="0 0 100 100"><defs><style>.cls-1{fill:#3e3e3f;}.cls-2{fill:#212121;}.cls-3{fill:#ffc640;}.cls-4{fill:#f9a63f;}.cls-5{fill:#dd7236;}.cls-6{fill:#ebf7fd;}</style></defs><title>pandora&amp;apos;s box</title><path class="cls-1" d="M22.87,45.71s6.43-10.82,7.65-20.33C31.77,15.61,3.67,8.87,6.18.08H93.93c1.14,8.7-21.33,7.56-21.08,20.21s15,8.29,7.32,25.42S51.52,83.62,51.52,83.62Z"/><path class="cls-2" d="M67.37,53.63a12,12,0,0,0,2.47-7.92,31.85,31.85,0,0,0-1.36-9.33c-.6-2.38,2.27,3.87,2.27,3.87l-.91-9.37,2.79,7.81V32.88s4.87,12,2.87,18.76S67.37,53.63,67.37,53.63Z"/><path class="cls-2" d="M55.82,71.41a12,12,0,0,1-2.47-7.92,31.42,31.42,0,0,1,1.37-9.33c.6-2.38-2.28,3.87-2.28,3.87l.91-9.37-2.78,7.81V50.66s-4.88,12-2.88,18.76S55.82,71.41,55.82,71.41Z"/><path class="cls-2" d="M56.43,76.06a58.35,58.35,0,0,0,9.41-25.95c1.84-15.77-6.23-17-7.07-25.8C57.6,12.16,64.43,0,74.18,0H57.68s-12.5,5.83-9.16,23.74,10.41,15.69,10.33,30C58.76,69.08,56.43,76.06,56.43,76.06Z"/><path class="cls-2" d="M18.52,0S34.35,6.82,36,18.89s-7.09,17.75-7.59,33.44S33.35,75.9,33.35,75.9s-7.69-8,3.33-28.26C46.27,30.06,47,15.44,41.85,8.38S34.1,0,34.1,0Z"/><polygon class="cls-3" points="24.85 81.18 24.85 49.27 49.53 64.53 49.53 96.44 24.85 81.18"/><path class="cls-4" d="M26.84,52.84l20.71,12.8V92.88L26.84,80.07V52.84m-4-7.13V82.29L51.52,100V63.43L22.87,45.71Z"/><polygon class="cls-4" points="53.5 64.53 78.18 49.27 78.18 81.18 53.5 96.44 53.5 64.53"/><path class="cls-5" d="M76.19,52.84V80.07L55.49,92.88V65.64l20.7-12.8m4-7.13L51.52,63.43V100L80.17,82.29V45.71Z"/><path class="cls-6" d="M63.52,10.27s-2.67,1.07-2,3.28,6.25-1.89,5.66-3.28S63.52,10.27,63.52,10.27Z"/><path class="cls-6" d="M68.18,13.31s-1.49.41-1,2.38S72.18,11.25,68.18,13.31Z"/><path class="cls-6" d="M61.07,19.63s.45-3.45,2.61-2.95,1.75,4.92,1.09,5.83S64,16.84,61.07,19.63Z"/><path class="cls-2" d="M47.62,39.31s2.67,1.07,2,3.29S43.37,40.71,44,39.31,47.62,39.31,47.62,39.31Z"/><path class="cls-2" d="M43,42.35s1.5.41.95,2.38S39,40.3,43,42.35Z"/><path class="cls-2" d="M50.07,48.68s-.45-3.45-2.61-3-1.75,4.93-1.09,5.83S47.19,45.88,50.07,48.68Z"/><path class="cls-2" d="M49,9.18s-.45-3.45-2.61-3-1.75,4.93-1.09,5.83S46.08,6.38,49,9.18Z"/><path class="cls-1" d="M75.1,21.77s-1.58-4.88,4.25-7.29S74.27,18.07,75.1,21.77Z"/><path class="cls-1" d="M27.93,27.11s.67-10.41-10.08-11S28.52,22.84,27.93,27.11Z"/><path class="cls-2" d="M28.81,16.07a46,46,0,0,0-9.12-6c-4.19-1.81,4.56,1.25,4.56,1.25s-5.77-4-5.7-4.68,6.2,3,6.2,3a35.72,35.72,0,0,1-1.88-4.34C22.88,4.81,36.43,21.34,28.81,16.07Z"/><path class="cls-2" d="M74.19,8.62A28.36,28.36,0,0,0,77.89,3c1.12-2.58-.77,2.81-.77,2.81S79.58,2.25,80,2.3s-1.86,3.82-1.86,3.82A21.2,21.2,0,0,1,80.82,5C81.12,5,70.94,13.31,74.19,8.62Z"/><path class="cls-2" d="M42.82,2.75c-.07,1.11.5,3.31,1.62,2S43-.5,42.82,2.75Z"/><path class="cls-2" d="M46.15,4.63s-.27-1.69.48-2.44S49.36,7.28,46.15,4.63Z"/></svg>