<svg id="Layer_1" data-name="Layer 1" xmlns="http://www.w3.org/2000/svg" viewBox="0 0 100 100"><defs><style>.cls-1{fill:#fcca98;}.cls-2{fill:#f37d3b;}.cls-3{fill:#447d93;}.cls-4{fill:#f7993e;}.cls-5{fill:#d76f34;}.cls-6{fill:#3e3e3f;}.cls-7{fill:#b8602a;}.cls-8{fill:#885e59;}.cls-9{fill:#7d7d7d;}.cls-10{fill:#9c9c9c;}</style></defs><title>paul bunyan</title><rect class="cls-1" x="60.67" y="57.67" width="6.9" height="19.16" rx="3.45" ry="3.45"/><rect class="cls-1" x="27.88" y="57.67" width="6.9" height="19.16" rx="3.45" ry="3.45"/><rect class="cls-2" x="60.67" y="40.78" width="6.9" height="19.16" rx="3.45" ry="3.45"/><rect class="cls-2" x="27.88" y="40.78" width="6.9" height="19.16" rx="3.45" ry="3.45"/><rect class="cls-2" x="31.33" y="39.43" width="32.27" height="11.71" rx="5.85" ry="5.85"/><rect class="cls-3" x="50.09" y="65.75" width="9.56" height="34.25" rx="4.78" ry="4.78"/><rect class="cls-3" x="36.34" y="65.75" width="9.56" height="34.25" rx="4.78" ry="4.78"/><rect class="cls-2" x="31.33" y="36.39" width="32.27" height="42.54" rx="16.14" ry="16.14"/><rect class="cls-4" x="34.34" y="41.32" width="4.75" height="5.34"/><rect class="cls-4" x="39.09" y="46.66" width="4.75" height="5.34"/><rect class="cls-4" x="43.83" y="41.32" width="4.75" height="5.34"/><rect class="cls-4" x="48.58" y="46.66" width="4.75" height="5.34"/><rect class="cls-4" x="53.32" y="41.32" width="4.75" height="5.34"/><rect class="cls-4" x="58.07" y="46.66" width="4.75" height="5.34"/><rect class="cls-4" x="34.34" y="52" width="4.75" height="5.34"/><rect class="cls-4" x="39.09" y="57.34" width="4.75" height="5.34"/><rect class="cls-4" x="43.83" y="52" width="4.75" height="5.34"/><rect class="cls-4" x="48.58" y="57.34" width="4.75" height="5.34"/><rect class="cls-4" x="53.32" y="52" width="4.75" height="5.34"/><rect class="cls-4" x="58.07" y="57.34" width="4.75" height="5.34"/><rect class="cls-4" x="34.34" y="62.68" width="4.75" height="5.34"/><rect class="cls-4" x="39.09" y="68.02" width="4.75" height="5.34"/><rect class="cls-4" x="43.83" y="62.68" width="4.75" height="5.34"/><rect class="cls-4" x="48.58" y="68.02" width="4.75" height="5.34"/><rect class="cls-4" x="53.32" y="62.68" width="4.75" height="5.34"/><polyline class="cls-2" points="36.95 39.43 33.99 41.75 41.35 47.5 45.6 43"/><polyline class="cls-2" points="58.54 39.43 61.5 41.75 54.14 47.5 49.89 43"/><path class="cls-5" d="M31.05,9.74s1.17-8,9.57-8c0,0,2.17-1.83,8.06-1.78S66.88,6.33,63.9,10.42"/><path class="cls-2" d="M30.49,15.67,29.35,9.39s11.86-8.75,36,0L63.6,16.11"/><polyline class="cls-1" points="43.92 42.35 47.33 53.69 52.42 41.75"/><path class="cls-1" d="M55.41,10.42H40.28l-9.46,6.74V25.1a16.65,16.65,0,0,0,33.3,0V16Z"/><circle class="cls-6" cx="35.33" cy="18.94" r="1.34"/><circle class="cls-6" cx="60.29" cy="18.98" r="1.34"/><circle class="cls-1" cx="66.26" cy="16.61" r="3.21"/><circle class="cls-1" cx="64.27" cy="20.62" r="2.8"/><circle class="cls-1" cx="28.83" cy="16.61" r="3.21"/><circle class="cls-1" cx="30.82" cy="20.62" r="2.8"/><polygon class="cls-2" points="44.18 26.9 50.75 26.9 47.47 14.88 44.18 26.9"/><path class="cls-7" d="M47.47,43.15a19,19,0,0,1-19-19V22.78c0-9.37,6.94-14.74,19-14.74s19,5.37,19,14.74v1.35A19,19,0,0,1,47.47,43.15Zm0-30.36c-9.48,0-14.28,3.36-14.28,10v1.35a14.28,14.28,0,1,0,28.55,0V22.78C61.74,16.15,56.94,12.79,47.47,12.79Z"/><rect class="cls-7" x="31.05" y="26.9" width="33.06" height="4.5" rx="2.25" ry="2.25"/><polyline class="cls-7" points="35.68 33.76 60.67 33.76 48.17 41.32 35.68 36.83"/><rect class="cls-2" x="38.94" y="31.4" width="16.46" height="1.28" rx="0.64" ry="0.64"/><path class="cls-7" d="M37.55,11.57S49.9,17.86,55.4,17.82c0,0-6.43-5.76-1.14-5.81"/><circle class="cls-7" cx="46.14" cy="44.81" r="0.35"/><circle class="cls-7" cx="48.75" cy="44.99" r="0.18"/><circle class="cls-7" cx="47.76" cy="48.02" r="0.29"/><path class="cls-7" d="M49.43,46.51a.16.16,0,0,1-.16.15.15.15,0,0,1-.15-.15.16.16,0,0,1,.15-.16A.16.16,0,0,1,49.43,46.51Z"/><circle class="cls-7" cx="50.62" cy="44.23" r="0.23"/><rect class="cls-8" x="64.12" y="72.12" width="17.97" height="2.82" rx="1.41" ry="1.41"/><polygon class="cls-9" points="85.74 65.35 75.84 65.35 75.84 81.09 85.74 71.19 85.74 65.35"/><polygon class="cls-10" points="85.74 77.82 85.74 73.37 76.54 82.57 80.98 82.57 85.74 77.82"/><polygon class="cls-9" points="85.74 77.82 80.98 82.57 83.16 82.57 85.74 79.99 85.74 77.82"/><polygon class="cls-10" points="85.74 79.99 83.16 82.57 85.74 82.57 85.74 79.99"/><polygon class="cls-9" points="85.74 73.37 85.74 71.19 75.84 81.09 75.84 82.57 76.54 82.57 85.74 73.37"/><rect class="cls-8" x="68.41" y="72.12" width="17.97" height="2.82" rx="1.41" ry="1.41"/></svg>