<svg id="Layer_1" data-name="Layer 1" xmlns="http://www.w3.org/2000/svg" xmlns:xlink="http://www.w3.org/1999/xlink" viewBox="0 0 100 100"><defs><style>.cls-1{fill:none;}.cls-2{clip-path:url(#clip-path);}.cls-3{fill:#089a7a;}.cls-4{fill:#007359;}.cls-5{clip-path:url(#clip-path-2);}.cls-6{clip-path:url(#clip-path-3);}.cls-7{clip-path:url(#clip-path-4);}.cls-8{fill:#f2797a;}.cls-9{fill:#f48d80;}.cls-10{fill:#f7a895;}</style><clipPath id="clip-path"><path class="cls-1" d="M6.35,45.72h0a40.4,40.4,0,0,1,40.4,40.4v0a0,0,0,0,1,0,0h0a40.4,40.4,0,0,1-40.4-40.4v0a0,0,0,0,1,0,0Z" transform="translate(-44.5 64.18) rotate(-66.65)"/></clipPath><clipPath id="clip-path-2"><path class="cls-1" d="M54.41,45.39h0a40.4,40.4,0,0,1,40.4,40.4v0a0,0,0,0,1,0,0h0a40.4,40.4,0,0,1-40.4-40.4v0a0,0,0,0,1,0,0Z" transform="translate(-16.4 25.76) rotate(-17.68)"/></clipPath><clipPath id="clip-path-3"><path class="cls-1" d="M51.77,92.53h0C36,83,36,67.42,51.77,57.85h0c15.78,9.57,15.78,25.1,0,34.68Z"/></clipPath><clipPath id="clip-path-4"><path class="cls-1" d="M34,70.06c3.92,0,17.75,1,17.75-8.77,0,9.8,14,8.81,17.75,8.77A17.83,17.83,0,0,0,87.28,52.31c0-22-35.51-44.84-35.51-44.84s-35.5,22.8-35.5,44.84A17.8,17.8,0,0,0,34,70.06Z"/></clipPath></defs><title>peach of immortality</title><g class="cls-2"><path class="cls-3" d="M6.35,45.72h0a40.4,40.4,0,0,1,40.4,40.4v0a0,0,0,0,1,0,0h0a40.4,40.4,0,0,1-40.4-40.4v0a0,0,0,0,1,0,0Z" transform="translate(-44.5 64.18) rotate(-66.65)"/><rect class="cls-4" x="-10.79" y="43.17" width="64.31" height="23.91" transform="translate(-18.83 11.77) rotate(-21.65)"/></g><g class="cls-5"><path class="cls-3" d="M54.41,45.39h0a40.4,40.4,0,0,1,40.4,40.4v0a0,0,0,0,1,0,0h0a40.4,40.4,0,0,1-40.4-40.4v0a0,0,0,0,1,0,0Z" transform="translate(-16.4 25.76) rotate(-17.68)"/><rect class="cls-4" x="47.2" y="42.63" width="64.31" height="23.91" transform="translate(33.9 -30.33) rotate(27.32)"/></g><g class="cls-6"><path class="cls-3" d="M51.77,92.53h0C36,83,36,67.42,51.77,57.85h0c15.78,9.57,15.78,25.1,0,34.68Z"/><rect class="cls-4" x="44.21" y="62.72" width="39.03" height="23.91" transform="translate(138.4 10.95) rotate(90)"/></g><g class="cls-7"><path class="cls-8" d="M34,70.06c3.92,0,17.75,1,17.75-8.77,0,9.8,14,8.81,17.75,8.77A17.83,17.83,0,0,0,87.28,52.31c0-22-35.51-44.84-35.51-44.84s-35.5,22.8-35.5,44.84A17.8,17.8,0,0,0,34,70.06Z"/><ellipse class="cls-9" cx="34.85" cy="42.3" rx="31.71" ry="41.47"/></g><circle class="cls-10" cx="28.57" cy="53.97" r="7.13"/><circle class="cls-10" cx="25.01" cy="42.49" r="2.38"/></svg>