<svg id="Layer_1" data-name="Layer 1" xmlns="http://www.w3.org/2000/svg" xmlns:xlink="http://www.w3.org/1999/xlink" viewBox="0 0 100 100"><defs><style>.cls-1{fill:none;}.cls-2{clip-path:url(#clip-path);}.cls-3{fill:#ff2a00;}.cls-4{fill:#c00;}.cls-5{fill:#f66;}.cls-6{fill:red;}.cls-7{fill:#ff0031;}.cls-8{fill:#f99;}</style><clipPath id="clip-path"><polygon class="cls-1" points="16.51 52.64 21.41 82.12 36.4 99.74 49.72 100 59.77 90.51 83.49 53.94 82.18 8.89 70.31 0 61.53 0.68 31.73 40.02 16.51 52.64"/></clipPath></defs><title>philosopher&amp;apos;s stone</title><g class="cls-2"><polygon class="cls-3" points="16.51 52.64 21.41 82.12 36.4 99.74 49.72 100 59.77 90.51 83.49 53.94 82.18 8.89 70.31 0 61.53 0.68 31.73 40.02 16.51 52.64"/><polygon class="cls-4" points="29.47 52.89 34.37 82.37 49.36 99.99 62.68 100.25 72.72 90.76 96.44 54.19 95.14 9.15 83.26 0.25 74.49 0.93 44.69 40.27 29.47 52.89"/></g><polygon class="cls-5" points="45.38 56.23 17.94 52.82 32.28 40.67 45.38 56.23"/><polygon class="cls-6" points="82.04 54.34 60.14 89.08 64.88 56.61 82.04 54.34"/><polygon class="cls-5" points="36.26 98.93 22.69 82.11 37.81 79.02 36.26 98.93"/><polygon class="cls-6" points="45.76 57.71 38.17 78.07 59.72 89.42 45.76 57.71"/><polygon class="cls-7" points="46.34 56.25 63.94 56.02 62.92 44.98 46.34 56.25"/><polygon class="cls-7" points="63.36 1.48 69.95 0.78 80.54 8.56 63.36 1.48"/><polygon class="cls-6" points="81.14 9.34 63.76 43.91 82.06 53.32 81.14 9.34"/><polygon class="cls-8" points="17.37 53.4 22.71 81.15 36.6 78.04 17.37 53.4"/><polygon class="cls-8" points="34.05 40.7 45.74 55.41 62.32 44.27 34.05 40.7"/><polygon class="cls-7" points="49.46 99.19 58.75 90.13 39.16 79.88 49.46 99.19"/><polygon class="cls-6" points="46.72 57.73 63.5 57.35 62.3 66.18 46.72 57.73"/><polygon class="cls-8" points="61.64 1.96 61.92 2.08 73.72 7.16 33.45 39.63 61.64 1.96"/></svg>