<svg id="Layer_1" data-name="Layer 1" xmlns="http://www.w3.org/2000/svg" viewBox="0 0 100 100"><defs><style>.cls-1{fill:#038c6e;}.cls-2{fill:#09a582;}.cls-3{fill:#19a683;}.cls-4{fill:#ffc540;}.cls-5{fill:#f37d3b;}.cls-6{fill:#ffc640;}.cls-7{fill:#00604a;}</style></defs><title>quetzalcoatl</title><path class="cls-1" d="M48.17,23.88S39.36,17,40.72,13.51,44.22,1,37.53,0,22.06,36.35,22.06,36.35l5.1-6.61-.11,3.5,5.81-8.12"/><path class="cls-1" d="M48.17,23.88l-6,2.39c-2.66-2-10.42.38-10.42.38L35.1,22l1.82-2.68S40.06,23.47,48.17,23.88Z"/><polyline class="cls-1" points="33.76 3.78 25.32 13.05 30.65 10.56 22.16 24.75 27.61 20.54"/><path class="cls-2" d="M40.82,27.87S28.51,21.62,29.33,17.11s1.25-16-7.08-15.56-10,47.63-10,47.63L16.8,40l.71,4.25L22.59,33"/><path class="cls-1" d="M40.82,27.87l-6.67,4.32c-3.7-1.82-12.51,2.94-12.51,2.94l2.92-6.43L26.12,25S30.9,29.31,40.82,27.87Z"/><polyline class="cls-2" points="18.59 7 10.59 20.22 16.45 15.94 9.56 35.13 15.15 28.74"/><path class="cls-3" d="M54.23,99.54c-10.22,0-21.66-3.81-32.45-11.22a6.7,6.7,0,1,1,7.59-11c13.46,9.24,28,11.51,36.15,5.66,2-1.47,7.24-6.33,6.74-11.18-.59-5.66-8.49-9.51-10.07-10.23-5.38-2.44-9.91-1.82-14.29-1.23-4.75.64-10.65,1.44-15-3.49-4-4.48-4.85-12.29-2.31-20.89,3.38-11.49,11.29-20,21.17-22.71,10.66-3,22.74,1,31.51,10.23a6.7,6.7,0,1,1-9.73,9.22c-5.27-5.57-12.42-8.13-18.2-6.53-6.71,1.86-10,8.6-11.15,11.41-1.78,4.5-1.83,8.24-1.43,9.85.9,0,2.29-.23,3.38-.38,5.07-.68,12.73-1.72,21.63,2.31,4.94,2.24,16.59,8.78,17.86,21C87,83.64,74.74,92.82,73.34,93.83A32.39,32.39,0,0,1,54.23,99.54Z"/><path class="cls-4" d="M86.84,75.31A1.29,1.29,0,0,0,88.24,74,1.34,1.34,0,0,0,87,72.57a1.36,1.36,0,0,0-.23-2.72,1.35,1.35,0,0,0,1-1.64,1.33,1.33,0,0,0-1.62-1,1.34,1.34,0,0,0,.75-1.75,1.32,1.32,0,0,0-1.74-.77,1.34,1.34,0,0,0-1.28-2.36,1.33,1.33,0,0,0-1.53-2.18,1.32,1.32,0,0,0-1.71-2,1.31,1.31,0,0,0-1.86-1.85,1.3,1.3,0,0,0-2-1.71A1.3,1.3,0,0,0,74.72,53a1.3,1.3,0,0,0-2.14-1.46,1.29,1.29,0,0,0-2.22-1.33A1.29,1.29,0,0,0,68.08,49a1.26,1.26,0,0,0-.67-1.71,1.29,1.29,0,0,0-1.75.63,1.34,1.34,0,0,0-2.54-.84,1.33,1.33,0,0,0-2.61-.55,1.29,1.29,0,0,0-1.2-1.42,1.27,1.27,0,0,0-1.45,1.15,1.33,1.33,0,0,0-2.65,0,1.31,1.31,0,0,0-2.61.19A1.29,1.29,0,0,0,50,46.8a1.26,1.26,0,0,0-2.49.44,1.26,1.26,0,0,0-1.4-1,1.23,1.23,0,0,0-.95,1.39,1.48,1.48,0,0,0-.37-.86.66.66,0,0,1-.07-.37,4.91,4.91,0,0,1-.84,1.11,5,5,0,0,1,.84-1.11,3.13,3.13,0,0,1-1.26.1c.69-.09,1.27-.56,1.28-1.05a1.27,1.27,0,0,0-1.19-1.17,1.2,1.2,0,1,0,.26-2.38,1.19,1.19,0,1,0,.45-2.34,1.19,1.19,0,1,0,.63-2.3,1.25,1.25,0,0,0,1.56-.68A1.26,1.26,0,0,0,45.75,35a1.23,1.23,0,0,0,1.61-.53,1.25,1.25,0,0,0-.59-1.59,1.15,1.15,0,1,0,1.23-2,1.28,1.28,0,0,0,1.67-.09,1.25,1.25,0,0,0-.21-1.63,1.28,1.28,0,0,0,1.6.25,1.21,1.21,0,0,0,.09-1.55,1.06,1.06,0,1,0,1.92-.85c.21.66.79,1.11,1.29,1a1.24,1.24,0,0,0,.88-1.37,1.14,1.14,0,1,0,2.27,0,1.27,1.27,0,0,0,1,1.38A1.29,1.29,0,0,0,59.82,27a1.18,1.18,0,1,0,2.29.55,1.19,1.19,0,1,0,2.26.75,1.26,1.26,0,0,0,.63,1.6,1.23,1.23,0,0,0,1.58-.68,1.21,1.21,0,1,0,2.15,1.09,1.2,1.2,0,1,0,2.06,1.23,1.2,1.2,0,1,0,2,1.37,1.19,1.19,0,1,0,1.86,1.49,1.27,1.27,0,0,0,0,1.71A1.26,1.26,0,0,0,76.33,36l2.24-2.11a1.33,1.33,0,0,0-1.93-1.83,1.31,1.31,0,0,0-2-1.65,1.28,1.28,0,0,0-.35-1.8h0a1.28,1.28,0,0,0-1.8.31,1.31,1.31,0,0,0-2.24-1.34,1.31,1.31,0,0,0-2.34-1.18,1.3,1.3,0,0,0-2.41-1,1.32,1.32,0,0,0-2.5-.83,1.33,1.33,0,0,0-2.58-.62,1.34,1.34,0,0,0-2.66-.35,1.37,1.37,0,0,0-2.74,0,1.32,1.32,0,0,0-1.61-1.07,1.33,1.33,0,0,0-1.16,1.56,1.27,1.27,0,0,0-1.84-.66,1.3,1.3,0,0,0-.8,1.82,1.36,1.36,0,0,0-2-.17A1.3,1.3,0,0,0,47.3,27a1.37,1.37,0,0,0-1.78,2.09,1.35,1.35,0,0,0-1.45,2.28,1.33,1.33,0,0,0-1.15,2.4,1.27,1.27,0,0,0-1.67.8A1.29,1.29,0,0,0,42,36.29a1.25,1.25,0,0,0-1.58.93,1.27,1.27,0,0,0,.89,1.61,1.31,1.31,0,0,0-.5,2.58,1.31,1.31,0,0,0-.28,2.6,1.28,1.28,0,0,0-1.34,1.34c0,.89.55,1.54,1.24,1.45-.66,0-1.3,1.22-.73,2.45s1.9,1.39,2.26.8c-.46.5.07,1.64,1.47,1.82a2.63,2.63,0,0,0,1.69-.3,1.13,1.13,0,0,0,.36-.92A1.29,1.29,0,0,0,47,51.72a1.26,1.26,0,0,0,1.08-1.46,1.24,1.24,0,1,0,2.45-.43,1.21,1.21,0,1,0,2.4-.34,1.2,1.2,0,1,0,2.39-.18,1.19,1.19,0,1,0,2.37,0,1.18,1.18,0,1,0,2.34.24,1.17,1.17,0,1,0,2.29.48,1.23,1.23,0,0,0,.73,1.53h0a1.24,1.24,0,0,0,1.49-.8,1.24,1.24,0,0,0,.56,1.6,1.26,1.26,0,0,0,1.6-.63,1.21,1.21,0,1,0,2.14,1.14,1.21,1.21,0,1,0,2.08,1.25,1.25,1.25,0,0,0,.31,1.71,1.26,1.26,0,0,0,1.7-.34A1.21,1.21,0,1,0,74.86,57a1.2,1.2,0,1,0,1.82,1.57,1.2,1.2,0,1,0,1.69,1.69A1.18,1.18,0,1,0,79.91,62a1.22,1.22,0,0,0-.31,1.66,1.2,1.2,0,0,0,1.65.27,1.22,1.22,0,0,0-.49,1.6,1.2,1.2,0,0,0,1.6.44,1.21,1.21,0,0,0-.68,1.51,1.19,1.19,0,0,0,1.52.63,1.19,1.19,0,0,0-.88,1.38,1.17,1.17,0,0,0,1.4.83,1.14,1.14,0,1,0,.19,2.27,1.17,1.17,0,0,0-1.24,1.06,1.23,1.23,0,0,0,1.13,1.2,1.14,1.14,0,1,0-.48,2.23,1.16,1.16,0,1,0-.81,2.18,1.18,1.18,0,1,0-1.05,2.11,1.19,1.19,0,1,0-1.23,2,1.24,1.24,0,0,0-1.7.25,1.25,1.25,0,0,0,.3,1.7,1.21,1.21,0,1,0-1.53,1.87A1.21,1.21,0,1,0,75.66,89a1.21,1.21,0,1,0-1.73,1.68,1.27,1.27,0,0,0-1.67-.22A1.24,1.24,0,0,0,72.14,92a1.21,1.21,0,0,0-1.57-.52,1.25,1.25,0,0,0-.46,1.6,1.21,1.21,0,0,0-1.52-.71A1.28,1.28,0,0,0,67.93,94a1.25,1.25,0,0,0-1.48-.87,1.31,1.31,0,0,0-.8,1.53,1.29,1.29,0,0,0-1.43-1,1.27,1.27,0,0,0-.93,1.47A1.28,1.28,0,0,0,61.93,94a1.23,1.23,0,0,0-1,1.38,1.23,1.23,0,0,0-1.31-1.11,1.21,1.21,0,0,0-1.11,1.31,1.25,1.25,0,0,0-1.26-1.2A1.29,1.29,0,0,0,56,95.69a1.28,1.28,0,0,0-1.21-1.28,1.26,1.26,0,0,0-1.23,1.24,1.26,1.26,0,0,0-1.16-1.3,1.24,1.24,0,0,0-1.29,1.16,1.24,1.24,0,0,0-1.1-1.34,1.28,1.28,0,0,0-1.34,1.13A1.23,1.23,0,1,0,46.28,95a1.27,1.27,0,0,0-1-1.43h0a1.24,1.24,0,0,0-1.41,1,1.25,1.25,0,0,0-1-1.46,1.29,1.29,0,0,0-1.45,1,1.28,1.28,0,0,0-.9-1.52,1.26,1.26,0,0,0-1.48.94A1.23,1.23,0,0,0,38.21,92a1.21,1.21,0,0,0-1.5.85,1.25,1.25,0,0,0-.8-1.55,1.28,1.28,0,0,0-1.55.84,1.28,1.28,0,0,0-.73-1.61,1.26,1.26,0,0,0-1.57.76,1.21,1.21,0,0,0-.68-1.58,1.23,1.23,0,0,0-1.59.67,1.25,1.25,0,0,0-.59-1.63,1.28,1.28,0,0,0-1.64.65,1.3,1.3,0,0,0-.51-1.68,1.26,1.26,0,0,0-1.65.55,1.21,1.21,0,1,0-2.1-1.2A1.25,1.25,0,0,0,23,85.4a1.29,1.29,0,0,0-1.71.41L19.5,88.34a1.24,1.24,0,0,0,.42,1.75,1.27,1.27,0,0,0,1.78-.37,1.31,1.31,0,0,0,.48,1.78h0A1.3,1.3,0,0,0,23.94,91a1.27,1.27,0,0,0,.58,1.72,1.22,1.22,0,0,0,1.71-.53,1.24,1.24,0,0,0,.66,1.66,1.26,1.26,0,0,0,1.7-.62,1.28,1.28,0,1,0,2.38,1,1.26,1.26,0,0,0,.78,1.62,1.24,1.24,0,0,0,1.63-.74,1.25,1.25,0,0,0,.85,1.58,1.28,1.28,0,0,0,1.61-.83,1.28,1.28,0,1,0,2.47.68,1.28,1.28,0,0,0,2.49.61,1.23,1.23,0,0,0,1,1.48,1.28,1.28,0,0,0,1.51-1,1.29,1.29,0,0,0,1.06,1.48,1.27,1.27,0,0,0,1.47-1,1.28,1.28,0,0,0,2.54.33,1.24,1.24,0,0,0,1.16,1.37,1.26,1.26,0,0,0,1.39-1.15,1.3,1.3,0,0,0,1.22,1.35,1.27,1.27,0,0,0,1.35-1.21,1.29,1.29,0,0,0,2.57,0A1.23,1.23,0,0,0,57.4,100a1.27,1.27,0,0,0,1.25-1.31,1.29,1.29,0,1,0,2.57-.21,1.28,1.28,0,0,0,1.46,1.09,1.23,1.23,0,0,0,1.12-1.42,1.25,1.25,0,0,0,1.53,1,1.24,1.24,0,0,0,1-1.48,1.24,1.24,0,0,0,1.61.86,1.28,1.28,0,0,0,.93-1.59,1.26,1.26,0,0,0,1.7.73,1.3,1.3,0,0,0,.78-1.7,1.3,1.3,0,0,0,1.81.54,1.34,1.34,0,0,0,.59-1.82,1.31,1.31,0,0,0,2,.2A1.26,1.26,0,0,0,76,93a1.3,1.3,0,0,0,1.87-1.81,1.3,1.3,0,0,0,1.76-1.91,1.3,1.3,0,0,0,1.64-2,1.31,1.31,0,0,0,1.53-2.12,1.32,1.32,0,0,0,1.36-2.25,1.33,1.33,0,0,0,1.18-2.38A1.34,1.34,0,0,0,86.26,78a1.37,1.37,0,0,0,.58-2.67Z"/><polyline class="cls-5" points="82.15 22.36 76.7 13.33 76.7 18.94 66.93 17.85 69.54 20.87 57.62 19.85 64.14 23.29 56.87 24.5 64.51 27.66 56.87 31.37 64.32 31.75 59.57 35.99 74.33 36.35"/><rect class="cls-2" x="82.61" y="24.88" width="7.32" height="13.75" rx="3.03" ry="3.03" transform="translate(143.45 103.73) rotate(-148.68)"/><rect class="cls-2" x="76.86" y="21.38" width="7.32" height="13.75" rx="3.03" ry="3.03" transform="translate(134.62 94.25) rotate(-148.68)"/><rect class="cls-2" x="70.66" y="28.87" width="29.9" height="13.25" rx="6.29" ry="6.29" transform="translate(140.29 110.33) rotate(-148.68)"/><rect class="cls-2" x="95.44" y="33.66" width="3.23" height="5.42" rx="1.53" ry="1.53" transform="translate(161.05 117.89) rotate(-148.68)"/><rect class="cls-2" x="91.66" y="31.36" width="3.23" height="5.42" rx="1.53" ry="1.53" transform="translate(155.24 111.67) rotate(-148.68)"/><circle class="cls-1" cx="81.27" cy="25.88" r="1.79"/><ellipse class="cls-6" cx="81.53" cy="25.36" rx="1.21" ry="0.69" transform="translate(17.48 81.82) rotate(-58.68)"/><path class="cls-6" d="M97.59,41.7c-.07.11.14.36.46.56s.63.26.7.14.78-2.58.78-2.58S97.66,41.58,97.59,41.7Z"/><path class="cls-6" d="M96.23,40.87c-.07.11.13.36.45.56s.64.26.71.14.77-2.58.77-2.58S96.3,40.75,96.23,40.87Z"/><path class="cls-6" d="M94.87,40c-.07.11.13.36.45.56s.63.26.7.14.78-2.58.78-2.58S94.94,39.92,94.87,40Z"/><path class="cls-6" d="M93.5,39.21c-.07.11.13.36.45.56s.64.26.71.14.77-2.58.77-2.58S93.57,39.09,93.5,39.21Z"/><path class="cls-6" d="M92.14,38.38c-.07.11.13.36.45.56s.63.26.7.14.78-2.58.78-2.58S92.21,38.26,92.14,38.38Z"/><path class="cls-6" d="M90.77,37.55c-.07.11.14.36.45.56s.64.25.71.14.78-2.58.78-2.58S90.84,37.43,90.77,37.55Z"/><path class="cls-6" d="M89.41,36.72c-.07.11.13.36.45.56s.63.25.71.14.77-2.58.77-2.58S89.48,36.6,89.41,36.72Z"/><path class="cls-6" d="M87.74,35.7c-.07.11.13.37.45.56s.63.26.7.14.78-2.58.78-2.58S87.81,35.58,87.74,35.7Z"/><path class="cls-6" d="M86.35,34.85c-.07.12.13.37.45.56s.63.26.7.14.78-2.57.78-2.57S86.42,34.74,86.35,34.85Z"/><path class="cls-6" d="M85,34c-.07.12.13.37.45.56s.64.26.71.15.77-2.58.77-2.58S85,33.89,85,34Z"/><path class="cls-6" d="M83.56,33.16c-.07.11.13.36.45.56s.63.25.7.14.78-2.58.78-2.58S83.63,33,83.56,33.16Z"/><path class="cls-6" d="M82.16,32.31c-.07.11.14.36.46.56s.63.26.7.14.78-2.58.78-2.58S82.23,32.19,82.16,32.31Z"/><path class="cls-6" d="M80.77,31.46c-.07.11.13.37.45.56s.64.26.71.14.77-2.58.77-2.58S80.84,31.34,80.77,31.46Z"/><path class="cls-6" d="M79.38,30.61c-.07.12.13.37.45.56s.63.26.7.14.78-2.57.78-2.57S79.45,30.5,79.38,30.61Z"/><rect class="cls-1" x="76.86" y="35.84" width="23.71" height="1" rx="0.48" ry="0.48" transform="translate(145.61 113.52) rotate(-148.68)"/><circle class="cls-7" cx="97.83" cy="35.27" r="0.71"/><circle class="cls-7" cx="94.1" cy="33.01" r="0.71"/><path class="cls-5" d="M17.79,85.65s-9.36,1.47-13.41-5.3a2.53,2.53,0,0,1,3.18,0S1.1,76.44.47,68.68c0,0,2.24,2.87,3.08,2.38L.47,60.3s7.2-.82,9.22.85c0,0,8,2.16,8.1,6.28,0,0,1.51-3.32-1.61-9,0,0,9.18,11.09,10.13,16.69"/><rect class="cls-4" x="18.29" y="71.84" width="7.54" height="19.46" rx="3.77" ry="3.77" transform="matrix(0.82, 0.57, -0.57, 0.82, 50.51, 2)"/></svg>