<svg id="Layer_1" data-name="Layer 1" xmlns="http://www.w3.org/2000/svg" viewBox="0 0 100 100"><defs><style>.cls-1{fill:#f37d3b;}.cls-2{fill:#fff;}.cls-3{fill:#d98334;}.cls-4{fill:#447d93;}.cls-5{fill:#09a582;}.cls-6{fill:#336274;}.cls-7{fill:#ffc540;}.cls-8{fill:#3f3f40;}.cls-9{fill:#f9a63f;}</style></defs><title>ra</title><rect class="cls-1" x="52.08" y="65.96" width="9.5" height="34.04" rx="4.75" ry="4.75"/><rect class="cls-1" x="38.42" y="65.96" width="9.5" height="34.04" rx="4.75" ry="4.75"/><rect class="cls-1" x="33.44" y="36.8" width="32.07" height="42.27" rx="16.03" ry="16.03"/><rect class="cls-2" x="33.44" y="39.81" width="32.07" height="11.63" rx="5.82" ry="5.82"/><ellipse class="cls-3" cx="49.7" cy="48.14" rx="14.69" ry="7.66"/><ellipse class="cls-4" cx="49.7" cy="46.3" rx="14.69" ry="7.66"/><ellipse class="cls-5" cx="49.7" cy="44.46" rx="14.69" ry="7.66"/><rect class="cls-1" x="62.59" y="41.16" width="6.86" height="19.04" rx="3.43" ry="3.43"/><rect class="cls-1" x="62.59" y="57.94" width="6.86" height="19.04" rx="3.43" ry="3.43"/><rect class="cls-1" x="30.01" y="41.16" width="6.86" height="19.04" rx="3.43" ry="3.43"/><rect class="cls-1" x="30.01" y="57.94" width="6.86" height="19.04" rx="3.43" ry="3.43"/><polyline class="cls-6" points="30.82 49.07 35.01 46.76 40.67 39.45 40.67 32.75 32.12 32.75"/><polyline class="cls-6" points="69.17 49.07 64.99 46.76 58.6 39.45 59.33 32.75 67.88 32.75"/><path class="cls-3" d="M69.18,49a4.72,4.72,0,0,1-4.72-4.72V23.89a14.46,14.46,0,1,0-28.92,0V44.31a4.72,4.72,0,1,1-9.43,0V23.89a23.89,23.89,0,0,1,47.78,0V44.31A4.71,4.71,0,0,1,69.18,49Z"/><path class="cls-4" d="M69.18,49a4.72,4.72,0,0,1-4.72-4.72V23.89a14.46,14.46,0,1,0-28.92,0V44.31a4.72,4.72,0,1,1-9.43,0V23.89a23.89,23.89,0,0,1,47.78,0V44.31A4.72,4.72,0,0,1,69.18,49Z"/><rect class="cls-7" x="26.11" y="40.77" width="9.43" height="3.54"/><rect class="cls-7" x="64.46" y="40.77" width="9.43" height="3.54"/><circle class="cls-2" cx="50.05" cy="24.17" r="17.93"/><path class="cls-4" d="M45.27,22.11a4.81,4.81,0,0,1,9.62,0"/><path class="cls-4" d="M53.24,21.89a3.16,3.16,0,0,1-6.32,0"/><path class="cls-4" d="M38.75,18.17a5,5,0,0,0-1.07-1.38c-.15-.12-.19-.22-.28-.29s-.13,0-.25,0-.21.16-.34.24a6.1,6.1,0,0,0-1.19,2.18,22.94,22.94,0,0,0-.76,2.71,23.89,23.89,0,0,1-.41-2.87,8,8,0,0,1,.31-3.18,7.54,7.54,0,0,1,.46-.89,3.83,3.83,0,0,1,.87-.83,3.7,3.7,0,0,1,2.45-.5,7.86,7.86,0,0,1,3.61,1.54l.35.25a2.5,2.5,0,0,1-2.89,4.08A2.58,2.58,0,0,1,38.75,18.17Z"/><path class="cls-4" d="M56.9,15.31a7.9,7.9,0,0,1,3.62-1.54,3.68,3.68,0,0,1,2.44.5,3.89,3.89,0,0,1,.88.83,8.4,8.4,0,0,1,.46.89,8.15,8.15,0,0,1,.31,3.18A26.08,26.08,0,0,1,64.2,22a25,25,0,0,0-.76-2.71,6.2,6.2,0,0,0-1.19-2.17c-.13-.09-.24-.19-.35-.25s-.18-.05-.24,0-.13.17-.28.29a5.06,5.06,0,0,0-1.08,1.38,2.5,2.5,0,1,1-3.75-3Z"/><circle class="cls-7" cx="41.21" cy="17.3" r="1.42"/><circle class="cls-7" cx="58.24" cy="17.3" r="1.42"/><rect class="cls-8" x="30.01" y="67.93" width="6.86" height="3.98"/><rect class="cls-8" x="38.42" y="89.59" width="9.5" height="3.98"/><rect class="cls-8" x="52.08" y="89.59" width="9.5" height="3.98"/><rect class="cls-8" x="62.59" y="67.93" width="6.86" height="3.98"/><rect class="cls-7" x="36.87" y="65.96" width="25.72" height="17.02"/><path class="cls-2" d="M49.47,83s4.06-4.57,3.61-8c0,0,4.65,5,4.2,8"/><polyline class="cls-9" points="36.87 64.38 36.87 67.93 62.59 67.93 62.59 60.77"/></svg>