<svg id="Layer_1" data-name="Layer 1" xmlns="http://www.w3.org/2000/svg" viewBox="0 0 100 100"><defs><style>.cls-1{fill:#ffc640;}.cls-2{fill:#09a582;}.cls-3{fill:#6ab8d9;}.cls-4{fill:#f05c38;}.cls-5{fill:#f37d3b;}</style></defs><title>rainbow serpent</title><path class="cls-1" d="M43.35,13.76a13.67,13.67,0,0,0-10.59.41c-6,2.57-8.83,0-8.83,0a7.5,7.5,0,0,0,3.21,3.4s-3.29,1.86-3.42,3.89c0,0,7.91-4.15,13.88-4,2.4,0,6.23-.7,5.5,1Z"/><path class="cls-2" d="M33.9,99.86c-14,0-27.73-10.19-33.13-25.52a13.49,13.49,0,0,1,18.4-16.72,27.06,27.06,0,0,1,0-17.55,27.49,27.49,0,0,1,21.14-18.2,13.49,13.49,0,0,1,0-13.81C45.05,0,53.92.87,58.18,1.29L60,1.46C66.13-.75,74.66-1,83.79,7.38l.23.21A35.85,35.85,0,0,1,97.13,23.85c4.55,11.38,3.67,22.53-2.49,31.39C86.17,67.43,72.41,68.52,68.39,68.56c-.9,0-2.18,0-3.71-.09A26.08,26.08,0,0,1,62.2,80.36c-3.28,7.3-10.69,16-21.64,18.7A28,28,0,0,1,33.9,99.86ZM45.11,48.69ZM63,28.41A25.76,25.76,0,0,1,68.86,36a22.75,22.75,0,0,1,1.87,5.11,3.67,3.67,0,0,0,1.75-1.23c1.13-1.64.09-4.72-.41-6a8.94,8.94,0,0,0-3.49-4.14,19.84,19.84,0,0,1-2.36-1.85A19.47,19.47,0,0,1,63,28.41Zm.51-6.58Zm20-14.6,0,0Z"/><path class="cls-3" d="M33.86,95.71C21.61,95.71,9.49,86.62,4.69,73a9.34,9.34,0,1,1,17.62-6.21c2.8,8,9.27,11,12.85,10.11,2.14-.52,4.06-2.42,5.29-4.25a22.83,22.83,0,0,1-10.93-6c-5.2-5.12-10-14.8-6.44-25.25A23.27,23.27,0,0,1,41.87,25.83c9.33-1.23,19.12,3.84,23.29,12a19.28,19.28,0,0,1,2,7.87c.36,0,.7,0,.94,0,.89,0,5.45-.22,7.74-3.51,2.09-3,1.17-7,0-9.89a13.09,13.09,0,0,0-5-6.06,19.52,19.52,0,0,1-2.54-2.07c-.31-.29-.77-.71-1.15-1-3.77,1.58-7.76,1.18-11.29.82l-1.34-.13a9.33,9.33,0,0,1-10.72-13.7C47.28,4.37,53.58,5,57.77,5.42c.82.09,2.09.22,2.88.24C71.11,1.37,78.5,8.16,81,10.44l.45.41A31.68,31.68,0,0,1,93.27,25.4c4,10,3.3,19.8-2,27.48C83.9,63.43,71.86,64.37,68.35,64.41a26,26,0,0,1-9.09-1.22c2,4.4,1.68,9.85-.85,15.47C55.53,85.06,49.07,92.72,39.58,95A24.17,24.17,0,0,1,33.86,95.71ZM44.75,44.32a3.55,3.55,0,0,0-.46,0,4.7,4.7,0,0,0-3.53,3.1c-.71,2.1.66,4.71,1.86,5.89.87.85,1.78,1.08,4.15,1.51a30.33,30.33,0,0,1,3.56.8,17.21,17.21,0,0,1-1.75-8,10,10,0,0,0-.07-1.31A4.76,4.76,0,0,0,44.75,44.32ZM59.88,19.75Zm0,0Zm0,0h0Zm0,0Zm0,0h0Zm21.28-9,0,0ZM59.55,6.14h0Z"/><path class="cls-4" d="M33.84,93.64c-11.38,0-22.68-8.55-27.2-21.36a7.27,7.27,0,1,1,13.71-4.83c2.94,8.35,10.29,12.66,15.3,11.44,3.91-1,6.94-5.06,7.94-7.74a22.45,22.45,0,0,1-12.61-6c-5.15-5.06-9-14.17-5.93-23.1a21.18,21.18,0,0,1,17.09-14.2A21.28,21.28,0,0,1,63.31,38.8a18.23,18.23,0,0,1,1.87,8.5c0,.13,0,.26,0,.4a21.91,21.91,0,0,0,3,.1c1.51,0,6.63-.38,9.42-4.4,2.62-3.77,1.59-8.52.26-11.84a15.16,15.16,0,0,0-5.83-7,17.81,17.81,0,0,1-2.27-1.87c-2.15-2-2.31-1.89-3.08-1.53-3.24,1.55-7,1.17-10.56.81-.54-.06-1.24-.13-1.8-.17a7.27,7.27,0,0,1-8.69-10.55c2.77-4.66,7.85-4.15,11.94-3.74,1,.1,2.67.27,3.5.24C70.51,3.65,77.31,9.89,79.58,12c.22.2.41.39.59.54A29.73,29.73,0,0,1,91.35,26.17c3.74,9.37,3.1,18.44-1.82,25.52-6.77,9.74-17.94,10.61-21.2,10.65-2.9,0-9.68.1-14.29-5a13.77,13.77,0,0,1-3.38-9.74,5,5,0,0,0-.3-2.22A6.79,6.79,0,0,0,44,42.29a6.79,6.79,0,0,0-5.22,4.49c-1.07,3.14.83,6.53,2.37,8,1.34,1.32,2.71,1.62,5.23,2.07,3,.54,8,1.43,10.63,6.46,2.09,3.95,1.91,9.09-.51,14.46-2.68,6-8.67,13.07-17.43,15.2A22.3,22.3,0,0,1,33.84,93.64ZM60.44,8h0Z"/><path class="cls-5" d="M33.81,90.53c-10.09,0-20.16-7.73-24.23-19.29a4.15,4.15,0,0,1,7.83-2.76c3.62,10.27,12.67,15,19,13.44,4.47-1.09,8.1-5.2,9.72-8.8,1.1-2.45,1-4,.82-4.43a16.39,16.39,0,0,0-2.55-.56c-2.91-.53-7.3-1.32-11.22-5.17C28.71,58.58,25.38,50.74,28,43.09a17.75,17.75,0,0,1,32.54-2.88,15.34,15.34,0,0,1,1.54,7.16c0,1.72.11,2,.43,2.32,1.16,1.28,4,1.24,5.7,1.23,1.89,0,8.3-.49,12-5.74,3.41-4.91,2.21-10.75.59-14.78a18.32,18.32,0,0,0-7-8.46,15.77,15.77,0,0,1-1.89-1.56c-2.51-2.31-4-3.26-6.52-2.05s-5.74.84-8.91.52c-.82-.08-2-.2-2.65-.21a4.16,4.16,0,0,1-5.47-5.82c1.75-3,5.25-2.61,9-2.23a22.81,22.81,0,0,0,4.67.18c7.73-3.69,13.21,1.34,15.55,3.49a10.07,10.07,0,0,0,.87.77A26.51,26.51,0,0,1,88.45,27.32c3.35,8.37,2.83,16.4-1.48,22.59-5.92,8.52-15.79,9.28-18.68,9.31-2.69,0-8.28.09-11.94-4-2.48-2.73-2.54-5.61-2.58-7.72A7.43,7.43,0,0,0,53.13,44a9.75,9.75,0,0,0-9.51-4.77,9.86,9.86,0,0,0-7.77,6.56C34.41,50,36.47,54.57,39,57c2.09,2.05,4.41,2.47,6.87,2.91,2.88.52,6.47,1.17,8.43,4.86,1.63,3.08,1.41,7.24-.6,11.72C51.41,81.57,46,88.12,38.35,90A18.92,18.92,0,0,1,33.81,90.53Z"/><path class="cls-1" d="M33.87,87.4a18.78,18.78,0,0,1-2.58-.19,1,1,0,0,1,.31-2.06,14.23,14.23,0,0,0,5.53-.21l.34-.09a1,1,0,0,1,.57,2l-.43.11A16,16,0,0,1,33.87,87.4Zm-8.43-2.18A1,1,0,0,1,25,85.1a24.17,24.17,0,0,1-5.39-3.87A1,1,0,1,1,21,79.73a22.24,22.24,0,0,0,4.92,3.53,1,1,0,0,1-.48,2ZM43.4,84a1,1,0,0,1-.63-1.86A20.84,20.84,0,0,0,47,77.83,1,1,0,1,1,48.64,79,22.34,22.34,0,0,1,44,83.82,1,1,0,0,1,43.4,84ZM16.26,76.61a1,1,0,0,1-.87-.48,28.68,28.68,0,0,1-2.87-5.92,1,1,0,1,1,2-.69A26.62,26.62,0,0,0,17.14,75a1,1,0,0,1-.88,1.59Zm34.41-2.79a1.06,1.06,0,0,1-1-1.34,10.39,10.39,0,0,0,.5-3,4.77,4.77,0,0,0-.48-2.25,1.12,1.12,0,0,1,.36-1.47,1,1,0,0,1,1.36.3l.12.21a6.85,6.85,0,0,1,.71,3.21,12.42,12.42,0,0,1-.58,3.6A1,1,0,0,1,50.67,73.82ZM45,65.05l-.18,0a19.79,19.79,0,0,1-6.36-2,1,1,0,1,1,1-1.81A18.2,18.2,0,0,0,45.14,63,1,1,0,0,1,45,65.05ZM34.26,58.9a1,1,0,0,1-.84-.44,17.91,17.91,0,0,1-2.8-6.11,1,1,0,0,1,.77-1.25,1.05,1.05,0,0,1,1.25.77,16,16,0,0,0,2.47,5.39,1,1,0,0,1-.25,1.45A1,1,0,0,1,34.26,58.9Zm33.1-2.79c-.56,0-1.18,0-1.82-.06a1,1,0,0,1-1-1.11,1,1,0,0,1,1.11-1c.63.05,1.23.06,1.77.06h.77a20,20,0,0,0,3.53-.36,1,1,0,1,1,.39,2,23.08,23.08,0,0,1-3.9.4h-.9Zm-7.58-2.24a1,1,0,0,1-.7-.27,4.26,4.26,0,0,1-.42-.43c-1.7-1.87-1.74-3.81-1.78-5.69V47a1,1,0,0,1,1-1.06A1.1,1.1,0,0,1,59,47v.47c0,1.77.06,3,1.24,4.35a3.83,3.83,0,0,0,.28.29,1,1,0,0,1,.06,1.46A1,1,0,0,1,59.78,53.87Zm18.16-.25a1,1,0,0,1-.5-1.95A15.39,15.39,0,0,0,82,47.89a1,1,0,0,1,1.46-.15,1,1,0,0,1,.15,1.46,17.52,17.52,0,0,1-5.17,4.29A1,1,0,0,1,77.94,53.62Zm-46.4-6.78-.23,0a1,1,0,0,1-.79-1.24,13.06,13.06,0,0,1,.42-1.48,15.65,15.65,0,0,1,2.55-4.62,1,1,0,0,1,1.62,1.31,13.46,13.46,0,0,0-2.21,4A11.84,11.84,0,0,0,32.55,46,1,1,0,0,1,31.54,46.84ZM85.77,44a1.54,1.54,0,0,1-.3,0,1.05,1.05,0,0,1-.7-1.3,16.43,16.43,0,0,0,.67-4.75c0-.4,0-.79,0-1.18a1,1,0,0,1,1-1.1,1,1,0,0,1,1.1,1c0,.43,0,.87,0,1.31a18.5,18.5,0,0,1-.76,5.35A1,1,0,0,1,85.77,44Zm-29.6-2a1,1,0,0,1-.86-.46A12.77,12.77,0,0,0,51,37.67a1,1,0,0,1-.4-1.41A1,1,0,0,1,52,35.85,14.63,14.63,0,0,1,57,40.4a1,1,0,0,1-.28,1.44A1,1,0,0,1,56.17,42ZM39.24,37.26a1,1,0,0,1-.44-2,14.08,14.08,0,0,1,4.14-1.22,13.57,13.57,0,0,1,2.54-.1A1,1,0,1,1,45.37,36a13.11,13.11,0,0,0-2.16.09,11.94,11.94,0,0,0-3.53,1A1.13,1.13,0,0,1,39.24,37.26Zm45.95-5.77a1,1,0,0,1-1-.71c-.24-.69-.45-1.21-.58-1.53a19.64,19.64,0,0,0-2.08-3.92,1,1,0,1,1,1.72-1.17,22.35,22.35,0,0,1,2.29,4.32c.14.34.36.9.61,1.63a1,1,0,0,1-.65,1.32A1,1,0,0,1,85.19,31.49Zm-7-10.4a1.06,1.06,0,0,1-.67-.24,19.32,19.32,0,0,0-2-1.5A14.35,14.35,0,0,1,74,18.08c-.42-.39-.88-.81-1.4-1.24a1,1,0,1,1,1.31-1.6c.56.44,1,.9,1.5,1.31a12.37,12.37,0,0,0,1.25,1.07,25.36,25.36,0,0,1,2.2,1.63,1,1,0,0,1-.66,1.84ZM61.29,16a1,1,0,0,1-1-1,1,1,0,0,1,1-1.06,5.17,5.17,0,0,0,1.85-.31,9.89,9.89,0,0,1,4.27-1,1.07,1.07,0,0,1,1.08,1,1,1,0,0,1-1,1h-.07a7.78,7.78,0,0,0-3.38.83,6.74,6.74,0,0,1-2.68.51ZM51.87,16A1,1,0,0,1,51,14.41c.51-.85,1.61-1,2.63-1,.42,0,.9,0,1.41.06a1,1,0,0,1,1,1.11,1.07,1.07,0,0,1-1.12,1,9.26,9.26,0,0,0-2.19,0A1,1,0,0,1,51.87,16Z"/><circle class="cls-3" cx="51.71" cy="10.66" r="1.39"/><circle class="cls-3" cx="51.71" cy="18.58" r="1.39"/></svg>