<svg id="Layer_1" data-name="Layer 1" xmlns="http://www.w3.org/2000/svg" viewBox="0 0 100 100"><defs><style>.cls-1{fill:#fcca98;}.cls-2{fill:#7b5550;}.cls-3{fill:#885e59;}.cls-4{fill:#f37d3b;}.cls-5{fill:#ffc540;}.cls-6{fill:#bdbfc1;}.cls-7{fill:#3e3e3f;}.cls-8{fill:#f48d80;}.cls-9{fill:#fff;}.cls-10{fill:#c5c7c9;}.cls-11{fill:#ffc640;}.cls-12{fill:#e1b589;}.cls-13{fill:#231f20;}</style></defs><title>roc</title><path class="cls-1" d="M59.05,78.62a1,1,0,0,1-.69-.27L54.11,74.5l5.16-5.67a1,1,0,0,1,1.52,1.39L57,74.36l2.72,2.47a1,1,0,0,1,.07,1.45A1,1,0,0,1,59.05,78.62Z"/><path class="cls-1" d="M60.14,82.08a1,1,0,0,1-.65-.24,1,1,0,0,1-.15-1.45l3.79-4.64L59.4,70.36a1,1,0,0,1,.25-1.43,1,1,0,0,1,1.44.26l4.62,6.66L60.93,81.7A1,1,0,0,1,60.14,82.08Z"/><path class="cls-1" d="M67.31,81.36a1,1,0,0,1-1-.82L65.18,75l-4-4.32a1,1,0,0,1,0-1.45,1,1,0,0,1,1.46,0L67.08,74l1.24,6.15a1,1,0,0,1-.8,1.21A.75.75,0,0,1,67.31,81.36Z"/><path class="cls-1" d="M61.87,77.7a1,1,0,0,1-.44-.1L56.09,75l-5.55-.11a1,1,0,0,1-1-1.05,1.06,1.06,0,0,1,1-1l6.2.21,5.54,2.66a1,1,0,0,1,.48,1.38A1,1,0,0,1,61.87,77.7Z"/><path class="cls-1" d="M53.71,84.05h-.08l-5.72-.49.67-7.63A1.06,1.06,0,0,1,49.69,75a1,1,0,0,1,.94,1.12l-.49,5.57L53.8,82a1,1,0,0,1,.94,1.11A1,1,0,0,1,53.71,84.05Z"/><path class="cls-1" d="M61.44,72.73a2,2,0,0,1-1.21-.39L49.31,64.43l4-12.24a2.06,2.06,0,1,1,3.91,1.29l-3.1,9.38L62.65,69a2.06,2.06,0,0,1-1.21,3.72Z"/><rect class="cls-2" x="47.42" y="57.59" width="7.85" height="9.78" rx="3.92" ry="3.92"/><path class="cls-1" d="M50.56,77.52a2,2,0,0,1-1.21-.4L38.43,69.21l4-12.24a2.06,2.06,0,0,1,3.9,1.3l-3.1,9.37,8.49,6.15a2.06,2.06,0,0,1-1.21,3.73Z"/><path class="cls-3" d="M25.73,53.26,0,65s3.18,9.09,22.33,3.25l7.72-9.77"/><path class="cls-2" d="M43.48,9.68C22.61,14.9,17.8,9.31,17.8,9.31s-1.24,3.1,3.39,8c2.53,2.66,6.8,5.85,14,9.35,10,4.88,14.64,7.42,16.78,8.75s1.74,1.46,1.74,1.46,5.26.92,4.77-3.71C58.48,33.13,64.35,4.46,43.48,9.68Z"/><ellipse class="cls-2" cx="47.09" cy="47.17" rx="28.03" ry="15.87" transform="translate(-18.14 33.49) rotate(-33.2)"/><path class="cls-3" d="M74.67,43.68a11.34,11.34,0,0,1-12.42-19c5.2-3.41,25-10.32,28.41-5.08S79.87,40.27,74.67,43.68Z"/><circle class="cls-4" cx="81.76" cy="20.43" r="1.05" transform="translate(27.61 85.01) rotate(-64.05)"/><path class="cls-5" d="M99.89,28s-.58-2.18-8.38-1.16a3.58,3.58,0,0,1-.92-7.11C101.71,18.3,99.89,28,99.89,28Z"/><path class="cls-5" d="M97.71,28.57s-1.17,1.48-6.78-1.91a3,3,0,0,0-3.09,5.12C95.85,36.61,97.71,28.57,97.71,28.57Z"/><path class="cls-3" d="M68,44.64a2.64,2.64,0,0,1-2.16,0,11.05,11.05,0,0,0,1.81,7A7.67,7.67,0,0,0,68,44.64Z"/><path class="cls-3" d="M65.88,44.67a9.18,9.18,0,0,1-3.24-1.89,22.2,22.2,0,0,0-1.86,7.1A16.23,16.23,0,0,0,65.88,44.67Z"/><path class="cls-3" d="M62.64,42.78a15.55,15.55,0,0,1-2.78-3.19A29.14,29.14,0,0,0,56,45.81,26.78,26.78,0,0,0,62.64,42.78Z"/><path class="cls-3" d="M59.86,39.59a15.14,15.14,0,0,1-1.81-3.82,26.23,26.23,0,0,0-5.43,4.92A29.73,29.73,0,0,0,59.86,39.59Z"/><path class="cls-3" d="M58.05,35.77A9.34,9.34,0,0,1,57.61,32a16.38,16.38,0,0,0-6.8,2.61A22.32,22.32,0,0,0,58.05,35.77Z"/><path class="cls-3" d="M57.61,32a2.66,2.66,0,0,1,.89-2,7.66,7.66,0,0,0-6.62-2.5A11,11,0,0,0,57.61,32Z"/><path class="cls-3" d="M58.5,30.06a2.64,2.64,0,0,1,2.16,0,11.05,11.05,0,0,0-1.81-7A7.7,7.7,0,0,0,58.5,30.06Z"/><path class="cls-3" d="M68.93,42.67a2.66,2.66,0,0,1-.89,2,7.68,7.68,0,0,0,6.63,2.5A11,11,0,0,0,68.93,42.67Z"/><path class="cls-2" d="M34.1,26.61C28.39,19,17.41,30.73,7.65,29.29c3.15,1.89,8.12,3.81,16,5.25,11,2,16.1,3.21,18.52,3.92C42.28,33.9,38.2,29.35,34.1,26.61Z"/><path class="cls-3" d="M47.83,34.54S45.77,5.35,27.07,16,2.24,22.53,2.24,22.53s-.36,3.32,5.41,6.76C17.41,30.73,28.39,19,34.1,26.61c4.1,2.74,8.18,7.29,8.06,11.85,2.5.73,2.07.93,2.07.93S49.54,38.86,47.83,34.54Z"/><rect class="cls-3" x="13.78" y="24.43" width="3.86" height="6.81" rx="1.93" ry="1.93"/><rect class="cls-3" x="17.12" y="23.12" width="3.86" height="6.81" rx="1.93" ry="1.93"/><rect class="cls-3" x="20.4" y="21.31" width="3.86" height="6.81" rx="1.93" ry="1.93"/><rect class="cls-3" x="24.26" y="20.62" width="3.86" height="6.81" rx="1.93" ry="1.93"/><rect class="cls-3" x="28.12" y="19.71" width="3.86" height="6.81" rx="1.93" ry="1.93"/><rect class="cls-3" x="31.4" y="21.77" width="3.86" height="6.81" rx="1.93" ry="1.93"/><rect class="cls-3" x="33.33" y="24.02" width="3.86" height="6.81" rx="1.93" ry="1.93"/><rect class="cls-3" x="36.55" y="27.08" width="3.86" height="6.81" rx="1.93" ry="1.93"/><rect class="cls-3" x="38.93" y="30.84" width="3.86" height="6.81" rx="1.93" ry="1.93"/><rect class="cls-3" x="9.91" y="24.02" width="3.86" height="6.81" rx="1.93" ry="1.93"/><rect class="cls-2" x="36.55" y="62.38" width="7.85" height="9.78" rx="3.92" ry="3.92"/><path class="cls-6" d="M52.24,86.67c-.48-3.8-.4-6.16.22-6.83a.48.48,0,0,1,.37-.18l0,.22,0,.22s-.93.41-.16,6.51Z"/><path class="cls-7" d="M53.09,86.74c0,.34-.07,1.61-.41,1.66s-.76-1.17-.81-1.5a.62.62,0,0,1,1.22-.16Z"/><path class="cls-6" d="M58.29,87.81a.52.52,0,1,0-1,.13l.28,2.2,1-.13Z"/><path class="cls-7" d="M57.54,90.14v.08a.51.51,0,0,0,.58.45.52.52,0,0,0,.45-.58V90Z"/><path class="cls-6" d="M67.1,86.69a.53.53,0,0,0-.58-.45.52.52,0,0,0-.45.58L66.34,89l1-.13Z"/><path class="cls-7" d="M66.34,89v.08a.52.52,0,0,0,1-.13V88.9Z"/><rect class="cls-8" x="58.48" y="87.33" width="3.3" height="1.84" rx="0.92" ry="0.92" transform="translate(-10.58 8.23) rotate(-7.2)"/><rect class="cls-8" x="59.08" y="88.91" width="0.5" height="0.75" rx="0.25" ry="0.25" transform="translate(-10.72 8.13) rotate(-7.2)"/><rect class="cls-8" x="59.69" y="88.83" width="0.5" height="0.75" rx="0.25" ry="0.25" transform="translate(-10.7 8.21) rotate(-7.19)"/><rect class="cls-8" x="60.3" y="88.75" width="0.5" height="0.75" rx="0.25" ry="0.25" transform="translate(-10.69 8.29) rotate(-7.2)"/><rect class="cls-8" x="60.91" y="88.68" width="0.5" height="0.75" rx="0.25" ry="0.25" transform="matrix(0.99, -0.13, 0.13, 0.99, -10.67, 8.36)"/><rect class="cls-9" x="52.69" y="76.48" width="15.65" height="11.59" rx="3.26" ry="3.26" transform="translate(-9.83 8.23) rotate(-7.2)"/><path class="cls-7" d="M56.43,78.89c-.71.63-1.45.58-1.52,1s.55.54.66,1.15c.17.88-.85,1.44-.62,2s.91.57,1.47.37c.91-.34.77-1.57,2-2.45.37-.27.66-.16.94-.48a1.45,1.45,0,0,0,.3-1.52c-.31-.55-1-.31-1.48-.94s-.27-1.14-.47-1.17S57.39,78.05,56.43,78.89Z"/><path class="cls-7" d="M61.49,83.07c-.3.22-1-.65-1.6-.42a.79.79,0,0,0-.52.82c.17.48,1.35.16,1.83.87.23.34.07.6.32.77s1.12,0,1.54-.47A1.67,1.67,0,0,0,63.41,83c-.21-.49-.67-.58-.65-.93s.62-.49.58-.71-1-.56-1.48-.16a1.47,1.47,0,0,0-.28.88C61.49,82.72,61.63,83,61.49,83.07Z"/><path class="cls-7" d="M54.69,84.53c.45-.55.77-.93,1.1-.87s.55.5.61.63c.16.3.1.4.24.53s.63,0,.9.22a.75.75,0,0,1,.14.86c-.17.27-.5.15-1.19.4s-.6.42-1,.49c-.61.12-1.47-.18-1.63-.72C53.74,85.7,54.06,85.31,54.69,84.53Z"/><path class="cls-7" d="M53.68,79a2,2,0,0,0,1.2-.49c.3-.23.26-.3.48-.43.45-.26.88-.11,1.42-.09s1.43,0,1.62-.32-.07-.59-.29-.89l-2.85.36a3.23,3.23,0,0,0-2.34,1.49A1.24,1.24,0,0,0,53.68,79Z"/><path class="cls-7" d="M64.32,76l-2.74.35a.72.72,0,0,1,0,.54c-.17.34-.54.34-.61.66a.94.94,0,0,0,.46.84c.43.28.58.59,1,.86s-1.58,1-1.39,1.56c.13.38,2.24-.56,2.37-.44a1,1,0,0,0,1.11.07c.24-.12.35.54.52.51.36-.06.67-.4.9,0s-.39.85-.25.93,1.55,3.38,2.07,3.09c.33-.17.23-4.29.5-4.32L68,78.78A3.28,3.28,0,0,0,64.32,76Z"/><path class="cls-9" d="M68.22,73.78a.48.48,0,0,0,.52.4c.26,0,1-.33,1-.59s-.82-.36-1.07-.33A.46.46,0,0,0,68.22,73.78Z"/><path class="cls-10" d="M68.25,73.78a.3.3,0,0,0,.33.26c.17,0,.64-.22.62-.38s-.53-.24-.69-.22A.3.3,0,0,0,68.25,73.78Z"/><rect class="cls-9" x="62.84" y="74.59" width="8.82" height="4.91" rx="2.46" ry="2.46" transform="translate(-9.12 9.03) rotate(-7.2)"/><path class="cls-11" d="M68.19,72.48a.42.42,0,0,0,.28,0,.55.55,0,0,0,.29-.2,1.61,1.61,0,0,0,.32-.88,1.91,1.91,0,0,1,.07,1.07,1.11,1.11,0,0,1-.33.54,1.14,1.14,0,0,1-.65.31l-.29,0a.54.54,0,0,1-.16-1.07A.54.54,0,0,1,68.19,72.48Z"/><rect class="cls-9" x="63.92" y="72.42" width="5.04" height="3.93" rx="1.29" ry="1.29" transform="translate(-8.79 8.91) rotate(-7.2)"/><path class="cls-1" d="M72.51,76.08a2.45,2.45,0,0,1-4.86.61c-.17-1.34.89-1.68,2.24-1.85S72.34,74.74,72.51,76.08Z"/><rect class="cls-12" x="67.5" y="76.23" width="5.4" height="0.64" rx="0.32" ry="0.32" transform="translate(-9.03 9.4) rotate(-7.2)"/><rect class="cls-12" x="67.58" y="76.86" width="5.4" height="0.64" rx="0.32" ry="0.32" transform="translate(-9.11 9.41) rotate(-7.2)"/><circle class="cls-1" cx="71.43" cy="74.94" r="0.69"/><ellipse class="cls-12" cx="71.74" cy="74.9" rx="0.3" ry="0.45" transform="translate(-8.82 9.58) rotate(-7.2)"/><circle class="cls-1" cx="69.7" cy="75.16" r="0.69"/><ellipse class="cls-12" cx="69.83" cy="75.14" rx="0.3" ry="0.45" transform="translate(-8.86 9.34) rotate(-7.2)"/><path class="cls-9" d="M64.85,72.85s.7-.46.67-.79l.8-.1L66.45,73"/><path class="cls-9" d="M67.7,72.49s-.79-.27-.85-.6l-.8.1.14,1.07"/><path class="cls-11" d="M64,73.86a1.18,1.18,0,0,1-.71-.14,1.14,1.14,0,0,1-.45-.45,1.79,1.79,0,0,1-.19-1,1.67,1.67,0,0,0,.52.77.51.51,0,0,0,.34.11.34.34,0,0,0,.26-.08.55.55,0,0,1,.73-.21.54.54,0,0,1-.2,1Z"/><path class="cls-9" d="M64.14,74.29a.46.46,0,0,1-.4.52c-.26,0-1-.07-1.07-.33s.7-.56.95-.59A.46.46,0,0,1,64.14,74.29Z"/><path class="cls-10" d="M64.12,74.3a.32.32,0,0,1-.26.34c-.17,0-.68-.06-.7-.22s.45-.36.62-.38A.29.29,0,0,1,64.12,74.3Z"/><path class="cls-9" d="M56.1,88.08a.52.52,0,0,0-1,.13l.28,2.21,1-.13Z"/><path class="cls-7" d="M55.34,90.42v.08a.52.52,0,0,0,.58.45.52.52,0,0,0,.45-.58v-.08Z"/><path class="cls-9" d="M64.9,87a.52.52,0,0,0-.58-.45.52.52,0,0,0-.45.58l.28,2.21,1-.13Z"/><path class="cls-7" d="M64.15,89.31v.08a.52.52,0,1,0,1-.13v-.08Z"/><path class="cls-9" d="M68.51,79.09c0,.18-.25,3.59-1.09,3.7s-2-3.13-2-3.31.64-.42,1.49-.53S68.49,78.91,68.51,79.09Z"/><path class="cls-7" d="M66.13,74.42c.07.54-.42,2-1,2.07s-.91-1.29-1-1.82A1,1,0,0,1,65,73.58,1,1,0,0,1,66.13,74.42Z"/><circle class="cls-9" cx="65.07" cy="74.43" r="0.49"/><circle class="cls-13" cx="65.04" cy="74.35" r="0.23"/><path class="cls-1" d="M56.67,86.14h0a1,1,0,0,1-1-1.06l.2-6-6.23-2a1,1,0,1,1,.63-2L58,77.6l-.25,7.55A1,1,0,0,1,56.67,86.14Z"/><path class="cls-1" d="M62,81.22a1,1,0,0,1-.68-.25L57,77.22l-5.83-1a1,1,0,0,1,.35-2l6.4,1.08,4.71,4.14a1,1,0,0,1-.68,1.8Z"/></svg>