<svg id="Layer_1" data-name="Layer 1" xmlns="http://www.w3.org/2000/svg" viewBox="0 0 100 100"><defs><style>.cls-1{fill:#f37d3b;}.cls-2{fill:#f05638;}.cls-3{fill:#231f20;}.cls-4{fill:#ffc640;}.cls-5{fill:#faad3f;}</style></defs><title>salamander</title><path class="cls-1" d="M47,33l-4.93,0c0-2,.07-7.91,4.23-9.6,4.44-1.79,9.58,3.12,10.57,4.12l-3.52,3.46c-1.82-1.84-4.41-3.33-5.2-3C47.8,28,47,29.2,47,33Z"/><circle class="cls-1" cx="41.1" cy="33.41" r="1.9"/><circle class="cls-1" cx="44.49" cy="33.41" r="1.9"/><circle class="cls-1" cx="47.88" cy="33.41" r="1.9"/><path class="cls-1" d="M39.65,53.8l-5.91-.06c0-2.26.1-9.12,5-11.19,5.37-2.25,11.75,3.52,13,4.7l-4.09,4.26c-2.11-2-5.45-4-6.6-3.52C40.58,48.19,39.69,49.66,39.65,53.8Z"/><ellipse class="cls-1" cx="32.79" cy="54.27" rx="2.33" ry="2.21"/><ellipse class="cls-1" cx="36.96" cy="54.27" rx="2.33" ry="2.21"/><ellipse class="cls-1" cx="41.12" cy="54.27" rx="2.33" ry="2.21"/><path class="cls-1" d="M87.27,1.6s-.39.08-1.16.29A28.25,28.25,0,0,0,82.86,3a33.5,33.5,0,0,0-10,6.33A29.56,29.56,0,0,0,64.58,22.8a42.9,42.9,0,0,0-1.53,8.81c-.14,1.52-.14,3.1-.13,4.67L63,38.64l0,2.85v.66L63,43l-.11,1.63c0,1.11-.21,2.14-.34,3.18A23.22,23.22,0,0,1,62,50.91a22.47,22.47,0,0,1-.82,3.15,27,27,0,0,1-6.77,11.4,26.22,26.22,0,0,1-10.52,6.2,32.65,32.65,0,0,1-10,1.56A34.92,34.92,0,0,1,20,70.4a23.36,23.36,0,0,1-4.73-2.6.89.89,0,0,1-.15-1.26.87.87,0,0,1,.42-.29h0l1.28-.42,3.53-1.12L25.51,63c1.92-.67,4-1.46,6.13-2.35a47.3,47.3,0,0,0,6.18-3.16,37.6,37.6,0,0,0,5.25-4,24.9,24.9,0,0,0,4.54-5.15,10.68,10.68,0,0,0,1-1.7,12.82,12.82,0,0,0,.81-1.88A13.27,13.27,0,0,0,50,42.81l.25-1,.14-.49.09-.65.18-1.3.09-.65,0-.32,0-.16v-.13c0,.44,0,.1,0,.18l.34-2.85a56.86,56.86,0,0,1,1-5.63,44.68,44.68,0,0,1,3.85-10.6,37.07,37.07,0,0,1,6.09-8.66,34.25,34.25,0,0,1,7.31-5.83A34.84,34.84,0,0,1,82.14.32a27.25,27.25,0,0,1,5-.3h0a.78.78,0,0,1,.73.85A.79.79,0,0,1,87.27,1.6Z"/><path class="cls-2" d="M46.83,79.3c-4.39,7.14-17.57,15.59-24.71,11.19S14.75,70.68,21,63.38c9.79-11.5,23.38-12.63,30.53-8.24S51.23,72.16,46.83,79.3Z"/><polygon class="cls-2" points="24.12 81.52 12.08 95.15 17.27 94.81 17.58 100 29.61 86.36 24.12 81.52"/><path class="cls-1" d="M43.84,79.39c-6.06,6.25-21.31,11.85-27.56,5.79s-3-21.73,4.91-27.73C33.68,48,47.72,49.88,54,55.94S49.9,73.13,43.84,79.39Z"/><path class="cls-1" d="M69.18,58.48c-.05-5.22-1.16-6.8-1.59-7-1.1-.45-4.65,1.6-7.16,4.14L55.6,50.88C57,49.5,64,42.73,70.14,45.21,75.87,47.52,76,55.72,76,58.41Z"/><path class="cls-1" d="M69.34,36.44c0-4.24-.94-5.53-1.29-5.67-.88-.39-3.78,1.3-5.83,3.36l-3.93-3.88c1.1-1.12,6.86-6.61,11.83-4.61,4.66,1.89,4.73,8.56,4.75,10.75Z"/><circle class="cls-1" cx="68.31" cy="36.72" r="2.12"/><circle class="cls-1" cx="72.11" cy="36.72" r="2.12"/><circle class="cls-1" cx="75.91" cy="36.72" r="2.12"/><circle class="cls-1" cx="67.91" cy="58.44" r="2.61"/><circle class="cls-1" cx="72.58" cy="58.44" r="2.61"/><circle class="cls-1" cx="77.25" cy="58.44" r="2.61"/><circle class="cls-2" cx="37.55" cy="70.36" r="3.64"/><circle class="cls-3" cx="37.55" cy="69.68" r="1.61"/><circle class="cls-2" cx="18.53" cy="67.34" r="3.64"/><circle class="cls-3" cx="18.53" cy="66.66" r="1.61"/><circle class="cls-2" cx="60.63" cy="31.95" r="1.05"/><circle class="cls-2" cx="47.86" cy="65.79" r="1.55"/><circle class="cls-2" cx="53.95" cy="39.51" r="1.55"/><circle class="cls-2" cx="53.95" cy="58.5" r="0.51"/><circle class="cls-2" cx="71.33" cy="4.58" r="0.51"/><path class="cls-4" d="M34.76,44.46s1,2.9-6.73,4.82l4.06,2.55.27.17C37.12,49.43,34.76,44.46,34.76,44.46Z"/><path class="cls-5" d="M24.44,51.21c.33.76,2.38.61,4.59-.35a7.67,7.67,0,0,0,3.42-3c-5.91-.23-5.67-2.15-5.67-2.15S24.11,50.44,24.44,51.21Z"/><path class="cls-1" d="M26.22,45a.64.64,0,0,1-.64.64.64.64,0,0,1-.64-.64,4.23,4.23,0,0,1,.64-1.29A4.23,4.23,0,0,1,26.22,45Z"/><path class="cls-1" d="M24.94,50a.36.36,0,0,1-.36.36.36.36,0,0,1-.36-.36,2.45,2.45,0,0,1,.36-.73A2.45,2.45,0,0,1,24.94,50Z"/><path class="cls-5" d="M36.92,49.07a1,1,0,0,1-2,0,6.81,6.81,0,0,1,1-2A6.84,6.84,0,0,1,36.92,49.07Z"/><path class="cls-5" d="M33.08,44.18a.46.46,0,0,1-.92,0,3.09,3.09,0,0,1,.46-.92A3.09,3.09,0,0,1,33.08,44.18Z"/><path class="cls-4" d="M32.55,48.86s2.41,1.91-3.13,7.67h5.11C37.2,51.82,32.55,48.86,32.55,48.86Z"/><path class="cls-4" d="M36.62,52.36a6.32,6.32,0,0,1-12.63,0c0-2.84,2.07-2.88,3.79-4.91A7.56,7.56,0,0,0,29.38,42S36.62,48.87,36.62,52.36Z"/><path class="cls-4" d="M30.3,54.71a1.17,1.17,0,1,1-2.33,0,8,8,0,0,1,1.16-2.36A8,8,0,0,1,30.3,54.71Z"/><path class="cls-4" d="M27.11,52.56a.59.59,0,1,1-1.17,0,4,4,0,0,1,.59-1.18A4,4,0,0,1,27.11,52.56Z"/><path class="cls-4" d="M45,41.64c.38.17,1.37,3-6.06,4.44.9-.52,3.69,2.49,4.07,2.61-.82-1,0,.15-.64-.44C46.34,46.42,44.93,42.29,45,41.64Z"/><path class="cls-5" d="M36.92,47.41c.32.89,1,.23,3.24-.48,1.22-.15,2.43-2.41,2.55-2.13-4.3-.48-4.3-1.79-4.6-2C38.7,43.34,35.79,47.45,36.92,47.41Z"/><path class="cls-1" d="M37.83,42.56s-.36.45-.65.45-.43-.29-.54-.45c.06-.41.61-1.35.56-1.14C37.32,41.42,37.72,42.25,37.83,42.56Z"/><path class="cls-1" d="M36.7,46.63c.08.11-.1.15-.24.31a1.67,1.67,0,0,1-.37-.43,4,4,0,0,0,.35-.64C36.45,46,36.76,46.45,36.7,46.63Z"/><path class="cls-5" d="M46.72,45.79c-.08.64-.43,1-1,.93s-.78-.47-.58-1.09c-.26-.47.53-1.65.77-1.54C45.86,44.12,46.77,45.58,46.72,45.79Z"/><path class="cls-5" d="M43.46,41.82a.32.32,0,0,1-.36.23.29.29,0,0,1-.38-.23c.08-.34.39-.79.38-1A2.66,2.66,0,0,1,43.46,41.82Z"/><path class="cls-4" d="M42.9,46c0-.67,2,1.52-2.4,5.53.41.15,3.62.94,4.3.71-.61-.72.25.22,0-.63C46.72,47.78,43.17,45.27,42.9,46Z"/><path class="cls-4" d="M46.73,49c.34,2.51-2,5.86-4.54,3.84-4.11-.12-7.23-2-5.57-3.43-1.28-2.07,1.56-4.12,3.44-3.82,1.68-3.24.37-6.45,1-5.31C40.4,39,46.15,44.89,46.73,49Z"/><path class="cls-4" d="M41.16,50.42c.05.87-.29,1-.84.88-.55.41-1.16,0-1.26-.83a6,6,0,0,1,1.28-2.1C40.33,48.7,41.09,49.79,41.16,50.42Z"/><path class="cls-4" d="M38.55,48.65c-.06.38-.21.42-.48.58s-.45-.26-.57-.56c.06-.3.51-.83.46-.82C38,47.68,38.47,48.35,38.55,48.65Z"/><path class="cls-4" d="M53.48,38.65c1.46.61,2.8,4.6-7.32,5.52,3.4-1.86,4.55,3.45,6,3.88-3.11-3.69-.56.16-3.07-1.93C53.18,45.07,53.34,41,53.48,38.65Z"/><path class="cls-5" d="M47,45.78c.46,1.56-1.55-.49,1.61-1-.51,1.51,1.14-2.09,1.71-1.08A22.74,22.74,0,0,1,46,41.18C48.28,43.12,43.45,47.58,47,45.78Z"/><path class="cls-1" d="M46.28,40.7c-.14-.57-.72.24-1,.24s-.14-.41-.57-.24c.23-.71.83-2.06.62-1.28C45.82,39.41,45.85,40.37,46.28,40.7Z"/><path class="cls-1" d="M44.94,44.67c.31,0,0-.25-.07.35-.16-.56-.34-.77-.55-.79.32.19.32-.4.48-.73C44.85,43.9,45.17,44.47,44.94,44.67Z"/><path class="cls-5" d="M55.1,43.61c-.32,1.07-.57,1.4-1.3,1.15-.52.21-.61-.7.13-1.75-1-.49-.34-1.52.59-1.13C54.17,42,55.27,44.05,55.1,43.61Z"/><path class="cls-5" d="M51.68,39.88c0-.49.15-.06-.31-.16-.26.3-.42-.06-.37.15a2.3,2.3,0,0,0,.37-1.47A2.66,2.66,0,0,1,51.68,39.88Z"/><path class="cls-4" d="M50.77,44.8c0-2.41,1.95,1.32-1.78,3.29,1.53.57,2.57,3.39,5.16,2.57-2.33-2.6.19.8-.95-2.28C54.48,44.79,51.81,42.17,50.77,44.8Z"/><path class="cls-4" d="M55.83,47.84c1.29,1.51-1,7.42-2.5.17-7.51-.45-12.76-1-6.46,1.33C42,48,48,40.72,51.13,46.19c1.61-6.44-2.34-11.37.11-7.28C48.66,34.53,53.66,40.77,55.83,47.84Z"/><path class="cls-4" d="M49.4,48c.19,1.75.13,1.18-.45.63-.6,1.47-1.7,1.15-2.09-.47.78-.62,1-2.11,2.16-2.43A5.33,5.33,0,0,0,49.4,48Z"/><path class="cls-4" d="M46.94,46.32c-.22.69-.18.25-.47.81-.41.31-.34-.35-.78-.72.22-.4.56-.46.35-.41C46,45.4,46.64,45.94,46.94,46.32Z"/><path class="cls-4" d="M26.18,54.91a11.1,11.1,0,0,1,1.53-1.24,16.54,16.54,0,0,1,1.41-.89A21.92,21.92,0,0,1,32,51.41a27.27,27.27,0,0,1,6-1.51,33.43,33.43,0,0,1,6-.26c1,0,2,.16,2.94.24l2.88.44-.62,0c-.22,0,.13,0,.23-.06a2.07,2.07,0,0,0,.51-.23,3.75,3.75,0,0,0,1-.81,8.28,8.28,0,0,0,1.58-2.73,17.52,17.52,0,0,0,.85-3.53L54,38.83a73.37,73.37,0,0,1,4.31-16.18,39.1,39.1,0,0,1,9.16-14A27.94,27.94,0,0,1,82.11,1.4,27.35,27.35,0,0,0,68.38,9.6a37.09,37.09,0,0,0-7.63,13.94,70,70,0,0,0-2.88,15.75l-.26,4.05a22.62,22.62,0,0,1-.72,4.51,12.81,12.81,0,0,1-2.19,4.49,8.63,8.63,0,0,1-2,1.92,7.32,7.32,0,0,1-1.29.73,6,6,0,0,1-1.74.51l-.13,0-.49,0-2.55-.21c-.85,0-1.7-.05-2.54,0a29.28,29.28,0,0,0-4.91.56,21.5,21.5,0,0,0-4.51,1.49,16.22,16.22,0,0,0-2,1.11c-.31.2-.59.42-.86.63s-.57.52-.57.52l-.18.19a3.39,3.39,0,1,1-4.8-4.8Z"/></svg>