<svg id="Layer_1" data-name="Layer 1" xmlns="http://www.w3.org/2000/svg" viewBox="0 0 100 100"><defs><style>.cls-1{fill:#ffc640;}.cls-2{fill:#f69a85;}.cls-3{fill:#231f20;}.cls-4{fill:#6ab8d9;}.cls-5{fill:#fcca98;}.cls-6{fill:#f37d3b;}.cls-7{fill:#09a582;}</style></defs><title>chang&amp;apos;e</title><path class="cls-1" d="M60.36,4.51A46.75,46.75,0,0,1,7.53,75.28,46.74,46.74,0,1,0,60.36,4.51Z"/><path class="cls-2" d="M27.35,10s-4.59.36-4.73-5.46S27.07,4,27.07,4s-1.36-2.87.28-3.57,2.52,2.87,2.52,2.87S29.41,0,31.17,0s5.11,3.47,3,6.15S27.35,10,27.35,10Z"/><rect class="cls-3" x="24.6" y="4.55" width="27.28" height="29.34" rx="13.64" ry="13.64"/><path class="cls-4" d="M61.94,52A31.19,31.19,0,0,0,52,48l.85-4.41A35.24,35.24,0,0,1,64.44,48.3Z"/><path class="cls-4" d="M15.39,59.48a11,11,0,0,1-6.67-3.77c-2.13-2.59-1.85-4.7-1.25-6,2.46-5.37,15.74-6.06,19.75-6.15L27.31,48c-7.48.16-15,1.84-15.77,3.53-.07.16.1.63.64,1.28a6.53,6.53,0,0,0,4.07,2.23Z"/><polyline class="cls-5" points="34.74 31.74 29.27 42.67 33.62 58.23 42.03 59.85 49.45 47.27 42.59 31.74"/><path class="cls-6" d="M30.68,33.89l-14.86,19,4.91,13L19.32,95.64s12.9,5.33,21.87,4.2-7-63.62-7-63.62"/><path class="cls-6" d="M45.88,33.89l14.85,19-4.9,13,1.4,29.71S44.34,101,35.37,99.84s7-63.62,7-63.62"/><rect class="cls-5" x="26.33" y="6.15" width="23.92" height="31.99" rx="11.96" ry="11.96"/><rect class="cls-7" x="20.36" y="64.97" width="35.71" height="6.17" rx="3.09" ry="3.09"/><rect class="cls-5" x="15.82" y="57.71" width="22.89" height="8.03" rx="4.02" ry="4.02"/><path class="cls-4" d="M43.1,90.6c-2.75,0-14.59-1.17-17.31-21-1.37-10-2.5-10-5.5-9.85a20.15,20.15,0,0,1-4.9-.27l.86-4.4a15.78,15.78,0,0,0,3.88.19C26.18,55,28.6,57.09,30.23,69c2.48,18.08,12.83,17.15,13,17.14l.49,4.45S43.45,90.6,43.1,90.6Z"/><path class="cls-4" d="M47.38,82.62C47.24,81.83,44,63.36,45.53,56l4.4.9c-1.12,5.41,1,19.83,1.86,24.93Z"/><rect class="cls-5" x="38.01" y="57.71" width="22.89" height="8.03" rx="4.02" ry="4.02"/><path class="cls-4" d="M63.61,71.76c-4,0-6.94-4.93-9.84-9.69A41.11,41.11,0,0,0,50,56.54a3,3,0,0,0-.08.37l-4.4-.9c.79-3.83,2.87-4.41,4-4.41h0c3.07,0,5.25,3.6,8,8.14,1.51,2.47,4.61,7.65,6,7.53,0,0,.93-.15,2.25-3.25,2.09-4.9.8-8.82-3.94-12l2.5-3.72C71,52.68,72.94,58.88,70,65.77c-.6,1.42-2.43,5.71-6,6Z"/><polyline class="cls-3" points="26.33 13.59 50.25 13.59 48.12 10.09 44.83 7.29 40.63 5.75 36.07 5.75 29.87 8.34 27.31 11.14"/><circle class="cls-3" cx="30.5" cy="19.37" r="1.02"/><circle class="cls-3" cx="46.26" cy="19.37" r="1.02"/><rect class="cls-3" x="48.12" y="12.47" width="2.45" height="30.83" rx="1.23" ry="1.23"/><rect class="cls-3" x="25.84" y="12.47" width="2.45" height="30.83" rx="1.23" ry="1.23"/></svg>