<svg id="Layer_1" data-name="Layer 1" xmlns="http://www.w3.org/2000/svg" viewBox="0 0 100 100"><defs><style>.cls-1{fill:#457f95;}.cls-2{fill:#ffc640;}.cls-3{fill:#0d2542;}.cls-4{fill:#fff;}.cls-5{fill:#f05c38;}.cls-6{fill:#079676;}.cls-7{fill:#6ab8d9;}.cls-8{fill:#aed2c4;}</style></defs><title>shipwreck</title><path class="cls-1" d="M87.57,52.88a12.29,12.29,0,0,1-12-10.26h-.87a12.17,12.17,0,0,1-24.05.07h-.87a12.16,12.16,0,0,1-24,.07h-.87a12.29,12.29,0,0,1-12,10.34,12.29,12.29,0,0,1-12-10.27H.33c0,2.09-.52,5.4-.26,7.42C3.18,74.86,24.88,92.6,50.31,92.52,76.11,92.45,97.25,75.09,99.74,50c.16-1.68.26-5.69.26-7.42h-.44A12.28,12.28,0,0,1,87.57,52.88Z"/><rect class="cls-2" x="50.08" y="12.77" width="12" height="19.13" transform="translate(31.56 -32.82) rotate(44.32)"/><rect class="cls-3" x="54.82" y="14.7" width="12" height="5.55" transform="translate(29.51 -37.52) rotate(44.32)"/><rect class="cls-2" x="71.45" y="32.1" width="12" height="19.13" transform="translate(51.14 -42.26) rotate(44.32)"/><rect class="cls-3" x="76.19" y="34.03" width="12" height="5.55" transform="translate(49.1 -46.95) rotate(44.32)"/><path class="cls-3" d="M75,70.81,9.88,5.73l.1.46a23.14,23.14,0,0,1-5.36,20.6c-.11.13-.2.22-.26.28L2.78,28.64a5.6,5.6,0,0,0,0,7.91l48.8,48.8,6.65-6.65Z"/><path class="cls-4" d="M-4,33.56H93.12a0,0,0,0,1,0,0v5a0,0,0,0,1,0,0H-4a1.75,1.75,0,0,1-1.75-1.75V35.31A1.75,1.75,0,0,1-4,33.56Z" transform="translate(38.28 -20.34) rotate(45)"/><path class="cls-5" d="M4.66,26.72c-.1.12-.19.24-.3.35L2.78,28.64a5.6,5.6,0,0,0,0,7.91l48.8,48.8,5.86-5.86Z"/><path class="cls-4" d="M21.09,34.54H95a0,0,0,0,1,0,0V44.1a0,0,0,0,1,0,0H19.46a0,0,0,0,1,0,0V36.16A1.62,1.62,0,0,1,21.09,34.54Z" transform="translate(44.57 -28.95) rotate(45)"/><rect class="cls-3" x="32.1" y="14.16" width="3.76" height="3.76" transform="translate(21.3 -19.33) rotate(45)"/><rect class="cls-3" x="37.5" y="19.56" width="3.76" height="3.76" transform="translate(26.69 -21.57) rotate(45)"/><rect class="cls-3" x="42.89" y="24.95" width="3.76" height="3.76" transform="translate(32.09 -23.8) rotate(45)"/><rect class="cls-3" x="48.29" y="30.35" width="3.76" height="3.76" transform="translate(37.48 -26.03) rotate(45)"/><rect class="cls-3" x="53.68" y="35.74" width="3.76" height="3.76" transform="translate(42.88 -28.27) rotate(45)"/><rect class="cls-3" x="59.08" y="41.14" width="3.76" height="3.76" transform="translate(48.27 -30.5) rotate(45)"/><rect class="cls-3" x="64.47" y="46.53" width="3.76" height="3.76" transform="translate(53.67 -32.74) rotate(45)"/><rect class="cls-3" x="69.87" y="51.93" width="3.76" height="3.76" transform="translate(59.06 -34.97) rotate(45)"/><path class="cls-6" d="M23.27,78a3,3,0,0,1-2.52-1.37C20.18,75.7,6.87,54.87,12.18,39,16.81,25.12,32.59,10.45,46,12.3a3,3,0,1,1-.83,5.95C35.83,17,22.05,28.38,17.87,40.89c-4.4,13.18,7.8,32.24,7.92,32.43a3,3,0,0,1-.89,4.15A3,3,0,0,1,23.27,78Z"/><path class="cls-6" d="M66.43,78.46a3,3,0,0,1-1.54-5.58c.19-.12,19.58-11.85,21.46-25.57,1.79-13.07-5.51-29.43-14.48-32.4a3,3,0,0,1,1.89-5.7c12.86,4.27,20.52,24.43,18.53,38.91C90,64.71,68.86,77.5,68,78A3,3,0,0,1,66.43,78.46Z"/><path class="cls-6" d="M43.25,74.75a24.33,24.33,0,0,1-13.6-4.45,3,3,0,1,1,3.7-4.72c1.25,1,12.69,9.09,24-4.78C66.93,49,59.57,34.22,59.25,33.59a3,3,0,0,1,5.33-2.74c.4.76,9.51,18.88-2.59,33.74C55.58,72.45,48.88,74.75,43.25,74.75Z"/><path class="cls-6" d="M43.73,87.07c-4.4,0-8.7-3.38-12.79-10.06-6-9.72-7.66-18.79-5.09-27C29.74,37.71,42,32.25,42.49,32a3,3,0,1,1,2.4,5.49h0c-.1,0-10.3,4.66-13.33,14.38-2,6.43-.49,13.82,4.5,22C39,78.66,41.89,81.29,44,81.05s4.52-3.41,6.24-8.31C53.8,62.63,53.49,49,49.64,45.15a3,3,0,0,1,4.22-4.27c6.74,6.69,5.52,23.95,2,33.85C53.27,82.27,49.37,86.52,44.65,87,44.34,87.05,44,87.07,43.73,87.07Z"/><path class="cls-6" d="M10.46,67.28a3,3,0,0,1-2.33-1.12C1.4,57.79-.94,46.55,1.35,33.64a65.79,65.79,0,0,1,5.44-16.9,3,3,0,1,1,5.34,2.74h0c-.13.25-13,25.93.67,42.92a3,3,0,0,1-2.34,4.88Z"/><path class="cls-7" d="M87.31,60.3A12.3,12.3,0,0,1,75.25,50h-.87a12.16,12.16,0,0,1-24,.07h-.87a12.17,12.17,0,0,1-24,.07h-.87a12.29,12.29,0,0,1-12,10.34,12.28,12.28,0,0,1-12-10.27H.07A49.84,49.84,0,1,0,99.74,50H99.3A12.29,12.29,0,0,1,87.31,60.3Z"/><ellipse class="cls-8" cx="37.16" cy="18.49" rx="1.57" ry="0.66" transform="translate(-4.28 16.07) rotate(-23.11)"/><ellipse class="cls-8" cx="43.69" cy="15.5" rx="0.66" ry="1.57" transform="translate(14.18 51.26) rotate(-70.01)"/><ellipse class="cls-8" cx="72.56" cy="12.42" rx="0.66" ry="1.57" transform="translate(36.08 76.36) rotate(-70.01)"/><ellipse class="cls-8" cx="74.96" cy="15.14" rx="0.66" ry="1.57" transform="translate(35.1 80.41) rotate(-70.01)"/><ellipse class="cls-8" cx="76.71" cy="13.06" rx="0.66" ry="1.57" transform="translate(38.21 80.68) rotate(-70.01)"/><ellipse class="cls-8" cx="82.02" cy="18.59" rx="0.66" ry="1.57" transform="translate(4.09 50.21) rotate(-34.86)"/><ellipse class="cls-8" cx="78.63" cy="16.04" rx="0.66" ry="1.57" transform="translate(25.42 76.11) rotate(-60)"/><ellipse class="cls-8" cx="79.36" cy="18.79" rx="0.66" ry="1.57" transform="translate(4.83 51.9) rotate(-37.28)"/><ellipse class="cls-8" cx="82.02" cy="21.57" rx="0.66" ry="1.57" transform="translate(3.69 54.08) rotate(-37.28)"/><ellipse class="cls-8" cx="41.72" cy="17.09" rx="1.57" ry="0.66" transform="translate(-1.85 5.51) rotate(-7.39)"/><ellipse class="cls-8" cx="38.56" cy="15.83" rx="1.57" ry="0.66" transform="translate(-1.72 5.09) rotate(-7.39)"/><ellipse class="cls-8" cx="29.76" cy="22.33" rx="1.57" ry="0.66" transform="translate(-7.44 22.59) rotate(-37.28)"/><ellipse class="cls-8" cx="26.39" cy="25.11" rx="1.57" ry="0.66" transform="translate(-9.82 21.11) rotate(-37.28)"/><ellipse class="cls-8" cx="33.45" cy="20.07" rx="1.57" ry="0.66" transform="translate(-5.32 24.36) rotate(-37.28)"/><ellipse class="cls-8" cx="27.07" cy="21.89" rx="1.57" ry="0.66" transform="translate(-7.73 20.87) rotate(-37.28)"/><ellipse class="cls-8" cx="22.95" cy="28.83" rx="1.57" ry="0.66" transform="translate(-13.89 29.3) rotate(-52.2)"/><ellipse class="cls-8" cx="20.4" cy="32.39" rx="1.57" ry="0.66" transform="translate(-17.69 28.66) rotate(-52.2)"/><ellipse class="cls-8" cx="20.24" cy="29.1" rx="1.57" ry="0.66" transform="translate(-15.16 27.26) rotate(-52.2)"/><ellipse class="cls-8" cx="31.08" cy="19.2" rx="1.57" ry="0.66" transform="translate(-5.28 22.75) rotate(-37.28)"/><ellipse class="cls-8" cx="34.94" cy="17.09" rx="1.57" ry="0.66" transform="translate(-3.21 24.65) rotate(-37.28)"/><ellipse class="cls-8" cx="23.29" cy="25.89" rx="1.57" ry="0.66" transform="translate(-10.92 19.4) rotate(-37.28)"/><ellipse class="cls-8" cx="44.25" cy="36.6" rx="1.57" ry="0.66" transform="translate(-13.13 34.28) rotate(-37.28)"/><ellipse class="cls-8" cx="41.18" cy="36.04" rx="1.57" ry="0.66" transform="translate(-13.42 32.3) rotate(-37.28)"/><ellipse class="cls-8" cx="9.87" cy="19.55" rx="1.57" ry="0.66" transform="translate(-11.93 17.48) rotate(-57.78)"/><ellipse class="cls-8" cx="9.09" cy="23.61" rx="1.57" ry="0.66" transform="translate(-15.73 18.71) rotate(-57.78)"/><ellipse class="cls-8" cx="6.22" cy="24.51" rx="1.57" ry="0.66" transform="translate(-18.94 21.98) rotate(-70.01)"/><ellipse class="cls-8" cx="6.98" cy="28.52" rx="1.57" ry="0.66" transform="translate(-22.38 28.56) rotate(-76.34)"/><ellipse class="cls-8" cx="34.94" cy="42.28" rx="1.57" ry="0.66" transform="translate(-18.47 29.8) rotate(-37.28)"/><ellipse class="cls-8" cx="38.92" cy="39.56" rx="1.57" ry="0.66" transform="translate(-16.01 31.65) rotate(-37.28)"/><ellipse class="cls-8" cx="50.87" cy="44.42" rx="0.66" ry="1.57" transform="translate(-15.39 31.39) rotate(-30)"/><ellipse class="cls-8" cx="53.58" cy="46.31" rx="0.66" ry="1.57" transform="translate(-15.98 33) rotate(-30)"/><ellipse class="cls-8" cx="53.13" cy="49.21" rx="0.66" ry="1.57" transform="translate(-17.49 33.16) rotate(-30)"/><ellipse class="cls-8" cx="60.64" cy="32.95" rx="0.71" ry="1.57" transform="translate(-7.72 23.44) rotate(-20.6)"/><ellipse class="cls-8" cx="63.1" cy="35.23" rx="0.71" ry="1.57" transform="translate(-8.36 24.45) rotate(-20.6)"/><ellipse class="cls-8" cx="64.57" cy="39.56" rx="0.71" ry="1.57" transform="translate(-9.79 25.24) rotate(-20.6)"/><ellipse class="cls-8" cx="62.06" cy="38.06" rx="0.71" ry="1.57" transform="translate(-9.42 24.27) rotate(-20.6)"/><ellipse class="cls-8" cx="63.1" cy="42.54" rx="0.71" ry="1.57" transform="matrix(0.99, -0.17, 0.17, 0.99, -6.18, 11.04)"/></svg>