<svg id="Layer_1" data-name="Layer 1" xmlns="http://www.w3.org/2000/svg" viewBox="0 0 100 100"><defs><style>.cls-1{fill:#ffc540;}.cls-2{fill:#9c5020;}.cls-3{fill:#f37d3b;}.cls-4{fill:#6d4a46;}.cls-5{fill:#cc6931;}.cls-6{fill:#885e59;}.cls-7{fill:#fcca98;}.cls-8{fill:#3e3e3f;}.cls-9{fill:#9a7e5f;}</style></defs><title>sun wukong</title><path class="cls-1" d="M84.2,73.59c-6.39,0-16.12-5-19.49-6.89a2.26,2.26,0,1,1,2.18-4c8.11,4.46,17,7.37,18.64,6.13.09-.06.21-.56,0-1.6-.91-4-.36-7.23,1.66-9.72,3.56-4.41,10.32-4.41,10.61-4.34a2.27,2.27,0,0,1,0,4.54h-.09c-1.39,0-5.2.47-7,2.67-1.09,1.35-1.34,3.32-.76,5.84.81,3.52-.45,5.34-1.65,6.25A6.7,6.7,0,0,1,84.2,73.59Z"/><rect class="cls-2" x="40.95" y="69.77" width="11.41" height="17.5" rx="5.7" ry="5.7"/><rect class="cls-2" x="42.59" y="84.57" width="8.14" height="12.48" rx="4.07" ry="4.07"/><rect class="cls-2" x="61.98" y="84.57" width="8.14" height="12.48" rx="4.07" ry="4.07"/><rect class="cls-2" x="60.35" y="69.77" width="11.41" height="17.5" rx="5.7" ry="5.7"/><path class="cls-3" d="M75.61,78.85a3.41,3.41,0,0,1-3.41-3.41V45.14a3.41,3.41,0,0,1,6.81,0v30.3A3.41,3.41,0,0,1,75.61,78.85Z"/><path class="cls-3" d="M30.25,56,20.39,40.43a3.4,3.4,0,0,1,5.76-3.63l6.62,10.48L43.3,42.21a3.41,3.41,0,0,1,3,6.14Z"/><rect class="cls-4" x="-2.03" y="28.13" width="103.11" height="4.34" rx="2.17" ry="2.17" transform="translate(-6.57 15.31) rotate(-16.5)"/><rect class="cls-3" x="39.94" y="38.61" width="32.69" height="33.7" rx="5.81" ry="5.81"/><polyline class="cls-5" points="39.55 64.58 39.55 77.06 72.63 77.06 72.63 62.31"/><rect class="cls-6" x="66.05" y="39.03" width="17.22" height="7.06" rx="3.53" ry="3.53" transform="translate(37.09 -34.73) rotate(34.39)"/><rect class="cls-6" x="30.06" y="37.61" width="17.22" height="7.06" rx="3.53" ry="3.53" transform="translate(87.44 69.6) rotate(163.5)"/><rect class="cls-6" x="46.12" y="36.16" width="3.4" height="12.2" rx="1.7" ry="1.7"/><rect class="cls-6" x="62.65" y="36.16" width="3.4" height="12.2" rx="1.7" ry="1.7"/><rect class="cls-6" x="65.98" y="50.61" width="3.4" height="12.2" rx="1.7" ry="1.7" transform="translate(124.39 -10.98) rotate(90)"/><rect class="cls-6" x="43.07" y="50.61" width="3.4" height="12.2" rx="1.7" ry="1.7" transform="translate(101.48 11.93) rotate(90)"/><path class="cls-1" d="M82.47,22.48c0,3.35-4.48,8.18-7.83,8.18s-4.3-2.72-4.3-6.07a6.07,6.07,0,0,1,6.07-6.07C79.76,18.52,82.47,19.13,82.47,22.48Z"/><path class="cls-7" d="M79.37,25c0,1.74-2.66,4.25-4.65,4.25s-2.55-1.41-2.55-3.15A3.4,3.4,0,0,1,75.77,23C77.76,23,79.37,23.3,79.37,25Z"/><path class="cls-1" d="M29.25,22.48c0,3.35,4.48,8.18,7.84,8.18s4.29-2.72,4.29-6.07a6.06,6.06,0,0,0-6.06-6.07C32,18.52,29.25,19.13,29.25,22.48Z"/><path class="cls-7" d="M32.35,25c0,1.74,2.66,4.25,4.65,4.25s2.55-1.41,2.55-3.15A3.4,3.4,0,0,0,36,23C34,23,32.35,23.3,32.35,25Z"/><ellipse class="cls-1" cx="56.79" cy="26.22" rx="19.86" ry="14.13"/><ellipse class="cls-7" cx="56.79" cy="24.11" rx="15.84" ry="7.22"/><circle class="cls-7" cx="56.28" cy="30.3" r="9.77"/><circle class="cls-8" cx="43.07" cy="23.9" r="1.2"/><circle class="cls-8" cx="70.71" cy="23.9" r="1.2"/><rect class="cls-9" x="47" y="27.59" width="18.57" height="1.34" rx="0.67" ry="0.67"/><circle class="cls-9" cx="52.51" cy="25.97" r="0.86"/><circle class="cls-9" cx="60.72" cy="25.97" r="0.86"/><polyline class="cls-1" points="39.21 30.99 38.19 34.48 40.95 34.02 40.02 36.77 44.27 35.39 40.95 40.34 46.52 37.5 47 43.19 50.38 38.88"/><polyline class="cls-1" points="74.58 30.99 75.61 34.48 72.84 34.02 73.77 36.77 69.52 35.39 72.84 40.34 67.28 37.5 66.8 43.19 63.41 38.88"/><path class="cls-1" d="M40,19.52S41.82,7.6,37.67,9.44c0,0,1.73-4.29,4.2-.92s3.44,8.68,3.44,8.68"/><path class="cls-1" d="M43.27,17.57S45.11,5.64,41,7.48c0,0,1.74-4.28,4.2-.92s3.44,8.68,3.44,8.68"/><path class="cls-1" d="M46.59,15.49S48.43,3.56,44.27,5.4c0,0,1.74-4.28,4.2-.92s3.44,8.68,3.44,8.68"/><path class="cls-1" d="M50.15,15.24S52,3.32,47.83,5.15c0,0,1.74-4.28,4.2-.91s3.44,8.68,3.44,8.68"/><path class="cls-1" d="M53.7,15.24S55.53,3.32,51.38,5.15c0,0,1.73-4.28,4.2-.91S59,12.92,59,12.92"/><path class="cls-1" d="M74.4,19.52S72.57,7.6,76.73,9.44c0,0-1.74-4.29-4.2-.92s-3.45,8.68-3.45,8.68"/><path class="cls-1" d="M71.12,17.57S69.29,5.64,73.44,7.48c0,0-1.74-4.28-4.2-.92s-3.44,8.68-3.44,8.68"/><path class="cls-1" d="M67.8,15.49S66,3.56,70.13,5.4c0,0-1.74-4.28-4.21-.92s-3.44,8.68-3.44,8.68"/><path class="cls-1" d="M64.24,15.24S62.41,3.32,66.56,5.15c0,0-1.73-4.28-4.2-.91s-3.44,8.68-3.44,8.68"/><path class="cls-1" d="M60.69,15.24S58.86,3.32,63,5.15c0,0-1.74-4.28-4.2-.91s-3.45,8.68-3.45,8.68"/><path class="cls-3" d="M53.9,16.3a24.56,24.56,0,0,0-2.34-.77c-.17,0,.23-.26-.22,0s-.89.62-1.38.89a21.66,21.66,0,0,1-6,2.07,18.73,18.73,0,0,1-3.13.44A4.32,4.32,0,0,1,37.47,18a3.16,3.16,0,0,1-.17-3.3,11.32,11.32,0,0,1,1.51-2.62,11.11,11.11,0,0,0-1,2.78c-.2.92-.14,2,.4,2.34a3.26,3.26,0,0,0,2.37.07,16.62,16.62,0,0,0,2.66-.89A19.49,19.49,0,0,0,48.1,13.7c.32-.28.58-.55,1-.93l.39-.35a4.65,4.65,0,0,1,.62-.38,3.94,3.94,0,0,1,1.46-.36A18.75,18.75,0,0,1,55,12a2.22,2.22,0,1,1-.63,4.39,2.46,2.46,0,0,1-.45-.11Z"/><path class="cls-3" d="M58.55,12A18.65,18.65,0,0,1,62,11.68a3.85,3.85,0,0,1,1.45.36,4.78,4.78,0,0,1,.63.38l.39.35c.39.38.64.65,1,.93a19.31,19.31,0,0,0,4.84,2.69,16,16,0,0,0,2.66.89,3.26,3.26,0,0,0,2.37-.07c.54-.38.6-1.42.4-2.34a11.55,11.55,0,0,0-1-2.78,11.72,11.72,0,0,1,1.52,2.62,3.21,3.21,0,0,1-.17,3.3,4.34,4.34,0,0,1-3.32.92,18.73,18.73,0,0,1-3.13-.44,21.55,21.55,0,0,1-6-2.07c-.5-.27-1-.64-1.38-.89s-.06,0-.22,0a23.69,23.69,0,0,0-2.35.77h0a2.21,2.21,0,1,1-1.54-4.15A1.83,1.83,0,0,1,58.55,12Z"/><path class="cls-6" d="M70.08,55a3.62,3.62,0,0,0-3.61-3.61,3.62,3.62,0,0,0,0-7.24H46.1a3.62,3.62,0,0,0,0,7.24,3.62,3.62,0,1,0,0,7.23,3.62,3.62,0,1,0,0,7.23H66.47a3.62,3.62,0,0,0,0-7.23A3.63,3.63,0,0,0,70.08,55Z"/><rect class="cls-1" x="17.42" y="32.95" width="9.84" height="6.16" rx="3.08" ry="3.08" transform="translate(-9.31 7.83) rotate(-16.5)"/><rect class="cls-1" x="71.81" y="75.96" width="9.84" height="6.16" rx="3.08" ry="3.08" transform="translate(-15.9 19.42) rotate(-13.08)"/><rect class="cls-6" x="41.72" y="83.3" width="9.79" height="5.25" rx="2.62" ry="2.62"/><rect class="cls-6" x="61.16" y="83.3" width="9.79" height="5.25" rx="2.62" ry="2.62"/></svg>