<svg id="Layer_1" data-name="Layer 1" xmlns="http://www.w3.org/2000/svg" viewBox="0 0 100 100"><defs><style>.cls-1{fill:#ffc540;}.cls-2{fill:#447d93;}.cls-3{fill:#f37d3b;}.cls-4{fill:#3f3f40;}.cls-5{fill:#396b7e;}</style></defs><title>tawaret</title><polygon class="cls-1" points="43.43 77.39 49.63 97.38 57.32 76.78 43.43 77.39"/><rect class="cls-2" x="33.84" y="35.28" width="33.16" height="27.04" rx="13.52" ry="13.52"/><rect class="cls-2" x="23.27" y="45.09" width="54.2" height="43.34" rx="21.67" ry="21.67"/><path class="cls-1" d="M68.92,53.87a4.55,4.55,0,0,1-4.55-4.54V23.05a13.95,13.95,0,0,0-27.9,0V49.33a4.55,4.55,0,0,1-9.1,0V23.05a23.05,23.05,0,0,1,46.1,0V49.33A4.55,4.55,0,0,1,68.92,53.87Z"/><rect class="cls-3" x="27.37" y="45.88" width="9.1" height="3.41"/><rect class="cls-3" x="64.37" y="45.88" width="9.1" height="3.41"/><rect class="cls-3" x="27.37" y="39.93" width="9.1" height="3.41"/><rect class="cls-3" x="64.37" y="39.93" width="9.1" height="3.41"/><rect class="cls-2" x="26.53" y="15.71" width="46.99" height="30.18" rx="15.09" ry="15.09"/><rect class="cls-2" x="34.98" y="3.07" width="30.88" height="33" rx="15.44" ry="15.44"/><path class="cls-2" d="M40.7,6.92a3.2,3.2,0,0,1-.64,4.45,3.21,3.21,0,0,1-4.5,0c-1.06-1.24-4.42-7-2.74-8.4S39.64,5.67,40.7,6.92Z"/><path class="cls-2" d="M59.55,6.92a3.19,3.19,0,0,0,.64,4.45,3.21,3.21,0,0,0,4.5,0c1.06-1.24,4.41-7,2.74-8.4S60.61,5.67,59.55,6.92Z"/><rect class="cls-1" x="41.84" y="1.59" width="17.06" height="7.97" rx="3.99" ry="3.99"/><rect class="cls-1" x="43.43" y="6.41" width="1.19" height="4.82" rx="0.59" ry="0.59"/><rect class="cls-1" x="46.53" y="6.41" width="1.19" height="4.82" rx="0.59" ry="0.59"/><rect class="cls-1" x="49.63" y="6.41" width="1.19" height="4.82" rx="0.59" ry="0.59"/><rect class="cls-1" x="52.73" y="6.41" width="1.19" height="4.82" rx="0.59" ry="0.59"/><rect class="cls-1" x="55.83" y="6.41" width="1.19" height="4.82" rx="0.59" ry="0.59"/><circle class="cls-4" cx="39.55" cy="15.83" r="1.32"/><circle class="cls-4" cx="60.75" cy="15.83" r="1.32"/><rect class="cls-5" x="26.9" y="34.09" width="46.57" height="3.29" rx="1.65" ry="1.65"/><path class="cls-5" d="M41.81,22.85V19.09a2.81,2.81,0,0,1,2.8-2.8h0a2.81,2.81,0,0,1,2.81,2.8v3.76"/><path class="cls-5" d="M54.22,22.85V19.09a2.81,2.81,0,0,1,2.8-2.8h0a2.82,2.82,0,0,1,2.81,2.8v3.76"/><rect class="cls-2" x="19.97" y="52.24" width="6.62" height="18.37" rx="3.31" ry="3.31" transform="translate(50.25 1.53) rotate(45)"/><rect class="cls-2" x="73.42" y="52.24" width="6.62" height="18.37" rx="3.31" ry="3.31" transform="translate(174.42 50.61) rotate(135)"/><rect class="cls-2" x="31.52" y="75.31" width="13.92" height="24.69" rx="6.96" ry="6.96"/><rect class="cls-2" x="54.61" y="75.31" width="13.92" height="24.69" rx="6.96" ry="6.96"/><path class="cls-5" d="M37.41,66.76a6.17,6.17,0,0,1-1.13-.1c-3.7-.64-5.17-4.26-5.23-4.41a.72.72,0,0,1,.4-.94.74.74,0,0,1,.94.41,6,6,0,0,0,4.14,3.52A5.72,5.72,0,0,0,42.6,61.8a.73.73,0,0,1,1-.35.72.72,0,0,1,.35,1A7.28,7.28,0,0,1,37.41,66.76Z"/><path class="cls-5" d="M61.49,66.76a6.06,6.06,0,0,1-1.12-.1c-3.71-.64-5.18-4.26-5.24-4.41a.74.74,0,0,1,.41-.94.72.72,0,0,1,.93.41,6.08,6.08,0,0,0,4.14,3.52,5.73,5.73,0,0,0,6.08-3.44.72.72,0,0,1,1-.35.73.73,0,0,1,.36,1A7.28,7.28,0,0,1,61.49,66.76Z"/></svg>