<svg id="Layer_1" data-name="Layer 1" xmlns="http://www.w3.org/2000/svg" viewBox="0 0 100 100"><defs><style>.cls-1{fill:#fff;}.cls-2{fill:#d3d4d6;}.cls-3{fill:#367665;}.cls-4{fill:#286152;}.cls-5{fill:#fcca98;}.cls-6{fill:#f37d3b;}.cls-7{fill:#231f20;}.cls-8{fill:#aa5726;}.cls-9{fill:#da7135;}.cls-10{fill:#ffc540;}</style></defs><title>tengu</title><path class="cls-1" d="M46.13,45.4s-17.85-9-16.67-15.6S31.29,6.66,19.21,7.24s-14.55,69-14.55,69L11.31,63l1,6.16,7.37-16.24"/><path class="cls-2" d="M46.13,45.4l-9.67,6.26C31.1,49,18.32,55.93,18.32,55.93l4.23-9.33,2.27-5.33S31.75,47.49,46.13,45.4Z"/><polyline class="cls-1" points="13.9 15.15 2.31 34.31 10.8 28.1 0.81 55.92 8.91 46.65"/><path class="cls-1" d="M49.87,45.4s17.85-9,16.67-15.6S64.71,6.66,76.79,7.24s14.55,69,14.55,69L84.69,63l-1,6.16L76.29,52.87"/><path class="cls-2" d="M49.87,45.4l9.67,6.26C64.9,49,77.68,55.93,77.68,55.93L73.45,46.6l-2.27-5.33S64.25,47.49,49.87,45.4Z"/><polyline class="cls-1" points="82.09 15.15 93.69 34.31 85.2 28.1 95.19 55.92 87.09 46.65"/><rect class="cls-3" x="34.22" y="67.5" width="13.59" height="20.85" rx="6.79" ry="6.79"/><rect class="cls-3" x="36.17" y="85.13" width="9.69" height="14.87" rx="4.85" ry="4.85"/><rect class="cls-3" x="55.4" y="85.13" width="9.69" height="14.87" rx="4.85" ry="4.85"/><rect class="cls-3" x="53.45" y="67.5" width="13.59" height="20.85" rx="6.79" ry="6.79"/><rect class="cls-4" x="35.13" y="83.61" width="11.66" height="6.25" rx="3.13" ry="3.13"/><rect class="cls-4" x="54.42" y="83.61" width="11.66" height="6.25" rx="3.13" ry="3.13"/><path class="cls-5" d="M32.82,79.63s13.53,5.74,19.75,3.67,13.66-3.67,13.66-3.67l.85-11.42L32,66.56Z"/><rect class="cls-6" x="23.73" y="41.21" width="8.35" height="38.61" rx="4.17" ry="4.17"/><rect class="cls-6" x="69.6" y="41.21" width="8.35" height="38.61" rx="4.17" ry="4.17"/><rect class="cls-7" x="31.21" y="1.29" width="39.68" height="50.05" rx="19.84" ry="19.84"/><rect class="cls-3" x="19.85" y="36.63" width="17.55" height="9.16" rx="4.58" ry="4.58"/><rect class="cls-3" x="68.36" y="36.63" width="17.55" height="9.16" rx="4.58" ry="4.58"/><rect class="cls-5" x="33.17" y="37.8" width="35.18" height="41.92" rx="16.05" ry="16.05"/><rect class="cls-8" x="32.82" y="67.52" width="36.06" height="5.98" rx="2.99" ry="2.99"/><rect class="cls-3" x="30.59" y="45.79" width="7.93" height="32.61" rx="3.97" ry="3.97"/><rect class="cls-3" x="64.6" y="45.79" width="7.93" height="32.61" rx="3.97" ry="3.97"/><circle class="cls-3" cx="65.23" cy="42.43" r="3.21"/><circle class="cls-3" cx="69.44" cy="41.07" r="3.21"/><circle class="cls-3" cx="67.76" cy="44.96" r="3.21"/><circle class="cls-3" cx="72.03" cy="44.27" r="3.21"/><circle class="cls-3" cx="70.28" cy="47.48" r="3.21"/><circle class="cls-3" cx="67.08" cy="49" r="3.21"/><circle class="cls-3" cx="67.44" cy="51.6" r="3.21"/><circle class="cls-3" cx="38.88" cy="42.43" r="3.21"/><circle class="cls-3" cx="34.67" cy="41.07" r="3.21"/><circle class="cls-3" cx="36.35" cy="44.96" r="3.21"/><circle class="cls-3" cx="32.08" cy="44.27" r="3.21"/><circle class="cls-3" cx="33.83" cy="47.48" r="3.21"/><circle class="cls-3" cx="37.03" cy="49" r="3.21"/><circle class="cls-3" cx="36.67" cy="51.6" r="3.21"/><polyline class="cls-8" points="43.34 38.64 43.49 58.14 55.78 38.64"/><rect class="cls-1" x="46.44" width="20.02" height="11.54" rx="5.77" ry="5.77"/><rect class="cls-6" x="37.01" y="5.86" width="38.88" height="16.17" rx="7.25" ry="7.25"/><rect class="cls-6" x="35.99" y="23.2" width="40.14" height="13.43" rx="6.72" ry="6.72"/><path class="cls-6" d="M38.35,13.26V27.13a17.71,17.71,0,1,0,35.42,0V13.26Z"/><circle class="cls-7" cx="46.1" cy="21.44" r="2.22"/><circle class="cls-7" cx="69.64" cy="22.91" r="0.75"/><path class="cls-9" d="M73.77,24.85v2.28a17.31,17.31,0,0,1-.55,4.28c.92,0,1.83,0,2.74-.05a6.32,6.32,0,0,0,.17-1.45A6.68,6.68,0,0,0,73.77,24.85Z"/><path class="cls-9" d="M62.4,23.2h-8a3.67,3.67,0,0,0-1.07,1.54,3.69,3.69,0,0,0,2.88,4.54,72.66,72.66,0,0,0,17,2.13,17.31,17.31,0,0,0,.55-4.28V24.85a6.93,6.93,0,0,0-.93-.68A66.57,66.57,0,0,1,62.4,23.2Z"/><path class="cls-7" d="M43.9,13.74c-.09-.11,0,.22,0,.38a2.83,2.83,0,0,0,.22.61A6,6,0,0,0,44.89,16a8.63,8.63,0,0,0,2.53,2.09,16.16,16.16,0,0,0,3.35,1.39,32.12,32.12,0,0,0,3.74.73,30.3,30.3,0,0,1-3.87.55,17.58,17.58,0,0,1-4.07-.23A12.24,12.24,0,0,1,42.43,19a10.49,10.49,0,0,1-1.89-1.49,8.87,8.87,0,0,1-.84-1,5.47,5.47,0,0,1-.78-1.35,2.59,2.59,0,0,1,5-1.42Z"/><circle class="cls-10" cx="46.27" cy="21.34" r="0.82"/><ellipse class="cls-7" cx="69.39" cy="21.44" rx="1.51" ry="2.22"/><path class="cls-7" d="M74.66,14.85a8.55,8.55,0,0,1-2,3.13,8.36,8.36,0,0,1-2.84,1.94,8.81,8.81,0,0,1-3.14.62,12.1,12.1,0,0,1-3-.37,11.43,11.43,0,0,0,2.78-.68A7,7,0,0,0,68.7,18.1a5.71,5.71,0,0,0,1.36-2,4.74,4.74,0,0,0,.41-2.07,2.24,2.24,0,1,1,4.43-.61,2.14,2.14,0,0,1-.12,1.07Z"/><ellipse class="cls-10" cx="69.27" cy="21.34" rx="0.56" ry="0.82"/><rect class="cls-7" x="39.84" y="28.13" width="18.28" height="2.25" rx="1.13" ry="1.13"/><rect class="cls-7" x="60.25" y="28.13" width="18.28" height="2.25" rx="1.13" ry="1.13"/><path class="cls-6" d="M88.53,27.06c-12.8,3.17-19.19,3.17-32,0a4.09,4.09,0,0,1-3.19-5h0a4.29,4.29,0,0,1,5.12-2.74c11.54,2.86,16.61,2.86,28.14,0A4.29,4.29,0,0,1,91.72,22h0A4.09,4.09,0,0,1,88.53,27.06Z"/><rect class="cls-8" x="44.51" y="30.76" width="24.87" height="14.08" rx="7.04" ry="7.04"/><rect class="cls-6" x="44.01" y="32.67" width="25.87" height="14.65" rx="7.32" ry="7.32"/><polygon class="cls-7" points="52.57 45.72 54.51 43.19 60.25 43.19 62.49 45.72 62.49 51.34 59.79 49.39 58.12 51.87 56.06 50.14 53.17 52.67 52.57 45.72"/><circle class="cls-1" cx="35.03" cy="48" r="2.21"/><circle class="cls-1" cx="35.03" cy="56.65" r="2.21"/><circle class="cls-1" cx="35.03" cy="65.31" r="2.21"/><circle class="cls-1" cx="68.71" cy="48" r="2.21"/><circle class="cls-1" cx="68.71" cy="56.65" r="2.21"/><circle class="cls-1" cx="68.71" cy="65.31" r="2.21"/><path class="cls-7" d="M33.83,14.45s-6.32,6.78-10.1,6.06c0,0,3.72,4.85,10.83-.31"/><path class="cls-7" d="M33.83,18.51s-6.32,6.78-10.1,6.07c0,0,3.72,4.84,10.83-.31"/><path class="cls-7" d="M33.83,22.58s-6.32,6.78-10.1,6.06c0,0,3.72,4.85,10.83-.31"/></svg>