<svg id="Layer_1" data-name="Layer 1" xmlns="http://www.w3.org/2000/svg" viewBox="0 0 100 100"><defs><style>.cls-1{fill:#ffc640;}.cls-2{fill:#3e3e3f;}.cls-3{fill:#fcca98;}.cls-4{fill:#7a534e;}.cls-5{fill:#7d7d7d;}.cls-6{fill:#f37d3b;}.cls-7{fill:#666;}.cls-8{fill:#885e59;}.cls-9{fill:#ffc540;}</style></defs><title>thor</title><polyline class="cls-1" points="72.35 43.59 76.45 43.59 70.92 59.07 86.82 38.29 80.36 38.29 85.49 28.11 78.7 28.11"/><rect class="cls-2" x="44.25" y="17.49" width="55.75" height="16.34" rx="8.17" ry="8.17"/><circle class="cls-2" cx="61.14" cy="16.47" r="11.23"/><circle class="cls-2" cx="78.24" cy="17.49" r="7.33"/><path class="cls-1" d="M60.91,30.43a16.24,16.24,0,0,1-9,0,16.5,16.5,0,0,1,9,0Z"/><path class="cls-1" d="M66.32,32.23a4.13,4.13,0,0,1-4.29,0,4.13,4.13,0,0,1,4.29,0Z"/><path class="cls-1" d="M92.86,32.23a4.13,4.13,0,0,1-4.29,0,4.13,4.13,0,0,1,4.29,0Z"/><rect class="cls-2" y="17.49" width="55.75" height="16.34" rx="8.17" ry="8.17"/><circle class="cls-2" cx="16.88" cy="16.47" r="11.23"/><circle class="cls-2" cx="33.99" cy="17.49" r="7.33"/><circle class="cls-2" cx="45.9" cy="13.84" r="7.33"/><path class="cls-1" d="M16.66,30.43a16.28,16.28,0,0,1-9,0,16.53,16.53,0,0,1,9,0Z"/><path class="cls-1" d="M22.06,32.23a4.49,4.49,0,0,1-2.14.6,4.5,4.5,0,0,1-2.15-.6,4.5,4.5,0,0,1,2.15-.6A4.49,4.49,0,0,1,22.06,32.23Z"/><path class="cls-1" d="M48.61,32.23a4.15,4.15,0,0,1-4.3,0,4.15,4.15,0,0,1,4.3,0Z"/><rect class="cls-3" x="43.15" y="65.38" width="8.2" height="29.38" rx="4.1" ry="4.1"/><rect class="cls-3" x="31.35" y="65.38" width="8.2" height="29.38" rx="4.1" ry="4.1"/><rect class="cls-3" x="27.73" y="40.21" width="27.52" height="36.49" rx="13.76" ry="13.76"/><polyline class="cls-4" points="29.87 68.44 29.87 79.48 32.58 76.61 33.43 82.6 35.67 79.91 36.48 82.6 39.36 80.19 41 82.6 42.63 81.65 44.75 83.94 47.25 79.8 49.79 87.58 51.12 79.48 53.53 83.94 53.53 67.99"/><rect class="cls-5" x="27.87" y="60.89" width="27.45" height="11.65" rx="5.83" ry="5.83"/><rect class="cls-5" x="35.93" y="57.71" width="11.64" height="17.93" rx="5.82" ry="5.82"/><rect class="cls-5" x="32.22" y="58.92" width="10.12" height="15.6" rx="5.06" ry="5.06"/><rect class="cls-5" x="41" y="58.92" width="10.12" height="15.6" rx="5.06" ry="5.06"/><path class="cls-6" d="M27.73,17.21s.31,19.48-4.49,23L34.4,45.12,47.57,16.57l-5.43-4L36.31,14"/><path class="cls-6" d="M56.87,17.21s-.31,19.48,4.49,23L50.2,45.12,37,16.57l5.43-4L48.29,14"/><path class="cls-6" d="M27,15.87V34.34s-.6,2.42-2.19,1.48c0,0,.07,1.86,1.66,1.86H42V12.56S35.88,12.18,27,15.87Z"/><path class="cls-6" d="M57.14,15.87V34.34s.6,2.42,2.19,1.48c0,0-.06,1.86-1.65,1.86H42.14V12.56S48.27,12.18,57.14,15.87Z"/><path class="cls-3" d="M27.73,17.93V30.52a14.28,14.28,0,0,0,28.56,0V17.93Z"/><circle class="cls-2" cx="31.6" cy="25.24" r="1.15"/><circle class="cls-2" cx="53.01" cy="25.27" r="1.15"/><circle class="cls-3" cx="58.13" cy="23.24" r="2.75"/><circle class="cls-3" cx="56.43" cy="26.68" r="2.4"/><circle class="cls-3" cx="26.03" cy="23.24" r="2.75"/><circle class="cls-3" cx="27.74" cy="26.68" r="2.4"/><polygon class="cls-6" points="39.19 32.06 44.83 32.06 42.01 21.75 39.19 32.06"/><rect class="cls-3" x="22.7" y="42.81" width="37.46" height="10.04" rx="5.02" ry="5.02"/><rect class="cls-3" x="55.25" y="43.97" width="5.92" height="16.43" rx="2.96" ry="2.96"/><rect class="cls-3" x="21.95" y="43.97" width="5.92" height="16.43" rx="2.96" ry="2.96"/><rect class="cls-3" x="55.25" y="58.45" width="5.92" height="16.43" rx="2.96" ry="2.96"/><rect class="cls-3" x="21.95" y="58.45" width="5.92" height="16.43" rx="2.96" ry="2.96"/><polygon class="cls-6" points="27.88 32.55 56.43 32.55 56.43 47.7 54.02 47.14 52.46 49.98 50.26 48.12 48.36 51.44 44.83 49.52 42.97 50.08 38.39 50.78 37.37 52.19 35.25 49.52 31.13 51.44 31.13 48.4 29.4 48.12 27.02 38.44 27.88 32.55"/><rect class="cls-3" x="37.6" y="34.3" width="8.31" height="1.36" rx="0.68" ry="0.68"/><path class="cls-6" d="M37.15,58.8c0,1.55-2.8,5.51-2.8,5.51s-2.8-4-2.8-5.51a2.8,2.8,0,1,1,5.6,0Z"/><rect class="cls-4" x="32.22" y="53.52" width="4.25" height="3.76" rx="1.88" ry="1.88"/><rect class="cls-6" x="32.09" y="49.33" width="4.39" height="6.08" rx="2.2" ry="2.2"/><rect class="cls-4" x="32.22" y="46.74" width="4.25" height="3.76" rx="1.88" ry="1.88"/><rect class="cls-6" x="32.09" y="37.24" width="4.39" height="10.94" rx="2.2" ry="2.2"/><path class="cls-6" d="M53.53,58.8c0,1.55-2.8,5.51-2.8,5.51s-2.8-4-2.8-5.51a2.8,2.8,0,0,1,5.6,0Z"/><rect class="cls-4" x="48.61" y="53.52" width="4.25" height="3.76" rx="1.88" ry="1.88"/><rect class="cls-6" x="48.47" y="49.33" width="4.39" height="6.08" rx="2.2" ry="2.2"/><rect class="cls-4" x="48.61" y="46.74" width="4.25" height="3.76" rx="1.88" ry="1.88"/><rect class="cls-6" x="48.47" y="37.24" width="4.39" height="10.94" rx="2.2" ry="2.2"/><polyline class="cls-6" points="27.41 17.14 28.93 22.04 31.6 17.46 32.75 23.69 35.99 17.14 36.38 21.4 39.62 17.14 42.54 19.56 45.59 17.14 46.3 21.75 50.24 17.46 51.86 21.75 54.16 17.46 55.25 20.42 56.43 17.14"/><circle class="cls-7" cx="41.75" cy="67.21" r="4.94"/><circle class="cls-5" cx="41.75" cy="68.61" r="4.94"/><rect class="cls-8" x="57.68" y="69.67" width="16.47" height="3.88" rx="1.94" ry="1.94"/><rect class="cls-9" x="70.31" y="62.07" width="13.31" height="19.07" rx="2.64" ry="2.64"/><circle class="cls-2" cx="48.74" cy="32.09" r="0.46"/></svg>