<svg id="Layer_1" data-name="Layer 1" xmlns="http://www.w3.org/2000/svg" viewBox="0 0 100 100"><defs><style>.cls-1{fill:#518da6;}.cls-2{fill:#457c92;}.cls-3{fill:#231f20;}.cls-4{fill:#6ab7d8;}.cls-5{fill:#60a5c3;}.cls-6{fill:#007f64;}.cls-7{fill:#008b6e;}.cls-8{fill:#01604a;}.cls-9{fill:#09a481;}.cls-10{fill:#007359;}.cls-11{fill:#221f1f;}.cls-12{fill:#885e59;}.cls-13{fill:#02896c;}.cls-14{fill:#09a582;}.cls-15{fill:#895e59;}.cls-16{fill:#00a69c;}</style></defs><title>world turtle</title><rect class="cls-1" x="61.67" y="31.56" width="23.17" height="11.49" rx="5.75" ry="5.75" transform="translate(8.33 -13.12) rotate(10.84)"/><rect class="cls-1" x="61.97" y="30.26" width="13.3" height="10" rx="5" ry="5" transform="translate(7.86 -12.28) rotate(10.84)"/><rect class="cls-1" x="69.91" y="28.12" width="7.02" height="11.07" rx="3.51" ry="3.51" transform="translate(20.23 -27.12) rotate(24.18)"/><rect class="cls-2" x="71" y="30.38" width="3.07" height="6.2" rx="1.53" ry="1.53" transform="translate(20.08 -26.77) rotate(24.18)"/><path class="cls-1" d="M63.86,37a1.15,1.15,0,0,0-.9-1.34,1.14,1.14,0,1,0,.43-2.23L61.14,33a1.14,1.14,0,1,0-.43,2.23,1.14,1.14,0,0,0-.43,2.24,1.13,1.13,0,1,0-.42,2.23,1.14,1.14,0,1,0-.43,2.24A1.14,1.14,0,1,0,59,44.13l2.25.43a1.14,1.14,0,0,0,.43-2.23,1.14,1.14,0,0,0,1.33-.9,1.15,1.15,0,0,0-.91-1.34,1.14,1.14,0,1,0,.43-2.23A1.13,1.13,0,0,0,63.86,37Z"/><path class="cls-1" d="M74.08,28.64a6.34,6.34,0,0,1,5,.44l-.83.66,1,.72-1,.07,1,1.35a5.19,5.19,0,0,0-2.8,2.17"/><circle class="cls-3" cx="67.9" cy="33.29" r="0.59"/><rect class="cls-1" x="65.11" y="39.71" width="3.17" height="5.96" rx="1.58" ry="1.58" transform="translate(9.22 -11.79) rotate(10.84)"/><rect class="cls-1" x="67.57" y="40.18" width="3.17" height="5.96" rx="1.58" ry="1.58" transform="translate(9.36 -12.24) rotate(10.84)"/><rect class="cls-1" x="75.35" y="41.67" width="3.17" height="5.96" rx="1.58" ry="1.58" transform="translate(9.77 -13.68) rotate(10.84)"/><rect class="cls-1" x="77.82" y="42.14" width="3.17" height="5.96" rx="1.58" ry="1.58" transform="translate(9.91 -14.13) rotate(10.84)"/><circle class="cls-1" cx="62.86" cy="33.77" r="2.29"/><rect class="cls-1" x="37.24" y="30.68" width="23.17" height="11.49" rx="5.75" ry="5.75" transform="translate(103.63 63.03) rotate(169.16)"/><rect class="cls-1" x="46.81" y="29.38" width="13.3" height="10" rx="5" ry="5" transform="matrix(-0.98, 0.19, -0.19, -0.98, 112.43, 58.09)"/><rect class="cls-1" x="45.14" y="27.24" width="7.02" height="11.07" rx="3.51" ry="3.51" transform="translate(106.47 42.74) rotate(155.82)"/><rect class="cls-2" x="48.01" y="29.5" width="3.07" height="6.2" rx="1.53" ry="1.53" transform="translate(108.1 42.05) rotate(155.82)"/><path class="cls-1" d="M58.22,36.08a1.15,1.15,0,0,1,.9-1.34,1.14,1.14,0,0,1-.43-2.23l2.25-.43a1.14,1.14,0,0,1,.43,2.23,1.14,1.14,0,0,1,.43,2.24,1.14,1.14,0,1,1,.43,2.23A1.14,1.14,0,0,1,62.65,41a1.14,1.14,0,1,1,.43,2.24l-2.25.43a1.14,1.14,0,0,1-.42-2.24A1.14,1.14,0,1,1,60,39.22,1.14,1.14,0,0,1,59.55,37,1.14,1.14,0,0,1,58.22,36.08Z"/><path class="cls-1" d="M48,27.76a6.32,6.32,0,0,0-5,.45l.84.65-1,.72,1,.07-1,1.36a5.11,5.11,0,0,1,2.8,2.16"/><circle class="cls-3" cx="54.18" cy="32.42" r="0.59"/><rect class="cls-1" x="53.8" y="38.83" width="3.17" height="5.96" rx="1.58" ry="1.58" transform="matrix(-0.98, 0.19, -0.19, -0.98, 117.65, 72.46)"/><rect class="cls-1" x="51.34" y="39.3" width="3.17" height="5.96" rx="1.58" ry="1.58" transform="translate(112.86 73.85) rotate(169.16)"/><rect class="cls-1" x="43.56" y="40.79" width="3.17" height="5.96" rx="1.58" ry="1.58" transform="translate(97.72 78.27) rotate(169.16)"/><rect class="cls-1" x="41.1" y="41.27" width="3.17" height="5.96" rx="1.58" ry="1.58" transform="translate(92.93 79.67) rotate(169.16)"/><circle class="cls-1" cx="59.22" cy="32.89" r="2.29"/><rect class="cls-4" x="32.36" y="32.37" width="23.17" height="11.49" rx="5.75" ry="5.75" transform="translate(-8.79 13.55) rotate(-15.96)"/><rect class="cls-4" x="32.24" y="33.37" width="13.3" height="10" rx="5" ry="5" transform="translate(-9.05 12.17) rotate(-15.96)"/><rect class="cls-4" x="38.94" y="29.25" width="7.02" height="11.07" rx="3.51" ry="3.51" transform="translate(-1.55 1.98) rotate(-2.62)"/><rect class="cls-5" x="40.04" y="31.93" width="3.07" height="6.2" rx="1.53" ry="1.53" transform="translate(-1.56 1.94) rotate(-2.62)"/><path class="cls-4" d="M35.41,42A1.14,1.14,0,0,0,34,41.26a1.14,1.14,0,1,0-.63-2.19l-2.2.63a1.14,1.14,0,0,0,.63,2.19,1.13,1.13,0,0,0,.62,2.18,1.14,1.14,0,1,0,.63,2.19,1.14,1.14,0,1,0,.63,2.19,1.14,1.14,0,1,0,.62,2.19L36.5,50a1.14,1.14,0,0,0-.62-2.19,1.14,1.14,0,0,0-.63-2.19,1.14,1.14,0,0,0-.63-2.19A1.13,1.13,0,0,0,35.41,42Z"/><path class="cls-4" d="M40.78,30a6.31,6.31,0,0,1,4.64-1.85l-.46,1,1.25.18-.83.5,1.53.74a5.13,5.13,0,0,0-1.52,3.2"/><circle class="cls-3" cx="37.36" cy="36.95" r="0.59"/><rect class="cls-4" x="38.93" y="42.9" width="3.17" height="5.96" rx="1.58" ry="1.58" transform="translate(-11.05 12.91) rotate(-15.96)"/><rect class="cls-4" x="41.35" y="42.21" width="3.17" height="5.96" rx="1.58" ry="1.58" transform="translate(-10.77 13.55) rotate(-15.96)"/><rect class="cls-4" x="48.96" y="40.03" width="3.17" height="5.96" rx="1.58" ry="1.58" transform="translate(-9.88 15.56) rotate(-15.96)"/><rect class="cls-4" x="51.37" y="39.34" width="3.17" height="5.96" rx="1.58" ry="1.58" transform="translate(-9.6 16.19) rotate(-15.96)"/><circle class="cls-4" cx="33.08" cy="39.64" r="2.29"/><rect class="cls-4" x="68.48" y="35.49" width="23.17" height="11.49" rx="5.75" ry="5.75" transform="translate(135.69 112.06) rotate(-155.39)"/><rect class="cls-4" x="78.38" y="37.25" width="13.3" height="10" rx="5" ry="5" transform="translate(144.74 116.06) rotate(-155.39)"/><rect class="cls-4" x="78.53" y="32.62" width="7.02" height="11.07" rx="3.51" ry="3.51" transform="translate(155.05 91.61) rotate(-168.73)"/><rect class="cls-5" x="81.34" y="35.43" width="3.07" height="6.2" rx="1.53" ry="1.53" transform="translate(156.61 92.52) rotate(-168.73)"/><path class="cls-4" d="M87.92,46.39a1.14,1.14,0,0,1,1.51-.56,1.14,1.14,0,1,1,.95-2.07l2.08,1a1.14,1.14,0,0,1-.95,2.07,1.14,1.14,0,0,1-1,2.07,1.14,1.14,0,1,1-1,2.07A1.14,1.14,0,1,1,88.67,53a1.14,1.14,0,1,1-1,2.07l-2.08-1a1.14,1.14,0,1,1,1-2.07A1.14,1.14,0,0,1,87.53,50a1.14,1.14,0,0,1,1-2.07A1.14,1.14,0,0,1,87.92,46.39Z"/><path class="cls-4" d="M84.42,33.69a6.33,6.33,0,0,0-4.31-2.52l.3,1-1.26,0,.75.62-1.62.51a5.16,5.16,0,0,1,1,3.39"/><circle class="cls-3" cx="86.76" cy="41.07" r="0.59"/><rect class="cls-4" x="80.71" y="46.44" width="3.17" height="5.96" rx="1.58" ry="1.58" transform="translate(136.53 128.62) rotate(-155.39)"/><rect class="cls-4" x="78.43" y="45.4" width="3.17" height="5.96" rx="1.58" ry="1.58" transform="translate(132.61 125.68) rotate(-155.39)"/><rect class="cls-4" x="71.22" y="42.1" width="3.17" height="5.96" rx="1.58" ry="1.58" transform="translate(120.23 116.38) rotate(-155.39)"/><rect class="cls-4" x="68.94" y="41.06" width="3.17" height="5.96" rx="1.58" ry="1.58" transform="translate(116.31 113.44) rotate(-155.39)"/><circle class="cls-4" cx="90.58" cy="44.38" r="2.29"/><path class="cls-6" d="M96.43,81.58a37.32,37.32,0,0,0-74.64,0Z"/><path class="cls-7" d="M32.89,77.77s0,0,0,.07v7.57a5.4,5.4,0,1,0,10.79,0V77.84s0,0,0-.07Z"/><path class="cls-7" d="M51.29,77.77s0,0,0,.07v7.57a5.4,5.4,0,1,0,10.79,0V77.84s0,0,0-.07Z"/><path class="cls-8" d="M54.55,78.19a11.75,11.75,0,1,0-23,3.39H54A11.49,11.49,0,0,0,54.55,78.19Z"/><path class="cls-9" d="M29.52,55.31s0,.21,0,.6.23,1.47-.21.61a2,2,0,0,0-.29-.3c-.12-.11-.26-.2-.26-.13a1.7,1.7,0,0,0-.26.27l-.1.51c0,.25.08.5.13.76l.41,1c.23.34.42.73.72,1.12a18.79,18.79,0,0,0,2.24,2.51,32.89,32.89,0,0,0,3.11,2.62c1.15.87,2.41,1.71,3.7,2.54A108.57,108.57,0,0,0,54.5,75.32c4.57,1.89,7.74,2.92,7.74,2.92S59,78.91,54,79.53a117.78,117.78,0,0,1-19,.89c-1.8-.09-3.62-.22-5.45-.46A50.09,50.09,0,0,1,24,79a39.22,39.22,0,0,1-5.42-1.64C17.7,77,16.81,76.6,16,76.22s-1.72-.93-2.53-1.4-1.61-1.1-2.36-1.65S9.6,71.9,8.94,71.29s-1.26-1.37-1.8-2a8.81,8.81,0,0,1-.86-1.19c-.28-.45-.55-.88-.79-1.3a19.63,19.63,0,0,0-1.41-2.43l-.32-.51a14,14,0,1,1,25.76-8.61Z"/><path class="cls-6" d="M96.43,81.58A37.26,37.26,0,0,0,42.58,48.16v18.3h.22A11.75,11.75,0,0,1,54.55,78.19,11.49,11.49,0,0,1,54,81.58Z"/><path class="cls-10" d="M97.91,83.67H20.49a2.09,2.09,0,1,1,0-4.17H97.91a2.09,2.09,0,1,1,0,4.17Z"/><polygon class="cls-10" points="63.84 54.17 61.72 50.52 63.84 46.85 68.06 46.85 70.17 50.52 68.06 54.17 63.84 54.17"/><polygon class="cls-10" points="71.5 58.6 69.39 54.94 71.5 51.28 75.73 51.28 77.84 54.94 75.73 58.6 71.5 58.6"/><polygon class="cls-10" points="71.78 67.59 69.67 63.93 71.78 60.27 76.01 60.27 78.12 63.93 76.01 67.59 71.78 67.59"/><polygon class="cls-10" points="78.86 63 76.75 59.34 78.86 55.69 83.09 55.69 85.2 59.34 83.09 63 78.86 63"/><polygon class="cls-10" points="63.84 63 61.72 59.34 63.84 55.69 68.06 55.69 70.17 59.34 68.06 63 63.84 63"/><path class="cls-9" d="M66.33,72.45A5.4,5.4,0,0,0,61,77.77H71.72A5.41,5.41,0,0,0,66.33,72.45Z"/><path class="cls-9" d="M61,77.77s0,0,0,.07v7.57a5.4,5.4,0,1,0,10.79,0V77.84s0,0,0-.07Z"/><path class="cls-9" d="M86.45,72.45a5.4,5.4,0,0,0-5.38,5.32H91.84A5.41,5.41,0,0,0,86.45,72.45Z"/><path class="cls-9" d="M81.07,77.77s0,0,0,.07v7.57a5.4,5.4,0,1,0,10.79,0V77.84s0,0,0-.07Z"/><rect class="cls-8" y="54.38" width="10.31" height="3.07" rx="0.77" ry="0.77"/><circle class="cls-8" cx="21.42" cy="52.19" r="3.2"/><circle class="cls-11" cx="21.42" cy="51.59" r="1.41"/><circle class="cls-8" cx="19.37" cy="57.31" r="0.74"/><circle class="cls-8" cx="21.65" cy="59.72" r="0.74"/><circle class="cls-8" cx="23.35" cy="57.31" r="0.74"/><circle class="cls-8" cx="17.47" cy="66.69" r="0.92"/><circle class="cls-8" cx="32.42" cy="73.93" r="1.36"/><circle class="cls-8" cx="33.33" cy="67.81" r="0.45"/><circle class="cls-8" cx="43.11" cy="75.42" r="0.31"/><ellipse class="cls-8" cx="9.5" cy="48.4" rx="1" ry="1.13"/><ellipse class="cls-8" cx="5.36" cy="48.4" rx="0.95" ry="1.08"/><path class="cls-12" d="M87.94,31.7c0,2.56-12.2,4.63-27.25,4.63S33.45,34.26,33.45,31.7,45.64,14.88,60.69,14.88,87.94,29.15,87.94,31.7Z"/><rect class="cls-12" x="33.45" y="29.16" width="54.49" height="2.83"/><path class="cls-4" d="M87.94,28.94c0,2.56-12.2,4.63-27.25,4.63S33.45,31.5,33.45,28.94,38.79,9.19,60.69,9.19C83.29,9.19,87.94,26.39,87.94,28.94Z"/><ellipse class="cls-1" cx="60.69" cy="28.94" rx="27.25" ry="4.63"/><path class="cls-13" d="M43.22,31.72a4,4,0,0,1-.58,0c-1.71-.21-3.56-1.26-3.48-2.37V29.1l.2-.23a.72.72,0,0,1,.57-.13,2.2,2.2,0,0,0,1.5-.42c.93-.54,1.34-.82,1.61-1A4.09,4.09,0,0,1,47,26.84c.52.11,1.12.23,1.87.33a16.48,16.48,0,0,0,3.73.07,6.83,6.83,0,0,1,3.83.51,3.08,3.08,0,0,0,.58.14c.74.13,2,.36,1.92,1.48s-1.6,2.13-3,2.19a3.32,3.32,0,0,1-2.1-.71A5.93,5.93,0,0,0,52.11,30a7.18,7.18,0,0,0-3.13,0,11.48,11.48,0,0,0-3.31,1A5.62,5.62,0,0,1,43.22,31.72Zm-2.8-2a4.79,4.79,0,0,0,2.34,1,4.36,4.36,0,0,0,2.51-.55,11.9,11.9,0,0,1,3.56-1.08,8.44,8.44,0,0,1,3.54,0,7.06,7.06,0,0,1,2,.93,2.45,2.45,0,0,0,1.53.56c1,0,2-.74,2-1.23,0-.24-.51-.35-1.1-.46a3.41,3.41,0,0,1-.81-.21,5.91,5.91,0,0,0-3.35-.43,17.66,17.66,0,0,1-3.93-.07c-.78-.1-1.4-.23-1.94-.34a3.89,3.89,0,0,0-2.62,0,2.37,2.37,0,0,0-.53.31c-.28.19-.72.49-1.67,1A3.94,3.94,0,0,1,40.42,29.74Z"/><path class="cls-13" d="M73.62,33A14.15,14.15,0,0,1,72,32.87c-1.12-.14-5.25-1-5.11-2.47.1-1,1.66-1.26,5-1.63-.76-.08-1.6-.15-2.29-.21-3.84-.33-4.26-.39-4.25-1s.48-.57,1.28-.64a22.31,22.31,0,0,0,3.35-.51,16.13,16.13,0,0,0,3.09-1,5.26,5.26,0,0,1,2.75-.63c2.39.14,5.12,1.72,5.19,3.64S78.66,31.5,77.77,32A8.69,8.69,0,0,1,73.62,33Zm-5.69-2.48a9.5,9.5,0,0,0,4.17,1.36,8.52,8.52,0,0,0,5.2-.77c1.8-1,2.69-1.88,2.66-2.71,0-1.21-2.2-2.56-4.25-2.68a4.35,4.35,0,0,0-2.3.55,18.44,18.44,0,0,1-3.26,1.1l-.84.18.32,0c4.64.41,5.23.54,5.24,1.22h0c0,.66-.66.74-2.89,1A16.66,16.66,0,0,0,67.93,30.51Z"/><path class="cls-13" d="M60.29,27.29A11.35,11.35,0,0,1,54,25.75l-.39-.26.24-.41A5.08,5.08,0,0,1,57,23a4.35,4.35,0,0,0,1.94-.86,5.4,5.4,0,0,1,1.16-.7c1.53-.67,3.44.71,3.52.77l.15.11,0,.17c.27,1,.92,2.49,1.46,2.53a4,4,0,0,0,1-.05c.3,0,.63-.1.85.19a.7.7,0,0,1,0,.73c-.1.23-.33.42-1.21.67A22.39,22.39,0,0,1,60.29,27.29ZM55,25.21c2.76,1.53,7.17,1.15,9.62.66-1-.55-1.58-2.26-1.77-2.94a2.93,2.93,0,0,0-2.39-.56,4.33,4.33,0,0,0-1,.58,5.23,5.23,0,0,1-2.32,1A4.25,4.25,0,0,0,55,25.21Z"/><path class="cls-14" d="M39.65,28.94c0,.69,1.46,1.65,3.05,1.84,2.19.26,2.81-1.15,6.2-1.63a7.67,7.67,0,0,1,3.34,0c1.82.5,2.26,1.56,3.66,1.5,1.19,0,2.48-.87,2.5-1.71s-1.62-1.69-2.2-2c-2.52-1.13-3.51,0-7.42-.55-2.47-.32-3.4-.92-4.83-.29-.54.24-.51.36-2.25,1.38C40.13,28.44,39.68,28.58,39.65,28.94Z"/><path class="cls-14" d="M54.26,24.94s.81-2.62,2.81-3.09,1.91-1,3.19-1.59,3,.71,3,.71.72,2.82,1.91,2.91,1.72.91,1.5,1.42S58.23,27.66,54.26,24.94Z"/><path class="cls-14" d="M74.37,28.29c0,.51-6.89.51-7,1.66-.07.73,2.58,1.66,4.67,1.92a9,9,0,0,0,5.5-.83c.76-.41,3-1.61,2.91-3.17s-2.57-3-4.72-3.16c-1.91-.11-2.37.88-5.69,1.66-2.54.59-4.25.48-4.25.67C65.78,27.46,74.36,27.71,74.37,28.29Z"/><path class="cls-15" d="M42.94,23l1.42.57a.39.39,0,0,1,0,.72l-1,.38a.39.39,0,0,1-.49-.2l-.43-1A.38.38,0,0,1,42.94,23Z"/><path class="cls-15" d="M42.55,24.27l1.51.23a.38.38,0,0,1,.16.7l-.86.59a.37.37,0,0,1-.52-.08l-.65-.82A.39.39,0,0,1,42.55,24.27Z"/><path class="cls-15" d="M42.45,25.67,44,25.51a.39.39,0,0,1,.33.64l-.69.79a.38.38,0,0,1-.52.06l-.84-.64A.39.39,0,0,1,42.45,25.67Z"/><path class="cls-15" d="M42.66,26.86l1.45-.47a.39.39,0,0,1,.46.55l-.51.92a.39.39,0,0,1-.5.17l-1-.45A.39.39,0,0,1,42.66,26.86Z"/><path class="cls-15" d="M43.58,21.61l1.31.88a.4.4,0,0,1-.15.72l-1.07.18a.41.41,0,0,1-.46-.3L43,22A.4.4,0,0,1,43.58,21.61Z"/><path class="cls-16" d="M41.09,20.56a4.12,4.12,0,0,0-2.65,1.62l5.69-1A4.06,4.06,0,0,0,41.09,20.56Z"/><path class="cls-16" d="M41.66,21.82a3.66,3.66,0,0,0-1.58,3l5-3.21A3.66,3.66,0,0,0,41.66,21.82Z"/><path class="cls-16" d="M46.33,23.3a2.64,2.64,0,0,0-1.84-1.21l2.16,3.39A2.7,2.7,0,0,0,46.33,23.3Z"/><path class="cls-16" d="M46.77,22A3.26,3.26,0,0,0,44,22l4.57,2.13A3.24,3.24,0,0,0,46.77,22Z"/><path class="cls-16" d="M43.31,21.18a1,1,0,0,1,1.7,1"/></svg>