<svg id="Layer_1" data-name="Layer 1" xmlns="http://www.w3.org/2000/svg" viewBox="0 0 100 100"><defs><style>.cls-1{fill:#895e59;}.cls-2{fill:#76504b;}.cls-3{fill:#6ab7d8;}.cls-4{fill:#008c83;}.cls-5{fill:#009b92;}.cls-6{fill:#069274;}.cls-7{fill:#4a4a4c;}.cls-8{fill:#58595b;}.cls-9{fill:#00a69c;}.cls-10{fill:#00948b;}.cls-11{fill:#fff;}.cls-12{fill:#ffc540;}.cls-13{fill:#f7993e;}</style></defs><title>yggdrasil</title><rect class="cls-1" x="37.04" y="79.07" width="3.65" height="15.64" rx="1.82" ry="1.82"/><rect class="cls-1" x="43.66" y="81.98" width="3.65" height="15.64" rx="1.82" ry="1.82"/><rect class="cls-1" x="50.15" y="76.54" width="3.65" height="15.64" rx="1.82" ry="1.82"/><rect class="cls-1" x="57.66" y="84.36" width="3.65" height="15.64" rx="1.82" ry="1.82"/><rect class="cls-1" x="45.48" y="35.24" width="8.06" height="50.13" rx="4.03" ry="4.03"/><rect class="cls-2" x="46.87" y="78.66" width="6.23" height="2.2" rx="1.1" ry="1.1"/><path class="cls-2" d="M45.48,72.34h2.45a1.1,1.1,0,0,1,1.1,1.1h0a1.1,1.1,0,0,1-1.1,1.1H45.48"/><ellipse class="cls-3" cx="49.81" cy="81.98" rx="29.14" ry="5.77"/><ellipse class="cls-4" cx="49.52" cy="81.11" rx="24.74" ry="4.9"/><rect class="cls-4" x="24.77" y="78.4" width="49.49" height="2.71"/><ellipse class="cls-5" cx="49.52" cy="78.4" rx="24.74" ry="4.9"/><ellipse class="cls-6" cx="50.61" cy="79.07" rx="7.53" ry="1.95"/><path class="cls-7" d="M54.18,74l.68-.23a6.38,6.38,0,0,0-4.25-2.07c-3.29,0-5.17.88-6.24,2l.74.23Z"/><path class="cls-8" d="M54.86,73.81l-.65.26h0l.06.33-.06-.33-9-.15,0,0,0,0h0l-.83-.14c-1.77,1.93-1.3,4.62-1.3,5.29,0,1.08,3.38,2,7.54,2s7.53-.87,7.53-2C58.14,78.4,56.84,75.74,54.86,73.81Z"/><path class="cls-8" d="M59.25,80.05c-.61.75-1.45,1.18-3.24,1.18s-3.24-.21-3.24-1.18,1.45-1.77,3.24-1.77S59.73,79.47,59.25,80.05Z"/><path class="cls-7" d="M57.84,79.41l1.23,0a3.59,3.59,0,0,0-2.41-1.18,4.56,4.56,0,0,0-3.56,1.17l1.09.1Z"/><path class="cls-7" d="M54.86,73.88c0,.27-2.35.89-5.25.89s-5.24-.71-5.24-1,2.35,0,5.24,0S54.86,73.6,54.86,73.88Z"/><path class="cls-7" d="M59.07,79.38a7.15,7.15,0,0,1-3,.42,7.61,7.61,0,0,1-3-.41,19.15,19.15,0,0,1,3,0C57.77,79.37,59.07,79.33,59.07,79.38Z"/><circle class="cls-7" cx="46.24" cy="75.39" r="0.18"/><circle class="cls-7" cx="46.89" cy="76.46" r="0.18"/><circle class="cls-7" cx="49.83" cy="76.46" r="0.18"/><circle class="cls-7" cx="52.77" cy="76.46" r="0.18"/><circle class="cls-7" cx="47.67" cy="75.39" r="0.18"/><circle class="cls-7" cx="50.54" cy="75.39" r="0.18"/><circle class="cls-7" cx="49.02" cy="75.39" r="0.18"/><circle class="cls-7" cx="51.97" cy="75.39" r="0.18"/><circle class="cls-7" cx="53.41" cy="75.39" r="0.18"/><path class="cls-1" d="M45.48,66.66v5.52a4,4,0,0,0,8.07,0V66.66Z"/><path class="cls-2" d="M45.48,71.74h2.45a1.1,1.1,0,0,0,1.1-1.1h0a1.1,1.1,0,0,0-1.1-1.1H45.48"/><rect class="cls-1" x="47.12" y="43.9" width="26.41" height="3.26" rx="1.63" ry="1.63" transform="translate(135.17 35.08) rotate(135)"/><rect class="cls-1" x="25.16" y="50.72" width="26.41" height="3.26" rx="1.63" ry="1.63" transform="translate(48.26 -11.79) rotate(45)"/><path class="cls-5" d="M77.58,41.27A18.13,18.13,0,0,1,51.93,15.63C59,8.55,86.12,7.08,86.12,7.08S84.66,34.19,77.58,41.27Z"/><path class="cls-5" d="M80.86,18.2a1,1,0,0,1,.6.9c0,.58,0,1.25,0,2L79.26,22Z"/><path class="cls-9" d="M79.26,22l2.21-.89c0,1.11,0,2.34-.07,3.5l-3.93,1.58Z"/><path class="cls-5" d="M77.47,26.14l3.93-1.58c0,.75-.07,1.47-.13,2.13l-4.86,1.95Z"/><path class="cls-9" d="M81.27,26.69a10.23,10.23,0,0,1-.48,2.73c-.64,1.49-3,2-4.51,2.19a2,2,0,0,1-1.07-.15l1.2-2.82Z"/><path class="cls-5" d="M74.7,11.7a1.72,1.72,0,0,0-1.84-.55l-3.31,1-.37,4.2Z"/><path class="cls-9" d="M69.18,16.34l.37-4.2c-1.89.59-4,1.25-5.9,1.93L63,21.53Z"/><path class="cls-5" d="M63,21.53l.65-7.46c-1.25.43-2.44.88-3.53,1.31l-.81,9.24Z"/><path class="cls-9" d="M60.12,15.38a18.61,18.61,0,0,0-4.37,2.22c-2.21,1.85-1.85,6.18-1.4,8.76a3.73,3.73,0,0,0,.81,1.74l4.15-3.48Z"/><path class="cls-5" d="M22.42,41.27A18.13,18.13,0,1,0,48.07,15.63C41,8.55,13.88,7.08,13.88,7.08S15.34,34.19,22.42,41.27Z"/><path class="cls-5" d="M19.14,18.2a1,1,0,0,0-.6.9c0,.58,0,1.25,0,2l2.21.89Z"/><path class="cls-9" d="M20.74,22l-2.21-.89c0,1.11,0,2.34.07,3.5l3.93,1.58Z"/><path class="cls-5" d="M22.53,26.14,18.6,24.56c0,.75.07,1.47.13,2.13l4.86,1.95Z"/><path class="cls-9" d="M18.73,26.69a10.23,10.23,0,0,0,.48,2.73c.64,1.49,3,2,4.51,2.19a2,2,0,0,0,1.07-.15l-1.2-2.82Z"/><path class="cls-5" d="M25.3,11.7a1.72,1.72,0,0,1,1.84-.55l3.31,1,.37,4.2Z"/><path class="cls-9" d="M30.82,16.34l-.37-4.2c1.89.59,3.95,1.25,5.9,1.93L37,21.53Z"/><path class="cls-5" d="M37,21.53l-.65-7.46c1.25.43,2.44.88,3.53,1.31l.81,9.24Z"/><path class="cls-9" d="M39.88,15.38a18.61,18.61,0,0,1,4.37,2.22c2.21,1.85,1.85,6.18,1.4,8.76a3.73,3.73,0,0,1-.81,1.74l-4.15-3.48Z"/><path class="cls-10" d="M44.71,35.19a8.83,8.83,0,0,1-14.84,9.59c-2.64-4.1.22-15.94.22-15.94S42.06,31.09,44.71,35.19Z"/><path class="cls-10" d="M68.68,19.28a6.81,6.81,0,1,1-11.43-7.4C59.3,8.72,68.53,7,68.53,7S70.73,16.13,68.68,19.28Z"/><path class="cls-10" d="M39.07,19a3.68,3.68,0,0,1-6,4.25c-1.18-1.67-.18-6.65-.18-6.65S37.9,17.31,39.07,19Z"/><rect class="cls-1" x="51.52" y="54.2" width="11.88" height="1.47" rx="0.73" ry="0.73" transform="translate(114.92 109.86) rotate(-180)"/><path class="cls-5" d="M67.65,30.22a18.14,18.14,0,0,1-36.27,0C31.38,20.21,49.52,0,49.52,0S67.65,20.21,67.65,30.22Z"/><path class="cls-9" d="M66.54,37.37A4,4,0,0,1,61,38.64c-1.88-1.18-1.27-5.53-1.27-5.53s3.66-2.45,5.53-1.27A4,4,0,0,1,66.54,37.37Z"/><path class="cls-9" d="M70,53.56s-1.07,5.81-4,6.52a5.39,5.39,0,0,1-2.56-10.47C66.38,48.9,70,53.56,70,53.56Z"/><rect class="cls-2" x="46.87" y="50.41" width="3.12" height="1.1" rx="0.55" ry="0.55"/><rect class="cls-2" x="48.8" y="57.6" width="4.06" height="1.43" rx="0.72" ry="0.72"/><path class="cls-2" d="M53.69,69.91H51.24a1.1,1.1,0,0,1-1.1-1.1h0a1.1,1.1,0,0,1,1.1-1.09h2.45"/><path class="cls-5" d="M53.65,11.58a1,1,0,0,1,1.07.22c.42.4.89.87,1.39,1.37l-.93,2.19Z"/><path class="cls-9" d="M55.18,15.36l.93-2.19c.78.8,1.63,1.67,2.43,2.53l-1.66,3.89Z"/><path class="cls-5" d="M56.88,19.59l1.66-3.89c.5.55,1,1.09,1.41,1.59L57.9,22.11Z"/><path class="cls-9" d="M60,17.29a10.87,10.87,0,0,1,1.59,2.27c.61,1.51-.72,3.57-1.63,4.74A2.1,2.1,0,0,1,59,25L57.9,22.11Z"/><path class="cls-5" d="M44.71,11.34a1.76,1.76,0,0,0-1.7.91c-.49.91-1,1.94-1.63,3.05l2.7,3.23Z"/><path class="cls-9" d="M44.08,18.53l-2.7-3.23c-.93,1.75-1.92,3.67-2.81,5.53l4.81,5.74Z"/><path class="cls-5" d="M43.38,26.57l-4.81-5.74C38,22,37.46,23.18,37,24.26l6,7.1Z"/><path class="cls-9" d="M37,24.26a18.23,18.23,0,0,0-1.52,4.66c-.26,2.87,3.06,5.68,5.21,7.18a3.72,3.72,0,0,0,1.8.66l.47-5.4Z"/><path class="cls-5" d="M68.84,54a.6.6,0,0,0-.41-.5l-1.11-.35-.89,1.09Z"/><path class="cls-9" d="M66.43,54.23l.89-1.09c-.63-.19-1.32-.4-2-.58l-1.59,1.95Z"/><path class="cls-5" d="M63.74,54.51l1.59-1.95c-.43-.11-.85-.22-1.23-.3l-2,2.41Z"/><path class="cls-9" d="M64.1,52.26a5.76,5.76,0,0,0-1.63-.21c-1,.09-1.68,1.36-2,2.16a1.3,1.3,0,0,0-.11.64l1.81-.18Z"/><ellipse class="cls-11" cx="49.38" cy="65.22" rx="20.62" ry="4.09"/><path class="cls-11" d="M67.81,67.05a1.72,1.72,0,0,1,0-1.14,3.31,3.31,0,0,1,.21-.46c.09-.14.22-.25.17-.23a.86.86,0,0,0,.51.13c.33,0,.82-.12,1.33-.13a.85.85,0,0,1,.89.67,2.2,2.2,0,0,1-.08.81,3.28,3.28,0,0,1-.71.82A1.39,1.39,0,0,1,67.81,67.05Z"/><path class="cls-11" d="M65,67.9a1.49,1.49,0,0,1,2.86-.85,1.45,1.45,0,0,1-1,1.92A1.48,1.48,0,0,1,65,67.9Z"/><path class="cls-11" d="M62,68.45A1.49,1.49,0,0,1,65,67.9a1.46,1.46,0,0,1-1.18,1.77A1.48,1.48,0,0,1,62,68.45Z"/><path class="cls-11" d="M59.06,68.83a1.53,1.53,0,0,1,1.29-1.67A1.51,1.51,0,0,1,62,68.45a1.49,1.49,0,1,1-3,.38Z"/><path class="cls-11" d="M56.09,69.08a1.49,1.49,0,1,1,1.61,1.39A1.5,1.5,0,0,1,56.09,69.08Z"/><path class="cls-11" d="M53.11,69.24a1.49,1.49,0,0,1,3-.16,1.49,1.49,0,1,1-3,.16Z"/><path class="cls-11" d="M50.12,69.3a1.5,1.5,0,1,1,1.53,1.49A1.5,1.5,0,0,1,50.12,69.3Z"/><path class="cls-11" d="M47.14,69.28a1.49,1.49,0,0,1,3,0,1.49,1.49,0,1,1-3,0Z"/><path class="cls-11" d="M44.15,69.17a1.5,1.5,0,1,1,1.44,1.57A1.49,1.49,0,0,1,44.15,69.17Z"/><path class="cls-11" d="M41.18,69a1.49,1.49,0,1,1,3,.2,1.49,1.49,0,1,1-3-.2Z"/><path class="cls-11" d="M38.21,68.65a1.49,1.49,0,1,1,1.32,1.68A1.51,1.51,0,0,1,38.21,68.65Z"/><path class="cls-11" d="M35.26,68.2a1.49,1.49,0,0,1,3,.45,1.49,1.49,0,1,1-3-.45Z"/><path class="cls-11" d="M32.35,67.53a1.49,1.49,0,0,1,2.91.67,1.49,1.49,0,1,1-2.91-.67Z"/><path class="cls-11" d="M29.61,66.38c.57-.62,1.18-1,1.89-.73a1.58,1.58,0,0,1,.85,1.88,1.43,1.43,0,0,1-2,.91C29.54,68.14,29,67,29.61,66.38Z"/><path class="cls-11" d="M29.61,64.07c.26.32.4.69.59.89a.67.67,0,0,0,.39.26.72.72,0,0,0-.39.27c-.19.2-.33.57-.59.89a1.1,1.1,0,0,1-1.23.33,1.54,1.54,0,0,1,0-3A1.09,1.09,0,0,1,29.61,64.07Z"/><path class="cls-11" d="M32.35,62.92a1.58,1.58,0,0,1-.85,1.88c-.71.27-1.32-.11-1.89-.73s-.07-1.76.77-2.07A1.45,1.45,0,0,1,32.35,62.92Z"/><path class="cls-11" d="M35.26,62.25a1.49,1.49,0,0,1-2.91.67,1.49,1.49,0,1,1,2.91-.67Z"/><path class="cls-11" d="M38.21,61.79a1.49,1.49,0,0,1-3,.46,1.49,1.49,0,1,1,3-.46Z"/><path class="cls-11" d="M41.18,61.48a1.49,1.49,0,0,1-3,.31,1.49,1.49,0,1,1,3-.31Z"/><path class="cls-11" d="M44.15,61.28a1.49,1.49,0,1,1-3,.2,1.49,1.49,0,1,1,3-.2Z"/><path class="cls-11" d="M47.14,61.16a1.5,1.5,0,0,1-3,.12,1.5,1.5,0,1,1,3-.12Z"/><path class="cls-11" d="M50.12,61.15a1.49,1.49,0,1,1-3,0,1.49,1.49,0,1,1,3,0Z"/><path class="cls-11" d="M53.11,61.21a1.5,1.5,0,1,1-1.46-1.55A1.52,1.52,0,0,1,53.11,61.21Z"/><path class="cls-11" d="M56.09,61.36a1.49,1.49,0,1,1-3-.15,1.49,1.49,0,1,1,3,.15Z"/><path class="cls-11" d="M59.06,61.62A1.49,1.49,0,1,1,57.7,60,1.5,1.5,0,0,1,59.06,61.62Z"/><path class="cls-11" d="M62,62a1.49,1.49,0,1,1-1.29-1.7A1.48,1.48,0,0,1,62,62Z"/><path class="cls-11" d="M65,62.55a1.51,1.51,0,0,1-1.73,1.18A1.53,1.53,0,0,1,62,62a1.49,1.49,0,1,1,2.93.55Z"/><path class="cls-11" d="M67.81,63.4A1.49,1.49,0,0,1,65,62.55a1.48,1.48,0,0,1,1.87-1.08A1.45,1.45,0,0,1,67.81,63.4Z"/><path class="cls-11" d="M70,65.22c-.51,0-1-.13-1.33-.12a.92.92,0,0,0-.51.12s-.08-.08-.17-.22a4,4,0,0,1-.21-.46,1.72,1.72,0,0,1,0-1.14,1.39,1.39,0,0,1,2.29-.47,3.28,3.28,0,0,1,.71.82,2.16,2.16,0,0,1,.08.8A.83.83,0,0,1,70,65.22Z"/><ellipse class="cls-4" cx="49.38" cy="64.15" rx="20.62" ry="4.09"/><rect class="cls-4" x="28.75" y="61.89" width="41.25" height="2.26"/><ellipse class="cls-5" cx="49.38" cy="61.89" rx="20.62" ry="4.09"/><path class="cls-12" d="M45.48,55v5.52c0,2.22,1.82,2.2,4,2.2s4,0,4-2.2V55Z"/><path class="cls-12" d="M53.55,58V54.74c0-1.29-1.82-2.35-4-2.35s-4,1.06-4,2.35V58Z"/><rect class="cls-12" x="45.48" y="51.63" width="1.56" height="3.79" rx="0.78" ry="0.78"/><rect class="cls-12" x="47.65" y="51.63" width="1.56" height="3.79" rx="0.78" ry="0.78"/><rect class="cls-12" x="49.81" y="51.63" width="1.56" height="3.79" rx="0.78" ry="0.78"/><rect class="cls-12" x="51.97" y="51.63" width="1.56" height="3.79" rx="0.78" ry="0.78"/><rect class="cls-13" x="46.26" y="55.07" width="1.36" height="2.4" rx="0.68" ry="0.68"/><rect class="cls-13" x="48.84" y="55.07" width="1.36" height="2.4" rx="0.68" ry="0.68"/><rect class="cls-13" x="51.42" y="55.07" width="1.36" height="2.4" rx="0.68" ry="0.68"/></svg>