<svg id="Layer_1" data-name="Layer 1" xmlns="http://www.w3.org/2000/svg" viewBox="0 0 100 100"><defs><style>.cls-1{fill:#fff;}.cls-2{fill:#fcca98;}.cls-3{fill:#3e3e3f;}.cls-4{fill:#f37d3b;}.cls-5{fill:#ffc640;}.cls-6{fill:#09a582;}.cls-7{fill:#089a7a;}.cls-8{fill:#069274;}</style></defs><title>zeus</title><path class="cls-1" d="M33.45,22.35s.1,9.76-5.37,10.38H43.42V20"/><path class="cls-1" d="M66.79,22.35s-.09,9.76,5.37,10.38H56.82V20"/><circle class="cls-1" cx="35.13" cy="13.46" r="2.95"/><circle class="cls-1" cx="65.23" cy="13.46" r="2.95"/><circle class="cls-1" cx="65.23" cy="23.68" r="2.95"/><circle class="cls-1" cx="64.49" cy="28.88" r="2.95"/><circle class="cls-1" cx="61.54" cy="33.19" r="2.95"/><circle class="cls-1" cx="57.91" cy="34.79" r="2.95"/><circle class="cls-1" cx="35.52" cy="23.68" r="2.95"/><circle class="cls-1" cx="36.25" cy="28.88" r="2.95"/><circle class="cls-1" cx="39.21" cy="33.19" r="2.95"/><path class="cls-2" d="M34.61,9.05V22.77a15.55,15.55,0,1,0,31.1,0V9.05Z"/><circle class="cls-3" cx="38.83" cy="17.01" r="1.25"/><circle class="cls-3" cx="62.14" cy="17.05" r="1.25"/><circle class="cls-2" cx="67.71" cy="14.83" r="2.99"/><circle class="cls-2" cx="65.86" cy="18.58" r="2.62"/><circle class="cls-2" cx="32.76" cy="14.83" r="2.99"/><circle class="cls-2" cx="34.62" cy="18.58" r="2.62"/><polygon class="cls-4" points="47.09 24.44 53.23 24.44 50.16 13.22 47.09 24.44"/><rect class="cls-2" x="35.09" y="33.31" width="30.14" height="39.73" rx="15.07" ry="15.07"/><rect class="cls-2" x="35.09" y="36.14" width="30.14" height="10.93" rx="5.47" ry="5.47"/><rect class="cls-2" x="62.49" y="37.41" width="6.44" height="17.89" rx="3.22" ry="3.22"/><rect class="cls-2" x="68.49" y="46.35" width="6.44" height="17.89" rx="3.22" ry="3.22" transform="translate(16.41 127.01) rotate(-90)"/><rect class="cls-2" x="52.61" y="60.72" width="8.93" height="31.99" rx="4.46" ry="4.46"/><rect class="cls-2" x="39.77" y="60.72" width="8.93" height="31.99" rx="4.46" ry="4.46"/><rect class="cls-2" x="31.87" y="37.41" width="6.44" height="17.89" rx="3.22" ry="3.22"/><rect class="cls-2" x="31.87" y="53.18" width="6.44" height="17.89" rx="3.22" ry="3.22"/><circle class="cls-1" cx="35.18" cy="9.37" r="1.73"/><circle class="cls-1" cx="42.5" cy="3.09" r="1.73"/><circle class="cls-1" cx="44.23" cy="3.46" r="1.73"/><circle class="cls-1" cx="46.5" cy="1.73" r="1.73"/><circle class="cls-1" cx="37.49" cy="8.22" r="1.96"/><circle class="cls-1" cx="41.76" cy="7.18" r="3.32"/><circle class="cls-1" cx="39.17" cy="5.19" r="3.32"/><circle class="cls-1" cx="47.57" cy="6.76" r="4.15"/><circle class="cls-1" cx="64.49" cy="9.37" r="1.73"/><circle class="cls-1" cx="57.18" cy="3.09" r="1.73"/><circle class="cls-1" cx="55.45" cy="3.46" r="1.73"/><circle class="cls-1" cx="53.17" cy="1.73" r="1.73"/><circle class="cls-1" cx="62.18" cy="8.22" r="1.96"/><circle class="cls-1" cx="57.91" cy="7.18" r="3.32"/><circle class="cls-1" cx="60.5" cy="5.19" r="3.32"/><circle class="cls-1" cx="52.1" cy="6.76" r="4.15"/><path class="cls-1" d="M49.38,25.18A7.84,7.84,0,0,0,42.5,25c-4,1.61-6.25-.51-6.25-.51s1.31,4.06,6.25,2.72S49.74,30.44,49.38,25.18Z"/><path class="cls-1" d="M51.37,25.18A7.84,7.84,0,0,1,58.25,25c4,1.61,6.24-.51,6.24-.51s-1.3,4.06-6.24,2.72S51,30.44,51.37,25.18Z"/><circle class="cls-1" cx="42.83" cy="34.79" r="2.95"/><circle class="cls-1" cx="39.21" cy="32.21" r="1.97"/><circle class="cls-1" cx="41.71" cy="35.15" r="2.26"/><circle class="cls-1" cx="43.96" cy="37.01" r="1.12"/><circle class="cls-1" cx="46.32" cy="36.27" r="2.09"/><circle class="cls-1" cx="43.72" cy="32.25" r="3.37"/><circle class="cls-1" cx="40.46" cy="29.77" r="2.37"/><circle class="cls-1" cx="37.24" cy="29.21" r="2.37"/><circle class="cls-1" cx="43.97" cy="28.19" r="1.81"/><circle class="cls-1" cx="42.83" cy="28.42" r="1.81"/><circle class="cls-1" cx="47.48" cy="28.13" r="2.4"/><circle class="cls-1" cx="45.06" cy="35.35" r="2.03"/><circle class="cls-1" cx="49.02" cy="32.25" r="3.37"/><circle class="cls-1" cx="57.57" cy="34.63" r="2.95"/><circle class="cls-1" cx="61.19" cy="32.05" r="1.97"/><circle class="cls-1" cx="58.69" cy="34.99" r="2.26"/><circle class="cls-1" cx="56.44" cy="36.86" r="1.12"/><circle class="cls-1" cx="54.08" cy="36.12" r="2.09"/><circle class="cls-1" cx="56.68" cy="32.09" r="3.37"/><circle class="cls-1" cx="59.94" cy="29.61" r="2.37"/><circle class="cls-1" cx="63.17" cy="29.06" r="2.37"/><circle class="cls-1" cx="56.43" cy="28.04" r="1.81"/><circle class="cls-1" cx="57.57" cy="28.27" r="1.81"/><circle class="cls-1" cx="52.92" cy="27.98" r="2.4"/><circle class="cls-1" cx="55.34" cy="35.19" r="2.03"/><circle class="cls-1" cx="51.38" cy="32.09" r="3.37"/><path class="cls-1" d="M38.13,36.54S55,54.47,66.35,53.36v20.7H36.54V36.54Z"/><polyline class="cls-5" points="74.54 53.18 79.47 53.18 72.82 71.76 91.92 46.81 84.15 46.81 90.31 34.59 82.17 34.59"/><rect class="cls-1" x="28.84" y="86.36" width="46.51" height="13.64" rx="6.82" ry="6.82"/><circle class="cls-1" cx="42.93" cy="85.51" r="9.37"/><circle class="cls-1" cx="57.15" cy="86.36" r="6.11"/><path class="cls-6" d="M31.75,8.56l.88-1.46-.7-2.82a2.85,2.85,0,0,0-1,.88,1.68,1.68,0,0,0-.22.47l.65,2.62A2.59,2.59,0,0,0,31.75,8.56Z"/><path class="cls-6" d="M31.34,8.25l-.65-2.62A2.47,2.47,0,0,0,31.34,8.25Z"/><path class="cls-7" d="M33.06,6.38,32.47,4l-.54.3.7,2.82Z"/><path class="cls-6" d="M33.78,5.2l-.41-1.63c-.3.12-.61.26-.9.41l.59,2.4Z"/><path class="cls-7" d="M35.15,2.92s-.83.25-1.78.65l.41,1.63Z"/><path class="cls-8" d="M35.15,7.72c.71-1.17,0-4.8,0-4.8l-3.4,5.64A2.48,2.48,0,0,0,35.15,7.72Z"/><path class="cls-6" d="M31.88,9.46l1.64.45L36,8.46a2.92,2.92,0,0,0-1.12-.74,2.28,2.28,0,0,0-.51-.09L32.06,9A2.5,2.5,0,0,0,31.88,9.46Z"/><path class="cls-6" d="M32.06,9l2.35-1.35A2.51,2.51,0,0,0,32.06,9Z"/><path class="cls-7" d="M34.33,10.13l2.14-1.24A5.81,5.81,0,0,0,36,8.46L33.52,9.91Z"/><path class="cls-6" d="M35.67,10.49l1.45-.84c-.2-.25-.42-.51-.65-.76l-2.14,1.24Z"/><path class="cls-7" d="M38.24,11.19s-.48-.74-1.12-1.54l-1.45.84Z"/><path class="cls-8" d="M33.62,12.5c1.32.36,4.62-1.31,4.62-1.31L31.88,9.46A2.48,2.48,0,0,0,33.62,12.5Z"/><path class="cls-6" d="M34.63,7.34l.61-1-.49-2A2.1,2.1,0,0,0,34,5a2.41,2.41,0,0,0-.15.33l.45,1.83A2.21,2.21,0,0,0,34.63,7.34Z"/><path class="cls-6" d="M34.34,7.12l-.45-1.83A1.72,1.72,0,0,0,34.34,7.12Z"/><path class="cls-7" d="M35.54,5.82l-.41-1.68-.38.21.49,2Z"/><path class="cls-6" d="M36.05,5l-.29-1.14-.63.29.41,1.68Z"/><path class="cls-7" d="M37,3.4a12.35,12.35,0,0,0-1.25.45L36.05,5Z"/><path class="cls-8" d="M37,6.75c.5-.82,0-3.35,0-3.35L34.63,7.34A1.73,1.73,0,0,0,37,6.75Z"/><path class="cls-6" d="M34.72,8l1.14.31,1.77-1a2,2,0,0,0-.79-.52,2.25,2.25,0,0,0-.36-.06l-1.63.94A1.4,1.4,0,0,0,34.72,8Z"/><path class="cls-6" d="M34.85,7.63l1.63-.94A1.72,1.72,0,0,0,34.85,7.63Z"/><path class="cls-7" d="M36.43,8.43l1.5-.86-.3-.3-1.77,1Z"/><path class="cls-6" d="M37.36,8.69l1-.59c-.14-.17-.29-.36-.45-.53l-1.5.86Z"/><path class="cls-7" d="M39.16,9.17s-.33-.51-.78-1.07l-1,.59Z"/><path class="cls-8" d="M35.93,10.09c.93.25,3.23-.92,3.23-.92L34.72,8A1.73,1.73,0,0,0,35.93,10.09Z"/><path class="cls-6" d="M37,7l.88-1.46-.7-2.82a2.85,2.85,0,0,0-1,.88,2.15,2.15,0,0,0-.22.46l.65,2.63A2.59,2.59,0,0,0,37,7Z"/><path class="cls-6" d="M36.56,6.72l-.65-2.63A2.48,2.48,0,0,0,36.56,6.72Z"/><path class="cls-7" d="M38.28,4.85l-.59-2.4c-.19.1-.37.19-.54.3l.7,2.82Z"/><path class="cls-6" d="M39,3.67,38.6,2c-.3.13-.61.27-.91.42l.59,2.4Z"/><path class="cls-7" d="M40.37,1.39s-.83.25-1.77.64L39,3.67Z"/><path class="cls-8" d="M40.37,6.19c.71-1.17,0-4.8,0-4.8L37,7A2.47,2.47,0,0,0,40.37,6.19Z"/><path class="cls-6" d="M37.1,7.93l1.64.44,2.52-1.44a2.92,2.92,0,0,0-1.12-.74,2.28,2.28,0,0,0-.51-.09L37.28,7.45A2.5,2.5,0,0,0,37.1,7.93Z"/><path class="cls-6" d="M37.28,7.45,39.63,6.1A2.51,2.51,0,0,0,37.28,7.45Z"/><path class="cls-7" d="M39.55,8.59,41.7,7.36c-.15-.15-.29-.3-.44-.43L38.74,8.37Z"/><path class="cls-6" d="M40.89,9l1.46-.84-.65-.76L39.55,8.59Z"/><path class="cls-7" d="M43.46,9.65S43,8.92,42.35,8.12L40.89,9Z"/><path class="cls-8" d="M38.84,11c1.32.36,4.62-1.32,4.62-1.32L37.1,7.93A2.48,2.48,0,0,0,38.84,11Z"/><path class="cls-6" d="M39.85,5.81l.61-1-.48-2a2.15,2.15,0,0,0-.72.61,2.41,2.41,0,0,0-.15.33l.45,1.83A2.21,2.21,0,0,0,39.85,5.81Z"/><path class="cls-6" d="M39.56,5.59l-.45-1.83A1.72,1.72,0,0,0,39.56,5.59Z"/><path class="cls-7" d="M40.77,4.29l-.42-1.68a3.25,3.25,0,0,0-.37.21l.48,2Z"/><path class="cls-6" d="M41.27,3.46,41,2.32c-.21.09-.43.18-.64.29l.42,1.68Z"/><path class="cls-7" d="M42.23,1.87A11.74,11.74,0,0,0,41,2.32l.28,1.14Z"/><path class="cls-8" d="M42.23,5.22c.49-.82,0-3.35,0-3.35L39.85,5.81A1.74,1.74,0,0,0,42.23,5.22Z"/><path class="cls-6" d="M39.94,6.44l1.15.31,1.76-1a2,2,0,0,0-.79-.52l-.35-.06-1.64.94A1.4,1.4,0,0,0,39.94,6.44Z"/><path class="cls-6" d="M40.07,6.1l1.64-.94A1.72,1.72,0,0,0,40.07,6.1Z"/><path class="cls-7" d="M41.65,6.9,43.15,6q-.15-.17-.3-.3l-1.76,1Z"/><path class="cls-6" d="M42.59,7.16l1-.59c-.14-.18-.29-.36-.45-.53l-1.5.86Z"/><path class="cls-7" d="M44.38,7.64s-.33-.51-.78-1.07l-1,.59Z"/><path class="cls-8" d="M41.16,8.56c.92.25,3.22-.92,3.22-.92l-4.44-1.2A1.72,1.72,0,0,0,41.16,8.56Z"/><path class="cls-6" d="M41.92,5.72,43.46,5l1-2.75a2.94,2.94,0,0,0-1.34.18,2.47,2.47,0,0,0-.44.27l-.89,2.55A2.38,2.38,0,0,0,41.92,5.72Z"/><path class="cls-6" d="M41.75,5.23l.89-2.55A2.49,2.49,0,0,0,41.75,5.23Z"/><path class="cls-7" d="M44.21,4.61,45,2.28l-.61,0L43.46,5Z"/><path class="cls-6" d="M45.46,4,46,2.43c-.32-.06-.66-.12-1-.15l-.82,2.33Z"/><path class="cls-7" d="M47.86,2.86S47,2.61,46,2.43L45.46,4Z"/><path class="cls-8" d="M45.23,6.88c1.23-.6,2.63-4,2.63-4L41.92,5.72A2.49,2.49,0,0,0,45.23,6.88Z"/><path class="cls-6" d="M68.08,8.56,67.2,7.1l.7-2.82a2.85,2.85,0,0,1,1,.88,2.52,2.52,0,0,1,.22.47l-.65,2.62A2.59,2.59,0,0,1,68.08,8.56Z"/><path class="cls-6" d="M68.49,8.25l.65-2.62A2.49,2.49,0,0,1,68.49,8.25Z"/><path class="cls-7" d="M66.77,6.38,67.36,4l.54.3L67.2,7.1Z"/><path class="cls-6" d="M66.05,5.2l.4-1.63c.3.12.61.26.91.41l-.59,2.4Z"/><path class="cls-7" d="M64.67,2.92a18.81,18.81,0,0,1,1.78.65l-.4,1.63Z"/><path class="cls-8" d="M64.67,7.72c-.7-1.17,0-4.8,0-4.8l3.41,5.64A2.49,2.49,0,0,1,64.67,7.72Z"/><path class="cls-6" d="M68,9.46l-1.64.45L63.78,8.46a2.87,2.87,0,0,1,1.13-.74,2.28,2.28,0,0,1,.51-.09L67.76,9A2.53,2.53,0,0,1,68,9.46Z"/><path class="cls-6" d="M67.76,9,65.42,7.63A2.48,2.48,0,0,1,67.76,9Z"/><path class="cls-7" d="M65.5,10.13,63.35,8.89c.14-.15.29-.3.43-.43l2.53,1.45Z"/><path class="cls-6" d="M64.16,10.49,62.7,9.65c.21-.25.42-.51.65-.76l2.15,1.24Z"/><path class="cls-7" d="M61.59,11.19s.47-.74,1.11-1.54l1.46.84Z"/><path class="cls-8" d="M66.21,12.5c-1.32.36-4.62-1.31-4.62-1.31L68,9.46A2.48,2.48,0,0,1,66.21,12.5Z"/><path class="cls-6" d="M65.2,7.34l-.62-1,.49-2a2.15,2.15,0,0,1,.72.61,2.41,2.41,0,0,1,.15.33l-.45,1.83A3.15,3.15,0,0,1,65.2,7.34Z"/><path class="cls-6" d="M65.49,7.12l.45-1.83A1.74,1.74,0,0,1,65.49,7.12Z"/><path class="cls-7" d="M64.28,5.82l.42-1.68.37.21-.49,2Z"/><path class="cls-6" d="M63.78,5l.28-1.14.64.29-.42,1.68Z"/><path class="cls-7" d="M62.82,3.4a12.73,12.73,0,0,1,1.24.45L63.78,5Z"/><path class="cls-8" d="M62.82,6.75c-.49-.82,0-3.35,0-3.35L65.2,7.34A1.74,1.74,0,0,1,62.82,6.75Z"/><path class="cls-6" d="M65.11,8,64,8.28l-1.76-1A2,2,0,0,1,63,6.75a2.25,2.25,0,0,1,.36-.06L65,7.63A2,2,0,0,1,65.11,8Z"/><path class="cls-6" d="M65,7.63l-1.64-.94A1.73,1.73,0,0,1,65,7.63Z"/><path class="cls-7" d="M63.4,8.43l-1.5-.86.3-.3,1.76,1Z"/><path class="cls-6" d="M62.46,8.69l-1-.59c.15-.17.3-.36.46-.53l1.5.86Z"/><path class="cls-7" d="M60.67,9.17s.33-.51.77-1.07l1,.59Z"/><path class="cls-8" d="M63.89,10.09c-.92.25-3.22-.92-3.22-.92L65.11,8A1.73,1.73,0,0,1,63.89,10.09Z"/><path class="cls-6" d="M62.86,7,62,5.57l.7-2.82a3,3,0,0,1,1,.88,2.77,2.77,0,0,1,.22.46l-.65,2.63A3.15,3.15,0,0,1,62.86,7Z"/><path class="cls-6" d="M63.27,6.72l.65-2.63A2.5,2.5,0,0,1,63.27,6.72Z"/><path class="cls-7" d="M61.54,4.85l.6-2.4.54.3L62,5.57Z"/><path class="cls-6" d="M60.83,3.67,61.23,2c.3.13.61.27.91.42l-.6,2.4Z"/><path class="cls-7" d="M59.45,1.39s.84.25,1.78.64l-.4,1.64Z"/><path class="cls-8" d="M59.45,6.19c-.7-1.17,0-4.8,0-4.8L62.86,7A2.48,2.48,0,0,1,59.45,6.19Z"/><path class="cls-6" d="M62.73,7.93l-1.64.44L58.56,6.93a2.87,2.87,0,0,1,1.13-.74,2.28,2.28,0,0,1,.51-.09l2.34,1.35A2.53,2.53,0,0,1,62.73,7.93Z"/><path class="cls-6" d="M62.54,7.45,60.2,6.1A2.49,2.49,0,0,1,62.54,7.45Z"/><path class="cls-7" d="M60.28,8.59,58.13,7.36c.14-.15.29-.3.43-.43l2.53,1.44Z"/><path class="cls-6" d="M58.94,9l-1.46-.84c.2-.25.42-.51.65-.76l2.15,1.23Z"/><path class="cls-7" d="M56.37,9.65s.47-.73,1.11-1.53L58.94,9Z"/><path class="cls-8" d="M61,11c-1.33.36-4.62-1.32-4.62-1.32l6.36-1.72A2.48,2.48,0,0,1,61,11Z"/><path class="cls-6" d="M60,5.81l-.62-1,.49-2a2.15,2.15,0,0,1,.72.61,2.41,2.41,0,0,1,.15.33l-.45,1.83A3.15,3.15,0,0,1,60,5.81Z"/><path class="cls-6" d="M60.27,5.59l.45-1.83A1.76,1.76,0,0,1,60.27,5.59Z"/><path class="cls-7" d="M59.06,4.29l.41-1.68a3.41,3.41,0,0,1,.38.21l-.49,2Z"/><path class="cls-6" d="M58.56,3.46l.28-1.14c.21.09.43.18.63.29l-.41,1.68Z"/><path class="cls-7" d="M57.6,1.87a12.73,12.73,0,0,1,1.24.45l-.28,1.14Z"/><path class="cls-8" d="M57.6,5.22c-.49-.82,0-3.35,0-3.35L60,5.81A1.74,1.74,0,0,1,57.6,5.22Z"/><path class="cls-6" d="M59.89,6.44l-1.15.31L57,5.74a2,2,0,0,1,.78-.52l.36-.06,1.64.94A2,2,0,0,1,59.89,6.44Z"/><path class="cls-6" d="M59.76,6.1l-1.64-.94A1.73,1.73,0,0,1,59.76,6.1Z"/><path class="cls-7" d="M58.17,6.9,56.67,6c.1-.11.21-.21.31-.3l1.76,1Z"/><path class="cls-6" d="M57.24,7.16l-1-.59c.14-.18.3-.36.45-.53l1.5.86Z"/><path class="cls-7" d="M55.45,7.64s.33-.51.77-1.07l1,.59Z"/><path class="cls-8" d="M58.67,8.56c-.92.25-3.22-.92-3.22-.92l4.44-1.2A1.73,1.73,0,0,1,58.67,8.56Z"/><path class="cls-6" d="M57.9,5.72,56.37,5l-1-2.75a3,3,0,0,1,1.34.18,2.89,2.89,0,0,1,.44.27l.89,2.55A2.43,2.43,0,0,1,57.9,5.72Z"/><path class="cls-6" d="M58.08,5.23l-.89-2.55A2.49,2.49,0,0,1,58.08,5.23Z"/><path class="cls-7" d="M55.61,4.61,54.8,2.28l.61,0,1,2.75Z"/><path class="cls-6" d="M54.36,4l-.55-1.58c.32-.06.65-.12,1-.15l.81,2.33Z"/><path class="cls-7" d="M52,2.86s.84-.25,1.84-.43L54.36,4Z"/><path class="cls-8" d="M54.6,6.88c-1.24-.6-2.63-4-2.63-4L57.9,5.72A2.48,2.48,0,0,1,54.6,6.88Z"/></svg>