<svg id="Layer_1" data-name="Layer 1" xmlns="http://www.w3.org/2000/svg" viewBox="0 0 100 100"><defs><style>.cls-1{fill:#ffc640;}.cls-2{fill:#b95f2b;}.cls-3{fill:#cb6930;}.cls-4{fill:#f7973e;}.cls-5{fill:#fff;}.cls-6{fill:#221f1f;}.cls-7{fill:#ffc540;}</style></defs><title>ziz</title><rect class="cls-1" x="33.66" y="43.88" width="33.7" height="11" rx="5.5" ry="5.5"/><path class="cls-1" d="M49,33.35A24.28,24.28,0,0,0,27.43,46.51H70.59A24.28,24.28,0,0,0,49,33.35Z"/><path class="cls-1" d="M42.54,29A14.64,14.64,0,0,1,49,27.64,20.18,20.18,0,0,1,55.48,29L49,14.9Z"/><path class="cls-1" d="M64.35,32.67a14.54,14.54,0,0,1,5.54,3.61,20.34,20.34,0,0,1,3.62,5.54l5.38-14.54Z"/><path class="cls-1" d="M24.51,41.82a14.73,14.73,0,0,1,3.62-5.54,20,20,0,0,1,5.53-3.61L19.12,27.28Z"/><path class="cls-1" d="M44.08,36.53a40.43,40.43,0,0,0-1.8-3.77A23.62,23.62,0,0,0,40,29.25c-.84-1-1.86-2.09-3.05-2.23s-2.24,1.27-2.84,2.53A7.36,7.36,0,0,1,35,27.5a2.76,2.76,0,0,1,2-1.35c1.79-.13,3.16,1,4.33,1.87a27.15,27.15,0,0,1,3.18,3.26,39.91,39.91,0,0,1,2.72,3.63,1.75,1.75,0,1,1-2.91,2,2.19,2.19,0,0,1-.16-.3Z"/><path class="cls-1" d="M51.35,34.91a40,40,0,0,1,2.73-3.63A27.06,27.06,0,0,1,57.25,28c1.17-.92,2.54-2,4.33-1.87a2.74,2.74,0,0,1,2,1.35,7.07,7.07,0,0,1,.83,2.05c-.59-1.26-1.6-2.66-2.84-2.53s-2.2,1.2-3,2.23a24.46,24.46,0,0,0-2.26,3.51,40.43,40.43,0,0,0-1.8,3.77v0a1.76,1.76,0,1,1-3.25-1.33A2.27,2.27,0,0,1,51.35,34.91Z"/><rect class="cls-1" x="37.5" y="77.81" width="6.19" height="13.29" rx="3.09" ry="3.09"/><rect class="cls-1" x="52.58" y="77.81" width="6.19" height="13.29" rx="3.09" ry="3.09"/><path class="cls-1" d="M72.55,88.24a8.47,8.47,0,0,1-1.9-.22,9.1,9.1,0,0,1-5.75-4.68c-3.27-5.69-9.21-2.58-9.46-2.45A1.64,1.64,0,1,1,53.89,78c3.09-1.66,10-3,13.85,3.7a6,6,0,0,0,3.67,3.13,7,7,0,0,0,4.79-.94A1.64,1.64,0,0,1,78,86.64,10.87,10.87,0,0,1,72.55,88.24Z"/><path class="cls-2" d="M78.13,87.81A3.22,3.22,0,0,1,75.34,82c1.6-.77,8.2-.37,8.2-.37S79.73,87,78.13,87.81Z"/><path class="cls-2" d="M64.61,45.18c19-13.3,35.39,8.68,35.39,8.68S86.57,57.82,77.74,64,58.83,71,55.2,65.78,55.78,51.36,64.61,45.18Z"/><path class="cls-3" d="M73.31,44.42C92,38.85,99.23,60.72,99.23,60.72s-11.76-.4-20.42,2.18-16.93.55-18.45-4.56S64.64,47,73.31,44.42Z"/><path class="cls-2" d="M68.24,48C86.9,42.4,94.16,64.28,94.16,64.28s-11.76-.41-20.43,2.18S56.81,67,55.29,61.89,59.57,50.56,68.24,48Z"/><path class="cls-2" d="M35.39,45C16.4,31.7,0,53.68,0,53.68s13.43,4,22.26,10.14,18.91,7,22.54,1.78S44.22,51.18,35.39,45Z"/><path class="cls-3" d="M26.69,44.24C8,38.67.77,60.55.77,60.55s11.76-.41,20.42,2.17,16.93.55,18.45-4.56S35.36,46.82,26.69,44.24Z"/><path class="cls-2" d="M31.76,47.79C13.1,42.23,5.84,64.1,5.84,64.1s11.76-.41,20.43,2.18,16.92.54,18.44-4.56S40.43,50.38,31.76,47.79Z"/><path class="cls-1" d="M62.85,73.18c.19,7-5.86,12.8-13.51,13S35.35,80.93,35.16,74s5.27-35.18,12.92-35.4S62.67,66.2,62.85,73.18Z"/><polyline class="cls-4" points="38.5 67.4 41.91 80.6 44.95 67.4"/><polyline class="cls-4" points="40.97 76.95 40.06 80.6 44.25 80.6 42.75 76.95"/><polygon class="cls-4" points="40.33 80.31 38.83 81.89 40.33 84.85 40.06 82.27 41.73 80.47 40.33 80.31"/><polygon class="cls-4" points="44.06 80.31 45.56 81.89 44.06 84.85 44.34 82.27 42.67 80.47 44.06 80.31"/><polygon class="cls-4" points="40.93 80.14 42.15 84.85 43.24 80.14 40.93 80.14"/><rect class="cls-1" x="37.5" y="64.9" width="2.18" height="5.36" rx="1.09" ry="1.09"/><rect class="cls-1" x="39.14" y="64.27" width="2.18" height="5.36" rx="1.09" ry="1.09"/><rect class="cls-1" x="41.06" y="64.57" width="2.18" height="5.36" rx="1.09" ry="1.09"/><rect class="cls-1" x="41.84" y="63.97" width="2.18" height="5.36" rx="1.09" ry="1.09"/><rect class="cls-1" x="43.14" y="64.57" width="2.18" height="5.36" rx="1.09" ry="1.09"/><polyline class="cls-4" points="52.02 67.4 55.43 80.6 58.47 67.4"/><polyline class="cls-4" points="54.48 76.95 53.57 80.6 57.77 80.6 56.27 76.95"/><polygon class="cls-4" points="53.85 80.31 52.35 81.89 53.85 84.85 53.57 82.27 55.24 80.47 53.85 80.31"/><polygon class="cls-4" points="57.58 80.31 59.08 81.89 57.58 84.85 57.85 82.27 56.19 80.47 57.58 80.31"/><polygon class="cls-4" points="54.45 80.14 55.67 84.85 56.76 80.14 54.45 80.14"/><rect class="cls-1" x="51.02" y="64.9" width="2.18" height="5.36" rx="1.09" ry="1.09"/><rect class="cls-1" x="52.65" y="64.27" width="2.18" height="5.36" rx="1.09" ry="1.09"/><rect class="cls-1" x="54.58" y="64.57" width="2.18" height="5.36" rx="1.09" ry="1.09"/><rect class="cls-1" x="55.36" y="63.97" width="2.18" height="5.36" rx="1.09" ry="1.09"/><rect class="cls-1" x="56.65" y="64.57" width="2.18" height="5.36" rx="1.09" ry="1.09"/><path class="cls-5" d="M37.9,49.5a11.2,11.2,0,0,0,22.39-.38c-.1-6.14-5.42-19-11.6-18.91S37.81,43.35,37.9,49.5Z"/><circle class="cls-6" cx="53.73" cy="39.5" r="1.03" transform="translate(-7.29 66.41) rotate(-60.12)"/><circle class="cls-6" cx="44.18" cy="39.5" r="1.03" transform="translate(-12.08 58.13) rotate(-60.12)"/><path class="cls-5" d="M40.8,55.44A2.63,2.63,0,0,0,42,57.22a10.87,10.87,0,0,1-6.75,2.43A7.57,7.57,0,0,1,40.8,55.44Z"/><path class="cls-5" d="M42,57.22a9.2,9.2,0,0,0,3.34,1.6,21.87,21.87,0,0,1-4.76,5.45A16.18,16.18,0,0,1,42,57.22Z"/><path class="cls-5" d="M45.31,58.82a15.38,15.38,0,0,0,4.15.5,28.93,28.93,0,0,1-2.92,6.62A26.09,26.09,0,0,1,45.31,58.82Z"/><path class="cls-5" d="M49.46,59.32a15.1,15.1,0,0,0,4.12-.64,26.15,26.15,0,0,1-1,7.16A28.85,28.85,0,0,1,49.46,59.32Z"/><path class="cls-5" d="M53.58,58.68A9.35,9.35,0,0,0,56.88,57a16.23,16.23,0,0,1,1.63,7A22,22,0,0,1,53.58,58.68Z"/><path class="cls-5" d="M56.88,57A2.66,2.66,0,0,0,58,55.15a7.53,7.53,0,0,1,5.71,4A10.86,10.86,0,0,1,56.88,57Z"/><path class="cls-5" d="M58,55.15a2.63,2.63,0,0,0-1.17-1.78,10.94,10.94,0,0,1,6.75-2.44A7.56,7.56,0,0,1,58,55.15Z"/><path class="cls-5" d="M56.82,53.37a9,9,0,0,0-3.34-1.6,21.69,21.69,0,0,1,4.76-5.45A16.18,16.18,0,0,1,56.82,53.37Z"/><path class="cls-5" d="M53.48,51.77a15,15,0,0,0-4.15-.5,29.19,29.19,0,0,1,2.92-6.63A26.23,26.23,0,0,1,53.48,51.77Z"/><path class="cls-5" d="M49.33,51.27a14.73,14.73,0,0,0-4.12.64,26.1,26.1,0,0,1,1-7.16A28.65,28.65,0,0,1,49.33,51.27Z"/><path class="cls-5" d="M45.21,51.91a9.19,9.19,0,0,0-3.3,1.71,16.27,16.27,0,0,1-1.63-7A22,22,0,0,1,45.21,51.91Z"/><path class="cls-5" d="M41.91,53.62a2.62,2.62,0,0,0-1.11,1.82,7.55,7.55,0,0,1-5.71-4A10.8,10.8,0,0,1,41.91,53.62Z"/><path class="cls-7" d="M52.69,42.18c0,.9-3.63,6-3.63,6s-3.63-5.13-3.63-6,1.63-1.63,3.63-1.63S52.69,41.28,52.69,42.18Z"/></svg>