<svg id="Layer_1" data-name="Layer 1" xmlns="http://www.w3.org/2000/svg" viewBox="0 0 100 100"><defs><style>.cls-1{fill:#91775a;}.cls-2{fill:#3e3e3f;}.cls-3{fill:#454547;}.cls-4{fill:#bf9b77;}.cls-5{fill:#09a582;}.cls-6{fill:#ffc640;}.cls-7{fill:#007359;}.cls-8{fill:#f37d3b;}.cls-9{fill:#007f63;}.cls-10{fill:#01876a;}.cls-11{fill:#ffc540;}.cls-12{fill:#b8602a;}.cls-13{fill:#3f3f40;}.cls-14{fill:#fff;}.cls-15{fill:#dead35;}</style></defs><title>chimera</title><polygon class="cls-1" points="55.73 23.1 51.66 18.16 45.58 27.32 55.73 23.1"/><path class="cls-2" d="M67.94,17.91a11.31,11.31,0,0,1,3.24,0,16.84,16.84,0,0,1,2.81.56,21.87,21.87,0,0,1,5,2.17,26.22,26.22,0,0,1,4.22,3.1c.64.56,1.23,1.19,1.83,1.78l1.68,1.9-2.12-1.34c-.74-.39-1.44-.81-2.19-1.16a24.35,24.35,0,0,0-4.52-1.65,17.93,17.93,0,0,0-4.54-.57,13.54,13.54,0,0,0-2.15.19,5.75,5.75,0,0,0-1.71.51Z"/><path class="cls-3" d="M67.94,17.91q.7-.09,1.38-.12L70,23.17a4.25,4.25,0,0,1-.5.22Z"/><polygon class="cls-3" points="71.71 17.96 73.94 18.45 73.32 22.68 71.59 22.82 71.71 17.96"/><polygon class="cls-3" points="76.05 19.16 78.03 20.08 76.95 23.03 75.12 22.75 76.05 19.16"/><polygon class="cls-3" points="79.87 21.16 81.59 22.37 80.61 24.11 78.78 23.48 79.87 21.16"/><polygon class="cls-3" points="83.19 23.7 84.68 25.12 84.16 25.8 82.4 24.88 83.19 23.7"/><polygon class="cls-3" points="86.1 26.66 86.73 27.41 85.92 26.87 86.1 26.66"/><path class="cls-4" d="M65.72,57l-.44,0a7.14,7.14,0,0,1-6.7-7.58l1.25-20.45-2.49-3a7.15,7.15,0,1,1,11-9.1L72.67,22a7.17,7.17,0,0,1,1.62,5L72.85,50.27A7.15,7.15,0,0,1,65.72,57Z"/><path class="cls-4" d="M49.11,16l8.64,10.47A4,4,0,0,0,63.3,27h0c1.68-1.38,10.48-1.79,9.1-3.47L66.19,16c-1.38-1.67-14.87-7-16.55-5.57h0A4,4,0,0,0,49.11,16Z"/><path class="cls-1" d="M71.43,27c1.55-1.28,2.09-3.17,1.22-4.22s-2.82-.88-4.37.39-7.21,6-5.67,7.89S69.89,28.22,71.43,27Z"/><polygon class="cls-4" points="60.81 43.28 58.49 40.46 55.03 45.68 60.81 43.28"/><polygon class="cls-4" points="61.12 40.09 58.8 37.27 55.34 42.49 61.12 40.09"/><polygon class="cls-4" points="61.42 36.89 59.1 34.08 55.64 39.3 61.42 36.89"/><polygon class="cls-4" points="61.73 33.7 59.41 30.89 55.95 36.1 61.73 33.7"/><polygon class="cls-4" points="62.04 30.51 59.72 27.69 56.26 32.91 62.04 30.51"/><circle class="cls-2" cx="65.92" cy="21.43" r="0.88"/><path class="cls-5" d="M79.85,60.81a2.07,2.07,0,0,1-1.92-1.28c-1.69-4.1-2.53-12.93,6.41-16.94a7.55,7.55,0,0,0,4.39-4.22,8.88,8.88,0,0,0-.56-6.15,2.07,2.07,0,0,1,3.67-1.91c.1.19,2.42,4.75.8,9.42-1,2.88-3.23,5.11-6.61,6.63C78.47,49.75,81.62,57.62,81.76,58a2.07,2.07,0,0,1-1.13,2.7A2,2,0,0,1,79.85,60.81Z"/><circle class="cls-6" cx="86.32" cy="28.6" r="1.27"/><circle class="cls-6" cx="98.73" cy="28.51" r="1.27"/><ellipse class="cls-5" cx="92.6" cy="29.05" rx="6.63" ry="4.98"/><ellipse class="cls-7" cx="91.14" cy="29.73" rx="0.4" ry="1.41"/><ellipse class="cls-7" cx="93.82" cy="29.73" rx="0.4" ry="1.41"/><rect class="cls-8" x="91.69" y="31.9" width="1.68" height="3.34"/><polyline class="cls-8" points="91.69 35.23 92.57 35.23 91.69 36.64"/><polyline class="cls-8" points="93.37 35.23 92.48 35.23 93.37 36.64"/><path class="cls-9" d="M92.53,32.23c-3.18,0-6.55-.82-6.55-2.36a.34.34,0,0,1,.67,0c0,.71,2.24,1.69,5.88,1.69s5.87-1,5.87-1.69a.34.34,0,0,1,.67,0C99.07,31.41,95.7,32.23,92.53,32.23Z"/><path class="cls-9" d="M95.11,24.44a8.74,8.74,0,0,0-5.13,0l2.55,2.26Z"/><circle class="cls-10" cx="88.44" cy="28.35" r="0.16"/><circle class="cls-10" cx="89.49" cy="29.73" r="0.28"/><circle class="cls-10" cx="95.9" cy="28.86" r="0.12"/><circle class="cls-10" cx="96.73" cy="26.63" r="0.06"/><circle class="cls-10" cx="94.94" cy="33.17" r="0.11"/><circle class="cls-10" cx="99.4" cy="25.79" r="0.08"/><rect class="cls-11" x="35.66" y="58.74" width="5.34" height="31.09" rx="2.67" ry="2.67"/><rect class="cls-11" x="62.53" y="58.74" width="5.34" height="31.09" rx="2.67" ry="2.67"/><rect class="cls-11" x="73.61" y="58.74" width="5.34" height="31.09" rx="2.67" ry="2.67"/><path class="cls-11" d="M78.67,54.12c7.29,7.45,6.58,20-1.59,28s-20.69,8.43-28,1-30-43.86-21.8-51.85S71.38,46.67,78.67,54.12Z"/><rect class="cls-11" x="44.96" y="58.74" width="5.34" height="31.09" rx="2.67" ry="2.67"/><circle class="cls-11" cx="7.25" cy="24.14" r="5.05"/><circle class="cls-11" cx="51.95" cy="24.14" r="5.05"/><polygon class="cls-12" points="29.24 25.77 33.26 16.45 34.21 26.56 40.91 18.94 38.68 28.84 47.42 23.66 42.24 32.4 52.14 30.17 44.52 36.88 54.63 37.82 45.31 41.84 54.63 45.86 44.52 46.8 52.14 53.51 42.24 51.28 47.42 60.01 38.68 54.84 40.91 64.74 34.21 57.12 33.26 67.23 29.24 57.9 25.22 67.23 24.28 57.12 17.57 64.74 19.8 54.84 11.07 60.01 16.25 51.28 6.34 53.51 13.96 46.8 3.86 45.86 13.18 41.84 3.86 37.82 13.96 36.88 6.34 30.17 16.25 32.4 11.07 23.66 19.8 28.84 17.57 18.94 24.28 26.56 25.22 16.45 29.24 25.77"/><path class="cls-12" d="M25.22,71.08a3,3,0,0,1-.6,0,3.86,3.86,0,0,1-3.24-3.45l-.11-1.2-.8.91a3.86,3.86,0,0,1-6.66-3.39l.27-1.19L13,63.33a3.85,3.85,0,0,1-5.28-5.28l.62-1-1.18.27a3.86,3.86,0,0,1-3.4-6.66l.92-.8L3.5,49.7a3.86,3.86,0,0,1-1.17-7.38l1.11-.48-1.11-.48A3.86,3.86,0,0,1,3.5,34l1.21-.11-.92-.8a3.86,3.86,0,0,1,3.4-6.66l1.18.27-.62-1.05A3.85,3.85,0,0,1,13,20.35l1.05.62-.27-1.19a3.86,3.86,0,0,1,6.66-3.39l.8.91.11-1.2a3.86,3.86,0,0,1,7.38-1.17L29.24,16l.48-1.11A3.86,3.86,0,0,1,37.1,16.1l.11,1.2.81-.91a3.85,3.85,0,0,1,6.65,3.39L44.41,21l1-.62a3.85,3.85,0,0,1,5.28,5.28l-.62,1.05,1.19-.27a3.86,3.86,0,0,1,3.39,6.66l-.91.8L55,34a3.85,3.85,0,0,1,1.16,7.38L55,41.84l1.11.48A3.85,3.85,0,0,1,55,49.7l-1.21.11.91.8a3.86,3.86,0,0,1-3.39,6.66L50.11,57l.62,1a3.85,3.85,0,0,1-5.28,5.28l-1-.62.26,1.19A3.85,3.85,0,0,1,38,67.29l-.81-.91-.11,1.2a3.86,3.86,0,0,1-7.38,1.17l-.48-1.11-.48,1.11A3.86,3.86,0,0,1,25.22,71.08Zm-.94-17.82a3.75,3.75,0,0,1,1.19.19,4,4,0,0,1,1.75,1.17,4,4,0,0,1,4.05,0A3.9,3.9,0,0,1,33,53.45a4,4,0,0,1,2.11-.08A3.88,3.88,0,0,1,38.39,51a3.89,3.89,0,0,1,.73-2,3.78,3.78,0,0,1,1.65-1.3A3.87,3.87,0,0,1,42,43.86a3.89,3.89,0,0,1-.57-2,4,4,0,0,1,.57-2,3.9,3.9,0,0,1-1.17-1.74A4,4,0,0,1,40.77,36a3.85,3.85,0,0,1-1.65-1.3,3.89,3.89,0,0,1-.73-2,3.88,3.88,0,0,1-3.27-2.38A4,4,0,0,1,33,30.23a3.9,3.9,0,0,1-1.74-1.17,4,4,0,0,1-2,.57h0a3.89,3.89,0,0,1-2-.57,3.86,3.86,0,0,1-3.85,1.25,3.87,3.87,0,0,1-3.28,2.38,3.8,3.8,0,0,1-.73,2A3.74,3.74,0,0,1,17.71,36a3.8,3.8,0,0,1-.08,2.11,3.9,3.9,0,0,1-1.17,1.74,3.86,3.86,0,0,1,.57,2,3.8,3.8,0,0,1-.57,2,4,4,0,0,1,1.17,1.75,3.8,3.8,0,0,1,.08,2.11A3.67,3.67,0,0,1,19.36,49a3.8,3.8,0,0,1,.73,2,3.87,3.87,0,0,1,3.28,2.38A3.91,3.91,0,0,1,24.28,53.26Z"/><circle class="cls-11" cx="29.24" cy="40.7" r="15.72"/><circle class="cls-13" cx="18.73" cy="34.67" r="1.25"/><circle class="cls-13" cx="40.01" cy="34.67" r="1.25"/><polyline class="cls-14" points="18.73 45.13 20.46 50.69 22.14 45.13"/><polyline class="cls-14" points="36.23 45.13 37.96 50.69 39.64 45.13"/><ellipse class="cls-15" cx="24.38" cy="43.23" rx="6.49" ry="4.38" transform="translate(-12.53 10.05) rotate(-18.63)"/><ellipse class="cls-15" cx="34.11" cy="43.23" rx="4.38" ry="6.49" transform="translate(-17.75 61.74) rotate(-71.37)"/><path class="cls-13" d="M31.93,38.77a3.09,3.09,0,0,1-5.94,0c0-.68,1.33-1.24,3-1.24S31.93,38.09,31.93,38.77Z"/></svg>