<svg id="Layer_1" data-name="Layer 1" xmlns="http://www.w3.org/2000/svg" viewBox="0 0 100 100"><defs><style>.cls-1{fill:#fff;}.cls-2{fill:#744f4a;}.cls-3{fill:#895e59;}.cls-4{fill:#fcca98;}.cls-5{fill:#09a582;}.cls-6{fill:#3e3e3f;}.cls-7{fill:#f37d3b;}.cls-8{fill:#048d6f;}</style></defs><title>elf</title><polyline class="cls-1" points="23.42 28.67 23.56 24.98 25.92 27.53 25.78 31.1"/><polyline class="cls-1" points="26.46 31.95 26.59 28.26 28.95 30.81 28.82 34.38"/><polyline class="cls-1" points="22.64 29.39 18.96 29.25 21.32 31.79 24.89 31.93"/><polyline class="cls-1" points="25.68 32.67 22 32.53 24.36 35.07 27.92 35.21"/><rect class="cls-2" x="17.97" y="37.63" width="27.51" height="1.66" rx="0.83" ry="0.83" transform="matrix(0.68, 0.73, -0.73, 0.68, 38.37, -10.96)"/><polyline class="cls-1" points="18.57 33.84 18.39 30.16 20.96 32.49 21.14 36.06"/><polyline class="cls-1" points="21.88 36.85 21.7 33.16 24.27 35.49 24.45 39.06"/><polyline class="cls-1" points="17.86 34.63 14.18 34.81 16.75 37.14 20.32 36.97"/><polyline class="cls-1" points="21.17 37.63 17.49 37.81 20.06 40.14 23.63 39.97"/><rect class="cls-2" x="13.94" y="42.05" width="27.51" height="1.66" rx="0.83" ry="0.83" transform="translate(35.98 -7.49) rotate(42.19)"/><rect class="cls-3" x="34.73" y="33.89" width="13.83" height="38.39" rx="6.91" ry="6.91" transform="translate(-25.64 48.01) rotate(-47.57)"/><rect class="cls-4" x="63.17" y="58" width="6.85" height="19.01" rx="3.42" ry="3.42"/><rect class="cls-4" x="30.64" y="58" width="6.85" height="19.01" rx="3.42" ry="3.42"/><rect class="cls-4" x="52.68" y="66.02" width="9.49" height="33.98" rx="4.74" ry="4.74"/><rect class="cls-4" x="39.04" y="66.02" width="9.49" height="33.98" rx="4.74" ry="4.74"/><rect class="cls-5" x="34.07" y="36.9" width="32.02" height="42.21" rx="16.01" ry="16.01"/><rect class="cls-5" x="34.07" y="39.91" width="32.02" height="11.61" rx="5.81" ry="5.81"/><ellipse class="cls-1" cx="50.21" cy="9.81" rx="17.45" ry="9.81"/><path class="cls-4" d="M33.56,11.13V25.7a16.52,16.52,0,1,0,33,0V11.13Z"/><circle class="cls-6" cx="38.03" cy="19.59" r="1.33"/><circle class="cls-6" cx="62.8" cy="19.63" r="1.33"/><polygon class="cls-7" points="46.81 27.48 53.34 27.48 50.08 15.56 46.81 27.48"/><rect class="cls-5" x="63.17" y="41.25" width="6.85" height="19.01" rx="3.42" ry="3.42"/><rect class="cls-5" x="30.64" y="41.25" width="6.85" height="19.01" rx="3.42" ry="3.42"/><path class="cls-4" d="M26.94,17.48a3.59,3.59,0,0,0,7.18,0c0-2-7.52-13.95-7.52-13.95S26.94,15.49,26.94,17.48Z"/><circle class="cls-4" cx="32.76" cy="21.98" r="3.14"/><path class="cls-4" d="M73.48,17.48a3.59,3.59,0,0,1-7.18,0c0-2,7.52-13.95,7.52-13.95S73.48,15.49,73.48,17.48Z"/><circle class="cls-4" cx="67.66" cy="21.98" r="3.14"/><polyline class="cls-1" points="32.76 9.81 32.76 38.93 37.49 9.81"/><polyline class="cls-1" points="67.66 9.81 67.66 38.93 62.93 9.81"/><polygon class="cls-8" points="41.9 39.5 38.03 41.56 46.09 49.13 49.13 46.09 41.9 39.5"/><polygon class="cls-8" points="58.61 39.5 62.47 41.56 54.42 49.13 51.38 46.09 58.61 39.5"/><polyline class="cls-4" points="49.13 46.09 50.65 51.52 51.68 46.09 58.61 39.5 41.9 39.5"/><rect class="cls-5" x="37.15" y="70.54" width="5.55" height="10.08" rx="2.77" ry="2.77"/><rect class="cls-5" x="42.31" y="72.67" width="5.55" height="10.08" rx="2.77" ry="2.77"/><rect class="cls-5" x="47.86" y="72.67" width="5.55" height="10.08" rx="2.77" ry="2.77"/><rect class="cls-5" x="53.07" y="71.97" width="5.55" height="10.08" rx="2.77" ry="2.77"/><rect class="cls-5" x="57.19" y="70.54" width="5.55" height="10.08" rx="2.77" ry="2.77"/><path class="cls-3" d="M63.17,75A2.35,2.35,0,0,1,61,73.56C54.74,58.17,33.24,42.2,33,42a2.35,2.35,0,1,1,2.79-3.79c.93.68,22.79,16.93,29.54,33.53a2.36,2.36,0,0,1-1.29,3.07A2.31,2.31,0,0,1,63.17,75Z"/></svg>