<svg id="Layer_1" data-name="Layer 1" xmlns="http://www.w3.org/2000/svg" viewBox="0 0 100 100"><defs><style>.cls-1{fill:#d1eefb;}.cls-2{fill:#b2e2f9;}.cls-3{fill:#7d7d7d;}.cls-4{fill:#c5c7c9;}.cls-5{fill:#616161;}.cls-6{fill:#fff;}.cls-7{fill:#dddfe0;}.cls-8{fill:#d0d2d3;}</style></defs><title>mount olympus</title><circle class="cls-1" cx="51.9" cy="21.86" r="18.77"/><circle class="cls-1" cx="71.61" cy="26.62" r="14.01"/><circle class="cls-1" cx="29.51" cy="29.41" r="11.23"/><rect class="cls-1" x="22.32" y="26.27" width="56.67" height="14.36" rx="7.04" ry="7.04" transform="translate(101.32 66.9) rotate(-180)"/><circle class="cls-2" cx="21.23" cy="39.45" r="8.19"/><circle class="cls-2" cx="12.62" cy="41.53" r="6.11"/><circle class="cls-2" cx="30.99" cy="42.74" r="4.9"/><rect class="cls-2" x="9.41" y="41.37" width="24.72" height="6.26" rx="3.07" ry="3.07"/><polygon class="cls-3" points="89 96.91 12.61 96.91 37.61 33.68 64 33.68 89 96.91"/><polygon class="cls-4" points="37.61 33.68 64 33.68 69.91 48.63 61.58 41.57 55.42 43.41 50.97 49.39 46.83 39.45 42.33 48.99 34.92 56.91 32.73 46.02 37.61 33.68"/><polygon class="cls-5" points="42.33 33.68 34.92 56.91 38.08 56.91 24.83 95.49 29.92 95.49 44.92 50.99 42.33 48.99 44.5 33.68 42.33 33.68"/><polygon class="cls-5" points="53.33 33.68 55.42 43.41 58.17 44.32 69.17 96.85 75.58 96.91 61.58 41.57 57.33 37.41 56.25 33.68 53.33 33.68"/><polygon class="cls-5" points="50.81 48.99 53.33 55.32 45.69 96.91 54.08 96.91 55.17 54.66 50.81 48.99"/><circle class="cls-2" cx="21.2" cy="85.11" r="11.8"/><circle class="cls-2" cx="8.81" cy="88.1" r="8.81"/><circle class="cls-2" cx="35.27" cy="89.85" r="7.06"/><rect class="cls-2" x="4.17" y="87.88" width="35.62" height="9.03" rx="4.42" ry="4.42"/><circle class="cls-2" cx="78.8" cy="85.11" r="11.8"/><circle class="cls-2" cx="91.19" cy="88.1" r="8.81"/><circle class="cls-2" cx="64.73" cy="89.85" r="7.06"/><rect class="cls-2" x="60.21" y="87.88" width="35.62" height="9.03" rx="4.42" ry="4.42" transform="translate(156.05 184.79) rotate(-180)"/><circle class="cls-2" cx="69.32" cy="43.22" r="8.19"/><circle class="cls-2" cx="77.92" cy="45.29" r="6.11"/><circle class="cls-2" cx="59.56" cy="46.51" r="4.9"/><rect class="cls-2" x="56.42" y="45.14" width="24.72" height="6.26" rx="3.07" ry="3.07" transform="translate(137.56 96.55) rotate(-180)"/><rect class="cls-6" x="37.56" y="31.26" width="26.5" height="2.42"/><polygon class="cls-7" points="38.56 14.68 38.56 13.91 50.81 8.36 63.06 13.91 63.06 14.68 38.56 14.68"/><path class="cls-6" d="M50.81,9.46l9.32,4.22H41.48l9.33-4.22m0-2.2-13.25,6v2.42h26.5V13.26l-13.25-6Z"/><rect class="cls-8" x="58.34" y="15.68" width="2.98" height="15.58"/><rect class="cls-8" x="57.39" y="29.93" width="4.88" height="1.34"/><rect class="cls-8" x="57.39" y="15.68" width="4.88" height="1.34"/><rect class="cls-8" x="52.32" y="15.68" width="2.98" height="15.58"/><rect class="cls-8" x="51.37" y="29.93" width="4.88" height="1.34"/><rect class="cls-8" x="51.37" y="15.68" width="4.88" height="1.34"/><rect class="cls-8" x="46.31" y="15.68" width="2.98" height="15.58"/><rect class="cls-8" x="45.36" y="29.93" width="4.88" height="1.34"/><rect class="cls-8" x="45.36" y="15.68" width="4.88" height="1.34"/><rect class="cls-8" x="40.3" y="15.68" width="2.98" height="15.58"/><rect class="cls-8" x="39.35" y="29.93" width="4.88" height="1.34"/><rect class="cls-8" x="39.35" y="15.68" width="4.88" height="1.34"/></svg>