<svg id="Layer_1" data-name="Layer 1" xmlns="http://www.w3.org/2000/svg" viewBox="0 0 100 100"><defs><style>.cls-1{fill:#09a582;}.cls-2{fill:#00604a;}.cls-3{fill:#ffc640;}.cls-4{fill:#231f20;}.cls-5{fill:#f37d3b;}</style></defs><title>cockatrice</title><path class="cls-1" d="M35.09,51.93s-12.32-1.06-12.91,5C22.18,56.89,2,43.77,0,33.15c0,0,5.14,1.56,6-2,0,0,4.82,3.16,5.64.44,0,0,7.75,3.74,7.64,1C19.29,32.63,15.52,37.89,35.09,51.93Z"/><path class="cls-1" d="M64.91,51.93s12.32-1.06,12.91,5c0,0,20.19-13.12,22.18-23.74,0,0-5.14,1.56-6-2,0,0-4.82,3.16-5.64.44,0,0-7.75,3.74-7.64,1C80.71,32.63,84.48,37.89,64.91,51.93Z"/><path class="cls-2" d="M81.67,67.49c16.29-4,8.5-15.24,8.5-15.24s4,9.31-11.94,8.84c-11-.32-12.79,6-12.84,9.92l6,3.88A15.71,15.71,0,0,1,81.67,67.49Z"/><polyline class="cls-1" points="41.6 82.25 45.28 82.25 43.44 93.03"/><polyline class="cls-1" points="52.64 82.25 56.32 82.25 54.48 93.03"/><path class="cls-2" d="M73.47,66.68c0,13.32-10.8,17.9-24.12,17.9S25.23,80,25.23,66.68a24.12,24.12,0,1,1,48.24,0Z"/><rect class="cls-3" x="40.79" y="50.2" width="16.39" height="6" rx="3" ry="3"/><path class="cls-3" d="M66.42,67.8a3,3,0,0,0-2.27-2.9A3,3,0,0,0,63.42,59H60.79a3,3,0,0,0-1-5.81H38.21a3,3,0,0,0-1,5.81H34.86a3,3,0,0,0-.73,5.89,3,3,0,0,0,0,5.81,3,3,0,0,0,.72,5.9h2.33a3,3,0,0,0,1,5.8h2.67a3,3,0,0,0,2.91,2.33H54.18a3,3,0,0,0,2.92-2.33h2.66a3,3,0,0,0,1-5.8h2.63a3,3,0,0,0,.71-5.9A3,3,0,0,0,66.42,67.8Z"/><path class="cls-1" d="M60.18,47.72a11.49,11.49,0,0,1-23,0c0-6.35,5.14-38.29,11.48-38.29S60.18,41.37,60.18,47.72Z"/><path class="cls-3" d="M51.75,18.67c0,1-3.06,6-3.06,6s-3-5-3-6,1.36-1.83,3-1.83S51.75,17.66,51.75,18.67Z"/><circle class="cls-4" cx="44.08" cy="16.1" r="0.74"/><circle class="cls-4" cx="53.05" cy="16.1" r="0.74"/><rect class="cls-5" x="47.82" y="6.97" width="1.75" height="4.79" rx="0.87" ry="0.87"/><circle class="cls-1" cx="38.41" cy="42.82" r="3.2"/><circle class="cls-1" cx="37.21" cy="46.78" r="3.2"/><circle class="cls-1" cx="37.58" cy="51.66" r="3.2"/><circle class="cls-1" cx="40.41" cy="56.4" r="3.2"/><circle class="cls-1" cx="45.37" cy="59.6" r="3.2"/><circle class="cls-1" cx="58.59" cy="42.82" r="3.2"/><circle class="cls-1" cx="59.79" cy="46.78" r="3.2"/><circle class="cls-1" cx="59.42" cy="51.66" r="3.2"/><circle class="cls-1" cx="56.59" cy="56.4" r="3.2"/><circle class="cls-1" cx="51.63" cy="59.6" r="3.2"/><polygon class="cls-1" points="74.49 63.15 77.39 59.2 79.75 62.41 74.49 63.15"/><polygon class="cls-1" points="82.46 62.01 83.93 59.2 86.09 61.18 82.46 62.01"/><polygon class="cls-1" points="88.99 59.6 88.99 56.89 90.2 58.24 88.99 59.6"/><path class="cls-5" d="M48.41,30.74a1.65,1.65,0,0,1-3-1.27c.35-.84,3.27-3.54,3.27-3.54S48.77,29.9,48.41,30.74Z"/><path class="cls-5" d="M48.91,30.74a1.65,1.65,0,0,0,3-1.27c-.35-.84-3.27-3.54-3.27-3.54S48.56,29.9,48.91,30.74Z"/></svg>