<svg id="Layer_1" data-name="Layer 1" xmlns="http://www.w3.org/2000/svg" viewBox="0 0 100 100"><defs><style>.cls-1{fill:#f37d3b;}.cls-2{fill:#fff;}.cls-3{fill:#ad7771;}.cls-4{fill:#fcca98;}.cls-5{fill:#7d7d7d;}.cls-6{fill:#f7973e;}.cls-7{fill:#3e3e3f;}.cls-8{fill:#da8636;}</style></defs><title>achilles</title><rect class="cls-1" x="33.94" y="47.93" width="32.54" height="42.18"/><polyline class="cls-2" points="26.66 87.72 25.62 85.29 27.93 86.22 28.93 88.57"/><polyline class="cls-2" points="29.63 88.92 28.59 86.49 30.9 87.42 31.91 89.77"/><polyline class="cls-2" points="26.38 88.42 23.95 89.46 26.25 90.39 28.61 89.39"/><polyline class="cls-2" points="29.35 89.62 26.92 90.66 29.22 91.58 31.58 90.58"/><rect class="cls-3" x="25.18" y="90.93" width="19.72" height="1.19" rx="0.59" ry="0.59" transform="translate(36.71 -6.46) rotate(21.92)"/><path class="cls-1" d="M44.12,92.24c1.41.56,2.35,3.89,2.35,3.89s-3,1.74-4.39,1.18-.38-3.1,1-2.54C45.14,95.59,42.72,91.67,44.12,92.24Z"/><path class="cls-1" d="M42.08,97.31c1.4.56,4.39-1.18,4.39-1.18s-.94-3.33-2.35-3.89-2.42,2-1,2.53C45.14,95.59,40.68,96.75,42.08,97.31Z"/><rect class="cls-4" x="61.85" y="46.75" width="6.21" height="17.23" rx="3.1" ry="3.1"/><rect class="cls-4" x="61.85" y="61.94" width="6.21" height="17.23" rx="3.1" ry="3.1"/><rect class="cls-4" x="52.34" y="69.2" width="8.6" height="30.8" rx="4.3" ry="4.3"/><rect class="cls-4" x="39.98" y="69.2" width="8.6" height="30.8" rx="4.3" ry="4.3"/><path class="cls-5" d="M59.57,68.8A3.22,3.22,0,0,0,56.35,72v2.34a3.22,3.22,0,1,0-6.43,0,3.21,3.21,0,0,0-5.85-1.83V72a3.22,3.22,0,0,0-6.43,0V83.24a3.21,3.21,0,0,0,5.85,1.83v.51a3.22,3.22,0,1,0,6.43,0,3.22,3.22,0,1,0,6.43,0V83.24a3.22,3.22,0,1,0,6.43,0V72A3.21,3.21,0,0,0,59.57,68.8Z"/><rect class="cls-4" x="32.37" y="46.75" width="6.21" height="17.23" rx="3.1" ry="3.1"/><rect class="cls-4" x="32.37" y="61.94" width="6.21" height="17.23" rx="3.1" ry="3.1"/><rect class="cls-6" x="35.47" y="42.81" width="29.02" height="38.25" rx="14.51" ry="14.51"/><rect class="cls-6" x="35.47" y="45.54" width="29.02" height="10.53" rx="5.26" ry="5.26"/><rect class="cls-1" x="46.21" width="7.57" height="15.47" rx="3.78" ry="3.78"/><path class="cls-6" d="M67.33,26.37a17.35,17.35,0,1,0-34.7,0V42.89h34.7Z"/><path class="cls-4" d="M35,19.45V32.66a15,15,0,0,0,29.94,0V19.45Z"/><circle class="cls-7" cx="39.07" cy="27.12" r="1.2"/><circle class="cls-7" cx="61.51" cy="27.15" r="1.2"/><rect class="cls-6" x="46.63" y="15.27" width="6.73" height="18.28" rx="3.37" ry="3.37"/><path class="cls-6" d="M34.35,29.81s2.6-15.1,10.74-5.63l1.58,7h3.25V17.51H35.57l-1.22,3"/><path class="cls-6" d="M65.49,29.81s-2.6-15.1-10.74-5.63l-1.58,7H49.92V17.51H64.27l1.22,3"/><path class="cls-6" d="M34.35,32.65s6.3,10.24,9.86,10.24H34.93"/><path class="cls-6" d="M65.16,32.65s-6.3,10.24-9.86,10.24h9.28"/><rect class="cls-1" x="44.78" y="37.06" width="11.02" height="1.02" rx="0.51" ry="0.51"/><polygon class="cls-8" points="47.23 60.8 53.2 60.8 50.21 56.53 47.23 60.8"/><rect class="cls-8" x="42.81" y="63.46" width="6.11" height="2.67" rx="1.33" ry="1.33"/><rect class="cls-8" x="51.34" y="63.46" width="6.11" height="2.67" rx="1.33" ry="1.33"/><rect class="cls-8" x="42.81" y="67.87" width="6.11" height="2.67" rx="1.33" ry="1.33"/><rect class="cls-8" x="51.34" y="67.87" width="6.11" height="2.67" rx="1.33" ry="1.33"/><rect class="cls-8" x="42.81" y="72.27" width="6.11" height="2.67" rx="1.33" ry="1.33"/><rect class="cls-8" x="51.34" y="72.27" width="6.11" height="2.67" rx="1.33" ry="1.33"/><rect class="cls-1" x="36.73" y="44.8" width="5.41" height="7.41" rx="2.7" ry="2.7"/><rect class="cls-1" x="57.61" y="44.8" width="5.41" height="7.41" rx="2.7" ry="2.7"/><circle class="cls-1" cx="42.91" cy="91.58" r="0.47"/><circle class="cls-1" cx="43.07" cy="93.85" r="0.16"/><circle class="cls-1" cx="41.84" cy="91.71" r="0.68"/><path class="cls-1" d="M41.45,93.7c0-1.22-.54-2.2-1.2-2.2a.68.68,0,0,0-.27.1v4.1s0,.06,0,.1a.73.73,0,0,0,.26.09C40.91,95.89,41.45,94.91,41.45,93.7Z"/></svg>