<svg id="Layer_1" data-name="Layer 1" xmlns="http://www.w3.org/2000/svg" viewBox="0 0 100 100"><defs><style>.cls-1{fill:#98abb5;}.cls-2{fill:#885e59;}.cls-3{fill:#8e9fa9;}.cls-4{fill:#f1f1f2;}.cls-5{fill:#ffc640;}.cls-6{fill:#80919a;}</style></defs><title>banshee</title><polygon class="cls-1" points="38.1 79.62 44.96 96.33 44.96 78.67 38.1 79.62"/><polygon class="cls-1" points="61.37 79.62 54.52 96.33 54.52 78.67 61.37 79.62"/><rect class="cls-1" x="17.76" y="41.9" width="15.22" height="4.71" rx="2.35" ry="2.35"/><rect class="cls-1" x="11.98" y="36.39" width="15.22" height="4.71" rx="2.35" ry="2.35" transform="translate(58.34 19.16) rotate(90)"/><rect class="cls-1" x="65.84" y="41.9" width="15.22" height="4.71" rx="2.35" ry="2.35" transform="translate(146.89 88.51) rotate(180)"/><rect class="cls-1" x="71.61" y="36.39" width="15.22" height="4.71" rx="2.35" ry="2.35" transform="translate(117.97 -40.47) rotate(90)"/><circle class="cls-1" cx="64.81" cy="19.66" r="2.61"/><circle class="cls-1" cx="63.19" cy="22.94" r="2.28"/><circle class="cls-1" cx="34.3" cy="19.66" r="2.61"/><circle class="cls-1" cx="35.93" cy="22.94" r="2.28"/><path class="cls-2" d="M60.33,50.89s6,26.92-27.79,37.93c0,0-14,3.36-14.22,11.18,0,0-5.86-10.31,3.2-17.06,0,0-9.95,1.78-12.79,8.17s2.48-20.79,12.08-23.63c0,0-18.13,2.5-20.26-4.17,0,0,22,3.1,20.44-3.83s8.53-18.6,14.75-21.65,20-1.77,20-1.77S60.76,45.86,60.33,50.89Z"/><path class="cls-2" d="M39.67,50.89s-6,26.92,27.79,37.93c0,0,14,3.36,14.22,11.18,0,0,5.86-10.31-3.2-17.06,0,0,10,1.78,12.79,8.17S88.79,70.32,79.19,67.48c0,0,18.13,2.5,20.26-4.17,0,0-22,3.1-20.44-3.83s-8.53-18.6-14.75-21.65-20-1.77-20-1.77S39.24,45.86,39.67,50.89Z"/><rect class="cls-1" x="38.1" y="35.79" width="23.58" height="31.37" rx="11.79" ry="11.79"/><rect class="cls-3" x="40.18" y="45.15" width="8" height="1.9" rx="0.95" ry="0.95"/><rect class="cls-3" x="51.52" y="45.15" width="8" height="1.9" rx="0.95" ry="0.95"/><rect class="cls-3" x="40.18" y="48.96" width="8" height="1.9" rx="0.95" ry="0.95"/><rect class="cls-3" x="51.52" y="48.96" width="8" height="1.9" rx="0.95" ry="0.95"/><rect class="cls-3" x="40.18" y="52.77" width="8" height="1.9" rx="0.95" ry="0.95"/><rect class="cls-3" x="51.52" y="52.77" width="8" height="1.9" rx="0.95" ry="0.95"/><path class="cls-4" d="M44.18,14.13s.49,6,3.72,8.52L48.7,16s-3-3-2.75-5.13c0-.11,2.34-4.52,2.36-4.63.46-2.29-2.42,2.08-2.42,2.08Z"/><path class="cls-4" d="M62.48,22.5a2.76,2.76,0,0,0,3.16-1.24c1-1.88,5.53-.79,5.53-.79s-3.49-2.95-5.41-1.76a2.45,2.45,0,0,1-3.23-.36s2.19,2,5.93-1.93,5-5.25,9.23-3.13,6.27-.53,6.81-5c0,0-2.61,7.33-6.41,3.77s-10,.16-10.56,2.7-6.26,1-6.26,1"/><path class="cls-4" d="M58,30.55s-1.19,2.55,4.78,1.22c0,0-3,.82-3.29-1.64"/><path class="cls-4" d="M51.3,8.84S58.51,2.33,54,0c0,0,7.06.33,1,8.35"/><path class="cls-4" d="M58.23,28.39s3.72,2.54,5.23,1.36,5.05,2.82,7,.82c0,0-5.43-.94-6.41-2.28S58.89,27,58.89,27"/><path class="cls-4" d="M61.1,15.76s-.93-6.49,1.09-7.6-1.4-6.25-1.4-6.25S63.4,5,60.78,7s-2.55,3.34-2.55,3.34"/><path class="cls-4" d="M55.52,14.13s-.49,6-3.72,8.52L51,16s3-3,2.75-5.13c0-.11-2.34-4.52-2.36-4.63C50.92,4,53.81,8.33,53.81,8.33Z"/><path class="cls-4" d="M37.22,22.5a2.76,2.76,0,0,1-3.16-1.24c-1-1.88-5.53-.79-5.53-.79s3.48-2.95,5.41-1.76a2.45,2.45,0,0,0,3.23-.36s-2.2,2-5.93-1.93-5-5.25-9.23-3.13-6.28-.53-6.81-5c0,0,2.61,7.33,6.41,3.77s10,.16,10.56,2.7,6.25,1,6.25,1"/><path class="cls-4" d="M41.66,30.55s1.19,2.55-4.79,1.22c0,0,3,.82,3.29-1.64"/><path class="cls-4" d="M48.4,8.84S41.19,2.33,45.71,0c0,0-7.05.33-1,8.35"/><path class="cls-4" d="M41.46,28.39s-3.71,2.54-5.23,1.36-5,2.82-7,.82c0,0,5.44-.94,6.42-2.28S40.81,27,40.81,27"/><path class="cls-4" d="M38.6,15.76s.92-6.49-1.09-7.6S38.9,1.91,38.9,1.91,36.3,5,38.92,7s2.54,3.34,2.54,3.34"/><path class="cls-1" d="M33.38,13.18c0-3.22,7.4-5.84,16.51-5.84S66.4,10,66.4,13.18,59,41,49.89,41,33.38,16.41,33.38,13.18Z"/><circle class="cls-5" cx="39.31" cy="15.31" r="1.61"/><circle class="cls-5" cx="60.74" cy="15.31" r="1.61"/><rect class="cls-6" x="48.17" y="10.97" width="0.92" height="5.46" rx="0.46" ry="0.46"/><rect class="cls-6" x="51.38" y="10.97" width="0.92" height="5.46" rx="0.46" ry="0.46"/><rect class="cls-6" x="38.89" y="21.64" width="22.01" height="7.89" rx="3.95" ry="3.95"/></svg>