<svg id="Layer_1" data-name="Layer 1" xmlns="http://www.w3.org/2000/svg" viewBox="0 0 100 100"><defs><style>.cls-1{fill:#7d8a7a;}.cls-2{fill:#3e3e3f;}.cls-3{fill:#f37d3b;}.cls-4{fill:#7c654d;}.cls-5{fill:#ffc540;}.cls-6{fill:#697767;}</style></defs><title>bunyip</title><rect class="cls-1" x="1.87" y="41.36" width="31.83" height="10.28" rx="5.14" ry="5.14"/><rect class="cls-1" x="23.17" y="52.93" width="5.14" height="29.92" rx="2.57" ry="2.57"/><rect class="cls-1" x="49.03" y="52.93" width="5.14" height="29.92" rx="2.57" ry="2.57"/><rect class="cls-1" x="59.69" y="52.93" width="5.14" height="29.92" rx="2.57" ry="2.57"/><path class="cls-1" d="M64.57,48.48c7,7.17,6.33,19.22-1.53,26.91s-19.92,8.11-26.93.94-28.84-42.21-21-49.9S57.55,41.32,64.57,48.48Z"/><rect class="cls-1" x="32.13" y="52.93" width="5.14" height="29.92" rx="2.57" ry="2.57"/><circle class="cls-1" cx="17" cy="35.56" r="15.13"/><circle class="cls-2" cx="4.48" cy="35.87" r="1.2"/><circle class="cls-2" cx="30.22" cy="35.56" r="1.2"/><path class="cls-1" d="M67.27,52.77c-.13-.08,0,.14,0,.25s.16.29.23.43c.15.3.35.62.55.94.4.64.86,1.3,1.34,2a41.52,41.52,0,0,0,3.2,3.82,59.59,59.59,0,0,0,7.8,7,70.07,70.07,0,0,0,9.25,5.74c1.62.92,3.34,1.59,5,2.41s3.5,1.37,5.28,2.07c-1.89,0-3.81.14-5.74.12s-3.88-.06-5.81-.29A76.67,76.67,0,0,1,76.7,75.26a71.08,71.08,0,0,1-11.67-4,54.2,54.2,0,0,1-5.72-2.93c-1-.55-1.89-1.13-2.84-1.78-.47-.33-.94-.65-1.43-1-.25-.2-.47-.35-.74-.58a8.47,8.47,0,0,1-.89-.8A9,9,0,1,1,67.27,52.77Z"/><rect class="cls-3" x="6.31" y="38.42" width="21.8" height="9.77" rx="4.89" ry="4.89"/><path class="cls-4" d="M34.42,34.36A17.21,17.21,0,0,0,0,34.36L2.87,29.2l2.87,5.16L8.61,29.2l2.86,5.16,2.87-5.16,2.87,5.16,2.87-5.16L23,34.36l2.87-5.16,2.87,5.16,2.86-5.16Z"/><polygon class="cls-5" points="7.29 40.61 11.39 40.61 9.34 50.93 7.29 40.61"/><polygon class="cls-5" points="22.83 40.61 26.93 40.61 24.88 50.93 22.83 40.61"/><ellipse class="cls-6" cx="12.24" cy="37.93" rx="6.34" ry="4.28" transform="translate(-11.48 5.9) rotate(-18.63)"/><ellipse class="cls-6" cx="21.75" cy="37.93" rx="4.28" ry="6.34" transform="translate(-21.14 46.43) rotate(-71.37)"/><path class="cls-2" d="M19.59,33.71a3.1,3.1,0,0,1-2.86,2.16,3.1,3.1,0,0,1-2.86-2.16c0-.66,1.28-1.19,2.86-1.19S19.59,33.05,19.59,33.71Z"/><path class="cls-4" d="M93.9,79.23c1.12-1,2.19-2,3.23-3L100,77.34s-.87-.57-2.32-1.58l.87-.83-2.5-.31c-6.84-4.83-20.93-15.33-28.87-25.13C56.43,36.21,32.13,28,32.13,28l2.08,2c.43,2.06.78,4.11,1.12,6.16q2.89-1,5.85-2l.17.11c.33,2,.62,4.09.88,6.12,1.92-.61,3.87-1.2,5.83-1.75l.27.17c.24,2,.44,4.06.6,6.06q2.91-.78,5.91-1.43l.27.19c.11,2,.2,4.07.16,6.08A54.87,54.87,0,0,1,61,49l.57.52a23.67,23.67,0,0,1-.9,5.64,56.28,56.28,0,0,1,5.73.54l.42.54c-.56,1.87-1.13,3.72-1.6,5.64a55.05,55.05,0,0,0,6,.35l.28.38a38.78,38.78,0,0,0-.78,5.91c1.1-.07,2.17-.18,3.2-.32s1.78-.35,2.64-.55l.46.45a30.28,30.28,0,0,0,.66,5.75c1-.34,2-.71,3-1.1s1.71-.81,2.53-1.23l.41.22a42.39,42.39,0,0,0,2,5.61,52,52,0,0,0,4.93-3.38l.49.15C91.85,75.78,92.82,77.52,93.9,79.23Z"/></svg>