<svg id="Layer_1" data-name="Layer 1" xmlns="http://www.w3.org/2000/svg" viewBox="0 0 100 100"><defs><style>.cls-1{fill:#fff;}.cls-2{fill:#ad7771;}.cls-3{fill:#f37d3b;}.cls-4{fill:#cda132;}.cls-5{fill:#48484a;}.cls-6{fill:#515254;}.cls-7{fill:#ffc540;}.cls-8{fill:#3e3e3f;}.cls-9{fill:#231f20;}</style></defs><title>calydonian boar</title><polyline class="cls-1" points="1.85 65.48 0.02 63.64 2.46 63.65 4.23 65.43"/><polyline class="cls-1" points="4.99 65.5 3.17 63.65 5.61 63.66 7.38 65.45"/><polyline class="cls-1" points="1.84 66.23 0 68.05 2.44 68.06 4.23 66.29"/><polyline class="cls-1" points="4.99 66.24 3.15 68.07 5.59 68.08 7.38 66.31"/><rect class="cls-2" x="1.19" y="65.33" width="19.37" height="1.17" rx="0.58" ry="0.58" transform="matrix(1, 0, 0, 1, 0.29, -0.05)"/><path class="cls-3" d="M19.43,63.27C20.91,63.27,23,66,23,66s-2.1,2.68-3.58,2.67S17.94,66,19.42,66C21.57,66,18,63.26,19.43,63.27Z"/><path class="cls-3" d="M19.41,68.64C20.89,68.65,23,66,23,66s-2.08-2.7-3.56-2.7S17.94,66,19.42,66C21.57,66,17.92,68.63,19.41,68.64Z"/><polyline class="cls-1" points="26.48 8.84 26.61 6.24 28.25 8.06 28.11 10.57"/><polyline class="cls-1" points="28.58 11.17 28.72 8.58 30.35 10.4 30.22 12.91"/><polyline class="cls-1" points="25.92 9.33 23.33 9.2 24.96 11.01 27.47 11.14"/><polyline class="cls-1" points="28.02 11.67 25.43 11.53 27.07 13.35 29.58 13.48"/><rect class="cls-2" x="22.54" y="15.23" width="19.37" height="1.17" rx="0.58" ry="0.58" transform="translate(22.44 -18.72) rotate(48.04)"/><path class="cls-3" d="M39.93,20.37c1,1.1.39,4.45.39,4.45s-3.39.25-4.39-.86,1-2.9,2-1.79C39.37,23.77,38.94,19.27,39.93,20.37Z"/><path class="cls-3" d="M35.93,24c1,1.11,4.39.86,4.39.86s.6-3.35-.39-4.45-3,.69-2,1.8C39.37,23.77,34.94,22.86,35.93,24Z"/><polyline class="cls-1" points="67.14 7.36 69.02 5.57 68.96 8.01 67.14 9.74"/><polyline class="cls-1" points="67.06 10.5 68.94 8.71 68.88 11.15 67.06 12.89"/><polyline class="cls-1" points="66.39 7.34 64.6 5.46 64.54 7.9 66.28 9.72"/><polyline class="cls-1" points="66.32 10.48 64.53 8.61 64.47 11.05 66.2 12.87"/><rect class="cls-2" x="56.84" y="15.8" width="19.37" height="1.17" rx="0.58" ry="0.58" transform="translate(84.51 -49.73) rotate(91.38)"/><path class="cls-3" d="M69,25c0,1.48-2.77,3.5-2.77,3.5s-2.63-2.15-2.6-3.63,2.72-1.42,2.69.07C66.27,27.07,69,23.5,69,25Z"/><path class="cls-3" d="M63.63,24.85c0,1.48,2.6,3.63,2.6,3.63S69,26.46,69,25s-2.65-1.55-2.68-.06C66.27,27.07,63.67,23.37,63.63,24.85Z"/><polyline class="cls-1" points="36.52 7.15 37.48 4.74 38.45 6.98 37.52 9.32"/><polyline class="cls-1" points="37.77 10.04 38.72 7.63 39.69 9.87 38.77 12.21"/><polyline class="cls-1" points="35.84 7.45 33.42 6.49 34.39 8.73 36.73 9.66"/><polyline class="cls-1" points="37.08 10.34 34.67 9.38 35.64 11.62 37.98 12.55"/><rect class="cls-2" x="30.06" y="15.02" width="19.37" height="1.17" rx="0.58" ry="0.58" transform="translate(38.29 -27.07) rotate(66.62)"/><path class="cls-3" d="M45.6,22.37c.59,1.37-1.05,4.35-1.05,4.35s-3.3-.85-3.88-2.21,1.87-2.43,2.46-1.07C44,25.42,45,21,45.6,22.37Z"/><path class="cls-3" d="M40.67,24.51c.58,1.36,3.88,2.21,3.88,2.21s1.64-3,1.05-4.35-3.06-.29-2.47,1.07C44,25.42,40.08,23.15,40.67,24.51Z"/><polyline class="cls-1" points="5.3 29.64 4.26 27.27 6.53 28.15 7.54 30.45"/><polyline class="cls-1" points="8.23 30.79 7.19 28.41 9.46 29.3 10.47 31.6"/><polyline class="cls-1" points="5.03 30.34 2.65 31.38 4.93 32.27 7.23 31.26"/><polyline class="cls-1" points="7.96 31.48 5.58 32.52 7.86 33.41 10.16 32.4"/><rect class="cls-2" x="3.89" y="32.71" width="19.37" height="1.17" rx="0.58" ry="0.58" transform="translate(13.02 -2.66) rotate(21.31)"/><path class="cls-3" d="M22.5,33.89c1.39.54,2.35,3.8,2.35,3.8s-2.92,1.75-4.3,1.21-.4-3,1-2.51C23.53,37.18,21.12,33.35,22.5,33.89Z"/><path class="cls-3" d="M20.55,38.9c1.38.54,4.3-1.21,4.3-1.21s-1-3.26-2.35-3.8-2.35,2-1,2.5C23.53,37.18,19.17,38.36,20.55,38.9Z"/><path class="cls-4" d="M18.38,62.61c0,1.45-1.54,2.62-3.44,2.62s-3.45-1.17-3.45-2.62S13,46,14.94,46,18.38,61.16,18.38,62.61Z"/><rect class="cls-5" x="65.68" y="74.74" width="7.71" height="20.52" rx="1.8" ry="1.8"/><rect class="cls-6" x="80.07" y="74.74" width="7.71" height="20.52" rx="1.8" ry="1.8"/><rect class="cls-5" x="34.83" y="74.74" width="7.71" height="20.52" rx="1.8" ry="1.8"/><rect class="cls-6" x="15.9" y="23.38" width="79.59" height="62.24" rx="12.32" ry="12.32"/><path class="cls-7" d="M43.85,62.61c0,1.45-1.54,2.62-3.44,2.62S37,64.06,37,62.61,38.51,46,40.41,46,43.85,61.16,43.85,62.61Z"/><rect class="cls-6" x="10.6" y="59.18" width="34.08" height="15.56" rx="3.63" ry="3.63"/><rect class="cls-6" x="20.44" y="66.96" width="28.78" height="15.56" rx="3.63" ry="3.63"/><ellipse class="cls-8" cx="24.47" cy="56.98" rx="11.32" ry="12.94"/><rect class="cls-9" x="17.72" y="48.37" width="3.61" height="14.46" rx="0.9" ry="0.9"/><rect class="cls-9" x="25.51" y="48.37" width="3.61" height="14.46" rx="0.9" ry="0.9"/><path class="cls-6" d="M27.46,21.67a6.8,6.8,0,0,1-9.61,9.61C15.2,28.62,13.15,17,13.15,17S24.81,19,27.46,21.67Z"/><rect class="cls-6" x="49.22" y="74.74" width="7.71" height="20.52" rx="1.8" ry="1.8"/><path class="cls-6" d="M97.88,38.72A2.12,2.12,0,0,1,96.27,38a7.32,7.32,0,0,0-5.85-2.61,2.12,2.12,0,0,1-.5-4.21,11.54,11.54,0,0,1,9.57,4.06,2.12,2.12,0,0,1-1.61,3.5Z"/><circle class="cls-3" cx="55.38" cy="45.59" r="1.55"/><path class="cls-8" d="M36.39,17.13s-20.78,2-23.47,21.14L21.14,30l2.05,9.36,6-7.21L35.07,44l5-8.24,4.55,10,10.06-5.38,9.59,4,6.82-4,9.75,6.11L84.2,44l4.26.45,1.71-3.13,2.14,6.27,1.61-3.14,4,3.14S97.81,22,80.07,18.45,36.39,17.13,36.39,17.13Z"/><path class="cls-6" d="M52.73,21.67a6.79,6.79,0,0,0,9.6,9.61C65,28.62,67,17,67,17S55.38,19,52.73,21.67Z"/><path class="cls-5" d="M55.29,23.1a4,4,0,0,0,5.61,5.61c1.55-1.55,2.75-8.36,2.75-8.36S56.84,21.55,55.29,23.1Z"/><rect class="cls-8" x="64.08" y="52.34" width="1.32" height="10.92" rx="0.66" ry="0.66"/><rect class="cls-8" x="62.57" y="54.5" width="4.46" height="0.85" rx="0.43" ry="0.43"/><rect class="cls-8" x="62.57" y="56.98" width="4.46" height="0.85" rx="0.43" ry="0.43"/><rect class="cls-8" x="62.57" y="59.46" width="4.46" height="0.85" rx="0.43" ry="0.43"/></svg>