<svg id="Layer_1" data-name="Layer 1" xmlns="http://www.w3.org/2000/svg" viewBox="0 0 100 100"><defs><style>.cls-1{fill:#f7973e;}.cls-2{fill:#f37d3b;}.cls-3{fill:#09a481;}.cls-4{fill:#c96730;}.cls-5{fill:#ffc640;}.cls-6{fill:#dbdcdd;}.cls-7{fill:#fff;}.cls-8{fill:#231f20;}</style></defs><title>camazotz</title><path class="cls-1" d="M48.92,66.67a31.41,31.41,0,0,1,6.61.24,23.46,23.46,0,0,1,6.39,1.78,14.61,14.61,0,0,1,5.45,4.19,13.44,13.44,0,0,1,2.54,6.19c.27,1.72,1,3.19,2.45,3.64s3.35-.09,4.84-1.13a6.8,6.8,0,0,0,3-4.45,3.92,3.92,0,0,0-.65-2.66,6.8,6.8,0,0,0-2.19-1.93,6.87,6.87,0,0,1,2.47,1.71A4.4,4.4,0,0,1,81,77.17a7.83,7.83,0,0,1-2.86,5.55,7.6,7.6,0,0,1-6.25,2.1,5.39,5.39,0,0,1-3.17-1.94,8.62,8.62,0,0,1-1.58-3.14,10.12,10.12,0,0,0-2.47-4.51,10.62,10.62,0,0,0-4.29-2.5,23.15,23.15,0,0,0-10.57-.34Z"/><path class="cls-2" d="M79.72,74.33s-3.86,2.38-5.8-3C73.92,71.35,78.94,69.53,79.72,74.33Z"/><rect class="cls-3" x="34" y="21.69" width="32.41" height="6.23" rx="3.12" ry="3.12"/><rect class="cls-3" x="40.91" y="17.26" width="9.03" height="13.33" rx="4.52" ry="4.52"/><rect class="cls-3" x="49.99" y="17.26" width="9.03" height="13.33" rx="4.52" ry="4.52"/><rect class="cls-3" x="45.48" y="12.46" width="9.03" height="13.33" rx="4.52" ry="4.52"/><path class="cls-1" d="M50.62,73.14,86.12,62.2l10,5.94a2.56,2.56,0,0,0,3.65-3.21L90,42.23a2.56,2.56,0,0,0-2.23-1.53l-20.2-1a2.76,2.76,0,0,0-1.46.37L51.3,49.19,54,53.55l14.1-8.67,17.82.85,6.07,14-4.21-2.5a2.59,2.59,0,0,0-2-.24L49.12,68.26Z"/><polyline class="cls-4" points="52.63 51.37 67.4 42.29 87.6 43.25 97.44 65.94 86.45 59.42 49.87 70.7"/><polygon class="cls-1" points="96.87 66.36 82 46.14 69.31 46.14 57.48 53.37 56.74 52.16 68.91 44.72 82.71 44.72 98.02 65.52 96.87 66.36"/><polygon class="cls-1" points="85.94 60.91 80.03 50.72 68.84 46.09 69.38 44.78 81.01 49.6 87.17 60.19 85.94 60.91"/><polygon class="cls-1" points="76.03 63.54 75.12 53.3 68.6 46.36 69.63 45.39 76.49 52.68 77.44 63.41 76.03 63.54"/><path class="cls-1" d="M49.38,73.14,13.88,62.2l-10,5.94A2.56,2.56,0,0,1,.21,64.93l9.84-22.7a2.56,2.56,0,0,1,2.23-1.53l20.2-1a2.76,2.76,0,0,1,1.46.37L48.7,49.19,46,53.55l-14.1-8.67-17.82.85L8,59.72l4.21-2.5A2.59,2.59,0,0,1,14.3,57L50.88,68.26Z"/><polyline class="cls-4" points="47.37 51.37 32.6 42.29 12.4 43.25 2.56 65.94 13.55 59.42 50.13 70.7"/><polygon class="cls-1" points="3.13 66.36 1.99 65.52 17.29 44.72 31.09 44.72 43.27 52.16 42.52 53.37 30.69 46.14 18 46.14 3.13 66.36"/><polygon class="cls-1" points="14.06 60.91 12.84 60.19 18.98 49.6 30.62 44.78 31.16 46.09 19.97 50.72 14.06 60.91"/><polygon class="cls-1" points="23.97 63.54 22.55 63.41 23.51 52.68 30.37 45.39 31.4 46.36 24.88 53.3 23.97 63.54"/><rect class="cls-1" x="40.51" y="41.09" width="17.31" height="19.64" rx="8.65" ry="8.65"/><rect class="cls-1" x="38.11" y="49.65" width="22.05" height="25.57" rx="11.02" ry="11.02"/><rect class="cls-1" x="40.51" y="68.19" width="4.01" height="16.16" rx="2" ry="2"/><rect class="cls-1" x="36.19" y="82.56" width="3.4" height="4.98" rx="1.7" ry="1.7"/><rect class="cls-1" x="39.43" y="82.56" width="3.4" height="4.98" rx="1.7" ry="1.7"/><rect class="cls-1" x="42.67" y="82.56" width="3.4" height="4.98" rx="1.7" ry="1.7"/><polyline class="cls-1" points="37.09 84.35 32.17 87.54 37.9 87.54"/><rect class="cls-1" x="53.95" y="68.19" width="4.01" height="16.16" rx="2" ry="2" transform="translate(111.91 152.54) rotate(180)"/><rect class="cls-1" x="58.88" y="82.56" width="3.4" height="4.98" rx="1.7" ry="1.7" transform="translate(121.16 170.11) rotate(-180)"/><rect class="cls-1" x="55.64" y="82.56" width="3.4" height="4.98" rx="1.7" ry="1.7" transform="translate(114.68 170.11) rotate(-180)"/><rect class="cls-1" x="52.4" y="82.56" width="3.4" height="4.98" rx="1.7" ry="1.7" transform="translate(108.2 170.11) rotate(180)"/><polyline class="cls-1" points="61.39 84.35 66.3 87.54 60.58 87.54"/><rect class="cls-1" x="37.06" y="43.53" width="3.36" height="13.53" rx="1.68" ry="1.68" transform="translate(58.43 -10.05) rotate(55.68)"/><polygon class="cls-5" points="25.79 56.12 24.45 66.47 27.8 56.5 25.79 56.12"/><polygon class="cls-5" points="27.05 57.13 25.7 67.48 29.06 57.51 27.05 57.13"/><polygon class="cls-5" points="28.3 58.14 26.96 68.49 30.31 58.52 28.3 58.14"/><rect class="cls-1" x="27.92" y="49.86" width="5.86" height="11.64" rx="2.93" ry="2.93" transform="translate(59.44 -1.19) rotate(55.68)"/><rect class="cls-1" x="57.56" y="43.53" width="3.36" height="13.53" rx="1.68" ry="1.68" transform="translate(134.18 29.73) rotate(124.32)"/><polygon class="cls-5" points="72.18 56.12 73.53 66.47 70.17 56.5 72.18 56.12"/><polygon class="cls-5" points="70.93 57.13 72.27 67.48 68.91 57.51 70.93 57.13"/><polygon class="cls-5" points="69.67 58.14 71.02 68.49 67.66 58.52 69.67 58.14"/><rect class="cls-1" x="64.19" y="49.86" width="5.86" height="11.64" rx="2.93" ry="2.93" transform="translate(150.96 31.64) rotate(124.32)"/><circle class="cls-2" cx="42.55" cy="60.69" r="0.61"/><circle class="cls-2" cx="44.79" cy="62.43" r="0.61"/><circle class="cls-2" cx="53.95" cy="57.06" r="0.61"/><path class="cls-6" d="M50.72,52.28c-.51,0-1,0-1.62-.05-4.85-.26-7.79-1.32-8.74-3.16a3,3,0,0,1,.11-2.89.57.57,0,0,1,1,.61,1.88,1.88,0,0,0,0,1.77c.42.81,2,2.22,7.77,2.53,5.25.26,7.12-.82,7.78-1.8A2.52,2.52,0,0,0,57.1,47a.57.57,0,1,1,1-.49,3.63,3.63,0,0,1-.24,3.4C56.84,51.49,54.43,52.28,50.72,52.28Z"/><rect class="cls-7" x="39.63" y="47.85" width="4.52" height="4.94" rx="2.26" ry="2.26" transform="translate(16.17 -9.89) rotate(16.64)"/><path class="cls-7" d="M43,51.33a.47.47,0,0,0-.58.32l-.12.4a.47.47,0,0,0-.32-.58.45.45,0,0,0-.48.18.43.43,0,0,0-.3-.41.46.46,0,0,0-.58.31l.12-.4a.48.48,0,0,0-.32-.59.47.47,0,0,0-.58.32l-.41,1.36a.48.48,0,0,0,.32.59.47.47,0,0,0,.58-.32l-.12.4a.48.48,0,0,0,.32.59.46.46,0,0,0,.48-.19.44.44,0,0,0,.3.42.47.47,0,0,0,.58-.32L42,53a.48.48,0,0,0,.32.59.47.47,0,0,0,.58-.32l.41-1.36A.48.48,0,0,0,43,51.33Z"/><ellipse class="cls-6" cx="40.67" cy="50.09" rx="0.8" ry="0.49" transform="translate(-10.47 10.75) rotate(-13.36)"/><ellipse class="cls-6" cx="43.1" cy="50.82" rx="0.49" ry="0.8" transform="translate(-23.12 43.46) rotate(-43.36)"/><rect class="cls-7" x="54.37" y="47.85" width="4.52" height="4.94" rx="2.26" ry="2.26" transform="translate(125.29 82.32) rotate(163.36)"/><path class="cls-7" d="M55.52,51.33a.48.48,0,0,1,.59.32l.12.4a.46.46,0,0,1,.31-.58.45.45,0,0,1,.48.18.44.44,0,0,1,.3-.41.47.47,0,0,1,.59.31l-.12-.4a.47.47,0,0,1,.31-.59.48.48,0,0,1,.59.32l.4,1.36a.47.47,0,0,1-.31.59.48.48,0,0,1-.59-.32l.12.4a.48.48,0,0,1-.31.59.45.45,0,0,1-.48-.19.46.46,0,0,1-.3.42.48.48,0,0,1-.59-.32l-.12-.4a.47.47,0,0,1-.31.59.48.48,0,0,1-.59-.32l-.4-1.36A.47.47,0,0,1,55.52,51.33Z"/><ellipse class="cls-6" cx="57.85" cy="50.09" rx="0.49" ry="0.8" transform="translate(-4.25 94.8) rotate(-76.64)"/><ellipse class="cls-6" cx="55.42" cy="50.82" rx="0.8" ry="0.49" transform="translate(-19.58 56.22) rotate(-46.64)"/><rect class="cls-7" x="44.44" y="49.57" width="4.52" height="4.94" rx="2.26" ry="2.26"/><path class="cls-7" d="M48.05,52.69a.48.48,0,0,0-.47.47v.42a.48.48,0,0,0-.47-.47.46.46,0,0,0-.41.32.46.46,0,0,0-.41-.32.48.48,0,0,0-.47.47v-.42a.48.48,0,0,0-.47-.47.48.48,0,0,0-.47.47v1.43a.48.48,0,0,0,.47.47.48.48,0,0,0,.47-.47V55a.48.48,0,0,0,.47.47.46.46,0,0,0,.41-.32.46.46,0,0,0,.41.32.48.48,0,0,0,.47-.47v-.42a.47.47,0,0,0,.94,0V53.16A.48.48,0,0,0,48.05,52.69Z"/><ellipse class="cls-6" cx="45.46" cy="52.17" rx="0.8" ry="0.49" transform="translate(-19.99 29.72) rotate(-30)"/><ellipse class="cls-6" cx="48" cy="52.17" rx="0.49" ry="0.8" transform="matrix(0.5, -0.87, 0.87, 0.5, -21.18, 67.65)"/><rect class="cls-7" x="49.49" y="49.65" width="4.52" height="4.94" rx="2.26" ry="2.26"/><path class="cls-7" d="M53.09,52.78a.48.48,0,0,0-.47.47v.42a.47.47,0,0,0-.47-.47.45.45,0,0,0-.4.32.45.45,0,0,0-.41-.32.47.47,0,0,0-.47.47v-.42a.47.47,0,0,0-.94,0v1.42a.47.47,0,0,0,.94,0v.42a.47.47,0,0,0,.47.47.45.45,0,0,0,.41-.31.45.45,0,0,0,.4.31.47.47,0,0,0,.47-.47v-.42a.48.48,0,0,0,.47.47.47.47,0,0,0,.47-.47V53.25A.47.47,0,0,0,53.09,52.78Z"/><ellipse class="cls-6" cx="50.51" cy="52.25" rx="0.8" ry="0.49" transform="translate(-19.36 32.26) rotate(-30)"/><ellipse class="cls-6" cx="53.05" cy="52.25" rx="0.49" ry="0.8" transform="translate(-18.73 72.07) rotate(-60)"/><path class="cls-2" d="M39,25.11S34.4,13.93,17.23,14.32c0,0,1.15,5.68,2.68,6.06,0,0-1,3.7,1.28,4.73a3.29,3.29,0,0,0,4,2.23s.38,2.17,3.57,1.92l5.81.25"/><path class="cls-1" d="M39,25.11S34.4,13.93,17.23,14.32c0,0,.12.57.33,1.37,15.73.38,20,10.76,20,10.76l-3.08,3.06h0Z"/><path class="cls-2" d="M61.92,25.11s4.55-11.18,21.73-10.79c0,0-1.15,5.68-2.68,6.06,0,0,1,3.7-1.28,4.73a3.29,3.29,0,0,1-4,2.23s-.38,2.17-3.57,1.92l-5.81.25"/><path class="cls-1" d="M61.92,25.11s4.55-11.18,21.73-10.79c0,0-.12.57-.33,1.37-15.74.38-20,10.76-20,10.76l3.08,3.06h0Z"/><rect class="cls-1" x="34.53" y="25.79" width="30.39" height="21.05" rx="10.53" ry="10.53"/><rect class="cls-1" x="30.66" y="23.83" width="18.42" height="15.05" rx="7.53" ry="7.53"/><rect class="cls-1" x="51.51" y="23.83" width="18.42" height="15.05" rx="7.53" ry="7.53"/><circle class="cls-8" cx="36.37" cy="31.41" r="1.39"/><circle class="cls-8" cx="64.52" cy="31.41" r="1.39"/><rect class="cls-4" x="39.12" y="33.87" width="21.77" height="7.24" rx="3.62" ry="3.62"/><path class="cls-5" d="M44,33.87h-1.3a3.44,3.44,0,0,0-1.4.29l1.29,3Z"/><path class="cls-5" d="M57.44,33.89l-.18,0H54.62L56,37.19Z"/><path class="cls-2" d="M53,31.45c0-3.3-1.34-6-3-6s-3,2.71-3,6v.09h6Z"/><circle class="cls-2" cx="37.76" cy="38.1" r="0.61"/><rect class="cls-4" x="48.62" y="26.94" width="1.05" height="4.01" rx="0.53" ry="0.53"/><rect class="cls-4" x="50.24" y="26.94" width="1.05" height="4.01" rx="0.53" ry="0.53"/><path class="cls-5" d="M50.83,17.42A6.74,6.74,0,0,1,50,20.59a6.74,6.74,0,0,1-.87-3.17A6.74,6.74,0,0,1,50,14.25,6.74,6.74,0,0,1,50.83,17.42Z"/><path class="cls-5" d="M45.55,20.85A3.2,3.2,0,0,1,44.26,23,3.2,3.2,0,0,1,43,20.85a3.2,3.2,0,0,1,1.28-2.12A3.2,3.2,0,0,1,45.55,20.85Z"/><path class="cls-5" d="M57.32,20.85A3.2,3.2,0,0,1,56,23a3.2,3.2,0,0,1-1.28-2.12A3.2,3.2,0,0,1,56,18.73,3.2,3.2,0,0,1,57.32,20.85Z"/><rect class="cls-3" x="40.51" y="79.71" width="4.02" height="1.39"/><rect class="cls-3" x="40.51" y="76.59" width="4.02" height="2.62"/><rect class="cls-3" x="53.95" y="79.71" width="4.02" height="1.39"/><rect class="cls-3" x="53.95" y="76.59" width="4.02" height="2.62"/></svg>