<svg id="Layer_1" data-name="Layer 1" xmlns="http://www.w3.org/2000/svg" xmlns:xlink="http://www.w3.org/1999/xlink" viewBox="0 0 100 100"><defs><style>.cls-1{fill:none;}.cls-2{clip-path:url(#clip-path);}.cls-3{fill:#3e3e3f;}.cls-4{clip-path:url(#clip-path-2);}.cls-5{fill:#58595b;}.cls-6{fill:#ffc640;}.cls-7{fill:#ffdb91;}.cls-8{clip-path:url(#clip-path-3);}.cls-9{fill:#ce8561;}.cls-10{fill:#f6ccb5;}.cls-11{fill:#e1ab75;}.cls-12{fill:#ffcf2b;}.cls-13{fill:#ffb902;}.cls-14{fill:#fb9400;}.cls-15{fill:#f5bebd;}.cls-16{clip-path:url(#clip-path-4);}.cls-17{fill:#ebb1b2;}.cls-18{fill:#c5c7c9;}.cls-19{fill:#f9b68a;}.cls-20{fill:#f5853c;}.cls-21{fill:#ffdd8c;}.cls-22{fill:#ffc63f;}</style><clipPath id="clip-path"><path class="cls-1" d="M84.58,65.9a34.58,34.58,0,1,1-69.16-1C15.68,45.84,31.81-.26,50.91,0S84.85,46.8,84.58,65.9Z"/></clipPath><clipPath id="clip-path-2"><path class="cls-1" d="M88.6-4H12.18A15.33,15.33,0,0,0-3.11,11.29V87.71A15.33,15.33,0,0,0,12.18,103H88.6a15.33,15.33,0,0,0,15.29-15.29V11.29A15.33,15.33,0,0,0,88.6-4Z"/></clipPath><clipPath id="clip-path-3"><circle class="cls-1" cx="28.77" cy="83.57" r="10.27"/></clipPath><clipPath id="clip-path-4"><path class="cls-1" d="M23.54,49.89a4.84,4.84,0,1,1-4.84-4.84,4.84,4.84,0,0,1,4.84,4.84Zm0,0"/></clipPath></defs><title>cosmic egg</title><g class="cls-2"><path class="cls-3" d="M88.6-4H12.18A15.33,15.33,0,0,0-3.11,11.29V87.71A15.33,15.33,0,0,0,12.18,103H88.6a15.33,15.33,0,0,0,15.29-15.29V11.29A15.33,15.33,0,0,0,88.6-4Z"/><g class="cls-4"><path class="cls-5" d="M11,40.62v6.6C53.33,28.34,84,18.05,88.36,22c.15.14.42.21.51.38C91.76,28.07,59.37,50.71,11,78V99.46C41.81,82.55,69.16,66.14,91,51.61V8.46C69,15.83,41.56,26.83,11,40.62Z"/></g><circle class="cls-6" cx="14.35" cy="89.32" r="0.86"/><circle class="cls-6" cx="10.42" cy="46.52" r="0.86"/><circle class="cls-6" cx="51.25" cy="2.53" r="0.86"/><circle class="cls-6" cx="71.22" cy="27.17" r="0.86"/><circle class="cls-6" cx="84.13" cy="88.96" r="0.86"/><circle class="cls-6" cx="95.9" cy="53.82" r="0.74"/><circle class="cls-6" cx="10.64" cy="16.27" r="0.74"/><circle class="cls-6" cx="67.27" cy="75.93" r="0.37"/><circle class="cls-6" cx="95.23" cy="19.67" r="0.37"/><circle class="cls-6" cx="35.84" cy="11.29" r="0.37"/><circle class="cls-6" cx="53.62" cy="38.41" r="0.37"/><circle class="cls-6" cx="64.76" cy="12.89" r="0.37"/><circle class="cls-6" cx="61.86" cy="85.01" r="0.37"/><path class="cls-6" d="M57.87,9.55s-13,10.78-14.4,11.59A3,3,0,0,1,40.54,16C42,15.17,57.87,9.55,57.87,9.55Z"/><circle class="cls-6" cx="42.01" cy="18.56" r="2.96"/><path class="cls-6" d="M56,91.6s-5.77,4.79-6.4,5.15a1.32,1.32,0,1,1-1.3-2.29C49,94.1,56,91.6,56,91.6Z"/><circle class="cls-6" cx="48.98" cy="95.61" r="1.32"/><path class="cls-6" d="M99.07,26.47S92.44,32,91.71,32.39a1.51,1.51,0,1,1-1.5-2.63C90.94,29.35,99.07,26.47,99.07,26.47Z"/><circle class="cls-6" cx="90.96" cy="31.08" r="1.51"/><path class="cls-6" d="M24.16,60.87S8.61,73.79,6.91,74.76A3.55,3.55,0,0,1,3.4,68.58C5.1,67.61,24.16,60.87,24.16,60.87Z"/><circle class="cls-6" cx="5.15" cy="71.67" r="3.55"/><circle class="cls-7" cx="46.11" cy="44.51" r="7.67"/><circle class="cls-6" cx="46.11" cy="44.51" r="6.21"/><g class="cls-8"><ellipse class="cls-9" cx="28.23" cy="90.68" rx="10.27" ry="3.67"/><ellipse class="cls-10" cx="27.7" cy="86.11" rx="15.63" ry="5.2" transform="translate(-4.56 1.6) rotate(-3.06)"/><ellipse class="cls-11" cx="28.45" cy="83.57" rx="5.38" ry="15.06" transform="translate(-57.17 105.09) rotate(-85.31)"/><ellipse class="cls-9" cx="29.04" cy="80.86" rx="5.99" ry="16.77" transform="translate(-56.11 92.29) rotate(-77.89)"/><ellipse class="cls-10" cx="29.57" cy="79.44" rx="13.87" ry="4.61"/><ellipse class="cls-11" cx="29.43" cy="75.82" rx="5.38" ry="15.06" transform="translate(-49.71 94.58) rotate(-82.12)"/><ellipse class="cls-9" cx="30.15" cy="74.87" rx="10.27" ry="3.67"/><ellipse class="cls-10" cx="30.99" cy="73.7" rx="7.5" ry="2.49"/></g><circle class="cls-11" cx="34.9" cy="84.09" r="1.35"/><circle class="cls-12" cx="74.13" cy="46.29" r="3.79"/><path class="cls-13" d="M71.09,48.55a5.91,5.91,0,0,0,1.07-1,2.76,2.76,0,0,0,.35-2c0-.6.32-1.45.09-1.87a2,2,0,0,0-.48-.58,3.45,3.45,0,0,0-.67.54A3.78,3.78,0,0,0,71.09,48.55Z"/><path class="cls-13" d="M74.08,42.5a3.59,3.59,0,0,0-1.08.17l.12.07c.55.36.5,1,.49,1.82,0,.58.37,1.28.2,1.93a20.24,20.24,0,0,1-1.18,2.27,4.2,4.2,0,0,0-.26.89,3.79,3.79,0,0,0,3,.21C76.85,46.65,74.45,43,74.08,42.5Z"/><path class="cls-13" d="M75.07,42.61a4.86,4.86,0,0,0,.55.82c.35.43,1.17.72,1.5,1.31s-.25,1.77-.13,2.4a6.54,6.54,0,0,0,.41,1.06,3.79,3.79,0,0,0-.59-4.59A3.84,3.84,0,0,0,75.07,42.61Z"/><circle class="cls-12" cx="71.4" cy="47.08" r="0.28"/><circle class="cls-12" cx="75.05" cy="48.78" r="0.28"/><circle class="cls-13" cx="73.14" cy="43.93" r="0.17"/><circle class="cls-13" cx="75.91" cy="44.32" r="0.16"/><circle class="cls-13" cx="76.52" cy="46.77" r="0.14"/><circle class="cls-12" cx="71.3" cy="44.81" r="0.16"/><path class="cls-14" d="M76.38,43.24a3.37,3.37,0,0,1,.36.3,8.62,8.62,0,0,1,.92-.59,19.49,19.49,0,0,1-3.2,3.88A19.4,19.4,0,0,1,70.58,50a10.29,10.29,0,0,1,.77-1.15,3.47,3.47,0,0,1-.3-.37c-.83,1.08-1.25,1.88-1,2.09.37.37,2.51-1.17,4.77-3.43s3.81-4.41,3.44-4.78C78,42.19,77.33,42.53,76.38,43.24Z"/><path class="cls-15" d="M23.54,49.89a4.84,4.84,0,1,1-4.84-4.84,4.84,4.84,0,0,1,4.84,4.84Zm0,0"/><g class="cls-16"><path class="cls-17" d="M13.14,52.09A7.49,7.49,0,0,0,15,51.72a12.11,12.11,0,0,1,4.16-.54,8.06,8.06,0,0,1,2.69.67c.23.24-.4.58-.69.65s-.82-.11-1.15,0-1.09.58-2.13,1-1.29.79-2.64.71S13.14,52.09,13.14,52.09Z"/><path class="cls-17" d="M23.59,47.59A10.11,10.11,0,0,0,20,48a9.46,9.46,0,0,1-1.94,1c-.64.18-1.08.42-.95.56a6.53,6.53,0,0,0,2.61.44c.62-.13,1.79-1,3-.55s2,.4,2.22.21S23.59,47.59,23.59,47.59Z"/><path class="cls-17" d="M14.37,46.35a8,8,0,0,0,2.34.65,15.91,15.91,0,0,0,2.91-.32c.54-.17-.41-.49-.7-.58a19.08,19.08,0,0,0-1.92.14c-.37,0-1.14-.47-1.58-.55S14.37,46.35,14.37,46.35Z"/><circle class="cls-17" cx="15.71" cy="48.32" r="0.16"/><circle class="cls-17" cx="21.36" cy="46.65" r="0.19"/><circle class="cls-17" cx="21.51" cy="50.71" r="0.2"/><circle class="cls-17" cx="19.44" cy="53.99" r="0.27"/></g><circle class="cls-18" cx="90.28" cy="83.57" r="4.62"/><ellipse class="cls-19" cx="21.15" cy="20.31" rx="6.29" ry="2.83" transform="translate(-8 23.45) rotate(-49.98)"/><ellipse class="cls-20" cx="21.15" cy="20.31" rx="3.36" ry="1.51" transform="translate(-8 23.45) rotate(-49.98)"/><path class="cls-19" d="M23,21.83c.94-1.65,1.94-3.16,2.76-4.74a12,12,0,0,0,1-2.43,3.9,3.9,0,0,0-.11-2.58,3.12,3.12,0,0,1,.94,2.71,7.65,7.65,0,0,1-.87,2.79A12.25,12.25,0,0,1,23,21.83Z"/><path class="cls-19" d="M18.78,19.27C17.84,20.91,16.84,22.43,16,24a11.49,11.49,0,0,0-1,2.43A3.9,3.9,0,0,0,15.14,29a3.12,3.12,0,0,1-.94-2.71,7.59,7.59,0,0,1,.87-2.79A12.08,12.08,0,0,1,18.78,19.27Z"/><ellipse class="cls-21" cx="79.62" cy="68.09" rx="5.74" ry="1.96" transform="translate(-13.81 20.7) rotate(-13.64)"/><ellipse class="cls-22" cx="79.62" cy="68.09" rx="3.71" ry="1.27" transform="translate(-13.81 20.7) rotate(-13.64)"/><circle class="cls-7" cx="54.13" cy="70.01" r="3.57"/><circle class="cls-6" cx="54.13" cy="70.01" r="2.89"/></g></svg>