<svg id="Layer_1" data-name="Layer 1" xmlns="http://www.w3.org/2000/svg" viewBox="0 0 100 100"><defs><style>.cls-1{fill:#98abb5;}.cls-2{fill:#a7bbc6;}.cls-3{fill:#c8e0ec;}.cls-4{fill:#f89c3e;}.cls-5{fill:#ffc640;}.cls-6{fill:#447d93;}</style></defs><title>durendal</title><polygon class="cls-1" points="99.55 0.45 84.87 0.08 29.19 55.76 36.72 63.29 99.55 0.45 99.55 0.45"/><polygon class="cls-2" points="100 15.21 99.55 0.45 36.72 63.29 44.32 70.89 100 15.21"/><rect class="cls-3" x="20.85" y="32.76" width="80.78" height="12.17" rx="6.09" ry="6.09" transform="translate(-9.53 54.68) rotate(-45)"/><rect class="cls-4" x="18.05" y="67.9" width="20.96" height="7.15" rx="3.57" ry="3.57" transform="translate(58.9 0.76) rotate(45)"/><rect class="cls-4" x="14.51" y="71.44" width="20.96" height="7.15" rx="3.57" ry="3.57" transform="translate(60.36 4.3) rotate(45)"/><rect class="cls-4" x="10.97" y="74.98" width="20.96" height="7.15" rx="3.57" ry="3.57" transform="translate(61.83 7.84) rotate(45)"/><rect class="cls-4" x="7.44" y="78.51" width="20.96" height="7.15" rx="3.57" ry="3.57" transform="translate(63.29 11.37) rotate(45)"/><rect class="cls-4" x="4.14" y="81.81" width="20.96" height="7.15" rx="3.57" ry="3.57" transform="translate(64.66 14.67) rotate(45)"/><rect class="cls-5" x="34.01" y="57.87" width="6.51" height="9.06" rx="3.25" ry="3.25" transform="translate(55.04 -8.07) rotate(45)"/><path class="cls-5" d="M62.09,79.94a6.54,6.54,0,0,1-.48,1.22,7.13,7.13,0,0,1-.86,1.12,9.13,9.13,0,0,1-2.4,1.62,17.8,17.8,0,0,1-5.51,1.39,41.9,41.9,0,0,1-8.72-3.93A76.31,76.31,0,0,1,19,56.19a38.62,38.62,0,0,1-3.9-8.73A18.52,18.52,0,0,1,16.47,42a8.86,8.86,0,0,1,1.6-2.39,7.76,7.76,0,0,1,1.1-.87,7.22,7.22,0,0,1,1.21-.48,5,5,0,0,0,1.05,3.93A16.83,16.83,0,0,0,24,45a29.61,29.61,0,0,0,3,6.54A64.4,64.4,0,0,0,36.6,63.72a64.29,64.29,0,0,0,12.21,9.66,26.67,26.67,0,0,0,6.56,2.92,17.94,17.94,0,0,0,2.78,2.52A5.12,5.12,0,0,0,62.09,79.94Z"/><rect class="cls-5" x="25.41" y="58.83" width="14.53" height="16.7" rx="7.27" ry="7.27" transform="translate(57.07 -3.43) rotate(45)"/><rect class="cls-6" x="29.13" y="61.44" width="7.3" height="11.06" rx="3.65" ry="3.65" transform="translate(56.96 -3.56) rotate(45)"/><rect class="cls-6" x="33.73" y="60.08" width="4.65" height="7.04" rx="2.33" ry="2.33" transform="translate(55.54 -6.87) rotate(45)"/><path class="cls-5" d="M4.35,79.18C8.9,74.63,7.49,83.42,12,88s13.33,3.13,8.78,7.68A11.65,11.65,0,0,1,4.35,79.18Z"/><rect class="cls-5" x="1.47" y="87.54" width="8.83" height="13" rx="4.41" ry="4.41" transform="translate(-56.45 164.69) rotate(-135)"/></svg>