<svg id="Layer_1" data-name="Layer 1" xmlns="http://www.w3.org/2000/svg" viewBox="0 0 100 100"><defs><style>.cls-1{fill:#ababad;}.cls-2{fill:#98abb5;}.cls-3{fill:#a7bbc6;}.cls-4{fill:#c8e0ec;}.cls-5{fill:#f89c3e;}.cls-6{fill:#ffc640;}.cls-7{fill:#447d93;}.cls-8{fill:#c0c0c2;}.cls-9{fill:#885e59;}.cls-10{fill:#9d9d9f;}.cls-11{fill:#f9a43f;}.cls-12{fill:#5c5c5c;}.cls-13{fill:#fcca98;}.cls-14{fill:#3e3e3f;}.cls-15{fill:#f37d3b;}</style></defs><title>paladin</title><rect class="cls-1" x="39" y="60.54" width="6.43" height="17.84" rx="3.21" ry="3.21"/><polygon class="cls-2" points="0 74.92 3.55 78.65 31.14 78.65 31.14 74.92 15.58 73.92 0 74.92 0 74.92"/><polygon class="cls-3" points="3.55 71.15 0 74.92 31.14 74.92 31.14 71.15 3.55 71.15"/><rect class="cls-4" x="4.85" y="72.77" width="28.31" height="4.27" rx="2.13" ry="2.13" transform="translate(38.01 149.8) rotate(-180)"/><rect class="cls-5" x="31.52" y="73.67" width="7.35" height="2.5" rx="1.25" ry="1.25" transform="translate(-39.72 110.12) rotate(-90)"/><rect class="cls-5" x="33.28" y="73.67" width="7.35" height="2.5" rx="1.25" ry="1.25" transform="translate(-37.97 111.87) rotate(-90)"/><rect class="cls-5" x="35.03" y="73.67" width="7.35" height="2.5" rx="1.25" ry="1.25" transform="translate(-36.21 113.62) rotate(-90)"/><rect class="cls-5" x="36.78" y="73.67" width="7.35" height="2.5" rx="1.25" ry="1.25" transform="translate(-34.46 115.37) rotate(-90)"/><rect class="cls-5" x="38.42" y="73.67" width="7.35" height="2.5" rx="1.25" ry="1.25" transform="translate(-32.83 117.01) rotate(-90)"/><rect class="cls-6" x="29.65" y="73.41" width="2.28" height="3.17" rx="1.14" ry="1.14" transform="translate(-44.22 105.79) rotate(-90)"/><path class="cls-6" d="M29,64.51a2.19,2.19,0,0,1,1.91-.06,6.26,6.26,0,0,1,1.71,1,14.54,14.54,0,0,1,1.18,3.14,26.64,26.64,0,0,1,0,12.47,12.92,12.92,0,0,1-1.2,3.12,6.11,6.11,0,0,1-1.71,1,2.26,2.26,0,0,1-1.89,0c.91-.75.76-1.69.78-2.56a10.42,10.42,0,0,0,.88-2.36,23.27,23.27,0,0,0,0-10.84,9,9,0,0,0-.9-2.35C29.72,66.2,29.88,65.28,29,64.51Z"/><rect class="cls-6" x="30.56" y="72.03" width="5.09" height="5.85" rx="2.55" ry="2.55" transform="translate(-41.85 108.06) rotate(-90)"/><rect class="cls-7" x="31.75" y="73.04" width="2.56" height="3.88" rx="1.28" ry="1.28" transform="translate(-41.95 108.01) rotate(-90)"/><rect class="cls-7" x="30.57" y="73.77" width="1.63" height="2.47" rx="0.81" ry="0.81" transform="translate(-43.62 106.38) rotate(-90)"/><path class="cls-6" d="M43.1,79c-2.26,0,.27-1.83.27-4.08s-2.53-4.08-.27-4.08a4.08,4.08,0,0,1,0,8.16Z"/><rect class="cls-6" x="44.85" y="72.66" width="3.09" height="4.55" rx="1.55" ry="1.55" transform="translate(121.34 28.54) rotate(90)"/><rect class="cls-8" x="48.2" y="69.46" width="10.99" height="30.19" rx="5.49" ry="5.49"/><rect class="cls-8" x="69.35" y="69.46" width="10.99" height="30.19" rx="5.49" ry="5.49"/><rect class="cls-1" x="39" y="44.82" width="6.43" height="17.84" rx="3.21" ry="3.21"/><path class="cls-6" d="M44.46,44.5H82.71a7.22,7.22,0,0,1,6.56,4.24,7,7,0,0,0,.65-3,7.23,7.23,0,0,0-7.21-7.21H44.46a7.23,7.23,0,0,0-7.21,7.21,7.12,7.12,0,0,0,.65,3A7.23,7.23,0,0,1,44.46,44.5Z"/><rect class="cls-1" x="46.05" y="46.76" width="34.71" height="33.36" rx="5.12" ry="5.12"/><rect class="cls-9" x="75.16" y="32.61" width="5.6" height="21.48" rx="0.84" ry="0.84"/><rect class="cls-9" x="48.66" y="32.61" width="5.6" height="21.48" rx="0.84" ry="0.84"/><rect class="cls-8" x="42.51" y="40.89" width="42.28" height="21.63" rx="3.53" ry="3.53"/><polygon class="cls-1" points="59.88 62.89 67.53 62.89 63.83 59.44 59.88 62.89"/><rect class="cls-10" x="72.87" y="42.4" width="1.72" height="0.87"/><path class="cls-10" d="M77.59,47.11c0-2.59-4.72-4.71-4.72-4.71s-4.71,2.12-4.71,4.71v2.57h9.43Z"/><path class="cls-10" d="M80.76,75V51.87a5.07,5.07,0,0,0-1-3H68.16V68.3c0,4.08,3.67,8.45,7.38,11.82h.1A5.14,5.14,0,0,0,80.76,75Z"/><path class="cls-1" d="M79.31,47.11c0-2.59-4.71-4.71-4.71-4.71s-4.71,2.12-4.71,4.71v2.57h9.42Z"/><path class="cls-1" d="M89.65,47.11c0-2.59-4.71-4.71-4.71-4.71s-4.71,2.12-4.71,4.71v2.57h9.42Z"/><path class="cls-1" d="M100,47.11c0-2.59-4.71-4.71-4.71-4.71s-4.71,2.12-4.71,4.71v2.57H100Z"/><path class="cls-1" d="M69.89,48.89V68.3c0,8.28,15,17.71,15,17.71S100,76.58,100,68.3V48.89Z"/><path class="cls-6" d="M73.83,53.55V67.88C73.83,74,84.94,81,84.94,81s11.12-7,11.12-13.08V53.55Z"/><rect class="cls-1" x="71.5" y="59.44" width="26.99" height="2.36" rx="0.48" ry="0.48"/><rect class="cls-1" x="68.91" y="65.82" width="32.17" height="2.36" rx="0.48" ry="0.48" transform="translate(151.99 -17.99) rotate(90)"/><path class="cls-6" d="M54.45,14.46s-6.6-3.35-6.16-5.77S49,.14,44.5.35s-5.37,25.52-5.37,25.52l2.45-4.93L42,23.22l2.73-6"/><path class="cls-11" d="M54.45,14.46l-3.57,2.31c-2-1-6.71,1.58-6.71,1.58l1.57-3.45.83-2S49.14,15.23,54.45,14.46Z"/><polyline class="cls-6" points="42.54 3.28 38.26 10.36 41.4 8.06 37.7 18.35 40.7 14.92"/><path class="cls-6" d="M74.85,14.46s6.6-3.35,6.16-5.77S80.33.14,84.8.35s5.37,25.52,5.37,25.52l-2.45-4.93-.38,2.28-2.73-6"/><path class="cls-11" d="M74.85,14.46l3.57,2.31c2-1,6.71,1.58,6.71,1.58L83.56,14.9l-.84-2S80.16,15.23,74.85,14.46Z"/><polyline class="cls-6" points="86.76 3.28 91.04 10.36 87.9 8.06 91.6 18.35 88.6 14.92"/><rect class="cls-8" x="43.91" y="28.47" width="7.51" height="7.89" rx="1.53" ry="1.53"/><rect class="cls-8" x="78.21" y="28.47" width="7.51" height="7.89" rx="1.53" ry="1.53"/><rect class="cls-12" x="48.2" y="15.12" width="32.42" height="21.97"/><path class="cls-13" d="M49.66,16V28.83a14.61,14.61,0,0,0,29.21,0V16Z"/><circle class="cls-14" cx="53.61" cy="23.42" r="1.17"/><circle class="cls-14" cx="75.51" cy="23.46" r="1.17"/><rect class="cls-15" x="59.18" y="33.13" width="10.75" height="1" rx="0.5" ry="0.5"/><path class="cls-8" d="M83.22,21.19a18.57,18.57,0,1,0-37.14,0V39H51.8V21.14a5,5,0,0,1,10,0v9.09h5.51V21.14a5,5,0,0,1,10,0V39h5.84Z"/><rect class="cls-6" x="63.11" y="5.34" width="2.79" height="22.9" rx="1.4" ry="1.4"/><rect class="cls-6" x="63.14" y="1.82" width="2.79" height="22.9" rx="1.4" ry="1.4" transform="translate(77.81 -51.28) rotate(90)"/><path class="cls-6" d="M70.23,12.12H67.84a3.28,3.28,0,0,0-6.56,0H58.89a5.67,5.67,0,0,1,11.34,0Z"/><rect class="cls-8" x="36.95" y="68.89" width="9.45" height="12.06" rx="4.72" ry="4.72"/></svg>