<svg id="Layer_1" data-name="Layer 1" xmlns="http://www.w3.org/2000/svg" xmlns:xlink="http://www.w3.org/1999/xlink" viewBox="0 0 100 100"><defs><style>.cls-1{fill:#bab268;}.cls-2{fill:#fcca98;}.cls-3{fill:#ffc761;}.cls-4{fill:#3e3e3f;}.cls-5{fill:#f37d3b;}.cls-6{fill:#c8e0ec;}.cls-7{clip-path:url(#clip-path);}.cls-8{clip-path:url(#clip-path-2);}.cls-9{clip-path:url(#clip-path-3);}.cls-10{clip-path:url(#clip-path-4);}</style><clipPath id="clip-path"><path class="cls-1" d="M44.31,43l-6.36-3,2,2.44,1.17,1.24.58.62.15.16.16.14.34.27,1-1.12.48-.56.25-.28.12-.14.06-.07,0,0,0,0h0Z"/></clipPath><clipPath id="clip-path-2"><polygon class="cls-1" points="44.31 43.02 37.95 40.05 44.31 40.05 44.31 43.02"/></clipPath><clipPath id="clip-path-3"><path class="cls-1" d="M55.38,43l5.33-2.91H55.27v3h0Z"/></clipPath><clipPath id="clip-path-4"><path class="cls-1" d="M55.38,43l5.33-2.91-1.47,2.29-.24.34-.23.31-.23.3-.24.29-.5.56-.53.53-1-1.06-.52-.54-.26-.26-.13-.14-.06-.06,0,0h0Z"/></clipPath></defs><title>maui</title><path class="cls-2" d="M97.88,70.93a12.64,12.64,0,0,0-3.58-7.55,10.22,10.22,0,0,0-8.25-2.82,12.56,12.56,0,0,0-8,3.58A11.11,11.11,0,0,0,75.68,68c-.51,1.3-.81,2.44-1.22,3.35A6.49,6.49,0,0,1,70,75a23,23,0,0,1-7.18.48.24.24,0,0,0-.21.12.22.22,0,0,0,.1.29,15.82,15.82,0,0,0,7.7,1.84,9.48,9.48,0,0,0,4.25-1.18A8.81,8.81,0,0,0,78,73.24a30.85,30.85,0,0,0,1.7-3.58,8.77,8.77,0,0,1,6.82-5.4,6.6,6.6,0,0,1,5.67,1.42,9.8,9.8,0,0,1,3.16,5.59,6.06,6.06,0,0,1-.16,3.07,3.42,3.42,0,0,1-2,2,6.83,6.83,0,0,1-2,.4L91.12,74l0-.55-.53.26L85.88,76l-1.18.57,1.23.56a11.53,11.53,0,0,0,7.91,1,5.46,5.46,0,0,0,3.43-2.94A8.46,8.46,0,0,0,97.88,70.93Z"/><path class="cls-3" d="M52.17,7.82H47A12.29,12.29,0,0,0,34.71,20.07h0V33.18a14.86,14.86,0,0,0,29.71,0V20.07A12.29,12.29,0,0,0,52.17,7.82Z"/><circle class="cls-4" cx="38.73" cy="27.68" r="1.2"/><circle class="cls-4" cx="61" cy="27.71" r="1.2"/><circle class="cls-3" cx="66.33" cy="25.59" r="2.86"/><circle class="cls-3" cx="64.55" cy="29.18" r="2.5"/><circle class="cls-3" cx="32.93" cy="25.59" r="2.86"/><circle class="cls-3" cx="34.71" cy="29.18" r="2.5"/><rect class="cls-3" x="35.16" y="43.25" width="28.8" height="37.96" rx="14.4" ry="14.4"/><rect class="cls-3" x="35.16" y="45.95" width="28.8" height="10.44" rx="5.22" ry="5.22"/><rect class="cls-3" x="61.34" y="47.16" width="6.16" height="17.1" rx="3.08" ry="3.08"/><rect class="cls-3" x="51.9" y="69.44" width="8.53" height="30.56" rx="4.27" ry="4.27"/><rect class="cls-3" x="39.63" y="69.44" width="8.53" height="30.56" rx="4.27" ry="4.27"/><rect class="cls-3" x="32.08" y="47.16" width="6.16" height="17.1" rx="3.08" ry="3.08"/><rect class="cls-3" x="32.08" y="62.23" width="6.16" height="17.1" rx="3.08" ry="3.08"/><path class="cls-4" d="M52.17,7.82H47A12.29,12.29,0,0,0,34.71,20.07h0v3.28s14.86-24.83,29.71.12v-3.4A12.29,12.29,0,0,0,52.17,7.82Z"/><rect class="cls-4" x="38.24" y="71.12" width="23.1" height="4.66"/><rect class="cls-5" x="38.24" y="73.49" width="2.42" height="2.29"/><rect class="cls-5" x="40.6" y="71.13" width="2.42" height="2.29"/><rect class="cls-5" x="43.02" y="73.49" width="2.42" height="2.29"/><rect class="cls-5" x="45.38" y="71.13" width="2.42" height="2.29"/><rect class="cls-5" x="47.8" y="73.49" width="2.42" height="2.29"/><rect class="cls-5" x="50.15" y="71.13" width="2.42" height="2.29"/><rect class="cls-5" x="52.58" y="73.49" width="2.42" height="2.29"/><rect class="cls-5" x="54.93" y="71.13" width="2.42" height="2.29"/><rect class="cls-5" x="57.35" y="73.49" width="2.42" height="2.29"/><rect class="cls-5" x="59.71" y="71.13" width="2.42" height="2.29"/><rect class="cls-3" x="61.34" y="62.23" width="6.16" height="17.1" rx="3.08" ry="3.08"/><polygon class="cls-6" points="53.39 75.78 50.15 75.78 46.88 75.78 43.65 75.78 43.65 79.02 43.65 82.29 43.65 85.53 43.65 88.79 46.92 88.79 50.15 88.79 53.42 88.79 56.66 88.79 56.66 85.56 56.66 82.29 56.66 79.05 56.66 75.78 53.39 75.78"/><rect class="cls-4" x="43.65" y="75.78" width="3.24" height="3.24"/><rect class="cls-4" x="46.92" y="79.05" width="3.24" height="3.24"/><rect class="cls-4" x="50.15" y="75.78" width="3.24" height="3.24"/><rect class="cls-4" x="53.42" y="79.05" width="3.24" height="3.24"/><rect class="cls-4" x="43.65" y="82.29" width="3.24" height="3.24"/><rect class="cls-4" x="46.92" y="85.56" width="3.24" height="3.24"/><rect class="cls-4" x="50.15" y="82.29" width="3.24" height="3.24"/><rect class="cls-4" x="53.42" y="85.56" width="3.24" height="3.24"/><path class="cls-4" d="M38.86,10.05a25.05,25.05,0,0,0-1.54-3.42,14.12,14.12,0,0,0-2-2.94,3.73,3.73,0,0,0-.94-.77c-.22-.15-.58-.18-1,.18a8.46,8.46,0,0,0-2,3.4A9.35,9.35,0,0,1,31.81,2,3.33,3.33,0,0,1,34.17.09a5.68,5.68,0,0,1,3,.3,17.69,17.69,0,0,1,4.32,2.39,33,33,0,0,1,3.64,3L45.3,6a3.91,3.91,0,1,1-6.44,4.05Z"/><rect class="cls-5" x="42.79" y="37.33" width="13.43" height="1.39" rx="0.69" ry="0.69"/><rect class="cls-1" x="61.34" y="52.13" width="6.16" height="1.23"/><rect class="cls-1" x="61.34" y="57.58" width="6.16" height="1.23"/><rect class="cls-1" x="61.34" y="55.23" width="6.16" height="0.48"/><rect class="cls-1" x="32.08" y="52.13" width="6.16" height="1.23"/><rect class="cls-1" x="32.08" y="57.58" width="6.16" height="1.23"/><rect class="cls-1" x="32.08" y="55.23" width="6.16" height="0.48"/><polygon class="cls-1" points="39.86 56.16 42.42 59.07 37.9 60.47 39.86 56.16"/><polygon class="cls-1" points="42.42 59.07 44.98 61.98 40.46 63.38 42.42 59.07"/><polygon class="cls-1" points="44.98 61.98 47.54 64.89 43.02 66.29 44.98 61.98"/><polygon class="cls-1" points="47.54 64.89 50.1 67.8 45.58 69.2 47.54 64.89"/><polygon class="cls-1" points="50.1 67.8 53.29 63.94 55.03 68.62 50.1 67.8"/><polygon class="cls-1" points="53.29 63.94 56.48 60.07 58.22 64.75 53.29 63.94"/><polygon class="cls-1" points="56.48 60.07 59.67 56.21 61.41 60.89 56.48 60.07"/><path class="cls-1" d="M50,61.71v2.17h-.42l-.43,0a7.51,7.51,0,0,1-.82-.19,6.15,6.15,0,0,1-1.52-.75,5.59,5.59,0,0,1-2-2.64,4.43,4.43,0,0,0,4.52-.9A4,4,0,0,0,49,61.56a4.77,4.77,0,0,0,.34,1.18,4,4,0,0,0,.3.58l.18.28.1.14,0,.07,0,0,0,0h0Z"/><path class="cls-1" d="M44.77,60.23a5.21,5.21,0,0,1-.33-1.66V55.36l4.32,2.08C47.35,58.17,45.72,58.56,44.77,60.23Z"/><path class="cls-1" d="M44.43,55.36V54.23a5.21,5.21,0,0,1,.33-1.66,5.59,5.59,0,0,1,2-2.64,4.43,4.43,0,0,0,2,4.14C47.34,53.69,45.84,54.72,44.43,55.36Z"/><path class="cls-1" d="M46.8,49.93a6.15,6.15,0,0,1,1.52-.75,5.74,5.74,0,0,1,.82-.19l.43-.05H50v0h.42l.42.05a5.39,5.39,0,0,1,2.34.94A4.38,4.38,0,0,0,50,53.24,4.37,4.37,0,0,0,46.8,49.93Z"/><path class="cls-1" d="M53.17,49.93a5.53,5.53,0,0,1,2,2.64,5.23,5.23,0,0,1,.34,1.66v1.13c-1.42-.64-2.91-1.67-4.4-1.29A4.41,4.41,0,0,0,53.17,49.93Z"/><path class="cls-1" d="M55.55,55.36v3.21a5.23,5.23,0,0,1-.34,1.66c-1-1.67-2.57-2.06-4-2.79Z"/><path class="cls-1" d="M55.2,60.23A5.59,5.59,0,0,1,50,63.88a4.39,4.39,0,0,0,.7-4.55A4.41,4.41,0,0,0,55.2,60.23Z"/><path class="cls-1" d="M57.27,44.67a13.15,13.15,0,0,1-2.56,2,14.41,14.41,0,0,0-.48-3.26A16.8,16.8,0,0,0,57.27,44.67Z"/><path class="cls-1" d="M54.71,46.65a9.7,9.7,0,0,1-3.13,1.23,10.2,10.2,0,0,0,.52-3.26A11.41,11.41,0,0,0,54.71,46.65Z"/><path class="cls-1" d="M51.58,47.88a8.79,8.79,0,0,1-3.44,0,9.1,9.1,0,0,0,1.68-2.83A9.25,9.25,0,0,0,51.58,47.88Z"/><path class="cls-1" d="M48.14,47.92a6,6,0,0,1-1.63-.45A6.71,6.71,0,0,1,45,46.78a11.69,11.69,0,0,0,2.53-2.11A9.84,9.84,0,0,0,48.14,47.92Z"/><path class="cls-1" d="M45,46.78c-.47-.28-1-.54-1.39-.85l-1.23-1a20.76,20.76,0,0,0,3-1.41A15,15,0,0,0,45,46.78Z"/><polygon class="cls-1" points="44.31 40.05 47.05 40.05 45.68 43.02 44.31 40.05"/><polygon class="cls-1" points="47.05 40.05 49.79 40.05 48.42 43.02 47.05 40.05"/><polygon class="cls-1" points="49.79 40.05 52.53 40.05 51.16 43.02 49.79 40.05"/><polygon class="cls-1" points="52.53 40.05 55.27 40.05 53.9 43.02 52.53 40.05"/><path class="cls-1" d="M44.31,43l-6.36-3,2,2.44,1.17,1.24.58.62.15.16.16.14.34.27,1-1.12.48-.56.25-.28.12-.14.06-.07,0,0,0,0h0Z"/><g class="cls-7"><path class="cls-1" d="M42.38,44.92,42,44.65l-.16-.14-.15-.16-.58-.62L40,42.49l-2-2.44,6.36,1.48-1.59.38-.4.09-.1,0h0l0-.06h0v.72l0,1.11,0,.29,0,.27Z"/></g><polygon class="cls-1" points="44.31 43.02 37.95 40.05 44.31 40.05 44.31 43.02"/><g class="cls-8"><path class="cls-1" d="M38,40.05h6.36l-1.59,1.48-.4.38-.1.09,0,0h0l0-.06h0v0l.05.09.2.35.41.7.1.18.12.16.25.32L43,43.62l-.19-.1-.17-.11L42,43l-1.39-1Z"/></g><path class="cls-1" d="M55.38,43l5.33-2.91H55.27v3h0Z"/><g class="cls-9"><path class="cls-1" d="M55.27,40.05h5.44l-2.09,1.89-.15.13-.15.12-.29.24-.29.21-.29.22-.6.39-.62.36.35-.61.3-.63.14-.31,0-.08v0h0c0,.09,0,0,0,.07h0l0,0L57,41.91l-.34-.38Z"/></g><path class="cls-1" d="M55.38,43l5.33-2.91-1.47,2.29-.24.34-.23.31-.23.3-.24.29-.5.56-.53.53-1-1.06-.52-.54-.26-.26-.13-.14-.06-.06,0,0h0Z"/><g class="cls-10"><path class="cls-1" d="M60.71,40.05l-1.47,2.29-.24.34-.23.31-.23.3-.24.29-.5.56-.53.53v-1l-.1-1-.07-.49,0-.12v0h0l0,.07h0L57,42l-.34-.09-1.36-.38Z"/></g><path class="cls-1" d="M56.32,41.1H42.66a3.26,3.26,0,0,1,0-6.52H56.32a3.26,3.26,0,1,1,0,6.52ZM42.66,36.69a1.15,1.15,0,0,0,0,2.3H56.32a1.15,1.15,0,0,0,0-2.3Z"/><polygon class="cls-5" points="46.63 34.78 52.49 34.78 49.56 24.05 46.63 34.78"/></svg>