<svg id="Layer_1" data-name="Layer 1" xmlns="http://www.w3.org/2000/svg" viewBox="0 0 100 100"><defs><style>.cls-1{fill:#fcca98;}</style></defs><title>maui&amp;apos;s fishhook</title><path class="cls-1" d="M87.19,8.55A38.48,38.48,0,0,0,63.28,0C54.22-.14,45,4.76,39.48,11.66S29.88,26.88,30,36.59a33.65,33.65,0,0,0,3.18,13.33c1.69,3.87,3.49,7,4.56,9.82,2.14,5.42,1.58,11.41-1.79,17.36S27.19,88.35,21.51,93.56a.67.67,0,0,0-.18.7.65.65,0,0,0,.83.42c7.4-2.49,14.65-6.26,20.51-12.6a28.9,28.9,0,0,0,6.61-11.67,26.58,26.58,0,0,0,.1-14.13,92.93,92.93,0,0,0-4-11.36,28.72,28.72,0,0,1-2.09-8.79,29,29,0,0,1,5.15-17.46c3.63-5.28,8.9-8.71,15.22-9.16a29.91,29.91,0,0,1,18.8,5.24,18.55,18.55,0,0,1,6.26,7,10.31,10.31,0,0,1,0,8.48,20.4,20.4,0,0,1-3.34,5.05l-6.08-5.55-1.23-1.12-.58,1.69-5.17,15L71,49l3.87-1.44c7.36-2.76,14.77-7,19.24-14.76a16.52,16.52,0,0,0,1-13.67A25.59,25.59,0,0,0,87.19,8.55Z"/><rect class="cls-1" x="30.35" y="77.78" width="16.01" height="5.64" rx="2.82" ry="2.82" transform="translate(68.23 -3.51) rotate(45)"/><rect class="cls-1" x="26.81" y="81.32" width="16.01" height="5.64" rx="2.82" ry="2.82" transform="translate(69.69 0.03) rotate(45)"/><rect class="cls-1" x="23.13" y="84.34" width="16.01" height="5.64" rx="2.82" ry="2.82" transform="translate(70.75 3.51) rotate(45)"/><rect class="cls-1" x="19.69" y="86.93" width="16.01" height="5.64" rx="2.82" ry="2.82" transform="translate(71.58 6.71) rotate(45)"/><rect class="cls-1" x="15.99" y="88.32" width="16.01" height="5.64" rx="2.82" ry="2.82" transform="translate(71.47 9.73) rotate(45)"/><rect class="cls-1" x="12.05" y="90.27" width="16.01" height="5.64" rx="2.82" ry="2.82" transform="translate(71.7 13.08) rotate(45)"/><path class="cls-1" d="M20.57,89.61S8.41,99.22,3.82,100c0,0,18.68.35,21.9-5.24"/></svg>