<svg id="Layer_1" data-name="Layer 1" xmlns="http://www.w3.org/2000/svg" viewBox="0 0 100 100"><defs><style>.cls-1{fill:#80919a;}.cls-2{fill:#98abb5;}.cls-3{fill:#aec3ce;}.cls-4{fill:#f37d3b;}</style></defs><title>mothman</title><path class="cls-1" d="M44.58,49.3c0,9.58-9,17.34-20.14,17.34a24,24,0,0,1-3.92-.33c-4.85,5-8.42,9.91-8.42,12.45,0,6.7,6.3,12.12,14.08,12.12s14.07-5.42,14.07-12.12S52.35,49.3,44.58,49.3ZM31.81,85.21a6.12,6.12,0,1,1-10.16-6.82c1.89-2.8,12-12.9,14.77-11S33.7,82.41,31.81,85.21Z"/><path class="cls-1" d="M25.7,61.27A6.06,6.06,0,1,1,35,53.8c3.92-2.71,7.42-4.5,9.6-4.5,0-9.58-28.28-46.8-39.4-46.8s-.87,37.22-.87,46.8c0,8.42,7,15.43,16.21,17C22.13,64.62,23.89,62.92,25.7,61.27Zm4-26.21a4.1,4.1,0,1,1-4.1,4.1A4.1,4.1,0,0,1,29.67,35.06ZM9.26,14.52A6.12,6.12,0,0,1,17.8,16c2,2.75,7.86,15.73,5.11,17.69S9.8,25.8,7.84,23.05A6.11,6.11,0,0,1,9.26,14.52Zm6.5,44.7a2.92,2.92,0,1,1,2.92-2.92A2.92,2.92,0,0,1,15.76,59.22ZM9.64,41.59A4.61,4.61,0,0,1,13.06,33c2.36.94,11.4,6.76,10.46,9.13S12,42.53,9.64,41.59Z"/><path class="cls-1" d="M44.58,49.3c-2.18,0-5.68,1.79-9.6,4.5a6,6,0,0,1-5.31,9,6,6,0,0,1-4-1.51c-1.81,1.65-3.57,3.35-5.18,5a24,24,0,0,0,3.92.33C35.56,66.64,44.58,58.88,44.58,49.3Z"/><path class="cls-1" d="M29.67,50.63a6,6,0,0,0-4,10.64A94.35,94.35,0,0,1,35,53.8,6.05,6.05,0,0,0,29.67,50.63Z"/><path class="cls-1" d="M29.67,62.78a6,6,0,0,0,5.31-9,94.35,94.35,0,0,0-9.28,7.47A6,6,0,0,0,29.67,62.78Z"/><path class="cls-1" d="M55.42,49.3c-7.77,0,4.33,22.77,4.33,29.46s6.3,12.12,14.07,12.12S87.9,85.46,87.9,78.76c0-2.54-3.57-7.4-8.42-12.45a24,24,0,0,1-3.92.33C64.44,66.64,55.42,58.88,55.42,49.3ZM76.68,86.88a6.11,6.11,0,0,1-8.49-1.67c-1.89-2.8-7.41-15.95-4.61-17.83s12.88,8.21,14.77,11A6.12,6.12,0,0,1,76.68,86.88Z"/><path class="cls-1" d="M94.82,2.5c-11.12,0-39.4,37.22-39.4,46.8,2.18,0,5.68,1.79,9.6,4.5a6.06,6.06,0,1,1,9.28,7.47c1.81,1.65,3.57,3.35,5.18,5,9.24-1.58,16.21-8.59,16.21-17C95.69,39.72,105.94,2.5,94.82,2.5ZM70.33,43.26a4.1,4.1,0,1,1,4.1-4.1A4.09,4.09,0,0,1,70.33,43.26Zm13.91,16a2.92,2.92,0,1,1,2.92-2.92A2.92,2.92,0,0,1,84.24,59.22Zm6.12-17.63c-2.37.94-12.94,2.92-13.88.56S84.58,34,86.94,33a4.61,4.61,0,1,1,3.42,8.57Zm1.8-18.54c-2,2.75-12.32,12.56-15.07,10.59S80.24,18.7,82.2,16a6.12,6.12,0,1,1,10,7.1Z"/><path class="cls-1" d="M74.3,61.27a6.05,6.05,0,0,1-10-4.56A6.1,6.1,0,0,1,65,53.8c-3.92-2.71-7.42-4.5-9.6-4.5,0,9.58,9,17.34,20.14,17.34a24,24,0,0,0,3.92-.33C77.87,64.62,76.11,62.92,74.3,61.27Z"/><path class="cls-1" d="M76.41,56.71A6.06,6.06,0,0,0,65,53.8a94.35,94.35,0,0,1,9.28,7.47A6,6,0,0,0,76.41,56.71Z"/><path class="cls-1" d="M70.33,62.78a6,6,0,0,0,4-1.51A94.35,94.35,0,0,0,65,53.8a6,6,0,0,0,5.31,9Z"/><rect class="cls-2" x="39.28" y="73.48" width="8.65" height="24.02" rx="4.33" ry="4.33"/><rect class="cls-2" x="51.53" y="73.48" width="8.65" height="24.02" rx="4.33" ry="4.33"/><rect class="cls-2" x="33.91" y="37.81" width="32.25" height="42.51" rx="16.12" ry="16.12"/><rect class="cls-2" x="33.91" y="40.84" width="32.25" height="11.7" rx="5.85" ry="5.85"/><rect class="cls-2" x="69.93" y="50.17" width="6.9" height="19.15" rx="3.45" ry="3.45"/><rect class="cls-2" x="69.93" y="67.04" width="6.9" height="19.15" rx="3.45" ry="3.45"/><rect class="cls-2" x="23.09" y="67.04" width="6.9" height="19.15" rx="3.45" ry="3.45"/><rect class="cls-2" x="23.09" y="50.17" width="6.9" height="19.15" rx="3.45" ry="3.45"/><path class="cls-2" d="M61.82,81.18h-23c-6.77,0-12.31-19.9-12.31-26.67h0A12.36,12.36,0,0,1,38.85,42.19h23A12.36,12.36,0,0,1,74.13,54.51h0C74.13,61.28,68.59,81.18,61.82,81.18Z"/><rect class="cls-2" x="34.56" y="15.5" width="31.05" height="41.81" rx="15.52" ry="15.52"/><rect class="cls-3" x="40.92" y="29.02" width="18.16" height="10.13" rx="5.07" ry="5.07"/><rect class="cls-3" x="40.92" y="33.7" width="2.71" height="5.78" rx="0.93" ry="0.93"/><rect class="cls-3" x="43.64" y="35.2" width="2.71" height="5.78" rx="0.93" ry="0.93"/><rect class="cls-3" x="46.35" y="36.01" width="2.71" height="5.78" rx="0.93" ry="0.93"/><rect class="cls-3" x="49.07" y="34.83" width="2.71" height="5.78" rx="0.93" ry="0.93"/><rect class="cls-3" x="51.78" y="36.4" width="2.71" height="5.78" rx="0.93" ry="0.93"/><rect class="cls-3" x="54.5" y="34.83" width="2.71" height="5.78" rx="0.93" ry="0.93"/><rect class="cls-3" x="56.36" y="34.83" width="2.71" height="5.78" rx="0.93" ry="0.93"/><circle class="cls-2" cx="39.85" cy="23.08" r="5.94"/><circle class="cls-2" cx="59.85" cy="23.08" r="5.94"/><circle class="cls-4" cx="39.44" cy="22.85" r="2.74"/><circle class="cls-4" cx="60.46" cy="22.85" r="2.74"/><path class="cls-3" d="M60.9,56.14c0,5.8-10.51,18-10.51,18s-10.5-12.22-10.5-18a10.51,10.51,0,1,1,21,0Z"/></svg>