<svg id="Layer_1" data-name="Layer 1" xmlns="http://www.w3.org/2000/svg" viewBox="0 0 100 100"><defs><style>.cls-1{fill:#bcd2de;}.cls-2{fill:#3f3f40;}.cls-3{fill:#3e3e3f;}.cls-4{fill:#231f20;}.cls-5{fill:#fff;}.cls-6{fill:#f37d3b;}.cls-7{fill:#885e59;}.cls-8{fill:#dbdcdd;}</style></defs><title>necromancer</title><rect class="cls-1" x="70.42" y="37.99" width="17.58" height="11.4" rx="5.7" ry="5.7"/><rect class="cls-2" x="15.16" y="17.1" width="48.87" height="78.94" rx="24.44" ry="24.44"/><path class="cls-2" d="M40.27,3.66S30-3.15,19.75,3.66s-8.86-.82-8.86-.82S5,6.11,15.12,12.79,26.7,38,26.7,38"/><path class="cls-2" d="M61.6,21.23c0,11.72-9.85,38.84-22,38.84s-22-27.12-22-38.84S27.44,0,39.6,0,61.6,9.5,61.6,21.23Z"/><path class="cls-3" d="M56.22,23.14c0,9.18-16.62,30.42-16.62,30.42S42.51,44.91,23,23.14C16.84,16.3,30.42,6.51,39.6,6.51A16.63,16.63,0,0,1,56.22,23.14Z"/><path class="cls-2" d="M70.85,91.28c-6.95-5.18-8.36-21.39-8.36-21.39l-23.66-.82-23.67.82S13.76,86.1,6.81,91.28s32,8.72,32,8.72S77.8,96.46,70.85,91.28Z"/><path class="cls-1" d="M54.69,29.31c.28-.7.55-1.39.76-2,0-.34,0-.67,0-1v-8A16.64,16.64,0,0,0,39.6,6.51c-4.87,0-11,2.77-14.7,6.38V25.32A89.66,89.66,0,0,1,36.11,41a14.91,14.91,0,0,0,4.09.58,15.32,15.32,0,0,0,4.19-.6C46.44,35.69,49.65,31.58,54.69,29.31Z"/><path class="cls-4" d="M54.69,29.31c-5,2.27-8.25,6.38-10.3,11.64a15.43,15.43,0,0,0,6.21-3.53A65,65,0,0,0,54.69,29.31Z"/><path class="cls-2" d="M24.9,9.75S40.12,7.91,45.09,13.9s12.38,0,12.38,0L52,6.51,41.18,2.32,30.27,3.41"/><polygon class="cls-4" points="34.58 39.11 45.96 39.11 40.01 48.31 34.58 39.11"/><rect class="cls-5" x="35.14" y="28.41" width="2.52" height="6.71" rx="1.26" ry="1.26"/><rect class="cls-5" x="39.01" y="28.41" width="2.52" height="6.71" rx="1.26" ry="1.26"/><rect class="cls-5" x="42.88" y="28.41" width="2.52" height="6.71" rx="1.26" ry="1.26"/><rect class="cls-6" x="33.97" y="30.89" width="12.45" height="1.23" rx="0.61" ry="0.61"/><circle class="cls-4" cx="29.04" cy="20.58" r="1.23"/><circle class="cls-4" cx="51.98" cy="20.62" r="1.23"/><polygon class="cls-6" points="37.18 27.89 43.22 27.89 40.2 16.85 37.18 27.89"/><path class="cls-2" d="M77.39,56,62.45,51.24a7,7,0,0,1-7-7h0a7,7,0,0,1,7-6.95H77.39"/><rect class="cls-2" x="11.3" y="37.14" width="13.6" height="35.08" rx="6.8" ry="6.8"/><path class="cls-7" d="M83.5,96.26a3.26,3.26,0,0,1-3.19-2.54,77.87,77.87,0,0,1-2-17.08c0-2.06.08-3.52.21-5.72s.3-5,.47-9.8c.16-4.27.17-5.9.18-6.84a22.31,22.31,0,0,1,.11-2.44,53.25,53.25,0,0,1,2.33-12c.8-2.68,1.24-4.16.82-7a16.75,16.75,0,0,0-1-3.74A21.48,21.48,0,0,1,80,22,31.86,31.86,0,0,1,81,12.17a3.27,3.27,0,1,1,6.32,1.67,25.77,25.77,0,0,0-.85,7.86,15.27,15.27,0,0,0,1.1,5.17,24,24,0,0,1,1.32,5c.64,4.28-.14,6.85-1,9.83A47,47,0,0,0,85.8,52.39a17.26,17.26,0,0,0-.08,1.93c0,1,0,2.64-.18,7-.18,4.92-.35,7.81-.48,9.94s-.2,3.47-.2,5.34a70.91,70.91,0,0,0,1.83,15.63,3.26,3.26,0,0,1-2.47,3.91A2.94,2.94,0,0,1,83.5,96.26Z"/><rect class="cls-5" x="73.09" y="8.25" width="12.71" height="13.91" rx="6.35" ry="6.35" transform="translate(7.68 -22.12) rotate(16.64)"/><path class="cls-5" d="M82.55,18.06A1.33,1.33,0,0,0,80.9,19l-.34,1.13a1.33,1.33,0,0,0-.89-1.65,1.24,1.24,0,0,0-1.34.53,1.27,1.27,0,0,0-.84-1.18,1.33,1.33,0,0,0-1.65.89l.34-1.14a1.32,1.32,0,0,0-2.54-.75L72.5,20.61a1.32,1.32,0,1,0,2.53.75l-.34,1.14a1.34,1.34,0,0,0,.89,1.64,1.26,1.26,0,0,0,1.35-.52,1.28,1.28,0,0,0,.84,1.18,1.33,1.33,0,0,0,1.65-.89l.34-1.13a1.32,1.32,0,1,0,2.53.75l1.15-3.83A1.34,1.34,0,0,0,82.55,18.06Z"/><ellipse class="cls-8" cx="76.01" cy="14.55" rx="2.24" ry="1.38" transform="translate(-1.31 17.95) rotate(-13.36)"/><ellipse class="cls-8" cx="82.84" cy="16.6" rx="1.38" ry="2.24" transform="translate(11.21 61.4) rotate(-43.36)"/><rect class="cls-5" x="81.22" y="19.54" width="12.71" height="13.91" rx="6.35" ry="6.35" transform="translate(-3.06 13.99) rotate(-8.98)"/><path class="cls-5" d="M91.61,27.72a1.33,1.33,0,0,0-1.1,1.52l.18,1.17a1.32,1.32,0,0,0-1.51-1.1,1.23,1.23,0,0,0-1,1.05,1.25,1.25,0,0,0-1.27-.7,1.33,1.33,0,0,0-1.1,1.51L85.64,30a1.33,1.33,0,0,0-2.62.41l.63,3.95a1.32,1.32,0,0,0,1.51,1.1A1.34,1.34,0,0,0,86.26,34l.18,1.17A1.33,1.33,0,0,0,88,36.22a1.27,1.27,0,0,0,1-1,1.26,1.26,0,0,0,1.26.7,1.33,1.33,0,0,0,1.1-1.52l-.18-1.17a1.32,1.32,0,1,0,2.61-.41l-.62-4A1.34,1.34,0,0,0,91.61,27.72Z"/><ellipse class="cls-8" cx="84.19" cy="27.39" rx="2.24" ry="1.38" transform="translate(1.51 59.06) rotate(-38.98)"/><ellipse class="cls-8" cx="91.24" cy="26.28" rx="1.38" ry="2.24" transform="translate(33.98 102.02) rotate(-68.98)"/></svg>