<svg id="Layer_1" data-name="Layer 1" xmlns="http://www.w3.org/2000/svg" viewBox="0 0 100 100"><defs><style>.cls-1{fill:#77514d;}.cls-2{fill:#885e59;}.cls-3{fill:#fff;}.cls-4{fill:#c5e0a9;}.cls-5{fill:#231f20;}.cls-6{fill:#e2b68a;}.cls-7{fill:#fcca98;}.cls-8{fill:#6ab7d8;}.cls-9{fill:#b4cd9c;}.cls-10{fill:#f37d3b;}.cls-11{fill:#f89e3e;}.cls-12{fill:#ffc540;}</style></defs><title>mara</title><rect class="cls-1" x="10.48" y="79.07" width="7.57" height="20.93" rx="3.78" ry="3.78"/><rect class="cls-1" x="80.89" y="79.07" width="7.57" height="20.93" rx="3.78" ry="3.78"/><rect class="cls-2" x="1.96" y="59.04" width="96.07" height="29.32" rx="6.67" ry="6.67"/><rect class="cls-3" x="1.96" y="47.67" width="96.07" height="29.32" rx="6.67" ry="6.67"/><rect class="cls-4" x="77.68" y="37.81" width="18.54" height="35.89" rx="9.27" ry="9.27"/><rect class="cls-5" x="65.41" y="40.17" width="29.1" height="31.3" rx="14.55" ry="14.55" transform="translate(135.79 -24.14) rotate(90)"/><rect class="cls-6" x="64.09" y="38.81" width="25.51" height="34.13" rx="12.76" ry="12.76" transform="translate(132.72 -20.97) rotate(90)"/><polyline class="cls-5" points="85.97 43.12 85.97 68.63 89.71 66.36 92.7 62.85 94.34 58.37 94.34 53.51 91.58 46.89 88.58 44.16"/><circle class="cls-5" cx="79.8" cy="47.56" r="1.08"/><circle class="cls-5" cx="79.8" cy="64.38" r="1.08"/><rect class="cls-5" x="69.41" y="51.23" width="2.62" height="32.89" rx="1.31" ry="1.31" transform="translate(138.39 -3.05) rotate(90)"/><rect class="cls-5" x="69.41" y="27.46" width="2.62" height="32.89" rx="1.31" ry="1.31" transform="translate(114.62 -26.82) rotate(90)"/><rect class="cls-4" x="3.64" y="39.83" width="71.31" height="31.09" rx="8.22" ry="8.22"/><rect class="cls-7" x="71.24" y="46.06" width="4.44" height="3.21" rx="1.61" ry="1.61"/><rect class="cls-7" x="71.24" y="48.3" width="4.44" height="3.21" rx="1.61" ry="1.61"/><rect class="cls-7" x="71.24" y="50.55" width="4.44" height="3.21" rx="1.61" ry="1.61"/><rect class="cls-7" x="71.24" y="57.57" width="4.44" height="3.21" rx="1.61" ry="1.61"/><rect class="cls-7" x="71.24" y="59.81" width="4.44" height="3.21" rx="1.61" ry="1.61"/><rect class="cls-7" x="71.24" y="62.06" width="4.44" height="3.21" rx="1.61" ry="1.61"/><path class="cls-8" d="M84,32.77c0,.81-1.48,2.95-1.48,2.95s-1.48-2.14-1.48-2.95a1.48,1.48,0,0,1,3,0Z"/><path class="cls-8" d="M91.88,31.64c-.46.67-2.88,1.61-2.88,1.61s0-2.6.44-3.27a1.48,1.48,0,1,1,2.44,1.66Z"/><circle class="cls-5" cx="61.76" cy="14.2" r="1"/><path class="cls-9" d="M56.08,48.44c3.7,4.17-2.48,6.49-10.87,6.49S30,52,30,48.44,44.8,33.59,45.21,42C45.72,52.42,53.71,45.77,56.08,48.44Z"/><path class="cls-10" d="M57.62,11.34A3.21,3.21,0,0,0,63.83,13c.44-1.72,1.74-12.49,0-12.94S58.06,9.63,57.62,11.34Z"/><rect class="cls-11" x="31.55" y="20.69" width="22.77" height="29.86" rx="11.39" ry="11.39"/><rect class="cls-11" x="40.82" y="1.77" width="22.77" height="29.86" rx="11.39" ry="11.39"/><circle class="cls-5" cx="49.86" cy="14.2" r="1"/><circle class="cls-5" cx="61.76" cy="14.2" r="1"/><rect class="cls-12" x="51.86" y="16.64" width="1.85" height="3.91" rx="0.93" ry="0.93"/><rect class="cls-12" x="49.56" y="17.18" width="1.85" height="3.91" rx="0.93" ry="0.93"/><rect class="cls-12" x="56.16" y="16.14" width="1.85" height="3.91" rx="0.93" ry="0.93"/><rect class="cls-12" x="58.67" y="16.7" width="1.85" height="3.91" rx="0.93" ry="0.93"/><path class="cls-11" d="M48.64,18.59A5.94,5.94,0,0,0,54,27.17h6.16a5.94,5.94,0,0,0,5.37-8.58Z"/><polygon class="cls-10" points="54.47 15.8 58.82 15.8 56.64 10.06 54.47 15.8"/><path class="cls-11" d="M44.29,11.34A3.21,3.21,0,0,1,38.08,13C37.63,11.23,36.34.46,38.05,0S43.84,9.63,44.29,11.34Z"/><path class="cls-10" d="M41.85,11.5a1.81,1.81,0,0,1-1,2.31c-.81.21-1.68-.49-2-1.56s-1.31-7.76-.5-8S41.57,10.42,41.85,11.5Z"/><rect class="cls-10" x="42.93" y="38.53" width="4.09" height="12.25" rx="2.05" ry="2.05"/><rect class="cls-11" x="50" y="33.93" width="6.09" height="18.23" rx="3.05" ry="3.05"/><rect class="cls-11" x="49.47" y="46.8" width="9.61" height="4.94" rx="2.47" ry="2.47" transform="translate(37.45 -22.07) rotate(34.49)"/><rect class="cls-10" x="46.84" y="18.59" width="20.29" height="1.95" rx="0.98" ry="0.98"/><rect class="cls-10" x="47.95" y="35.42" width="4.09" height="14.2" rx="2.05" ry="2.05"/><rect class="cls-11" x="44.39" y="33.93" width="6.09" height="18.23" rx="3.05" ry="3.05"/><rect class="cls-11" x="43.98" y="48.3" width="9.61" height="4.94" rx="2.47" ry="2.47" transform="translate(37.33 -18.7) rotate(34.49)"/></svg>