<svg xmlns="http://www.w3.org/2000/svg" viewBox="0 0 512 512" role="img" aria-labelledby="title desc">
  <title id="title">Little Alchemy 2 Cheats app icon</title>
  <desc id="desc">Unofficial cheats guide icon with a test flask, magnifying glass, and cheats label.</desc>
  <defs>
    <linearGradient id="bg" x1="0" y1="0" x2="1" y2="1">
      <stop offset="0" stop-color="#102a43"/>
      <stop offset="0.56" stop-color="#1f7a8c"/>
      <stop offset="1" stop-color="#43aa8b"/>
    </linearGradient>
    <linearGradient id="gold" x1="0" y1="0" x2="1" y2="1">
      <stop offset="0" stop-color="#ffe066"/>
      <stop offset="1" stop-color="#ff9f1c"/>
    </linearGradient>
  </defs>
  <rect width="512" height="512" rx="104" fill="url(#bg)"/>
  <path d="M196 64h138v45l-43 58v107c0 54-44 98-98 98h-26c-54 0-98-44-98-98V167l85-58V64z" fill="#f8fbff"/>
  <path d="M196 64h138v45l-43 58v107c0 54-44 98-98 98h-26c-54 0-98-44-98-98V167l85-58V64z" fill="none" stroke="#102a43" stroke-width="24" stroke-linejoin="round"/>
  <path d="M99 245c40 22 80 21 121 0 30-16 60-19 91-4v36c0 50-40 90-90 90h-62c-47 0-85-38-85-85v-24c8-5 16-9 25-13z" fill="#43aa8b"/>
  <path d="M202 64h126" stroke="#f8fbff" stroke-width="24" stroke-linecap="round"/>
  <circle cx="121" cy="262" r="14" fill="#f8fbff"/>
  <circle cx="168" cy="292" r="11" fill="#f8fbff"/>
  <circle cx="313" cy="254" r="78" fill="none" stroke="#ffbf3f" stroke-width="40"/>
  <path d="M369 310l61 61" stroke="#ffbf3f" stroke-width="46" stroke-linecap="round"/>
  <circle cx="313" cy="254" r="32" fill="#102a43" opacity="0.12"/>
  <rect x="64" y="350" width="384" height="88" rx="34" fill="url(#gold)"/>
  <text x="256" y="406" text-anchor="middle" fill="#102a43" font-family="Arial, Helvetica, sans-serif" font-size="54" font-weight="900">CHEATS</text>
  <circle cx="392" cy="118" r="42" fill="#102a43"/>
  <text x="392" y="136" text-anchor="middle" fill="#ffffff" font-family="Arial, Helvetica, sans-serif" font-size="58" font-weight="900">?</text>
</svg>
